<svg xmlns="http://www.w3.org/2000/svg" width="1116.411" height="831.86" viewBox="0 0 1116.411 831.86">
  <g id="Group_2332" data-name="Group 2332" transform="translate(-792.447 -239.56)">
    <g id="Group_2331" data-name="Group 2331" transform="translate(792.447 239.56)">
      <g id="New_entries-rafiki" data-name="New entries-rafiki">
        <g id="freepik--background-complete--inject-49">
          <rect id="Rectangle_17337" data-name="Rectangle 17337" width="1116.411" height="0.558" transform="translate(0 731.026)" fill="#ebebeb"/>
          <rect id="Rectangle_17338" data-name="Rectangle 17338" width="73.951" height="0.558" transform="translate(930.596 766.952)" fill="#ebebeb"/>
          <rect id="Rectangle_17339" data-name="Rectangle 17339" width="19.403" height="0.558" transform="translate(720.152 773.025)" fill="#ebebeb"/>
          <rect id="Rectangle_17340" data-name="Rectangle 17340" width="42.848" height="0.558" transform="translate(885.515 746.231)" fill="#ebebeb"/>
          <rect id="Rectangle_17341" data-name="Rectangle 17341" width="96.436" height="0.558" transform="translate(117.134 749.983)" fill="#ebebeb"/>
          <rect id="Rectangle_17342" data-name="Rectangle 17342" width="14.134" height="0.558" transform="translate(233.464 749.983)" fill="#ebebeb"/>
          <rect id="Rectangle_17343" data-name="Rectangle 17343" width="209.171" height="0.558" transform="translate(293.549 759.405)" fill="#ebebeb"/>
          <path id="Path_5703" data-name="Path 5703" d="M482.073,686.442H50.937A12.749,12.749,0,0,1,38.21,673.693V67.638A12.749,12.749,0,0,1,50.937,55H482.073a12.749,12.749,0,0,1,12.749,12.749V673.693A12.749,12.749,0,0,1,482.073,686.442Zm-431.136-631A12.191,12.191,0,0,0,38.768,67.638V673.693a12.191,12.191,0,0,0,12.169,12.191H482.073a12.214,12.214,0,0,0,12.191-12.191V67.638a12.213,12.213,0,0,0-12.191-12.191Z" transform="translate(47.106 -55)" fill="#ebebeb"/>
          <path id="Path_5704" data-name="Path 5704" d="M698.407,686.442H267.249A12.772,12.772,0,0,1,254.5,673.693V67.638A12.772,12.772,0,0,1,267.249,55H698.407a12.749,12.749,0,0,1,12.7,12.638V673.693A12.75,12.75,0,0,1,698.407,686.442Zm-431.158-631a12.214,12.214,0,0,0-12.191,12.191V673.693a12.214,12.214,0,0,0,12.191,12.191H698.407A12.214,12.214,0,0,0,710.6,673.693V67.638a12.214,12.214,0,0,0-12.191-12.191Z" transform="translate(313.753 -55)" fill="#ebebeb"/>
          <rect id="Rectangle_17344" data-name="Rectangle 17344" width="238.979" height="246.928" transform="translate(199.346 174.272)" fill="#ebebeb"/>
          <rect id="Rectangle_17345" data-name="Rectangle 17345" width="238.979" height="246.928" transform="translate(207.697 174.272)" fill="#f0f0f0"/>
          <rect id="Rectangle_17346" data-name="Rectangle 17346" width="226.631" height="235.339" transform="translate(213.726 180.122)" fill="#e0e0e0"/>
          <rect id="Rectangle_17347" data-name="Rectangle 17347" width="220.96" height="235.339" transform="translate(213.726 180.122)" fill="#f5f5f5"/>
          <rect id="Rectangle_17348" data-name="Rectangle 17348" width="4.488" height="235.339" transform="translate(321.995 180.122)" fill="#ebebeb"/>
          <path id="Path_5705" data-name="Path 5705" d="M170.747,135.67,107.781,370.987H101.73L164.7,135.67Z" transform="translate(125.415 44.452)" fill="#fff"/>
          <rect id="Rectangle_17349" data-name="Rectangle 17349" width="3.84" height="243.489" transform="translate(324.563 176.482)" fill="#f0f0f0"/>
          <path id="Path_5706" data-name="Path 5706" d="M155.292,135.67,95.72,358.372v-122.4l26.816-100.3Z" transform="translate(118.006 44.452)" fill="#fff"/>
          <path id="Path_5707" data-name="Path 5707" d="M226.3,145.23v22.6L175.081,359.2H169.03Z" transform="translate(208.384 56.238)" fill="#fff"/>
          <path id="Path_5708" data-name="Path 5708" d="M219.558,165.66V288.086l-12.3,45.929H174.5Z" transform="translate(215.127 81.424)" fill="#fff"/>
          <path id="Path_5709" data-name="Path 5709" d="M300.859,501.181h49.948L324.594,287.657a19.046,19.046,0,0,0-18.376-16.367H88.54l31.885,229.981Z" transform="translate(109.154 211.647)" fill="#f5f5f5"/>
          <path id="Path_5710" data-name="Path 5710" d="M154.889,501.184H105.03L78.816,287.659a14.156,14.156,0,0,1,14.357-16.367H110.3a19.046,19.046,0,0,1,18.376,16.366Z" transform="translate(96.951 211.644)" fill="#f0f0f0"/>
          <path id="Path_5711" data-name="Path 5711" d="M186.035,461.276,177.1,357.986a9.869,9.869,0,0,0-8.574-8.931l-3.707-.469a13.241,13.241,0,0,1-11.5-11.946l-1.63-18.823a13.2,13.2,0,0,1,13.151-14.357H81.45A13.2,13.2,0,0,0,68.3,317.817l1.652,18.823a13.2,13.2,0,0,0,11.477,11.946l3.706.469a9.869,9.869,0,0,1,8.574,8.931l8.931,103.29a14.6,14.6,0,0,0,14.536,13.4h83.351A14.6,14.6,0,0,1,186.035,461.276Z" transform="translate(84.136 251.307)" fill="#e6e6e6"/>
          <path id="Path_5712" data-name="Path 5712" d="M267.823,332.117a31.393,31.393,0,0,1,31.26-28.647H226.516a31.393,31.393,0,0,0-31.259,28.647L188,414.062h72.567Z" transform="translate(231.771 251.319)" fill="#e6e6e6"/>
          <path id="Path_5713" data-name="Path 5713" d="M432.938,303.47h-32.22a31.394,31.394,0,0,0-31.259,28.647l-7.19,81.945H189.448l-7.167-81.878a31.371,31.371,0,0,0-31.259-28.647H118.78a13.2,13.2,0,0,0-13.151,14.357l1.63,18.823a13.24,13.24,0,0,0,11.5,11.946l3.706.469a9.869,9.869,0,0,1,8.574,8.931l8.931,103.29a14.6,14.6,0,0,0,14.536,13.4H397.123a14.6,14.6,0,0,0,14.536-13.4l9.043-103.29a9.847,9.847,0,0,1,8.552-8.931l3.706-.469a13.218,13.218,0,0,0,11.5-11.946l1.652-18.823a13.218,13.218,0,0,0-13.174-14.424Z" transform="translate(130.158 251.319)" fill="#f0f0f0"/>
          <rect id="Rectangle_17350" data-name="Rectangle 17350" width="336.419" height="426.023" transform="translate(971.836 725.891) rotate(180)" fill="#f0f0f0"/>
          <rect id="Rectangle_17351" data-name="Rectangle 17351" width="312.64" height="91.099" transform="translate(959.957 406.508) rotate(180)" fill="#e0e0e0"/>
          <rect id="Rectangle_17352" data-name="Rectangle 17352" width="17.751" height="76.34" transform="translate(959.957 406.485) rotate(180)" fill="#ebebeb"/>
          <rect id="Rectangle_17353" data-name="Rectangle 17353" width="17.751" height="76.34" transform="translate(874.083 406.485) rotate(180)" fill="#ebebeb"/>
          <rect id="Rectangle_17354" data-name="Rectangle 17354" width="17.751" height="76.34" transform="matrix(-0.985, -0.17, 0.17, -0.985, 763.361, 406.472)" fill="#ebebeb"/>
          <rect id="Rectangle_17355" data-name="Rectangle 17355" width="17.751" height="66.292" transform="translate(937.942 406.485) rotate(180)" fill="#ebebeb"/>
          <rect id="Rectangle_17356" data-name="Rectangle 17356" width="17.751" height="66.292" transform="translate(897.126 406.485) rotate(180)" fill="#ebebeb"/>
          <rect id="Rectangle_17357" data-name="Rectangle 17357" width="17.751" height="66.292" transform="translate(794.081 406.485) rotate(180)" fill="#ebebeb"/>
          <rect id="Rectangle_17358" data-name="Rectangle 17358" width="17.751" height="66.292" transform="translate(835.981 406.463) rotate(-167.47)" fill="#ebebeb"/>
          <rect id="Rectangle_17359" data-name="Rectangle 17359" width="8.887" height="80.136" transform="translate(913.693 406.508) rotate(180)" fill="#ebebeb"/>
          <rect id="Rectangle_17360" data-name="Rectangle 17360" width="8.887" height="80.136" transform="translate(808.036 406.53) rotate(180)" fill="#ebebeb"/>
          <rect id="Rectangle_17361" data-name="Rectangle 17361" width="312.64" height="91.099" transform="translate(647.295 420.909)" fill="#e0e0e0"/>
          <rect id="Rectangle_17362" data-name="Rectangle 17362" width="17.751" height="76.34" transform="translate(647.295 435.668)" fill="#ebebeb"/>
          <rect id="Rectangle_17363" data-name="Rectangle 17363" width="17.751" height="76.34" transform="translate(733.192 435.668)" fill="#ebebeb"/>
          <rect id="Rectangle_17364" data-name="Rectangle 17364" width="17.831" height="76.683" transform="translate(834.802 439.162) rotate(-9.744)" fill="#ebebeb"/>
          <rect id="Rectangle_17365" data-name="Rectangle 17365" width="17.751" height="66.292" transform="translate(669.311 445.738)" fill="#ebebeb"/>
          <rect id="Rectangle_17366" data-name="Rectangle 17366" width="17.751" height="66.292" transform="translate(710.127 445.738)" fill="#ebebeb"/>
          <rect id="Rectangle_17367" data-name="Rectangle 17367" width="17.751" height="66.292" transform="translate(813.172 445.738)" fill="#ebebeb"/>
          <rect id="Rectangle_17368" data-name="Rectangle 17368" width="17.751" height="66.292" transform="translate(756.953 447.283) rotate(-12.53)" fill="#ebebeb"/>
          <rect id="Rectangle_17369" data-name="Rectangle 17369" width="8.887" height="80.136" transform="translate(693.559 431.872)" fill="#ebebeb"/>
          <rect id="Rectangle_17370" data-name="Rectangle 17370" width="8.887" height="80.136" transform="translate(799.194 431.872)" fill="#ebebeb"/>
          <rect id="Rectangle_17371" data-name="Rectangle 17371" width="17.751" height="76.34" transform="translate(959.957 512.008) rotate(180)" fill="#ebebeb"/>
          <rect id="Rectangle_17372" data-name="Rectangle 17372" width="17.751" height="66.292" transform="translate(937.942 512.008) rotate(180)" fill="#ebebeb"/>
          <rect id="Rectangle_17373" data-name="Rectangle 17373" width="17.751" height="66.292" transform="translate(897.126 512.008) rotate(180)" fill="#ebebeb"/>
          <rect id="Rectangle_17374" data-name="Rectangle 17374" width="8.887" height="80.136" transform="translate(913.693 512.031) rotate(180)" fill="#ebebeb"/>
          <rect id="Rectangle_17375" data-name="Rectangle 17375" width="312.64" height="91.099" transform="translate(959.957 617.554) rotate(180)" fill="#e0e0e0"/>
          <rect id="Rectangle_17376" data-name="Rectangle 17376" width="17.751" height="76.34" transform="translate(780.505 617.532) rotate(180)" fill="#ebebeb"/>
          <rect id="Rectangle_17377" data-name="Rectangle 17377" width="17.751" height="76.34" transform="matrix(-0.985, -0.17, 0.17, -0.985, 668.424, 552.084)" fill="#ebebeb"/>
          <rect id="Rectangle_17378" data-name="Rectangle 17378" width="17.751" height="66.292" transform="translate(844.364 617.532) rotate(180)" fill="#ebebeb"/>
          <rect id="Rectangle_17379" data-name="Rectangle 17379" width="17.751" height="66.292" transform="translate(803.548 617.532) rotate(180)" fill="#ebebeb"/>
          <rect id="Rectangle_17380" data-name="Rectangle 17380" width="17.751" height="66.292" transform="translate(700.503 617.532) rotate(180)" fill="#ebebeb"/>
          <rect id="Rectangle_17381" data-name="Rectangle 17381" width="17.751" height="66.292" transform="translate(742.421 617.518) rotate(-167.47)" fill="#ebebeb"/>
          <rect id="Rectangle_17382" data-name="Rectangle 17382" width="8.887" height="80.136" transform="translate(820.138 617.554) rotate(180)" fill="#ebebeb"/>
          <rect id="Rectangle_17383" data-name="Rectangle 17383" width="8.887" height="80.136" transform="translate(714.503 617.554) rotate(180)" fill="#ebebeb"/>
          <rect id="Rectangle_17384" data-name="Rectangle 17384" width="17.751" height="76.34" transform="matrix(-0.985, -0.17, 0.17, -0.985, 874.124, 617.513)" fill="#ebebeb"/>
          <rect id="Rectangle_17385" data-name="Rectangle 17385" width="17.751" height="66.292" transform="translate(904.829 617.532) rotate(180)" fill="#ebebeb"/>
          <rect id="Rectangle_17386" data-name="Rectangle 17386" width="17.751" height="66.292" transform="translate(946.746 617.489) rotate(-167.47)" fill="#ebebeb"/>
          <rect id="Rectangle_17387" data-name="Rectangle 17387" width="8.887" height="80.136" transform="translate(918.829 617.554) rotate(180)" fill="#ebebeb"/>
          <path id="Path_5714" data-name="Path 5714" d="M430.654,225.94v-6.319H420.405a119.948,119.948,0,0,0,3.774-60.041s.134,26.213-10,26.392c-15.473.29-16.635-26.392-16.635-26.392s-3.729,38.181,10.159,60.041H397.095v6.319Z" transform="translate(489.537 73.929)" fill="#e0e0e0"/>
          <path id="Path_5715" data-name="Path 5715" d="M399.22,172.351a8.931,8.931,0,1,0,8.931-8.931A8.931,8.931,0,0,0,399.22,172.351Z" transform="translate(492.167 78.663)" fill="#e0e0e0"/>
          <path id="Path_5716" data-name="Path 5716" d="M402.9,223.992v-3.684l-10.829-5.046,5.426-5.269-13.4-47.559v29.63s1.853,0,1.853,4.265-6.14,3.282-6.14-.246,2.01-4.019,2.01-4.019v-30.9L369.5,208.228l5.537,7.033-11.164,5.046v3.684Z" transform="translate(448.587 75.876)" fill="#e0e0e0"/>
          <path id="Path_5717" data-name="Path 5717" d="M373,222.882v-2.925l-9.958-2.277V174.028L354.49,162.06l-7.3,9.378v20.028l-3.773-5.247-5.292-2.01-3.773,8.261,8.06,25.209-8.06,2.277v2.925Z" transform="translate(412.194 76.986)" fill="#e0e0e0"/>
          <path id="Path_5718" data-name="Path 5718" d="M351.8,224.222,339.569,162.06H302.1l8.887,35.256L297.86,222.882Z" transform="translate(367.208 76.986)" fill="#e0e0e0"/>
          <circle id="Ellipse_305" data-name="Ellipse 305" cx="52.583" cy="52.583" r="52.583" transform="translate(754.296 101.671) rotate(-13.28)" fill="#e0e0e0"/>
          <circle id="Ellipse_306" data-name="Ellipse 306" cx="44.723" cy="44.723" r="44.723" transform="translate(766.239 103.703) rotate(-9.22)" fill="#f0f0f0"/>
          <path id="Path_5719" data-name="Path 5719" d="M367.09,104.29V135.55l20.721-11.722" transform="translate(452.557 5.766)" fill="#f0f0f0"/>
          <path id="Path_5720" data-name="Path 5720" d="M368.323,139.015a2.212,2.212,0,0,1-2.233-2.233v-31.26a2.233,2.233,0,0,1,4.466,0v27.441l17.394-9.847A2.241,2.241,0,1,1,390.182,127l-20.721,11.722A2.233,2.233,0,0,1,368.323,139.015Z" transform="translate(451.324 4.533)" fill="#e0e0e0"/>
        </g>
        <g id="freepik--Shadow--inject-49" transform="translate(125.284 781.309)">
          <ellipse id="freepik--path--inject-49" cx="432.922" cy="25.276" rx="432.922" ry="25.276" fill="#f5f5f5"/>
        </g>
        <g id="freepik--Plant--inject-49" transform="translate(173.322 464.661)">
          <path id="Path_5721" data-name="Path 5721" d="M117.981,516.708h0a.893.893,0,0,1-.781-.982c0-.156.134-1.876.268-4.845.246-4.466.6-13.732.469-26.169a4.26,4.26,0,0,0,0-.536c-.179-13.888-.915-27.553-2.233-40.66-1.206-12.214-2.925-24.07-5.113-35.234a282.334,282.334,0,0,0-7.123-28.491h0c-.424-1.384-.871-2.746-1.317-4.131s-.759-2.233-1.161-3.372c-1-2.925-1.943-5.716-2.746-8.306-1.786-5.694-3.349-11.387-4.689-16.9-.8-3.327-1.518-6.587-2.233-9.713a212.544,212.544,0,0,1-4.041-35.881c-.134-4.756,0-9.49.2-14.067a135.532,135.532,0,0,1,1.541-14.4,1.9,1.9,0,0,1,.156-.938v-.447a1.027,1.027,0,0,1,.246-.6.893.893,0,0,1,1.25,0,.96.96,0,0,1,.246.871h0v.469a2.213,2.213,0,0,1-.156.982,131.355,131.355,0,0,0-1.518,14.178c-.268,4.466-.335,9.244-.2,13.933a209.173,209.173,0,0,0,4.019,35.591c.581,3.1,1.3,6.341,2.1,9.623,1.317,5.493,2.88,11.164,4.667,16.813.782,2.568,1.7,5.337,2.724,8.239.4,1.139.781,2.233,1.161,3.394s.893,2.769,1.317,4.153h0A281.858,281.858,0,0,1,112.2,407.97c2.233,11.164,3.93,23.154,5.135,35.435,1.317,13.129,2.054,26.794,2.233,40.771v.625c.134,12.437-.246,21.77-.469,26.213-.134,3.014-.246,4.823-.268,4.979A.916.916,0,0,1,117.981,516.708Z" transform="translate(-65.788 -253.648)" fill="#7d25f5"/>
          <path id="Path_5722" data-name="Path 5722" d="M88.52,274.751h0a27.084,27.084,0,0,1,4.868-3.729,26.038,26.038,0,0,1,6.118-2.612" transform="translate(-64.192 -256.564)" fill="#7d25f5"/>
          <path id="Path_5723" data-name="Path 5723" d="M89.007,276.145a.647.647,0,0,1-.357,0,.848.848,0,0,1-.447-1.139.559.559,0,0,1,.179-.268h0a26.547,26.547,0,0,1,5-3.841,27.622,27.622,0,0,1,6.453-2.88.871.871,0,0,1,1.072.6.893.893,0,0,1-.6,1.094,24.945,24.945,0,0,0-5.939,2.545,27.351,27.351,0,0,0-4.689,3.573h0A.916.916,0,0,1,89.007,276.145Z" transform="translate(-64.679 -257.087)" fill="#7d25f5"/>
          <path id="Path_5724" data-name="Path 5724" d="M91.488,282.264a.781.781,0,0,1-.558-.2l-5.917-4.912a.872.872,0,0,1,1.116-1.34l5.939,4.912a.871.871,0,0,1,0,1.228.848.848,0,0,1-.581.313Z" transform="translate(-68.903 -247.688)" fill="#7d25f5"/>
          <path id="Path_5725" data-name="Path 5725" d="M92.981,321.56a.938.938,0,0,1-.871-.916h0a24.025,24.025,0,0,1,4.466-10.919,23.023,23.023,0,0,1,3.55-3.84.879.879,0,1,1,1.139,1.34,21.434,21.434,0,0,0-3.282,3.639,21.659,21.659,0,0,0-3.014,5.671,20.544,20.544,0,0,0-1.116,4.287.826.826,0,0,1-.826.849Z" transform="translate(-59.767 -210.621)" fill="#7d25f5"/>
          <path id="Path_5726" data-name="Path 5726" d="M100.468,325.481a.893.893,0,0,1-.8-.536,14.8,14.8,0,0,0-8.775-7.927.915.915,0,0,1-.558-1.116.893.893,0,0,1,1.116-.558,16.635,16.635,0,0,1,9.824,8.931.871.871,0,0,1-.447,1.161.647.647,0,0,1-.357.045Z" transform="translate(-62.006 -198.756)" fill="#7d25f5"/>
          <path id="Path_5727" data-name="Path 5727" d="M103.856,365.158c-2.01-2.233-3.84-10.919-4.823-15.63-.246-1.116-.424-2.077-.6-2.769" transform="translate(-51.975 -159.972)" fill="#7d25f5"/>
          <path id="Path_5728" data-name="Path 5728" d="M104.326,366.375a.871.871,0,0,1-.67-.29c-1.987-2.233-3.639-9.422-5.024-15.987-.223-1.116-.424-2.054-.581-2.746a.893.893,0,0,1,1.719-.4c.156.692.357,1.652.6,2.769.893,4.265,2.746,13.151,4.6,15.183a.893.893,0,0,1,0,1.25A.826.826,0,0,1,104.326,366.375Z" transform="translate(-52.445 -160.43)" fill="#7d25f5"/>
          <path id="Path_5729" data-name="Path 5729" d="M90.949,332.729a.871.871,0,0,1-.871-.8c-.045-1.429-2.277-35.435,16.367-48.832a.893.893,0,0,1,1.228.179.871.871,0,0,1-.2,1.228c-17.863,12.995-15.63,47.046-15.63,47.38a.871.871,0,0,1-.826.938Z" transform="translate(-62.401 -238.67)" fill="#7d25f5"/>
          <path id="Path_5730" data-name="Path 5730" d="M91.215,346.033C88.982,354.25,107.2,368.92,107.2,368.92s23-3.907,25.142-12.124-4.287-21.212-15.63-24.181S93.358,337.816,91.215,346.033Z" transform="translate(-61.104 -178.18)" fill="#7d25f5"/>
          <path id="Path_5731" data-name="Path 5731" d="M81.015,307.884c2.59,8.507,19.4,13.91,19.4,13.91s10.941-13.866,8.351-22.328S96.6,281.872,88.941,284.216,78.425,299.377,81.015,307.884Z" transform="translate(-74.595 -237.538)" fill="#7d25f5"/>
          <path id="Path_5732" data-name="Path 5732" d="M109.549,318.008a22.55,22.55,0,0,1-6.922,4.332,7.525,7.525,0,0,1-7.659-1.451c-2.344-2.478-1.92-6.453-.648-9.6,2.5-6.252,12.281-17.059,20.274-14.446C126.139,300.659,114.439,314.034,109.549,318.008Z" transform="translate(-58.316 -222.007)" fill="#7d25f5"/>
          <path id="Path_5733" data-name="Path 5733" d="M100.107,318.516c1.563,1.764,3.26,4.041,2.523,6.3a4.734,4.734,0,0,1-5.113,2.791,14.155,14.155,0,0,1-5.738-2.5c-4.108-2.612-12.593-8.083-7.592-13.777S96.824,314.764,100.107,318.516Z" transform="translate(-71.425 -205.902)" fill="#7d25f5"/>
          <path id="Path_5734" data-name="Path 5734" d="M113.745,278.089a4.131,4.131,0,0,1,3.885,2.88c.424,1.965-1.139,3.8-2.679,5.091-3.863,3.238-15.451,12.035-18.465,4.175C93.515,282.8,108.341,277.754,113.745,278.089Z" transform="translate(-54.853 -244.651)" fill="#7d25f5"/>
          <path id="Path_5735" data-name="Path 5735" d="M97.8,267.217c2.478.112,4.89-.871,7.368-.826s5.314,1.92,4.868,4.354-3.148,3.126-5.426,3.372a45.619,45.619,0,0,1-11.7-.29,3.684,3.684,0,0,1-2.411-1.094c-1.072-1.429.424-3.483,2.233-4.086a23.179,23.179,0,0,0,5.113-1.451Z" transform="translate(-62.197 -259.055)" fill="#7d25f5"/>
          <path id="Path_5736" data-name="Path 5736" d="M89.85,275.2c-2.456.179-4.912-.759-7.391-.67S77.19,276.565,77.681,279s3.238,3.059,5.515,3.26a44.457,44.457,0,0,0,11.678-.558,3.617,3.617,0,0,0,2.411-1.139c1.027-1.451-.514-3.461-2.233-4.019a24.56,24.56,0,0,1-5.158-1.34Z" transform="translate(-77.625 -249.022)" fill="#7d25f5"/>
          <path id="Path_5737" data-name="Path 5737" d="M89.685,279.582h0a.893.893,0,0,1-.8-.938c.335-4.823-.179-9.445-1.094-9.713a.893.893,0,1,1,.491-1.7c2.791.8,2.568,8.328,2.233,11.521a.871.871,0,0,1-.826.826Z" transform="translate(-66.05 -258.113)" fill="#7d25f5"/>
          <path id="Path_5738" data-name="Path 5738" d="M98.421,273.254a21.234,21.234,0,0,0-6.475-8.753c-3.059-2.032-7.837-1.987-9.869,1.072-2.233,3.439.357,8.373,4.153,9.981s8.105.893,12.147.134v-1.809Z" transform="translate(-73.156 -263.105)" fill="#7d25f5"/>
          <path id="Path_5739" data-name="Path 5739" d="M102.718,419.9h-.156a.893.893,0,0,1-.715-1.027c5.895-31.483,23.8-45.215,24-45.349a.878.878,0,1,1,1.049,1.407c-.179.134-17.55,13.509-23.311,44.255A.893.893,0,0,1,102.718,419.9Z" transform="translate(-47.778 -127.189)" fill="#7d25f5"/>
          <path id="Path_5740" data-name="Path 5740" d="M111.023,377.705a.871.871,0,0,1-.313-1.7,19.472,19.472,0,0,1,9.266-.335.893.893,0,0,1-.29,1.742,17.862,17.862,0,0,0-8.351.245A.759.759,0,0,1,111.023,377.705Z" transform="translate(-37.573 -124.826)" fill="#7d25f5"/>
          <path id="Path_5741" data-name="Path 5741" d="M109.229,391.259a.871.871,0,0,1-.871-.848,38.337,38.337,0,0,1,6.029-21.748.871.871,0,0,1,1.228-.223.893.893,0,0,1,.223,1.228,37.154,37.154,0,0,0-5.716,20.654.893.893,0,0,1-.848.938Z" transform="translate(-39.754 -133.445)" fill="#7d25f5"/>
          <path id="Path_5742" data-name="Path 5742" d="M106.394,385.931a.871.871,0,0,1-.6-.246.893.893,0,0,1,0-1.25,12.415,12.415,0,0,1,12.169-2.969.893.893,0,0,1,.581,1.094.871.871,0,0,1-1.094.581,10.852,10.852,0,0,0-10.4,2.523.848.848,0,0,1-.648.268Z" transform="translate(-43.215 -117.824)" fill="#7d25f5"/>
          <path id="Path_5743" data-name="Path 5743" d="M106.106,395.261a.893.893,0,0,1-.8-.491,29.251,29.251,0,0,1-1.876-14.915.893.893,0,0,1,1.764.223,27.933,27.933,0,0,0,1.7,13.933.871.871,0,0,1-.781,1.25Z" transform="translate(-46.142 -120.031)" fill="#7d25f5"/>
          <path id="Path_5744" data-name="Path 5744" d="M105.5,421.016c0,.134-.647.8,1.876.982,6.207.4,17.148.268,21.122-5,5.649-7.5-7.882-7.145-6.7-11.343s15.853-.38,18.532-6.341-7.9-5.046-7.5-8.128,11.633,1.206,15.116-5.113-6.14-3.126-4.644-5.738,13.4-13.4,8.44-15.92-16.322,8.641-20.1,9.78-5-10.182-9.914-6.542-1.116,20.81-6.9,22.775c-4.332,1.474-2.233-4.577-7.5-4.466C100.117,386.073,98.42,409.942,105.5,421.016Z" transform="translate(-48.839 -138.664)" fill="#7d25f5"/>
          <g id="Group_2327" data-name="Group 2327" transform="translate(52.135 225.38)" opacity="0.3">
            <path id="Path_5745" data-name="Path 5745" d="M105.5,421.016c0,.134-.647.8,1.876.982,6.207.4,17.148.268,21.122-5,5.649-7.5-7.882-7.145-6.7-11.343s15.853-.38,18.532-6.341-7.9-5.046-7.5-8.128,11.633,1.206,15.116-5.113-6.14-3.126-4.644-5.738,13.4-13.4,8.44-15.92-16.322,8.641-20.1,9.78-5-10.182-9.914-6.542-1.116,20.81-6.9,22.775c-4.332,1.474-2.233-4.577-7.5-4.466C100.117,386.073,98.42,409.942,105.5,421.016Z" transform="translate(-100.974 -364.044)" fill="#fff"/>
          </g>
          <path id="Path_5746" data-name="Path 5746" d="M116.495,419.453a.871.871,0,0,1-.848-.67A96.235,96.235,0,0,0,90.5,375.98a.893.893,0,1,1,1.183-1.317,98.244,98.244,0,0,1,25.655,43.674.871.871,0,0,1-.625,1.072Z" transform="translate(-62.225 -125.959)" fill="#7d25f5"/>
          <path id="Path_5747" data-name="Path 5747" d="M101.017,382.545H100.7a23.957,23.957,0,0,0-9.623-1.451.871.871,0,1,1,0-1.742,25.9,25.9,0,0,1,10.338,1.541h0a.871.871,0,0,1-.246,1.719Zm.246-1.719h0ZM101.262,380.825Z" transform="translate(-62.109 -119.841)" fill="#7d25f5"/>
          <path id="Path_5748" data-name="Path 5748" d="M99.96,393.956h0a.871.871,0,0,1-.848-.915,32.51,32.51,0,0,0-5.024-18.131.873.873,0,0,1,1.429-1,33.493,33.493,0,0,1,5.27,19.225A.871.871,0,0,1,99.96,393.956Z" transform="translate(-57.524 -126.965)" fill="#7d25f5"/>
          <path id="Path_5749" data-name="Path 5749" d="M104.266,387.617a.893.893,0,0,1-.6-.245,9.691,9.691,0,0,0-9.11-1.831.871.871,0,0,1-1.094-.581.893.893,0,0,1,.581-1.094,11.41,11.41,0,0,1,10.829,2.233.871.871,0,0,1-.6,1.518Z" transform="translate(-58.146 -114.866)" fill="#7d25f5"/>
          <path id="Path_5750" data-name="Path 5750" d="M100.909,397.5a.738.738,0,0,1-.38,0,.871.871,0,0,1-.424-1.161,24.739,24.739,0,0,0,1.474-12.281.893.893,0,0,1,.781-.982.871.871,0,0,1,.982.759,25.677,25.677,0,0,1-1.652,13.241.826.826,0,0,1-.781.424Z" transform="translate(-50.011 -115.213)" fill="#7d25f5"/>
          <path id="Path_5751" data-name="Path 5751" d="M122.378,419.989c-4.778.313-13.151-3.774-16.568-7.971s5.85-1.92,4.756-5.336-12.3-.357-14.6-5.2,5.917-4.064,5.47-6.587-8.931-1.63-11.812-6.7,4.622-2.5,3.372-4.644-10.985-10.874-7.167-12.95,12.973,7.078,15.942,8.016,3.372-5.694,7.3-2.7,1.7,16.88,6.274,18.51c3.394,1.206,1.7-5.046,5.6-3.617C127.8,393.24,124.321,419.877,122.378,419.989Z" transform="translate(-68.6 -130.96)" fill="#7d25f5"/>
          <g id="Group_2328" data-name="Group 2328" transform="translate(16.345 239.333)" opacity="0.2">
            <path id="Path_5752" data-name="Path 5752" d="M122.378,419.989c-4.778.313-13.151-3.774-16.568-7.971s5.85-1.92,4.756-5.336-12.3-.357-14.6-5.2,5.917-4.064,5.47-6.587-8.931-1.63-11.812-6.7,4.622-2.5,3.372-4.644-10.985-10.874-7.167-12.95,12.973,7.078,15.942,8.016,3.372-5.694,7.3-2.7,1.7,16.88,6.274,18.51c3.394,1.206,1.7-5.046,5.6-3.617C127.8,393.24,124.321,419.877,122.378,419.989Z" transform="translate(-84.945 -370.293)" fill="#fff"/>
          </g>
          <path id="Path_5753" data-name="Path 5753" d="M165.294,413.166c0,23.2,10.249,42.022-42.022,42.022-46.443,0-42-18.823-42-42.022s18.8-29.786,42-29.786S165.294,389.944,165.294,413.166Z" transform="translate(-73.268 -114.826)" fill="#263238"/>
          <rect id="Rectangle_17388" data-name="Rectangle 17388" width="93.019" height="23.02" transform="translate(3.562 268.107)" fill="#263238"/>
          <rect id="Rectangle_17389" data-name="Rectangle 17389" width="93.019" height="23.02" transform="translate(3.562 268.107)" fill="#fff" opacity="0.2"/>
        </g>
        <g id="freepik--Books--inject-49" transform="translate(509.709 761.593)">
          <path id="Path_5754" data-name="Path 5754" d="M326.524,419.124a27.6,27.6,0,0,1-2.233,12.147H228.28v-2.233h1.943V409.233H228.28V407h96.011A28.357,28.357,0,0,1,326.524,419.124Z" transform="translate(-228.28 -382.64)" fill="#263238"/>
          <path id="Path_5755" data-name="Path 5755" d="M326.524,419.124a27.6,27.6,0,0,1-2.233,12.147H228.28v-2.233h1.943V409.233H228.28V407h96.011A28.357,28.357,0,0,1,326.524,419.124Z" transform="translate(-228.28 -382.64)" fill="#fff" opacity="0.2"/>
          <path id="Path_5756" data-name="Path 5756" d="M275.169,419.124a27.6,27.6,0,0,1-2.233,12.147H228.28v-2.233h1.943V409.233H228.28V407h44.656a28.356,28.356,0,0,1,2.233,12.124Z" transform="translate(-228.28 -382.64)" opacity="0.2"/>
          <path id="Path_5757" data-name="Path 5757" d="M269.351,417.891a22.461,22.461,0,0,1-1.809,9.869H229.16V408h38.382a23.11,23.11,0,0,1,1.809,9.891Z" transform="translate(-227.195 -381.407)" fill="#fff" opacity="0.8"/>
          <path id="Path_5758" data-name="Path 5758" d="M276.375,419.149a27.6,27.6,0,0,1-2.233,12.147H256.28a27.6,27.6,0,0,0,2.233-12.147,28.356,28.356,0,0,0-2.233-12.169h17.863a28.358,28.358,0,0,1,2.233,12.169Z" transform="translate(-193.761 -382.665)" fill="#fff" opacity="0.6"/>
          <path id="Path_5759" data-name="Path 5759" d="M330.354,408.21a27.6,27.6,0,0,1-2.233,12.147H232.11v-2.233H234.1V398.363h-1.943V396.13h96.011a28.358,28.358,0,0,1,2.188,12.08Z" transform="translate(-223.558 -396.041)" fill="#7d25f5"/>
          <path id="Path_5760" data-name="Path 5760" d="M279,408.21a27.6,27.6,0,0,1-2.233,12.147H232.11v-2.233H234.1V398.363h-1.943V396.13h44.656A28.357,28.357,0,0,1,279,408.21Z" transform="translate(-223.558 -396.041)" opacity="0.2"/>
          <path id="Path_5761" data-name="Path 5761" d="M273.191,407a22.463,22.463,0,0,1-1.809,9.869H233V397.11h38.382A23.109,23.109,0,0,1,273.191,407Z" transform="translate(-222.461 -394.833)" fill="#fff" opacity="0.8"/>
          <path id="Path_5762" data-name="Path 5762" d="M280.205,408.259a27.6,27.6,0,0,1-2.233,12.147H260.11a27.6,27.6,0,0,0,2.233-12.147,28.358,28.358,0,0,0-2.233-12.169h17.863A28.356,28.356,0,0,1,280.205,408.259Z" transform="translate(-189.039 -396.09)" opacity="0.2"/>
        </g>
        <g id="freepik--speech-bubble--inject-49" transform="translate(841.353 417.798)">
          <circle id="Ellipse_309" data-name="Ellipse 309" cx="31.706" cy="31.706" r="31.706" transform="translate(0 61.717) rotate(-76.72)" fill="#7d25f5"/>
          <path id="Path_5825" data-name="Path 5825" d="M391.02,266.22l-9.4,24.717,20.9-16.635Z" transform="translate(-370.883 -212.401)" fill="#7d25f5"/>
          <path id="Path_5826" data-name="Path 5826" d="M413.045,260.953H389.176a1.139,1.139,0,0,1-1.116-1.116,1.116,1.116,0,0,1,1.116-1.116h23.869a1.116,1.116,0,0,1,1.116,1.116A1.139,1.139,0,0,1,413.045,260.953Z" transform="translate(-362.944 -221.647)" fill="#fff"/>
          <path id="Path_5827" data-name="Path 5827" d="M394.526,279.459a1.116,1.116,0,0,1-1.116-1.116V254.5a1.116,1.116,0,0,1,2.233,0v23.847a1.139,1.139,0,0,1-1.116,1.116Z" transform="translate(-356.348 -228.23)" fill="#fff"/>
        </g>
        <g id="freepik--Character--inject-49" transform="translate(657.88 500.44)">
          <path id="Path_5828" data-name="Path 5828" d="M404,286.924s-31.036-24.874-49.122,14.245c-10.226,22.083-2.032,68.682,18.131,84.468S435.1,365.921,435.1,365.921s9.266-45.014-4.89-63.948C412.078,277.769,404,286.924,404,286.924Z" transform="translate(-225.818 -279.129)" fill="#263238"/>
          <path id="Path_5829" data-name="Path 5829" d="M362.731,379.82a.536.536,0,0,1-.491-.313c-.223-.424-20.9-43.518-10.673-75.916,2.992-9.4,8.172-15.9,15.451-19.269,13.151-6.118,28.736.2,28.893.268a.536.536,0,0,1,.29.737.558.558,0,0,1-.715.29c-.156,0-15.317-6.207-28.022-.29-6.966,3.26-11.946,9.512-14.826,18.6-10.092,31.885,10.383,74.576,10.584,75a.558.558,0,0,1-.246.759.492.492,0,0,1-.246.134Z" transform="translate(-227.96 -276.014)" fill="#263238"/>
          <path id="Path_5830" data-name="Path 5830" d="M374.3,333.11s-5.493,49.457-7.279,55.352-26.973,37.377-26.973,37.377l7.145,3.707s26.794-27.531,31.059-35.725S388.882,343,388.882,343Z" transform="translate(-238.659 -212.58)" fill="#ebb376"/>
          <path id="Path_5831" data-name="Path 5831" d="M383.815,367.023l-1.384-.223-19.649-3.215-10.472-1.7s.915-30.032,11.923-38.628l10.584,9.8Z" transform="translate(-223.545 -224.723)" fill="#7d25f5"/>
          <path id="Path_5832" data-name="Path 5832" d="M376.774,360.155l-19.649-3.215c-1.541-13.71,5.269-28.29,5.269-28.29C371.17,334.567,376.06,348.835,376.774,360.155Z" transform="translate(-217.888 -218.078)" opacity="0.2"/>
          <path id="Path_5833" data-name="Path 5833" d="M468.116,366.554l-16.679,26.414c-33.113-7.7-139.239-23.891-152.256,12.5-16.21,45.259,100.857,81.319,165.631,83.53s116.754-34.653,75.8-129.1Z" transform="translate(-290.921 -179.553)" fill="#263238"/>
          <path id="Path_5834" data-name="Path 5834" d="M468.116,366.554l-16.679,26.414c-33.113-7.7-139.239-23.891-152.256,12.5-16.21,45.259,100.857,81.319,165.631,83.53s116.754-34.653,75.8-129.1Z" transform="translate(-290.921 -179.553)" opacity="0.2"/>
          <path id="Path_5835" data-name="Path 5835" d="M306.138,410.774a5.872,5.872,0,0,1-2.032-2.925,2.233,2.233,0,0,1,.781-2.077,1.317,1.317,0,0,1,1.295-.38c2.233.647,4.309,6.877,4.466,7.592a.313.313,0,0,1-.112.4.4.4,0,0,1-.469,0A23.593,23.593,0,0,1,306.138,410.774Zm.357-4.287a1.586,1.586,0,0,0-.491-.29.447.447,0,0,0-.514.156,1.384,1.384,0,0,0-.558,1.407,9.355,9.355,0,0,0,4.622,4.466,18.24,18.24,0,0,0-3.171-5.738Z" transform="translate(-283.007 -123.519)" fill="#263238"/>
          <path id="Path_5836" data-name="Path 5836" d="M307.008,413.687v-.179c-.759-1.92-.96-6.966.6-8.083a1.384,1.384,0,0,1,1.742.179,2.367,2.367,0,0,1,1.027,1.563c.491,2.546-2.5,6.319-2.7,6.5a.38.38,0,0,1-.4.112A.4.4,0,0,1,307.008,413.687Zm1.9-7.324-.156-.112c-.447-.313-.648-.179-.737-.112-.915.625-1.072,4.175-.581,6.319a8.751,8.751,0,0,0,1.987-5.18A1.629,1.629,0,0,0,308.906,406.364Z" transform="translate(-280.104 -123.708)" fill="#263238"/>
          <path id="Path_5837" data-name="Path 5837" d="M360.637,418.114a5.873,5.873,0,0,1,.357,3.55,2.233,2.233,0,0,1-1.7,1.451,1.406,1.406,0,0,1-1.317-.29c-1.563-1.63-.424-8.128-.268-8.931a.358.358,0,0,1,.29-.313.424.424,0,0,1,.424.223,24.567,24.567,0,0,1,2.21,4.31Zm-2.389,3.595a1.584,1.584,0,0,0,.29.491.491.491,0,0,0,.513.112,1.429,1.429,0,0,0,1.183-.982,9.245,9.245,0,0,0-1.9-6.118,18.151,18.151,0,0,0-.089,6.5Z" transform="translate(-217.559 -113.376)" fill="#263238"/>
          <path id="Path_5838" data-name="Path 5838" d="M342.327,399.04l26.66,9.489,12.794,4.555-3.282,14-12.392-2.635L335.83,418Z" transform="translate(-243.862 -131.3)" fill="#ebb376"/>
          <path id="Path_5839" data-name="Path 5839" d="M353.39,421.813l2.233-16.523a1.652,1.652,0,0,1,1.92-1.407l8.15,1.362s11.164,1.027,13.285,3.885c6.453,8.306,2.434,44.991-1.876,46.286-1.563.469-3.238-1.7-3.907-3.171-2.233-4.734-6.006-17.1-7.859-21.011-2.233-4.577-8.128-6.832-10.807-7.636A1.608,1.608,0,0,1,353.39,421.813Z" transform="translate(-222.236 -125.359)" fill="#7d25f5"/>
          <path id="Path_5840" data-name="Path 5840" d="M361.175,414.011v.179c-.268,2.054-2.546,6.564-4.466,6.7a1.384,1.384,0,0,1-1.429-.96,2.478,2.478,0,0,1-.156-1.875c.8-2.478,5.247-4.332,5.515-4.466a.335.335,0,0,1,.4,0A.4.4,0,0,1,361.175,414.011Zm-5.225,5.47v.179c.246.514.469.469.581.469,1.116-.112,2.97-3.126,3.595-5.247-1.273.6-3.773,2.009-4.265,3.55a1.675,1.675,0,0,0,0,1.049Z" transform="translate(-220.218 -113.449)" fill="#263238"/>
          <path id="Path_5841" data-name="Path 5841" d="M342.327,399.04l26.66,9.489-2.88,15.92L335.83,418Z" transform="translate(-243.862 -131.3)" opacity="0.2"/>
          <path id="Path_5842" data-name="Path 5842" d="M351.5,425.741l-7.659.558,5.135-26.37,8.686,4.8Z" transform="translate(-233.987 -130.203)" fill="#7d25f5"/>
          <path id="Path_5843" data-name="Path 5843" d="M351.5,425.741l-7.659.558,5.135-26.37,8.686,4.8Z" transform="translate(-233.987 -130.203)" fill="#fff" opacity="0.6"/>
          <path id="Path_5844" data-name="Path 5844" d="M507.878,365.6l-39.923,44.255s-44.143-.982-97.731,25.209c0,0-57.5-23.735-62.787-43.473-6.922-25.856,132.228-5.649,132.228-5.649Z" transform="translate(-279.172 -172.526)" opacity="0.2"/>
          <path id="Path_5845" data-name="Path 5845" d="M313.21,379.6v6.565c0,1.675,1.987,2.367,3.639,2.367H447.939c1.675,0,3.707-.692,3.707-2.367V379.6Z" transform="translate(-271.748 -155.266)" fill="#263238"/>
          <path id="Path_5846" data-name="Path 5846" d="M313.21,379.6v6.565c0,1.675,1.987,2.367,3.639,2.367H447.939c1.675,0,3.707-.692,3.707-2.367V379.6Z" transform="translate(-271.748 -155.266)" fill="#fff" opacity="0.4"/>
          <path id="Path_5847" data-name="Path 5847" d="M313.21,379.6v6.565c0,1.675,1.987,2.367,3.639,2.367H403.3c1.675,0,3.684-.692,3.684-2.367V379.6Z" transform="translate(-271.748 -155.266)" opacity="0.2"/>
          <path id="Path_5848" data-name="Path 5848" d="M303.448,350.961l15.63,70.78a5.336,5.336,0,0,0,5.068,4.019H409.4a3.416,3.416,0,0,0,3.193-4.466l-15.63-70.245a4.823,4.823,0,0,0-5.069-3.439H306.663C304.363,347.611,302.934,348.638,303.448,350.961Z" transform="translate(-283.912 -194.728)" fill="#263238"/>
          <path id="Path_5849" data-name="Path 5849" d="M303.448,350.972l15.63,70.78a5.336,5.336,0,0,0,5.068,4.019h82.346a3.461,3.461,0,0,0,3.238-4.466L394.1,351.061a4.845,4.845,0,0,0-5.069-3.461H306.663C304.363,347.623,302.934,348.65,303.448,350.972Z" transform="translate(-283.912 -194.739)" fill="#fff" opacity="0.4"/>
          <path id="Path_5850" data-name="Path 5850" d="M322.21,371.263h0c0,6.051,6.5,10.985,11.164,10.985s7.592-4.935,6.23-10.985-6.1-10.784-10.762-10.963c1.362,6.051-1.541,10.963-6.3,10.963A2.239,2.239,0,0,1,322.21,371.263Z" transform="translate(-260.653 -179.06)" opacity="0.2"/>
          <path id="Path_5851" data-name="Path 5851" d="M355.427,423.53l-27.91,4.577-13.4,2.21-3.93-13.843,12.147-3.684,29.607-9.021Z" transform="translate(-275.471 -125.469)" fill="#ebb376"/>
          <path id="Path_5852" data-name="Path 5852" d="M332.106,418.52l6.029,15.63a1.652,1.652,0,0,1-.982,2.233l-7.793,2.769s-10.2,4.466-13.509,3.037c-9.668-4.153-23.913-38.2-20.765-41.419,1.139-1.161,3.64,0,4.957.893,4.175,3.081,13.509,12.035,17.036,14.558,4.131,2.97,10.427,2.054,13.151,1.451a1.63,1.63,0,0,1,1.876.849Z" transform="translate(-294.641 -129.769)" fill="#7d25f5"/>
          <path id="Path_5853" data-name="Path 5853" d="M348.72,423.53l-27.91,4.577-5.18-15.317,29.607-9.021Z" transform="translate(-268.765 -125.469)" opacity="0.2"/>
          <path id="Path_5854" data-name="Path 5854" d="M317.78,440.853s113.874-63.97,153.082-62.162,44.947,36.462,28.736,58.053-46.13,26.95-46.13,26.95,20.386-28.781,17.438-36.886S456.438,430,456.438,430s-71.607,23.11-134.237,28.513Z" transform="translate(-266.114 -156.433)" fill="#263238"/>
          <path id="Path_5855" data-name="Path 5855" d="M316.96,408.122l6.431-4.332,8.284,25.409h-9.936Z" transform="translate(-267.125 -125.444)" fill="#7d25f5"/>
          <path id="Path_5856" data-name="Path 5856" d="M316.96,408.122l6.431-4.332,8.284,25.409h-9.936Z" transform="translate(-267.125 -125.444)" fill="#fff" opacity="0.6"/>
          <path id="Path_5857" data-name="Path 5857" d="M466.659,414.329l-72.5,6.7s-11.365-23.534-20.1-32.711S357.63,332.5,357.63,332.5a154.817,154.817,0,0,1,18.175-7.413,180.147,180.147,0,0,1,55.463-9.333h.4c5.4,0,8.529.268,8.529.268a15.407,15.407,0,0,1,5.158,5.872c7.77,13.4,13.955,44.656,17.617,67.1C465.364,403.5,466.659,414.329,466.659,414.329Z" transform="translate(-216.986 -233.982)" fill="#7d25f5"/>
          <path id="Path_5858" data-name="Path 5858" d="M425.087,385.606c-15.987-7.324-37.8-19.716-36.663-32.287,1.228-13.8,12.414-27.687,19.046-34.81C415.24,331.907,421.425,363.166,425.087,385.606Z" transform="translate(-179.076 -230.579)" opacity="0.2"/>
          <path id="Path_5859" data-name="Path 5859" d="M406.049,353.276c3.662,10.517-1.228,20.609-10.9,22.507s-20.475-5.068-24.114-15.63,1.206-20.609,10.9-22.529S402.409,342.76,406.049,353.276Z" transform="translate(-201.948 -207.404)" fill="#fff" opacity="0.4"/>
          <path id="Path_5860" data-name="Path 5860" d="M372.1,374.008l4.555-37.668,30.031,32.532Z" transform="translate(-199.147 -208.598)" fill="#7d25f5"/>
          <path id="Path_5861" data-name="Path 5861" d="M421.584,315.772a54.725,54.725,0,0,1-12.481,24.4,31.127,31.127,0,0,1-4.466,3.952,28.692,28.692,0,0,1-15.384,5.4c-9.981.6-15.317-3.751-18.443-9.2a39.008,39.008,0,0,1-3.64-9.78c-.513-2.032-.915-3.93-1.34-5.448l3.506-1.139c1.764-.558,3.483-1.072,5.2-1.563a184.46,184.46,0,0,1,33.939-6.1l4.689-.313c3.037-.156,5.716-.223,8.016-.246Z" transform="translate(-206.877 -233.982)" fill="#ebb376"/>
          <path id="Path_5862" data-name="Path 5862" d="M374.928,334.486c-.134,4.466-2.7,5.6-2.7,5.6a9.177,9.177,0,0,0,9.936,10.561c14.223-1.451,18.711-18.577,18.711-18.577-10.338-4.108-12.682-15.63-13.107-22.328a37.979,37.979,0,0,1,0-5.336L368.43,316.6a67.7,67.7,0,0,1,4.309,8.462A24.115,24.115,0,0,1,374.928,334.486Z" transform="translate(-203.672 -247.962)" fill="#ebb376"/>
          <path id="Path_5863" data-name="Path 5863" d="M369,314.76a70.046,70.046,0,0,1,3.439,8.931,24.118,24.118,0,0,1,1.206,9.6c10.874.848,15.183-23.177,15.183-23.177l.112-.134a36.307,36.307,0,0,1,.536-5.292Z" transform="translate(-202.969 -247.617)" opacity="0.2"/>
          <path id="Path_5864" data-name="Path 5864" d="M372.405,288.134c-18.711,5.694-21.681,17.55-17.17,37.243,5.627,24.561,16.188,40.191,37.958,27.821C422.867,336.519,403.464,278.667,372.405,288.134Z" transform="translate(-222.227 -269.309)" fill="#ebb376"/>
          <path id="Path_5865" data-name="Path 5865" d="M361.169,302.12a41.6,41.6,0,0,1-3.059,9.422,5.336,5.336,0,0,0,5.56.6Z" transform="translate(-216.394 -250.785)" fill="#d58745"/>
          <path id="Path_5866" data-name="Path 5866" d="M364.484,301.742c.447,1.541,1.63,2.568,2.657,2.233s1.518-1.764,1.072-3.327-1.608-2.568-2.635-2.233S364.06,300.2,364.484,301.742Z" transform="translate(-208.724 -255.431)" fill="#263238"/>
          <path id="Path_5867" data-name="Path 5867" d="M367.149,298.57l-3.729-.38S365.876,300.557,367.149,298.57Z" transform="translate(-209.848 -255.63)" fill="#263238"/>
          <path id="Path_5868" data-name="Path 5868" d="M355.841,304.012c.424,1.541,1.608,2.568,2.635,2.233s1.518-1.786,1.094-3.327-1.63-2.568-2.657-2.233S355.395,302.449,355.841,304.012Z" transform="translate(-219.395 -252.632)" fill="#263238"/>
          <path id="Path_5869" data-name="Path 5869" d="M358.489,300.84l-3.729-.38S357.238,302.8,358.489,300.84Z" transform="translate(-220.524 -252.832)" fill="#263238"/>
          <path id="Path_5870" data-name="Path 5870" d="M372.143,296.151a.8.8,0,0,1-.447-.134,9.467,9.467,0,0,0-8.195-.29.809.809,0,1,1-.67-1.474,10.941,10.941,0,0,1,9.757.424.8.8,0,0,1,.223,1.117A.759.759,0,0,1,372.143,296.151Z" transform="translate(-211.158 -261.652)" fill="#263238"/>
          <path id="Path_5871" data-name="Path 5871" d="M353.853,300.626a.714.714,0,0,1-.513-.179.782.782,0,0,1-.112-1.139,9.891,9.891,0,0,1,7.659-4.108.8.8,0,0,1,.759.848.849.849,0,0,1-.849.782h0a8.15,8.15,0,0,0-6.319,3.506A.826.826,0,0,1,353.853,300.626Z" transform="translate(-222.654 -259.316)" fill="#263238"/>
          <path id="Path_5872" data-name="Path 5872" d="M403.324,318.2s-13.4-12.682-15.63-24.963c0,0-41.687-3.841-32.041,34.341,0,0-13.821-32.287,18.108-42.848s46.13,36.529,33.8,55.62C407.477,340.351,411.652,326.173,403.324,318.2Z" transform="translate(-223.092 -274.101)" fill="#263238"/>
          <path id="Path_5873" data-name="Path 5873" d="M374.639,306.737a8.552,8.552,0,0,1,6.542-10.182c5.984-1.139,12.392,9.914-1.161,17.17C378.077,314.775,376.291,313.1,374.639,306.737Z" transform="translate(-196.26 -257.746)" fill="#ebb376"/>
          <path id="Path_5874" data-name="Path 5874" d="M362.911,315.744a.826.826,0,0,1,0-1.63,8.6,8.6,0,0,0,8.775-7.368.8.8,0,0,1,.893-.692.826.826,0,0,1,.715.893,10.383,10.383,0,0,1-10.338,8.8Z" transform="translate(-211.327 -245.943)" fill="#263238"/>
          <path id="Path_5875" data-name="Path 5875" d="M411.948,334.252a.536.536,0,0,1-.536-.447c0-.112-2.077-10.338-21.77-16.076-20.475-5.962-21.882-30.523-21.882-30.768a.559.559,0,1,1,1.116-.045c0,.246,1.384,24.025,21.078,29.741,20.43,5.962,22.485,16.5,22.552,16.947a.581.581,0,0,1-.447.647Z" transform="translate(-204.498 -270.19)" fill="#263238"/>
          <path id="Path_5876" data-name="Path 5876" d="M434.676,326.82s-2.367,47.715-6.386,58.411-46.2,50.216-46.2,50.216-11.767-2.635-13.71-1.853-13.174,11.164-13.174,11.164h32.443l2.836-5.024s43.629-32.309,48.43-40.035c3.55-5.694,14.96-63.658,14.96-63.658Z" transform="translate(-219.969 -220.335)" fill="#ebb376"/>
          <path id="Path_5877" data-name="Path 5877" d="M402.855,315.991c29.362,7.212,15.63,51.355,15.63,51.355l-30.545-7.48S387.94,312.329,402.855,315.991Z" transform="translate(-179.619 -233.933)" fill="#7d25f5"/>
          <path id="Path_5878" data-name="Path 5878" d="M388,340.042a31.123,31.123,0,0,1-4.466,3.952,48.631,48.631,0,0,1,3.841-27.821l4.689-.313A56.333,56.333,0,0,0,388,340.042Z" transform="translate(-185.775 -233.846)" fill="#263238"/>
          <path id="Path_5879" data-name="Path 5879" d="M373.748,318.73a53.142,53.142,0,0,0-3.729,17.863,39.008,39.008,0,0,1-3.64-9.78,48.5,48.5,0,0,1,2.233-6.587C370.31,319.735,372.029,319.333,373.748,318.73Z" transform="translate(-206.199 -230.308)" fill="#263238"/>
          <path id="Path_5880" data-name="Path 5880" d="M388,340.042a31.123,31.123,0,0,1-4.466,3.952,48.631,48.631,0,0,1,3.841-27.821l4.689-.313A56.333,56.333,0,0,0,388,340.042Z" transform="translate(-185.775 -233.846)" fill="#fff" opacity="0.4"/>
          <path id="Path_5881" data-name="Path 5881" d="M373.748,318.73a53.142,53.142,0,0,0-3.729,17.863,39.008,39.008,0,0,1-3.64-9.78,48.5,48.5,0,0,1,2.233-6.587C370.31,319.735,372.029,319.333,373.748,318.73Z" transform="translate(-206.199 -230.308)" fill="#fff" opacity="0.4"/>
        </g>
      </g>
    </g>
    <g id="Group_2329" data-name="Group 2329" transform="translate(1255.746 501.229)">
      <g id="freepik--Screen--inject-49" transform="translate(0)">
        <path id="Path_5763" data-name="Path 5763" d="M431.315,182.923V435.886c0,2.564-1.742,4.643-3.891,4.643H120.231c-2.149,0-3.891-2.079-3.891-4.643V182.923c0-2.564,1.742-4.643,3.891-4.643H427.425c2.149,0,3.891,2.079,3.891,4.643Z" transform="translate(-116.34 -178.28)" fill="#7d25f5"/>
        <path id="Path_5764" data-name="Path 5764" d="M431.315,187.47V429.388c0,2.564-1.742,4.643-3.891,4.643H120.231c-2.149,0-3.891-2.079-3.891-4.643V187.47Z" transform="translate(-116.34 -171.783)" fill="#fff" opacity="0.4"/>
        <path id="Path_5765" data-name="Path 5765" d="M431.315,323.16V333.4c0,2.564-1.742,4.643-3.891,4.643H120.231c-2.149,0-3.891-2.079-3.891-4.643V323.16Z" transform="translate(-116.34 -75.848)" opacity="0.2"/>
        <circle id="Ellipse_307" data-name="Ellipse 307" cx="3.209" cy="3.209" r="3.209" transform="translate(302.463 5.036)" fill="#fff" opacity="0.4"/>
        <circle id="Ellipse_308" data-name="Ellipse 308" cx="3.209" cy="3.209" r="3.209" transform="translate(290.309 5.036)" fill="#fff" opacity="0.4"/>
        <path id="Path_5766" data-name="Path 5766" d="M321.4,184.439a3.209,3.209,0,1,1-3.209-3.209A3.209,3.209,0,0,1,321.4,184.439Z" transform="translate(-36.825 -176.194)" fill="#fff" opacity="0.4"/>
        <path id="Path_5777" data-name="Path 5777" d="M140.515,208.64a6.657,6.657,0,1,1-6.64-6.64A6.657,6.657,0,0,1,140.515,208.64Z" transform="translate(-108.662 -161.51)" opacity="0.2"/>
        <path id="Path_5778" data-name="Path 5778" d="M131.413,211.37a.854.854,0,0,1-.854-.854v-6.043a.854.854,0,1,1,1.707,0v6.043A.854.854,0,0,1,131.413,211.37Z" transform="translate(-106.286 -160.364)" fill="#fff"/>
        <path id="Path_5779" data-name="Path 5779" d="M135.686,207.1h-6.043a.854.854,0,1,1,0-1.707h6.043a.854.854,0,1,1,0,1.707Z" transform="translate(-107.538 -159.113)" fill="#fff"/>
        <rect id="Rectangle_17391" data-name="Rectangle 17391" width="238.248" height="25.405" rx="2.77" transform="translate(31.853 92.497)" fill="#fff"/>
        <rect id="Rectangle_17394" data-name="Rectangle 17394" width="314.975" height="15.21" transform="translate(0 15.688)" opacity="0.2"/>
        <g id="Group_2330" data-name="Group 2330" transform="translate(128.152 154.91)">
          <rect id="Rectangle_17395" data-name="Rectangle 17395" width="58.67" height="17.565" rx="2.45" fill="#7d25f5"/>
          <g id="Group_2329-2" data-name="Group 2329" transform="translate(17.588 5.112)">
            <path id="Path_5809" data-name="Path 5809" d="M299.21,314.556l.376-.8a3.755,3.755,0,0,0,2.373.836c1.246,0,1.707-.478,1.707-1.109,0-1.707-4.353-.649-4.353-3.312,0-1.11.871-2.048,2.748-2.048a4.387,4.387,0,0,1,2.3.632l-.341.819a3.738,3.738,0,0,0-1.963-.58c-1.212,0-1.707.512-1.707,1.144,0,1.707,4.353.649,4.353,3.277,0,1.092-.888,2.048-2.782,2.048A4.3,4.3,0,0,1,299.21,314.556Z" transform="translate(-299.21 -308.12)" fill="#fff"/>
            <path id="Path_5810" data-name="Path 5810" d="M308.34,313.547h-3.807l-.785,1.792H302.69l3.243-7.169h1.007l3.26,7.169h-1.075Zm-.358-.819-1.553-3.516-1.536,3.516Z" transform="translate(-297.839 -308.084)" fill="#fff"/>
            <path id="Path_5811" data-name="Path 5811" d="M314.166,308.17l-3.141,7.169H310l-3.141-7.169h1.092l2.595,5.889,2.595-5.889Z" transform="translate(-296.055 -308.084)" fill="#fff"/>
            <path id="Path_5812" data-name="Path 5812" d="M316.841,314.452v.888H311.72V308.17h5.121v.888H312.8v2.236h3.6v.871h-3.6v2.322Z" transform="translate(-293.855 -308.084)" fill="#fff"/>
          </g>
        </g>
        <path id="Path_5820" data-name="Path 5820" d="M127.482,193.037h-6.828a.854.854,0,0,1,0-1.707h6.828a.854.854,0,1,1,0,1.707Z" transform="translate(-113.894 -169.053)" fill="#fff"/>
        <path id="Path_5821" data-name="Path 5821" d="M122.981,197a.87.87,0,0,1-.615-.256l-2.765-2.765a.854.854,0,0,1,0-1.195L122.366,190a.871.871,0,0,1,1.212,0,.854.854,0,0,1,0,1.212l-2.168,2.168,2.168,2.168a.819.819,0,0,1,0,1.195A.854.854,0,0,1,122.981,197Z" transform="translate(-114.207 -170.166)" fill="#fff"/>
        <path id="Path_5822" data-name="Path 5822" d="M335.838,191.037h-7.255a.854.854,0,1,1,0-1.707h7.255a.854.854,0,0,1,0,1.707Z" transform="translate(-27.81 -170.467)" fill="#fff"/>
        <path id="Path_5823" data-name="Path 5823" d="M335.838,193.037h-7.255a.854.854,0,0,1,0-1.707h7.255a.854.854,0,0,1,0,1.707Z" transform="translate(-27.81 -169.053)" fill="#fff"/>
        <path id="Path_5824" data-name="Path 5824" d="M335.838,195.037h-7.255a.854.854,0,1,1,0-1.707h7.255a.854.854,0,0,1,0,1.707Z" transform="translate(-27.81 -167.639)" fill="#fff"/>
      </g>
      <text id="Enter_Your_Gmail" data-name="Enter Your Gmail" transform="translate(103.846 70.467)" fill="#fff" font-size="9" font-family="Montserrat" letter-spacing="0.03em"><tspan x="0" y="0">Enter Your Gmail</tspan></text>
    </g>
  </g>
</svg>
