<svg xmlns="http://www.w3.org/2000/svg" xmlns:xlink="http://www.w3.org/1999/xlink" width="998.424" height="720.186" viewBox="0 0 998.424 720.186">
  <defs>
    <filter id="Rectangle_17436" x="583.981" y="63.441" width="407.892" height="124.637" filterUnits="userSpaceOnUse">
      <feOffset dy="3" input="SourceAlpha"/>
      <feGaussianBlur stdDeviation="3" result="blur"/>
      <feFlood flood-opacity="0.161"/>
      <feComposite operator="in" in2="blur"/>
      <feComposite in="SourceGraphic"/>
    </filter>
  </defs>
  <g id="Group_2375" data-name="Group 2375" transform="translate(1766.013 20181.697)">
    <g id="Questions-rafiki" transform="translate(-1766.013 -20181.697)">
      <g id="freepik--background-complete--inject-1">
        <rect id="Rectangle_17111" data-name="Rectangle 17111" width="913.131" height="0.544" transform="translate(0 621.943)" fill="#ebebeb"/>
        <rect id="Rectangle_17112" data-name="Rectangle 17112" width="188.474" height="0.544" transform="translate(103.879 642.654)" fill="#ebebeb"/>
        <rect id="Rectangle_17113" data-name="Rectangle 17113" width="51.607" height="0.544" transform="translate(306.051 636.758)" fill="#ebebeb"/>
        <rect id="Rectangle_17114" data-name="Rectangle 17114" width="80.013" height="0.544" transform="translate(202.028 662.863)" fill="#ebebeb"/>
        <rect id="Rectangle_17115" data-name="Rectangle 17115" width="46.942" height="0.544" transform="translate(757.417 659.208)" fill="#ebebeb"/>
        <rect id="Rectangle_17116" data-name="Rectangle 17116" width="55.754" height="0.544" transform="translate(705.151 659.208)" fill="#ebebeb"/>
        <rect id="Rectangle_17117" data-name="Rectangle 17117" width="97.119" height="0.544" transform="translate(494.926 650.028)" fill="#ebebeb"/>
        <path id="Path_3817" data-name="Path 3817" d="M50.049,670.21H450.406c6.531-.012,11.819-5.57,11.819-12.422V67.313C462.168,60.5,456.9,55.012,450.406,55H50.049C43.511,55,38.21,60.561,38.21,67.422V657.788C38.21,664.648,43.511,670.21,50.049,670.21ZM450.406,55.435a11.611,11.611,0,0,1,11.3,11.878V657.788a11.611,11.611,0,0,1-11.3,11.878H50.049a11.631,11.631,0,0,1-11.321-11.878V67.313A11.631,11.631,0,0,1,50.049,55.435Z" transform="translate(371.681 -55)" fill="#ebebeb"/>
        <path id="Path_3818" data-name="Path 3818" d="M266.3,670.21H666.676c6.534-.012,11.828-5.566,11.839-12.422V67.313c-.068-6.813-5.345-12.3-11.839-12.313H266.3c-6.482.024-11.741,5.512-11.8,12.313V657.788C254.5,664.632,259.775,670.186,266.3,670.21ZM666.676,55.435A11.631,11.631,0,0,1,678,67.313V657.788a11.631,11.631,0,0,1-11.321,11.878H266.3a11.631,11.631,0,0,1-11.321-11.878V67.313A11.631,11.631,0,0,1,266.3,55.435Z" transform="translate(-169.49 -55)" fill="#ebebeb"/>
        <rect id="Rectangle_17118" data-name="Rectangle 17118" width="38.877" height="226.288" transform="translate(114.142 383.299)" fill="#f0f0f0"/>
        <rect id="Rectangle_17119" data-name="Rectangle 17119" width="428.224" height="12.378" transform="translate(121.606 609.565)" fill="#f0f0f0"/>
        <rect id="Rectangle_17120" data-name="Rectangle 17120" width="404.276" height="226.288" transform="translate(153.019 383.278)" fill="#f5f5f5"/>
        <rect id="Rectangle_17121" data-name="Rectangle 17121" width="39.727" height="10.79" transform="translate(109.249 406.533)" fill="#f0f0f0"/>
        <rect id="Rectangle_17122" data-name="Rectangle 17122" width="413.212" height="10.79" transform="translate(148.976 406.534)" fill="#fafafa"/>
        <path id="Path_3819" data-name="Path 3819" d="M238,342.108H614.264v-59H238Zm373.734-2.676H240.592V285.916H611.734Z" transform="translate(-102.27 148.63)" fill="#e0e0e0"/>
        <path id="Path_3820" data-name="Path 3820" d="M238,423.367H614.264V317.75H238Zm373.734-2.828H240.592V320.469H611.734Z" transform="translate(-102.27 163.552)" fill="#e0e0e0"/>
        <rect id="Rectangle_17123" data-name="Rectangle 17123" width="274.936" height="8.789" rx="1.66" transform="translate(182.374 437.272)" fill="#e0e0e0"/>
        <rect id="Rectangle_17124" data-name="Rectangle 17124" width="274.936" height="8.789" rx="1.66" transform="translate(182.374 503.514)" fill="#e0e0e0"/>
        <rect id="Rectangle_17125" data-name="Rectangle 17125" width="16.152" height="288.026" transform="translate(778.587 333.917)" fill="#e6e6e6"/>
        <rect id="Rectangle_17126" data-name="Rectangle 17126" width="11.217" height="288.026" transform="translate(788.601 333.917)" fill="#f0f0f0"/>
        <rect id="Rectangle_17127" data-name="Rectangle 17127" width="192.165" height="20.819" transform="translate(611.137 371.945)" fill="#f0f0f0"/>
        <rect id="Rectangle_17128" data-name="Rectangle 17128" width="16.152" height="267.186" transform="translate(625.194 354.758)" fill="#e6e6e6"/>
        <rect id="Rectangle_17129" data-name="Rectangle 17129" width="11.217" height="267.186" transform="translate(634.416 354.758)" fill="#f0f0f0"/>
        <rect id="Rectangle_17130" data-name="Rectangle 17130" width="16.152" height="267.186" transform="translate(535.334 354.758)" fill="#e6e6e6"/>
        <rect id="Rectangle_17131" data-name="Rectangle 17131" width="11.217" height="267.186" transform="translate(544.533 354.758)" fill="#f0f0f0"/>
        <rect id="Rectangle_17132" data-name="Rectangle 17132" width="16.152" height="267.186" transform="translate(703.063 354.758)" fill="#e6e6e6"/>
        <rect id="Rectangle_17133" data-name="Rectangle 17133" width="11.217" height="267.186" transform="translate(712.355 354.758)" fill="#f0f0f0"/>
        <rect id="Rectangle_17134" data-name="Rectangle 17134" width="125.608" height="20.819" transform="translate(526.473 371.945)" fill="#e6e6e6"/>
        <path id="Path_3821" data-name="Path 3821" d="M62.91,244.109H218.189L204.442,118H76.657Z" transform="translate(564.503 -0.666)" fill="#ebebeb"/>
        <rect id="Rectangle_17135" data-name="Rectangle 17135" width="16.898" height="161.047" transform="translate(720.794 223.068)" fill="#f5f5f5"/>
        <path id="Path_3822" data-name="Path 3822" d="M83.74,254.161H152.7a7.527,7.527,0,0,0-7.34-7.7H91.142a7.166,7.166,0,0,0-5.23,2.232,7.9,7.9,0,0,0-2.172,5.469Z" transform="translate(608.973 119.635)" fill="#f0f0f0"/>
        <path id="Path_3823" data-name="Path 3823" d="M96.28,189.915l16.9-8.462V175.97H96.28Z" transform="translate(624.514 55.071)" fill="#e0e0e0"/>
        <path id="Path_3824" data-name="Path 3824" d="M217.332,305.94H144.409L135.39,202.02h72.922Z" transform="translate(451.414 73.368)" fill="#e6e6e6"/>
        <path id="Path_3825" data-name="Path 3825" d="M215.512,305.94H142.589L133.57,202.02h72.922Z" transform="translate(456.519 73.368)" fill="#f0f0f0"/>
        <path id="Path_3826" data-name="Path 3826" d="M146.369,288.214l-7.029-80.9h50.985l7.029,80.9Z" transform="translate(463.347 79.562)" fill="#fff"/>
        <path id="Path_3827" data-name="Path 3827" d="M339.51,215.53H487.531l28.8,107.618H368.31Z" transform="translate(-205.979 84.887)" fill="#e6e6e6"/>
        <path id="Path_3828" data-name="Path 3828" d="M339.21,265l.581,5.939H487.854l-.6-5.939Z" transform="translate(-180.176 136.677)" fill="#e6e6e6"/>
        <path id="Path_3829" data-name="Path 3829" d="M337.31,215.53H485.352l28.8,107.618H366.11Z" transform="translate(-199.892 84.887)" fill="#f0f0f0"/>
        <path id="Path_3830" data-name="Path 3830" d="M364.384,313.465l-23.824-93.2c-.332-1.327.311-2.48,1.389-2.48h136.1a2.645,2.645,0,0,1,2.239,2.175l23.8,93.13c.353,1.327-.29,2.48-1.368,2.48h-136.1a2.6,2.6,0,0,1-2.239-2.11Z" transform="translate(-197.07 87.598)" fill="#fff"/>
        <path id="Path_3831" data-name="Path 3831" d="M311.19,265l.6,5.939H474.8L474.2,265Z" transform="translate(-115.574 136.677)" fill="#f0f0f0"/>
        <rect id="Rectangle_17136" data-name="Rectangle 17136" width="359.158" height="232.575" transform="translate(125.276 68.395)" fill="#f0f0f0"/>
        <rect id="Rectangle_17137" data-name="Rectangle 17137" width="338.756" height="211.19" transform="translate(135.477 79.098)" fill="#fff"/>
        <rect id="Rectangle_17138" data-name="Rectangle 17138" width="3.67" height="232.575" transform="translate(121.606 68.417)" fill="#e6e6e6"/>
      </g>
      <g id="freepik--Shadow--inject-1" transform="translate(116.34 670.934)">
        <ellipse id="freepik--path--inject-1" cx="340.226" cy="24.626" rx="340.226" ry="24.626" fill="#f5f5f5"/>
      </g>
      <g id="freepik--question-marks--inject-1" transform="translate(170.659 13.596)">
        <path id="Path_3832" data-name="Path 3832" d="M321.769,80.285q-14.514-13.553-37.591-17.751t-48.788,5.33q-25.627,9.528-46.88,34.415-19.76,23.146-26.706,48.49a93.16,93.16,0,0,0-1.223,48.142,77.054,77.054,0,0,0,22.186,38,62.143,62.143,0,0,0,27.348,15.772,88.318,88.318,0,0,0,27.97,2.7q13.54-.914,46.984-4.851a141.643,141.643,0,0,1,15.716-.914,42.644,42.644,0,0,1,10.678,1.284,41.144,41.144,0,0,1,8.045,3.089c2.488,1.283,6.7,3.655,12.669,7.157q18.412,11.813,32.014-4.133A26.85,26.85,0,0,0,370.93,238.2q-.352-10.507-10.533-20.079a70.439,70.439,0,0,0-51.483-21.058,309.177,309.177,0,0,0-32.573,2.872c-11.487,1.458-19.967,2.371-25.441,2.676a55.536,55.536,0,0,1-16.193-1.414,30.625,30.625,0,0,1-14.2-7.723,38.72,38.72,0,0,1-12.44-28.781q-.249-17.4,12.44-32.349,14.991-17.556,30.5-17.9t36.928,9.354q21.792,10.725,34.73-4.351a27.953,27.953,0,0,0,6.863-20.71,26.712,26.712,0,0,0-7.755-18.448ZM422,314.557a34.6,34.6,0,0,0,8.48-22.646q.187-12.879-10.6-23.038a28.307,28.307,0,0,0-22.123-8.027,29.852,29.852,0,0,0-21.232,11.095,32.348,32.348,0,0,0-7.9,23.056,32.009,32.009,0,0,0,10.285,22q10.637,9.985,22.808,8.528A30.646,30.646,0,0,0,422,314.557Z" transform="translate(58.276 -61.25)" fill="#7d25f5"/>
        <g id="Group_1054" data-name="Group 1054" transform="translate(89.401 136.813)" opacity="0.5">
          <path id="Path_3833" data-name="Path 3833" d="M402.6,152.225a41,41,0,0,0-13.913-17.969,50.119,50.119,0,0,0-24.591-9.746,58.771,58.771,0,0,0-30.334,4.655,63.6,63.6,0,0,0-23.886,16.424,48.5,48.5,0,0,0-11.611,22.733,42.9,42.9,0,0,0,1.866,23.93,35.4,35.4,0,0,0,9.5,14.445,49.233,49.233,0,0,0,12.772,8.354q6.676,2.98,23.616,9.528a70.848,70.848,0,0,1,7.734,3.524,23.191,23.191,0,0,1,4.81,3.307,22.277,22.277,0,0,1,3.152,3.5c.892,1.24,2.364,3.437,4.416,6.526q6.22,10.312,16.276,6.091a13.645,13.645,0,0,0,7.547-7.309,15.911,15.911,0,0,0-.456-12.269,40.014,40.014,0,0,0-19.822-23.06,170.3,170.3,0,0,0-16.235-6.918c-5.826-2.175-10.1-3.894-12.793-5.112a31.044,31.044,0,0,1-7.423-4.764,17.589,17.589,0,0,1-5.038-7.288,21.133,21.133,0,0,1,.643-16.9,24.133,24.133,0,0,1,13.332-12.226q11.2-4.634,18.661-.892a48.814,48.814,0,0,1,15.509,13.749q8,10.638,17.666,6.526a14.247,14.247,0,0,0,8.024-8.2,14.413,14.413,0,0,0,.581-10.638Zm-5.66,137.487a17.546,17.546,0,0,0,9.247-8.7,16.633,16.633,0,0,0,.249-13.6,15.967,15.967,0,0,0-8.729-9.463,15.5,15.5,0,0,0-12.71,0,16.408,16.408,0,0,0-9.063,9.045,17.6,17.6,0,0,0-.122,13.123,15.676,15.676,0,0,0,9,9.833,15.866,15.866,0,0,0,12.13-.239Z" transform="translate(-297.358 -124.14)" fill="#7d25f5"/>
        </g>
        <g id="Group_1055" data-name="Group 1055" transform="translate(0 112.857)" opacity="0.1">
          <path id="Path_3834" data-name="Path 3834" d="M420.9,152.355A20.086,20.086,0,0,0,423.782,142a25.913,25.913,0,0,0-2.944-12.443,29.169,29.169,0,0,0-9.724-10.877,28.854,28.854,0,0,0-12.316-5.265,20.312,20.312,0,0,0-11.383,1.349,18.432,18.432,0,0,0-8.294,7.07,16.957,16.957,0,0,0-2.778,7.636,25.928,25.928,0,0,0,.332,7.331q.684,3.5,2.778,12.008.472,2,.746,4.046a11.617,11.617,0,0,1-.373,5c-.228.7-.643,1.871-1.265,3.524a6.194,6.194,0,0,0-.586,4.533,5.909,5.909,0,0,0,2.659,3.625,5.991,5.991,0,0,0,4.644,1.088,6.758,6.758,0,0,0,4.375-3.415,20.316,20.316,0,0,0,3.027-7.222,20.526,20.526,0,0,0,.145-6.831,85.078,85.078,0,0,0-1.762-8.354c-.746-2.937-1.244-5.09-1.514-6.526a17.154,17.154,0,0,1-.228-4.351,8.572,8.572,0,0,1,1.348-3.959,8.964,8.964,0,0,1,6.345-4.2,10.607,10.607,0,0,1,8.045,2.175,11.305,11.305,0,0,1,5.267,7.266,24.682,24.682,0,0,1-.933,9.876c-1.182,4.025-.415,6.961,2.26,8.854a6.7,6.7,0,0,0,9.248-1.588Zm-51.732,34.067a7.813,7.813,0,0,0,5.619,1.414,7.026,7.026,0,0,0,5.059-3.546,7.917,7.917,0,0,0,1.161-6,8,8,0,0,0-3.338-5.134,7.125,7.125,0,0,0-5.7-1.24,7.3,7.3,0,0,0-4.831,3.415,7.8,7.8,0,0,0-1.223,6.222A8.209,8.209,0,0,0,369.168,186.422Z" transform="translate(-365.718 -113.128)" fill="#7d25f5"/>
        </g>
      </g>
      <g id="freepik--Character--inject-1" transform="translate(398.724 99.119)">
        <path id="Path_3835" data-name="Path 3835" d="M187.581,432.247l15.675-4.264-9.351-37.613-15.675,4.264Z" transform="translate(-7.678 149.792)" fill="#ffc3bd"/>
        <path id="Path_3836" data-name="Path 3836" d="M180.761,405.783l-17.5,5.809a1.127,1.127,0,0,0-.7.549,1.226,1.226,0,0,0-.11.908l3.691,14.249a2.913,2.913,0,0,0,3.649,1.893c6.054-2.175,8.854-3.437,16.587-6,4.748-1.566,16.193-5.112,22.808-7.288s4.147-8.7,1.265-8.288c-13.311,1.458-21.045.283-26.581-1.74a4.619,4.619,0,0,0-3.11-.087Z" transform="translate(14.983 167.641)" fill="#263238"/>
        <path id="Path_3837" data-name="Path 3837" d="M180.42,394.644,196.1,390.38l4.81,19.383-15.675,4.264Z" transform="translate(-9.868 149.804)" opacity="0.2"/>
        <path id="Path_3838" data-name="Path 3838" d="M237.676,215.53S266.373,358.608,274,405.444c8.294,51.3,26.519,198.159,26.519,198.159l-26.643,10.159s-41.7-155.739-48.02-205.056C212.609,360.5,179.04,215.53,179.04,215.53Z" transform="translate(-106.623 -55.719)" fill="#7d25f5"/>
        <path id="Path_3839" data-name="Path 3839" d="M232.436,241.656c9.31,23.451,12.689,66.155,11.072,91.694-7.381-30.151-15.571-64.588-21.916-91.564C223.645,234.368,226.465,226.58,232.436,241.656Z" transform="translate(-138.228 10.821)" opacity="0.3"/>
        <path id="Path_3840" data-name="Path 3840" d="M184.361,411.641l28.572-8.658L211.854,390.3l-34,10.029Z" transform="translate(-16.567 149.71)" fill="#263238"/>
        <path id="Path_3841" data-name="Path 3841" d="M178.453,408.62a20.356,20.356,0,0,1-4.333.8.348.348,0,0,1-.373-.2.385.385,0,0,1,0-.413c.394-.522,3.815-5.025,5.951-4.895a1.443,1.443,0,0,1,1.2.761,2.266,2.266,0,0,1,.187,2.175A4.379,4.379,0,0,1,178.453,408.62Zm-3.525,0c2.986-.37,5-1.131,5.495-2.175a1.4,1.4,0,0,0-.166-1.392.724.724,0,0,0-.581-.392c-1.12-.043-3.317,2.154-4.748,3.916Z" transform="translate(23.718 165.718)" fill="#7d25f5"/>
        <path id="Path_3842" data-name="Path 3842" d="M177.741,410.75h-.187a.4.4,0,0,1-.29-.218c0-.2-1.908-4.612-.829-6.657a2.08,2.08,0,0,1,1.368-1.022,1.461,1.461,0,0,1,1.679.674c.933,1.61-.332,5.656-1.576,7.092A.335.335,0,0,1,177.741,410.75Zm0-7.092a1.114,1.114,0,0,0-.664.587,8.568,8.568,0,0,0,.6,5.33c.975-1.61,1.721-4.612,1.1-5.656,0-.2-.311-.413-.85-.3Z" transform="translate(20.18 164.393)" fill="#7d25f5"/>
        <path id="Path_3843" data-name="Path 3843" d="M166.587,168.285c1.389,3.524,2.716,6.657,4.147,9.876s2.965,6.374,4.52,9.528c3.152,6.287,6.469,12.487,10.118,18.535A169.2,169.2,0,0,0,211.5,240.531l.373.392a8.839,8.839,0,0,0,1.742,1.283,14.019,14.019,0,0,0,5.578,1.762,22.427,22.427,0,0,0,3.359,0,33.237,33.237,0,0,0,4.976-.718,81.975,81.975,0,0,0,8.128-2.306,155.269,155.269,0,0,0,14.514-5.852q7-3.133,13.788-6.809c4.52-2.458,8.957-4.916,13.353-7.7a5.4,5.4,0,0,0,2.025-6.5,4.966,4.966,0,0,0-5.8-3.118h0c-9.621,2.436-19.221,5.156-28.675,7.57-4.707,1.24-9.413,2.328-13.933,3.241a55.678,55.678,0,0,1-6.448.979,20.1,20.1,0,0,1-2.447,0h-.353a3.891,3.891,0,0,1,2.073.674l2.073,1.675a144.27,144.27,0,0,1-11.134-14.749c-3.483-5.286-6.78-10.877-9.952-16.49s-6.22-11.508-9.1-17.4-5.743-11.965-8.294-17.643l-.124-.283a11.143,11.143,0,0,0-14.98-6.037,12.145,12.145,0,0,0-5.754,15.717Z" transform="translate(-57.741 -57.538)" fill="#ffc3bd"/>
        <path id="Path_3844" data-name="Path 3844" d="M216.7,148.625c13.353.392,22.517,15.6,31.267,34.546a79.135,79.135,0,0,1-27.888,29.368S185,147.69,216.7,148.625Z" transform="translate(-104.665 -59.223)" fill="#e0e0e0"/>
        <path id="Path_3845" data-name="Path 3845" d="M172.193,191.849l12.026-3.22-9.372-12.639s-10.367,1.719-14.307,10.877l4.271,3.2a8.777,8.777,0,0,0,7.381,1.784Z" transform="translate(48.038 -33.977)" fill="#ffc3bd"/>
        <path id="Path_3846" data-name="Path 3846" d="M170.612,177.79l-2.322-2.175a5.179,5.179,0,0,0-6.9-.152l-3.069,2.589,9.372,12.639,3.836-6.265a5.291,5.291,0,0,0-.912-6.635Z" transform="translate(64.569 -35.554)" fill="#ffc3bd"/>
        <path id="Path_3847" data-name="Path 3847" d="M243.66,429.431h16.4l3.919-38.331h-16.4Z" transform="translate(-204.066 150.651)" fill="#ffc3bd"/>
        <path id="Path_3848" data-name="Path 3848" d="M250.344,407.841H231.911a1.182,1.182,0,0,0-1.223,1.131l-.892,14.706a2.952,2.952,0,0,0,2.882,2.959c6.407-.131,9.476-.5,17.583-.5,4.976,0,18.661.522,25.607.522s6.7-6.874,3.774-7.483c-13.083-2.806-21.833-6.657-26.478-10.311A4.508,4.508,0,0,0,250.344,407.841Z" transform="translate(-192.918 170.326)" fill="#263238"/>
        <path id="Path_3849" data-name="Path 3849" d="M245.692,391.1h16.4l-2.032,19.775h-16.4Z" transform="translate(-202.179 150.651)" opacity="0.2"/>
        <path id="Path_3850" data-name="Path 3850" d="M288.568,215.554s-3.629,143.839-6.22,191.241c-2.9,51.906-27.473,205.686-27.473,205.686H224.81s6.593-155.739,11.57-206.665c-2.073-55.778-3.442-190.306-3.442-190.306Z" transform="translate(-189.57 -55.742)" fill="#7d25f5"/>
        <path id="Path_3851" data-name="Path 3851" d="M239.832,404.208h34.087l1.617-11.508-36.617.653Z" transform="translate(-205.795 152.531)" fill="#263238"/>
        <path id="Path_3852" data-name="Path 3852" d="M244.94,411.416a20.038,20.038,0,0,1-4.375-.587.342.342,0,0,1-.269-.3.356.356,0,0,1,.145-.392c.518-.348,5.163-3.568,7.174-2.763a1.46,1.46,0,0,1,.892,1.088,2.116,2.116,0,0,1-.477,2.175A4.416,4.416,0,0,1,244.94,411.416Zm-3.317-1.131c2.944.587,5.1.479,5.868-.283a1.421,1.421,0,0,0,.27-1.371.712.712,0,0,0-.415-.544C246.267,407.652,243.53,409.045,241.622,410.285Z" transform="translate(-181.708 169.623)" fill="#7d25f5"/>
        <path id="Path_3853" data-name="Path 3853" d="M242.651,412.9h-.187a.458.458,0,0,1-.207-.326c0-.2-.373-4.96,1.285-6.526a1.83,1.83,0,0,1,1.617-.522,1.467,1.467,0,0,1,1.389,1.153c.373,1.806-2.073,5.264-3.711,6.243Zm2.322-6.722a1.093,1.093,0,0,0-.829.348,8.625,8.625,0,0,0-1.078,5.265c1.431-1.218,3.069-3.851,2.82-5.025,0-.239-.187-.5-.746-.566Z" transform="translate(-183.691 167.574)" fill="#7d25f5"/>
        <path id="Path_3854" data-name="Path 3854" d="M297.681,161.16a16,16,0,0,0-12.109-11.073,96.185,96.185,0,0,0-12.3-2.175,322.688,322.688,0,0,0-37.322,0c-6.51.3-13.145,1.109-18.433,1.893h-.187a9.986,9.986,0,0,0-6.9,4.158,10.971,10.971,0,0,0-1.873,8.111,525.6,525.6,0,0,1,8.107,67.155c1.286,32.762-.456,58.475.166,66.372h87.747C309.914,215.7,303.03,179.368,297.681,161.16Z" transform="translate(-173.532 -45.543)" fill="#e0e0e0"/>
        <path id="Path_3855" data-name="Path 3855" d="M240.088,125.626a11.673,11.673,0,0,0-4.48,10.277,11.45,11.45,0,0,0,6.118,9.3c-3.546,6.156,5.889,17.034,15.385,10.2S253.192,119.817,240.088,125.626Z" transform="translate(-183.616 -72.008)" fill="#263238"/>
        <path id="Path_3856" data-name="Path 3856" d="M227.2,135.033a7.438,7.438,0,0,0,6.571-3.651,8.233,8.233,0,0,0,.375-7.791c4.416-1.806,3.628-11.921-4.333-12.356S217.744,132.487,227.2,135.033Z" transform="translate(-131.457 -88.029)" fill="#263238"/>
        <path id="Path_3857" data-name="Path 3857" d="M258.26,178.185a5.022,5.022,0,0,0,1.405-4.59,4.8,4.8,0,0,0-3.043-3.612c-8-3.089-9.455-9.18-8.812-15.815a48.849,48.849,0,0,1,.871-5.547L235.1,137.244l-9.994-8.354c2.488,10.877,5.266,29.825,0,39.419a5.109,5.109,0,0,0,.954,6.352c3.442,3.2,10.491,7.331,22.1,6.679C253.491,181.057,256.456,179.773,258.26,178.185Z" transform="translate(-159.925 -67.267)" fill="#ffc3bd"/>
        <path id="Path_3858" data-name="Path 3858" d="M233.37,161.451a18.62,18.62,0,0,0-13.291-12.661,107.355,107.355,0,0,0-11.881-1.305,2.465,2.465,0,0,0-2.256.871,2.751,2.751,0,0,0-.543,2.457c6.946,27.062,16.857,81.209,13.788,148.277a3.151,3.151,0,0,0,.84,2.263,2.854,2.854,0,0,0,2.146.913H239.59a3.024,3.024,0,0,0,3.006-2.872C247.842,217.446,238.574,176.614,233.37,161.451Z" transform="translate(-104.722 -45.442)" fill="#263238"/>
        <path id="Path_3859" data-name="Path 3859" d="M246.243,148.616a157.228,157.228,0,0,1,16.815-1.61h0a4.361,4.361,0,0,1,4.52,3.437c6.448,29.8,12.192,96.023,12.441,149.3a3.012,3.012,0,0,1-3.007,3.024h-31.1a3.008,3.008,0,0,1-3.006-2.959c-.207-10.725,1.2-35.851,0-67.047a489.587,489.587,0,0,0-7.962-66.176C233.864,160.472,240.085,149.53,246.243,148.616Z" transform="translate(-201.776 -45.987)" fill="#263238"/>
        <path id="Path_3860" data-name="Path 3860" d="M279.865,155.029c-6.656,10.529-12.71,21.08-18.433,32.153-2.82,5.547-5.6,11.182-8.107,17.1-1.244,2.959-2.467,5.982-3.608,9.18a67.083,67.083,0,0,0-2.9,10.66,27.1,27.1,0,0,0-.332,8.049,36.191,36.191,0,0,0,1.6,6.374,65.874,65.874,0,0,0,4.333,9.746,149.955,149.955,0,0,0,10.181,16.272,261.558,261.558,0,0,0,23.471,28.411,5.446,5.446,0,0,0,7.489.464,6.115,6.115,0,0,0,1.3-7.751v-.13c-6.034-10.2-12.13-20.6-17.645-30.913-2.737-5.134-5.349-10.355-7.444-15.4s-3.629-10.573-2.55-10.725a57.794,57.794,0,0,1,2.405-6.787c1.037-2.48,2.219-5.047,3.463-7.592,2.53-5.112,5.246-10.312,8.086-15.424,5.681-10.268,11.736-20.623,17.728-30.652v-.131a12.243,12.243,0,0,0-3.369-16.435,11.016,11.016,0,0,0-15.665,3.535Z" transform="translate(-246.325 -60.698)" fill="#ffc3bd"/>
        <path id="Path_3861" data-name="Path 3861" d="M273.75,147.612c-13.353-.261-20.423,11.6-29.173,30.456,9.911,19.252,28.82,27.584,28.82,27.584S300,148.091,273.75,147.612Z" transform="translate(-227.314 -45.265)" fill="#e0e0e0"/>
        <path id="Path_3862" data-name="Path 3862" d="M258.413,212.347l7.692,2.567L251.861,226.27s-11.653-6.352-8-12.117l2.364-1.109a16.523,16.523,0,0,1,12.192-.7Z" transform="translate(-205.134 -2.566)" fill="#ffc3bd"/>
        <path id="Path_3863" data-name="Path 3863" d="M259.249,223.033l-8.646,9.115a2.746,2.746,0,0,1-2.124.836,2.778,2.778,0,0,1-2.023-1.075l-5.743-7.483,14.244-11.356,4.437,6.374A2.75,2.75,0,0,1,259.249,223.033Z" transform="translate(-193.965 -1.433)" fill="#ffc3bd"/>
        <path id="Path_3864" data-name="Path 3864" d="M243.771,144.147a48.856,48.856,0,0,0-.871,5.547c-5.142,1.371-12.441-4.808-13.125-10.05a35.03,35.03,0,0,1,.415-6.874Z" transform="translate(-155.016 -62.706)" opacity="0.2"/>
        <path id="Path_3865" data-name="Path 3865" d="M222.37,136.447c3.5,16.055,4.748,25.626,14.161,32.784a20.744,20.744,0,0,0,21.6,2.372,22.612,22.612,0,0,0,12.632-18.536c1.2-15.054-4.727-38.788-21.481-43.008S218.866,120.371,222.37,136.447Z" transform="translate(-165.711 -90.27)" fill="#ffc3bd"/>
        <path id="Path_3866" data-name="Path 3866" d="M246.464,160.794c4.437.239,9.165-16.185-.622-24.1,1.555.892,5.806-.74,5.059-3.807,2.882,1.262,15.489.718,12.441-4.655,6.407,1.74,20.382-1.175,21.875-7.592s-5.723-6.635-6.842-5.787c3.172-4.655,3.11-11.486-5.308-13.966s-21.107,10.29-21.107,10.29c1.327-3.372-3.338-6.091-8.169-3.2s-7.091,11.116-7.091,11.116c0-2.48-11.279.848-5.93,11.247-5.536,2.175-8.066,5.265-7.713,10.638s3.857,5.678,3.857,5.678a9.607,9.607,0,0,0,3.048,11.051C235.7,162.556,240.72,156.856,246.464,160.794Z" transform="translate(-182.714 -100.563)" fill="#263238"/>
        <path id="Path_3867" data-name="Path 3867" d="M241.2,133.752a14.988,14.988,0,0,0,8.149,6.2c4.271,1.2,5.723-2.806,3.981-6.983-1.576-3.763-5.681-8.941-9.7-8.288S238.8,130.01,241.2,133.752Z" transform="translate(-186.244 -72.281)" fill="#ffc3bd"/>
        <path id="Path_3868" data-name="Path 3868" d="M231.494,122.9c.207,1.305,1.078,2.284,1.928,2.175s1.389-1.284,1.182-2.611-1.078-2.175-1.928-2.175S231.39,121.573,231.494,122.9Z" transform="translate(-149.477 -77.376)" fill="#263238"/>
        <path id="Path_3869" data-name="Path 3869" d="M224.213,121.571c.207,1.327,1.057,2.306,1.908,2.175s1.389-1.283,1.182-2.61-1.057-2.175-1.908-2.175S224.006,120.265,224.213,121.571Z" transform="translate(-127.019 -78.939)" fill="#263238"/>
        <path id="Path_3870" data-name="Path 3870" d="M224.7,121.52a48.466,48.466,0,0,0,8.024,10.377,7.554,7.554,0,0,1-6.075,2.175Z" transform="translate(-133.498 -75.93)" fill="#ed847e"/>
        <path id="Path_3871" data-name="Path 3871" d="M236.632,132.043a11.035,11.035,0,0,1-8.48-2.611.428.428,0,0,1,0-.566.4.4,0,0,1,.539,0,10.537,10.537,0,0,0,9.31,2.175.358.358,0,0,1,.29.05.392.392,0,0,1,.166.255.385.385,0,0,1-.048.3.351.351,0,0,1-.242.161A10.11,10.11,0,0,1,236.632,132.043Z" transform="translate(-146.176 -67.417)" fill="#263238"/>
        <path id="Path_3872" data-name="Path 3872" d="M239.863,117.363a.759.759,0,0,1,.332.2.787.787,0,0,1,0,1.109,7.318,7.318,0,0,1-6.51,2.567.718.718,0,0,1-.507-.3.79.79,0,0,1-.135-.593.81.81,0,0,1,.317-.521.739.739,0,0,1,.575-.132,5.857,5.857,0,0,0,5.08-2.175A.8.8,0,0,1,239.863,117.363Z" transform="translate(-158.468 -80.888)" fill="#263238"/>
        <path id="Path_3873" data-name="Path 3873" d="M231.005,116.805a.853.853,0,0,1-.726,0,6.474,6.474,0,0,0-5.723-.152.767.767,0,0,1-1.057-.283.848.848,0,0,1,.311-1.088h0a7.944,7.944,0,0,1,7.174,0,.728.728,0,0,1,.388.444.772.772,0,0,1-.056.6A.851.851,0,0,1,231.005,116.805Z" transform="translate(-129.519 -84.268)" fill="#263238"/>
      </g>
    </g>
    <rect id="Rectangle_17435" data-name="Rectangle 17435" width="405.443" height="106.637" transform="translate(-1173.031 -20126.697)" fill="#7d25f5"/>
    <g transform="matrix(1, 0, 0, 1, -1766.01, -20181.7)" filter="url(#Rectangle_17436)">
      <rect id="Rectangle_17436-2" data-name="Rectangle 17436" width="389.892" height="106.637" transform="translate(592.98 69.44)" fill="#fff"/>
    </g>
    <text id="من_نحن_" data-name="من نحن ؟" transform="translate(-1079.244 -20043.15)" fill="#100f0f" font-size="53" font-family="Montserrat" font-weight="500"><tspan x="0" y="0"> </tspan><tspan y="0"> </tspan><tspan y="0" font-family="SegoeUI-Semibold, Segoe UI" font-weight="600">من نحن</tspan></text>
  </g>
</svg>
