<svg xmlns="http://www.w3.org/2000/svg" width="894.266" height="589.642" viewBox="0 0 894.266 589.642">
  <g id="Barbecue-pana" transform="translate(-5.89 -6.48)">
    <g id="freepik--background-complete--inject-52" transform="translate(5.89 6.48)">
      <path id="Path_4588" data-name="Path 4588" d="M674.056,306.085l-16.382-9.41-5.432-28.205-4.571,1.249,3.965,26.653-15.7-10.61L632.5,289.7l20.772,13.217,20.784,9.737Z" transform="translate(127.325 49.218)" fill="#ebebeb"/>
      <rect id="Rectangle_17216" data-name="Rectangle 17216" width="12.005" height="183.49" transform="translate(799.101 314.147)" fill="#ebebeb"/>
      <path id="Path_4589" data-name="Path 4589" d="M675.659,20.35c0,1.637-32.207,103.18-32.207,103.18l16.1-16.37-23.209,70.973,15.291-21.293-18.019,88.992,8.731-9.276L627.07,299.344l13.1-16.382-13.1,46.952,103.738-7.639L706.24,233.828l14.83,16.382-19.208-64.437,9.834,5.469-22.384-82.99,10.428,7.094Z" transform="translate(126.171 -3.531)" fill="#e0e0e0"/>
      <path id="Path_4590" data-name="Path 4590" d="M674.328,169.83a8.484,8.484,0,0,1-.509,1.5c-.424,1.055-.958,2.425-1.625,4.123l-5.808,14.212-.255.631-.327-.606a71.427,71.427,0,0,1-4.232-9.41c-.461-1.213-.885-2.522-1.213-3.723h.631c-2.862,7.276-5.663,13.654-7.773,18.189-1.055,2.255-1.928,4.062-2.559,5.287l-.728,1.407a2.579,2.579,0,0,1-.291.473,13.206,13.206,0,0,1,.8-1.989l2.425-5.36c2-4.559,4.729-10.913,7.567-18.189l.352-.9.279.922c.364,1.213.788,2.425,1.213,3.638a74.4,74.4,0,0,0,4.159,9.349h-.582l6.063-14.127,1.782-4.05a9.412,9.412,0,0,1,.631-1.382Z" transform="translate(130.969 28.248)" fill="#ebebeb"/>
      <path id="Path_4591" data-name="Path 4591" d="M682.269,142.356a6.06,6.06,0,0,1-.582-1.1l-1.492-3.092c-1.285-2.643-3.165-6.33-5.614-10.44l.594-.085c-.521,2-1.079,4.147-1.649,6.378-.376,1.394-.728,2.753-1.067,4.062l-.243.909-.388-.849c-2.207-4.923-4.123-9.264-5.469-12.381-.631-1.467-1.14-2.692-1.552-3.638a7.388,7.388,0,0,1-.5-1.358,5.276,5.276,0,0,1,.7,1.213l1.734,3.638c1.455,3.068,3.444,7.373,5.687,12.284H671.8c.352-1.31.7-2.668,1.067-4.062.582-2.231,1.213-4.377,1.673-6.366l.206-.764.388.679a106.829,106.829,0,0,1,5.432,10.6c.594,1.346,1.031,2.425,1.322,3.177A5.148,5.148,0,0,1,682.269,142.356Z" transform="translate(134.088 17.816)" fill="#ebebeb"/>
      <path id="Path_4592" data-name="Path 4592" d="M669.6,74.41a30.405,30.405,0,0,1-1.831,3.638c-1.213,2.219-2.935,5.287-4.935,8.779l-.449.788-.17-.9c-.182-1.019-.364-2.061-.558-3.129-.328-1.855-.631-3.638-.922-5.275l.594.109c-1.855,2.934-3.468,5.445-4.632,7.276a20.415,20.415,0,0,1-1.94,2.74,19.758,19.758,0,0,1,1.6-2.959c1.067-1.819,2.607-4.377,4.426-7.276l.437-.715.146.837c.3,1.637.618,3.42.958,5.263.182,1.067.376,2.122.546,3.129l-.606-.109c2.013-3.468,3.808-6.5,5.129-8.658A26.1,26.1,0,0,1,669.6,74.41Z" transform="translate(132.058 7.962)" fill="#ebebeb"/>
      <path id="Path_4593" data-name="Path 4593" d="M99.464,306.085l-16.37-9.41L77.661,268.47l-4.571,1.249,3.965,26.653-15.7-10.61L57.92,289.7,78.692,302.92l20.772,9.737Z" transform="translate(5.171 49.218)" fill="#ebebeb"/>
      <rect id="Rectangle_17217" data-name="Rectangle 17217" width="12.005" height="183.49" transform="translate(102.367 314.147)" fill="#ebebeb"/>
      <path id="Path_4594" data-name="Path 4594" d="M101.081,20.35c0,1.637-32.207,103.18-32.207,103.18L84.99,107.16,61.768,178.133,77.059,156.84,59.04,245.832l8.731-9.276L52.48,299.344l13.108-16.382L52.48,329.914l103.738-7.639L131.65,233.828l14.83,16.382-19.208-64.437,9.834,5.469-22.385-82.99,10.38,7.094Z" transform="translate(4.015 -3.531)" fill="#e0e0e0"/>
      <path id="Path_4595" data-name="Path 4595" d="M99.758,169.83a11.462,11.462,0,0,1-.521,1.5c-.412,1.055-.958,2.425-1.613,4.123-1.479,3.638-3.48,8.488-5.808,14.212l-.255.631-.327-.606A71.418,71.418,0,0,1,87,180.283c-.461-1.213-.885-2.522-1.213-3.723h.631c-2.862,7.276-5.663,13.654-7.773,18.189-1.055,2.255-1.94,4.062-2.559,5.287-.291.558-.534,1.019-.728,1.407a3.82,3.82,0,0,1-.291.473,11.726,11.726,0,0,1,.8-1.989l2.425-5.36c2-4.559,4.717-10.913,7.554-18.189l.352-.9.291.922c.364,1.213.776,2.425,1.213,3.638a74.39,74.39,0,0,0,4.1,9.4h-.582c2.425-5.663,4.5-10.55,6.063-14.127l1.758-4.062a8.173,8.173,0,0,1,.715-1.419Z" transform="translate(8.817 28.248)" fill="#ebebeb"/>
      <path id="Path_4596" data-name="Path 4596" d="M107.689,142.356a6.064,6.064,0,0,1-.582-1.1l-1.492-3.092c-1.285-2.643-3.165-6.33-5.614-10.44l.594-.085-1.661,6.378c-.364,1.394-.715,2.753-1.067,4.062l-.243.909-.376-.849c-2.219-4.923-4.135-9.264-5.481-12.381l-1.552-3.638a6.668,6.668,0,0,1-.485-1.358,5.858,5.858,0,0,1,.7,1.213l1.734,3.638c1.455,3.068,3.444,7.373,5.687,12.284h-.631l1.055-4.062c.594-2.231,1.213-4.377,1.686-6.366l.206-.764.388.679a103.737,103.737,0,0,1,5.42,10.6c.594,1.346,1.043,2.425,1.334,3.177A5.153,5.153,0,0,1,107.689,142.356Z" transform="translate(11.934 17.816)" fill="#ebebeb"/>
      <path id="Path_4597" data-name="Path 4597" d="M95.022,74.41a26.289,26.289,0,0,1-1.831,3.638c-1.213,2.219-2.934,5.287-4.923,8.779l-.461.788-.158-.9c-.182-1.019-.364-2.061-.558-3.129-.327-1.855-.643-3.638-.922-5.275l.582.109c-1.843,2.934-3.456,5.445-4.62,7.276a18.5,18.5,0,0,1-1.952,2.74,20.773,20.773,0,0,1,1.613-2.959c1.067-1.819,2.607-4.377,4.414-7.276l.449-.715.146.837c.3,1.637.618,3.42.958,5.263.182,1.067.364,2.122.546,3.129l-.618-.109c1.977-3.626,3.82-6.633,5.129-8.816a26.106,26.106,0,0,1,2.207-3.383Z" transform="translate(9.904 7.962)" fill="#ebebeb"/>
      <path id="Path_4598" data-name="Path 4598" d="M90.543,318.206c.085-7.179-1.419-8.318-2.243-9.6a6.281,6.281,0,0,1-1.5-3.565c0-1.552-.534-8.318-.643-10.477s-.909-5.384-.667-6.5v-.206a3.856,3.856,0,0,0-2.765-.582,3.418,3.418,0,0,0-.558.133,2.705,2.705,0,0,1-1.431.109l-.643-.17a3.213,3.213,0,0,0-1.322-.194,2.57,2.57,0,0,0-.812.218,3.873,3.873,0,0,0,.133.7c.243,1.116-.546,4.329-.643,6.5s-.558,8.937-.606,10.489a6.305,6.305,0,0,1-1.455,3.565c-.825,1.285-2.316,2.425-2.195,9.6s.255,23.148.255,23.148v2.3a7.518,7.518,0,0,0,1.394,4.377,3.638,3.638,0,0,0,2.813,1.055h8.464a3.808,3.808,0,0,0,2.656-.873c1.77-1.734,1.552-4.62,1.564-6.875C90.374,341.342,90.446,325.384,90.543,318.206Z" transform="translate(8.417 53.188)" fill="#fff"/>
      <path id="Path_4599" data-name="Path 4599" d="M80.754,349.461H77.735a3.917,3.917,0,0,1-3.032-1.152,7.809,7.809,0,0,1-1.467-4.547v-2.34c0-.146-.146-16.031-.255-23.124-.109-6.439,1.079-8.112,1.94-9.325.109-.158.218-.3.3-.449l.315-.485a5.056,5.056,0,0,0,1.128-2.934c0-.849.182-3.238.315-5.542.121-1.989.243-3.953.291-4.947a28.591,28.591,0,0,1,.376-3.141,14.029,14.029,0,0,0,.206-3.25c-.073-.291-.109-.521-.146-.715v-.218l.194-.085a2.691,2.691,0,0,1,.9-.255,3.542,3.542,0,0,1,1.443.206,4.926,4.926,0,0,0,.606.158,2.425,2.425,0,0,0,1.3-.1,4.436,4.436,0,0,1,.606-.146,4.1,4.1,0,0,1,2.959.631l.17.109-.073.376a12.939,12.939,0,0,0,.279,3.31c.17,1.079.34,2.195.388,3.129s.182,2.971.3,4.947c.158,2.316.3,4.7.34,5.542a4.959,4.959,0,0,0,1.14,2.934l.315.485.3.437c.873,1.213,2.061,2.886,1.989,9.325-.1,7.179-.17,23.039-.17,23.136v.7c0,2.11,0,4.729-1.649,6.378a4.05,4.05,0,0,1-2.85.958H81.954Zm-2.425-61.842a4.534,4.534,0,0,0,.1.461,12.829,12.829,0,0,1-.279,3.492c-.158,1.067-.327,2.171-.364,3.08s-.17,2.971-.291,4.947c-.133,2.316-.291,4.7-.315,5.529a5.529,5.529,0,0,1-1.213,3.238c-.1.158-.206.315-.3.485a3.982,3.982,0,0,1-.327.461c-.812,1.213-1.94,2.74-1.831,8.985.109,7.094.243,23.039.243,23.136v2.3a7,7,0,0,0,1.322,4.208,3.323,3.323,0,0,0,2.595.946h8.464a3.48,3.48,0,0,0,2.425-.8c1.5-1.479,1.492-3.856,1.492-5.966v-.7h0c0-1.213.1-18.989.158-23.148h0c.073-6.245-1.055-7.821-1.88-8.973l-.315-.461-.315-.485a5.578,5.578,0,0,1-1.213-3.226c0-.837-.182-3.213-.34-5.517-.121-1.989-.255-3.965-.3-4.96s-.218-2.013-.376-3.08a12.962,12.962,0,0,1-.291-3.492h0a3.638,3.638,0,0,0-2.425-.436l-.521.133a2.946,2.946,0,0,1-1.576.109l-.655-.17a3.2,3.2,0,0,0-1.213-.194,2.552,2.552,0,0,0-.412.073Z" transform="translate(8.372 53.146)" fill="#e0e0e0"/>
      <path id="Path_4600" data-name="Path 4600" d="M79.476,287.677l.618.146a2.244,2.244,0,0,0,1.1-.085,6.524,6.524,0,0,1,.728-.17,5.7,5.7,0,0,1,3.335.521,1.274,1.274,0,0,0,0-.255,1.54,1.54,0,0,0-1.7-1.952H78.494c-1.7,0-1.77,1.213-1.722,1.746a4.156,4.156,0,0,1,.849-.194,4.657,4.657,0,0,1,1.855.243Z" transform="translate(9.177 52.917)" fill="#e0e0e0"/>
      <path id="Path_4601" data-name="Path 4601" d="M86.725,308.277l-.3-.461a6.73,6.73,0,0,1-1.443-3.856c0-.8-.182-3.165-.327-5.432h0c-.133-1.952-.255-3.953-.315-4.972a4.581,4.581,0,0,0-.1-1.116H78.771c0,.388-.085.764-.1,1.1,0,1.031-.17,3.031-.291,4.984h0c-.146,2.28-.291,4.632-.315,5.445a6.754,6.754,0,0,1-1.419,3.856l-.3.461-.352.521c-.728,1.019-1.71,2.425-1.613,8.258,0,2.583.085,5.166.109,7.749,0,4.559.121,9.107.121,13.654,0,1.855-.085,3.638.982,5.251s3.262,1.37,4.766,1.382a40.592,40.592,0,0,0,5.008-.17A4.28,4.28,0,0,0,87.792,344c1.1-1.006.849-3.7.861-5.032V328.782c0-3.917,0-7.821.1-11.738.073-5.845-.922-7.276-1.649-8.258Z" transform="translate(8.67 54.314)" fill="#ebebeb"/>
      <path id="Path_4602" data-name="Path 4602" d="M78.584,329.678H73.2V313.55h5.384a8.052,8.052,0,0,1,8.052,8.064h0a8.052,8.052,0,0,1-8.052,8.064Z" transform="translate(8.42 58.802)" fill="#e0e0e0"/>
      <path id="Path_4603" data-name="Path 4603" d="M83.1,326.91s6.548,12.805,29.163,12.805c19.583,0,27.89-12.805,27.89-12.805Z" transform="translate(10.525 61.642)" fill="#e0e0e0"/>
      <rect id="Rectangle_17218" data-name="Rectangle 17218" width="15.497" height="24.967" transform="translate(164.319 376.39)" fill="#e0e0e0"/>
      <path id="Path_4604" data-name="Path 4604" d="M189.8,319.206c.1-7.191-1.407-8.318-2.231-9.6a6.2,6.2,0,0,1-1.5-3.565c0-1.552-.534-8.318-.643-10.489s-.909-5.372-.679-6.487a1.654,1.654,0,0,0,0-.206,3.856,3.856,0,0,0-2.765-.582,3.919,3.919,0,0,0-.57.133,2.8,2.8,0,0,1-1.431.109l-.631-.17a3.249,3.249,0,0,0-1.334-.194,2.584,2.584,0,0,0-.8.218,3.877,3.877,0,0,0,.133.7c.243,1.116-.546,4.329-.643,6.5s-.558,8.937-.606,10.489a6.306,6.306,0,0,1-1.492,3.565c-.825,1.285-2.316,2.425-2.195,9.6s.243,23.136.243,23.136v2.316a7.518,7.518,0,0,0,1.394,4.377,3.638,3.638,0,0,0,2.813,1.055h8.464a3.808,3.808,0,0,0,2.656-.873c1.77-1.746,1.552-4.62,1.564-6.875C189.642,342.342,189.715,326.384,189.8,319.206Z" transform="translate(29.51 53.401)" fill="#fff"/>
      <path id="Path_4605" data-name="Path 4605" d="M180.012,350.467H176.98a3.917,3.917,0,0,1-3.019-1.152,7.724,7.724,0,0,1-1.467-4.547c0-.776,0-1.589,0-2.34,0-.146-.133-16.031-.243-23.124-.109-6.439,1.079-8.112,1.94-9.325l.3-.449.315-.485a5.057,5.057,0,0,0,1.128-2.935c0-.849.17-3.238.315-5.554.121-1.977.243-3.941.291-4.935s.206-2.061.364-3.141a13.532,13.532,0,0,0,.291-3.286c-.073-.291-.109-.521-.145-.715v-.218l.194-.085a2.581,2.581,0,0,1,.9-.255,3.48,3.48,0,0,1,1.443.206l.618.158a2.425,2.425,0,0,0,1.3-.1,4.71,4.71,0,0,1,.594-.146,4.135,4.135,0,0,1,2.971.63l.17.1-.085.388a13.68,13.68,0,0,0,.291,3.31c.17,1.079.34,2.195.388,3.128s.17,2.971.3,4.947c.146,2.316.3,4.7.34,5.542a4.984,4.984,0,0,0,1.14,2.935l.315.485.3.437c.873,1.213,2.061,2.886,1.977,9.325-.085,7.179-.158,23.039-.158,23.136v.7c0,2.11,0,4.729-1.649,6.378a4.062,4.062,0,0,1-2.862.958h-4.232Zm-2.425-61.842a.96.96,0,0,0,.085.461,12.235,12.235,0,0,1-.267,3.492c-.158,1.067-.327,2.171-.364,3.08s-.17,2.959-.291,4.947c-.146,2.316-.291,4.7-.315,5.529a5.7,5.7,0,0,1-1.213,3.238l-.315.485-.315.461c-.812,1.213-1.94,2.74-1.831,8.985.109,7.094.243,23.039.243,23.136v2.3a7.021,7.021,0,0,0,1.322,4.208,3.323,3.323,0,0,0,2.595.946h8.464a3.4,3.4,0,0,0,2.425-.8c1.5-1.467,1.492-3.856,1.479-5.954v-.7h0c0-1.213.1-18.989.146-23.148h0c.085-6.245-1.043-7.821-1.867-8.973l-.315-.461-.315-.485a5.578,5.578,0,0,1-1.213-3.225c0-.837-.194-3.213-.34-5.529-.133-1.989-.255-3.953-.3-4.947s-.218-2.013-.376-3.08a12.465,12.465,0,0,1-.291-3.492h0a3.638,3.638,0,0,0-2.425-.437,4.649,4.649,0,0,0-.521.133,2.983,2.983,0,0,1-1.588.109l-.643-.17a3.261,3.261,0,0,0-1.213-.194,1.966,1.966,0,0,0-.4.061Z" transform="translate(29.476 53.352)" fill="#e0e0e0"/>
      <path id="Path_4606" data-name="Path 4606" d="M178.726,288.677l.631.146a2.182,2.182,0,0,0,1.091-.085,6.8,6.8,0,0,1,.74-.17,5.651,5.651,0,0,1,3.323.521,1,1,0,0,0,0-.255,1.54,1.54,0,0,0-1.7-1.952h-5.069c-1.71,0-1.77,1.213-1.722,1.734a5.208,5.208,0,0,1,.849-.182A4.572,4.572,0,0,1,178.726,288.677Z" transform="translate(30.277 53.129)" fill="#e0e0e0"/>
      <path id="Path_4607" data-name="Path 4607" d="M185.975,309.274l-.3-.461a6.815,6.815,0,0,1-1.431-3.856c0-.8-.182-3.165-.327-5.432h0c-.133-1.94-.267-3.941-.315-4.96a4.485,4.485,0,0,0-.1-1.116h-5.493c0,.388-.085.764-.109,1.1,0,1.031-.158,3.031-.279,4.972v.061c-.133,2.268-.279,4.632-.3,5.432a6.754,6.754,0,0,1-1.419,3.868l-.3.461-.352.509c-.728,1.031-1.71,2.425-1.613,8.27q0,3.868.1,7.749c0,4.559.133,9.107.121,13.654,0,1.855-.073,3.638.994,5.251s3.262,1.37,4.766,1.382a38.337,38.337,0,0,0,5.008-.182,4.172,4.172,0,0,0,2.365-.922c1.1-1.006.849-3.7.861-5.032V329.84c0-3.917.061-7.821.109-11.738.073-5.857-.922-7.276-1.649-8.258A3.535,3.535,0,0,0,185.975,309.274Z" transform="translate(29.77 54.529)" fill="#ebebeb"/>
      <path id="Path_4608" data-name="Path 4608" d="M177.832,330.678H172.46V314.55h5.372a8.064,8.064,0,0,1,8.064,8.064h0A8.064,8.064,0,0,1,177.832,330.678Z" transform="translate(29.522 59.015)" fill="#e0e0e0"/>
      <path id="Path_4609" data-name="Path 4609" d="M5.89,415.7c0-.17,187.952-.315,419.813-.315s419.837.146,419.837.315-187.953.327-419.837.327S5.89,415.877,5.89,415.7Z" transform="translate(-5.89 80.451)" fill="#e0e0e0"/>
      <path id="Path_4610" data-name="Path 4610" d="M499.654,54.19s-4.353,41.519.521,42.744c6.293,1.576,37.033-25.089,37.033-25.089S502.952,55.876,499.654,54.19Z" transform="translate(98.702 3.663)" fill="#f5f5f5"/>
      <path id="Path_4611" data-name="Path 4611" d="M533.385,70.19s-.643,41.738,4.329,42.526c6.415,1.006,34.644-28.3,34.644-28.3S536.8,71.572,533.385,70.19Z" transform="translate(106.248 7.065)" fill="#ebebeb"/>
      <path id="Path_4612" data-name="Path 4612" d="M568.72,82.88s3.116,41.628,8.137,41.968c6.475.424,31.964-31.3,31.964-31.3S572.261,83.947,568.72,82.88Z" transform="translate(113.766 9.762)" fill="#f5f5f5"/>
      <path id="Path_4613" data-name="Path 4613" d="M603.27,92.17s5.554,41.374,10.586,41.41c6.487,0,30.072-33.1,30.072-33.1S606.871,93.031,603.27,92.17Z" transform="translate(121.111 11.737)" fill="#ebebeb"/>
      <path id="Path_4614" data-name="Path 4614" d="M639.07,98.74s9.8,40.573,14.806,40.088c6.463-.618,26.483-36.038,26.483-36.038S642.732,99.225,639.07,98.74Z" transform="translate(128.722 13.134)" fill="#f5f5f5"/>
      <path id="Path_4615" data-name="Path 4615" d="M675.14,102.1s12.854,39.725,17.8,38.864c6.4-1.1,23.694-37.942,23.694-37.942S678.838,102.306,675.14,102.1Z" transform="translate(136.39 13.849)" fill="#ebebeb"/>
      <path id="Path_4616" data-name="Path 4616" d="M467.924,35.59s-7.615,41.046-2.838,42.647c6.148,2.074,38.888-22.081,38.888-22.081S471.076,37.53,467.924,35.59Z" transform="translate(91.399 -0.291)" fill="#ebebeb"/>
      <path id="Path_4617" data-name="Path 4617" d="M810.005,121.459l-1.055.109-3.068.3-5.008.461-3.189.291-3.638.243-8.573.558-10.21.412c-1.819.085-3.723.1-5.675.133l-6.063.085H750.357a533.15,533.15,0,0,1-64.559-5.178c-12.126-1.782-24.688-3.977-37.663-6.742s-26.289-6.281-39.773-10.271L598.322,98.8l-9.846-3.274-2.425-.812-2.425-.861-4.85-1.722-4.741-1.7-4.668-1.807c-3.092-1.213-6.184-2.34-9.192-3.638l-8.8-3.65c-2.947-1.213-5.808-2.559-8.67-3.808l-4.256-1.892-4.22-1.94c-11.083-5.117-21.305-10.586-30.836-15.764S485.2,47.442,477.523,42.41l-5.675-3.638c-1.855-1.213-3.638-2.425-5.311-3.638-3.419-2.352-6.669-4.535-9.616-6.718s-5.736-4.135-8.234-6.063L441.9,17.1c-1.019-.788-2-1.516-2.886-2.243l-2.425-2.037-3.88-3.189L430.28,7.669c-.534-.437-.8-.679-.8-.679l.837.655,2.425,1.928,3.9,3.153,2.5,2.025c.885.715,1.867,1.431,2.886,2.219l6.815,5.226c2.5,1.88,5.3,3.844,8.258,6s6.2,4.353,9.628,6.694c1.722,1.213,3.456,2.425,5.311,3.577l5.675,3.638c7.736,5.008,16.443,10.137,25.877,15.473S523.347,68.2,534.43,73.343l4.159,1.964,4.244,1.892c2.862,1.213,5.736,2.571,8.67,3.808l8.937,3.638q4.511,1.819,9.179,3.638l4.668,1.807,4.741,1.7,4.778,1.71,2.425.861,2.425.812,9.822,3.25,10.04,3.068c13.484,3.977,26.8,7.36,39.761,10.2s25.574,4.984,37.591,6.766a533.927,533.927,0,0,0,64.51,5.263l6.742.085h6.415l6.063-.073c1.964,0,3.856,0,5.687-.121l10.2-.376,8.573-.521,3.638-.218,3.189-.267,5.008-.424,3.08-.255C809.653,121.471,810.005,121.459,810.005,121.459Z" transform="translate(84.164 -6.372)" fill="#455a64"/>
      <path id="Path_4618" data-name="Path 4618" d="M459.315,31.1c-.934-.655-1.843-1.31-2.716-1.977l-3.044-2.207c-1.831-1.334-3.577-2.595-5.2-3.832l-7.87-6.063c-.643-.485-1.213-.958-1.819-1.431L429.909,8.4l-.909-.7,1.006-1.213.849.667,8.8,7.106c.57.461,1.213.922,1.795,1.394l7.894,6.063c1.589,1.213,3.31,2.425,5.1,3.735l3.141,2.255c2.28,1.7,4.753,3.383,7.373,5.166l2.231,1.528,1.855,1.213c1.116.764,2.255,1.552,3.432,2.3l5.675,3.638c7.021,4.535,15.23,9.446,25.853,15.448,8.961,4.85,19.486,10.489,30.764,15.691l8.4,3.844,3.031,1.346c1.855.837,3.723,1.661,5.626,2.425l8.925,3.638c1.94.812,3.9,1.564,5.881,2.316,1.091.424,2.195.837,3.286,1.273l9.434,3.589,9.6,3.371,9.822,3.262,10.016,3.056c12.914,3.808,26.277,7.276,39.7,10.186,12.017,2.571,24.664,4.85,37.59,6.754A539.5,539.5,0,0,0,750.508,123l14.939.073h5.032c1.661,0,3.286,0,4.85-.109l10.21-.364L800.9,121.58l8.088-.679,1.067-.073.146,1.588-1.067.121-14.939,1.3-8.573.558-10.222.4c-1.589.085-3.238.109-4.923.133l-7.93.109h-2.074l-10-.1a535.816,535.816,0,0,1-64.668-5.19c-12.975-1.9-25.658-4.183-37.724-6.754-13.472-2.983-26.883-6.451-39.858-10.259l-10.04-3.056L573.93,91.313l-4.681-1.746-3.3-1.285c-1.989-.752-3.965-1.516-5.905-2.328l-8.937-3.711c-1.916-.8-3.808-1.649-5.675-2.425l-3.007-1.334-8.488-3.868c-11.362-5.251-21.9-10.913-30.873-15.764-10.647-6.063-18.88-10.913-25.925-15.558l-5.675-3.638c-1.213-.764-2.365-1.564-3.5-2.365l-1.807-1.213-2.207-1.5C462.359,33.242,460.782,32.163,459.315,31.1Z" transform="translate(84.062 -6.48)" fill="#e0e0e0"/>
      <path id="Path_4619" data-name="Path 4619" d="M420.237,67.917c.7-5.19-6.609-9.458-12.126-9.895-2.619-.218-5.348.182-7.833-.679-5.384-1.88-7.53-8.828-12.781-11.047-3.929-1.661-8.488-.182-12.259,1.734s-7.579,4.329-11.823,4.6c-3.711.243-7.724-1.128-10.913.679-2.425,1.346-3.638,4.123-5.893,5.76s-5.02,1.952-7.712,2.1-5.493.17-7.955,1.3-4.5,3.723-3.977,6.378Z" transform="translate(62.352 1.832)" fill="#fafafa"/>
      <path id="Path_4620" data-name="Path 4620" d="M503.324,153.527c1.043-7.579-9.7-13.824-17.7-14.466-3.844-.315-7.821.267-11.459-.994-7.87-2.74-11.022-12.914-18.7-16.152-5.748-2.425-12.356-.267-17.922,2.534s-11.071,6.281-17.292,6.73c-5.42.34-11.289-1.661-16.031.982-3.529,1.964-5.372,6.063-8.622,8.428s-7.336,2.85-11.277,3.056-8.039.255-11.629,1.9-6.572,5.445-5.82,9.325Z" transform="translate(70.828 17.837)" fill="#ebebeb"/>
      <path id="Path_4621" data-name="Path 4621" d="M263.028,88.072c.909-6.6-8.4-12.017-15.4-12.587-3.335-.267-6.8.243-9.955-.861C230.822,72.2,228.081,63.4,221.4,60.57c-5-2.11-10.744-.23-15.594,2.207s-9.628,5.505-15.036,5.857c-4.717.291-9.822-1.443-13.945.849-3.068,1.71-4.681,5.251-7.506,7.276s-6.378,2.425-9.81,2.668-6.985.218-10.113,1.649-5.711,4.741-5.069,8.112Z" transform="translate(23.52 4.825)" fill="#ebebeb"/>
      <path id="Path_4622" data-name="Path 4622" d="M118.295,159.924c.7-5.178-6.609-9.446-12.126-9.895-2.619-.206-5.348.194-7.833-.679-5.372-1.916-7.518-8.828-12.708-11.1-3.929-1.649-8.488-.182-12.259,1.734s-7.579,4.329-11.823,4.608c-3.711.23-7.724-1.14-10.913.667-2.425,1.346-3.638,4.123-5.893,5.772s-5.02,1.94-7.712,2.086-5.493.17-7.955,1.3-4.5,3.723-3.977,6.378Z" transform="translate(-1.825 21.383)" fill="#fafafa"/>
    </g>
    <g id="freepik--Floor--inject-52" transform="translate(39.321 572.932)">
      <path id="Path_4623" data-name="Path 4623" d="M859.335,473.935c0,.17-184.9.315-412.913.315s-412.962-.17-412.962-.315,184.86-.315,412.962-.315S859.335,473.753,859.335,473.935Z" transform="translate(-33.46 -473.62)" fill="#263238"/>
    </g>
    <g id="freepik--Plants--inject-52" transform="translate(27.292 470.056)">
      <path id="Path_4624" data-name="Path 4624" d="M665.222,415.833a13.181,13.181,0,0,1,6.827,7.736,23.342,23.342,0,0,1,.9,10.477c-.764,6.791-4.632,13.654-8.791,19.086-5.723-5-7.033-13.714-7.421-18.189-.618-7.045,2.546-20.178,8.488-19.123" transform="translate(111.059 -383.044)" fill="#455a64"/>
      <path id="Path_4625" data-name="Path 4625" d="M668.368,458.318a11.241,11.241,0,0,1,3.638-10.683,14.928,14.928,0,0,1,11-3.444,6.354,6.354,0,0,1,4.85,2.171,4.85,4.85,0,0,1,.073,4.85,9.7,9.7,0,0,1-3.638,3.553c-4.96,3.116-10.319,5.214-15.934,3.529" transform="translate(113.502 -377.013)" fill="#455a64"/>
      <path id="Path_4626" data-name="Path 4626" d="M662.28,477.962a6.748,6.748,0,0,1,.206-1.394c.17-.982.412-2.255.691-3.783a39.436,39.436,0,0,1,3.892-12.053,24.009,24.009,0,0,1,8.658-9.191,15.763,15.763,0,0,1,3.529-1.564,7.57,7.57,0,0,1,1.006-.255,1.056,1.056,0,0,1,.364-.061,26.959,26.959,0,0,0-4.729,2.171,25,25,0,0,0-8.391,9.143,41.975,41.975,0,0,0-3.99,11.883c-.352,1.589-.63,2.862-.849,3.747A9.037,9.037,0,0,1,662.28,477.962Z" transform="translate(112.254 -375.837)" fill="#263238"/>
      <path id="Path_4627" data-name="Path 4627" d="M662.52,424.24a3.4,3.4,0,0,1,0,.606q0,.679.109,1.746c.085,1.528.17,3.735.255,6.451.182,5.445.315,12.975.279,21.293s-.242,15.849-.461,21.293c-.109,2.716-.218,4.923-.315,6.439,0,.715-.085,1.3-.121,1.758a2.67,2.67,0,0,1-.073.606,3.512,3.512,0,0,1,0-.618v-1.746c0-1.589.1-3.783.158-6.451.133-5.445.279-12.975.315-21.281s0-15.836-.133-21.281c0-2.68-.073-4.85-.1-6.451v-1.758A1.95,1.95,0,0,1,662.52,424.24Z" transform="translate(112.233 -381.241)" fill="#263238"/>
      <path id="Path_4628" data-name="Path 4628" d="M663.919,462.781a26.289,26.289,0,0,0-14.345-19.256c-1.916-.909-4.414-1.516-5.99-.085s-1.213,3.977-.449,5.954a22.445,22.445,0,0,0,20.614,13.945" transform="translate(108.045 -377.341)" fill="#455a64"/>
      <path id="Path_4629" data-name="Path 4629" d="M649.09,448.68a6.06,6.06,0,0,1,1.213.534,11.14,11.14,0,0,1,1.37.728,19.62,19.62,0,0,1,1.758,1.091c.618.449,1.31.909,1.989,1.5a25.572,25.572,0,0,1,2.134,1.94,29.572,29.572,0,0,1,4.038,5.19,28.239,28.239,0,0,1,2.668,6.063,24.893,24.893,0,0,1,.667,2.789,23.031,23.031,0,0,1,.352,2.486c.1.752,0,1.455.085,2.061a12.32,12.32,0,0,1,0,1.552,6.642,6.642,0,0,1-.158,1.31c-.109,0,.085-1.892-.242-4.85a22.562,22.562,0,0,0-.4-2.425,26.849,26.849,0,0,0-.7-2.74,29.238,29.238,0,0,0-2.656-5.905,30.243,30.243,0,0,0-3.941-5.129,27.358,27.358,0,0,0-2.062-1.94c-.667-.594-1.334-1.079-1.94-1.528C650.764,449.565,649.042,448.777,649.09,448.68Z" transform="translate(109.45 -376.045)" fill="#263238"/>
      <path id="Path_4630" data-name="Path 4630" d="M54,392.59q6.912,49.292,13.836,98.572l3.638.121C69.109,457.8,66.66,423.657,54,392.59Z" transform="translate(-17.064 -387.97)" fill="#455a64"/>
      <path id="Path_4631" data-name="Path 4631" d="M89.049,388.78c-9.7,10.6-13.557,25.161-16.006,39.3-3.468,20.032-3.783,43.654-2.753,64.013l5.057.109a277.951,277.951,0,0,1,13.7-103.422Z" transform="translate(-13.711 -388.78)" fill="#455a64"/>
      <path id="Path_4632" data-name="Path 4632" d="M62.974,446.773c-1.1-4.85-2.425-9.846-5.166-14.005-3.759-5.626-9.895-9.179-16.079-11.944s-12.66-4.972-18.189-8.8c6.221,10.2,20.347,12.914,27.538,22.457,3.577,4.753,5.069,10.707,6.475,16.491,3.056,12.6,4.935,23.5,7.991,36.1h4.1a323.76,323.76,0,0,0-6.669-40.295Z" transform="translate(-23.54 -383.839)" fill="#455a64"/>
      <path id="Path_4633" data-name="Path 4633" d="M77.41,486.708s3.468-39.155,6.063-46.345,26.871-27.041,26.677-26.107-18.189,22.663-20.8,27.1-7.069,45.351-7.069,45.351Z" transform="translate(-12.087 -383.371)" fill="#455a64"/>
      <path id="Path_4634" data-name="Path 4634" d="M475.738,480.323c-.109,0-.085-1.807-.34-4.7a54.9,54.9,0,0,0-6.451-21.548c-1.394-2.547-2.425-4.05-2.316-4.111a4.742,4.742,0,0,1,.812.994c.485.655,1.14,1.637,1.892,2.9a47.958,47.958,0,0,1,6.512,21.742,29.8,29.8,0,0,1,0,3.456A5.385,5.385,0,0,1,475.738,480.323Z" transform="translate(70.658 -375.773)" fill="#263238"/>
      <path id="Path_4635" data-name="Path 4635" d="M481.711,434.36a9.764,9.764,0,0,1,0,1.867c0,1.322,0,3.031-.085,5.093-.073,4.293-.121,10.234,0,16.794s.291,12.49.461,16.782c.085,2.061.158,3.771.206,5.093a9.224,9.224,0,0,1,0,1.867,12.579,12.579,0,0,1-.243-1.855c-.121-1.213-.255-2.935-.4-5.081-.291-4.293-.57-10.234-.655-16.807s0-12.514.23-16.807c.1-2.146.194-3.892.279-5.093a12.365,12.365,0,0,1,.206-1.855Z" transform="translate(73.707 -379.09)" fill="#263238"/>
      <path id="Path_4636" data-name="Path 4636" d="M502.331,452.84c.073.073-1.128,1.213-2.825,3.286a42.831,42.831,0,0,0-5.517,8.791,41.871,41.871,0,0,0-3.141,9.895c-.485,2.631-.57,4.293-.679,4.28a3.809,3.809,0,0,1,0-1.213,26,26,0,0,1,.291-3.177,36.645,36.645,0,0,1,3.007-10.1,37.176,37.176,0,0,1,5.748-8.816,24.837,24.837,0,0,1,2.243-2.268,4.388,4.388,0,0,1,.873-.679Z" transform="translate(75.653 -375.161)" fill="#263238"/>
      <path id="Path_4637" data-name="Path 4637" d="M709.638,453.62c0,.109-1.382.922-3.407,2.631a29.885,29.885,0,0,0-3.286,3.286,32.023,32.023,0,0,0-3.238,4.656,31.191,31.191,0,0,0-2.28,5.2,28.934,28.934,0,0,0-1.091,4.511c-.4,2.619-.352,4.28-.473,4.28a4.292,4.292,0,0,1-.109-1.213,10.245,10.245,0,0,1,0-1.37,8.879,8.879,0,0,1,.133-1.807,26.579,26.579,0,0,1,.982-4.632,30.379,30.379,0,0,1,2.28-5.335,30.812,30.812,0,0,1,3.359-4.729,25.078,25.078,0,0,1,3.444-3.238,16.821,16.821,0,0,1,1.467-1.067,10.914,10.914,0,0,1,1.213-.715A4.366,4.366,0,0,1,709.638,453.62Z" transform="translate(119.366 -374.995)" fill="#263238"/>
      <path id="Path_4638" data-name="Path 4638" d="M124.26,456.57a11.3,11.3,0,0,1,1.128,2.777,39.676,39.676,0,0,1,1.795,14.3,11.29,11.29,0,0,1-.412,2.959,17.63,17.63,0,0,1,0-2.971,54.955,54.955,0,0,0-.424-7.142A55.554,55.554,0,0,0,125,459.468a17.652,17.652,0,0,1-.74-2.9Z" transform="translate(-2.127 -374.368)" fill="#263238"/>
      <path id="Path_4639" data-name="Path 4639" d="M133.687,445.22c.1,0-.364,1.88-.873,4.923a72.383,72.383,0,0,0-1.006,11.968,73.213,73.213,0,0,0,1.043,11.968c.521,3.031.982,4.85.885,4.923a4.984,4.984,0,0,1-.449-1.273c-.255-.837-.558-2.049-.873-3.565a60.217,60.217,0,0,1,0-24.106c.3-1.516.606-2.74.861-3.565a4.741,4.741,0,0,1,.412-1.273Z" transform="translate(-0.653 -376.781)" fill="#263238"/>
    </g>
    <g id="freepik--character-2--inject-52" transform="translate(576.975 95.606)">
      <path id="Path_4640" data-name="Path 4640" d="M583.72,153.216c-.546-7.967-2.243-15.9-1.867-23.876.23-4.85,1.213-9.871,0-14.551s-5.59-9.228-10.392-8.318L565.24,117.1A66.317,66.317,0,0,1,540.9,157.678c-4.5,3.492-9.592,6.56-12.55,11.411-2.207,3.638-3.044,7.894-5.238,11.5s-5.663,6.281-7.858,9.871c-5.069,8.246-1.479,20.505,7.276,24.713,1.88-7.118,4.062-14.685,9.7-19.4,5.857-4.923,14.03-5.6,21.584-6.851,9.495-1.564,19.486-4.85,25.089-12.7C583.49,169.707,584.254,161.2,583.72,153.216Z" transform="translate(-469.179 -74.374)" fill="#263238"/>
      <path id="Path_4641" data-name="Path 4641" d="M571.033,99.939c-1.5-6.342-4.753-9.4-9.919-13.339A33.819,33.819,0,0,0,539.748,80c-7.833.315-12.49.7-18.274,6.063-3.2,2.934-5.141,7-6.645,11.071-3.468,9.422-2.158,19.826-.255,29.7s4.62,19.1,13.145,24.41l33.856-7.567c7.373-3.286,9.313-12.126,10.913-19.971S572.888,107.785,571.033,99.939Z" transform="translate(-469.235 -79.98)" fill="#263238"/>
      <path id="Path_4642" data-name="Path 4642" d="M514.271,108.752c0-7.6,11.423-22.906,20.857-22.651l7.918,4.426a24.252,24.252,0,0,1,21.414,21.33l.922,8.064,4.693,49.935a247.522,247.522,0,0,1-33.407,7.567L534.06,156.2s-13.436-1.019-17.146-16.479C515.034,132.058,514.21,119.241,514.271,108.752Z" transform="translate(-468.895 -78.68)" fill="#b78772"/>
      <path id="Path_4643" data-name="Path 4643" d="M518.34,114.737a2.013,2.013,0,0,0,2.1,1.867,1.928,1.928,0,0,0,1.928-1.964,2.025,2.025,0,0,0-2.1-1.88,1.928,1.928,0,0,0-1.928,1.977Z" transform="translate(-468.029 -73.012)" fill="#263238"/>
      <path id="Path_4644" data-name="Path 4644" d="M517.437,110.485c.267.243,1.7-.994,3.868-1.213s3.82.8,4.038.509-.182-.57-.909-1.019a5.542,5.542,0,0,0-3.262-.74,5.287,5.287,0,0,0-3.056,1.213C517.5,109.891,517.3,110.424,517.437,110.485Z" transform="translate(-468.23 -74.023)" fill="#263238"/>
      <path id="Path_4645" data-name="Path 4645" d="M534.37,114.195a2.013,2.013,0,0,0,2.086,1.88,1.916,1.916,0,0,0,1.928-1.977,2,2,0,0,0-2.086-1.867,1.916,1.916,0,0,0-1.928,1.964Z" transform="translate(-464.622 -73.125)" fill="#263238"/>
      <path id="Path_4646" data-name="Path 4646" d="M535.011,109.435c.267.243,1.7-.994,3.868-1.213s3.82.8,4.038.509-.182-.57-.922-1.019a5.481,5.481,0,0,0-3.25-.74,5.287,5.287,0,0,0-3.056,1.213C535.011,108.865,534.841,109.35,535.011,109.435Z" transform="translate(-464.498 -74.246)" fill="#263238"/>
      <path id="Path_4647" data-name="Path 4647" d="M530.51,125.91a14.322,14.322,0,0,0-3.553-.364c-.558,0-1.091-.085-1.213-.449a2.826,2.826,0,0,1,.243-1.661l1.3-4.329c1.807-6.16,3.068-11.2,2.813-11.277s-1.9,4.85-3.711,11.023c-.424,1.516-.837,2.959-1.213,4.341a3.2,3.2,0,0,0-.109,2.195,1.382,1.382,0,0,0,.97.74,3.637,3.637,0,0,0,.946,0,14.162,14.162,0,0,0,3.529-.218Z" transform="translate(-466.63 -74.06)" fill="#263238"/>
      <path id="Path_4648" data-name="Path 4648" d="M530.55,145.186a41.665,41.665,0,0,0,21.075-7.276s-4.281,11.374-20.614,11.2Z" transform="translate(-465.434 -67.665)" fill="#916251"/>
      <path id="Path_4649" data-name="Path 4649" d="M530.652,127.3a3.892,3.892,0,0,1,3.371-1.71,3.529,3.529,0,0,1,2.559,1.128,2.255,2.255,0,0,1,.376,2.559,2.619,2.619,0,0,1-2.777.934,8.051,8.051,0,0,1-2.886-1.431,2.255,2.255,0,0,1-.667-.594.7.7,0,0,1-.061-.8" transform="translate(-465.451 -70.284)" fill="#916251"/>
      <path id="Path_4650" data-name="Path 4650" d="M536,123.56c-.352,0-.17,2.352-2.049,4.171s-4.4,1.758-4.39,2.1c0,.146.594.412,1.649.352a5.869,5.869,0,0,0,3.638-1.613,5.069,5.069,0,0,0,1.564-3.48C536.46,124.094,536.157,123.536,536,123.56Z" transform="translate(-465.644 -70.716)" fill="#263238"/>
      <path id="Path_4651" data-name="Path 4651" d="M534.135,103.345c.267.57,2.425.121,4.96.23s4.656.643,4.96.085c.121-.255-.279-.788-1.14-1.285a8.609,8.609,0,0,0-7.554-.243C534.463,102.545,533.978,103.054,534.135,103.345Z" transform="translate(-464.678 -75.432)" fill="#263238"/>
      <path id="Path_4652" data-name="Path 4652" d="M517.012,103.267c.412.461,1.867-.17,3.638-.327s3.335.073,3.638-.473c.133-.255-.133-.728-.837-1.14a5.3,5.3,0,0,0-5.881.631C517.012,102.516,516.83,103.037,517.012,103.267Z" transform="translate(-468.326 -75.572)" fill="#263238"/>
      <path id="Path_4653" data-name="Path 4653" d="M553.873,119.68a4.693,4.693,0,0,1,6.681-4.293c1.661.873,3,2.7,3.007,6.342,0,9.7-9.7,7.712-9.7,7.433S553.848,123.682,553.873,119.68Z" transform="translate(-460.479 -72.547)" fill="#b78772"/>
      <path id="Path_4654" data-name="Path 4654" d="M556.262,124.979a3.281,3.281,0,0,0,.449.255,1.7,1.7,0,0,0,1.213,0c1.031-.376,1.892-2,1.94-3.747a5.541,5.541,0,0,0-.473-2.425,1.965,1.965,0,0,0-1.213-1.3.849.849,0,0,0-.994.461c-.133.279-.073.473-.121.485s-.218-.17-.133-.57a1.213,1.213,0,0,1,.376-.606,1.346,1.346,0,0,1,.934-.243,2.425,2.425,0,0,1,1.77,1.5,5.869,5.869,0,0,1,.582,2.7c-.073,1.952-1.067,3.771-2.425,4.183a1.819,1.819,0,0,1-1.54-.267C556.274,125.222,556.225,125,556.262,124.979Z" transform="translate(-459.97 -72.05)" fill="#916251"/>
      <path id="Path_4655" data-name="Path 4655" d="M560.833,96.75c-.1,0,.267,1.407.618,3.638a75.176,75.176,0,0,1,.812,8.949,67.909,67.909,0,0,1-.218,8.985c-.218,2.28-.558,3.638-.461,3.638s.17-.327.352-.946a21.282,21.282,0,0,0,.558-2.7,51.561,51.561,0,0,0,.4-9.058,55.655,55.655,0,0,0-.994-9.01,22.827,22.827,0,0,0-.691-2.656,3.567,3.567,0,0,0-.376-.837Z" transform="translate(-458.999 -76.415)" fill="#455a64"/>
      <path id="Path_4656" data-name="Path 4656" d="M528.54,87.983a25.7,25.7,0,0,0,14.224,15.267c3,1.213,6.548,2.195,8,5.081.837,1.661.752,3.638.994,5.445a31.252,31.252,0,0,0,3.759,10.137,4.923,4.923,0,0,0,1.661,2.158c1.746,1.019,3.868-.376,5.384-1.71,2.074-1.807,4.22-3.735,5.093-6.342a15.255,15.255,0,0,0,.206-6.669c-.788-6.657-1.9-13.763-6.487-18.662-2.886-3.08-6.839-4.923-10.768-6.5a32.885,32.885,0,0,0-11.8-2.9c-4.062,0-8.343,1.419-10.841,4.632" transform="translate(-465.982 -79.277)" fill="#263238"/>
      <path id="Path_4657" data-name="Path 4657" d="M572.54,167.954a7.166,7.166,0,0,0,1.831-1.843,11.544,11.544,0,0,0,1.613-6.8,41.226,41.226,0,0,0-2.316-10.356,36.379,36.379,0,0,1-1.394-6.208,31.533,31.533,0,0,1,.121-6.839c.521-4.632,1.394-9,.946-12.975a20.471,20.471,0,0,0-3.638-9.773,15.63,15.63,0,0,0-5.287-4.693c-1.516-.764-2.425-.922-2.425-.994a2.834,2.834,0,0,1,.679.121,9.169,9.169,0,0,1,1.867.655,15.11,15.11,0,0,1,5.529,4.644,20.5,20.5,0,0,1,3.917,9.98c.485,4.086-.388,8.488-.909,13.108a31.854,31.854,0,0,0-.121,6.694,36.722,36.722,0,0,0,1.334,6.124,40.234,40.234,0,0,1,2.207,10.5,11.423,11.423,0,0,1-1.868,6.96,5.723,5.723,0,0,1-1.406,1.394,3.555,3.555,0,0,1-.461.243C572.6,167.942,572.54,167.966,572.54,167.954Z" transform="translate(-458.75 -74.136)" fill="#263238"/>
      <path id="Path_4658" data-name="Path 4658" d="M551.016,440.21l1.213,26.58s-26.6,10.186-26.859,15.121L577,481.365l-.23-41.5Z" transform="translate(-466.535 -3.469)" fill="#7d25f5"/>
      <path id="Path_4659" data-name="Path 4659" d="M561.112,460.091a2.122,2.122,0,0,1,1.492,2.425,2.049,2.049,0,0,1-2.365,1.491,2.219,2.219,0,0,1-1.552-2.546,2.11,2.11,0,0,1,2.619-1.273" transform="translate(-459.46 0.829)" fill="#e0e0e0"/>
      <path id="Path_4660" data-name="Path 4660" d="M577.056,474.823l-.194-4.183-49.425,2.086s-2.292,1.031-2.013,2.643Z" transform="translate(-466.528 3.073)" fill="#263238"/>
      <path id="Path_4661" data-name="Path 4661" d="M546.85,461.9c0,.255,1.213.352,2.522,1.152s1.916,1.855,2.146,1.746-.158-1.552-1.685-2.486S546.79,461.67,546.85,461.9Z" transform="translate(-461.969 1.165)" fill="#fff"/>
      <path id="Path_4662" data-name="Path 4662" d="M542.4,463.778c0,.243,1.043.655,1.9,1.722s1.128,2.171,1.382,2.158.4-1.443-.7-2.728S542.4,463.536,542.4,463.778Z" transform="translate(-462.914 1.592)" fill="#fff"/>
      <path id="Path_4663" data-name="Path 4663" d="M540.281,469.89c.23,0,.57-1.213-.1-2.583s-1.843-1.916-1.952-1.71.643.946,1.213,2.086S540.027,469.866,540.281,469.89Z" transform="translate(-463.803 1.992)" fill="#fff"/>
      <path id="Path_4664" data-name="Path 4664" d="M547.172,457c.109.23,1.213-.133,2.68,0s2.546.521,2.68.3-.958-1.1-2.631-1.213S547.038,456.807,547.172,457Z" transform="translate(-461.902 -0.022)" fill="#fff"/>
      <path id="Path_4665" data-name="Path 4665" d="M577.19,436.025l15.085,21.912s-17.219,22.7-14.83,27.017L621,457.245,598.908,422.08Z" transform="translate(-455.518 -7.251)" fill="#7d25f5"/>
      <path id="Path_4666" data-name="Path 4666" d="M599.995,443.014a2.1,2.1,0,0,1,2.51,1.213,2.025,2.025,0,0,1-1.213,2.51,2.219,2.219,0,0,1-2.656-1.334,2.1,2.1,0,0,1,1.552-2.425" transform="translate(-450.967 -2.818)" fill="#e0e0e0"/>
      <path id="Path_4667" data-name="Path 4667" d="M621.039,451.686l-2.425-3.456-40.877,27.89s-1.395,2.074-.315,3.3Z" transform="translate(-455.556 -1.692)" fill="#263238"/>
      <path id="Path_4668" data-name="Path 4668" d="M588.933,452.053c.146.206,1.213-.364,2.753-.352s2.607.558,2.74.352-.946-1.213-2.74-1.213S588.763,451.895,588.933,452.053Z" transform="translate(-453.025 -1.137)" fill="#fff"/>
      <path id="Path_4669" data-name="Path 4669" d="M586.151,455.9c.085.23,1.213,0,2.534.449s2.11,1.213,2.316,1.116-.424-1.431-2.049-1.952S586.03,455.695,586.151,455.9Z" transform="translate(-453.615 -0.183)" fill="#fff"/>
      <path id="Path_4670" data-name="Path 4670" d="M587.58,462.153c.23-.085-.158-1.334-1.443-2.146s-2.571-.655-2.546-.412,1.031.461,2.074,1.152S587.361,462.262,587.58,462.153Z" transform="translate(-454.158 0.683)" fill="#fff"/>
      <path id="Path_4671" data-name="Path 4671" d="M586.557,447.907c.218.133,1.007-.776,2.255-1.467s2.425-.9,2.425-1.152-1.382-.437-2.85.388S586.351,447.8,586.557,447.907Z" transform="translate(-453.535 -2.363)" fill="#fff"/>
      <path id="Path_4672" data-name="Path 4672" d="M482.863,240.964c-1.564-7.651-.194-9.167.424-10.707s1.14-2.425.873-4.111-1.14-8.985-1.467-11.326-.133-5.917-.618-7.057c0-.085-.061-.146-.085-.218a4.184,4.184,0,0,1,2.825-1.213,5.178,5.178,0,0,1,.631,0A2.8,2.8,0,0,0,487,206.15a5.211,5.211,0,0,0,.643-.3,3.941,3.941,0,0,1,1.382-.485,2.752,2.752,0,0,1,.909.073v.776c0,1.213,1.467,4.511,2.025,6.8s2.425,9.422,2.789,11.071a6.839,6.839,0,0,0,2.316,3.5c1.152,1.213,2.983,2.11,4.329,9.8s4.474,24.749,4.474,24.749c.182.788.327,1.649.437,2.425a8.2,8.2,0,0,1-.594,4.96,4,4,0,0,1-2.789,1.7l-4.511.885-4.523.837a4.208,4.208,0,0,1-3.019-.4c-2.243-1.492-2.607-4.608-3.08-7.021C487.786,265.616,484.427,248.579,482.863,240.964Z" transform="translate(-475.757 -53.327)" fill="#455a64"/>
      <path id="Path_4673" data-name="Path 4673" d="M484.557,229.627l.23-.558a7.276,7.276,0,0,0,.74-4.4c-.133-.873-.449-3.407-.764-5.869v-.061c-.267-2.1-.546-4.268-.691-5.36a11.72,11.72,0,0,1-.121-1.213l5.869-1.116c.121.412.242.8.327,1.213.255,1.079.8,3.2,1.322,5.251h0c.606,2.425,1.213,4.85,1.443,5.748a7.349,7.349,0,0,0,2.3,3.82l.424.437c.146.158.3.315.485.485.97.934,2.316,2.219,3.419,8.488q.728,4.147,1.467,8.294c.885,4.85,1.734,9.7,2.68,14.551.388,1.977.825,3.856,0,5.808-.728,1.758-3.2,2.134-4.85,2.425a44.784,44.784,0,0,1-5.384.849,4.656,4.656,0,0,1-2.716-.509c-1.382-.849-1.661-3.771-1.952-5.2l-2.146-10.853c-.837-4.171-1.661-8.343-2.51-12.5-1.285-6.233-.509-7.918.061-9.155Z" transform="translate(-475.45 -52.115)" fill="#455a64"/>
      <path id="Path_4674" data-name="Path 4674" d="M497.956,250.94l5.736-1.1-3.31-17.207-5.736,1.1a8.767,8.767,0,0,0-6.948,10.259h0a8.755,8.755,0,0,0,10.259,6.948Z" transform="translate(-474.578 -47.528)" fill="#263238"/>
      <path id="Path_4675" data-name="Path 4675" d="M483.072,208.672l7.021-1.358a1.213,1.213,0,0,0,.994-1.455h0a1.213,1.213,0,0,0-1.455-.994l-7.033,1.358a1.213,1.213,0,0,0-.994,1.455h0a1.213,1.213,0,0,0,1.467.994Z" transform="translate(-475.845 -53.436)" fill="#455a64"/>
      <path id="Path_4676" data-name="Path 4676" d="M599.341,274.026c0,1.334,7.045,23.039-6.221,37.991l-7.458,7.4s-15.024,71.761-15.024,72.756,7.2,19.656,7.47,60.193c.133,20.263,0,44.454,0,44.454l-27.55.715s-14.806-85.124-17.231-95.019c-2.862-12.126-8.488-55.064-7.445-73.083s5.02-60.788,5.02-60.788,54.07-4,55.064-3.638S599.341,274.026,599.341,274.026Z" transform="translate(-466.453 -40.65)" fill="#263238"/>
      <path id="Path_4677" data-name="Path 4677" d="M602.079,277.127c.23.8-.376,20.735-1.322,24.664-1.6,6.681-4.7,14.175-12.235,22.8,0,0-14.709,47.752-16.37,58.035s-2.219,12.769,0,16.1,17.086,16.091,27.768,39.167C610.2,460.072,616.9,473.907,616.9,473.907l-22.409,14.2L559.566,440.67l-11.338-35.3-3.638-65,8.343-41.932,2.425-26.944,22.251-10.841Z" transform="translate(-462.449 -41.568)" fill="#263238"/>
      <path id="Path_4678" data-name="Path 4678" d="M593.863,281.27a5.1,5.1,0,0,1,0,.57v1.649a40.815,40.815,0,0,1-.8,6.306,47.633,47.633,0,0,1-3.129,9.555,42.338,42.338,0,0,1-2.983,5.542,68.088,68.088,0,0,1-4.208,5.663,32.423,32.423,0,0,0-4.159,6.439,40.018,40.018,0,0,0-2.668,7.87c-.691,2.8-1.213,5.76-1.77,8.791s-1.14,6.16-1.734,9.361c-1.213,6.415-2.425,13.132-3.735,20.1s-2.922,14.163-3.335,21.633a47.3,47.3,0,0,0,0,5.566c.17,1.831.473,3.638.764,5.457q.946,5.408,1.88,10.647c.3,1.746.594,3.48.812,5.226s.267,3.456.412,5.166c.194,3.407.352,6.754.449,10,.424,13.035.461,24.773.461,34.632s-.1,17.837-.17,23.355c-.061,2.728-.1,4.85-.133,6.342v2.207a4.751,4.751,0,0,1,0-.558V461.45c0-9.834-.146-21.584-.606-34.608q-.17-4.85-.473-9.992c-.146-1.686-.194-3.432-.412-5.129s-.521-3.444-.825-5.19c-.618-3.492-1.213-7.045-1.88-10.659-.3-1.807-.606-3.638-.776-5.505a46,46,0,0,1,0-5.639c.424-7.567,2.134-14.745,3.359-21.718s2.571-13.69,3.771-20.1q.909-4.85,1.758-9.349c.57-3.031,1.1-5.99,1.807-8.816a40.833,40.833,0,0,1,2.741-7.967,32.33,32.33,0,0,1,4.244-6.5,46.309,46.309,0,0,0,10.428-20.529,41.8,41.8,0,0,0,.909-6.269c.073-.715.061-1.213.1-1.637A.778.778,0,0,0,593.863,281.27Z" transform="translate(-458.161 -37.187)" fill="#455a64"/>
      <g id="Group_1127" data-name="Group 1127" transform="translate(62.655 234.865)" opacity="0.3">
        <path id="Path_4679" data-name="Path 4679" d="M605.678,283.893c-.667-2.74-3.82-3.941-6.524-4.717a143.251,143.251,0,0,0-21.766-5.008,72.525,72.525,0,0,0-48.5,11.532l-.364,1.686c3.08,3.432,8.088,4.487,12.7,4.244s9.094-1.552,13.69-2.013c7.47-.752,14.939.788,22.36,1.928s15.145,1.867,22.288-.412a11.229,11.229,0,0,0,4.572-2.486,5.214,5.214,0,0,0,1.552-4.753Z" transform="translate(-528.52 -273.668)"/>
      </g>
      <path id="Path_4680" data-name="Path 4680" d="M572.742,153.559c-10.259-11.714-28.363-6.972-35.238,5.408l-.594,1.116c-3.141,6.233-17.413,34.62-19.4,44.454-1.552,7.506,2.765,24.749,4.39,30.776.449,1.637.812,3.274,1.116,4.947,1.395,7.8,5.129,30.23,5.129,46.5,0,7.882-.352,15.9-.643,21.33a5.4,5.4,0,0,0,6.245,5.614c11.459-1.843,33.177-4.3,38.088-4.062,10.344.509,24.955,10.8,36.063,2.195,4.438,2.837-2.365-18.189-4.074-22.821a161.786,161.786,0,0,1-5.857-23.44c-.909-5.675-6.063-55.658-6.063-55.658s-8-44.054-15.691-52.663Z" transform="translate(-468.277 -65.767)" fill="#7d25f5"/>
      <g id="Group_1128" data-name="Group 1128" transform="translate(57.125 170.248)" opacity="0.3">
        <path id="Path_4681" data-name="Path 4681" d="M557.8,235.877c-10.028.764-25.295,5.408-33.844,10.707,1.867,1.7,4.584,2.013,7.106,2.207a133.5,133.5,0,0,0,43.872-3.407,15.763,15.763,0,0,0,7.276-3.892c2.91-2.825,5.93-17.1,2.947-21.111C575.58,223.557,567.844,235.125,557.8,235.877Z" transform="translate(-523.96 -220.38)"/>
      </g>
      <path id="Path_4682" data-name="Path 4682" d="M545.043,216.234a10.7,10.7,0,0,1-2.207-1.686,58.8,58.8,0,0,1-8.961-9.943,11.914,11.914,0,0,1-1.455-2.365c.158-.109,2.631,3.31,6.124,7.166S545.164,216.088,545.043,216.234Z" transform="translate(-465.036 -53.989)" fill="#fafafa"/>
      <path id="Path_4683" data-name="Path 4683" d="M542.479,250.41a28.411,28.411,0,0,1-2.425,5.493,29.527,29.527,0,0,1-3.044,5.2,28.768,28.768,0,0,1,2.425-5.493,29.527,29.527,0,0,1,3.044-5.2Z" transform="translate(-464.06 -43.748)" fill="#fafafa"/>
      <path id="Path_4684" data-name="Path 4684" d="M568.075,267.34a40.639,40.639,0,0,1-3.808-6.063,40.832,40.832,0,0,1-3.238-6.427,43.039,43.039,0,0,1,3.8,6.063,42.551,42.551,0,0,1,3.25,6.427Z" transform="translate(-458.954 -42.804)" fill="#fafafa"/>
      <path id="Path_4685" data-name="Path 4685" d="M586.552,267a45,45,0,0,1-4.632,9.458A44.248,44.248,0,0,1,586.552,267Z" transform="translate(-454.513 -40.221)" fill="#fafafa"/>
      <path id="Path_4686" data-name="Path 4686" d="M554.5,274.717a35.163,35.163,0,0,1-6.778-.594,37.1,37.1,0,0,1-6.682-1.213,34.969,34.969,0,0,1,6.766.594,37.373,37.373,0,0,1,6.694,1.213Z" transform="translate(-463.203 -38.964)" fill="#fafafa"/>
      <path id="Path_4687" data-name="Path 4687" d="M569.828,236.45c.17.061-.74,2.947-1.576,6.56s-1.31,6.609-1.492,6.584a23.864,23.864,0,0,1,.885-6.718A23.582,23.582,0,0,1,569.828,236.45Z" transform="translate(-457.736 -46.715)" fill="#fafafa"/>
      <path id="Path_4688" data-name="Path 4688" d="M577.524,207.284A25.47,25.47,0,0,1,575.1,202.2a24.919,24.919,0,0,1-1.819-5.323,25.47,25.47,0,0,1,2.425,5.081,24.919,24.919,0,0,1,1.819,5.323Z" transform="translate(-456.349 -55.128)" fill="#fafafa"/>
      <path id="Path_4689" data-name="Path 4689" d="M528.122,183.48a19.291,19.291,0,0,1-2.51,4.135,18.779,18.779,0,0,1-3.031,3.8,18.321,18.321,0,0,1,2.51-4.147,18.069,18.069,0,0,1,3.031-3.783Z" transform="translate(-467.128 -57.977)" fill="#fafafa"/>
      <path id="Path_4690" data-name="Path 4690" d="M530.269,218.6c.133.109-.437,1.213-1.213,2.328s-1.649,2.061-1.782,1.952.424-1.14,1.213-2.316S530.123,218.5,530.269,218.6Z" transform="translate(-466.134 -50.512)" fill="#fafafa"/>
      <path id="Path_4691" data-name="Path 4691" d="M581.764,189.41l-24.786,9.883,4.935,24.87L509.59,238.084l4.766,15.934s62.424-3.565,70.913-11.01S581.764,189.41,581.764,189.41Z" transform="translate(-469.89 -56.716)" fill="#b78772"/>
      <path id="Path_4692" data-name="Path 4692" d="M517.9,230.408l-12.647-1.564-6.524-3.044-13.06,2.3-8.8,7.373S478.378,238.532,481,237s5.869-3.917,5.869-3.917l7.276-.873,1.528.655-8.6,2.51-10.222,8.488a5.238,5.238,0,0,0,5.76.546c3.044-1.746,7.615-4.572,7.615-4.572l7.142-1.079L480.67,249.3a3.468,3.468,0,0,0,4.85,1.079c3.274-1.734,14.466-6.524,14.466-6.524l-1.407,2.425L487.266,255.1s-.218,2.607,2.607,1.952,14.357-8.04,14.357-8.04l9.143-1.31c3.044-.437,8.743-1.431,8.743-1.431L520.77,232.36Z" transform="translate(-476.85 -48.98)" fill="#b78772"/>
      <path id="Path_4693" data-name="Path 4693" d="M579.418,200.181s-22.76,7.809-36.087,11.217c-3.832-15.157-7.7-30.751-5.663-46.248.509-3.892,1.455-7.906,3.965-10.913s9.943-6.306,13.508-4.681c0,0,7.215.934,13.266,12.126C572.7,169.721,579.418,200.181,579.418,200.181Z" transform="translate(-464.04 -65.28)" fill="#7d25f5"/>
      <path id="Path_4694" data-name="Path 4694" d="M579.465,200.238a1.211,1.211,0,0,1-.085-.267,4.174,4.174,0,0,0-.206-.812c-.182-.752-.449-1.807-.776-3.153-.667-2.74-1.637-6.754-2.947-11.786-.667-2.51-1.395-5.275-2.255-8.246s-1.807-6.184-3.019-9.507a32.024,32.024,0,0,0-5.323-9.7,25.149,25.149,0,0,0-4.244-4.171,13.909,13.909,0,0,0-5.457-2.668h-.085a5.93,5.93,0,0,0-2.9-.364,14.8,14.8,0,0,0-3.031.618,19.718,19.718,0,0,0-5.675,2.922,12,12,0,0,0-3.771,5.251,27.794,27.794,0,0,0-1.625,6.6,84.518,84.518,0,0,0,.813,24.919c1.285,7.809,3.128,15.024,4.753,21.56l-.315-.182c11.01-2.886,20-5.845,26.289-7.821l7.276-2.34,1.916-.618a6.145,6.145,0,0,1,.667-.182,3.708,3.708,0,0,1-.643.267l-1.892.679-7.276,2.425c-6.269,2.074-15.218,5.105-26.253,8.052l-.255.061v-.255c-1.661-6.536-3.529-13.751-4.85-21.6a84.041,84.041,0,0,1-.837-25.1,27.893,27.893,0,0,1,1.661-6.742,12.539,12.539,0,0,1,3.977-5.517,20.106,20.106,0,0,1,5.869-3.007,14.806,14.806,0,0,1,3.165-.643,6.451,6.451,0,0,1,3.2.424h-.085a14.369,14.369,0,0,1,5.723,2.8,25.392,25.392,0,0,1,4.329,4.281,37.513,37.513,0,0,1,3.189,4.85,35.658,35.658,0,0,1,2.17,5.057c1.213,3.347,2.134,6.56,2.971,9.543s1.552,5.772,2.195,8.294c1.213,5.032,2.171,9.07,2.777,11.835.291,1.346.521,2.425.679,3.165l.158.825A1.926,1.926,0,0,1,579.465,200.238Z" transform="translate(-464.086 -65.337)" fill="#263238"/>
      <path id="Path_4695" data-name="Path 4695" d="M562.571,226.476a15.376,15.376,0,0,0-10.271-8.391,4.486,4.486,0,0,1,2.049.243,11.859,11.859,0,0,1,4.438,2.292,12.126,12.126,0,0,1,3.141,3.892A4.85,4.85,0,0,1,562.571,226.476Z" transform="translate(-460.81 -50.626)" fill="#916251"/>
      <path id="Path_4696" data-name="Path 4696" d="M542.8,164.409a41.459,41.459,0,0,1,6.73-7.639A20.5,20.5,0,0,1,546.4,160.8,20.905,20.905,0,0,1,542.8,164.409Z" transform="translate(-462.829 -63.655)" fill="#fafafa"/>
      <path id="Path_4697" data-name="Path 4697" d="M562.356,172.977a40.287,40.287,0,0,1-4.1-5.784,40.577,40.577,0,0,1-3.638-6.063,38.662,38.662,0,0,1,4.1,5.784,39.933,39.933,0,0,1,3.638,6.063Z" transform="translate(-460.316 -62.728)" fill="#fafafa"/>
      <path id="Path_4698" data-name="Path 4698" d="M555.643,182.766a20.613,20.613,0,0,1-3.747-3.444,21.267,21.267,0,0,1-3.286-3.892,20.443,20.443,0,0,1,3.747,3.456,20.992,20.992,0,0,1,3.286,3.88Z" transform="translate(-461.594 -59.688)" fill="#fafafa"/>
      <path id="Path_4699" data-name="Path 4699" d="M564.059,191.645c0,.182-3.917.509-8.731,1.14s-8.682,1.334-8.719,1.213a9.445,9.445,0,0,1,2.425-.715c1.564-.352,3.735-.752,6.16-1.067s4.62-.5,6.208-.57a10.173,10.173,0,0,1,2.656,0Z" transform="translate(-462.019 -56.259)" fill="#fafafa"/>
    </g>
    <g id="freepik--character-1--inject-52" transform="translate(222.097 83.841)">
      <path id="Path_4700" data-name="Path 4700" d="M270.9,76.38H272.3a26.883,26.883,0,0,1,26.507,25c.9,12.987,1.722,27.356,1.552,34.316-.34,14.418-14.782,16.491-14.782,16.491l.109,5.881a17.522,17.522,0,0,1-17.3,17.874h0a17.51,17.51,0,0,1-17.74-17.049l-1.431-53.682C248.1,90.228,255.889,77.132,270.9,76.38Z" transform="translate(-170.39 -68.981)" fill="#ffbe9d"/>
      <path id="Path_4701" data-name="Path 4701" d="M282.572,139.928a34.972,34.972,0,0,1-18.832-5.748s4.329,10.428,18.735,9.288Z" transform="translate(-167.279 -56.692)" fill="#eb996e"/>
      <path id="Path_4702" data-name="Path 4702" d="M287.151,107.712a2.061,2.061,0,0,1-2.013,2.049,1.952,1.952,0,0,1-2.1-1.88,2.049,2.049,0,0,1,2-2.061,1.989,1.989,0,0,1,2.11,1.892Z" transform="translate(-163.176 -62.722)" fill="#263238"/>
      <path id="Path_4703" data-name="Path 4703" d="M288.895,103.2c-.255.267-1.807-.909-4.014-.922s-3.856,1.067-4.1.788.158-.606.873-1.1a5.59,5.59,0,0,1,3.274-.97,5.505,5.505,0,0,1,3.2,1.067C288.8,102.591,289.028,103.076,288.895,103.2Z" transform="translate(-163.671 -63.749)" fill="#263238"/>
      <path id="Path_4704" data-name="Path 4704" d="M270.931,107.6a2.061,2.061,0,0,1-2.013,2.061,1.976,1.976,0,0,1-2.1-1.88,2.061,2.061,0,0,1,2.013-2.061,1.977,1.977,0,0,1,2.1,1.88Z" transform="translate(-166.624 -62.744)" fill="#263238"/>
      <path id="Path_4705" data-name="Path 4705" d="M270.934,103.389c-.267.255-1.819-.909-4.026-.934s-3.856,1.067-4.086.8.146-.606.861-1.116a5.76,5.76,0,0,1,3.274-.97,5.42,5.42,0,0,1,3.2,1.079C270.825,102.71,271.055,103.207,270.934,103.389Z" transform="translate(-167.488 -63.71)" fill="#263238"/>
      <path id="Path_4706" data-name="Path 4706" d="M276.14,119.808a15.606,15.606,0,0,1,3.638-.606c.57,0,1.1-.158,1.213-.546a2.91,2.91,0,0,0-.364-1.673c-.509-1.382-1.055-2.825-1.625-4.329-2.243-6.16-3.868-11.229-3.638-11.314s2.28,4.85,4.535,11c.546,1.516,1.055,2.959,1.552,4.353a3.238,3.238,0,0,1,.267,2.219,1.37,1.37,0,0,1-.934.812,3.71,3.71,0,0,1-.97.121,13.969,13.969,0,0,1-3.674-.036Z" transform="translate(-164.812 -63.674)" fill="#263238"/>
      <path id="Path_4707" data-name="Path 4707" d="M271.825,96.081c-.23.594-2.425.291-5.044.57s-4.7.97-5.044.424c-.158-.255.218-.825,1.067-1.394a8.488,8.488,0,0,1,3.759-1.213,8.6,8.6,0,0,1,3.929.509C271.449,95.317,271.922,95.79,271.825,96.081Z" transform="translate(-167.712 -65.145)" fill="#263238"/>
      <path id="Path_4708" data-name="Path 4708" d="M288.172,97.918c-.388.5-1.916,0-3.747-.085s-3.4.3-3.747-.23c-.158-.255.1-.764.776-1.213a5.129,5.129,0,0,1,3.068-.788,5.19,5.19,0,0,1,2.983,1.043C288.135,97.154,288.354,97.675,288.172,97.918Z" transform="translate(-163.688 -64.896)" fill="#263238"/>
      <path id="Path_4709" data-name="Path 4709" d="M298.082,95.081s-3.7-9.07-8.027-11.229c-5.238-2.607-7.579,3.153-12.587,1.686s-10.016-3.965-15.194-.133c-5.663,4.183-3.068,7.191-3.48,13.593-1.71,25.925-6.524,33.2-7.736,20.966-.133-1.334-3.832-2.425-4.329-8.112-.631-7.276-.8-16.249.885-21.427,1.431-4.377,3.965-7.385,8.488-10.671,7.142-5.19,16.879-5.2,23.476-4.462S298.822,83.779,298.082,95.081Z" transform="translate(-170.991 -69.286)" fill="#263238"/>
      <path id="Path_4710" data-name="Path 4710" d="M252.714,112.431a3.9,3.9,0,0,0-4.183-3.82c-2.692.218-5.7,1.71-5.59,7.276.206,9.858,10.065,7.627,10.077,7.276S252.811,116.554,252.714,112.431Z" transform="translate(-171.701 -62.13)" fill="#ffbe9d"/>
      <path id="Path_4711" data-name="Path 4711" d="M250.194,119a3.764,3.764,0,0,1-.461.267,1.734,1.734,0,0,1-1.285,0c-1.043-.364-1.964-2-2.049-3.771a5.808,5.808,0,0,1,.437-2.425,2,2,0,0,1,1.213-1.346.9.9,0,0,1,1.031.449c.133.279.073.473.133.485s.206-.17.121-.57a1.091,1.091,0,0,0-.412-.606,1.213,1.213,0,0,0-.946-.23,2.425,2.425,0,0,0-1.77,1.564,5.8,5.8,0,0,0-.533,2.753c.1,1.989,1.152,3.832,2.595,4.208a1.819,1.819,0,0,0,1.564-.291C250.182,119.244,250.231,119.014,250.194,119Z" transform="translate(-171.122 -61.571)" fill="#eb996e"/>
      <path id="Path_4712" data-name="Path 4712" d="M301.036,85.583c-1.431-1.213-3.5-1.54-4.923-2.789-2.583-2.28-2.365-7.045-5.481-8.488-1.855-.873-4.05-.109-6.063-.461-3.25-.57-4.353-3.129-9.325-3.492a9.07,9.07,0,0,0-8.876,4.22,7.482,7.482,0,0,0-7.494.182c-3.068,1.783-3.529,5.736-3.529,5.736s-.994-.582-4.268,1.649c-2.074,1.431-3.917,4.681-4.85,7.045-1.322,3.517,0,7.421,1.273,10.913.7,1.9,1.588,4.014,3.468,4.85,2.292.946,5-.7,6.063-2.947s2.68-4.45,3.941-6.584c2.195-3.638,4.426-7.142,2.971-9.7a11.326,11.326,0,0,1,6.912.437c2.195.909,4.062,2.425,6.245,3.432s5.02,1.091,6.657-.618a4.85,4.85,0,0,0,7.276,2.1c1.552,3.019,5.614,4.644,8.622,3.092S303.594,87.815,301.036,85.583Z" transform="translate(-171.119 -70.278)" fill="#263238"/>
      <path id="Path_4713" data-name="Path 4713" d="M246.54,92.93a11.63,11.63,0,0,1,.982,2.328,5,5,0,0,0,1.479,2.1,4.341,4.341,0,0,0,3.019.558,7.494,7.494,0,0,0,3.031-1.043,12.719,12.719,0,0,0,2.049-1.71,14.992,14.992,0,0,1,1.77-1.807A8.925,8.925,0,0,1,257.4,95.44a11,11,0,0,1-2.061,1.892,7.712,7.712,0,0,1-3.25,1.213,4.62,4.62,0,0,1-3.407-.715A4.972,4.972,0,0,1,247.1,95.44,9.98,9.98,0,0,1,246.54,92.93Z" transform="translate(-170.936 -65.462)" fill="#455a64"/>
      <path id="Path_4714" data-name="Path 4714" d="M246.421,100.018a7.712,7.712,0,0,0,1.867,1.213,5.663,5.663,0,0,0,2.328.364,6.863,6.863,0,0,0,2.765-.849,13.46,13.46,0,0,0,3.965-3.638A11.653,11.653,0,0,1,258.8,95.35a7.457,7.457,0,0,1-1.128,2,11.9,11.9,0,0,1-4.014,3.9,6.791,6.791,0,0,1-3.019.861,5.59,5.59,0,0,1-2.522-.521C246.761,100.989,246.36,100.031,246.421,100.018Z" transform="translate(-170.962 -64.948)" fill="#455a64"/>
      <path id="Path_4715" data-name="Path 4715" d="M246.391,104.721a9.348,9.348,0,0,0,1.867.946,6.063,6.063,0,0,0,4.765-.74,13.8,13.8,0,0,0,3.638-3.468,9.444,9.444,0,0,1,1.382-1.649,6.949,6.949,0,0,1-1.055,1.892,12.053,12.053,0,0,1-3.711,3.723,6.863,6.863,0,0,1-2.8.946,5.481,5.481,0,0,1-2.425-.315A2.919,2.919,0,0,1,246.391,104.721Z" transform="translate(-170.968 -63.999)" fill="#455a64"/>
      <path id="Path_4716" data-name="Path 4716" d="M270.745,119.2a12.331,12.331,0,0,0-.788,3.262,3.759,3.759,0,0,0,.873,2.971,4.159,4.159,0,0,0,3.08,1.686h0a4.6,4.6,0,0,0,4.79-3.638l.558-2.425C277.038,120.34,270.9,119.37,270.745,119.2Z" transform="translate(-165.965 -59.877)" fill="#eb996e"/>
      <path id="Path_4717" data-name="Path 4717" d="M276.354,126.628h-.788a6.791,6.791,0,0,1-2.074-.121,4.038,4.038,0,0,1-2.425-1.649,5.08,5.08,0,0,1-.752-3.517,4.911,4.911,0,0,1,.667-1.952l-.315.121c2.183.485,4.1.885,5.469,1.152a9.239,9.239,0,0,0,2.207.3,10.355,10.355,0,0,0-2.134-.679c-1.346-.352-3.238-.825-5.408-1.346h-.206l-.109.182a5.383,5.383,0,0,0-.764,2.195,5.457,5.457,0,0,0,.9,3.917,4.353,4.353,0,0,0,2.789,1.734,5.735,5.735,0,0,0,2.195,0C276.136,126.786,276.366,126.664,276.354,126.628Z" transform="translate(-166.021 -59.932)" fill="#263238"/>
      <path id="Path_4718" data-name="Path 4718" d="M230.861,145.2a25.3,25.3,0,0,0-12.55,9.6c-2.571,3.965-26.58,48.37-26.58,48.37l1.916,1.019,28.933,15.4,15.642-29.939s4.462-26,2.619-34.486A13.157,13.157,0,0,0,230.861,145.2Z" transform="translate(-182.588 -54.35)" fill="#7d25f5"/>
      <path id="Path_4719" data-name="Path 4719" d="M224.755,145.942l31.528-4.232c6.124,12.526,33.565,14.139,35.529,2.51,5.675,2.086,10.234,3.989,13.739,6.475l3.723,37.469,2.013,93.091-90.836-7.7,3.274-69.567Z" transform="translate(-176.482 -55.092)" fill="#7d25f5"/>
      <path id="Path_4720" data-name="Path 4720" d="M294.338,218l18.189-.521s-5.93-40.889-8.694-48.7c-7.057-19.923-13.193-19.656-13.193-19.656l1.576,27.077,2.171,41.8Z" transform="translate(-161.56 -53.516)" fill="#7d25f5"/>
      <path id="Path_4721" data-name="Path 4721" d="M232.668,182.23a5.007,5.007,0,0,1-.534,1.213c-.449.837-1.006,1.843-1.637,3.031-1.479,2.692-3.359,6.148-5.445,9.968l-5.323,10.04-1.613,2.983a4.62,4.62,0,0,1-.667,1.079,5.227,5.227,0,0,1,.449-1.213c.315-.752.812-1.819,1.443-3.128,1.213-2.631,3.056-6.221,5.166-10.137s4.111-7.409,5.614-9.895c.752-1.213,1.37-2.255,1.819-2.934a4.512,4.512,0,0,1,.728-1.006Z" transform="translate(-177.12 -46.477)" fill="#263238"/>
      <path id="Path_4722" data-name="Path 4722" d="M237.441,177.29c-.121,0,0-1.94-.376-5.044a39.313,39.313,0,0,0-6.39-17.51,16.516,16.516,0,0,0-3.565-4.038,7.857,7.857,0,0,0-3.226-1.576c-.837-.17-1.334-.146-1.334-.206a1.212,1.212,0,0,1,.352,0,4.245,4.245,0,0,1,1.019,0,7.506,7.506,0,0,1,3.456,1.455,16.527,16.527,0,0,1,3.783,4.074,35.908,35.908,0,0,1,3.31,5.917,36.281,36.281,0,0,1,3.044,11.883,31.444,31.444,0,0,1,.073,3.723A5.19,5.19,0,0,1,237.441,177.29Z" transform="translate(-176.036 -53.566)" fill="#263238"/>
      <path id="Path_4723" data-name="Path 4723" d="M277.556,439.549l-1.213,26.58s26.6,10.186,26.859,15.121l-51.632-.546.23-41.5Z" transform="translate(-169.866 8.156)" fill="#7d25f5"/>
      <path id="Path_4724" data-name="Path 4724" d="M259.087,459.43a2.086,2.086,0,0,0-1.479,2.425,2.025,2.025,0,0,0,2.352,1.491,2.219,2.219,0,0,0,1.552-2.546,2.086,2.086,0,0,0-2.619-1.213" transform="translate(-168.592 12.455)" fill="#e0e0e0"/>
      <path id="Path_4725" data-name="Path 4725" d="M251.53,474.163l.194-4.184,49.425,2.086s2.292,1.031,2.013,2.643Z" transform="translate(-169.875 14.698)" fill="#263238"/>
      <path id="Path_4726" data-name="Path 4726" d="M273.491,461.243c0,.255-1.273.352-2.522,1.152s-1.928,1.855-2.158,1.746.158-1.552,1.7-2.5S273.54,461,273.491,461.243Z" transform="translate(-166.214 12.788)" fill="#fff"/>
      <path id="Path_4727" data-name="Path 4727" d="M277.707,463.107c0,.255-1.043.667-1.9,1.722s-1.128,2.183-1.382,2.171-.388-1.443.715-2.728S277.707,462.876,277.707,463.107Z" transform="translate(-165.046 13.216)" fill="#fff"/>
      <path id="Path_4728" data-name="Path 4728" d="M279.632,469.23c-.23,0-.57-1.213.1-2.595s1.843-1.9,1.952-1.7-.631.946-1.213,2.086S279.886,469.206,279.632,469.23Z" transform="translate(-163.963 13.616)" fill="#fff"/>
      <path id="Path_4729" data-name="Path 4729" d="M273.269,456.341c-.1.23-1.213-.133-2.68,0s-2.546.521-2.668.3.946-1.1,2.619-1.213S273.4,456.123,273.269,456.341Z" transform="translate(-166.392 11.602)" fill="#fff"/>
      <path id="Path_4730" data-name="Path 4730" d="M226.03,441.6l-2.8,32.073,5.105,26.01a3.286,3.286,0,0,1-2.813,3.9h0a3.262,3.262,0,0,1-2.837-1.031c-4.608-5.02-20.954-23.779-20.954-25.465,0-2.728.546-34.426.546-34.426Z" transform="translate(-180.462 8.664)" fill="#7d25f5"/>
      <path id="Path_4731" data-name="Path 4731" d="M225.54,497.822l-23.8-29.1-.085,1.358a5.093,5.093,0,0,0,.97,3.286c1.88,2.534,7.276,9.4,19.984,23.4a3.262,3.262,0,0,0,2.934,1.043Z" transform="translate(-180.48 14.43)" fill="#263238"/>
      <g id="Group_1129" data-name="Group 1129" transform="translate(25.532 472.84)" opacity="0.6">
        <path id="Path_4732" data-name="Path 4732" d="M208.234,460.6a2,2,0,0,1,.376,2.631,1.916,1.916,0,0,1-2.607.4,2.086,2.086,0,0,1-.388-2.789,1.976,1.976,0,0,1,2.753-.121" transform="translate(-205.247 -460.218)" fill="#fff"/>
      </g>
      <path id="Path_4733" data-name="Path 4733" d="M216,481.352a7.082,7.082,0,0,1,6.73-2.789c0-.085-.364-.352-1.1-.509a5.165,5.165,0,0,0-2.922.327,5.069,5.069,0,0,0-2.28,1.831A2.153,2.153,0,0,0,216,481.352Z" transform="translate(-177.428 16.397)" fill="#fff"/>
      <path id="Path_4734" data-name="Path 4734" d="M217.693,484.779a30.081,30.081,0,0,1,2.934-1.213,25.464,25.464,0,0,1,3.165-.206c.109-.158-1.395-.946-3.323-.485S217.535,484.682,217.693,484.779Z" transform="translate(-177.072 17.409)" fill="#fff"/>
      <path id="Path_4735" data-name="Path 4735" d="M212.81,476.571c.146.17,1.819-1.346,4.4-2.158s4.85-.582,4.85-.8a9.022,9.022,0,0,0-9.24,2.959Z" transform="translate(-178.106 15.406)" fill="#fff"/>
      <path id="Path_4736" data-name="Path 4736" d="M212.84,468.067c.073.206,1.892-.424,4.208-.364s4.111.74,4.2.546a8.209,8.209,0,0,0-8.4-.182Z" transform="translate(-178.1 14.064)" fill="#fff"/>
      <path id="Path_4737" data-name="Path 4737" d="M213.321,460.317a16.227,16.227,0,0,1,4.377-.5,16.041,16.041,0,0,1,4.183,1.346c.061-.061-.267-.485-.982-.958a6.959,6.959,0,0,0-3.141-1.091,7.142,7.142,0,0,0-3.286.449C213.684,459.892,213.272,460.2,213.321,460.317Z" transform="translate(-177.999 12.38)" fill="#fff"/>
      <path id="Path_4738" data-name="Path 4738" d="M217.742,459.349a2.571,2.571,0,0,0,.121-1.213,8.38,8.38,0,0,0-.752-3.25,3.783,3.783,0,0,0-1.491-1.879,1.334,1.334,0,0,0-1.516.194,2.134,2.134,0,0,0-.594,1.419,4.656,4.656,0,0,0,3.8,4.559,5.4,5.4,0,0,0,5.481-2.425,1.9,1.9,0,0,0,.194-1.552,1.31,1.31,0,0,0-1.322-.776,4.717,4.717,0,0,0-2.183.958,9.7,9.7,0,0,0-2.352,2.425,3.018,3.018,0,0,0-.57,1.079,15.074,15.074,0,0,1,3.2-3.019,4.366,4.366,0,0,1,1.928-.8.691.691,0,0,1,.715.424,1.213,1.213,0,0,1-.182,1.006,4.85,4.85,0,0,1-4.778,2.1,4.05,4.05,0,0,1-3.286-3.832,1.637,1.637,0,0,1,.376-1.006.74.74,0,0,1,.837-.121,3.468,3.468,0,0,1,1.3,1.576,12.054,12.054,0,0,1,1.079,4.135Z" transform="translate(-177.958 11.057)" fill="#fff"/>
      <path id="Path_4739" data-name="Path 4739" d="M314.3,260.991a114.252,114.252,0,0,1,2.5,33.613c-.558,7.142-24.664,204.808-24.664,204.808H259.577l9.155-185.77-2.668.57s-17.728,79.28-19.22,92.06c-1.3,11.532-16.285,95.31-16.285,95.31l-29.769.339L210.3,391.066l11.059-106.32,4.171-30.945Z" transform="translate(-180.662 -31.262)" fill="#263238"/>
      <path id="Path_4740" data-name="Path 4740" d="M252.59,292.106a6.729,6.729,0,0,0,1.358.764,15.4,15.4,0,0,0,4.026,1.407,8.306,8.306,0,0,0,3.007,0,6.16,6.16,0,0,0,3.128-1.5,7.458,7.458,0,0,0,1.9-3.322c.388-1.273.606-2.583.873-3.917,1.043-5.36,1.734-10.259,2.146-13.811.206-1.783.339-3.213.424-4.22a6.325,6.325,0,0,0,0-1.552,6.172,6.172,0,0,0-.3,1.528c-.182,1.128-.388,2.522-.643,4.184-.521,3.529-1.31,8.391-2.34,13.739-.521,2.643-.885,5.335-2.534,6.912a6.754,6.754,0,0,1-5.614,1.467,19.1,19.1,0,0,1-4-1.213A7.762,7.762,0,0,0,252.59,292.106Z" transform="translate(-169.649 -28.679)" fill="#455a64"/>
      <path id="Path_4741" data-name="Path 4741" d="M261.348,266.774a1.254,1.254,0,0,0-.667-.194,2.886,2.886,0,0,0-1.831.582,3.274,3.274,0,0,0-1.37,2.51,3.226,3.226,0,0,0,5.493,2.061,3.262,3.262,0,0,0,.63-2.789,2.874,2.874,0,0,0-.994-1.637c-.364-.291-.618-.327-.631-.291a3.638,3.638,0,0,1,1.14,2.013,2.85,2.85,0,0,1-.618,2.292,2.631,2.631,0,0,1-4.377-1.649,2.789,2.789,0,0,1,1.031-2.122A3.638,3.638,0,0,1,261.348,266.774Z" transform="translate(-168.61 -28.545)" fill="#455a64"/>
      <path id="Path_4742" data-name="Path 4742" d="M218.13,279.657a3.25,3.25,0,0,0,1.1.17,20.035,20.035,0,0,0,3.056,0,29.515,29.515,0,0,0,18.274-7.7,20.366,20.366,0,0,0,2.11-2.207,3.637,3.637,0,0,0,.643-.909c-.085-.085-1.128,1.116-3.08,2.753a32.655,32.655,0,0,1-17.983,7.579C219.718,279.621,218.13,279.536,218.13,279.657Z" transform="translate(-176.975 -28.029)" fill="#455a64"/>
      <path id="Path_4743" data-name="Path 4743" d="M283.39,267.23a13.34,13.34,0,0,0,1.686,3.323,36.945,36.945,0,0,0,5.651,7.009,37.347,37.347,0,0,0,7.154,5.445,14.55,14.55,0,0,0,3.371,1.6,30.658,30.658,0,0,0-3.116-2.013,47.363,47.363,0,0,1-6.936-5.529,46.832,46.832,0,0,1-5.723-6.778A36.659,36.659,0,0,0,283.39,267.23Z" transform="translate(-163.101 -28.406)" fill="#455a64"/>
      <path id="Path_4744" data-name="Path 4744" d="M218.27,379.278a79.153,79.153,0,0,0,6.633-7.106,80.124,80.124,0,0,0,6.209-7.482,76.911,76.911,0,0,0-6.645,7.094,79.7,79.7,0,0,0-6.2,7.494Z" transform="translate(-176.946 -7.687)" fill="#455a64"/>
      <path id="Path_4745" data-name="Path 4745" d="M272.17,368.54a30.385,30.385,0,0,0,2.959,5.117,29.781,29.781,0,0,0,3.468,4.85,29.817,29.817,0,0,0-2.971-5.129,28.874,28.874,0,0,0-3.456-4.838Z" transform="translate(-165.487 -6.868)" fill="#455a64"/>
      <path id="Path_4746" data-name="Path 4746" d="M310.576,205.52v11.714L333.6,234.841l-4.462,15.1-34.2-10.962-.715-32.971Z" transform="translate(-160.797 -41.526)" fill="#ffbe9d"/>
      <path id="Path_4747" data-name="Path 4747" d="M300.392,218.764c-.073,0,.158-.558.752-1.213a7.518,7.518,0,0,1,6.318-2.425c.885.109,1.382.352,1.358.424a14.358,14.358,0,0,0-4.584.606,13.848,13.848,0,0,0-3.844,2.607Z" transform="translate(-159.49 -39.492)" fill="#eb996e"/>
      <path id="Path_4748" data-name="Path 4748" d="M309.937,230.333c1.079-7.276,2.8-8.234,3.856-9.41a6.414,6.414,0,0,0,2.11-3.371c.315-1.576,1.9-8.379,2.365-10.574s1.819-5.323,1.758-6.5a1.316,1.316,0,0,1,0-.218,4.014,4.014,0,0,1,2.91-.133,3.214,3.214,0,0,1,.546.23,2.765,2.765,0,0,0,1.443.34h.679a3.311,3.311,0,0,1,1.382,0,2.788,2.788,0,0,1,.788.364q-.085.267-.255.691c-.437,1.091-.158,4.487-.412,6.718s-.9,9.191-1.1,10.768a6.438,6.438,0,0,0,.934,3.88c.631,1.443,1.964,2.85.667,10.137s-4.05,23.512-4.05,23.512a22.818,22.818,0,0,1-.424,2.352A7.736,7.736,0,0,1,321,263.352a3.82,3.82,0,0,1-3.032.606l-4.317-.679-4.3-.728a3.977,3.977,0,0,1-2.559-1.334c-1.516-2.061-.825-4.96-.461-7.276C306.312,253.893,308.846,237.608,309.937,230.333Z" transform="translate(-158.327 -42.717)" fill="#455a64"/>
      <path id="Path_4749" data-name="Path 4749" d="M314.693,220.827l.388-.424a6.912,6.912,0,0,0,2.086-3.638c.17-.812.7-3.189,1.213-5.481h0c.449-1.964.909-3.977,1.128-5.008.073-.352.182-.728.291-1.116l5.59.909a10.441,10.441,0,0,1-.085,1.14c-.109,1.055-.315,3.116-.521,5.117h0c-.23,2.34-.473,4.765-.582,5.59a6.96,6.96,0,0,0,.825,4.159l.23.521a6.208,6.208,0,0,0,.267.582c.57,1.213,1.346,2.74.291,8.682-.461,2.619-.934,5.251-1.382,7.87-.788,4.632-1.625,9.24-2.352,13.884-.3,1.88-.509,3.638-1.867,5.178s-3.541.861-5.081.618a40.249,40.249,0,0,1-5.069-.994,4.377,4.377,0,0,1-2.255-1.334c-.958-1.213-.255-3.892,0-5.263.534-3.456,1.079-6.924,1.613-10.38.618-3.989,1.213-7.967,1.819-11.956.885-5.966,2.122-7.276,3.031-8.149A4.723,4.723,0,0,1,314.693,220.827Z" transform="translate(-158.015 -41.602)" fill="#455a64"/>
      <path id="Path_4750" data-name="Path 4750" d="M318.226,243.835l5.469.885,2.643-16.419-5.469-.873a8.306,8.306,0,0,0-9.531,6.875h0A8.318,8.318,0,0,0,318.226,243.835Z" transform="translate(-157.182 -36.891)" fill="#263238"/>
      <path id="Path_4751" data-name="Path 4751" d="M318.174,201.6l6.706,1.079a1.213,1.213,0,0,0,1.358-.982h0a1.213,1.213,0,0,0-.982-1.358l-6.706-1.079a1.213,1.213,0,0,0-1.358.982h0A1.213,1.213,0,0,0,318.174,201.6Z" transform="translate(-155.918 -42.859)" fill="#455a64"/>
      <path id="Path_4752" data-name="Path 4752" d="M325.348,224.262s4.062-.17,4.79.873,1.152,5.105,1.152,5.105l-2.086,2.607s1.152,5.311.412,6.875-1.3,1.358-1.3,1.358a9.7,9.7,0,0,1-.57,5.942,35.968,35.968,0,0,1-1.77,4.062c-.558.837-5.845,6.354-5.845,6.354s-2.91-.412-1.977-2.813,1.455-3.541,1.455-3.541l1.152-.934s-4.717.291-4.3-2.34a2.5,2.5,0,0,1,1.37-1.94l4.183-1.346.631-1.783s-5,0-6.063-.934a2.862,2.862,0,0,1-1.055-3.007c.267-.982,2.425-2.425,5.445-2.146a8.27,8.27,0,0,0,5.093-1.31l.837-1.564s-4.438,1.528-5.19.97-1.213,0-1.067-2.11.57-3.444,2.74-4.584,2.583-2.086,2.583-2.086Z" transform="translate(-156.289 -37.544)" fill="#ffbe9d"/>
      <path id="Path_4753" data-name="Path 4753" d="M309.71,226.94a4.669,4.669,0,0,0-4.244,2.874,6.245,6.245,0,0,0,.315,5.238c.412.812,1.213,1.625,2.061,1.431s1.213-1.213,1.431-2.025C309.831,232.191,311.31,227.4,309.71,226.94Z" transform="translate(-158.5 -36.972)" fill="#ffbe9d"/>
      <path id="Path_4754" data-name="Path 4754" d="M309.757,226.959s.473,0,.715.643a6.065,6.065,0,0,1,.073,2.631c-.158,1.091-.461,2.425-.8,3.759a5.614,5.614,0,0,1-.849,2.219,1.613,1.613,0,0,1-1.273.631,1.964,1.964,0,0,1-1.31-.582,5,5,0,0,1-1.213-2.231,6.839,6.839,0,0,1-.279-2.34,5.275,5.275,0,0,1,1.625-3.565,4.414,4.414,0,0,1,2.365-1.213,1.964,1.964,0,0,1,.97,0,6.42,6.42,0,0,1-.922.218,4.729,4.729,0,0,0-2.1,1.213,4.851,4.851,0,0,0-1.358,3.286,6.221,6.221,0,0,0,.291,2.122,4.608,4.608,0,0,0,1.079,1.952,1.067,1.067,0,0,0,1.673,0,5.165,5.165,0,0,0,.752-1.977c.388-1.382.728-2.631.922-3.638a6.827,6.827,0,0,0,.146-2.486C310.1,227.1,309.733,227.032,309.757,226.959Z" transform="translate(-158.547 -36.991)" fill="#eb996e"/>
      <path id="Path_4755" data-name="Path 4755" d="M330.274,229.061c.073,0-.073.752-.849,1.625a9.774,9.774,0,0,1-3.747,2.3,8.282,8.282,0,0,1-4.317.909c-1.213-.17-1.71-.74-1.661-.788a11.434,11.434,0,0,0,1.71.352,9.531,9.531,0,0,0,4.026-1.055,11.6,11.6,0,0,0,3.638-2.037C329.9,229.655,330.177,228.988,330.274,229.061Z" transform="translate(-155.383 -36.522)" fill="#eb996e"/>
      <path id="Path_4756" data-name="Path 4756" d="M329.113,237.55a5.135,5.135,0,0,1-1.443,1.213,10.779,10.779,0,0,1-4.329,1.528,10.658,10.658,0,0,1-4.584-.4,3.917,3.917,0,0,1-1.7-.837,17.935,17.935,0,0,0,6.2.606,17.534,17.534,0,0,0,5.857-2.11Z" transform="translate(-155.943 -34.716)" fill="#eb996e"/>
      <path id="Path_4757" data-name="Path 4757" d="M326.128,244.292a5.542,5.542,0,0,1-3.383,1.989,5.408,5.408,0,0,1-3.9-.158c0-.182,1.746,0,3.759-.461S326.006,244.147,326.128,244.292Z" transform="translate(-155.565 -33.286)" fill="#eb996e"/>
      <path id="Path_4758" data-name="Path 4758" d="M347.945,159.82a23.622,23.622,0,0,0-1.419,2.668,16.975,16.975,0,0,0-1.079,8.076,41.956,41.956,0,0,0,3.1,11.8c.825,2.158,1.7,4.438,2.425,6.875a28.329,28.329,0,0,1,1.322,7.749,20.469,20.469,0,0,1-1.528,7.736c-.922,2.425-2.061,4.535-3.056,6.621a37.07,37.07,0,0,0-2.425,6.063,15.765,15.765,0,0,0-.643,5.578,10.4,10.4,0,0,0,3.529,7.13,9.47,9.47,0,0,0,2.619,1.467,3,3,0,0,1-.776-.182,7.662,7.662,0,0,1-2-1.091,10.513,10.513,0,0,1-3.808-7.276,15.824,15.824,0,0,1,.57-5.772,37.113,37.113,0,0,1,2.425-6.172c.982-2.1,2.1-4.256,3-6.6A19.848,19.848,0,0,0,351.68,197c-.1-5.311-2.086-10.113-3.638-14.442a41.226,41.226,0,0,1-3.007-11.968,16.891,16.891,0,0,1,1.3-8.2,9.435,9.435,0,0,1,1.613-2.571Z" transform="translate(-150.184 -51.242)" fill="#263238"/>
      <path id="Path_4759" data-name="Path 4759" d="M358.658,156.59a4.294,4.294,0,0,1,.34.631,3.518,3.518,0,0,1,.327.812,6.063,6.063,0,0,1,.291,1.152,18.189,18.189,0,0,1-.727,7.457,50.34,50.34,0,0,0-1.055,5.044,12.83,12.83,0,0,0,.412,5.748c1.213,3.977,4.232,7.542,6.693,11.726a17.2,17.2,0,0,1,2.425,6.694,12.878,12.878,0,0,1-1.213,6.536c-1.722,3.868-4.062,6.9-4.85,9.943a10.453,10.453,0,0,0,.146,7.215,7.578,7.578,0,0,0,1.589,2.183,4.892,4.892,0,0,1-.57-.424,5.748,5.748,0,0,1-1.213-1.649,10.4,10.4,0,0,1-.352-7.445c.764-3.165,3.1-6.269,4.741-10.052a12.308,12.308,0,0,0,1.1-6.245,16.686,16.686,0,0,0-2.365-6.439c-2.425-4.111-5.493-7.724-6.706-11.871-.121-.521-.279-1.019-.364-1.54a13.385,13.385,0,0,1-.17-1.528,15.369,15.369,0,0,1,.158-2.922,49.727,49.727,0,0,1,1.14-5.069,19.025,19.025,0,0,0,.922-7.276,16.333,16.333,0,0,0-.7-2.68Z" transform="translate(-147.425 -51.928)" fill="#263238"/>
      <path id="Path_4760" data-name="Path 4760" d="M311.611,274.178l-3.88-98.123-62-1.055s.17,52.809-9.07,67.154c-10.065,15.642-17.91,20.917-17.91,20.917v10.913l7.276,4.293L223.358,398.7l97.008-2.061Z" transform="translate(-176.844 -48.014)" fill="#455a64"/>
      <path id="Path_4761" data-name="Path 4761" d="M318.249,343.294c0,.17-21.439.449-47.873.606s-47.885.158-47.885,0,21.427-.449,47.873-.618S318.249,343.112,318.249,343.294Z" transform="translate(-176.049 -12.265)" fill="#fff"/>
      <path id="Path_4762" data-name="Path 4762" d="M315.882,325.215c0,.17-20.735.315-46.321.315s-46.321-.146-46.321-.315,20.735-.315,46.321-.315S315.882,325.021,315.882,325.215Z" transform="translate(-175.889 -16.146)" fill="#fff"/>
      <path id="Path_4763" data-name="Path 4763" d="M315.366,310.725c0,.17-20.444.315-45.654.315s-45.642-.146-45.642-.315,20.432-.315,45.642-.315S315.366,310.556,315.366,310.725Z" transform="translate(-175.713 -19.227)" fill="#fff"/>
      <path id="Path_4764" data-name="Path 4764" d="M313.962,296.525c0,.17-19.741.315-44.09.315s-44.1-.146-44.1-.315,19.741-.315,44.1-.315S313.962,296.343,313.962,296.525Z" transform="translate(-175.351 -22.245)" fill="#fff"/>
      <path id="Path_4765" data-name="Path 4765" d="M311.96,279.475c0,.17-19.4.315-43.229.315s-43.241-.146-43.241-.315,19.4-.315,43.241-.315S311.96,279.306,311.96,279.475Z" transform="translate(-175.411 -25.87)" fill="#fff"/>
      <path id="Path_4766" data-name="Path 4766" d="M310.529,261.855c0,.182-18.965.315-42.368.315s-42.441-.133-42.441-.315,18.977-.315,42.441-.315S310.529,261.686,310.529,261.855Z" transform="translate(-175.362 -29.616)" fill="#fff"/>
      <path id="Path_4767" data-name="Path 4767" d="M311.122,244.525c0,.182-19.741.315-44.09.315s-44.1-.133-44.1-.315,19.741-.315,44.1-.315S311.122,244.356,311.122,244.525Z" transform="translate(-175.955 -33.3)" fill="#fff"/>
      <path id="Path_4768" data-name="Path 4768" d="M304.51,228.615c0,.182-15.655.315-34.959.315s-34.971-.133-34.971-.315,15.655-.315,34.971-.315S304.51,228.446,304.51,228.615Z" transform="translate(-173.478 -36.683)" fill="#fff"/>
      <path id="Path_4769" data-name="Path 4769" d="M305.206,212.425c0,.17-14.721.315-32.9.315s-32.9-.146-32.9-.315,14.733-.315,32.9-.315S305.206,212.255,305.206,212.425Z" transform="translate(-172.451 -40.125)" fill="#fff"/>
      <path id="Path_4770" data-name="Path 4770" d="M304.564,196.235c0,.17-14.272.315-31.867.315s-31.867-.146-31.867-.315,14.26-.315,31.867-.315S304.564,196.017,304.564,196.235Z" transform="translate(-172.15 -43.567)" fill="#fff"/>
      <path id="Path_4771" data-name="Path 4771" d="M303.529,182.637c0,.17-14.042.23-31.346.121s-31.334-.327-31.334-.5,14.03-.23,31.346-.133S303.529,182.468,303.529,182.637Z" transform="translate(-172.145 -46.509)" fill="#fff"/>
      <path id="Path_4772" data-name="Path 4772" d="M238.6,142.8l3.917,42.2h9.834l-7.336-43.084Z" transform="translate(-172.624 -55.049)" fill="#455a64"/>
      <path id="Path_4773" data-name="Path 4773" d="M288.4,147.275l-6.148-2.425s2.935,46.079,2.922,46.079l7.785.728Z" transform="translate(-163.344 -54.424)" fill="#455a64"/>
      <g id="Group_1130" data-name="Group 1130" transform="translate(44.853 190.911)" opacity="0.3">
        <path id="Path_4774" data-name="Path 4774" d="M282.707,248.286a8.209,8.209,0,0,0-3.1-5.432,23.671,23.671,0,0,0-5.566-3.189,188.855,188.855,0,0,0-19.2-7.736c-10.538-3.444-22.663-5.59-33.48-3.189,0,.23,0,4.96-.182,6.863,4.111,2.825,9.7,2.886,14.648,2.874s10.44.109,14.478,3.092c2.959,2.183,4.717,5.554,6.948,8.488s5.445,5.6,9.094,5.311c2.51-.194,4.766-1.795,7.276-1.94,2.025-.133,4.135.691,6.063,0A5.044,5.044,0,0,0,282.707,248.286Z" transform="translate(-221.18 -227.718)"/>
      </g>
      <g id="Group_1131" data-name="Group 1131" transform="translate(156.676 208.891)" opacity="0.8">
        <path id="Path_4775" data-name="Path 4775" d="M318.76,267.506s-9.155,7.179-3.541,16.1,15.521,8.488,29.794,2.546S366.148,269.495,367.979,263s-2.34-16.6-10.659-19.474c-6.439-2.231-15.461-.449-19.5,3.456s-12.271,13.254-13.617,14.915S318.76,267.506,318.76,267.506Z" transform="translate(-313.398 -242.546)" fill="#7d25f5"/>
      </g>
      <path id="Path_4776" data-name="Path 4776" d="M318.03,265.186s-9.155,7.179-3.541,16.1,15.521,8.488,29.793,2.546,21.136-16.661,22.967-23.161-2.34-16.6-10.659-19.474c-6.439-2.231-15.461-.449-19.5,3.456s-12.271,13.254-13.617,14.915S318.03,265.186,318.03,265.186Z" transform="translate(-156.877 -34.148)" fill="#7d25f5"/>
      <g id="Group_1132" data-name="Group 1132" transform="translate(155.791 206.078)" opacity="0.8">
        <path id="Path_4777" data-name="Path 4777" d="M318.03,265.186s-9.155,7.179-3.541,16.1,15.521,8.488,29.793,2.546,21.136-16.661,22.967-23.161-2.34-16.6-10.659-19.474c-6.439-2.231-15.461-.449-19.5,3.456s-12.271,13.254-13.617,14.915S318.03,265.186,318.03,265.186Z" transform="translate(-312.668 -240.226)" fill="#fff"/>
      </g>
      <path id="Path_4778" data-name="Path 4778" d="M323.235,264.013s-8.064-.825-8.682,4.341,2.765,9.895,10.052,11.265,23.464-5.141,24.773-6.269,2.631-1.77.23-3.019S327.479,263.2,323.235,264.013Z" transform="translate(-156.492 -29.107)" fill="#7d25f5"/>
      <path id="Path_4779" data-name="Path 4779" d="M326.864,259.079a2.28,2.28,0,0,1,1.213.691,1.722,1.722,0,0,1,0,1.77,3.371,3.371,0,0,1-2.3,1.722,3.444,3.444,0,0,1-2.8-.7,2.7,2.7,0,0,1-1.019-2.425,1.855,1.855,0,0,1,2.037-1.491Z" transform="translate(-154.907 -30.235)" fill="#7d25f5"/>
      <path id="Path_4780" data-name="Path 4780" d="M329.678,264.794c5.626,1.964,10.731,3.1,16.358,5.105a11.058,11.058,0,0,0,5.117.958,7.506,7.506,0,0,0,4.669-2.874,22.459,22.459,0,0,0,2.74-4.85,4.85,4.85,0,0,0,.582-3.868c-.57-1.3-2.11-1.819-3.48-2.171a43.654,43.654,0,0,0-12.611-1.734,18.843,18.843,0,0,0-11.75,4.317c-1.285,1.152-2.546,2.268-2.583,3.977C328.72,263.618,328.623,264.431,329.678,264.794Z" transform="translate(-153.465 -30.93)" fill="#7d25f5"/>
      <path id="Path_4781" data-name="Path 4781" d="M361.477,251.708a21.014,21.014,0,0,0-10.707-9.289,12.356,12.356,0,0,0-10.513.315c-5.736,2.947-8.828,7.494-13.011,12.393a5.408,5.408,0,0,0-1.443,2.486,3.432,3.432,0,0,0,2.728,3.638,6.512,6.512,0,0,0,4.717-1.031,17.91,17.91,0,0,0,5.311-5.275,15.847,15.847,0,0,1,2.922-3.638,4.026,4.026,0,0,1,4.341-.631c1.576.909,1.916,3,2.85,4.559a7.276,7.276,0,0,0,3.892,3.044,12.127,12.127,0,0,0,4.984.546c1.867-.145,3.953-.788,4.693-2.425a5.348,5.348,0,0,0-.764-4.693Z" transform="translate(-154.087 -33.899)" fill="#7d25f5"/>
      <path id="Path_4782" data-name="Path 4782" d="M344.044,251.849a4.3,4.3,0,0,0-.74-1.213,1.844,1.844,0,0,0-1.285-.606h.182a5.093,5.093,0,0,0-4.547,2.7,1.455,1.455,0,0,0-.158,1.31,1.552,1.552,0,0,0,1.079.691,9.082,9.082,0,0,0,4.038.158,2.292,2.292,0,0,0,1.516-.788A2.425,2.425,0,0,0,344.044,251.849Z" transform="translate(-151.618 -32.063)" fill="#7d25f5"/>
      <path id="Path_4783" data-name="Path 4783" d="M337.2,268.628a3.929,3.929,0,0,1-2.7-1.055l-7.93-7.36L274.3,246.438l.618-2.34,52.845,13.921,8.379,7.773a1.552,1.552,0,0,0,2.425-.352l3.2-5.457a1.615,1.615,0,0,0-1.213-2.352L329.049,256.5,274.809,242.06l.618-2.34,54.142,14.418,11.217,1.079a3.989,3.989,0,0,1,3.056,5.99l-3.2,5.457a4.014,4.014,0,0,1-2.862,1.928A4.693,4.693,0,0,1,337.2,268.628Z" transform="translate(-165.034 -34.255)" fill="#263238"/>
      <path id="Path_4784" data-name="Path 4784" d="M277.6,230.873,248.825,222.3l-6.245,14.551,15.364,8.124,1.6,1.916.3,1.734-1.394.9a1.722,1.722,0,0,0-1.71,1.576v.558s2.5,1.661,4.159,1.564a9.409,9.409,0,0,0,2.959-.643l2.219-2.777s3.517.376,4.535-1.213l5.469.133-.9,4.426s.424,4.135,3.638,4.5l3.274-8.961.352-6.924S279.128,231.455,277.6,230.873Z" transform="translate(-171.778 -37.958)" fill="#ffbe9d"/>
      <path id="Path_4785" data-name="Path 4785" d="M259.84,237.861c0-.061.5.255,1.055.922a8.209,8.209,0,0,1,1.5,3.031,8.076,8.076,0,0,1,.17,3.383c-.145.861-.388,1.346-.461,1.322a19.921,19.921,0,0,0-.315-4.547,18.856,18.856,0,0,0-1.952-4.111Z" transform="translate(-168.108 -34.652)" fill="#eb996e"/>
      <path id="Path_4786" data-name="Path 4786" d="M264.241,235.333a1.941,1.941,0,0,1,1.831.424,3.516,3.516,0,0,1,1.213,1.746,7.481,7.481,0,0,1,.255,2.522,16.177,16.177,0,0,1-.7,4.438c-.388,1.116-.861,1.673-.922,1.637a13.7,13.7,0,0,1,.485-1.758,23.584,23.584,0,0,0,.509-4.341,7.505,7.505,0,0,0-.182-2.328,3.262,3.262,0,0,0-.934-1.564,3.808,3.808,0,0,0-1.552-.776Z" transform="translate(-167.173 -35.204)" fill="#eb996e"/>
      <path id="Path_4787" data-name="Path 4787" d="M268.65,232.3a5.784,5.784,0,0,1,1.431,1.758,20.989,20.989,0,0,1,1.213,2.11,3.843,3.843,0,0,1,.534,1.443,7.147,7.147,0,0,1,0,1.613,28.387,28.387,0,0,1-1.528,7.554c-.182,0,.473-3.407.9-7.615a6.827,6.827,0,0,0,0-1.479,3.636,3.636,0,0,0-.449-1.213c-.4-.812-.8-1.54-1.128-2.146A12.833,12.833,0,0,1,268.65,232.3Z" transform="translate(-166.235 -35.833)" fill="#eb996e"/>
      <path id="Path_4788" data-name="Path 4788" d="M191.09,232.622s-11.447-7.554-4.85-21.681,8.937-17.17,8.937-17.17l24.009,12.781-2.28,4.535,47.776,18.65-9.7,13.229S212.14,242.965,191.09,232.622Z" transform="translate(-184.191 -44.024)" fill="#ffbe9d"/>
      <path id="Path_4789" data-name="Path 4789" d="M214.326,208.262a56.543,56.543,0,0,0-9.422-.376,56.2,56.2,0,0,0-9.264,1.855,8.913,8.913,0,0,1,2.571-1.14,27.258,27.258,0,0,1,6.633-1.346,27.745,27.745,0,0,1,6.778.291A8.864,8.864,0,0,1,214.326,208.262Z" transform="translate(-181.757 -41.176)" fill="#eb996e"/>
    </g>
    <g id="freepik--speech-bubble--inject-52" transform="translate(373.064 91.312)">
      <path id="Path_4790" data-name="Path 4790" d="M308.69,134.936l6.524-11.5a30.824,30.824,0,1,1,7.385,8.209h0Z" transform="translate(-308.69 -76.439)" fill="#fafafa"/>
      <path id="Path_4791" data-name="Path 4791" d="M308.69,134.924l13.933-3.177h.146l-.085-.121h0l-.133.133a31.587,31.587,0,0,0,6.33,3.82A30.739,30.739,0,0,0,337.307,138a26.812,26.812,0,0,0,4.85.243,16.45,16.45,0,0,0,2.546-.133l2.6-.388a31.091,31.091,0,0,0,19.232-12.344,31.187,31.187,0,0,0-1.685-38.294l-1.213-1.382a11.453,11.453,0,0,0-1.358-1.213,16.645,16.645,0,0,0-1.394-1.213l-1.467-1.1a12.305,12.305,0,0,0-1.528-1.006l-1.564-.958-1.637-.788a11.753,11.753,0,0,0-1.649-.728,31.273,31.273,0,0,0-13.787-2.122,30.472,30.472,0,0,0-12.659,3.735,31.139,31.139,0,0,0-9.349,7.991,31.528,31.528,0,0,0-5.251,9.98,33.42,33.42,0,0,0-1.334,10,30.85,30.85,0,0,0,1.5,8.634,31.735,31.735,0,0,0,3.092,6.621v-.1L308.8,134.985l6.609-11.447h0a30.616,30.616,0,0,1-3.031-6.6,30.024,30.024,0,0,1-1.455-8.573,32.863,32.863,0,0,1,1.358-9.907,30.994,30.994,0,0,1,14.369-17.91,30.049,30.049,0,0,1,12.514-3.638,31.091,31.091,0,0,1,13.63,2.1,14.818,14.818,0,0,1,1.625.728l1.613.788,1.54.934a14.188,14.188,0,0,1,1.516.994l1.455,1.091c.5.352.909.812,1.37,1.213s.934.8,1.346,1.213l1.213,1.37a30.048,30.048,0,0,1,6.512,12.49,30.933,30.933,0,0,1,.376,13.52,30.743,30.743,0,0,1-24.119,24l-2.583.4c-.849.073-1.686.1-2.522.146a27.467,27.467,0,0,1-4.85-.23,30.618,30.618,0,0,1-8.331-2.352,31.963,31.963,0,0,1-6.305-3.747l-.57-.437.436.57h0v-.158Z" transform="translate(-308.69 -76.427)" fill="#263238"/>
      <path id="Path_4792" data-name="Path 4792" d="M342.52,101.385a3.007,3.007,0,1,0,3.007-3,3.007,3.007,0,0,0-3.007,3Z" transform="translate(-301.498 -71.772)" fill="#263238"/>
      <path id="Path_4793" data-name="Path 4793" d="M332.6,101.385a3.007,3.007,0,1,0,3.007-3,3.007,3.007,0,0,0-3.007,3Z" transform="translate(-303.607 -71.772)" fill="#263238"/>
      <path id="Path_4794" data-name="Path 4794" d="M322.781,99.883a3.007,3.007,0,1,0,4.111-1.091A3.007,3.007,0,0,0,322.781,99.883Z" transform="translate(-305.781 -71.773)" fill="#263238"/>
    </g>
    <g id="freepik--Barbecue--inject-52" transform="translate(389.931 231.326)">
      <path id="Path_4795" data-name="Path 4795" d="M413.6,489.213l8.234-1.88L411.8,343.046l-4.074-2.11-1.613,2.9,3.771,73.2H359.135l13.181-79.219h-5.287L338.06,500.175l7.154.534L358.359,421.7h51.766Z" transform="translate(-319.313 -160.885)" fill="#e0e0e0"/>
      <path id="Path_4796" data-name="Path 4796" d="M413.652,489.266c-.073-1.346-1.358-24.967-3.638-67.505l.182.17H358.43l.218-.17c-3.9,23.585-8.318,50.141-13.1,79.013v.255H345.3l-7.142-.534h-.315v-.315c8.6-48.2,18.444-103.447,28.86-161.882l.073-.473v-.255h5.93l-.061.364c-4.535,27.259-8.961,53.779-13.193,79.219l-.3-.364h50.747l-.291.315c-1.334-26.107-2.583-50.65-3.735-73.2v-.146l1.613-2.886.121-.218.218.121,4.062,2.1.133.061v.146c4.972,72.816,8.488,125.091,9.846,144.3v.061h0l-8.246,1.807,8.221-1.94v.073c-1.37-19.22-5.081-71.483-10.234-144.3l.133.206-4.062-2.1.34-.1c-.521.934-1.043,1.88-1.613,2.886v-.133c1.213,22.554,2.425,47.085,3.8,73.192v.315H358.818l.061-.364,13.181-79.219.3.376h-5.226l.315-.267-.085.473c-10.44,58.435-20.311,113.669-28.92,161.882l-.255-.34,7.154.546-.3.23c4.85-28.86,9.264-55.416,13.193-79v-.194h52.13v.291C412.427,464.3,413.579,487.92,413.652,489.266Z" transform="translate(-319.36 -160.938)" fill="#263238"/>
      <path id="Path_4797" data-name="Path 4797" d="M413.817,337.82,442.7,502.806h-5.408L409.33,338.014Z" transform="translate(-304.161 -160.885)" fill="#e0e0e0"/>
      <path id="Path_4798" data-name="Path 4798" d="M413.787,337.829l-1.116.073-3.359.194.061-.085c2.983,16.722,14.551,84.106,28.205,164.743l-.315-.255h5.408l-.3.364C434.4,457.1,427.234,415.9,422.044,386.1c-2.571-14.9-4.644-26.956-6.063-35.3-.715-4.159-1.213-7.385-1.637-9.6-.182-1.079-.315-1.916-.412-2.51s-.133-.861-.133-.861.061.267.17.812.255,1.394.461,2.425c.388,2.195.97,5.408,1.71,9.531l6.257,35.165c5.263,29.83,12.526,71.095,20.614,116.931l.061.376h-6.063V502.8c-13.678-80.65-25-148.058-27.708-164.828V337.9h.073l3.407-.121C413.483,337.816,413.787,337.829,413.787,337.829Z" transform="translate(-304.168 -160.893)" fill="#263238"/>
      <path id="Path_4799" data-name="Path 4799" d="M386.724,340.631l-1.043,161.688H380.03l2.425-162.209Z" transform="translate(-310.391 -160.398)" fill="#e0e0e0"/>
      <path id="Path_4800" data-name="Path 4800" d="M386.8,340.655l-1.079-.1-3.2-.352.085-.073c-.109,16.419-.994,82.808-2.183,162.209l-.315-.315h5.651l-.315.315c.34-44.866.643-85.246.861-114.421.133-14.551.243-26.4.315-34.559,0-4.074.085-7.276.109-9.4v9.3c0,8.149-.073,19.911-.121,34.486-.158,29.236-.376,69.676-.618,114.639v.315H379.69v-.327c1.213-79.4,2.28-145.778,2.668-162.2V340h.133l3.225.437Z" transform="translate(-310.463 -160.421)" fill="#263238"/>
      <path id="Path_4801" data-name="Path 4801" d="M394.061,239.614c-12.55,38.8-4.317,69.421,21.827,79.037s57.526-10.4,70.2-44.733,1.77-69.979-24.325-79.607S405.338,204.789,394.061,239.614Z" transform="translate(-308.633 -191.906)" fill="#7d25f5"/>
      <g id="Group_1133" data-name="Group 1133" transform="translate(85.741 7.617)" opacity="0.3">
        <path id="Path_4802" data-name="Path 4802" d="M398.4,240.268c-11.083,34.2-3.82,61.224,19.208,69.712s50.735-9.167,61.842-39.458,1.564-61.709-21.451-70.209S408.334,209.553,398.4,240.268Z" transform="translate(-393.308 -198.187)"/>
      </g>
      <path id="Path_4803" data-name="Path 4803" d="M468.742,302.169s-9.786,49.874-70.634,49.874S328.99,299.21,328.99,299.21H468.742Z" transform="translate(-321.241 -169.093)" fill="#263238"/>
      <rect id="Rectangle_17219" data-name="Rectangle 17219" width="154.339" height="9.204" rx="3.79" transform="translate(154.339 133.076) rotate(180)" fill="#263238"/>
      <path id="Path_4804" data-name="Path 4804" d="M473.367,301.605c0,.182-32.825.315-73.314.315s-73.314-.133-73.314-.315,32.825-.315,73.314-.315S473.367,301.436,473.367,301.605Z" transform="translate(-321.72 -168.651)" fill="#455a64"/>
      <path id="Path_4805" data-name="Path 4805" d="M443.571,310.44a3.009,3.009,0,0,1-.327.667c-.255.424-.594,1.079-1.1,1.855a54.846,54.846,0,0,1-4.656,6.415,61.612,61.612,0,0,1-45.751,22.2,56.628,56.628,0,0,1-7.918-.315c-.934-.085-1.649-.218-2.134-.291a3.167,3.167,0,0,1-.74-.146,3.227,3.227,0,0,1,.752,0c.5,0,1.213.121,2.134.17a65.35,65.35,0,0,0,7.882.109,64.195,64.195,0,0,0,50.226-28.3c.546-.752.909-1.382,1.213-1.783a3.4,3.4,0,0,1,.424-.582Z" transform="translate(-310.197 -166.706)" fill="#455a64"/>
      <path id="Path_4806" data-name="Path 4806" d="M332.17,462.762c0,7.276,1.382,14.672,5.432,17.122h5.275c5.917,0,10.719-7.664,10.719-17.122s-4.85-17.158-10.719-17.122l-5.517.073C333.892,448.5,332.17,456.1,332.17,462.762Z" transform="translate(-320.565 -137.962)" fill="#263238"/>
      <ellipse id="Ellipse_268" data-name="Ellipse 268" cx="10.719" cy="17.122" rx="10.719" ry="17.122" transform="translate(7.142 307.678)" fill="#455a64"/>
      <path id="Path_4807" data-name="Path 4807" d="M395.5,463c0,7.276,1.382,14.672,5.432,17.122h5.3c5.917,0,10.719-7.664,10.719-17.122s-4.85-17.158-10.719-17.122c-.8,0-5.529.085-5.529.085C397.234,448.73,395.5,456.284,395.5,463Z" transform="translate(-307.102 -137.911)" fill="#263238"/>
      <ellipse id="Ellipse_269" data-name="Ellipse 269" cx="10.719" cy="17.122" rx="10.719" ry="17.122" transform="translate(83.948 307.908)" fill="#455a64"/>
    </g>
    <g id="freepik--Table--inject-52" transform="translate(76.269 356.974)">
      <path id="Path_4808" data-name="Path 4808" d="M83.67,348.33,201.352,500.693h6.39L90.23,347.76H83.1" transform="translate(-59.855 -284.419)" fill="#263238"/>
      <path id="Path_4809" data-name="Path 4809" d="M207.173,348.33,89.49,500.693H83.1L200.613,347.76h7.13" transform="translate(-59.855 -284.419)" fill="#263238"/>
      <rect id="Rectangle_17220" data-name="Rectangle 17220" width="65.941" height="6.136" transform="translate(52.408 92.019)" fill="#263238"/>
      <rect id="Rectangle_17221" data-name="Rectangle 17221" width="167.375" height="13.375" transform="translate(0 50.864)" fill="#455a64"/>
      <circle id="Ellipse_270" data-name="Ellipse 270" cx="8.27" cy="8.27" r="8.27" transform="translate(62.837 11.503)" fill="#f5f5f5"/>
      <path id="Path_4810" data-name="Path 4810" d="M145.58,313.168a8.27,8.27,0,1,1-8.27-8.258,8.27,8.27,0,0,1,8.27,8.258Z" transform="translate(-50.088 -293.529)" fill="#f5f5f5"/>
      <path id="Path_4811" data-name="Path 4811" d="M118.98,313.168a8.27,8.27,0,1,1-8.258-8.258A8.27,8.27,0,0,1,118.98,313.168Z" transform="translate(-55.743 -293.529)" fill="#f5f5f5"/>
      <path id="Path_4812" data-name="Path 4812" d="M100.21,313.19h53.985s-.558,22.263-15.048,24.979l-.23,4.729H114.664v-4.85S100.21,334.4,100.21,313.19Z" transform="translate(-56.217 -291.768)" fill="#7d25f5"/>
      <path id="Path_4813" data-name="Path 4813" d="M136.636,333.813c0,.085-5.517.146-12.308.146s-12.308-.061-12.308-.146,5.505-.133,12.308-.133S136.636,333.741,136.636,333.813Z" transform="translate(-53.706 -287.412)" fill="#fff"/>
      <path id="Path_4814" data-name="Path 4814" d="M151.676,324.1h-.34l-1.019.1A13.932,13.932,0,0,1,146.4,324a7.931,7.931,0,0,1-2.643-1.055,6.063,6.063,0,0,1-2.243-2.522,4.51,4.51,0,0,1-.376-1.867,3.213,3.213,0,0,1,.691-1.892,2.3,2.3,0,0,1,.837-.679,2.013,2.013,0,0,1,1.1-.146,2.656,2.656,0,0,1,1.843,1.407,3.638,3.638,0,0,1,.315,2.34,6.766,6.766,0,0,1-.934,2.28,8.136,8.136,0,0,1-4.026,3.25,7.736,7.736,0,0,1-5.517,0,7.967,7.967,0,0,1-2.5-1.528,5.53,5.53,0,0,1-1.71-2.425,2.9,2.9,0,0,1,0-1.576,2.086,2.086,0,0,1,.994-1.213,2.559,2.559,0,0,1,3,.679,5.59,5.59,0,0,1,1.213,2.971,8.815,8.815,0,0,1-.1,3.286,9.7,9.7,0,0,1-3.492,5.663,8.816,8.816,0,0,1-3.1,1.516,9.6,9.6,0,0,1-3.48.23,9.192,9.192,0,0,1-6.063-3.141,6.512,6.512,0,0,1-1.491-3.056,4.45,4.45,0,0,1,.691-3.274,3.335,3.335,0,0,1,2.85-1.564A3.128,3.128,0,0,1,125,323.314a2.353,2.353,0,0,1,.109,1.625,3.116,3.116,0,0,1-.861,1.37,6.062,6.062,0,0,1-2.728,1.431,11.3,11.3,0,0,1-10.744-2.68,6.294,6.294,0,0,1-1.455-2.231,4.45,4.45,0,0,1-.146-2.571,3.638,3.638,0,0,1,1.334-2.074,3.146,3.146,0,0,1,4.353,4.45,4.777,4.777,0,0,1-1.419,1.212,11.228,11.228,0,0,1-3.165,1.213,20.8,20.8,0,0,1-2.813.461,19.265,19.265,0,0,1-3.917,0,12.3,12.3,0,0,1-1.358-.206h.34l1.019.121a20.25,20.25,0,0,0,3.917,0,20.984,20.984,0,0,0,2.777-.485,10.914,10.914,0,0,0,3.116-1.213,4.644,4.644,0,0,0,1.37-1.213,3.031,3.031,0,0,0-.109-3.711,2.886,2.886,0,0,0-1.855-1.006,2.935,2.935,0,0,0-2.134.521,3.347,3.347,0,0,0-1.213,1.964,4.1,4.1,0,0,0,.145,2.425,5.941,5.941,0,0,0,1.407,2.158,11.071,11.071,0,0,0,10.392,2.559,5.833,5.833,0,0,0,2.619-1.382,2.886,2.886,0,0,0,.788-1.213,2.122,2.122,0,0,0-.109-1.443,2.862,2.862,0,0,0-2.425-1.6,2.776,2.776,0,0,0-1.479.376,3.553,3.553,0,0,0-1.128,1.079,4.135,4.135,0,0,0-.643,3.068,6.221,6.221,0,0,0,1.419,2.922,8.925,8.925,0,0,0,5.881,3.044,9.7,9.7,0,0,0,3.4-.23,8.318,8.318,0,0,0,3-1.467,9.349,9.349,0,0,0,3.4-5.481,8.828,8.828,0,0,0,.1-3.189,5.42,5.42,0,0,0-1.213-2.837,2.3,2.3,0,0,0-2.68-.631,1.8,1.8,0,0,0-.861,1.1,2.425,2.425,0,0,0,0,1.419,5.36,5.36,0,0,0,1.625,2.425,7.809,7.809,0,0,0,2.425,1.479,7.47,7.47,0,0,0,5.348.073,7.966,7.966,0,0,0,3.917-3.141,6.706,6.706,0,0,0,.909-2.207,3.42,3.42,0,0,0-.279-2.207,2.425,2.425,0,0,0-1.673-1.213,1.746,1.746,0,0,0-.994.121,2.146,2.146,0,0,0-.776.618,3.1,3.1,0,0,0-.655,1.795,4.426,4.426,0,0,0,.352,1.795,5.954,5.954,0,0,0,2.171,2.425,7.759,7.759,0,0,0,2.595,1.055,13.667,13.667,0,0,0,3.892.243h1.019Z" transform="translate(-55.796 -291.209)" fill="#fff"/>
      <path id="Path_4815" data-name="Path 4815" d="M158.824,295.944c-.243.061,1.552,9.034,1.552,9.034h4.572l2.013-8.67a14.406,14.406,0,0,0-8.137-.364Z" transform="translate(-43.761 -295.524)" fill="#455a64"/>
      <path id="Path_4816" data-name="Path 4816" d="M157.58,345.828s-6.73-18.844-5.784-23.961,2.959-6.2,4.571-7.809,2.959-2.959,3.371-4.571,0-8.076,0-8.076-1.213-1.892-.812-2.559,10.368,0,10.368,0a4.523,4.523,0,0,1-.812,2.292s-.267,7.53.133,8.343,6.6,7.664,7.542,11.168-3.723,25.174-3.723,25.174Z" transform="translate(-45.269 -294.88)" fill="#f5f5f5"/>
      <path id="Path_4817" data-name="Path 4817" d="M157.625,345.832h14.854l-.085.073c.57-2.74,1.213-5.845,1.819-9.264s1.285-7.142,1.746-11.144c.109-.994.206-2.013.23-3.044a8.028,8.028,0,0,0-.1-1.528,7.275,7.275,0,0,0-.546-1.455,35.334,35.334,0,0,0-3.638-5.432c-.679-.885-1.382-1.77-2.1-2.656-.352-.449-.715-.885-1.067-1.346l-.255-.376a1.8,1.8,0,0,1-.109-.461,7.537,7.537,0,0,1-.085-.885c-.1-2.328,0-4.681,0-7.082h0a4.43,4.43,0,0,0,.315-.534,4.62,4.62,0,0,0,.473-1.673l.133.145c-2.268-.145-4.511-.267-6.718-.3a21.748,21.748,0,0,0-3.226.133.874.874,0,0,0-.279.1.521.521,0,0,0-.073.291,2.644,2.644,0,0,0,.17.728,8.294,8.294,0,0,0,.691,1.394h0c.1,1.722.17,3.42.182,5.081a24.252,24.252,0,0,1-.1,2.486,4.935,4.935,0,0,1-.9,2.28,14.139,14.139,0,0,1-1.54,1.831c-.546.558-1.079,1.116-1.649,1.637a16.253,16.253,0,0,0-1.588,1.576,8.78,8.78,0,0,0-1.213,1.807,14.552,14.552,0,0,0-1.213,3.977,9.787,9.787,0,0,0,0,1.977,12.529,12.529,0,0,0,.23,1.916c.4,2.5.97,4.778,1.5,6.839,1.1,4.123,2.158,7.36,2.874,9.58.352,1.1.643,1.964.837,2.559a6.1,6.1,0,0,0,.218.655,1.482,1.482,0,0,1,.061.23l-.085-.218-.243-.655c-.206-.57-.509-1.431-.885-2.534-.74-2.219-1.819-5.457-2.947-9.567-.546-2.061-1.14-4.341-1.552-6.851-.085-.631-.182-1.273-.23-1.94a9.445,9.445,0,0,1,0-2.025,14.77,14.77,0,0,1,1.213-4.05,9.7,9.7,0,0,1,1.213-1.867,18.268,18.268,0,0,1,1.613-1.6c.558-.509,1.091-1.067,1.637-1.625a14.371,14.371,0,0,0,1.5-1.795,4.693,4.693,0,0,0,.849-2.171,23.4,23.4,0,0,0,.085-2.425c0-1.661-.085-3.347-.182-5.057v.061a8.489,8.489,0,0,1-.728-1.443,2.279,2.279,0,0,1-.182-.825.752.752,0,0,1,.121-.461.9.9,0,0,1,.449-.206,21.44,21.44,0,0,1,3.3-.133c2.207,0,4.45.146,6.73.291h.133v.133a4.693,4.693,0,0,1-.509,1.807,6.144,6.144,0,0,1-.327.558v-.073c-.073,2.425-.133,4.753,0,7.057a3.351,3.351,0,0,0,.073.849,1.563,1.563,0,0,0,.085.376l.23.34c.34.449.7.9,1.055,1.346.715.885,1.419,1.77,2.1,2.656a34.763,34.763,0,0,1,3.638,5.481,8.489,8.489,0,0,1,.57,1.516,8.938,8.938,0,0,1,.1,1.6,28.292,28.292,0,0,1-.243,3.068c-.461,4.014-1.14,7.736-1.77,11.156s-1.285,6.512-1.867,9.252v.073H157.54Z" transform="translate(-45.314 -294.883)" fill="#263238"/>
      <path id="Path_4818" data-name="Path 4818" d="M170.769,339.816a106.705,106.705,0,0,0,3.371-19.232,2.425,2.425,0,0,0-.5-2.086c-.691-.606-1.734-.279-2.607,0a15.764,15.764,0,0,1-7.894.424c-2.546-.521-5.081-1.7-7.651-1.213a2.425,2.425,0,0,0-1.685.885,3.019,3.019,0,0,0-.194,2.171,150.744,150.744,0,0,0,4.753,19.111Z" transform="translate(-44.889 -290.832)" fill="#7d25f5"/>
      <path id="Path_4819" data-name="Path 4819" d="M172.068,319a2.545,2.545,0,0,1-.485.521,10.6,10.6,0,0,1-1.516,1.213,13.605,13.605,0,0,1-12.381,1.552,12.658,12.658,0,0,1-1.783-.8,2.243,2.243,0,0,1-.594-.4,16.441,16.441,0,0,0,2.425,1.019,14.066,14.066,0,0,0,12.126-1.54C171.328,319.668,172.032,318.928,172.068,319Z" transform="translate(-44.503 -290.534)" fill="#fff"/>
    </g>
  </g>
</svg>
