<svg xmlns="http://www.w3.org/2000/svg" xmlns:xlink="http://www.w3.org/1999/xlink" width="490.489" height="333.285" viewBox="0 0 490.489 333.285">
  <defs>
    <linearGradient id="linear-gradient" x1="0.5" x2="0.5" y2="1" gradientUnits="objectBoundingBox">
      <stop offset="0" stop-color="#297ba4"/>
      <stop offset="1" stop-color="#2f5f71"/>
    </linearGradient>
    <clipPath id="clip-path">
      <rect width="84" height="18" fill="none"/>
    </clipPath>
    <clipPath id="clip-path-2">
      <rect width="14" height="32" fill="none"/>
    </clipPath>
  </defs>
  <g id="Group_2292" data-name="Group 2292" transform="translate(-1312 -345.214)">
    <g id="credit-card-svgrepo-com_1_" data-name="credit-card-svgrepo-com (1)" transform="translate(1312 344.013)">
      <g id="Group_2286" data-name="Group 2286" transform="translate(0 1.201)">
        <path id="Path_4866" data-name="Path 4866" d="M490.489,16.89V318.908a15.74,15.74,0,0,1-15.67,15.67H15.669A15.739,15.739,0,0,1,0,318.908V16.89a15.677,15.677,0,0,1,15.669-15.6h459.15A15.678,15.678,0,0,1,490.489,16.89Z" transform="translate(0 -1.293)" fill="url(#linear-gradient)"/>
        <g id="Group_2269" data-name="Group 2269" transform="translate(294.875 287.298)">
          <path id="Path_4891" data-name="Path 4891" d="M322.749,308.149a8.328,8.328,0,0,0-1.676-2.405,6.569,6.569,0,0,0-2.478-1.457,8.3,8.3,0,0,0-2.988-.511,8.039,8.039,0,0,0-2.988.511,6.583,6.583,0,0,0-2.478,1.457,7.323,7.323,0,0,0-1.749,2.405,8.977,8.977,0,0,0-.583,3.206v10.786a9.068,9.068,0,0,0,.583,3.28,7.31,7.31,0,0,0,1.749,2.4,6.557,6.557,0,0,0,2.478,1.457,8.039,8.039,0,0,0,2.988.511,8.3,8.3,0,0,0,2.988-.511,6.557,6.557,0,0,0,2.478-1.457,8.329,8.329,0,0,0,1.676-2.4,7.747,7.747,0,0,0,.583-3.28V311.356A7.622,7.622,0,0,0,322.749,308.149Zm-4.081,13.993a3.953,3.953,0,0,1-.8,2.551,3.357,3.357,0,0,1-4.518,0,3.613,3.613,0,0,1-.875-2.551V311.429a3.74,3.74,0,0,1,.875-2.551,3.354,3.354,0,0,1,4.518,0,4.1,4.1,0,0,1,.8,2.551Z" transform="translate(-307.807 -301.3)" fill="#cececf"/>
          <path id="Path_4892" data-name="Path 4892" d="M344.492,317.415a6.368,6.368,0,0,0-1.895-3.28,5.369,5.369,0,0,0-1.968-1.24,6.839,6.839,0,0,0-2.842-.51,5.681,5.681,0,0,0-2.259.437,3.02,3.02,0,0,0-1.53.876v-5.539h10.349V304H329.7v14.43H334a3.384,3.384,0,0,1,.947-1.384,3.141,3.141,0,0,1,2.186-.728,2.667,2.667,0,0,1,2.4,1.24,7.124,7.124,0,0,1,.656,3.425,10.344,10.344,0,0,1-.146,2.187,3.691,3.691,0,0,1-.8,1.6,2.975,2.975,0,0,1-2.259.8,2.618,2.618,0,0,1-2.186-.8,4.273,4.273,0,0,1-.947-2.333h-4.664a12.294,12.294,0,0,0,.511,2.77,6.487,6.487,0,0,0,1.6,2.55,8.038,8.038,0,0,0,2.259,1.457,10.346,10.346,0,0,0,6.851,0,8.739,8.739,0,0,0,2.259-1.53,6.79,6.79,0,0,0,1.822-2.987,14.078,14.078,0,0,0,.437-3.717A14.59,14.59,0,0,0,344.492,317.415Z" transform="translate(-308.705 -301.309)" fill="#cececf"/>
          <path id="Path_4893" data-name="Path 4893" d="M358.633,301.191l-10.276,30.975h4.372l10.276-30.975Z" transform="translate(-309.511 -301.191)" fill="#cececf"/>
          <path id="Path_4894" data-name="Path 4894" d="M373.537,304l-5.247,4.52v5.028l5.247-4.519v20.552H378.2V304h-4.664Z" transform="translate(-310.348 -301.309)" fill="#cececf"/>
          <path id="Path_4895" data-name="Path 4895" d="M394.839,304l-5.248,4.52v5.028l5.248-4.519v20.552H399.5V304h-4.664Z" transform="translate(-311.243 -301.309)" fill="#cececf"/>
          <path id="Path_4896" data-name="Path 4896" d="M409.3,317.7v4.372h11.077V317.7Z" transform="translate(-312.071 -301.885)" fill="#cececf"/>
          <path id="Path_4897" data-name="Path 4897" d="M441.05,308.149a7.308,7.308,0,0,0-1.749-2.405,6.045,6.045,0,0,0-2.477-1.457,7.916,7.916,0,0,0-2.915-.511,8.039,8.039,0,0,0-2.988.511,6.582,6.582,0,0,0-2.478,1.457,7.323,7.323,0,0,0-1.749,2.405,7.631,7.631,0,0,0-.583,3.206v10.786a7.747,7.747,0,0,0,.583,3.28,7.3,7.3,0,0,0,1.749,2.4,6.557,6.557,0,0,0,2.478,1.457,8.039,8.039,0,0,0,2.988.511,7.917,7.917,0,0,0,2.915-.511,6.035,6.035,0,0,0,2.477-1.457,7.3,7.3,0,0,0,1.749-2.4,9.088,9.088,0,0,0,.582-3.28V311.356A8.984,8.984,0,0,0,441.05,308.149Zm-4.082,13.993a3.617,3.617,0,0,1-.875,2.551,2.855,2.855,0,0,1-2.186.874,2.911,2.911,0,0,1-2.259-.874,3.613,3.613,0,0,1-.875-2.551V311.429a3.74,3.74,0,0,1,.875-2.551,2.913,2.913,0,0,1,2.259-.875,2.855,2.855,0,0,1,2.186.875,3.738,3.738,0,0,1,.875,2.551Z" transform="translate(-312.777 -301.3)" fill="#cececf"/>
          <path id="Path_4898" data-name="Path 4898" d="M462.351,308.149a8.328,8.328,0,0,0-1.676-2.405,6.565,6.565,0,0,0-2.477-1.457,8.3,8.3,0,0,0-2.989-.511,8.039,8.039,0,0,0-2.988.511,6.582,6.582,0,0,0-2.478,1.457,7.337,7.337,0,0,0-1.749,2.405,8.976,8.976,0,0,0-.582,3.206v10.786a9.088,9.088,0,0,0,.582,3.28,7.3,7.3,0,0,0,1.749,2.4,6.557,6.557,0,0,0,2.478,1.457,8.039,8.039,0,0,0,2.988.511,8.312,8.312,0,0,0,2.989-.511,6.546,6.546,0,0,0,2.477-1.457,8.31,8.31,0,0,0,1.676-2.4,7.762,7.762,0,0,0,.582-3.28V311.356A7.607,7.607,0,0,0,462.351,308.149Zm-4.081,13.993a3.958,3.958,0,0,1-.8,2.551,3.357,3.357,0,0,1-4.518,0,3.618,3.618,0,0,1-.875-2.551V311.429a3.745,3.745,0,0,1,.875-2.551,3.354,3.354,0,0,1,4.518,0,4.1,4.1,0,0,1,.8,2.551Z" transform="translate(-313.672 -301.3)" fill="#cececf"/>
        </g>
        <g id="Group_2271" data-name="Group 2271" transform="translate(334.451 151.959)">
          <path id="Path_4910" data-name="Path 4910" d="M355.532,170.628a2.05,2.05,0,0,1-1.53.511,2.005,2.005,0,0,1-.947-.219,2.419,2.419,0,0,1-.729-.438,3.21,3.21,0,0,1-.291-.51,3.41,3.41,0,0,1-.218-.655c0-.292-.073-.656-.073-1.021,0-.437-.073-.947-.073-1.6s.073-1.166.073-1.6.073-.729.073-1.019a3.376,3.376,0,0,1,.218-.656,3.182,3.182,0,0,1,.291-.511,2.627,2.627,0,0,1,.729-.51,3.692,3.692,0,0,1,.947-.145,2.05,2.05,0,0,1,1.53.51,2.816,2.816,0,0,1,.729,1.384h2.624a4.9,4.9,0,0,0-1.676-3.206,5.526,5.526,0,0,0-5.174-.655,5.428,5.428,0,0,0-1.6,1.019,4.814,4.814,0,0,0-.729,1.093,2.785,2.785,0,0,0-.437,1.166,8.086,8.086,0,0,0-.146,1.384v3.5a8.073,8.073,0,0,0,.146,1.385,3.221,3.221,0,0,0,.437,1.166,4.717,4.717,0,0,0,.729,1.092,5.414,5.414,0,0,0,1.6,1.021,5.27,5.27,0,0,0,1.968.364,4.886,4.886,0,0,0,3.206-1.093,4.72,4.72,0,0,0,1.676-3.134h-2.624A2.82,2.82,0,0,1,355.532,170.628Z" transform="translate(-349.119 -159.916)" fill="#cececf"/>
          <path id="Path_4911" data-name="Path 4911" d="M369.273,167.571a2.262,2.262,0,0,0,.947-.438,3.828,3.828,0,0,0,.8-.729,4.457,4.457,0,0,0,.511-1.02,2.63,2.63,0,0,0,.146-.8,1.241,1.241,0,0,0,.073-.51,5.159,5.159,0,0,0-.292-1.531,4.138,4.138,0,0,0-.875-1.312,3.762,3.762,0,0,0-1.384-.874,3.08,3.08,0,0,0-.875-.292h-.073a3.548,3.548,0,0,0-.875-.073H362.2v13.337h2.551v-5.32h1.895l2.624,5.32h2.988Zm-.655-2.187a2.137,2.137,0,0,1-1.384.511h-2.478v-3.572h2.478a1.815,1.815,0,0,1,1.384.51,1.506,1.506,0,0,1,.511,1.241A1.657,1.657,0,0,1,368.618,165.383Z" transform="translate(-349.669 -159.919)" fill="#cececf"/>
          <path id="Path_4912" data-name="Path 4912" d="M384.26,162.323v-2.332h-8.819v13.337h8.819V171h-6.2v-3.207h5.248v-2.332h-5.248v-3.135h6.2Z" transform="translate(-350.225 -159.919)" fill="#cececf"/>
          <path id="Path_4913" data-name="Path 4913" d="M397.386,164.29a3.152,3.152,0,0,0-.073-.364,4.218,4.218,0,0,0-.218-1.021,3.927,3.927,0,0,0-.511-.946,4.007,4.007,0,0,0-1.676-1.458,5.514,5.514,0,0,0-2.333-.51h-4.81v13.337h4.81a5.544,5.544,0,0,0,2.333-.437,4.116,4.116,0,0,0,.947-.583,2.906,2.906,0,0,0,.729-.875,3.948,3.948,0,0,0,.511-.947,4.212,4.212,0,0,0,.218-1.019c.073-.365.073-.8.146-1.24v-3.062A3.552,3.552,0,0,1,397.386,164.29Zm-2.551,3.79c0,.364-.073.655-.073.947a4.581,4.581,0,0,1-.146.655,3.194,3.194,0,0,1-.291.51,2.258,2.258,0,0,1-1.968.8H390.39v-8.674h1.968a2.3,2.3,0,0,1,1.968.875,3.175,3.175,0,0,1,.291.511,4.676,4.676,0,0,1,.146.655c0,.291.073.582.073.947Z" transform="translate(-350.743 -159.919)" fill="#cececf"/>
          <path id="Path_4914" data-name="Path 4914" d="M401.155,159.991v13.337h2.551V159.991Z" transform="translate(-351.305 -159.919)" fill="#cececf"/>
          <path id="Path_4915" data-name="Path 4915" d="M406.557,159.991v2.332h3.5v11.005h2.551V162.323h3.5v-2.332Z" transform="translate(-351.532 -159.919)" fill="#cececf"/>
          <path id="Path_4916" data-name="Path 4916" d="M430.24,170.628a2.051,2.051,0,0,1-1.531.511,2.011,2.011,0,0,1-.947-.219,2.419,2.419,0,0,1-.729-.438,3.21,3.21,0,0,1-.291-.51,3.408,3.408,0,0,1-.218-.655c0-.292-.073-.656-.073-1.021a17.693,17.693,0,0,1,0-3.206c0-.438.073-.729.073-1.019a3.374,3.374,0,0,1,.218-.656,3.182,3.182,0,0,1,.291-.511,2.627,2.627,0,0,1,.729-.51,3.692,3.692,0,0,1,.947-.145,2.052,2.052,0,0,1,1.531.51,2.815,2.815,0,0,1,.729,1.384h2.624a4.9,4.9,0,0,0-1.676-3.206,5.268,5.268,0,0,0-3.206-1.02,5.966,5.966,0,0,0-2.04.365,5.114,5.114,0,0,0-1.531,1.019,5.288,5.288,0,0,0-.8,1.093,4.4,4.4,0,0,0-.364,1.166,8.086,8.086,0,0,0-.146,1.384v3.5a8.073,8.073,0,0,0,.146,1.385,5.464,5.464,0,0,0,.364,1.166,4.6,4.6,0,0,0,2.333,2.113,5.989,5.989,0,0,0,2.04.364,4.882,4.882,0,0,0,3.206-1.093,4.716,4.716,0,0,0,1.676-3.134h-2.624A2.82,2.82,0,0,1,430.24,170.628Z" transform="translate(-352.258 -159.916)" fill="#cececf"/>
          <path id="Path_4917" data-name="Path 4917" d="M442.237,159.991H440.2l-4.883,13.337h2.77l.8-2.332h4.737l.8,2.332h2.7Zm-2.623,8.818,1.677-4.883,1.6,4.883Z" transform="translate(-352.74 -159.919)" fill="#cececf"/>
          <path id="Path_4918" data-name="Path 4918" d="M456.914,167.571a2.267,2.267,0,0,0,.947-.438,3.852,3.852,0,0,0,.8-.729,4.5,4.5,0,0,0,.511-1.02,3.535,3.535,0,0,0,.218-1.311,3.587,3.587,0,0,0-.291-1.531,4.154,4.154,0,0,0-.875-1.312,3.762,3.762,0,0,0-1.384-.874,4.392,4.392,0,0,0-1.749-.365h-5.248v13.337h2.624v-5.32h1.822l2.624,5.32H459.9Zm-.656-2.187a2.135,2.135,0,0,1-1.384.511h-2.4v-3.572h2.4a1.813,1.813,0,0,1,1.384.51,1.5,1.5,0,0,1,.511,1.241A1.651,1.651,0,0,1,456.258,165.383Z" transform="translate(-353.351 -159.919)" fill="#cececf"/>
          <path id="Path_4919" data-name="Path 4919" d="M472.7,163.926a4.19,4.19,0,0,0-.291-1.021,3.764,3.764,0,0,0-.437-.946,4.7,4.7,0,0,0-1.749-1.458,5.267,5.267,0,0,0-2.332-.51h-4.81v13.337h4.81a5.312,5.312,0,0,0,2.332-.437,4.715,4.715,0,0,0,1.749-1.458,3.756,3.756,0,0,0,.437-.947,4.187,4.187,0,0,0,.291-1.019c0-.365.073-.8.073-1.24v-3.062C472.775,164.727,472.7,164.29,472.7,163.926Zm-2.55,4.154a3.859,3.859,0,0,1-.073.947,1.447,1.447,0,0,1-.146.655,1.16,1.16,0,0,1-.292.51,2.258,2.258,0,0,1-1.968.8h-1.968v-8.674h1.968a2.3,2.3,0,0,1,1.968.875,1.188,1.188,0,0,1,.292.511,1.457,1.457,0,0,1,.146.655,3.852,3.852,0,0,1,.073.947Z" transform="translate(-353.907 -159.919)" fill="#cececf"/>
        </g>
        <g id="Group_2282" data-name="Group 2282" transform="translate(383.896 27.494)">
          <g id="Group_2272" data-name="Group 2272" transform="translate(0.001 0.001)">
            <path id="Path_4920" data-name="Path 4920" d="M471.518,33.752V85.118a3.769,3.769,0,0,1-3.758,3.758H404.491a3.769,3.769,0,0,1-3.758-3.758V33.752a3.769,3.769,0,0,1,3.758-3.758h63.268A3.769,3.769,0,0,1,471.518,33.752Z" transform="translate(-400.733 -29.994)" fill="#f7d072"/>
          </g>
          <path id="Path_4921" data-name="Path 4921" d="M457.676,42.5,468.682,31.5H465.11l-9.474,9.547L454.179,42.5l-1.093,1.02-7.507,7.507H429.254L427.8,49.57l-6.049-6.049-2.405-2.478L409.794,31.5h-3.571l9.474,9.547,1.458,1.458H402.069v2.477h17.637l4.664,4.737,1.239,1.312v2.914H402.068v2.551h23.541v8.964H402.068v2.477h23.541v2.988h.146l-4.592,4.52L419.7,76.9H402.068v2.551h15.086l-9.474,9.474h3.571l9.475-9.474,8.527-8.526h16.325l18.075,18h3.5l-9.474-9.474H471.6V76.9H455.2l-5.976-5.976V67.938H471.6V65.46H449.222V56.5H471.6V53.945H449.222V51.031l5.976-6.05h16.4V42.5h-13.92ZM446.745,68.374H428.087V53.507h18.658Z" transform="translate(-400.788 -30.056)" fill="#fff" opacity="0.2"/>
          <g id="Group_2281" data-name="Group 2281">
            <g id="Group_2273" data-name="Group 2273" transform="translate(23.582 19.514)">
              <path id="Path_4922" data-name="Path 4922" d="M428.992,50.363l2.478,2.477H442.84l1.02-1.019,1.458-1.458Zm0,0,2.478,2.477H442.84l1.02-1.019,1.458-1.458Zm0,0,2.478,2.477H442.84l1.02-1.019,1.458-1.458Zm0,0,2.478,2.477H442.84l1.02-1.019,1.458-1.458Zm15.3,18.8-1.457-1.457H431.47l-1.384,1.457h-.073l-1.02,1.093h16.325Zm-15.3-18.8,2.478,2.477H442.84l1.02-1.019,1.458-1.458Zm-3.644,0v19.9h23.613v-19.9Zm21.135,17.346H427.825V52.841h18.658ZM428.992,50.363l2.478,2.477H442.84l1.02-1.019,1.458-1.458Zm0,0,2.478,2.477H442.84l1.02-1.019,1.458-1.458Zm0,0,2.478,2.477H442.84l1.02-1.019,1.458-1.458Zm0,0,2.478,2.477H442.84l1.02-1.019,1.458-1.458Zm0,0,2.478,2.477H442.84l1.02-1.019,1.458-1.458Zm0,0,2.478,2.477H442.84l1.02-1.019,1.458-1.458Z" transform="translate(-425.348 -50.363)" fill="#717070"/>
            </g>
            <g id="Group_2278" data-name="Group 2278" transform="translate(0 10.962)">
              <g id="Group_2274" data-name="Group 2274">
                <path id="Path_4923" data-name="Path 4923" d="M419.415,41.436l2.506,2.506H400.732V41.436Z" transform="translate(-400.732 -41.436)" fill="#717070"/>
                <path id="Path_4924" data-name="Path 4924" d="M473.693,41.436v2.506H452.5l2.505-2.506Z" transform="translate(-402.907 -41.436)" fill="#717070"/>
              </g>
              <g id="Group_2275" data-name="Group 2275" transform="translate(0 11.485)">
                <rect id="Rectangle_17229" data-name="Rectangle 17229" width="26.074" height="2.506" fill="#717070"/>
                <rect id="Rectangle_17230" data-name="Rectangle 17230" width="26.074" height="2.506" transform="translate(44.71)" fill="#717070"/>
              </g>
              <g id="Group_2276" data-name="Group 2276" transform="translate(0 22.972)">
                <rect id="Rectangle_17231" data-name="Rectangle 17231" width="26.074" height="2.506" fill="#717070"/>
                <rect id="Rectangle_17232" data-name="Rectangle 17232" width="26.074" height="2.506" transform="translate(44.71)" fill="#717070"/>
              </g>
              <g id="Group_2277" data-name="Group 2277" transform="translate(0 34.453)">
                <path id="Path_4925" data-name="Path 4925" d="M421.924,77.4l-2.506,2.506H400.732V77.4Z" transform="translate(-400.732 -77.4)" fill="#717070"/>
                <path id="Path_4926" data-name="Path 4926" d="M473.693,77.4v2.506H455.006L452.5,77.4Z" transform="translate(-402.907 -77.4)" fill="#717070"/>
              </g>
            </g>
            <g id="Group_2279" data-name="Group 2279" transform="translate(4.182)">
              <path id="Path_4927" data-name="Path 4927" d="M430.642,68.491l-22,22H405.1l22-22Z" transform="translate(-405.097 -31.61)" fill="#717070"/>
              <path id="Path_4928" data-name="Path 4928" d="M469.14,29.993l-22,22h-3.542l22-22Z" transform="translate(-406.714 -29.993)" fill="#717070"/>
            </g>
            <g id="Group_2280" data-name="Group 2280" transform="translate(4.178)">
              <path id="Path_4929" data-name="Path 4929" d="M430.639,52H427.1l-22-22h3.543Z" transform="translate(-405.093 -29.993)" fill="#717070"/>
              <path id="Path_4930" data-name="Path 4930" d="M469.137,90.494h-3.543L446.1,71l-1.043-1.043-1.463-1.463h3.543l1.362,1.362L449.64,71,451,72.359l4.666,4.666,1.463,1.463,1.043,1.043,1.463,1.463Z" transform="translate(-406.71 -31.61)" fill="#717070"/>
            </g>
          </g>
        </g>
        <g id="Icons" transform="translate(145.897 66.552)" opacity="0.46">
          <g id="Color-" transform="translate(0)">
            <path id="Paypal" d="M964.557,676.644C954.251,664.995,935.63,660,911.8,660H842.654a9.891,9.891,0,0,0-9.787,8.283L804.074,849.446a5.9,5.9,0,0,0,5.868,6.806h42.687l10.725-67.461-.336,2.111a9.859,9.859,0,0,1,9.75-8.287h20.286c39.858,0,71.057-16.059,80.172-62.513.272-1.379.708-4.019.708-4.019C976.523,698.893,973.916,687.225,964.557,676.644Zm20.184,48.237c-9.915,45.736-41.528,69.94-91.688,69.94H874.86l-13.567,85.926H890.8a8.644,8.644,0,0,0,8.554-7.248l.345-1.821,6.788-42.646.437-2.355a8.635,8.635,0,0,1,8.545-7.248h5.39c34.859,0,62.159-14.054,70.133-54.685C994.192,748.436,992.656,734.769,984.741,724.881Z" transform="translate(-804 -660)" fill="#022b87" fill-rule="evenodd"/>
          </g>
        </g>
        <g id="Group_2288" data-name="Group 2288" transform="translate(101.068 186.637)">
          <g id="Group_2268" data-name="Group 2268">
            <path id="Path_4887" data-name="Path 4887" d="M358.163,212.559l-7.143,6.2V225.6l7.143-6.194V247.4H364.5V212.559h-6.341Z" transform="translate(-150.944 -205.596)" fill="#cececf"/>
            <path id="Path_4888" data-name="Path 4888" d="M377.343,212.559v11.224h6.122v-5.466h9.183l-11.3,29.08h6.923l11.3-29.08v-5.757H377.343Z" transform="translate(-152.05 -205.596)" fill="#cececf"/>
            <path id="Path_4889" data-name="Path 4889" d="M416.213,212.559l-7.07,6.2V225.6l7.07-6.194V247.4h6.413V212.559h-6.413Z" transform="translate(-153.386 -205.596)" fill="#cececf"/>
            <path id="Path_4890" data-name="Path 4890" d="M456.383,218.45a9.379,9.379,0,0,0-2.259-3.425,9.839,9.839,0,0,0-3.5-2.041,11.444,11.444,0,0,0-4.227-.729,11.841,11.841,0,0,0-4.3.729,12.147,12.147,0,0,0-3.5,2.113,10.019,10.019,0,0,0-2.259,3.425,11.709,11.709,0,0,0-.875,4.592,11.4,11.4,0,0,0,.8,4.372,10.962,10.962,0,0,0,2.041,3.206,8.386,8.386,0,0,0,2.988,2.041,8.039,8.039,0,0,0,3.425.73,7.924,7.924,0,0,0,1.311-.073,6.17,6.17,0,0,0,1.24-.365l-7.216,14.357h6.923l7.361-15.013c.8-1.6,1.458-3.207,2.041-4.664a12.92,12.92,0,0,0,.875-4.664A11.2,11.2,0,0,0,456.383,218.45Zm-6.778,8.381a4.286,4.286,0,0,1-3.206,1.312,4.231,4.231,0,0,1-3.28-1.312,5.224,5.224,0,0,1-1.239-3.717,5.384,5.384,0,0,1,1.239-3.79,4.45,4.45,0,0,1,3.28-1.312,4.286,4.286,0,0,1,3.206,1.312,5.068,5.068,0,0,1,1.239,3.79A5,5,0,0,1,449.6,226.832Z" transform="translate(-154.492 -205.584)" fill="#cececf"/>
            <text id="Visa" transform="translate(-0.068 39.333)" fill="#cececf" font-size="40" font-family="Montserrat" font-weight="600"><tspan x="0" y="0">Visa</tspan></text>
            <g id="Repeat_Grid_7" data-name="Repeat Grid 7" transform="translate(104.932 20.333)" clip-path="url(#clip-path)">
              <g transform="translate(-147.852 -9.007)">
                <circle id="Ellipse_276" data-name="Ellipse 276" cx="7.5" cy="7.5" r="7.5" transform="translate(147.852 11.007)" fill="#cececf"/>
              </g>
              <g transform="translate(-125.852 -9.007)">
                <circle id="Ellipse_276-2" data-name="Ellipse 276" cx="7.5" cy="7.5" r="7.5" transform="translate(147.852 11.007)" fill="#cececf"/>
              </g>
              <g transform="translate(-103.852 -9.007)">
                <circle id="Ellipse_276-3" data-name="Ellipse 276" cx="7.5" cy="7.5" r="7.5" transform="translate(147.852 11.007)" fill="#cececf"/>
              </g>
              <g transform="translate(-81.852 -9.007)">
                <circle id="Ellipse_276-4" data-name="Ellipse 276" cx="7.5" cy="7.5" r="7.5" transform="translate(147.852 11.007)" fill="#cececf"/>
              </g>
            </g>
          </g>
        </g>
        <g id="Group_2289" data-name="Group 2289" transform="translate(64.645 246.046)">
          <path id="Path_4899" data-name="Path 4899" d="M67.48,258.282v2.333h3.5V271.62H73.6V260.615h3.5v-2.333Z" transform="translate(-67.48 -258.136)" fill="#cececf"/>
          <path id="Path_4900" data-name="Path 4900" d="M89.422,261.774a5.6,5.6,0,0,0-.437-1.166,3.472,3.472,0,0,0-.8-1.093,4.343,4.343,0,0,0-1.53-1.02,5.574,5.574,0,0,0-1.968-.365,5.651,5.651,0,0,0-2.041.365,4.343,4.343,0,0,0-1.53,1.02,3.493,3.493,0,0,0-.8,1.093,5.442,5.442,0,0,0-.437,1.166c-.073.438-.073.948-.146,1.458v3.425c.073.51.073.947.146,1.385a6.2,6.2,0,0,0,.437,1.239,4.977,4.977,0,0,0,2.332,2.041,4.442,4.442,0,0,0,2.041.365,4.777,4.777,0,0,0,3.5-1.385,4.4,4.4,0,0,0,.8-1.02,6.205,6.205,0,0,0,.437-1.239,8.1,8.1,0,0,0,.146-1.385v-3.425A8.987,8.987,0,0,0,89.422,261.774Zm-2.478,4.738a3.8,3.8,0,0,1-.146,1.019,1.455,1.455,0,0,1-.146.656,1.937,1.937,0,0,1-.365.437,1.158,1.158,0,0,1-.655.51,2.019,2.019,0,0,1-.947.218,2.333,2.333,0,0,1-1.02-.218,2.208,2.208,0,0,1-.728-.51c-.073-.146-.219-.291-.292-.437a1.459,1.459,0,0,1-.146-.656,3.8,3.8,0,0,1-.146-1.019v-3.207a4.305,4.305,0,0,1,.146-1.02,1.447,1.447,0,0,1,.146-.655c.073-.146.218-.292.292-.438a4.463,4.463,0,0,1,.728-.51,2.332,2.332,0,0,1,1.02-.218,2.019,2.019,0,0,1,.947.218,1.587,1.587,0,0,1,.655.51,1.94,1.94,0,0,1,.365.438,1.451,1.451,0,0,1,.146.655,4.313,4.313,0,0,1,.146,1.02Z" transform="translate(-67.995 -258.13)" fill="#cececf"/>
          <path id="Path_4901" data-name="Path 4901" d="M102.526,260.833a2.616,2.616,0,0,0-.875-1.312,3.153,3.153,0,0,0-1.384-.947,4.772,4.772,0,0,0-1.822-.292H93.27v13.338h2.624v-5.028h2.55a4.762,4.762,0,0,0,1.822-.365,3.758,3.758,0,0,0,1.384-.876,2.614,2.614,0,0,0,.875-1.311,4.137,4.137,0,0,0,.291-1.6A3.894,3.894,0,0,0,102.526,260.833Zm-2.77,2.915a2.343,2.343,0,0,1-1.458.511h-2.4v-3.644h2.4a2.311,2.311,0,0,1,1.458.438,2.138,2.138,0,0,1,.511,1.384A2.094,2.094,0,0,1,99.757,263.748Z" transform="translate(-68.564 -258.136)" fill="#cececf"/>
          <path id="Path_4902" data-name="Path 4902" d="M114.8,260.615v-2.333h-8.745V271.62H114.8v-2.333h-6.122v-3.279h5.247v-2.333h-5.247v-3.061Z" transform="translate(-69.101 -258.136)" fill="#cececf"/>
          <path id="Path_4903" data-name="Path 4903" d="M124.333,268.844a2.053,2.053,0,0,1-1.53.51,3.7,3.7,0,0,1-.947-.146,2.62,2.62,0,0,1-.729-.51,3.166,3.166,0,0,1-.291-.51,3.4,3.4,0,0,1-.218-.656c0-.292-.073-.582-.073-1.019s-.073-.948-.073-1.6.073-1.166.073-1.6c0-.364.073-.729.073-1.02a3.338,3.338,0,0,1,.218-.655,2.276,2.276,0,0,1,.291-.438,1.667,1.667,0,0,1,.729-.51,2.019,2.019,0,0,1,.947-.218,2.05,2.05,0,0,1,1.53.511,2.8,2.8,0,0,1,.729,1.384h2.624a4.716,4.716,0,0,0-1.676-3.134,4.882,4.882,0,0,0-3.206-1.094,5.962,5.962,0,0,0-2.041.365,5.1,5.1,0,0,0-1.53,1.02,10.3,10.3,0,0,0-.8,1.093,5.482,5.482,0,0,0-.364,1.166,9,9,0,0,0-.146,1.458v3.425a8.1,8.1,0,0,0,.146,1.385,6.223,6.223,0,0,0,.364,1.239c.219.292.511.656.8,1.02a5.1,5.1,0,0,0,1.53,1.02,4.627,4.627,0,0,0,2.041.365,5.266,5.266,0,0,0,3.206-1.02,4.9,4.9,0,0,0,1.676-3.207h-2.624A2.814,2.814,0,0,1,124.333,268.844Z" transform="translate(-69.599 -258.13)" fill="#cececf"/>
          <path id="Path_4904" data-name="Path 4904" d="M140.312,263.232a9,9,0,0,0-.146-1.458,3.246,3.246,0,0,0-.437-1.166,4.691,4.691,0,0,0-.729-1.093,4.343,4.343,0,0,0-1.53-1.02,5.886,5.886,0,0,0-4.081,0,4.347,4.347,0,0,0-1.531,1.02,5.227,5.227,0,0,0-.8,1.093,5.427,5.427,0,0,0-.364,1.166,9,9,0,0,0-.146,1.458c0,.51-.073,1.02-.073,1.676s.073,1.24.073,1.749a8.1,8.1,0,0,0,.146,1.385,6.159,6.159,0,0,0,.364,1.239,7.877,7.877,0,0,0,.8,1.02,4.325,4.325,0,0,0,1.531,1.02,5.886,5.886,0,0,0,4.081,0A4.33,4.33,0,0,0,139,270.3a6.779,6.779,0,0,0,.729-1.02,3.59,3.59,0,0,0,.437-1.239,8.1,8.1,0,0,0,.146-1.385c0-.51.073-1.093.073-1.749S140.312,263.742,140.312,263.232Zm-2.624,3.28c0,.437-.073.728-.073,1.019a3.377,3.377,0,0,1-.218.656,1.524,1.524,0,0,1-.291.437,1.659,1.659,0,0,1-.729.51,2.164,2.164,0,0,1-1.895,0,1.667,1.667,0,0,1-.729-.51,1.524,1.524,0,0,1-.291-.437c-.146-.146-.146-.365-.219-.656s-.073-.582-.146-1.019v-3.207c.073-.364.073-.729.146-1.02s.073-.511.219-.655a1.527,1.527,0,0,1,.291-.438,2.607,2.607,0,0,1,.729-.51,2.164,2.164,0,0,1,1.895,0,2.626,2.626,0,0,1,.729.51,1.527,1.527,0,0,1,.291.438,3.361,3.361,0,0,1,.218.655c0,.292.073.656.073,1.02a17.7,17.7,0,0,1,0,3.207Z" transform="translate(-70.127 -258.13)" fill="#cececf"/>
          <path id="Path_4905" data-name="Path 4905" d="M151.666,258.282v8.163l-5.32-8.163h-2.333V271.62h2.624v-8.236l5.32,8.236h2.332V258.282Z" transform="translate(-70.695 -258.136)" fill="#cececf"/>
          <path id="Path_4906" data-name="Path 4906" d="M172.965,266.519a3.04,3.04,0,0,0-.656-1.021,1.931,1.931,0,0,0-.437-.364,2.015,2.015,0,0,0-.582-.364,3.088,3.088,0,0,0,1.676-2.843,4.764,4.764,0,0,0-.291-1.53,4.414,4.414,0,0,0-.875-1.165,3.4,3.4,0,0,0-.875-.511,1.592,1.592,0,0,0-.364-.218,6.772,6.772,0,0,0-1.749-.218h-5.32v13.338h5.539a5.309,5.309,0,0,0,1.676-.292,3.961,3.961,0,0,0,1.311-.8,2.592,2.592,0,0,0,.8-1.166,3.705,3.705,0,0,0,.292-1.6A6.633,6.633,0,0,0,172.965,266.519Zm-6.924-5.9h2.551a.549.549,0,0,1,.365.073,1.342,1.342,0,0,1,.947.292,1.539,1.539,0,0,1,.437,1.166,1.481,1.481,0,0,1-.437,1.093,1.905,1.905,0,0,1-1.312.437H166.04Zm4.009,8.236a1.715,1.715,0,0,1-1.239.437h-2.77v-3.279h2.77a1.71,1.71,0,0,1,1.239.438,1.583,1.583,0,0,1,.511,1.166A1.765,1.765,0,0,1,170.049,268.851Z" transform="translate(-71.514 -258.136)" fill="#cececf"/>
          <path id="Path_4907" data-name="Path 4907" d="M182.205,258.282h-2.041l-4.883,13.338h2.7l.8-2.405h4.737l.8,2.405h2.7Zm-2.7,8.746,1.749-4.81,1.6,4.81Z" transform="translate(-72.009 -258.136)" fill="#cececf"/>
          <path id="Path_4908" data-name="Path 4908" d="M197.393,258.282v8.163l-5.321-8.163h-2.259V271.62h2.551v-8.236l5.321,8.236h2.333V258.282Z" transform="translate(-72.62 -258.136)" fill="#cececf"/>
          <path id="Path_4909" data-name="Path 4909" d="M210.241,263.529l4.372-5.247h-3.134l-4.737,5.758v-5.758h-2.551V271.62h2.551v-4.009l1.749-2.114,3.425,6.122h3.061Z" transform="translate(-73.224 -258.136)" fill="#cececf"/>
        </g>
        <g id="Group_2290" data-name="Group 2290" transform="translate(11.576 117.313)">
          <path id="Path_4931" data-name="Path 4931" d="M77.308,52.2a27.858,27.858,0,0,1,8.436-20,27.948,27.948,0,1,0,0,40A27.856,27.856,0,0,1,77.308,52.2Z" transform="translate(-38.283 -24.251)" fill="#dc3b39"/>
          <path id="Path_4932" data-name="Path 4932" d="M107.337,24.251A27.851,27.851,0,0,0,87.825,32.2a27.928,27.928,0,0,1,0,40,27.946,27.946,0,1,0,19.512-47.949Z" transform="translate(-40.364 -24.251)" fill="#e6ab2d"/>
          <path id="Path_4933" data-name="Path 4933" d="M95.891,52.548a27.858,27.858,0,0,0-8.436-20,27.928,27.928,0,0,0,0,40A27.856,27.856,0,0,0,95.891,52.548Z" transform="translate(-39.994 -24.6)" fill="#d67261"/>
          <g id="Group_2284" data-name="Group 2284" transform="translate(39.025 13.443)">
            <g id="Group_2283" data-name="Group 2283" transform="translate(1.708)">
              <path id="Path_4934" data-name="Path 4934" d="M95.966,52.788c0-.59-.024-1.174-.06-1.756L83.157,38.284A27.818,27.818,0,0,0,80.8,43.157l14.7,14.7A28.01,28.01,0,0,0,95.966,52.788Z" transform="translate(-80.802 -38.284)" fill="#e6ab2d"/>
            </g>
            <path id="Path_4935" data-name="Path 4935" d="M79.3,49.3a27.535,27.535,0,0,0-.1,7.125L91.324,68.544a27.828,27.828,0,0,0,2.493-4.734Z" transform="translate(-79.019 -38.747)" fill="#e6ab2d"/>
          </g>
        </g>
      </g>
    </g>
    <g id="Repeat_Grid_9" data-name="Repeat Grid 9" transform="translate(1337 365.184)" clip-path="url(#clip-path-2)">
      <g transform="translate(-1140 -231)">
        <circle id="Ellipse_277" data-name="Ellipse 277" cx="3.5" cy="3.5" r="3.5" transform="translate(1143 231)" fill="#fff"/>
      </g>
      <g transform="translate(-1140 -221)">
        <circle id="Ellipse_277-2" data-name="Ellipse 277" cx="3.5" cy="3.5" r="3.5" transform="translate(1143 231)" fill="#fff"/>
      </g>
      <g transform="translate(-1140 -211)">
        <circle id="Ellipse_277-3" data-name="Ellipse 277" cx="3.5" cy="3.5" r="3.5" transform="translate(1143 231)" fill="#fff"/>
      </g>
    </g>
  </g>
</svg>
