<svg xmlns="http://www.w3.org/2000/svg" xmlns:xlink="http://www.w3.org/1999/xlink" width="1914.912" height="1843.187" viewBox="0 0 1914.912 1843.187">
  <defs>
    <filter id="Rectangle_17140" x="253.039" y="91.139" width="407.892" height="124.637" filterUnits="userSpaceOnUse">
      <feOffset dy="3" input="SourceAlpha"/>
      <feGaussianBlur stdDeviation="3" result="blur"/>
      <feFlood flood-opacity="0.161"/>
      <feComposite operator="in" in2="blur"/>
      <feComposite in="SourceGraphic"/>
    </filter>
  </defs>
  <g id="Group_1126" data-name="Group 1126" transform="translate(1)">
    <g id="Questions-rafiki" transform="translate(935.851)">
      <g id="freepik--background-complete--inject-1">
        <rect id="Rectangle_17111" data-name="Rectangle 17111" width="978.061" height="0.583" transform="translate(0 666.168)" fill="#ebebeb"/>
        <rect id="Rectangle_17112" data-name="Rectangle 17112" width="201.876" height="0.583" transform="translate(664.92 688.351)" fill="#ebebeb"/>
        <rect id="Rectangle_17113" data-name="Rectangle 17113" width="55.277" height="0.583" transform="translate(594.97 682.036)" fill="#ebebeb"/>
        <rect id="Rectangle_17114" data-name="Rectangle 17114" width="85.703" height="0.583" transform="translate(675.965 709.998)" fill="#ebebeb"/>
        <rect id="Rectangle_17115" data-name="Rectangle 17115" width="50.28" height="0.583" transform="translate(116.506 706.083)" fill="#ebebeb"/>
        <rect id="Rectangle_17116" data-name="Rectangle 17116" width="59.719" height="0.583" transform="translate(163.05 706.083)" fill="#ebebeb"/>
        <rect id="Rectangle_17117" data-name="Rectangle 17117" width="104.025" height="0.583" transform="translate(343.917 696.25)" fill="#ebebeb"/>
        <path id="Path_3817" data-name="Path 3817" d="M479.694,713.956H50.869c-6.995-.013-12.659-5.966-12.659-13.3V68.188C38.271,60.895,43.917,55.012,50.869,55H479.694c7,0,12.681,5.957,12.681,13.3V700.651C492.375,708,486.7,713.956,479.694,713.956ZM50.869,55.466c-6.688.013-12.1,5.705-12.1,12.722V700.651c0,7.017,5.415,12.709,12.1,12.722H479.694c6.692-.013,12.114-5.7,12.126-12.722V68.188c-.012-7.021-5.434-12.71-12.126-12.722Z" transform="translate(46.649 -55)" fill="#ebebeb"/>
        <path id="Path_3818" data-name="Path 3818" d="M696.029,713.956H267.181c-7-.013-12.669-5.962-12.681-13.3V68.188c.073-7.3,5.726-13.176,12.681-13.188H696.029c6.943.025,12.576,5.9,12.637,13.188V700.651C708.665,707.981,703.015,713.93,696.029,713.956ZM267.181,55.466c-6.692.013-12.114,5.7-12.126,12.722V700.651c.012,7.021,5.434,12.709,12.126,12.722H696.029c6.692-.013,12.114-5.7,12.126-12.722V68.188c-.012-7.021-5.434-12.71-12.126-12.722Z" transform="translate(178.341 -55)" fill="#ebebeb"/>
        <rect id="Rectangle_17118" data-name="Rectangle 17118" width="41.641" height="242.378" transform="translate(814.162 410.555)" fill="#f0f0f0"/>
        <rect id="Rectangle_17119" data-name="Rectangle 17119" width="458.674" height="13.258" transform="translate(389.134 652.91)" fill="#f0f0f0"/>
        <rect id="Rectangle_17120" data-name="Rectangle 17120" width="433.023" height="242.378" transform="translate(381.139 410.532)" fill="#f5f5f5"/>
        <rect id="Rectangle_17121" data-name="Rectangle 17121" width="42.552" height="11.557" transform="translate(818.493 435.441)" fill="#f0f0f0"/>
        <rect id="Rectangle_17122" data-name="Rectangle 17122" width="442.595" height="11.557" transform="translate(375.898 435.441)" fill="#fafafa"/>
        <path id="Path_3819" data-name="Path 3819" d="M641.019,346.3H238V283.11H641.019Zm-400.309-2.866H638.243V286.116H240.709Z" transform="translate(191.661 179.33)" fill="#e0e0e0"/>
        <path id="Path_3820" data-name="Path 3820" d="M641.019,430.877H238V317.75H641.019Zm-400.309-3.029H638.243V320.663H240.709Z" transform="translate(191.661 197.777)" fill="#e0e0e0"/>
        <rect id="Rectangle_17123" data-name="Rectangle 17123" width="294.486" height="9.414" rx="1.66" transform="translate(488.234 468.366)" fill="#e0e0e0"/>
        <rect id="Rectangle_17124" data-name="Rectangle 17124" width="294.486" height="9.414" rx="1.66" transform="translate(488.234 539.318)" fill="#e0e0e0"/>
        <rect id="Rectangle_17125" data-name="Rectangle 17125" width="17.3" height="308.507" transform="translate(126.811 357.661)" fill="#e6e6e6"/>
        <rect id="Rectangle_17126" data-name="Rectangle 17126" width="12.015" height="308.507" transform="translate(121.37 357.661)" fill="#f0f0f0"/>
        <rect id="Rectangle_17127" data-name="Rectangle 17127" width="205.829" height="22.299" transform="translate(117.639 398.394)" fill="#f0f0f0"/>
        <rect id="Rectangle_17128" data-name="Rectangle 17128" width="17.3" height="286.184" transform="translate(291.111 379.984)" fill="#e6e6e6"/>
        <rect id="Rectangle_17129" data-name="Rectangle 17129" width="12.015" height="286.184" transform="translate(286.519 379.984)" fill="#f0f0f0"/>
        <rect id="Rectangle_17130" data-name="Rectangle 17130" width="17.3" height="286.184" transform="translate(387.361 379.984)" fill="#e6e6e6"/>
        <rect id="Rectangle_17131" data-name="Rectangle 17131" width="12.015" height="286.184" transform="translate(382.793 379.984)" fill="#f0f0f0"/>
        <rect id="Rectangle_17132" data-name="Rectangle 17132" width="17.3" height="286.184" transform="translate(207.705 379.984)" fill="#e6e6e6"/>
        <rect id="Rectangle_17133" data-name="Rectangle 17133" width="12.015" height="286.184" transform="translate(203.038 379.984)" fill="#f0f0f0"/>
        <rect id="Rectangle_17134" data-name="Rectangle 17134" width="134.54" height="22.299" transform="translate(279.613 398.394)" fill="#e6e6e6"/>
        <path id="Path_3821" data-name="Path 3821" d="M229.23,253.077H62.91L77.634,118H214.506Z" transform="translate(76.804 7.678)" fill="#ebebeb"/>
        <rect id="Rectangle_17135" data-name="Rectangle 17135" width="18.1" height="172.498" transform="translate(187.913 238.93)" fill="#f5f5f5"/>
        <path id="Path_3822" data-name="Path 3822" d="M157.606,254.709H83.74A8.062,8.062,0,0,1,91.6,246.46h58.075a7.675,7.675,0,0,1,5.6,2.391,8.457,8.457,0,0,1,2.326,5.858Z" transform="translate(78.486 145.668)" fill="#f0f0f0"/>
        <path id="Path_3823" data-name="Path 3823" d="M114.38,190.906l-18.1-9.064V175.97h18.1Z" transform="translate(91.633 71.5)" fill="#e0e0e0"/>
        <path id="Path_3824" data-name="Path 3824" d="M135.39,313.329H213.5l9.661-111.309H145.051Z" transform="translate(126.373 92.951)" fill="#e6e6e6"/>
        <path id="Path_3825" data-name="Path 3825" d="M133.57,313.329h78.108l9.661-111.309H143.231Z" transform="translate(124.675 92.951)" fill="#f0f0f0"/>
        <path id="Path_3826" data-name="Path 3826" d="M193.951,293.967l7.529-86.657H146.869l-7.529,86.657Z" transform="translate(131.039 99.961)" fill="#fff"/>
        <path id="Path_3827" data-name="Path 3827" d="M528.9,215.53H370.358L339.51,330.8H498.057Z" transform="translate(306.131 106.249)" fill="#e6e6e6"/>
        <path id="Path_3828" data-name="Path 3828" d="M498.423,265l-.622,6.361H339.21l.644-6.361Z" transform="translate(309.296 165.239)" fill="#e6e6e6"/>
        <path id="Path_3829" data-name="Path 3829" d="M526.727,215.53H368.158L337.31,330.8H495.879Z" transform="translate(304.145 106.249)" fill="#f0f0f0"/>
        <path id="Path_3830" data-name="Path 3830" d="M490.218,320.268l25.518-99.822c.355-1.421-.333-2.656-1.488-2.656H368.471a2.833,2.833,0,0,0-2.4,2.33l-25.5,99.752c-.378,1.421.311,2.656,1.466,2.656H487.82a2.783,2.783,0,0,0,2.4-2.26Z" transform="translate(308.631 109.313)" fill="#fff"/>
        <path id="Path_3831" data-name="Path 3831" d="M486.438,265l-.644,6.361H311.19l.644-6.361Z" transform="translate(282.098 165.239)" fill="#f0f0f0"/>
        <rect id="Rectangle_17136" data-name="Rectangle 17136" width="384.697" height="249.112" transform="translate(459.18 73.259)" fill="#f0f0f0"/>
        <rect id="Rectangle_17137" data-name="Rectangle 17137" width="362.844" height="226.207" transform="translate(470.107 84.723)" fill="#fff"/>
        <rect id="Rectangle_17138" data-name="Rectangle 17138" width="3.931" height="249.112" transform="translate(843.877 73.282)" fill="#e6e6e6"/>
      </g>
      <g id="freepik--Shadow--inject-1" transform="translate(124.612 718.642)">
        <ellipse id="freepik--path--inject-1" cx="364.418" cy="26.377" rx="364.418" ry="26.377" fill="#f5f5f5"/>
      </g>
      <g id="freepik--question-marks--inject-1" transform="translate(271.755 14.562)">
        <path id="Path_3832" data-name="Path 3832" d="M274.441,81.639q15.546-14.517,40.264-19.014t52.257,5.709q27.45,10.206,50.214,36.862,21.165,24.792,28.6,51.938a99.784,99.784,0,0,1,1.31,51.565,82.533,82.533,0,0,1-23.763,40.707A66.562,66.562,0,0,1,394.035,266.3a94.6,94.6,0,0,1-29.959,2.889q-14.5-.979-50.325-5.2a151.713,151.713,0,0,0-16.834-.979,45.676,45.676,0,0,0-11.437,1.375,44.071,44.071,0,0,0-8.617,3.309c-2.665,1.375-7.173,3.915-13.569,7.666q-19.721,12.653-34.29-4.427a28.76,28.76,0,0,1-7.218-20.155q.378-11.254,11.282-21.507a75.448,75.448,0,0,1,55.144-22.555A331.166,331.166,0,0,1,323.1,209.8c12.3,1.561,21.387,2.54,27.25,2.866a59.485,59.485,0,0,0,17.345-1.515,32.8,32.8,0,0,0,15.213-8.272,41.473,41.473,0,0,0,13.325-30.827q.266-18.641-13.325-34.649-16.057-18.8-32.669-19.177t-39.553,10.019q-23.341,11.487-37.2-4.66a29.94,29.94,0,0,1-7.351-22.183,28.611,28.611,0,0,1,8.306-19.759ZM167.085,332.569A37.064,37.064,0,0,1,158,308.312q-.2-13.794,11.349-24.676a30.319,30.319,0,0,1,23.7-8.6,31.975,31.975,0,0,1,22.742,11.884,34.648,34.648,0,0,1,8.463,24.7,34.285,34.285,0,0,1-11.017,23.561q-11.393,10.7-24.429,9.134a32.825,32.825,0,0,1-21.72-11.744Z" transform="translate(-157.998 -61.25)" fill="#7d25f5"/>
        <g id="Group_1054" data-name="Group 1054" transform="translate(309.497 146.542)" opacity="0.5">
          <path id="Path_3833" data-name="Path 3833" d="M302.892,154.222a43.915,43.915,0,0,1,14.9-19.247,53.683,53.683,0,0,1,26.339-10.439,62.95,62.95,0,0,1,32.491,4.986,68.122,68.122,0,0,1,25.584,17.592,51.948,51.948,0,0,1,12.437,24.35,45.949,45.949,0,0,1-2,25.631,37.911,37.911,0,0,1-10.171,15.472,52.734,52.734,0,0,1-13.681,8.948q-7.151,3.192-25.3,10.206a75.885,75.885,0,0,0-8.284,3.775,24.84,24.84,0,0,0-5.152,3.542,23.861,23.861,0,0,0-3.376,3.751c-.955,1.328-2.532,3.682-4.73,6.99q-6.663,11.045-17.434,6.524a14.615,14.615,0,0,1-8.084-7.829,17.043,17.043,0,0,1,.488-13.142,42.86,42.86,0,0,1,21.231-24.7,182.4,182.4,0,0,1,17.389-7.41c6.241-2.33,10.815-4.171,13.7-5.476a33.25,33.25,0,0,0,7.951-5.1,18.839,18.839,0,0,0,5.4-7.806,22.636,22.636,0,0,0-.688-18.1,25.849,25.849,0,0,0-14.28-13.1q-11.993-4.963-19.988-.955a52.286,52.286,0,0,0-16.612,14.726q-8.572,11.394-18.922,6.99a15.261,15.261,0,0,1-8.595-8.785,15.438,15.438,0,0,1-.622-11.394Zm6.063,147.263a18.793,18.793,0,0,1-9.905-9.32,17.816,17.816,0,0,1-.266-14.563,17.1,17.1,0,0,1,9.35-10.136,16.6,16.6,0,0,1,13.614,0,17.575,17.575,0,0,1,9.707,9.688,18.853,18.853,0,0,1,.131,14.056,16.791,16.791,0,0,1-9.638,10.532,16.994,16.994,0,0,1-12.992-.256Z" transform="translate(-297.358 -124.14)" fill="#7d25f5"/>
        </g>
        <g id="Group_1055" data-name="Group 1055" transform="translate(461.316 120.882)" opacity="0.1">
          <path id="Path_3834" data-name="Path 3834" d="M368.809,155.145a21.514,21.514,0,0,1-3.087-11.091,27.756,27.756,0,0,1,3.154-13.328,31.243,31.243,0,0,1,10.416-11.651,30.906,30.906,0,0,1,13.192-5.639,21.756,21.756,0,0,1,12.192,1.445,19.743,19.743,0,0,1,8.883,7.573,18.163,18.163,0,0,1,2.976,8.179,27.772,27.772,0,0,1-.355,7.852q-.733,3.751-2.976,12.862-.506,2.144-.8,4.334a12.443,12.443,0,0,0,.4,5.359c.244.746.688,2,1.355,3.775a6.635,6.635,0,0,1,.627,4.855,6.329,6.329,0,0,1-2.848,3.883,6.417,6.417,0,0,1-4.975,1.165,7.238,7.238,0,0,1-4.686-3.658,21.76,21.76,0,0,1-3.243-7.736,21.986,21.986,0,0,1-.155-7.317,91.124,91.124,0,0,1,1.888-8.948c.8-3.146,1.332-5.452,1.621-6.99a18.376,18.376,0,0,0,.244-4.66,9.182,9.182,0,0,0-1.443-4.241,9.6,9.6,0,0,0-6.8-4.5,11.361,11.361,0,0,0-8.617,2.33,12.109,12.109,0,0,0-5.641,7.783,26.437,26.437,0,0,0,1,10.579c1.266,4.311.444,7.456-2.421,9.484a7.179,7.179,0,0,1-9.905-1.7Zm55.41,36.49a8.369,8.369,0,0,1-6.019,1.515,7.526,7.526,0,0,1-5.419-3.8,8.48,8.48,0,0,1-1.244-6.431,8.57,8.57,0,0,1,3.576-5.5,7.632,7.632,0,0,1,6.107-1.328,7.816,7.816,0,0,1,5.175,3.658,8.353,8.353,0,0,1,1.31,6.664A8.793,8.793,0,0,1,424.219,191.634Z" transform="translate(-365.718 -113.128)" fill="#7d25f5"/>
        </g>
      </g>
      <g id="freepik--Character--inject-1" transform="translate(297.274 106.167)">
        <path id="Path_3835" data-name="Path 3835" d="M195.02,435.225l-16.79-4.567,10.016-40.288,16.79,4.567Z" transform="translate(-134.004 188.202)" fill="#ffc3bd"/>
        <path id="Path_3836" data-name="Path 3836" d="M197.365,405.8l18.744,6.222a1.207,1.207,0,0,1,.748.588,1.313,1.313,0,0,1,.118.973l-3.953,15.262a3.12,3.12,0,0,1-3.909,2.027c-6.485-2.33-9.483-3.682-17.767-6.431-5.086-1.678-17.345-5.476-24.429-7.806s-4.442-9.32-1.355-8.878c14.258,1.561,22.542.3,28.471-1.864a4.948,4.948,0,0,1,3.331-.093Z" transform="translate(-153.317 208.4)" fill="#263238"/>
        <path id="Path_3837" data-name="Path 3837" d="M202.362,394.947l-16.79-4.567-5.152,20.761,16.79,4.567Z" transform="translate(-131.33 188.215)" opacity="0.2"/>
        <path id="Path_3838" data-name="Path 3838" d="M246.354,215.53s-30.737,153.251-38.909,203.419c-8.883,54.944-28.4,212.25-28.4,212.25l28.538,10.882s44.661-166.813,51.435-219.637C273.2,370.809,309.16,215.53,309.16,215.53Z" transform="translate(-133.015 -44.355)" fill="#7d25f5"/>
        <path id="Path_3839" data-name="Path 3839" d="M233.868,242.269c-9.972,25.119-13.592,70.859-11.859,98.214,7.906-32.3,16.679-69.181,23.474-98.074C243.285,234.463,240.264,226.121,233.868,242.269Z" transform="translate(-81.065 28.161)" opacity="0.3"/>
        <path id="Path_3840" data-name="Path 3840" d="M208.453,413.158l-30.6-9.274L179,390.3l36.422,10.742Z" transform="translate(-134.468 188.109)" fill="#263238"/>
        <path id="Path_3841" data-name="Path 3841" d="M176.715,408.955a21.806,21.806,0,0,0,4.642.862.373.373,0,0,0,.4-.21.412.412,0,0,0,0-.443c-.422-.559-4.086-5.383-6.374-5.243a1.546,1.546,0,0,0-1.288.816,2.427,2.427,0,0,0-.2,2.33A4.691,4.691,0,0,0,176.715,408.955Zm3.775,0c-3.2-.4-5.352-1.212-5.885-2.33a1.5,1.5,0,0,1,.178-1.491.775.775,0,0,1,.622-.419c1.2-.047,3.553,2.307,5.086,4.194Z" transform="translate(-139.551 206.223)" fill="#7d25f5"/>
        <path id="Path_3842" data-name="Path 3842" d="M178.316,411.316h.2a.424.424,0,0,0,.311-.233c0-.21,2.043-4.94.888-7.13a2.228,2.228,0,0,0-1.466-1.1,1.565,1.565,0,0,0-1.8.722c-1,1.724.355,6.058,1.688,7.6A.359.359,0,0,0,178.316,411.316Zm0-7.6a1.194,1.194,0,0,1,.711.629,9.177,9.177,0,0,1-.644,5.709c-1.044-1.724-1.843-4.94-1.177-6.058,0-.21.333-.443.911-.326Z" transform="translate(-136.599 204.724)" fill="#7d25f5"/>
        <path id="Path_3843" data-name="Path 3843" d="M286.669,169.481c-1.488,3.775-2.909,7.13-4.442,10.579s-3.176,6.827-4.841,10.206c-3.376,6.734-6.929,13.375-10.838,19.853a181.226,181.226,0,0,1-27.983,36.746l-.4.419a9.468,9.468,0,0,1-1.866,1.375,15.016,15.016,0,0,1-5.974,1.887,24.021,24.021,0,0,1-3.6,0,35.6,35.6,0,0,1-5.33-.769,87.8,87.8,0,0,1-8.706-2.47,166.31,166.31,0,0,1-15.546-6.268q-7.5-3.355-14.769-7.293c-4.841-2.633-9.594-5.266-14.3-8.249a5.785,5.785,0,0,1-2.169-6.96,5.319,5.319,0,0,1,6.211-3.339h0c10.3,2.61,20.587,5.522,30.715,8.109,5.041,1.328,10.083,2.493,14.924,3.472a59.636,59.636,0,0,0,6.907,1.049,21.531,21.531,0,0,0,2.621,0h.378a4.167,4.167,0,0,0-2.221.722l-2.221,1.794a154.531,154.531,0,0,0,11.926-15.8c3.731-5.662,7.262-11.651,10.66-17.662s6.663-12.326,9.75-18.641,6.152-12.816,8.883-18.9l.133-.3a11.935,11.935,0,0,1,16.046-6.466,13.008,13.008,0,0,1,6.163,16.835Z" transform="translate(-149.545 -50.859)" fill="#ffc3bd"/>
        <path id="Path_3844" data-name="Path 3844" d="M236.931,148.626c-14.3.419-24.119,16.707-33.491,37a84.762,84.762,0,0,0,29.871,31.457S270.887,147.624,236.931,148.626Z" transform="translate(-103.226 -52.866)" fill="#e0e0e0"/>
        <path id="Path_3845" data-name="Path 3845" d="M173.421,192.977l-12.881-3.449,10.038-13.538s11.1,1.841,15.324,11.651l-4.575,3.425a9.4,9.4,0,0,1-7.906,1.911Z" transform="translate(-155.601 -23.879)" fill="#ffc3bd"/>
        <path id="Path_3846" data-name="Path 3846" d="M160.124,178.044l2.487-2.33a5.547,5.547,0,0,1,7.4-.163l3.287,2.773-10.038,13.538-4.109-6.711a5.667,5.667,0,0,1,.977-7.107Z" transform="translate(-158.316 -25.694)" fill="#ffc3bd"/>
        <path id="Path_3847" data-name="Path 3847" d="M265.424,432.157H247.857l-4.2-41.057h17.567Z" transform="translate(-54.123 189.173)" fill="#ffc3bd"/>
        <path id="Path_3848" data-name="Path 3848" d="M263.25,407.841h19.743a1.266,1.266,0,0,1,1.31,1.212l.955,15.752a3.162,3.162,0,0,1-3.087,3.169c-6.862-.14-10.149-.536-18.833-.536-5.33,0-19.988.559-27.428.559s-7.173-7.363-4.042-8.016c14.014-3.006,23.386-7.13,28.36-11.045A4.829,4.829,0,0,1,263.25,407.841Z" transform="translate(-71.049 211.438)" fill="#263238"/>
        <path id="Path_3849" data-name="Path 3849" d="M261.227,391.1H243.66l2.176,21.181H263.4Z" transform="translate(-54.123 189.173)" opacity="0.2"/>
        <path id="Path_3850" data-name="Path 3850" d="M224.81,215.557s3.887,154.067,6.663,204.84c3.109,55.6,29.426,220.312,29.426,220.312h32.2S286.039,473.9,280.709,419.348C282.93,359.6,284.4,215.51,284.4,215.51Z" transform="translate(-77.137 -44.381)" fill="#7d25f5"/>
        <path id="Path_3851" data-name="Path 3851" d="M277.163,405.026H240.652L238.92,392.7l39.22.7Z" transform="translate(-59.91 191.301)" fill="#263238"/>
        <path id="Path_3852" data-name="Path 3852" d="M244.23,411.713a21.465,21.465,0,0,0,4.686-.629.366.366,0,0,0,.289-.326.381.381,0,0,0-.155-.419c-.555-.373-5.53-3.821-7.684-2.959a1.564,1.564,0,0,0-.955,1.165,2.267,2.267,0,0,0,.511,2.33A4.731,4.731,0,0,0,244.23,411.713Zm3.553-1.212c-3.154.629-5.463.513-6.285-.3a1.523,1.523,0,0,1-.289-1.468.763.763,0,0,1,.444-.583C242.809,407.682,245.74,409.173,247.783,410.5Z" transform="translate(-58.247 210.642)" fill="#7d25f5"/>
        <path id="Path_3853" data-name="Path 3853" d="M246.438,413.426h.2a.491.491,0,0,0,.222-.35c0-.21.4-5.313-1.377-6.99a1.96,1.96,0,0,0-1.732-.559,1.572,1.572,0,0,0-1.488,1.235c-.4,1.934,2.221,5.639,3.975,6.687Zm-2.487-7.2a1.171,1.171,0,0,1,.888.373,9.238,9.238,0,0,1,1.155,5.639c-1.532-1.3-3.287-4.124-3.02-5.383,0-.256.2-.536.8-.606Z" transform="translate(-55.88 208.323)" fill="#7d25f5"/>
        <path id="Path_3854" data-name="Path 3854" d="M217.877,162.141a17.137,17.137,0,0,1,12.97-11.86,103.025,103.025,0,0,1,13.17-2.33,345.63,345.63,0,0,1,39.976,0c6.973.326,14.08,1.188,19.743,2.027h.2a10.7,10.7,0,0,1,7.387,4.454,11.752,11.752,0,0,1,2.007,8.688,562.98,562.98,0,0,0-8.683,71.93c-1.377,35.092.488,62.633-.178,71.092H210.482C204.774,220.556,212.147,181.644,217.877,162.141Z" transform="translate(-97.143 -38.302)" fill="#e0e0e0"/>
        <path id="Path_3855" data-name="Path 3855" d="M257.228,125.681a12.5,12.5,0,0,1,4.8,11.008,12.264,12.264,0,0,1-6.553,9.963c3.8,6.594-6.307,18.245-16.479,10.928S243.192,119.459,257.228,125.681Z" transform="translate(-64.004 -68.25)" fill="#263238"/>
        <path id="Path_3856" data-name="Path 3856" d="M232.046,136.725a7.967,7.967,0,0,1-7.038-3.911,8.819,8.819,0,0,1-.4-8.345c-4.73-1.934-3.886-12.769,4.642-13.235S242.173,134,232.046,136.725Z" transform="translate(-80.885 -86.379)" fill="#263238"/>
        <path id="Path_3857" data-name="Path 3857" d="M226.016,181.69a5.379,5.379,0,0,1-1.505-4.916,5.144,5.144,0,0,1,3.26-3.868c8.573-3.309,10.127-9.833,9.439-16.94a52.326,52.326,0,0,0-.933-5.942l14.547-12.186,10.7-8.948c-2.665,11.651-5.641,31.946,0,42.222a5.473,5.473,0,0,1-1.022,6.8c-3.687,3.425-11.237,7.853-23.674,7.154C231.124,184.766,227.948,183.391,226.016,181.69Z" transform="translate(-77.632 -62.885)" fill="#ffc3bd"/>
        <path id="Path_3858" data-name="Path 3858" d="M216.859,162.446A19.944,19.944,0,0,1,231.1,148.884a114.987,114.987,0,0,1,12.725-1.4,2.641,2.641,0,0,1,2.417.933,2.947,2.947,0,0,1,.582,2.632c-7.44,28.987-18.056,86.983-14.769,158.82a3.375,3.375,0,0,1-.9,2.424,3.057,3.057,0,0,1-2.3.978H210.2a3.239,3.239,0,0,1-3.22-3.076C201.358,222.423,211.285,178.687,216.859,162.446Z" transform="translate(-100.944 -38.188)" fill="#263238"/>
        <path id="Path_3859" data-name="Path 3859" d="M271,148.732a168.411,168.411,0,0,0-18.011-1.724h0a4.671,4.671,0,0,0-4.841,3.682C241.238,182.612,235.087,253.54,234.82,310.6a3.226,3.226,0,0,0,3.22,3.239h33.313a3.222,3.222,0,0,0,3.22-3.169c.222-11.487-1.288-38.4,0-71.814a524.4,524.4,0,0,1,8.528-70.882C284.256,161.431,277.594,149.71,271,148.732Z" transform="translate(-64.916 -38.804)" fill="#263238"/>
        <path id="Path_3860" data-name="Path 3860" d="M268.656,155.415c7.129,11.278,13.614,22.579,19.743,34.439,3.02,5.942,6,11.977,8.684,18.315,1.333,3.169,2.643,6.408,3.864,9.833a71.851,71.851,0,0,1,3.109,11.418,29.025,29.025,0,0,1,.355,8.621,38.763,38.763,0,0,1-1.71,6.827,70.561,70.561,0,0,1-4.642,10.439,160.618,160.618,0,0,1-10.9,17.429,280.158,280.158,0,0,1-25.14,30.431,5.834,5.834,0,0,1-8.021.5,6.55,6.55,0,0,1-1.4-8.3v-.14c6.463-10.928,12.992-22.066,18.9-33.111,2.932-5.5,5.73-11.091,7.973-16.5s3.887-11.324,2.732-11.487a61.9,61.9,0,0,0-2.576-7.27c-1.11-2.656-2.376-5.406-3.709-8.132-2.709-5.476-5.619-11.045-8.661-16.521-6.085-11-12.57-22.089-18.988-32.831v-.14a13.114,13.114,0,0,1,3.609-17.6,11.8,11.8,0,0,1,16.779,3.786Z" transform="translate(-50.87 -54.377)" fill="#ffc3bd"/>
        <path id="Path_3861" data-name="Path 3861" d="M256.976,147.613c14.3-.28,21.875,12.42,31.247,32.622-10.616,20.621-30.87,29.546-30.87,29.546S228.86,148.125,256.976,147.613Z" transform="translate(-53.004 -37.988)" fill="#e0e0e0"/>
        <path id="Path_3862" data-name="Path 3862" d="M251.389,212.408l-8.239,2.75,15.257,12.163s12.481-6.8,8.573-12.979l-2.532-1.188a17.7,17.7,0,0,0-13.059-.746Z" transform="translate(-54.746 12.291)" fill="#ffc3bd"/>
        <path id="Path_3863" data-name="Path 3863" d="M241.507,223.742l9.261,9.763a2.942,2.942,0,0,0,2.275.9,2.975,2.975,0,0,0,2.167-1.152l6.152-8.016L246.1,213.07l-4.753,6.827A2.946,2.946,0,0,0,241.507,223.742Z" transform="translate(-57.722 13.616)" fill="#ffc3bd"/>
        <path id="Path_3864" data-name="Path 3864" d="M229.75,144.956a52.33,52.33,0,0,1,.933,5.942c5.508,1.468,13.325-5.15,14.058-10.765a37.521,37.521,0,0,0-.444-7.363Z" transform="translate(-71.106 -57.724)" opacity="0.2"/>
        <path id="Path_3865" data-name="Path 3865" d="M273.813,138.376c-3.753,17.2-5.086,27.449-15.168,35.115a22.219,22.219,0,0,1-23.136,2.541,24.22,24.22,0,0,1-13.53-19.854c-1.288-16.124,5.064-41.546,23.008-46.066S277.566,121.157,273.813,138.376Z" transform="translate(-80.79 -88.915)" fill="#ffc3bd"/>
        <path id="Path_3866" data-name="Path 3866" d="M264.747,165.077c-4.753.256-9.816-17.336.666-25.818-1.666.955-6.218-.792-5.419-4.078-3.087,1.351-16.59.769-13.325-4.986-6.862,1.864-21.831-1.258-23.43-8.132s6.13-7.107,7.329-6.2c-3.4-4.986-3.331-12.3,5.685-14.959s22.608,11.021,22.608,11.021c-1.421-3.612,3.576-6.524,8.75-3.425s7.6,11.907,7.6,11.907c0-2.656,12.081.909,6.352,12.047,5.93,2.33,8.639,5.639,8.262,11.394s-4.131,6.082-4.131,6.082a10.29,10.29,0,0,1-3.265,11.837C276.273,166.964,270.9,160.859,264.747,165.077Z" transform="translate(-79.319 -100.563)" fill="#263238"/>
        <path id="Path_3867" data-name="Path 3867" d="M253.616,134.4a16.054,16.054,0,0,1-8.728,6.641c-4.575,1.282-6.13-3.006-4.264-7.48,1.688-4.031,6.085-9.577,10.394-8.878S256.192,130.393,253.616,134.4Z" transform="translate(-58.772 -68.559)" fill="#ffc3bd"/>
        <path id="Path_3868" data-name="Path 3868" d="M234.857,123.086c-.222,1.4-1.155,2.447-2.065,2.33s-1.488-1.375-1.266-2.8,1.155-2.33,2.065-2.33S234.968,121.665,234.857,123.086Z" transform="translate(-68.995 -74.324)" fill="#263238"/>
        <path id="Path_3869" data-name="Path 3869" d="M227.525,121.756c-.222,1.421-1.133,2.47-2.043,2.33s-1.488-1.375-1.266-2.8,1.133-2.33,2.043-2.33S227.747,120.358,227.525,121.756Z" transform="translate(-77.92 -76.093)" fill="#263238"/>
        <path id="Path_3870" data-name="Path 3870" d="M233.295,121.52a51.913,51.913,0,0,1-8.595,11.115,8.091,8.091,0,0,0,6.507,2.33Z" transform="translate(-77.271 -72.688)" fill="#ed847e"/>
        <path id="Path_3871" data-name="Path 3871" d="M230.011,132.276a11.82,11.82,0,0,0,9.083-2.8.459.459,0,0,0,0-.606.428.428,0,0,0-.577,0,11.286,11.286,0,0,1-9.972,2.33.384.384,0,0,0-.311.053.42.42,0,0,0-.178.273.412.412,0,0,0,.052.317.376.376,0,0,0,.259.172A10.829,10.829,0,0,0,230.011,132.276Z" transform="translate(-73.187 -63.055)" fill="#263238"/>
        <path id="Path_3872" data-name="Path 3872" d="M233.63,117.368a.812.812,0,0,0-.355.21.843.843,0,0,0,0,1.188,7.839,7.839,0,0,0,6.973,2.75.769.769,0,0,0,.543-.32.846.846,0,0,0,.145-.636A.867.867,0,0,0,240.6,120a.791.791,0,0,0-.616-.141,6.274,6.274,0,0,1-5.441-2.33A.856.856,0,0,0,233.63,117.368Z" transform="translate(-67.101 -78.299)" fill="#263238"/>
        <path id="Path_3873" data-name="Path 3873" d="M223.848,116.974a.914.914,0,0,0,.777,0,6.934,6.934,0,0,1,6.13-.163.822.822,0,0,0,1.133-.3.909.909,0,0,0-.333-1.165h0a8.509,8.509,0,0,0-7.684,0,.779.779,0,0,0-.415.476.827.827,0,0,0,.06.642A.911.911,0,0,0,223.848,116.974Z" transform="translate(-78.839 -82.123)" fill="#263238"/>
      </g>
    </g>
    <rect id="Rectangle_17139" data-name="Rectangle 17139" width="405.443" height="106.637" transform="translate(245.487 82.699)" fill="#7d25f5"/>
    <g transform="matrix(1, 0, 0, 1, -1, 0)" filter="url(#Rectangle_17140)">
      <rect id="Rectangle_17140-2" data-name="Rectangle 17140" width="389.892" height="106.637" transform="translate(262.04 97.14)" fill="#fff"/>
    </g>
    <text id="who_are_we_" data-name="who are we?" transform="translate(282.144 169.245)" fill="#100f0f" font-size="53" font-family="Montserrat" font-weight="500"><tspan x="0" y="0">who are we?</tspan></text>
    <text id="Lorem_Ipsum_is_simply_dummy_text_of_printing_and_typesetting_industry._Lorem_Ipsum_has_been_the_industry_s_standard_dummy_text_ever_since_the_1500s_when_an_unknown_printer_took_a_galley_of_type_and_scrambled_it_to_make_a_type_specimen_book._It_has_" data-name="Lorem Ipsum is simply dummy text of 
 printing and typesetting industry. Lorem
 Ipsum has been the industry&apos;s standard 
dummy text ever since the 1500s, when an 
unknown printer took a galley of type and 
scrambled it to make a type specimen
 book. It has " transform="translate(436 367.186)" fill="#100f0f" font-size="40" font-family="Montserrat" font-weight="500"><tspan x="-390.1" y="0">Lorem Ipsum is simply dummy text of </tspan><tspan x="-419.02" y="49" xml:space="preserve"> printing and typesetting industry. Lorem</tspan><tspan x="-413.34" y="98" xml:space="preserve"> Ipsum has been the industry&apos;s standard </tspan><tspan x="-436.04" y="147">dummy text ever since the 1500s, when an </tspan><tspan x="-431.12" y="196">unknown printer took a galley of type and </tspan><tspan x="-387.76" y="245">scrambled it to make a type specimen</tspan><tspan x="-348.24" y="294" xml:space="preserve"> book. It has survived not only five </tspan><tspan x="0" y="343"></tspan></text>
    <text id="Lorem_Ipsum_is_simply_dummy_text_of_printing_and_typesetting_industry._Lorem_Ipsum_has_been_the_industry_s_standard_dummy_text_ever_since_the_1500s_when_an_unknown_printer_took_a_galley_of_type_and_scrambled_it_to_make_a_type_specimen_book._It_has_2" data-name="Lorem Ipsum is simply dummy text of 
 printing and typesetting industry. Lorem
 Ipsum has been the industry&apos;s standard 
dummy text ever since the 1500s, when an 
unknown printer took a galley of type and 
scrambled it to make a type specimen
 book. It has " transform="translate(1371.851 1098.187)" fill="#100f0f" font-size="40" font-family="Montserrat" font-weight="500"><tspan x="-390.1" y="0">Lorem Ipsum is simply dummy text of </tspan><tspan x="-419.02" y="49" xml:space="preserve"> printing and typesetting industry. Lorem</tspan><tspan x="-413.34" y="98" xml:space="preserve"> Ipsum has been the industry&apos;s standard </tspan><tspan x="-436.04" y="147">dummy text ever since the 1500s, when an </tspan><tspan x="-431.12" y="196">unknown printer took a galley of type and </tspan><tspan x="-387.76" y="245">scrambled it to make a type specimen</tspan><tspan x="-348.24" y="294" xml:space="preserve"> book. It has survived not only five </tspan><tspan x="-390.1" y="343">Lorem Ipsum is simply dummy text of </tspan><tspan x="-419.02" y="392" xml:space="preserve"> printing and typesetting industry. Lorem</tspan><tspan x="-413.34" y="441" xml:space="preserve"> Ipsum has been the industry&apos;s standard </tspan><tspan x="-436.04" y="490">dummy text ever since the 1500s, when an </tspan><tspan x="-431.12" y="539">unknown printer took a galley of type and </tspan><tspan x="-387.76" y="588">scrambled it to make a type specimen</tspan><tspan x="-348.24" y="637" xml:space="preserve"> book. It has survived not only five </tspan><tspan x="0" y="686"></tspan><tspan x="0" y="735"></tspan></text>
  </g>
</svg>
