<svg xmlns="http://www.w3.org/2000/svg" width="1083.373" height="664.885" viewBox="0 0 1083.373 664.885">
  <g id="Group_1011" data-name="Group 1011" transform="translate(-182.436 -270.574)">
    <g id="Online_calendar-cuate_1_" data-name="Online calendar-cuate (1)" transform="translate(-43.5 270.574)">
      <g id="freepik--Device--inject-32" transform="translate(225.936 0)">
        <line id="Line_10" data-name="Line 10" y1="1.632" transform="translate(100.948)" fill="none"/>
        <rect id="Rectangle_17022" data-name="Rectangle 17022" width="903.108" height="641.995" transform="translate(180.265 22.89)" fill="#fff"/>
        <rect id="Rectangle_17023" data-name="Rectangle 17023" width="10.915" height="152.789" rx="1.25" transform="translate(0 245.832)" fill="#455a64"/>
        <rect id="Rectangle_17024" data-name="Rectangle 17024" width="903.108" height="641.995" transform="translate(180.265 22.89)" fill="#fff"/>
        <rect id="Rectangle_17025" data-name="Rectangle 17025" width="903.108" height="22.063" transform="translate(36.285 0.827)" fill="#455a64"/>
        <path id="Path_2900" data-name="Path 2900" d="M178.909,95.934a4.514,4.514,0,1,1-1.33-3.2,4.514,4.514,0,0,1,1.33,3.2Z" transform="translate(-125.224 -84.087)" fill="#c7c7c7"/>
        <ellipse id="Ellipse_201" data-name="Ellipse 201" cx="4.514" cy="4.514" rx="4.514" ry="4.514" transform="translate(63.116 7.333)" fill="#fff"/>
        <ellipse id="Ellipse_202" data-name="Ellipse 202" cx="4.514" cy="4.514" rx="4.514" ry="4.514" transform="translate(81.577 7.333)" fill="#7d25f5"/>
        <rect id="Rectangle_17026" data-name="Rectangle 17026" width="58.878" height="45.758" transform="translate(242.555 389.847)" fill="#ebebeb"/>
        <rect id="Rectangle_17028" data-name="Rectangle 17028" width="58.878" height="45.758" transform="translate(319.617 389.847)" fill="#ebebeb"/>
        <rect id="Rectangle_17029" data-name="Rectangle 17029" width="58.878" height="45.758" transform="translate(397.188 389.847)" fill="#ebebeb"/>
        <rect id="Rectangle_17030" data-name="Rectangle 17030" width="58.878" height="45.758" transform="translate(474.505 389.847)" fill="#ebebeb"/>
        <rect id="Rectangle_17031" data-name="Rectangle 17031" width="58.878" height="45.758" transform="translate(551.821 389.847)" fill="#ebebeb"/>
        <rect id="Rectangle_17032" data-name="Rectangle 17032" width="58.878" height="45.758" transform="translate(629.117 389.847)" fill="#7d25f5"/>
        <rect id="Rectangle_17033" data-name="Rectangle 17033" width="58.878" height="45.758" transform="translate(629.117 389.847)" fill="#fff" opacity="0.6"/>
        <rect id="Rectangle_17034" data-name="Rectangle 17034" width="58.878" height="45.758" transform="translate(706.433 389.847)" fill="#ebebeb"/>
        <rect id="Rectangle_17035" data-name="Rectangle 17035" width="58.878" height="45.758" transform="translate(242.555 453.218)" fill="#ebebeb"/>
        <rect id="Rectangle_17037" data-name="Rectangle 17037" width="58.878" height="45.758" transform="translate(319.872 453.218)" fill="#ebebeb"/>
        <rect id="Rectangle_17038" data-name="Rectangle 17038" width="58.878" height="45.758" transform="translate(397.188 453.218)" fill="#ebebeb"/>
        <rect id="Rectangle_17039" data-name="Rectangle 17039" width="58.878" height="45.758" transform="translate(474.505 453.218)" fill="#ebebeb"/>
        <rect id="Rectangle_17040" data-name="Rectangle 17040" width="58.878" height="45.758" transform="translate(551.821 453.218)" fill="#ebebeb"/>
        <rect id="Rectangle_17041" data-name="Rectangle 17041" width="58.878" height="45.758" transform="translate(629.117 453.218)" fill="#ebebeb"/>
        <rect id="Rectangle_17042" data-name="Rectangle 17042" width="58.878" height="45.758" transform="translate(706.433 453.218)" fill="#ebebeb"/>
        <rect id="Rectangle_17043" data-name="Rectangle 17043" width="58.878" height="45.758" transform="translate(474.505 326.497)" fill="#ebebeb"/>
        <rect id="Rectangle_17044" data-name="Rectangle 17044" width="58.878" height="45.758" transform="translate(551.821 326.497)" fill="#ebebeb"/>
        <rect id="Rectangle_17045" data-name="Rectangle 17045" width="58.878" height="45.758" transform="translate(629.117 326.497)" fill="#ebebeb"/>
        <rect id="Rectangle_17046" data-name="Rectangle 17046" width="58.878" height="45.758" transform="translate(706.433 326.497)" fill="#ebebeb"/>
        <rect id="Rectangle_17047" data-name="Rectangle 17047" width="58.878" height="45.758" transform="translate(242.555 516.589)" fill="#ebebeb"/>
        <rect id="Rectangle_17049" data-name="Rectangle 17049" width="58.878" height="45.758" transform="translate(319.872 516.589)" fill="#ebebeb"/>
        <rect id="Rectangle_17050" data-name="Rectangle 17050" width="58.878" height="45.758" transform="translate(397.188 516.589)" fill="#ebebeb"/>
        <rect id="Rectangle_17051" data-name="Rectangle 17051" width="58.878" height="45.758" transform="translate(474.505 516.589)" fill="#ebebeb"/>
        <rect id="Rectangle_17053" data-name="Rectangle 17053" width="58.878" height="45.758" transform="translate(551.821 516.589)" fill="#ebebeb"/>
        <rect id="Rectangle_17054" data-name="Rectangle 17054" width="58.878" height="45.758" transform="translate(629.117 516.589)" fill="#ebebeb"/>
        <rect id="Rectangle_17055" data-name="Rectangle 17055" width="58.878" height="45.758" transform="translate(706.433 516.589)" fill="#ebebeb"/>
        <rect id="Rectangle_17056" data-name="Rectangle 17056" width="58.878" height="45.758" transform="translate(242.555 579.938)" fill="#ebebeb"/>
        <rect id="Rectangle_17058" data-name="Rectangle 17058" width="58.878" height="45.758" transform="translate(319.872 579.938)" fill="#ebebeb"/>
        <rect id="Rectangle_17059" data-name="Rectangle 17059" width="58.878" height="45.758" transform="translate(397.188 579.938)" fill="#ebebeb"/>
        <rect id="Rectangle_17060" data-name="Rectangle 17060" width="58.878" height="45.758" transform="translate(474.505 579.938)" fill="#ebebeb"/>
        <rect id="Rectangle_17061" data-name="Rectangle 17061" width="58.878" height="45.758" transform="translate(551.821 579.938)" fill="#ebebeb"/>
        <path id="Path_2901" data-name="Path 2901" d="M205.777,227.128a1.95,1.95,0,0,1,2.755-.254,12.568,12.568,0,0,0,7.27,2.925,8.139,8.139,0,0,0,4.748-1.42,3.433,3.433,0,0,0,1.632-2.734,2.119,2.119,0,0,0-.36-1.208,3.328,3.328,0,0,0-1.123-1.144,15.386,15.386,0,0,0-5.214-1.78h0a20.388,20.388,0,0,1-4.9-1.484,7.969,7.969,0,0,1-3.539-2.967,5.765,5.765,0,0,1-.869-3.094,7.037,7.037,0,0,1,3.031-5.553,11.233,11.233,0,0,1,6.57-2.013,14.963,14.963,0,0,1,8.287,3.031,1.971,1.971,0,0,1,.53,2.692,1.929,1.929,0,0,1-2.713.572,10.957,10.957,0,0,0-6.1-2.416,7.269,7.269,0,0,0-4.239,1.293,3.01,3.01,0,0,0-1.441,2.4,1.886,1.886,0,0,0,.276,1.06,3.751,3.751,0,0,0,1.017.975,13.247,13.247,0,0,0,4.748,1.674h0a22.656,22.656,0,0,1,5.235,1.589,8.965,8.965,0,0,1,3.794,3.158,6.146,6.146,0,0,1,.911,3.222,7.312,7.312,0,0,1-3.264,5.892,11.784,11.784,0,0,1-7.015,2.119,16.341,16.341,0,0,1-9.728-3.794,1.992,1.992,0,0,1-.3-2.734Z" transform="translate(58.481 66.688)" fill="#7d25f5"/>
        <path id="Path_2902" data-name="Path 2902" d="M263.146,208.859v22.4a2.119,2.119,0,1,1-4.239,0v-15.98l-5.468,7.588a2.119,2.119,0,0,1-1.717.89h0a2.12,2.12,0,0,1-1.738-.89l-5.426-7.588v15.98a2.119,2.119,0,0,1-4.239,0v-22.4a2.119,2.119,0,0,1,2.119-2.119h.127a2.119,2.119,0,0,1,1.674.869l7.545,10.6,7.566-10.6a2.119,2.119,0,0,1,1.7-.869h0A2.119,2.119,0,0,1,263.146,208.859Z" transform="translate(97.609 67.069)" fill="#7d25f5"/>
        <path id="Path_2903" data-name="Path 2903" d="M296.418,210.989h-6.04v20.262a2.119,2.119,0,1,1-4.239,0V210.989h-6.019a2.119,2.119,0,1,1,0-4.239h16.214a2.12,2.12,0,0,1,.085,4.239Z" transform="translate(139.789 67.08)" fill="#7d25f5"/>
        <path id="Path_2904" data-name="Path 2904" d="M345.488,209.737l-9.3,22.148a1.292,1.292,0,0,1-.191.339h0a1.843,1.843,0,0,1-.191.233v.106l-.254.191h0c-.127,0-.191.191-.339.233h-.3a1.061,1.061,0,0,1-.381,0,.933.933,0,0,1-.339,0h-.678a.763.763,0,0,1-.36-.233h0c-.127,0-.191-.148-.275-.191a.19.19,0,0,1,0-.106,1.677,1.677,0,0,1-.17-.233h0a.616.616,0,0,1-.148-.339l-5.129-11.763-4.981,11.763a2.66,2.66,0,0,1-.148.339h0a2.408,2.408,0,0,1-.233.233v.106a1.019,1.019,0,0,0-.233.191h0a2.323,2.323,0,0,1-.3.233h0a.55.55,0,0,0-.3,0h-.106a1,1,0,0,1-.339,0,1.1,1.1,0,0,1-.382,0h-.381a1.207,1.207,0,0,1-.339-.233h0a1.064,1.064,0,0,0-.254-.191v-.106l-.191-.233h0a.412.412,0,0,0-.191-.339l-9.347-22.148a2.076,2.076,0,0,1,3.836-1.59l7.46,17.591,4.9-11.657a2.149,2.149,0,0,1,3.942,0l4.9,11.657,7.418-17.591a1.845,1.845,0,1,1,3.328,1.59Z" transform="translate(175.136 67.251)" fill="#7d25f5"/>
        <path id="Path_2905" data-name="Path 2905" d="M368.739,210.989h-6.146v20.262a2.119,2.119,0,0,1-4.239,0V210.989h-5.934a2.119,2.119,0,1,1,0-4.239h16.32a2.119,2.119,0,0,1,0,4.239Z" transform="translate(220.723 67.08)" fill="#7d25f5"/>
        <path id="Path_2906" data-name="Path 2906" d="M388,231.262v-22.4a2.119,2.119,0,0,1,2.119-2.119h12.42a2.119,2.119,0,1,1,0,4.239h-10.3v6.909H401.1a2.119,2.119,0,0,1,0,4.239h-8.859v9.113a2.119,2.119,0,0,1-4.239.021Z" transform="translate(262.926 67.069)" fill="#7d25f5"/>
        <path id="Path_2907" data-name="Path 2907" d="M423.534,227.128a1.971,1.971,0,0,1,2.776-.254,12.5,12.5,0,0,0,7.249,2.925,8.139,8.139,0,0,0,4.748-1.42,3.391,3.391,0,0,0,1.632-2.734,2.287,2.287,0,0,0-.339-1.208,3.645,3.645,0,0,0-1.144-1.144,15.388,15.388,0,0,0-5.214-1.78h0a20.684,20.684,0,0,1-4.9-1.484,8.2,8.2,0,0,1-3.54-2.967,5.765,5.765,0,0,1-.869-3.094,7.036,7.036,0,0,1,3.031-5.553,11.233,11.233,0,0,1,6.57-2.013,14.963,14.963,0,0,1,8.287,3.031,1.95,1.95,0,0,1,.53,2.692,1.907,1.907,0,0,1-2.692.572,11.021,11.021,0,0,0-6.125-2.416,7.312,7.312,0,0,0-4.239,1.293,3.01,3.01,0,0,0-1.441,2.395,1.885,1.885,0,0,0,.275,1.06,3.75,3.75,0,0,0,1.017.975,13.4,13.4,0,0,0,4.747,1.674h0a22.336,22.336,0,0,1,5.235,1.59,8.838,8.838,0,0,1,3.794,3.158,6.146,6.146,0,0,1,.911,3.221,7.312,7.312,0,0,1-3.264,5.892,11.783,11.783,0,0,1-7.015,2.119,16.341,16.341,0,0,1-9.728-3.794,2.119,2.119,0,0,1-.3-2.734Z" transform="translate(302.292 66.688)" fill="#7d25f5"/>
        <path id="Path_2908" data-name="Path 2908" d="M207.094,283.9a.593.593,0,0,1,0-.848.636.636,0,0,1,.869,0,4.493,4.493,0,0,0,6.358,0,4.5,4.5,0,0,0-6.358-6.358.572.572,0,0,1-.827,0,.318.318,0,0,1-.148-.191h0a.466.466,0,0,1,0-.191.927.927,0,0,0,0-.106l.805-6.8a.7.7,0,0,1,.636-.572h7.842a.615.615,0,1,1,0,1.208h-7.333l-.615,5a5.7,5.7,0,0,1,8.562,4.938,5.617,5.617,0,0,1-1.674,4.048,5.722,5.722,0,0,1-8.1,0Z" transform="translate(60.216 136.568)" fill="#263238"/>
        <path id="Path_2909" data-name="Path 2909" d="M244.559,272.447a6.782,6.782,0,0,1,5.892-3.667.572.572,0,0,1,.593.551.636.636,0,0,1-.572.636,5.7,5.7,0,0,0-4.917,3.052,11.593,11.593,0,0,0-1.208,3.37,5.553,5.553,0,1,1-1.4,3.857,9.371,9.371,0,0,1,0-1.1,13.754,13.754,0,0,1,1.611-6.7Zm-.424,7.715a1.255,1.255,0,0,0,0,.3.359.359,0,0,1,0,.169,4.514,4.514,0,1,0,0-.572Z" transform="translate(100.533 136.518)" fill="#263238"/>
        <path id="Path_2910" data-name="Path 2910" d="M282.062,284.8l6.252-14.836h-8.16a.593.593,0,0,1,0-1.166h8.923a.551.551,0,0,1,.678.4.51.51,0,0,1,0,.191.487.487,0,0,1,0,.3l-6.528,15.535a.636.636,0,0,1-.551.36.362.362,0,0,1-.233,0,.615.615,0,0,1-.382-.784Z" transform="translate(141.661 136.519)" fill="#263238"/>
        <path id="Path_2911" data-name="Path 2911" d="M320.911,268.77a3.518,3.518,0,0,1,3.518,3.5,3.6,3.6,0,0,1-1.441,2.84,5.468,5.468,0,1,1-4.239,0,3.582,3.582,0,0,1-1.4-2.84,3.5,3.5,0,0,1,3.561-3.5Zm0,15.7a4.239,4.239,0,1,0-4.239-4.239A4.239,4.239,0,0,0,320.911,284.475Zm0-9.834a2.4,2.4,0,0,0,2.352-2.374,2.352,2.352,0,0,0-2.352-2.353,2.31,2.31,0,0,0-2.331,2.353,2.353,2.353,0,0,0,2.331,2.374Z" transform="translate(181.655 136.506)" fill="#263238"/>
        <path id="Path_2912" data-name="Path 2912" d="M357.91,268.77a5.532,5.532,0,0,1,5.532,4.917.275.275,0,0,0,0,.106q0,.7,0,1.463a14.159,14.159,0,0,1-1.611,6.719,7.037,7.037,0,0,1-5.913,3.667h0a.572.572,0,0,1-.593-.572.614.614,0,0,1,.572-.615,5.786,5.786,0,0,0,4.917-3.052,11.339,11.339,0,0,0,1.208-3.391,5.574,5.574,0,1,1-4.239-9.241Zm4.408,5.532a4.366,4.366,0,1,0-1.286,3.116,4.408,4.408,0,0,0,1.286-3.116Z" transform="translate(222.905 136.506)" fill="#263238"/>
        <path id="Path_2913" data-name="Path 2913" d="M390.444,270.5l-2.374,1.378a.509.509,0,0,1-.3,0,.614.614,0,0,1-.509-.3.551.551,0,0,1,.212-.784l3.264-1.971a.594.594,0,0,1,.784.212.615.615,0,0,1,0,.424v15.493a.583.583,0,1,1-1.166,0Z" transform="translate(262.007 136.492)" fill="#263238"/>
        <path id="Path_2914" data-name="Path 2914" d="M391.352,277.225a10.746,10.746,0,0,1,1.611-5.913,4.79,4.79,0,0,1,8.478,0,10.938,10.938,0,0,1,1.632,5.913,10.745,10.745,0,0,1-1.632,5.871,4.748,4.748,0,0,1-8.478,0A10.6,10.6,0,0,1,391.352,277.225Zm1.187,0a9.517,9.517,0,0,0,1.42,5.214,3.561,3.561,0,0,0,6.358,0,10.067,10.067,0,0,0,0-10.449,3.582,3.582,0,0,0-6.358,0A9.537,9.537,0,0,0,392.538,277.225Z" transform="translate(266.674 136.487)" fill="#263238"/>
        <path id="Path_2915" data-name="Path 2915" d="M428.2,270.5l-2.395,1.378a.444.444,0,0,1-.276,0,.573.573,0,0,1-.509-.3.551.551,0,0,1,.212-.784l3.243-1.971a.615.615,0,0,1,.805.212.742.742,0,0,1,0,.424v15.493a.572.572,0,0,1-.572.593.593.593,0,0,1-.572-.593Z" transform="translate(304.277 136.491)" fill="#263238"/>
        <path id="Path_2916" data-name="Path 2916" d="M432.014,270.5l-2.395,1.378a.445.445,0,0,1-.276,0,.572.572,0,0,1-.509-.3.551.551,0,0,1,.212-.784l3.243-1.971a.615.615,0,0,1,.805.212.744.744,0,0,1,0,.424v15.493a.572.572,0,0,1-.572.593.593.593,0,0,1-.572-.593Z" transform="translate(308.542 136.491)" fill="#263238"/>
        <path id="Path_2917" data-name="Path 2917" d="M320.175,240.07l-2.374,1.4a.7.7,0,0,1-.3,0,.593.593,0,0,1-.509-.276.572.572,0,0,1,.212-.805l3.264-1.971a.593.593,0,0,1,.784.212.678.678,0,0,1,0,.445v15.493a.583.583,0,0,1-1.166,0Z" transform="translate(183.345 102.45)" fill="#263238"/>
        <path id="Path_2918" data-name="Path 2918" d="M352.635,254.137l7.863-7.1a4.267,4.267,0,0,0-2.882-7.482,4.43,4.43,0,0,0-2.946,1.1l-.805.742a.577.577,0,1,1-.827-.805l.827-.784a5.659,5.659,0,0,1,3.73-1.42,5.426,5.426,0,0,1,4.048,1.8,5.341,5.341,0,0,1,1.441,3.688,5.574,5.574,0,0,1-1.8,4.112l-6.74,6.083h7.969a.594.594,0,0,1,0,1.187h-9.474a.487.487,0,0,1-.424-.17.615.615,0,0,1,.021-.954Z" transform="translate(223.072 102.498)" fill="#263238"/>
        <path id="Path_2919" data-name="Path 2919" d="M399.433,239.331l-4.366,4.557a5.638,5.638,0,0,1,2.882,1.526,5.7,5.7,0,0,1,1.674,4.048,5.553,5.553,0,0,1-1.7,4.048,5.68,5.68,0,0,1-4.048,1.7,5.616,5.616,0,0,1-4.027-1.7.592.592,0,1,1,.848-.827,4.514,4.514,0,0,0,7.693-3.222,4.451,4.451,0,0,0-1.336-3.18,4.387,4.387,0,0,0-3.179-1.314.572.572,0,0,1-.466-.254h0a.593.593,0,0,1,0-.848l4.239-4.239h-6.358a.594.594,0,0,1-.615-.593.615.615,0,0,1,.615-.615h7.863a.615.615,0,0,1,.615.615.36.36,0,0,1,0,.254.4.4,0,0,1-.339.042Z" transform="translate(264.803 102.532)" fill="#263238"/>
        <path id="Path_2920" data-name="Path 2920" d="M434.652,251.619h-9.2a.53.53,0,0,1-.36,0,.572.572,0,0,1,0-.827l9.77-12.144h0a.53.53,0,0,1,.805,0,.783.783,0,0,1,.191.3h0V250.58H437a.572.572,0,1,1,0,1.144H435.86v2.713a.593.593,0,0,1-1.166,0Zm0-1.144V240.6l-7.969,9.876Z" transform="translate(304.251 102.58)" fill="#263238"/>
        <path id="Path_2921" data-name="Path 2921" d="M207.4,329.939l-2.395,1.4a.615.615,0,0,1-.275.106.572.572,0,0,1-.509-.3.53.53,0,0,1,.212-.784l3.264-1.992a.615.615,0,0,1,.784.233.593.593,0,0,1,0,.424v15.578a.551.551,0,0,1-.572.572.572.572,0,0,1-.572-.572Z" transform="translate(57.091 203.16)" fill="#263238"/>
        <path id="Path_2922" data-name="Path 2922" d="M213.919,328.28a5.553,5.553,0,0,1,5.553,4.9v1.568a13.8,13.8,0,0,1-1.611,6.719,6.909,6.909,0,0,1-5.892,3.667h0a.572.572,0,0,1-.615-.551.615.615,0,0,1,.572-.615,5.723,5.723,0,0,0,4.917-3.073,10.172,10.172,0,0,0,1.208-3.37,5.489,5.489,0,0,1-4.239,1.865,5.553,5.553,0,1,1,0-11.106Zm4.408,5.532a1.824,1.824,0,1,1-.021,0Z" transform="translate(61.72 203.123)" fill="#263238"/>
        <path id="Path_2923" data-name="Path 2923" d="M239.411,344.091l7.863-7.1a4.239,4.239,0,0,0,1.462-3.222,4.367,4.367,0,0,0-7.291-3.2l-.805.742a.593.593,0,1,1-.805-.848l.827-.763a5.6,5.6,0,0,1,3.73-1.42,5.506,5.506,0,0,1,3.688,9.58l-6.74,6.1h8.011a.593.593,0,0,1,0,1.166h-9.537a.487.487,0,0,1-.424-.169A.615.615,0,0,1,239.411,344.091Z" transform="translate(96.378 203.123)" fill="#263238"/>
        <path id="Path_2924" data-name="Path 2924" d="M246.141,336.714a10.915,10.915,0,0,1,1.611-5.892,4.79,4.79,0,0,1,8.478,0,11.318,11.318,0,0,1,0,11.784,4.769,4.769,0,0,1-8.478,0,10.81,10.81,0,0,1-1.611-5.892Zm1.187,0a9.539,9.539,0,0,0,1.42,5.235,3.582,3.582,0,0,0,6.358,0,10.194,10.194,0,0,0,0-10.449,3.582,3.582,0,0,0-6.358,0,9.517,9.517,0,0,0-1.42,5.214Z" transform="translate(104.123 203.104)" fill="#263238"/>
        <path id="Path_2925" data-name="Path 2925" d="M277.892,344.08l7.884-7.1a4.336,4.336,0,0,0-5.828-6.422l-.827.742a.572.572,0,0,1-.827,0,.551.551,0,0,1,0-.827l.805-.763a5.514,5.514,0,1,1,7.418,8.16l-6.74,6.1h7.969a.593.593,0,1,1,0,1.166h-9.432a.487.487,0,0,1-.424-.169A.657.657,0,0,1,277.892,344.08Z" transform="translate(139.473 203.135)" fill="#263238"/>
        <path id="Path_2926" data-name="Path 2926" d="M287.549,329.94l-2.395,1.4a.615.615,0,0,1-.276.106.572.572,0,0,1-.509-.3.53.53,0,0,1,.212-.784l3.243-1.992a.636.636,0,0,1,.805.233.593.593,0,0,1,0,.424v15.578a.551.551,0,0,1-.572.572.572.572,0,0,1-.572-.572Z" transform="translate(146.813 203.159)" fill="#263238"/>
        <path id="Path_2927" data-name="Path 2927" d="M312.29,344.046l7.884-7.1a4.313,4.313,0,0,0-5.828-6.358l-.827.742a.577.577,0,1,1-.805-.827l.827-.763a5.522,5.522,0,0,1,9.22,4.069,5.6,5.6,0,0,1-1.8,4.09L314.2,344h7.99a.593.593,0,0,1,0,1.166h-9.5a.551.551,0,0,1-.445-.169.657.657,0,0,1,.043-.954Z" transform="translate(177.92 203.168)" fill="#263238"/>
        <path id="Path_2928" data-name="Path 2928" d="M319,344.046l7.884-7.1a4.313,4.313,0,0,0-5.828-6.358l-.827.742a.577.577,0,1,1-.805-.827l.827-.763a5.514,5.514,0,0,1,7.418,8.16l-6.761,6.1h7.99a.593.593,0,0,1,0,1.166h-9.5a.551.551,0,0,1-.445-.169.657.657,0,0,1,.042-.954Z" transform="translate(185.431 203.168)" fill="#263238"/>
        <path id="Path_2929" data-name="Path 2929" d="M349.262,344.091l7.884-7.1a4.336,4.336,0,1,0-5.828-6.422l-.827.742a.593.593,0,1,1-.805-.848l.827-.763a5.6,5.6,0,0,1,3.73-1.42,5.506,5.506,0,0,1,3.688,9.58l-6.74,6.1h7.969a.593.593,0,0,1,0,1.166h-9.5a.487.487,0,0,1-.424-.169.657.657,0,0,1,.021-.869Z" transform="translate(219.366 203.123)" fill="#263238"/>
        <path id="Path_2930" data-name="Path 2930" d="M365.848,329.295l-4.366,4.472a5.721,5.721,0,0,1-1.187,11.318,5.6,5.6,0,0,1-4.006-1.674.592.592,0,1,1,.827-.848,4.514,4.514,0,0,0,7.715-3.2,4.388,4.388,0,0,0-1.314-3.179,4.451,4.451,0,0,0-3.179-1.335.636.636,0,0,1-.487-.233h0a.593.593,0,0,1,0-.869l4.239-4.239H357.73a.593.593,0,0,1,0-1.187h7.884a.593.593,0,0,1,.593.593.508.508,0,0,1,0,.254Z" transform="translate(227.218 203.168)" fill="#263238"/>
        <path id="Path_2931" data-name="Path 2931" d="M386,344.091l7.884-7.1a4.336,4.336,0,1,0-5.828-6.422l-.827.742a.593.593,0,1,1-.805-.848l.827-.763a5.6,5.6,0,0,1,3.73-1.42,5.506,5.506,0,0,1,3.688,9.58l-6.74,6.1H395.9a.593.593,0,0,1,0,1.166h-9.495a.487.487,0,0,1-.424-.169A.657.657,0,0,1,386,344.091Z" transform="translate(260.494 203.123)" fill="#263238"/>
        <path id="Path_2932" data-name="Path 2932" d="M402,341.61h-9.2a.53.53,0,0,1-.36-.127.551.551,0,0,1,0-.827l9.749-12.144h0a.551.551,0,0,1,.805,0,.594.594,0,0,1,.191.276.424.424,0,0,0,0,.106v11.636h1.144a.593.593,0,1,1,0,1.166h-1.144v2.882a.593.593,0,0,1-1.166,0Zm0-1.166v-9.877l-7.99,9.877Z" transform="translate(267.685 203.188)" fill="#263238"/>
        <path id="Path_2933" data-name="Path 2933" d="M422.3,344.046l7.884-7.1a4.313,4.313,0,1,0-5.828-6.358l-.827.742a.577.577,0,1,1-.805-.827l.805-.763a5.6,5.6,0,0,1,3.751-1.42,5.493,5.493,0,0,1,3.667,9.58l-6.74,6.1h7.969a.593.593,0,1,1,0,1.166H422.7a.551.551,0,0,1-.445-.169.657.657,0,0,1,.042-.954Z" transform="translate(301.068 203.168)" fill="#263238"/>
        <path id="Path_2934" data-name="Path 2934" d="M429.179,343.365a.572.572,0,0,1,0-.848.594.594,0,0,1,.848,0,4.54,4.54,0,1,0,0-6.379.572.572,0,0,1-.827,0,.318.318,0,0,1-.191-.085h0a.533.533,0,0,1,0-.191.732.732,0,0,0,0-.127l.805-6.782a.641.641,0,0,1,.636-.572h7.863a.593.593,0,0,1,.593.593.572.572,0,0,1-.593.593H430.96l-.615,5.023a5.682,5.682,0,0,1,8.563,4.938,5.617,5.617,0,0,1-1.674,4.048,5.828,5.828,0,0,1-4.048,1.653,5.679,5.679,0,0,1-4.006-1.865Z" transform="translate(308.812 203.235)" fill="#263238"/>
        <path id="Path_2935" data-name="Path 2935" d="M203.307,373.652l7.884-7.1a4.43,4.43,0,0,0,1.441-3.243,4.239,4.239,0,0,0-1.123-2.882,4.345,4.345,0,0,0-3.2-1.42,4.429,4.429,0,0,0-2.946,1.1l-.827.742a.572.572,0,0,1-.784-.827l.805-.784a5.7,5.7,0,0,1,3.751-1.42,5.383,5.383,0,0,1,4.048,1.8,5.447,5.447,0,0,1,1.441,3.688,5.6,5.6,0,0,1-1.823,4.112l-6.74,6.083H213.2a.593.593,0,0,1,0,1.187h-9.474a.593.593,0,0,1-.424-1.039Z" transform="translate(55.949 236.191)" fill="#263238"/>
        <path id="Path_2936" data-name="Path 2936" d="M211.648,361.5a6.867,6.867,0,0,1,5.892-3.667.593.593,0,0,1,.615.551.636.636,0,0,1-.572.636,5.68,5.68,0,0,0-4.917,3.052,10.6,10.6,0,0,0-1.208,3.37,5.553,5.553,0,1,1-1.4,3.857,9.387,9.387,0,0,1,0-1.1,13.734,13.734,0,0,1,1.59-6.7Zm-.4,7.715a1.634,1.634,0,0,0,0,.318.466.466,0,0,1,0,.169,4.515,4.515,0,1,0,0-.593Z" transform="translate(63.716 236.202)" fill="#263238"/>
        <path id="Path_2937" data-name="Path 2937" d="M240.1,373.641l7.884-7.1a4.429,4.429,0,0,0,1.441-3.243,4.369,4.369,0,0,0-7.27-3.2l-.827.742a.577.577,0,1,1-.827-.805l.827-.784a5.7,5.7,0,0,1,3.73-1.42,5.521,5.521,0,0,1,3.688,9.6l-6.74,6.083h7.969a.593.593,0,1,1,0,1.187h-9.5a.551.551,0,0,1-.424-.17.657.657,0,0,1,.042-.89Z" transform="translate(97.147 236.202)" fill="#263238"/>
        <path id="Path_2938" data-name="Path 2938" d="M249.074,373.843l6.358-14.836h-8.16a.572.572,0,0,1,0-1.145H256.2a.7.7,0,0,1,.36,0,.594.594,0,0,1,.318.36.509.509,0,0,1,0,.191.551.551,0,0,1,0,.318l-6.528,15.514a.636.636,0,0,1-.53.36.381.381,0,0,1-.254,0A.657.657,0,0,1,249.074,373.843Z" transform="translate(104.751 236.212)" fill="#263238"/>
        <path id="Path_2939" data-name="Path 2939" d="M276.247,373.652l7.884-7.1a4.43,4.43,0,0,0,1.441-3.243,4.238,4.238,0,0,0-1.123-2.882,4.345,4.345,0,0,0-3.2-1.42,4.43,4.43,0,0,0-2.946,1.1l-.827.742a.572.572,0,1,1-.784-.826l.805-.784a5.7,5.7,0,0,1,3.751-1.42,5.383,5.383,0,0,1,4.048,1.8,5.447,5.447,0,0,1,1.441,3.688,5.638,5.638,0,0,1-1.8,4.112l-6.761,6.083h7.99a.593.593,0,1,1,0,1.187h-9.5a.593.593,0,0,1-.424-1.039Z" transform="translate(137.6 236.191)" fill="#263238"/>
        <path id="Path_2940" data-name="Path 2940" d="M288.338,357.821a3.5,3.5,0,0,1,2.12,6.358,5.468,5.468,0,1,1-4.239,0,3.54,3.54,0,0,1-1.4-2.84,3.476,3.476,0,0,1,3.518-3.518Zm0,15.7a4.239,4.239,0,1,0-4.239-4.239A4.239,4.239,0,0,0,288.338,373.526Zm0-9.834a2.4,2.4,0,0,0,2.353-2.374,2.353,2.353,0,1,0-2.352,2.374Z" transform="translate(145.24 236.19)" fill="#263238"/>
        <path id="Path_2941" data-name="Path 2941" d="M312.048,373.641l7.884-7.1a4.345,4.345,0,0,0,1.441-3.243,4.239,4.239,0,0,0-1.123-2.882,4.345,4.345,0,0,0-3.2-1.42,4.43,4.43,0,0,0-2.946,1.1l-.827.742a.57.57,0,1,1-.805-.805l.827-.784a5.659,5.659,0,0,1,3.73-1.42,5.362,5.362,0,0,1,4.048,1.8,5.447,5.447,0,0,1,1.441,3.688,5.574,5.574,0,0,1-1.8,4.112l-6.761,6.083h7.99a.593.593,0,1,1,0,1.187h-9.5a.593.593,0,0,1-.424-1.038Z" transform="translate(177.653 236.202)" fill="#263238"/>
        <path id="Path_2942" data-name="Path 2942" d="M324.39,357.82a5.532,5.532,0,0,1,5.532,4.917.707.707,0,0,0,0,.127v1.441a14.032,14.032,0,0,1-1.611,6.719,7.037,7.037,0,0,1-5.913,3.667h0a.572.572,0,0,1-.593-.551.615.615,0,0,1,.572-.636,5.7,5.7,0,0,0,4.917-3.052,11.428,11.428,0,0,0,1.208-3.37,5.574,5.574,0,1,1-4.239-9.262Zm4.408,5.553a4.366,4.366,0,1,0-1.294,3.1,4.408,4.408,0,0,0,1.294-3.1Z" transform="translate(185.403 236.191)" fill="#263238"/>
        <path id="Path_2943" data-name="Path 2943" d="M358.7,358.852l-4.366,4.493a5.64,5.64,0,0,1,2.882,1.526,5.7,5.7,0,0,1,1.674,4.048,5.553,5.553,0,0,1-1.7,4.048,5.744,5.744,0,0,1-4.048,1.7,5.617,5.617,0,0,1-4.027-1.7.6.6,0,1,1,.848-.848,4.514,4.514,0,0,0,7.694-3.2,4.451,4.451,0,0,0-1.336-3.179,4.387,4.387,0,0,0-3.179-1.314.572.572,0,0,1-.466-.254h0a.636.636,0,0,1,0-.869l4.239-4.239h-6.358a.615.615,0,1,1,0-1.208h7.863a.615.615,0,0,1,.615.593.381.381,0,0,1,0,.275.551.551,0,0,1-.339.127Z" transform="translate(219.209 236.219)" fill="#263238"/>
        <path id="Path_2944" data-name="Path 2944" d="M355.792,366.275a10.746,10.746,0,0,1,1.611-5.913,4.79,4.79,0,0,1,8.478,0,10.935,10.935,0,0,1,1.632,5.913,10.6,10.6,0,0,1-1.632,5.871,4.748,4.748,0,0,1-8.478,0A10.6,10.6,0,0,1,355.792,366.275Zm1.187,0a9.6,9.6,0,0,0,1.42,5.235,3.582,3.582,0,0,0,6.358,0,10.109,10.109,0,0,0,0-10.47,3.582,3.582,0,0,0-6.358,0A9.6,9.6,0,0,0,356.978,366.275Z" transform="translate(226.867 236.172)" fill="#263238"/>
        <path id="Path_2945" data-name="Path 2945" d="M208.124,300.14l-2.395,1.4a.593.593,0,0,1-.276,0,.572.572,0,0,1-.509-.3.551.551,0,0,1,.212-.784l3.264-1.971a.594.594,0,0,1,.784.212.615.615,0,0,1,0,.424v15.493a.572.572,0,0,1-.572.594.593.593,0,0,1-.572-.594Z" transform="translate(57.914 169.694)" fill="#263238"/>
        <path id="Path_2946" data-name="Path 2946" d="M209.026,314.207l7.884-7.121a4.345,4.345,0,0,0,1.441-3.221,4.239,4.239,0,0,0-4.345-4.239,4.386,4.386,0,0,0-2.925,1.1l-.827.742a.572.572,0,0,1-.827,0,.551.551,0,0,1,0-.827l.805-.763a5.7,5.7,0,0,1,3.73-1.42,5.493,5.493,0,0,1,3.688,9.58l-6.74,6.1h7.969a.593.593,0,0,1,.593.593.615.615,0,0,1-.593.593h-9.5a.636.636,0,0,1-.424-.17.657.657,0,0,1,.064-.954Z" transform="translate(62.311 169.742)" fill="#263238"/>
        <path id="Path_2947" data-name="Path 2947" d="M244.488,300.1l-2.395,1.4a.575.575,0,1,1-.572-1l3.243-1.971a.615.615,0,0,1,.805.212.763.763,0,0,1,0,.424v15.493a.572.572,0,0,1-.572.594.594.594,0,0,1-.572-.594Z" transform="translate(98.612 169.738)" fill="#263238"/>
        <path id="Path_2948" data-name="Path 2948" d="M255.25,299.48l-4.408,4.408a5.7,5.7,0,0,1,4.557,5.6,5.6,5.6,0,0,1-1.7,4.048,5.744,5.744,0,0,1-4.048,1.7,5.532,5.532,0,0,1-4.006-1.7.592.592,0,1,1,.827-.848A4.557,4.557,0,0,0,249.655,314a4.641,4.641,0,0,0,3.221-1.314,4.526,4.526,0,0,0-3.2-7.715.572.572,0,0,1-.466-.233h0a.593.593,0,0,1,0-.869l4.239-4.239H247.09a.615.615,0,0,1-.615-.615.593.593,0,0,1,.615-.593h7.863a.593.593,0,0,1,.615.593.424.424,0,0,1,0,.276.551.551,0,0,1-.318.191Z" transform="translate(103.364 169.697)" fill="#263238"/>
        <path id="Path_2949" data-name="Path 2949" d="M280.314,300.141l-2.395,1.4a.592.592,0,0,1-.276,0,.572.572,0,0,1-.509-.3.551.551,0,0,1,.212-.784l3.243-1.971a.615.615,0,0,1,.805.212.762.762,0,0,1,0,.424v15.493a.572.572,0,0,1-.572.594.593.593,0,0,1-.572-.594Z" transform="translate(138.725 169.693)" fill="#263238"/>
        <path id="Path_2950" data-name="Path 2950" d="M290.807,311.745h-9.2a.445.445,0,0,1-.36-.127.53.53,0,0,1,0-.805l9.771-12.144h0a.53.53,0,0,1,.805,0,.956.956,0,0,1,.212.3h0V310.6h1.123a.593.593,0,1,1,0,1.166h-1.123v2.882a.615.615,0,0,1-.615.594.594.594,0,0,1-.572-.594Zm0-1.166V300.7l-7.969,9.877Z" transform="translate(143.217 169.767)" fill="#263238"/>
        <path id="Path_2951" data-name="Path 2951" d="M316.8,300.144l-2.374,1.4a.7.7,0,0,1-.3,0,.615.615,0,0,1-.509-.3.551.551,0,0,1,.233-.784l3.243-1.971a.572.572,0,0,1,.784.212.635.635,0,0,1,0,.424V314.62a.572.572,0,0,1-.572.593.615.615,0,0,1-.593-.593Z" transform="translate(179.575 169.69)" fill="#263238"/>
        <path id="Path_2952" data-name="Path 2952" d="M317.869,313.56a.572.572,0,0,1,0-.848.636.636,0,0,1,.869,0,4.493,4.493,0,0,0,7.672-3.179,4.5,4.5,0,0,0-7.672-3.179.572.572,0,0,1-.848,0,.339.339,0,0,1-.148-.191h0a.66.66,0,0,1,0-.212.922.922,0,0,0,0-.106l.827-6.8a.466.466,0,0,1,.233-.424.509.509,0,0,1,.381-.148h7.863a.615.615,0,0,1,0,1.208h-7.354l-.593,5a5.722,5.722,0,0,1,6.888,8.986,5.913,5.913,0,0,1-4.048,1.674,5.617,5.617,0,0,1-4.069-1.78Z" transform="translate(184.209 169.753)" fill="#263238"/>
        <path id="Path_2953" data-name="Path 2953" d="M353.472,300.1l-2.374,1.4a.572.572,0,0,1-.805-.212.551.551,0,0,1,.233-.784l3.243-1.971a.615.615,0,0,1,.805.212.762.762,0,0,1,0,.424v15.493a.572.572,0,0,1-.572.594.615.615,0,0,1-.594-.594Z" transform="translate(220.625 169.738)" fill="#263238"/>
        <path id="Path_2954" data-name="Path 2954" d="M355.988,302.1a6.867,6.867,0,0,1,5.913-3.667.572.572,0,0,1,.593.551.636.636,0,0,1-.572.636,5.7,5.7,0,0,0-4.917,3.052,11.59,11.59,0,0,0-1.208,3.37,5.4,5.4,0,1,1-1.4,3.857,9.423,9.423,0,0,1,0-1.1A13.969,13.969,0,0,1,355.988,302.1Zm-.3,7.715a1.244,1.244,0,0,0,0,.3.361.361,0,0,1,0,.17,4.514,4.514,0,1,0,0-.572Z" transform="translate(225.293 169.708)" fill="#263238"/>
        <path id="Path_2955" data-name="Path 2955" d="M390.813,300.1l-2.395,1.4a.572.572,0,0,1-.805-.212.551.551,0,0,1,.233-.784l3.243-1.971a.615.615,0,0,1,.805.212.763.763,0,0,1,0,.424v15.493a.572.572,0,0,1-.572.594.594.594,0,0,1-.572-.594Z" transform="translate(262.402 169.738)" fill="#263238"/>
        <path id="Path_2956" data-name="Path 2956" d="M394.125,314.468l6.252-14.836H392.3a.583.583,0,0,1,0-1.166h8.923a.53.53,0,0,1,.36,0,.657.657,0,0,1,.318.36.509.509,0,0,1,0,.191.488.488,0,0,1-.106.318L395.27,314.85a.572.572,0,0,1-.53.36.361.361,0,0,1-.233,0,.615.615,0,0,1-.382-.742Z" transform="translate(267.101 169.714)" fill="#263238"/>
        <path id="Path_2957" data-name="Path 2957" d="M426.544,300.14l-2.374,1.4a.786.786,0,0,1-.3,0,.615.615,0,0,1-.509-.3.551.551,0,0,1,.212-.784l3.264-1.971a.594.594,0,0,1,.784.212.635.635,0,0,1,0,.424v15.493a.583.583,0,1,1-1.166,0Z" transform="translate(302.418 169.694)" fill="#263238"/>
        <path id="Path_2958" data-name="Path 2958" d="M432.8,298.421a3.5,3.5,0,0,1,2.12,6.358,5.468,5.468,0,1,1-4.239,0,3.582,3.582,0,0,1-1.4-2.84,3.476,3.476,0,0,1,3.518-3.518Zm0,15.7a4.239,4.239,0,1,0-4.239-4.239A4.239,4.239,0,0,0,432.8,314.126Zm0-9.834a2.4,2.4,0,0,0,2.374-2.374,2.353,2.353,0,1,0-2.373,2.374Z" transform="translate(306.952 169.696)" fill="#263238"/>
        <rect id="Rectangle_17062" data-name="Rectangle 17062" width="342.033" height="6.104" transform="translate(330.874 241.462)" fill="#ebebeb"/>
        <path id="Path_2959" data-name="Path 2959" d="M155.563,158.781V142.44l-9.813,8.16Z" transform="translate(96.805 81.053)" fill="#ebebeb"/>
        <path id="Path_2960" data-name="Path 2960" d="M387.77,142.44v16.341l9.813-8.181Z" transform="translate(367.728 81.053)" fill="#ebebeb"/>
        <rect id="Rectangle_17063" data-name="Rectangle 17063" width="902.917" height="146.601" transform="translate(36.285 22.869)" fill="#7d25f5"/>
        <path id="Path_2961" data-name="Path 2961" d="M280.23,147.54a23.314,23.314,0,0,1,23.314-22.89,23.78,23.78,0,0,1,14.688,4.959,3.65,3.65,0,0,1-4.451,5.786,15.853,15.853,0,0,0-10.237-3.5,16.828,16.828,0,0,0-11.445,4.578,15.683,15.683,0,0,0-4.642,11.063A15.451,15.451,0,0,0,292.1,158.6a16.828,16.828,0,0,0,11.445,4.578,15.98,15.98,0,0,0,10.237-3.5,3.857,3.857,0,0,1,5.087.7,3.752,3.752,0,0,1-.636,5.087,23.78,23.78,0,0,1-14.688,4.959,23.314,23.314,0,0,1-23.314-22.894Z" transform="translate(-1.695 -46.889)" fill="#fff"/>
        <path id="Path_2962" data-name="Path 2962" d="M333.421,159.234H317.97l-3.116,8.266a3.561,3.561,0,0,1-3.306,2.225,3.709,3.709,0,0,1-1.208-.191,3.6,3.6,0,0,1-2.12-4.578l14.052-37.429a3.539,3.539,0,0,1,3.37-2.247,3.5,3.5,0,0,1,3.37,2.247l13.967,37.429a3.6,3.6,0,0,1-2.119,4.578,3.561,3.561,0,0,1-4.451-2.119Zm-2.607-6.994-5.15-13.67-5.256,13.67Z" transform="translate(29.404 -46.184)" fill="#fff"/>
        <path id="Path_2963" data-name="Path 2963" d="M334,166.261V128.747a3.5,3.5,0,0,1,3.5-3.5,3.539,3.539,0,0,1,3.561,3.5v33.911h17.231a3.539,3.539,0,0,1,0,7.058H337.5a3.5,3.5,0,0,1-3.5-3.455Z" transform="translate(58.496 -46.217)" fill="#fff"/>
        <path id="Path_2964" data-name="Path 2964" d="M356.31,166.261V128.747a3.455,3.455,0,0,1,3.5-3.5H380.6a3.518,3.518,0,0,1,3.5,3.5,3.582,3.582,0,0,1-3.5,3.561H363.368v11.636H378.2a3.539,3.539,0,0,1,0,7.058H363.368v11.7H380.6a3.539,3.539,0,0,1,0,7.058H359.871a3.5,3.5,0,0,1-3.56-3.5Z" transform="translate(83.47 -46.217)" fill="#fff"/>
        <path id="Path_2965" data-name="Path 2965" d="M386.466,166.032a3.476,3.476,0,1,1-6.931,0V129.027a3.433,3.433,0,0,1,1.4-2.925,3.5,3.5,0,0,1,4.832.763L406.3,155.286v-26.2a3.455,3.455,0,0,1,3.433-3.433,3.518,3.518,0,0,1,3.5,3.433v36.942a3.518,3.518,0,0,1-3.5,3.5,3.455,3.455,0,0,1-2.607-1.272,1.7,1.7,0,0,1-.318-.382l-20.346-28.231Z" transform="translate(109.458 -45.988)" fill="#fff"/>
        <path id="Path_2966" data-name="Path 2966" d="M406.53,166.261V128.747a3.455,3.455,0,0,1,3.5-3.5h7.5a22.254,22.254,0,0,1,0,44.508h-7.5A3.5,3.5,0,0,1,406.53,166.261Zm7.058-3.561h3.942a15.2,15.2,0,1,0,0-30.393h-3.942Z" transform="translate(139.688 -46.217)" fill="#fff"/>
        <path id="Path_2967" data-name="Path 2967" d="M455.647,159.234H440.26l-3.116,8.266a3.561,3.561,0,0,1-3.306,2.225,3.709,3.709,0,0,1-1.208-.191,3.6,3.6,0,0,1-2.119-4.578L444.5,127.527a3.539,3.539,0,0,1,3.37-2.247,3.5,3.5,0,0,1,3.37,2.247l14.073,37.429a3.6,3.6,0,0,1-2.119,4.578,3.561,3.561,0,0,1-4.451-2.119Zm-2.67-6.994-5.15-13.67-5.086,13.67Z" transform="translate(166.298 -46.184)" fill="#fff"/>
        <path id="Path_2968" data-name="Path 2968" d="M486.25,164.481a3.518,3.518,0,0,1-2.225,4.451,5.592,5.592,0,0,1-1.4.191h0a4.62,4.62,0,0,1-2.48-.7,6.359,6.359,0,0,1-2.12-2.225,17.083,17.083,0,0,1-1.335-7.63,5.362,5.362,0,0,0-.763-2.734,5.893,5.893,0,0,0-1.907-1.844,12.1,12.1,0,0,0-3.561-1.526h-7.5v13.8a3.539,3.539,0,0,1-3.561,3.5,3.5,3.5,0,0,1-3.5-3.5V128.747a3.454,3.454,0,0,1,3.5-3.5h11.381a13.607,13.607,0,0,1,8.647,24.1,9.854,9.854,0,0,1,2.225,2.353,12.038,12.038,0,0,1,2.12,6.867,16.044,16.044,0,0,0,.254,3.751A3.434,3.434,0,0,1,486.25,164.481Zm-8.944-25.56a6.549,6.549,0,0,0-6.549-6.613h-7.821v13.1h7.821a6.528,6.528,0,0,0,6.549-6.485Z" transform="translate(194.954 -46.217)" fill="#fff"/>
      </g>
    </g>
    <text id="December_2023" data-name="December 2023" transform="translate(594.78 478.029)" fill="#100f0f" font-size="28" font-family="MongolianBaiti, Mongolian Baiti"><tspan x="0" y="24">December </tspan></text>
  </g>
</svg>
