<svg xmlns="http://www.w3.org/2000/svg" xmlns:xlink="http://www.w3.org/1999/xlink" width="789" height="789" viewBox="0 0 789 789">
  <defs>
    <filter id="Ellipse_230" x="33" y="34" width="721" height="721" filterUnits="userSpaceOnUse">
      <feOffset dy="3" input="SourceAlpha"/>
      <feGaussianBlur stdDeviation="3" result="blur"/>
      <feFlood flood-color="#3abb45"/>
      <feComposite operator="in" in2="blur"/>
      <feComposite in="SourceGraphic"/>
    </filter>
    <filter id="Ellipse_231" x="15" y="15" width="758" height="758" filterUnits="userSpaceOnUse">
      <feOffset dy="3" input="SourceAlpha"/>
      <feGaussianBlur stdDeviation="3" result="blur-2"/>
      <feFlood flood-color="#e7be0c"/>
      <feComposite operator="in" in2="blur-2"/>
      <feComposite in="SourceGraphic"/>
    </filter>
    <filter id="Ellipse_232" x="0" y="0" width="789" height="789" filterUnits="userSpaceOnUse">
      <feOffset dy="3" input="SourceAlpha"/>
      <feGaussianBlur stdDeviation="3" result="blur-3"/>
      <feFlood flood-color="#3abb45"/>
      <feComposite operator="in" in2="blur-3"/>
      <feComposite in="SourceGraphic"/>
    </filter>
  </defs>
  <g id="Group_1035" data-name="Group 1035" transform="translate(-906 -290)">
    <g id="Payment_Information-bro" data-name="Payment Information-bro" transform="translate(995.036 373.593)">
      <g id="freepik--background-simple--inject-1" transform="translate(38.401 29.116)">
        <path id="Path_3526" data-name="Path 3526" d="M70.411,202.688S35.338,293.264,84.627,384.469,235.436,523.856,316.69,565.055,482.319,586.19,522.411,518.71s-14.895-115.648-14.97-211.873,14.4-121.7-37.74-202.991-179.97-99.294-276.635-39S70.411,202.688,70.411,202.688Z" transform="translate(-29.023 -29.116)" fill="#fff" opacity="0.7"/>
        <path id="Path_3527" data-name="Path 3527" d="M157.019,524.747c29.689,31.349,102.577,19.864,134.153,0C393.7,460.275,573.317,352.942,581.456,197.453c3.46-66.083-54.824-100.791-79.166-110.968-58.447-24.456-122.6-31.79-185.945-34.62-66.133-2.956-137.122-.654-196.638,31.614-22.569,12.215-43.854,27.928-58.422,49.314C46.49,154.53,37.974,180.419,35.709,206.548c-3.636,42.143,7.7,84.4,24.846,123.07s40,74.474,60.988,111.207C135.243,464.766,132.06,498.342,157.019,524.747Z" transform="translate(-35.03 -23.491)" fill="#7d25f5"/>
        <path id="Path_3528" data-name="Path 3528" d="M157.019,524.747c29.689,31.349,102.577,19.864,134.153,0C393.7,460.275,573.317,352.942,581.456,197.453c3.46-66.083-54.824-100.791-79.166-110.968-58.447-24.456-122.6-31.79-185.945-34.62-66.133-2.956-137.122-.654-196.638,31.614-22.569,12.215-43.854,27.928-58.422,49.314C46.49,154.53,37.974,180.419,35.709,206.548c-3.636,42.143,7.7,84.4,24.846,123.07s40,74.474,60.988,111.207C135.243,464.766,132.06,498.342,157.019,524.747Z" transform="translate(-35.03 -23.491)" fill="#fff" opacity="0.7"/>
      </g>
      <g id="freepik--Graphics--inject-1" transform="translate(21.964 41.437)">
        <rect id="Rectangle_17067" data-name="Rectangle 17067" width="71.872" height="45.959" rx="3.52" transform="translate(85.45 108.44) rotate(16.809)" fill="none" stroke="#263238" stroke-miterlimit="10" stroke-width="1.003"/>
        <line id="Line_15" data-name="Line 15" x2="68.574" y2="20.782" transform="translate(82.041 118.164)" fill="none" stroke="#263238" stroke-miterlimit="10" stroke-width="1"/>
        <line id="Line_16" data-name="Line 16" x2="68.586" y2="20.782" transform="translate(79.953 125.046)" fill="none" stroke="#263238" stroke-miterlimit="10" stroke-width="1"/>
        <path id="Path_3529" data-name="Path 3529" d="M124.7,166.079a4.478,4.478,0,0,0,.39,3.5,4.529,4.529,0,0,1-3.309.277,4.466,4.466,0,1,1,5.183-6.466,4.529,4.529,0,0,0-2.264,2.692Z" transform="translate(2.969 -7.382)" fill="none" stroke="#263238" stroke-miterlimit="10" stroke-width="1"/>
        <path id="Path_3530" data-name="Path 3530" d="M132.032,168.3a4.466,4.466,0,1,1-2.969-5.573,4.466,4.466,0,0,1,2.969,5.573Z" transform="translate(4.179 -7.014)" fill="none" stroke="#263238" stroke-miterlimit="10" stroke-width="1"/>
        <rect id="Rectangle_17068" data-name="Rectangle 17068" width="60.95" height="38.973" rx="3.51" transform="translate(505.924 197.282) rotate(16.86)" fill="none" stroke="#263238" stroke-miterlimit="10" stroke-width="1"/>
        <line id="Line_17" data-name="Line 17" x2="58.334" y2="17.675" transform="translate(503.296 205.948)" fill="none" stroke="#263238" stroke-miterlimit="10" stroke-width="1"/>
        <line id="Line_18" data-name="Line 18" x2="58.321" y2="17.675" transform="translate(501.522 211.81)" fill="none" stroke="#263238" stroke-miterlimit="10" stroke-width="1"/>
        <path id="Path_3531" data-name="Path 3531" d="M453.936,230.861a3.774,3.774,0,0,0,.327,2.969,3.793,3.793,0,1,1,1.6-5.258,3.774,3.774,0,0,0-1.925,2.29Z" transform="translate(88.17 9.531)" fill="none" stroke="#263238" stroke-miterlimit="10" stroke-width="1"/>
        <path id="Path_3532" data-name="Path 3532" d="M460.173,232.786a3.774,3.774,0,1,1-.268-2.9A3.774,3.774,0,0,1,460.173,232.786Z" transform="translate(89.191 9.846)" fill="none" stroke="#263238" stroke-miterlimit="10" stroke-width="1"/>
        <rect id="Rectangle_17069" data-name="Rectangle 17069" width="80.084" height="41.665" transform="matrix(0.909, -0.416, 0.416, 0.909, 407.384, 109.202)" fill="none" stroke="#263238" stroke-miterlimit="10" stroke-width="1"/>
        <path id="Path_3533" data-name="Path 3533" d="M428.414,130.366,417.394,106.3a4.277,4.277,0,0,1-5.661-2.1l-58.862,26.946a4.277,4.277,0,0,1-2.1,5.661l11.02,24.066a4.265,4.265,0,0,1,5.661,2.113L426.3,136.027a4.265,4.265,0,0,1,2.113-5.661Z" transform="translate(62.868 -22.065)" fill="none" stroke="#263238" stroke-miterlimit="10" stroke-width="1"/>
        <circle id="Ellipse_224" data-name="Ellipse 224" cx="10.945" cy="10.945" r="10.945" transform="translate(437.114 109.47) rotate(-37.53)" fill="none" stroke="#263238" stroke-miterlimit="10" stroke-width="1"/>
        <path id="Path_3534" data-name="Path 3534" d="M385.686,134.369l.818,1.786-.78.352-.805-1.761a6.429,6.429,0,0,1-4.365.277v-1.094a5.774,5.774,0,0,0,3.875-.189l-1.849-4.076c-1.912.365-3.887.642-4.831-1.422-.679-1.484-.2-3.271,2.088-4.541l-.818-1.8.78-.352.855,1.824a6.63,6.63,0,0,1,3.6-.478v1.094a6.29,6.29,0,0,0-3.183.365l1.887,4.126c1.95-.39,4.026-.742,5.032,1.346C388.617,131.274,388.077,133.1,385.686,134.369Zm-3.6-5.8-1.786-3.938c-1.547.868-1.887,2.025-1.434,3.007.528,1.233,1.786,1.183,3.208.931Zm4.743,1.774c-.554-1.258-1.887-1.132-3.371-.843l1.774,3.887c1.711-.906,2.038-2.051,1.585-3.044Z" transform="translate(69.755 -17.588)" fill="#263238"/>
        <rect id="Rectangle_17070" data-name="Rectangle 17070" width="56.22" height="29.24" transform="translate(22.354 253.472) rotate(-5.143)" fill="none" stroke="#263238" stroke-miterlimit="10" stroke-width="1.004"/>
        <path id="Path_3535" data-name="Path 3535" d="M93.542,259.2l-1.585-18.43a2.994,2.994,0,0,1-3.233-2.717l-45.087,3.9a3.007,3.007,0,0,1-2.717,3.233l1.585,18.43a2.981,2.981,0,0,1,3.233,2.717l45.087-3.9a3.007,3.007,0,0,1,2.717-3.233Z" transform="translate(-17.074 12.469)" fill="none" stroke="#263238" stroke-miterlimit="10" stroke-width="1"/>
        <path id="Path_3536" data-name="Path 3536" d="M71.037,250.205a7.649,7.649,0,1,1-2.7-5.2A7.661,7.661,0,0,1,71.037,250.205Z" transform="translate(-13.25 13.799)" fill="none" stroke="#263238" stroke-miterlimit="10" stroke-width="1"/>
        <path id="Path_3537" data-name="Path 3537" d="M63.176,254.648l.113,1.371H62.7l-.126-1.359a4.491,4.491,0,0,1-2.931-.843l.277-.7a4.1,4.1,0,0,0,2.591.78l-.264-3.132c-1.346-.2-2.717-.491-2.843-2.063-.1-1.145.629-2.214,2.441-2.516l-.113-1.371h.591l.113,1.346a4.73,4.73,0,0,1,2.516.541l-.239.717a4.478,4.478,0,0,0-2.176-.5l.264,3.158c1.371.2,2.83.465,2.969,2.063C65.843,253.3,65.05,254.371,63.176,254.648Zm-1.006-4.667L61.905,247c-1.258.214-1.711.893-1.648,1.648S61.163,249.817,62.169,249.98Zm2.7,2.29c-.088-.943-.981-1.258-2.025-1.359l.252,2.981C64.409,253.679,64.937,253.025,64.874,252.27Z" transform="translate(-12.308 14.213)" fill="#263238"/>
        <circle id="Ellipse_225" data-name="Ellipse 225" cx="10.945" cy="10.945" r="10.945" transform="translate(520.392 70.952)" fill="none" stroke="#263238" stroke-miterlimit="10" stroke-width="1"/>
        <path id="Path_3538" data-name="Path 3538" d="M445.744,111.735V113.7h-.906v-1.95a6.516,6.516,0,0,1-4.089-1.547l.491-.981a5.9,5.9,0,0,0,3.6,1.459v-4.491c-1.887-.465-3.774-1.044-3.774-3.309,0-1.635,1.182-3.057,3.774-3.258v-2h.855v1.95a6.63,6.63,0,0,1,3.472,1.069l-.428,1.006a6.29,6.29,0,0,0-3.044-.994v4.529c1.925.465,3.963,1.006,3.963,3.309C449.707,110.137,448.462,111.584,445.744,111.735Zm-.855-6.781V100.69c-1.761.151-2.516,1.057-2.516,2.139-.05,1.3,1.107,1.774,2.466,2.126Zm3.573,3.6c0-1.346-1.258-1.812-2.717-2.176v4.3C447.619,110.515,448.462,109.646,448.462,108.552Z" transform="translate(86.083 -23.762)" fill="#263238"/>
        <circle id="Ellipse_226" data-name="Ellipse 226" cx="10.945" cy="10.945" r="10.945" transform="translate(443.578 209.522) rotate(-13.26)" fill="none" stroke="#263238" stroke-miterlimit="10" stroke-width="1"/>
        <path id="Path_3539" data-name="Path 3539" d="M383.537,218.8l-1.019,1.673-.73-.453,1.019-1.661a6.4,6.4,0,0,1-2.667-3.46l.931-.579a5.862,5.862,0,0,0,2.3,3.107l2.365-3.837c-1.371-1.371-2.692-2.868-1.51-4.793.855-1.4,2.6-1.988,4.944-.793l1.032-1.686.73.453-1.019,1.661a6.818,6.818,0,0,1,2.4,2.717l-.893.642a6.416,6.416,0,0,0-2.076-2.44l-2.378,3.862c1.409,1.409,2.856,2.931,1.648,4.894C387.751,219.516,385.939,220.083,383.537,218.8Zm2.831-6.29,2.227-3.636c-1.573-.793-2.717-.44-3.283.478-.679,1.17.038,2.189,1.057,3.22Zm1.157,4.931c.7-1.145-.113-2.189-1.182-3.271l-2.239,3.648c1.673.931,2.843.679,3.409-.314Z" transform="translate(70.446 4.282)" fill="#263238"/>
        <path id="Path_3540" data-name="Path 3540" d="M264.467,45.313a10.932,10.932,0,1,1-6.13-5.714A10.945,10.945,0,0,1,264.467,45.313Z" transform="translate(35.209 -38.91)" fill="none" stroke="#263238" stroke-miterlimit="10" stroke-width="1"/>
        <path id="Path_3541" data-name="Path 3541" d="M256.327,54.462l.818,1.786-.78.365-.83-1.774a6.428,6.428,0,0,1-4.365.277V54.021a5.812,5.812,0,0,0,3.862-.176l-1.862-4.1c-1.912.365-3.887.629-4.831-1.422-.679-1.5-.2-3.271,2.1-4.541l-.818-1.8.767-.352.818,1.774a6.63,6.63,0,0,1,3.6-.478V44.02a6.353,6.353,0,0,0-3.183.365l1.887,4.126c1.95-.39,4.026-.73,5.032,1.346C259.308,51.367,258.729,53.191,256.327,54.462Zm-3.6-5.8-1.774-3.887c-1.547.868-1.887,2.025-1.434,2.994C250.062,48.952,251.307,48.914,252.729,48.662Zm4.743,1.774c-.566-1.258-1.887-1.12-3.371-.843l1.774,3.887C257.522,52.575,257.924,51.442,257.471,50.436Z" transform="translate(36.367 -38.208)" fill="#263238"/>
        <path id="Path_3542" data-name="Path 3542" d="M237.32,398.3a16.442,16.442,0,1,1-21.789-8.127A16.442,16.442,0,0,1,237.32,398.3Z" transform="translate(25.496 51.333)" fill="none" stroke="#263238" stroke-miterlimit="10" stroke-width="1"/>
        <path id="Path_3543" data-name="Path 3543" d="M225.059,412.063l1.258,2.692-1.17.528-1.258-2.667a9.637,9.637,0,0,1-6.554.428l.075-1.635a8.718,8.718,0,0,0,5.8-.289L220.4,404.98c-2.856.541-5.837.944-7.246-2.139-1.032-2.239-.3-4.919,3.145-6.831l-1.258-2.68,1.157-.541,1.258,2.667a10.064,10.064,0,0,1,5.409-.717v1.635a9.485,9.485,0,0,0-4.768.554l2.818,6.189c2.931-.579,6.051-1.094,7.485,2.025C229.487,407.421,228.682,410.163,225.059,412.063Zm-5.384-8.718L217,397.508c-2.3,1.258-2.818,3.032-2.139,4.516C215.662,403.8,217.524,403.735,219.675,403.345Zm7.12,2.68c-.843-1.849-2.843-1.7-5.032-1.258l2.667,5.837C226.908,409.232,227.475,407.521,226.8,406.024Z" transform="translate(27.253 52.392)" fill="#263238"/>
        <path id="Path_3544" data-name="Path 3544" d="M49.258,199.136a16.442,16.442,0,1,1,1.5-23.21A16.442,16.442,0,0,1,49.258,199.136Z" transform="translate(-21.964 -5.001)" fill="none" stroke="#263238" stroke-miterlimit="10" stroke-width="1"/>
        <path id="Path_3545" data-name="Path 3545" d="M30.65,191.745l-2.214,1.95-.855-.969,2.2-1.925a9.75,9.75,0,0,1-2.3-6.164l1.6-.4a8.806,8.806,0,0,0,1.9,5.46l5.032-4.453c-1.346-2.579-2.591-5.321,0-7.548,1.862-1.623,4.629-1.7,7.447,1.044l2.29-1.937.843.956-2.2,1.937a10.064,10.064,0,0,1,2.189,4.969l-1.56.516a9.649,9.649,0,0,0-1.9-4.416L38,185.253c1.4,2.629,2.793,5.472.214,7.749C36.336,194.638,33.481,194.726,30.65,191.745Zm6.793-7.674,4.818-4.239c-1.912-1.837-3.774-1.824-4.931-.755-1.51,1.283-.906,3.07.075,4.994Zm-.516,7.548c1.535-1.333.818-3.208-.239-5.221l-4.818,4.239c1.975,2.025,3.812,2.1,5.07,1.019Z" transform="translate(-20.541 -3.396)" fill="#263238"/>
        <circle id="Ellipse_227" data-name="Ellipse 227" cx="7.938" cy="7.938" r="7.938" transform="matrix(0.04, -1, 1, 0.04, 86.369, 341.679)" fill="none" stroke="#263238" stroke-miterlimit="10" stroke-width="1"/>
        <path id="Path_3546" data-name="Path 3546" d="M100.482,307.293l.906,1.094-.465.39-.906-1.082a4.68,4.68,0,0,1-3.007,1.032l-.176-.78a4.24,4.24,0,0,0,2.667-.855l-2.088-2.516c-1.258.616-2.591,1.183-3.648-.075-.755-.906-.755-2.252.6-3.585l-.918-1.094.478-.39.906,1.082a4.869,4.869,0,0,1,2.428-1.019l.226.755a4.767,4.767,0,0,0-2.151.868l2.1,2.516c1.258-.642,2.68-1.258,3.774,0C101.979,304.563,101.954,305.946,100.482,307.293Zm-3.6-3.371L94.9,301.543c-.906.906-.918,1.774-.428,2.378S95.94,304.361,96.884,303.921Zm3.661.34c-.629-.742-1.535-.428-2.516.063l1.988,2.378c.969-.956,1.032-1.837.528-2.453Z" transform="translate(-3.571 28.305)" fill="#263238"/>
        <path id="Path_3547" data-name="Path 3547" d="M300.469,429.755a7.938,7.938,0,1,1-11.184-1.019,7.938,7.938,0,0,1,11.184,1.019Z" transform="translate(46.268 61.193)" fill="none" stroke="#263238" stroke-miterlimit="10" stroke-width="1"/>
        <path id="Path_3548" data-name="Path 3548" d="M296.671,437.333l.918,1.094-.478.39-.906-1.082a4.642,4.642,0,0,1-2.994,1.032l-.176-.78a4.164,4.164,0,0,0,2.667-.855l-2.088-2.516c-1.258.616-2.6,1.183-3.648-.075-.767-.906-.767-2.252.591-3.585l-.906-1.094.478-.39.906,1.082a4.768,4.768,0,0,1,2.428-1.019l.226.755a4.818,4.818,0,0,0-2.164.868l2.113,2.516c1.258-.642,2.68-1.258,3.774,0C298.143,434.6,298.118,435.986,296.671,437.333Zm-3.61-3.422-1.988-2.378c-.918.906-.931,1.774-.428,2.378S292.1,434.4,293.061,433.911Zm3.648.352c-.629-.755-1.535-.44-2.516,0l1.988,2.378c.981-.855,1.044-1.736.528-2.34Z" transform="translate(47.047 61.856)" fill="#263238"/>
        <circle id="Ellipse_228" data-name="Ellipse 228" cx="7.938" cy="7.938" r="7.938" transform="translate(112.943 45.169) rotate(-84.76)" fill="none" stroke="#263238" stroke-miterlimit="10" stroke-width="1"/>
        <path id="Path_3549" data-name="Path 3549" d="M122.553,73.233l.906,1.094-.478.39-.906-1.082a4.617,4.617,0,0,1-2.994,1.032l-.176-.78a4.24,4.24,0,0,0,2.667-.855l-2.088-2.516c-1.258.616-2.6,1.183-3.648-.075-.755-.906-.767-2.252.6-3.585l-.918-1.094.478-.39.906,1.082a4.818,4.818,0,0,1,2.428-1.019l.226.755a4.768,4.768,0,0,0-2.151.868l2.1,2.516c1.258-.642,2.68-1.258,3.774,0C124.024,70.5,123.987,71.886,122.553,73.233Zm-3.623-3.384-1.988-2.428c-.906.906-.931,1.774-.428,2.378S117.973,70.3,118.929,69.848Zm3.661.34c-.629-.742-1.547-.428-2.516,0l1.988,2.378c.969-.881,1.032-1.761.528-2.378Z" transform="translate(2.123 -32.083)" fill="#263238"/>
      </g>
      <g id="freepik--Device--inject-1" transform="translate(54.013 83.97)">
        <path id="Path_3550" data-name="Path 3550" d="M306.027,341.285s-9.7,49.226-69.19,60.384c0,0-15.536,12.391-20.707,19.725s-32.708,19.8-60.762,58.7S85.55,395.468,85.55,395.468L177.862,275.58Z" transform="translate(-37.608 -20.382)" fill="rgba(0,0,0,0.7)" opacity="0.2"/>
        <path id="Path_3551" data-name="Path 3551" d="M313,146.807s32.079-15.687,39.136-12.983,13.838,18.933-13.146,34.469-18.933,44.483-18.933,44.483h19.247s11.548,4.7,16.04,10.756,7.7,26.682,10.265,33.677,1.258,14-5.774,16.279c0,0-4.491,19.575-3.208,28.255s.642,14.266-7.7,15.322a14.555,14.555,0,0,1-16.04-15.322l-6.416,23.248,4.491,8.932a58.07,58.07,0,0,1,17.323,10.492c8.982,7.7,17.964,9.8,15.4,18.379s-7.7,17.826-34.645,7.108-49.4-52.836-49.4-52.836L263.45,170.206Z" transform="translate(8.291 -57.036)" fill="#fff"/>
        <path id="Path_3552" data-name="Path 3552" d="M346.767,230.893c-14.542,19.826,1.547,42.659,1.547,42.659s-10.064,5.611-10.353,19.927c-.113,5.95,1.384,14.266,3.17,21.965a14.417,14.417,0,0,1-8.227-13.976l-6.428,23.248,4.491,8.919a55.064,55.064,0,0,1,13.234,7.284c-3.988,9.158-5.208,20.48-4.856,32.155a85.827,85.827,0,0,1-10.3-3.447c-26.946-10.731-49.4-52.836-49.4-52.836L263.45,169.917,313,146.531s17.524-8.567,29.525-11.951c-.931,11.221,1.258,22.833,2.843,29.3a67.675,67.675,0,0,1-6.378,4.139C312.047,183.554,320.06,212.5,320.06,212.5h19.26s10.97,4.478,15.675,10.3a31.449,31.449,0,0,0-8.227,8.089Z" transform="translate(8.291 -56.76)" fill="#7d25f5" opacity="0.4"/>
        <path id="Path_3553" data-name="Path 3553" d="M318.615,347.308s-34.9,68.423-97.8,83.947c0,0-2.4,13.536-13.045,19.348C202.086,453.7,179.14,488.079,159,519.466L47.44,451.03c6.869-6.793,14.693-14.618,22.644-22.782,23.273-23.726,48.106-50.32,55.7-63.479,6.793-11.7,15.385-32,22.87-51.087,9.586-24.405,17.386-46.823,17.386-46.823l37.187-41.338,58.459-65,2.516,8.315Z" transform="translate(-47.44 -50.067)" fill="#fff"/>
        <path id="Path_3554" data-name="Path 3554" d="M237.576,160.52,294.45,347.308s-34.9,68.423-97.8,83.947c0,0-2.4,13.536-13.045,19.348-5.107,2.78-24.116,30.771-42.508,59.126,6.818-23.4,26.556-60.7,26.556-60.7-12.668-15.008-8.97-30.821-3.9-26.317s17.813,17.159,18.618,17.952c-5.6-6.592-6.894-16.92-6.894-16.92s15.7,10.441,16.97-6.29-9.41-57.616-9.41-57.616L155,252.329Z" transform="translate(-23.276 -50.067)" fill="#7d25f5" opacity="0.4"/>
        <path id="Path_3555" data-name="Path 3555" d="M263.45,170.206,313,146.807s32.079-15.687,39.136-12.983,13.838,18.933-13.146,34.469-18.933,44.483-18.933,44.483h19.247s11.548,4.7,16.04,10.756,7.7,26.682,10.265,33.677,1.258,14-5.774,16.279c0,0-4.491,19.575-3.208,28.255s.642,14.266-7.7,15.322a14.555,14.555,0,0,1-16.04-15.322l-6.416,23.248,4.491,8.932a58.069,58.069,0,0,1,17.323,10.492c8.982,7.7,17.964,9.8,15.4,18.379s-7.7,17.826-34.645,7.108-49.4-52.836-49.4-52.836" transform="translate(8.291 -57.036)" fill="none" stroke="#263238" stroke-linecap="round" stroke-linejoin="round" stroke-width="1"/>
        <path id="Path_3556" data-name="Path 3556" d="M345.433,255.7c-9.624,2.6-20.845.679-25.022-16.354s4.177-35.224,9.624-36.9" transform="translate(22.696 -39.249)" fill="none" stroke="#263238" stroke-linecap="round" stroke-linejoin="round" stroke-width="1"/>
        <path id="Path_3557" data-name="Path 3557" d="M318.652,272.841s-.642-21.9,7.384-27.311" transform="translate(22.53 -28.135)" fill="none" stroke="#263238" stroke-linecap="round" stroke-linejoin="round" stroke-width="1"/>
        <path id="Path_3558" data-name="Path 3558" d="M149.942,372.142s-23.512-2.931-28.758-13.448c-4.34-8.705-27.865,23.9-55.7,38.143,23.273-23.726,48.106-50.32,55.7-63.479,6.793-11.7,15.385-32,22.87-51.087h0c-.377,15.826-8.806,40.055-6.4,52.673a10.127,10.127,0,0,0-7.234,12.253C132.217,357.222,149.942,372.142,149.942,372.142Z" transform="translate(-42.786 -18.656)" fill="#7d25f5" opacity="0.4"/>
        <path id="Path_3559" data-name="Path 3559" d="M295.738,309s-34.9,68.423-97.81,83.947c0,0-2.39,13.536-13.033,19.348-5.686,3.095-28.62,37.476-48.785,68.863" transform="translate(-24.563 -11.759)" fill="none" stroke="#263238" stroke-linecap="round" stroke-linejoin="round" stroke-width="1"/>
        <path id="Path_3560" data-name="Path 3560" d="M47.44,451.03c26.871-26.556,68.171-68.662,78.4-86.261,15.473-26.632,40.256-97.923,40.256-97.923L261.7,160.52" transform="translate(-47.44 -50.067)" fill="none" stroke="#263238" stroke-linecap="round" stroke-linejoin="round" stroke-width="1"/>
        <path id="Path_3561" data-name="Path 3561" d="M174.39,225.07s14.693,13.159,18.87,25.16" transform="translate(-14.687 -33.413)" fill="none" stroke="#263238" stroke-linecap="round" stroke-linejoin="round" stroke-width="1"/>
        <rect id="Rectangle_17071" data-name="Rectangle 17071" width="175.026" height="353.486" rx="6.73" transform="translate(166.585)" fill="#263238"/>
        <path id="Path_3562" data-name="Path 3562" d="M300.77,80.814l-3.346,6.126a4.177,4.177,0,0,1-3.661,2.214H238.411a4.214,4.214,0,0,1-3.673-2.189L231.4,80.839a4.177,4.177,0,0,0-3.673-2.189H189.047a4.189,4.189,0,0,0-4.177,4.214V413.719a4.189,4.189,0,0,0,4.177,4.189H343.1a4.189,4.189,0,0,0,4.214-4.189V82.864a4.189,4.189,0,0,0-4.189-4.189H304.456A4.177,4.177,0,0,0,300.77,80.814Z" transform="translate(-11.983 -71.19)" fill="#7d25f5" stroke="#263238" stroke-linecap="round" stroke-linejoin="round" stroke-width="1"/>
        <circle id="Ellipse_229" data-name="Ellipse 229" cx="2.252" cy="2.252" r="2.252" transform="translate(239.838 8.089)" fill="none" stroke="#fff" stroke-miterlimit="10" stroke-width="1"/>
        <path id="Path_3563" data-name="Path 3563" d="M261.323,81.229a1.4,1.4,0,1,1-.4-1A1.4,1.4,0,0,1,261.323,81.229Z" transform="translate(7.022 -70.888)" fill="none" stroke="#fff" stroke-miterlimit="10" stroke-width="1"/>
        <path id="Path_3564" data-name="Path 3564" d="M258.755,80.24H245.068a.868.868,0,0,0-.868.881h0a.868.868,0,0,0,.868.868h13.687a.868.868,0,0,0,.868-.868h0a.868.868,0,0,0-.868-.881Z" transform="translate(3.324 -70.78)" fill="#fff"/>
        <rect id="Rectangle_17072" data-name="Rectangle 17072" width="14.756" height="6.265" transform="translate(186.776 15.851)" fill="none" stroke="#263238" stroke-linecap="round" stroke-linejoin="round" stroke-width="1"/>
        <rect id="Rectangle_17073" data-name="Rectangle 17073" width="2.29" height="4.164" transform="translate(201.519 16.908)" fill="none" stroke="#263238" stroke-linecap="round" stroke-linejoin="round" stroke-width="1"/>
        <rect id="Rectangle_17074" data-name="Rectangle 17074" width="2.617" height="2.277" transform="translate(303.48 19.851)" fill="none" stroke="#263238" stroke-linecap="round" stroke-linejoin="round" stroke-width="1"/>
        <rect id="Rectangle_17075" data-name="Rectangle 17075" width="2.617" height="4.567" transform="translate(308.588 17.562)" fill="none" stroke="#263238" stroke-linecap="round" stroke-linejoin="round" stroke-width="1"/>
        <rect id="Rectangle_17076" data-name="Rectangle 17076" width="2.617" height="6.844" transform="translate(313.695 15.272)" fill="none" stroke="#263238" stroke-linecap="round" stroke-linejoin="round" stroke-width="1"/>
        <rect id="Rectangle_17077" data-name="Rectangle 17077" width="2.617" height="9.133" transform="translate(318.79 12.983)" fill="none" stroke="#263238" stroke-linecap="round" stroke-linejoin="round" stroke-width="1"/>
        <rect id="Rectangle_17078" data-name="Rectangle 17078" width="160.32" height="152.91" transform="translate(173.931 80.562)" fill="#fff" opacity="0.5"/>
        <path id="Path_3565" data-name="Path 3565" d="M222.856,118.39v2.654c0,3.283-1.573,5.032-4.793,5.032H216.54v7.686h-3.22V113.32h4.743C221.283,113.32,222.856,115.106,222.856,118.39Zm-6.29-2.139v6.932h1.522c1.019,0,1.573-.465,1.573-1.925v-3.082c0-1.459-.554-1.925-1.573-1.925Z" transform="translate(-4.643 -62.245)" fill="#263238"/>
        <path id="Path_3566" data-name="Path 3566" d="M232.382,133.8h-3.246l-.566-3.711h-3.938l-.566,3.711H221.11l3.283-20.48h4.7Zm-7.347-6.491h3.107l-1.522-10.353h-.063Z" transform="translate(-2.633 -62.245)" fill="#263238"/>
        <path id="Path_3567" data-name="Path 3567" d="M233.343,127.02l-4.063-13.7H232.7l2.428,9.334h.063l2.428-9.334h3.07l-4.063,13.7V133.8h-3.22Z" transform="translate(-0.525 -62.245)" fill="#263238"/>
        <path id="Path_3568" data-name="Path 3568" d="M246.118,127.863h.063l2.164-14.542h4.478V133.8h-3.044V119.119h0L247.615,133.8h-3.044l-2.34-14.48h0V133.8H239.3V113.32h4.478Z" transform="translate(2.06 -62.245)" fill="#263238"/>
        <path id="Path_3569" data-name="Path 3569" d="M255.13,121.95h4.441v2.931h-4.416v6h5.56V133.8H251.91V113.32h8.806v2.931h-5.56Z" transform="translate(5.314 -62.245)" fill="#263238"/>
        <path id="Path_3570" data-name="Path 3570" d="M263.406,118.968h-.063V133.8H260.45V113.32h4.038l3.246,12.266h0V113.32H270.6V133.8h-3.3Z" transform="translate(7.517 -62.245)" fill="#263238"/>
        <path id="Path_3571" data-name="Path 3571" d="M269.66,113.32h9.951v2.931h-3.371V133.8h-3.22V116.251H269.66Z" transform="translate(9.893 -62.245)" fill="#263238"/>
        <path id="Path_3572" data-name="Path 3572" d="M283.121,113.14c3.12,0,4.73,1.874,4.73,5.145v.642h-3.044v-.843c0-1.472-.579-2.025-1.61-2.025s-1.6.554-1.6,2.025.642,2.6,2.742,4.441c2.692,2.378,3.548,4.063,3.548,6.4,0,3.283-1.648,5.158-4.806,5.158s-4.793-1.874-4.793-5.158V127.67h3.044v1.472c0,1.459.642,1.988,1.661,1.988s1.673-.528,1.673-1.988-.642-2.6-2.755-4.453c-2.692-2.365-3.535-4.063-3.535-6.4C278.378,115.014,279.988,113.14,283.121,113.14Z" transform="translate(12.12 -62.292)" fill="#263238"/>
        <rect id="Rectangle_17079" data-name="Rectangle 17079" width="134.631" height="20.115" transform="translate(186.776 99.093)" fill="#fff" stroke="#263238" stroke-linecap="round" stroke-linejoin="round" stroke-width="1"/>
        <rect id="Rectangle_17080" data-name="Rectangle 17080" width="134.631" height="20.115" transform="translate(186.776 136.82)" fill="#fff" stroke="#263238" stroke-linecap="round" stroke-linejoin="round" stroke-width="1"/>
        <rect id="Rectangle_17081" data-name="Rectangle 17081" width="134.631" height="20.115" transform="translate(186.776 171.126)" fill="#fff" stroke="#263238" stroke-linecap="round" stroke-linejoin="round" stroke-width="1"/>
        <rect id="Rectangle_17082" data-name="Rectangle 17082" width="63.743" height="23.55" transform="translate(186.776 198.576)" fill="#fff" stroke="#263238" stroke-linecap="round" stroke-linejoin="round" stroke-width="1"/>
        <rect id="Rectangle_17083" data-name="Rectangle 17083" width="63.743" height="23.55" transform="translate(257.677 198.576)" fill="#fff" stroke="#263238" stroke-linecap="round" stroke-linejoin="round" stroke-width="1"/>
        <path id="Path_3573" data-name="Path 3573" d="M203.444,149.809v.541H199.23V144.4h4.089v.541h-3.447v2.126h3.07v.528h-3.07v2.214Z" transform="translate(-8.278 -54.226)" fill="#263238"/>
        <path id="Path_3574" data-name="Path 3574" d="M211.032,147.458v2.591h-.654v-2.516c0-.943-.478-1.434-1.258-1.434a1.447,1.447,0,0,0-1.5,1.623v2.34h-.6v-2.516c0-.943-.478-1.434-1.258-1.434a1.447,1.447,0,0,0-1.5,1.623v2.34h-.6v-4.466h.579v.818a1.812,1.812,0,0,1,1.648-.855,1.585,1.585,0,0,1,1.585.943,1.962,1.962,0,0,1,1.774-.943,1.686,1.686,0,0,1,1.786,1.887Z" transform="translate(-7.135 -53.926)" fill="#263238"/>
        <path id="Path_3575" data-name="Path 3575" d="M214.279,147.28v2.768H213.7v-.692a1.711,1.711,0,0,1-1.547.742c-1.006,0-1.623-.528-1.623-1.258s.44-1.258,1.723-1.258h1.384v-.277a1.1,1.1,0,0,0-1.258-1.183,2.252,2.252,0,0,0-1.484.528l-.277-.453a2.894,2.894,0,0,1,1.824-.6,1.585,1.585,0,0,1,1.837,1.686Zm-.6,1.434v-.742h-1.409c-.868,0-1.145.34-1.145.805s.415.843,1.132.843a1.447,1.447,0,0,0,1.384-.906Z" transform="translate(-5.362 -53.924)" fill="#263238"/>
        <path id="Path_3576" data-name="Path 3576" d="M214.7,144.548a.44.44,0,0,1,.44-.428.428.428,0,0,1,0,.855.44.44,0,0,1-.44-.428Zm.138,1.409h.6v4.466h-.6Z" transform="translate(-4.287 -54.299)" fill="#263238"/>
        <path id="Path_3577" data-name="Path 3577" d="M216.63,144.12h.6v6.29h-.6Z" transform="translate(-3.789 -54.299)" fill="#263238"/>
        <path id="Path_3578" data-name="Path 3578" d="M206.754,162.109v.541H202.54V156.7h4.089v.541h-3.51v2.113H206.2v.541h-3.082v2.214Z" transform="translate(-7.424 -51.053)" fill="#263238"/>
        <path id="Path_3579" data-name="Path 3579" d="M214.334,159.738v2.591h-.6v-2.516c0-.944-.478-1.434-1.258-1.434a1.434,1.434,0,0,0-1.5,1.61v2.352h-.6v-2.516c0-.944-.478-1.434-1.258-1.434a1.434,1.434,0,0,0-1.5,1.61v2.352H207v-4.478h.579v.818a1.824,1.824,0,0,1,1.648-.843,1.61,1.61,0,0,1,1.585.944,1.95,1.95,0,0,1,1.774-.944,1.686,1.686,0,0,1,1.749,1.887Z" transform="translate(-6.273 -50.757)" fill="#263238"/>
        <path id="Path_3580" data-name="Path 3580" d="M217.579,159.558v2.768H217v-.692a1.673,1.673,0,0,1-1.535.73c-1.006,0-1.635-.528-1.635-1.258s.453-1.258,1.736-1.258h1.422v-.264a1.1,1.1,0,0,0-1.258-1.183,2.3,2.3,0,0,0-1.5.528l-.264-.453a2.793,2.793,0,0,1,1.824-.6,1.585,1.585,0,0,1,1.786,1.686Zm-.591,1.422v-.73h-1.409c-.868,0-1.145.34-1.145.805s.415.843,1.132.843a1.434,1.434,0,0,0,1.422-.918Z" transform="translate(-4.511 -50.754)" fill="#263238"/>
        <path id="Path_3581" data-name="Path 3581" d="M218,156.818a.44.44,0,0,1,.44-.428.428.428,0,0,1,.44.428.44.44,0,1,1-.881,0Zm.138,1.409h.6v4.478h-.6Z" transform="translate(-3.435 -51.133)" fill="#263238"/>
        <path id="Path_3582" data-name="Path 3582" d="M219.94,156.39h.591v6.29h-.591Z" transform="translate(-2.935 -51.133)" fill="#263238"/>
        <path id="Path_3583" data-name="Path 3583" d="M225.844,159.741v2.591h-.6v-2.516a1.258,1.258,0,0,0-1.333-1.434,1.459,1.459,0,0,0-1.573,1.61v2.352h-.6v-4.478h.579v.83a1.887,1.887,0,0,1,1.7-.855,1.711,1.711,0,0,1,1.837,1.9Z" transform="translate(-2.473 -50.76)" fill="#263238"/>
        <path id="Path_3584" data-name="Path 3584" d="M229.769,159.559v2.768h-.579v-.692a1.673,1.673,0,0,1-1.535.73c-1.019,0-1.635-.528-1.635-1.258s.44-1.258,1.723-1.258h1.422v-.264c0-.767-.428-1.183-1.258-1.183a2.252,2.252,0,0,0-1.484.528l-.277-.453a2.818,2.818,0,0,1,1.824-.6,1.585,1.585,0,0,1,1.8,1.686Zm-.6,1.422v-.73h-1.4c-.868,0-1.157.34-1.157.805s.415.843,1.132.843a1.434,1.434,0,0,0,1.434-.918Z" transform="translate(-1.366 -50.754)" fill="#263238"/>
        <path id="Path_3585" data-name="Path 3585" d="M237.689,159.738v2.591h-.6v-2.516c0-.944-.478-1.434-1.258-1.434a1.434,1.434,0,0,0-1.5,1.61v2.352h-.642v-2.516c0-.944-.478-1.434-1.258-1.434a1.434,1.434,0,0,0-1.5,1.61v2.352h-.6v-4.478h.579v.818a1.824,1.824,0,0,1,1.648-.843,1.585,1.585,0,0,1,1.585.943,1.963,1.963,0,0,1,1.774-.943,1.686,1.686,0,0,1,1.774,1.887Z" transform="translate(-0.254 -50.757)" fill="#263238"/>
        <path id="Path_3586" data-name="Path 3586" d="M241.486,160.288h-3.774a1.661,1.661,0,0,0,1.774,1.535,1.774,1.774,0,0,0,1.371-.591l.34.39a2.365,2.365,0,0,1-4.076-1.547,2.151,2.151,0,0,1,2.189-2.264,2.126,2.126,0,0,1,2.164,2.264S241.486,160.225,241.486,160.288Zm-3.774-.453h3.17a1.585,1.585,0,0,0-3.17,0Z" transform="translate(1.497 -50.767)" fill="#263238"/>
        <path id="Path_3587" data-name="Path 3587" d="M249.147,160.386c0,1.447-.541,2.29-1.422,2.29a.906.906,0,0,1-.956-.918,1.9,1.9,0,0,1-1.7.918,2.189,2.189,0,1,1,0-4.378,1.887,1.887,0,0,1,1.686.893v-.843h.554v3.22c0,.478.239.654.528.654.516,0,.855-.654.855-1.8a3.246,3.246,0,0,0-3.485-3.334,3.422,3.422,0,0,0,0,6.844,3.774,3.774,0,0,0,1.635-.377l.138.415a4.1,4.1,0,0,1-1.774.39,3.849,3.849,0,1,1,0-7.7,3.673,3.673,0,0,1,3.938,3.724Zm-2.39.088a1.623,1.623,0,1,0-.764,1.524A1.623,1.623,0,0,0,246.757,160.474Z" transform="translate(2.592 -51.065)" fill="#263238"/>
        <path id="Path_3588" data-name="Path 3588" d="M252.548,160.283h-3.774a1.661,1.661,0,0,0,1.761,1.56,1.774,1.774,0,0,0,1.371-.591l.34.39a2.365,2.365,0,0,1-4.076-1.547,2.151,2.151,0,0,1,2.189-2.264,2.126,2.126,0,0,1,2.164,2.264A1.368,1.368,0,0,1,252.548,160.283Zm-3.774-.453h3.17a1.585,1.585,0,0,0-3.17,0Z" transform="translate(4.348 -50.762)" fill="#263238"/>
        <path id="Path_3589" data-name="Path 3589" d="M260.019,159.738v2.591h-.642v-2.516c0-.944-.478-1.434-1.258-1.434a1.434,1.434,0,0,0-1.5,1.61v2.352h-.6v-2.516c0-.944-.478-1.434-1.258-1.434a1.434,1.434,0,0,0-1.5,1.61v2.352h-.6v-4.478h.579v.818a1.811,1.811,0,0,1,1.635-.843,1.623,1.623,0,0,1,1.6.944,1.925,1.925,0,0,1,1.761-.944,1.686,1.686,0,0,1,1.786,1.887Z" transform="translate(5.507 -50.757)" fill="#263238"/>
        <path id="Path_3590" data-name="Path 3590" d="M263.267,159.559v2.768h-.616v-.692a1.686,1.686,0,0,1-1.535.73c-1.019,0-1.635-.528-1.635-1.258s.44-1.258,1.723-1.258h1.447v-.264c0-.767-.428-1.183-1.258-1.183a2.252,2.252,0,0,0-1.484.528l-.277-.453a2.818,2.818,0,0,1,1.824-.6,1.585,1.585,0,0,1,1.812,1.686Zm-.6,1.422v-.73h-1.4c-.868,0-1.157.34-1.157.805s.415.843,1.132.843a1.434,1.434,0,0,0,1.409-.918Z" transform="translate(7.267 -50.755)" fill="#263238"/>
        <path id="Path_3591" data-name="Path 3591" d="M263.69,156.82a.44.44,0,1,1,.44.44A.44.44,0,0,1,263.69,156.82Zm.126,1.409h.6v4.478h-.6Z" transform="translate(8.353 -51.136)" fill="#263238"/>
        <path id="Path_3592" data-name="Path 3592" d="M265.61,156.39h.6v6.29h-.6Z" transform="translate(8.848 -51.133)" fill="#263238"/>
        <path id="Path_3593" data-name="Path 3593" d="M267.12,161.163a.44.44,0,0,1,.453-.453.453.453,0,0,1,.453.453.465.465,0,0,1-.453.465.453.453,0,0,1-.453-.465Z" transform="translate(9.238 -50.018)" fill="#263238"/>
        <path id="Path_3594" data-name="Path 3594" d="M268.4,160.1a2.2,2.2,0,0,1,2.3-2.264,1.95,1.95,0,0,1,1.761.881l-.453.3a1.535,1.535,0,0,0-1.258-.654,1.749,1.749,0,0,0,0,3.485,1.51,1.51,0,0,0,1.258-.654l.453.3a1.975,1.975,0,0,1-1.761.881,2.2,2.2,0,0,1-2.3-2.277Z" transform="translate(9.568 -50.762)" fill="#263238"/>
        <path id="Path_3595" data-name="Path 3595" d="M272.15,160.1a2.277,2.277,0,1,1,2.277,2.277,2.2,2.2,0,0,1-2.277-2.277Zm3.938,0a1.673,1.673,0,1,0-1.61,1.723,1.635,1.635,0,0,0,1.61-1.723Z" transform="translate(10.535 -50.764)" fill="#263238"/>
        <path id="Path_3596" data-name="Path 3596" d="M284.112,159.738v2.591h-.6v-2.516c0-.944-.478-1.434-1.258-1.434a1.434,1.434,0,0,0-1.5,1.61v2.352h-.6v-2.516c0-.944-.478-1.434-1.258-1.434a1.434,1.434,0,0,0-1.5,1.61v2.352h-.6v-4.478h.579v.818a1.812,1.812,0,0,1,1.635-.843,1.623,1.623,0,0,1,1.6.944,1.937,1.937,0,0,1,1.761-.944,1.686,1.686,0,0,1,1.749,1.887Z" transform="translate(11.733 -50.757)" fill="#263238"/>
        <path id="Path_3597" data-name="Path 3597" d="M203.772,189.885l1.057.6-.189.352-1.069-.616v1.258h-.39v-1.258l-1.069.616-.2-.352,1.069-.6-1.069-.591.2-.365,1.069.629V188.3h.39v1.258l1.069-.629.189.365Z" transform="translate(-7.586 -42.9)" fill="#263238"/>
        <path id="Path_3598" data-name="Path 3598" d="M206.524,189.885l1.057.6-.2.352-1.057-.616v1.258h-.4v-1.258l-1.057.616-.214-.352,1.069-.6-1.069-.591.214-.365,1.057.629V188.3h.428v1.258l1.057-.629.2.365Z" transform="translate(-6.88 -42.9)" fill="#263238"/>
        <path id="Path_3599" data-name="Path 3599" d="M209.259,189.885l1.057.6-.2.352-1.057-.616v1.258h-.39v-1.258l-1.057.616-.2-.352,1.057-.6-1.057-.591.2-.365,1.057.629V188.3h.39v1.258l1.057-.629.2.365Z" transform="translate(-6.167 -42.9)" fill="#263238"/>
        <path id="Path_3600" data-name="Path 3600" d="M212,189.885l1.057.6-.189.352-1.069-.616v1.258h-.39v-1.258l-1.069.616-.2-.352,1.069-.6-1.069-.591.2-.365,1.069.629V188.3h.39v1.258l1.069-.629.189.365Z" transform="translate(-5.463 -42.9)" fill="#263238"/>
        <path id="Path_3601" data-name="Path 3601" d="M214.754,189.885l1.057.6-.2.352-1.057-.616v1.258h-.4v-1.258l-1.057.616-.214-.352,1.069-.6-1.069-.591.214-.365,1.057.629V188.3h.4v1.258l1.057-.629.2.365Z" transform="translate(-4.756 -42.9)" fill="#263238"/>
        <path id="Path_3602" data-name="Path 3602" d="M217.489,189.885l1.057.6-.2.352-1.057-.616v1.258h-.39v-1.258l-1.057.616-.2-.352,1.057-.6-1.057-.591.2-.365,1.057.629V188.3h.453v1.258l1.057-.629.2.365Z" transform="translate(-4.044 -42.9)" fill="#263238"/>
        <path id="Path_3603" data-name="Path 3603" d="M220.232,189.885l1.057.6-.189.352-1.069-.616v1.258h-.39v-1.258l-1.069.616-.2-.352,1.069-.6-1.069-.591.2-.365,1.069.629V188.3h.39v1.258l1.069-.629.189.365Z" transform="translate(-3.34 -42.9)" fill="#263238"/>
        <path id="Path_3604" data-name="Path 3604" d="M222.984,189.885l1.057.6-.2.352-1.069-.616v1.258h-.39v-1.258l-1.057.616-.214-.352,1.069-.6-1.069-.591.214-.365,1.057.629V188.3h.39v1.258l1.069-.629.2.365Z" transform="translate(-2.633 -42.9)" fill="#263238"/>
        <path id="Path_3605" data-name="Path 3605" d="M225.719,189.885l1.057.6-.2.352-1.057-.616v1.258h-.39v-1.258l-1.057.616-.2-.352,1.057-.6-1.057-.591.2-.365,1.057.629V188.3h.39v1.258l1.057-.629.2.365Z" transform="translate(-1.921 -42.9)" fill="#263238"/>
        <path id="Path_3606" data-name="Path 3606" d="M228.462,189.885l1.057.6-.189.352-1.069-.616v1.258h-.39v-1.258l-1.069.616-.2-.352,1.057-.6-1.057-.591.2-.365,1.069.629V188.3h.39v1.258l1.069-.629.189.365Z" transform="translate(-1.216 -42.9)" fill="#263238"/>
        <path id="Path_3607" data-name="Path 3607" d="M231.214,189.885l1.044.6-.189.352L231,190.225v1.258h-.39v-1.258l-1.057.616-.214-.352,1.069-.6-1.069-.591.214-.365,1.057.629V188.3H231v1.258l1.069-.629.189.365Z" transform="translate(-0.509 -42.9)" fill="#263238"/>
        <path id="Path_3608" data-name="Path 3608" d="M203.9,176.413c0,1.258-.918,2.038-2.428,2.038h-1.6v1.874h-.642V174.4h2.227C202.979,174.4,203.9,175.155,203.9,176.413Zm-.629,0c0-.956-.629-1.5-1.824-1.5h-1.573V177.9h1.585C202.639,177.922,203.268,177.381,203.268,176.413Z" transform="translate(-8.278 -46.486)" fill="#263238"/>
        <path id="Path_3609" data-name="Path 3609" d="M207.339,177.279v2.768h-.579v-.692a1.7,1.7,0,0,1-1.547.73c-1.006,0-1.623-.516-1.623-1.258s.44-1.258,1.723-1.258h1.422V177.3a1.1,1.1,0,0,0-1.258-1.183,2.252,2.252,0,0,0-1.484.528l-.277-.453a2.818,2.818,0,0,1,1.824-.6,1.585,1.585,0,0,1,1.8,1.686Zm-.6,1.422v-.73h-1.371c-.868,0-1.145.34-1.145.805s.415.843,1.132.843a1.434,1.434,0,0,0,1.384-.918Z" transform="translate(-7.153 -46.182)" fill="#263238"/>
        <path id="Path_3610" data-name="Path 3610" d="M207.38,179.548l.264-.478a2.768,2.768,0,0,0,1.6.5c.843,0,1.2-.289,1.2-.742,0-1.157-2.893-.239-2.893-2.013,0-.73.629-1.258,1.761-1.258a3.082,3.082,0,0,1,1.585.415l-.264.478a2.34,2.34,0,0,0-1.321-.377c-.805,0-1.157.314-1.157.742,0,1.258,2.893.3,2.893,2.013,0,.78-.679,1.258-1.849,1.258A2.981,2.981,0,0,1,207.38,179.548Z" transform="translate(-6.175 -46.187)" fill="#263238"/>
        <path id="Path_3611" data-name="Path 3611" d="M210.68,179.548l.277-.478a2.7,2.7,0,0,0,1.585.5c.855,0,1.258-.289,1.258-.742,0-1.157-2.893-.239-2.893-2.013,0-.73.629-1.258,1.774-1.258a3.007,3.007,0,0,1,1.573.415l-.264.478a2.327,2.327,0,0,0-1.258-.377c-.818,0-1.17.315-1.17.742,0,1.258,2.893.3,2.893,2.013,0,.78-.679,1.258-1.837,1.258a2.994,2.994,0,0,1-1.937-.541Z" transform="translate(-5.324 -46.187)" fill="#263238"/>
        <path id="Path_3612" data-name="Path 3612" d="M221.134,175.58l-1.7,4.466h-.566l-1.409-3.661-1.409,3.661h-.579L213.8,175.58h.579l1.4,3.774,1.434-3.774h.528l1.422,3.774,1.422-3.774Z" transform="translate(-4.519 -46.182)" fill="#263238"/>
        <path id="Path_3613" data-name="Path 3613" d="M219.89,177.817a2.277,2.277,0,1,1,2.277,2.277,2.2,2.2,0,0,1-2.277-2.277Zm3.938,0a1.661,1.661,0,1,0-1.661,1.661A1.661,1.661,0,0,0,223.828,177.817Z" transform="translate(-2.948 -46.192)" fill="#263238"/>
        <path id="Path_3614" data-name="Path 3614" d="M226.742,175.551v.566h-.151a1.447,1.447,0,0,0-1.5,1.648v2.277h-.6v-4.466h.642v.868A1.673,1.673,0,0,1,226.742,175.551Z" transform="translate(-1.761 -46.191)" fill="#263238"/>
        <path id="Path_3615" data-name="Path 3615" d="M231.254,174.123v6.29h-.579v-.881a1.925,1.925,0,0,1-1.723.918,2.277,2.277,0,0,1,0-4.541,1.937,1.937,0,0,1,1.7.881v-2.68Zm-.591,4.063A1.661,1.661,0,1,0,229,179.935a1.635,1.635,0,0,0,1.661-1.749Z" transform="translate(-1.153 -46.561)" fill="#263238"/>
        <path id="Path_3616" data-name="Path 3616" d="M237.868,215v5.963h-.579v-5.409H235.88V215Z" transform="translate(1.178 -36.011)" fill="#263238"/>
        <path id="Path_3617" data-name="Path 3617" d="M242.7,220.4v.554h-4.177v-.44l2.516-2.428c.667-.654.805-1.057.805-1.459,0-.692-.491-1.12-1.4-1.12a2,2,0,0,0-1.623.667l-.44-.377a2.692,2.692,0,0,1,2.113-.855c1.258,0,1.975.616,1.975,1.61a2.516,2.516,0,0,1-.981,1.862l-2.025,1.988Z" transform="translate(1.825 -36.028)" fill="#263238"/>
        <path id="Path_3618" data-name="Path 3618" d="M246.442,219.227c0,.994-.73,1.761-2.164,1.761a3.1,3.1,0,0,1-2.139-.767l.289-.491a2.63,2.63,0,0,0,1.849.692c.994,0,1.535-.453,1.535-1.2s-.5-1.183-1.61-1.183h-.428v-.453l1.648-2.063h-3.044V215h3.774v.44l-1.673,2.076C245.8,217.6,246.442,218.271,246.442,219.227Z" transform="translate(2.793 -36.011)" fill="#263238"/>
        <path id="Path_3619" data-name="Path 3619" d="M251.318,219.37h-1.2v1.573h-.6V219.37H246.16v-.44l3.158-3.95H250l-3.044,3.8h2.579V217.4h.591v1.384h1.2Z" transform="translate(3.83 -36.017)" fill="#263238"/>
        <path id="Path_3620" data-name="Path 3620" d="M256.572,219.195c0,1.019-.7,1.812-2.164,1.812a3.107,3.107,0,0,1-2.139-.767l.3-.491a2.516,2.516,0,0,0,1.824.692c1.019,0,1.547-.491,1.547-1.258s-.478-1.258-1.988-1.258H252.7l.314-2.994h3.258v.554h-2.73l-.2,1.887h.767C255.893,217.433,256.572,218.15,256.572,219.195Z" transform="translate(5.407 -36.03)" fill="#263238"/>
        <path id="Path_3621" data-name="Path 3621" d="M260.778,219.167A1.862,1.862,0,0,1,258.741,221c-1.585,0-2.441-1.107-2.441-2.982s1.107-3.082,2.717-3.082a2.793,2.793,0,0,1,1.422.327l-.252.491a2.113,2.113,0,0,0-1.157-.277c-1.258,0-2.113.818-2.113,2.441v.478a1.925,1.925,0,0,1,1.824-1.019,1.811,1.811,0,0,1,2.038,1.786Zm-.6,0c0-.793-.579-1.258-1.5-1.258a1.371,1.371,0,0,0-1.535,1.258c0,.654.541,1.258,1.573,1.258a1.258,1.258,0,0,0,1.459-1.233Z" transform="translate(6.446 -36.027)" fill="#263238"/>
        <path id="Path_3622" data-name="Path 3622" d="M264.6,215v.44l-2.516,5.523h-.667l2.453-5.409h-3.057v1.107h-.6V215Z" transform="translate(7.455 -36.011)" fill="#263238"/>
        <path id="Path_3623" data-name="Path 3623" d="M268.794,219.282c0,1.057-.893,1.711-2.315,1.711s-2.29-.654-2.29-1.711a1.5,1.5,0,0,1,1.145-1.472,1.258,1.258,0,0,1-.931-1.258c0-.969.818-1.572,2.076-1.572s2.1.6,2.1,1.572a1.334,1.334,0,0,1-.956,1.258A1.51,1.51,0,0,1,268.794,219.282Zm-.629,0c0-.73-.629-1.2-1.686-1.2s-1.673.465-1.673,1.2.616,1.258,1.673,1.258,1.686-.5,1.686-1.271Zm-1.7-1.686c.931,0,1.484-.415,1.484-1.069s-.591-1.069-1.484-1.069-1.472.4-1.472,1.069S265.549,217.6,266.467,217.6Z" transform="translate(8.482 -36.017)" fill="#263238"/>
        <path id="Path_3624" data-name="Path 3624" d="M274.623,217.923c0,2.025-1.107,3.082-2.73,3.082a2.78,2.78,0,0,1-1.409-.327l.252-.491a2.113,2.113,0,0,0,1.157.277c1.258,0,2.1-.83,2.1-2.441a3.288,3.288,0,0,0,0-.478,1.887,1.887,0,0,1-1.811,1.019,1.812,1.812,0,0,1-2.013-1.786,1.862,1.862,0,0,1,2.038-1.837C273.73,214.942,274.623,216.049,274.623,217.923Zm-.843-1.183c0-.654-.541-1.258-1.573-1.258a1.258,1.258,0,0,0-1.459,1.258c0,.793.579,1.258,1.5,1.258a1.384,1.384,0,0,0,1.484-1.258Z" transform="translate(10.025 -36.029)" fill="#263238"/>
        <path id="Path_3625" data-name="Path 3625" d="M276.125,215v5.963h-.616v-5.409H274.1V215Z" transform="translate(11.039 -36.011)" fill="#263238"/>
        <path id="Path_3626" data-name="Path 3626" d="M276.83,217.972c0-1.9,1.006-3.032,2.378-3.032s2.378,1.132,2.378,3.032S280.591,221,279.208,221,276.83,219.871,276.83,217.972Zm4.126,0c0-1.585-.7-2.516-1.749-2.516s-1.749.881-1.749,2.516.717,2.516,1.749,2.516S280.956,219.557,280.956,217.972Z" transform="translate(11.743 -36.027)" fill="#263238"/>
        <path id="Path_3627" data-name="Path 3627" d="M283.025,215v5.963h-.616v-5.409H281V215Z" transform="translate(12.819 -36.011)" fill="#263238"/>
        <path id="Path_3628" data-name="Path 3628" d="M287.235,215v5.963h-.616v-5.409H285.21V215Z" transform="translate(13.905 -36.011)" fill="#263238"/>
        <path id="Path_3629" data-name="Path 3629" d="M289.663,215v5.963h-.6v-5.409H287.65V215Z" transform="translate(14.535 -36.011)" fill="#263238"/>
        <path id="Path_3630" data-name="Path 3630" d="M294.495,220.4v.554h-4.177v-.44l2.516-2.428c.667-.654.805-1.057.805-1.459,0-.692-.491-1.12-1.4-1.12a2,2,0,0,0-1.623.667l-.44-.377a2.717,2.717,0,0,1,2.113-.855c1.258,0,1.975.616,1.975,1.61a2.516,2.516,0,0,1-.981,1.862l-2.076,1.988Z" transform="translate(15.187 -36.028)" fill="#263238"/>
        <path id="Path_3631" data-name="Path 3631" d="M295.953,215v5.963h-.667v-5.409h-1.4V215Z" transform="translate(16.145 -36.011)" fill="#263238"/>
        <path id="Path_3632" data-name="Path 3632" d="M219.735,214.411v-.906a1.585,1.585,0,0,0-1.585-1.585H202.085a1.585,1.585,0,0,0-1.585,1.585v.906Z" transform="translate(-7.95 -36.806)" fill="#263238"/>
        <path id="Path_3633" data-name="Path 3633" d="M200.5,214.89v6.667a1.585,1.585,0,0,0,1.585,1.585H218.15a1.585,1.585,0,0,0,1.585-1.585V214.89Z" transform="translate(-7.95 -36.04)" fill="#263238"/>
        <path id="Path_3634" data-name="Path 3634" d="M200.69,243.419c0-1.9.994-3.019,2.378-3.019s2.378,1.12,2.378,3.019-1.006,3.032-2.378,3.032S200.69,245.319,200.69,243.419Zm4.126,0c0-1.585-.717-2.516-1.749-2.516s-1.749.881-1.749,2.516.7,2.516,1.749,2.516,1.786-.918,1.786-2.516Z" transform="translate(-7.901 -29.458)" fill="#263238"/>
        <path id="Path_3635" data-name="Path 3635" d="M209.744,244.73c0,1.057-.893,1.711-2.315,1.711s-2.29-.654-2.29-1.711a1.472,1.472,0,0,1,1.145-1.459,1.346,1.346,0,0,1-.931-1.258c0-.969.818-1.573,2.076-1.573s2.1.6,2.1,1.573a1.359,1.359,0,0,1-.943,1.258,1.484,1.484,0,0,1,1.157,1.459Zm-.629,0c0-.73-.629-1.183-1.686-1.183s-1.673.453-1.673,1.183.629,1.258,1.673,1.258,1.686-.528,1.686-1.271Zm-1.635-1.686c.931,0,1.484-.415,1.484-1.057s-.591-1.082-1.484-1.082-1.472.4-1.472,1.069S206.511,243.044,207.48,243.044Z" transform="translate(-6.753 -29.448)" fill="#263238"/>
        <path id="Path_3636" data-name="Path 3636" d="M211.755,239.48h.554l-2.818,8H209Z" transform="translate(-5.757 -29.696)" fill="#263238"/>
        <path id="Path_3637" data-name="Path 3637" d="M215.885,245.848v.553h-4.177v-.44l2.516-2.415c.667-.667.793-1.069.793-1.472,0-.692-.478-1.12-1.384-1.12a2.025,2.025,0,0,0-1.635.667l-.428-.377a2.667,2.667,0,0,1,2.113-.843c1.258,0,1.962.6,1.962,1.6a2.44,2.44,0,0,1-.969,1.862l-2.025,1.988Z" transform="translate(-5.094 -29.459)" fill="#263238"/>
        <path id="Path_3638" data-name="Path 3638" d="M219.672,244.642c0,1.019-.7,1.812-2.164,1.812a3.107,3.107,0,0,1-2.139-.767l.3-.491a2.516,2.516,0,0,0,1.824.692c1.019,0,1.547-.491,1.547-1.258s-.465-1.258-1.988-1.258H215.8l.3-2.981h3.258v.541h-2.73l-.2,1.9h.767C218.993,242.893,219.672,243.6,219.672,244.642Z" transform="translate(-4.114 -29.461)" fill="#263238"/>
        <path id="Path_3639" data-name="Path 3639" d="M203.437,238.079v.34H200.82v-3.7h2.516v.352H201.2v1.258h1.912v.34H201.2v1.371Z" transform="translate(-7.868 -30.924)" fill="#263238"/>
        <path id="Path_3640" data-name="Path 3640" d="M206.023,238.419l-1.182-1.635-1.258,1.635h-.453l1.409-1.9-1.258-1.8h.44l1.12,1.51,1.107-1.51h.415l-1.258,1.786,1.409,1.912Z" transform="translate(-7.272 -30.924)" fill="#263238"/>
        <path id="Path_3641" data-name="Path 3641" d="M209.143,235.991c0,.78-.579,1.258-1.51,1.258h-.994v1.17h-.39v-3.7h1.384C208.565,234.72,209.143,235.2,209.143,235.991Zm-.39,0c0-.591-.39-.931-1.132-.931h-.981v1.849h.981C208.363,236.909,208.753,236.569,208.753,235.991Z" transform="translate(-6.467 -30.924)" fill="#263238"/>
        <path id="Path_3642" data-name="Path 3642" d="M210.37,234.72h1.5a1.849,1.849,0,0,1,0,3.7h-1.5Zm1.472,3.359a1.51,1.51,0,1,0,0-3.019H210.76v3.019Z" transform="translate(-5.404 -30.924)" fill="#263238"/>
        <path id="Path_3643" data-name="Path 3643" d="M215.917,236.514v1.723h-.365v-.44a1.031,1.031,0,0,1-.956.465c-.616,0-1.006-.327-1.006-.805s.277-.793,1.069-.793h.881V236.5a.679.679,0,0,0-.78-.742,1.422,1.422,0,0,0-.931.327l-.164-.277a1.749,1.749,0,0,1,1.132-.377.981.981,0,0,1,1.12,1.082Zm-.377.881v-.453h-.868c-.541,0-.717.214-.717.5s.264.516.7.516a.881.881,0,0,0,.881-.553Z" transform="translate(-4.573 -30.743)" fill="#263238"/>
        <path id="Path_3644" data-name="Path 3644" d="M217.8,238.17a.83.83,0,0,1-.579.2.742.742,0,0,1-.818-.805v-1.686h-.491v-.315h.491V235h.377v.6h.843v.315h-.843v1.6a.44.44,0,0,0,.478.5.654.654,0,0,0,.415-.138Z" transform="translate(-3.974 -30.851)" fill="#263238"/>
        <path id="Path_3645" data-name="Path 3645" d="M220.34,236.966h-2.264a1.032,1.032,0,0,0,1.094.956,1.082,1.082,0,0,0,.855-.365l.214.252a1.409,1.409,0,0,1-1.082.453,1.371,1.371,0,0,1-1.447-1.422,1.333,1.333,0,0,1,1.346-1.409,1.258,1.258,0,0,1,1.346,1.409Zm-2.327-.289h1.975a.994.994,0,0,0-1.975,0Z" transform="translate(-3.51 -30.741)" fill="#263238"/>
        <path id="Path_3646" data-name="Path 3646" d="M256.953,240.44v5.95h-.6v-5.409H254.94v-.541Z" transform="translate(6.095 -29.448)" fill="#263238"/>
        <path id="Path_3647" data-name="Path 3647" d="M261.785,245.848v.553h-4.177v-.44l2.516-2.415c.667-.667.805-1.069.805-1.472,0-.692-.491-1.12-1.4-1.12a2,2,0,0,0-1.623.667l-.44-.377a2.692,2.692,0,0,1,2.113-.843c1.258,0,1.975.6,1.975,1.6a2.516,2.516,0,0,1-.981,1.862l-2.025,1.988Z" transform="translate(6.748 -29.459)" fill="#263238"/>
        <path id="Path_3648" data-name="Path 3648" d="M265.522,244.679c0,.994-.73,1.761-2.164,1.761a3.1,3.1,0,0,1-2.139-.767l.3-.491a2.516,2.516,0,0,0,1.837.692c.994,0,1.535-.453,1.535-1.2s-.5-1.183-1.61-1.183h-.428v-.453l1.648-2.063h-3.044v-.541h3.774v.428l-1.686,2.113C264.881,243.057,265.522,243.723,265.522,244.679Z" transform="translate(7.716 -29.448)" fill="#263238"/>
        <path id="Path_3649" data-name="Path 3649" d="M255.1,236.577a1.862,1.862,0,0,1,1.937-1.887,1.8,1.8,0,0,1,1.346.541l-.239.252a1.5,1.5,0,0,0-1.094-.44,1.535,1.535,0,1,0,0,3.057,1.447,1.447,0,0,0,1.094-.44l.239.252a1.761,1.761,0,0,1-1.359.541,1.849,1.849,0,0,1-1.925-1.874Z" transform="translate(6.137 -30.932)" fill="#263238"/>
        <path id="Path_3650" data-name="Path 3650" d="M263.51,234.72l-1.258,3.7h-.415l-1.082-3.158-1.082,3.158h-.415L258,234.72h.4l1.069,3.183,1.107-3.183h.365l1.082,3.2,1.082-3.2Z" transform="translate(6.885 -30.924)" fill="#263238"/>
        <path id="Path_3651" data-name="Path 3651" d="M231.272,271.473h-3.321l-.717,1.6h-.654l2.717-5.95h.629l2.717,5.95h-.667Zm-.239-.5-1.409-3.2-1.434,3.2Z" transform="translate(-1.222 -22.564)" fill="#263238"/>
        <path id="Path_3652" data-name="Path 3652" d="M231.69,270.538a2.2,2.2,0,0,1,2.3-2.277,1.937,1.937,0,0,1,1.749.893l-.44.3a1.547,1.547,0,0,0-1.258-.667,1.749,1.749,0,0,0,0,3.5,1.56,1.56,0,0,0,1.258-.654l.44.3a1.962,1.962,0,0,1-1.749.881,2.2,2.2,0,0,1-2.3-2.277Z" transform="translate(0.097 -22.271)" fill="#263238"/>
        <path id="Path_3653" data-name="Path 3653" d="M238.374,272.693a1.4,1.4,0,0,1-.943.315,1.183,1.183,0,0,1-1.258-1.258v-2.742h-.793v-.516h.78v-.981h.6v.981h1.371v.516h-1.371v2.667a.717.717,0,0,0,.78.818,1.044,1.044,0,0,0,.667-.226Z" transform="translate(1.049 -22.464)" fill="#263238"/>
        <path id="Path_3654" data-name="Path 3654" d="M238.53,267.26a.44.44,0,1,1,.44.44.44.44,0,0,1-.44-.44Zm.138,1.409h.6v4.478h-.6Z" transform="translate(1.862 -22.642)" fill="#263238"/>
        <path id="Path_3655" data-name="Path 3655" d="M240.09,270.537a2.277,2.277,0,1,1,2.29,2.277,2.214,2.214,0,0,1-2.29-2.277Zm3.938,0a1.661,1.661,0,1,0-1.648,1.749,1.635,1.635,0,0,0,1.648-1.749Z" transform="translate(2.264 -22.27)" fill="#263238"/>
        <path id="Path_3656" data-name="Path 3656" d="M248.844,270.173v2.591h-.6v-2.516a1.258,1.258,0,0,0-1.346-1.422,1.459,1.459,0,0,0-1.56,1.61v2.352h-.6v-4.478h.579v.868a1.9,1.9,0,0,1,1.7-.868,1.723,1.723,0,0,1,1.837,1.862Z" transform="translate(3.461 -22.258)" fill="#263238"/>
        <path id="Path_3657" data-name="Path 3657" d="M251.769,267.664V270h3.07v.541h-3.07v2.516h-.629v-5.95h4.076v.541Z" transform="translate(5.115 -22.567)" fill="#263238"/>
        <path id="Path_3658" data-name="Path 3658" d="M255.14,267.26a.44.44,0,1,1,.44.44.44.44,0,0,1-.44-.44Zm.126,1.409h.6v4.478h-.6Z" transform="translate(6.147 -22.642)" fill="#263238"/>
        <path id="Path_3659" data-name="Path 3659" d="M261.31,268.3v3.938a1.95,1.95,0,0,1-2.227,2.227,3.132,3.132,0,0,1-2.088-.679l.3-.465a2.692,2.692,0,0,0,1.761.616c1.132,0,1.648-.528,1.648-1.623v-.6a1.975,1.975,0,0,1-1.736.868,2.176,2.176,0,1,1,0-4.34,2.025,2.025,0,0,1,1.761.893v-.855Zm-.579,2.126a1.7,1.7,0,1,0-1.7,1.648,1.6,1.6,0,0,0,1.7-1.623Z" transform="translate(6.531 -22.277)" fill="#263238"/>
        <path id="Path_3660" data-name="Path 3660" d="M265.738,268.3v4.478h-.579v-.818a1.786,1.786,0,0,1-1.61.855,1.736,1.736,0,0,1-1.887-1.925V268.3h.6v2.516a1.258,1.258,0,0,0,1.346,1.434,1.459,1.459,0,0,0,1.522-1.623V268.27Z" transform="translate(7.827 -22.268)" fill="#263238"/>
        <path id="Path_3661" data-name="Path 3661" d="M268.464,268.261v.591h-.151a1.459,1.459,0,0,0-1.51,1.661v2.277h-.6v-4.478h.579v.881A1.723,1.723,0,0,1,268.464,268.261Z" transform="translate(9 -22.272)" fill="#263238"/>
        <path id="Path_3662" data-name="Path 3662" d="M272.9,270.726h-3.774a1.661,1.661,0,0,0,1.761,1.56,1.774,1.774,0,0,0,1.371-.591l.34.39a2.365,2.365,0,0,1-4.076-1.547,2.164,2.164,0,0,1,2.189-2.277,2.126,2.126,0,0,1,2.164,2.277A1.1,1.1,0,0,1,272.9,270.726Zm-3.774-.453h3.17a1.585,1.585,0,1,0-3.17,0Z" transform="translate(9.598 -22.27)" fill="#263238"/>
        <path id="Path_3663" data-name="Path 3663" d="M234.1,294.783V297.4h-2.327v-2.516a11.058,11.058,0,0,1-5.825-1.874l1.258-2.843a9.435,9.435,0,0,0,4.541,1.661v-3.9c-2.6-.642-5.5-1.5-5.5-4.843,0-2.516,1.8-4.6,5.5-5.032V275.46h2.327v2.516a10.555,10.555,0,0,1,4.743,1.434l-1.17,2.868a9.662,9.662,0,0,0-3.573-1.258V285c2.591.6,5.447,1.472,5.447,4.768C239.549,292.242,237.775,294.343,234.1,294.783Zm-2.327-10.316v-3.3c-1.258.277-1.736.956-1.736,1.723S230.743,284.14,231.775,284.467Zm4.013,5.623c0-.818-.679-1.258-1.686-1.61v3.22C235.272,291.449,235.788,290.845,235.788,290.091Z" transform="translate(-1.384 -20.413)" fill="#263238"/>
        <path id="Path_3664" data-name="Path 3664" d="M250.4,291V294.1H238.045v-2.453l6.29-5.963c1.459-1.384,1.711-2.214,1.711-3.019,0-1.258-.893-2.025-2.617-2.025a4,4,0,0,0-3.384,1.635L237.29,280.5a7.548,7.548,0,0,1,6.491-3.044c3.648,0,6.076,1.874,6.076,4.843,0,1.585-.453,3.032-2.742,5.158L243.341,291Z" transform="translate(1.542 -19.902)" fill="#263238"/>
        <path id="Path_3665" data-name="Path 3665" d="M248.92,285.916c0-5.4,2.994-8.466,7.007-8.466s7.007,3.07,7.007,8.466-2.969,8.454-7.007,8.454S248.92,291.313,248.92,285.916Zm10.215,0c0-3.774-1.258-5.258-3.208-5.258s-3.17,1.535-3.17,5.258,1.258,5.246,3.17,5.246,3.158-1.535,3.158-5.246Z" transform="translate(4.542 -19.899)" fill="#263238"/>
        <path id="Path_3666" data-name="Path 3666" d="M261.53,285.916c0-5.4,2.994-8.466,7.007-8.466s7.007,3.07,7.007,8.466-2.969,8.454-7.007,8.454S261.53,291.313,261.53,285.916Zm10.2,0c0-3.774-1.258-5.258-3.2-5.258s-3.183,1.535-3.183,5.258,1.258,5.246,3.183,5.246,3.2-1.535,3.2-5.246Z" transform="translate(7.796 -19.899)" fill="#263238"/>
        <path id="Path_3667" data-name="Path 3667" d="M283.349,328.788H231.193a12.215,12.215,0,0,1-12.2-12.2h0a12.215,12.215,0,0,1,12.2-12.215h52.157a12.2,12.2,0,0,1,12.2,12.215h0A12.2,12.2,0,0,1,283.349,328.788Z" transform="translate(-3.18 -12.954)" fill="#263238"/>
        <path id="Path_3668" data-name="Path 3668" d="M237.273,313.5c0,1.535-1.107,2.453-2.931,2.453H232.4v2.264h-.755V311.05h2.692C236.166,311.1,237.273,312.019,237.273,313.5Zm-.767,0c0-1.145-.755-1.8-2.189-1.8H232.4v3.585h1.912C235.751,315.34,236.506,314.686,236.506,313.5Z" transform="translate(0.087 -11.23)" fill="#fff"/>
        <path id="Path_3669" data-name="Path 3669" d="M241.416,314.562v3.346h-.692v-.843a2.038,2.038,0,0,1-1.862.893c-1.258,0-1.962-.629-1.962-1.573s.528-1.522,2.076-1.522h1.711v-.327c0-.918-.516-1.422-1.522-1.422a2.768,2.768,0,0,0-1.8.629l-.327-.541a3.409,3.409,0,0,1,2.2-.73,1.912,1.912,0,0,1,2.176,2.088Zm-.73,1.723v-.881H239c-1.044,0-1.384.415-1.384.969s.5,1.019,1.359,1.019a1.711,1.711,0,0,0,1.711-1.107Z" transform="translate(1.441 -10.868)" fill="#fff"/>
        <path id="Path_3670" data-name="Path 3670" d="M246.762,312.505l-2.692,6.038c-.453,1.057-1.019,1.4-1.786,1.4a1.862,1.862,0,0,1-1.283-.516l.34-.541a1.346,1.346,0,0,0,.981.415c.491,0,.818-.226,1.12-.906l.239-.528-2.415-5.384h.767l2.025,4.592,1.975-4.566Z" transform="translate(2.499 -10.861)" fill="#fff"/>
        <path id="Path_3671" data-name="Path 3671" d="M251.079,318.564v1.183h-.516v-1.17a3.774,3.774,0,0,1-2.453-.931l.3-.591a3.434,3.434,0,0,0,2.151.868V315.23c-1.132-.277-2.277-.629-2.277-1.988,0-.981.7-1.837,2.277-1.95V310.11h.516v1.12a3.963,3.963,0,0,1,2.076.629l-.252.6a3.951,3.951,0,0,0-1.824-.591v2.717c1.157.277,2.378.6,2.378,1.975C253.457,317.608,252.7,318.476,251.079,318.564Zm-.516-4.051V312c-1.057.088-1.535.629-1.535,1.258S249.72,314.287,250.563,314.513Zm2.139,2.151c0-.818-.742-1.094-1.623-1.258v2.516c1.12-.088,1.623-.6,1.623-1.258Z" transform="translate(4.333 -11.473)" fill="#fff"/>
        <path id="Path_3672" data-name="Path 3672" d="M258.138,317.62v.654h-5.032v-.516l2.981-2.931c.805-.793.956-1.258.956-1.774,0-.83-.579-1.333-1.673-1.333a2.516,2.516,0,0,0-1.962.793l-.528-.453a3.258,3.258,0,0,1,2.516-1.019c1.447,0,2.378.742,2.378,1.937a2.944,2.944,0,0,1-1.183,2.239l-2.441,2.4Z" transform="translate(5.564 -11.234)" fill="#fff"/>
        <path id="Path_3673" data-name="Path 3673" d="M257.76,314.688c0-2.29,1.2-3.648,2.856-3.648s2.868,1.359,2.868,3.648-1.258,3.648-2.868,3.648S257.76,316.978,257.76,314.688Zm4.969,0c0-1.912-.855-2.969-2.113-2.969s-2.113,1.057-2.113,2.969.868,2.969,2.113,2.969,2.113-1.057,2.113-2.969Z" transform="translate(6.823 -11.233)" fill="#fff"/>
        <path id="Path_3674" data-name="Path 3674" d="M263.15,314.688c0-2.29,1.258-3.648,2.868-3.648s2.868,1.359,2.868,3.648-1.258,3.648-2.868,3.648S263.15,316.978,263.15,314.688Zm5.032,0c0-1.912-.855-2.969-2.1-2.969s-2.113,1.057-2.113,2.969.855,2.969,2.113,2.969,2.038-1.057,2.038-2.969Z" transform="translate(8.214 -11.233)" fill="#fff"/>
        <path id="Path_3675" data-name="Path 3675" d="M206.538,337.148c1.887,29-11.548,61.29-11.548,61.29l-72.574-20.43-12.655-3.573c12.58-17.474,18.568-51.893,15.285-79.745-.252-2.1-.4-4.076-.516-5.963-1.258-22.971,8.29-29.689,16.354-39.841,8.806-10.995,28.406-52.509,28.406-62.334s24.594-33.878,19.122-61.177c0,0,7.435-4.617,14.907-.83,3.4,1.711,6.781,5.145,9.51,11.511,6.4,14.958-2.591,57.239-10.24,67.605L187.857,264.65s4.969,8.567,9.85,24.116a207.431,207.431,0,0,1,8.831,48.383Z" transform="translate(-31.361 -59.734)" fill="#fff"/>
        <path id="Path_3676" data-name="Path 3676" d="M124.521,254.75c4.114,11.259,8.479,18.87,8.1,34.645s-8.806,40.055-6.4,52.673a11.108,11.108,0,0,0-3.774,1.962l-12.655-3.573c12.58-17.474,18.568-51.893,15.285-79.745C124.785,258.612,124.634,256.637,124.521,254.75Z" transform="translate(-31.354 -25.756)" fill="#7d25f5" opacity="0.4"/>
        <path id="Path_3677" data-name="Path 3677" d="M188.336,203.356,173.6,264.344s4.969,8.567,9.85,24.116h0C173.479,272.382,165,267.577,165,267.577c6.642-7.963,11.762-66.209,11.762-66.209s20.82-24.468,18.87-50.068a81.77,81.77,0,0,0-6.567-27.06c3.4,1.711,6.781,5.145,9.51,11.511C204.979,150.708,195.985,192.99,188.336,203.356Z" transform="translate(-17.109 -59.428)" fill="#7d25f5" opacity="0.4"/>
        <path id="Path_3678" data-name="Path 3678" d="M109.76,374.434c12.58-17.474,18.568-51.893,15.3-79.745s7.1-34.821,15.838-45.816,28.393-52.5,28.393-62.334,24.581-33.853,19.122-61.164c0,0,15.687-9.724,24.418,10.68,6.4,14.97-2.591,57.239-10.24,67.618l-14.719,60.975s15.712,27.11,18.669,72.5c1.887,29-11.548,61.3-11.548,61.3" transform="translate(-31.361 -59.732)" fill="none" stroke="#263238" stroke-linecap="round" stroke-linejoin="round" stroke-width="1"/>
        <path id="Path_3679" data-name="Path 3679" d="M148.32,360.41s16.518,10.165,26.154,26.242" transform="translate(-21.413 1.505)" fill="none" stroke="#263238" stroke-linecap="round" stroke-linejoin="round" stroke-width="1"/>
        <path id="Path_3680" data-name="Path 3680" d="M198.753,386.657s-14.228,2.025-27.085-13.36c-8.24-9.85-33.262-14.3-39-40.067" transform="translate(-25.45 -5.508)" fill="none" stroke="#263238" stroke-linecap="round" stroke-linejoin="round" stroke-width="1"/>
      </g>
      <g id="freepik--Hand--inject-1" transform="translate(322.432 222.851)">
        <path id="Path_3681" data-name="Path 3681" d="M372.483,499.9c-36.419-17.423-14.366-31.387-64.473-53.012s-50.609-40.105-44.571-82.6,1.258-87.7,15.826-91.532-11.4-62.447,5.586-83.167l83.582,162.584Z" transform="translate(-260.81 -181.448)" fill="rgba(0,0,0,0.7)" opacity="0.2"/>
        <path id="Path_3682" data-name="Path 3682" d="M504.393,499.857c-1.711-4.894-3.447-10.24-4.793-15.1-1.736-6.29-3.095-11.322-6.29-17.172-.5-.931-1.044-1.912-1.648-2.969-3.409-6.076-8.076-14.392-10.806-24.607-1.837-6.881,0-23.827,1.711-40.256,1.258-11.8,2.4-22.933,2.063-29.249l-.1-2.239c-.855-16.518-2.642-50.886-6.29-60.384-3.585-9.158-6.932-10.529-13.033-12.97-.629-.277-1.258-.528-1.988-.83-2.29-.956-6.189-2.969-10.68-5.3-10.127-5.246-22.732-11.775-29.135-12.58a57.064,57.064,0,0,0-17.952.83c-7.888-6.051-21.311-13.838-25.311-14-3.271-.164-10.416,1.887-13.838,2.956l-1.723.554a51.794,51.794,0,0,0-6.869-4.5c-.163-.088-.327-.151-.465-.214-4.441-1.824-11.146-1.887-14.807-1.786a21.334,21.334,0,0,0-2.365.151c-6.906-10.63-13.7-21.21-16.656-25.852-6.164-9.762-25.248-49.93-25.437-50.32a.34.34,0,0,0-.252-.2.642.642,0,0,0-.176,0c-1.484-.428-12.416-3.208-16.807,7.384-4.806,11.536,2.051,36.859,8.743,46.055,3.22,4.428,12.014,22.493,20.933,41.187-2.29,2.126-20.606,19.046-29.5,22.2-7.284,2.579-5.573,39.916-4.2,69.895.516,11.07.943,20.593.818,26.317-.252,11.07,19.889,26.317,39.413,41.061,17.612,13.36,35.878,27.16,38.017,37.186.591,2.818,2.277,5.108,4.29,7.686,3.359,4.277,7.686,9.322,9.523,18.87.541,2.868,5.145,6.617,8.806,12.743h132.14C508.619,511.431,506.531,506,504.393,499.857ZM321.139,300.967c6.4,13.41,10.366,21.386,11.322,22.279s.893,5.145.868,9.284a74.659,74.659,0,0,0,.377,10.857c-1.56,1.371-11.41,10.341-13.4,17.612l-8.366-9.85L309.83,320.24C311.088,318.906,319.693,309.811,321.139,300.967Z" transform="translate(-257.019 -183.102)" fill="#fff"/>
        <path id="Path_3683" data-name="Path 3683" d="M448.216,370.761c3.107,29,3.145,44.722,6.63,53.113,5.887,14.165,14.555,17.033,14.555,17.033a87.367,87.367,0,0,1-6.831-17.247c-1.824-6.881,0-23.827,1.711-40.256,1.258-11.8,2.415-22.946,2.088-29.261l-.113-2.239c-.855-16.5-2.642-50.874-6.29-60.384-3.573-9.158-6.932-10.529-13.033-12.983-.629-.264-1.258-.516-1.988-.818-2.29-.956-6.177-2.969-10.68-5.3-10.127-5.246-22.732-11.775-29.135-12.58a56.611,56.611,0,0,0-17.952.83c-7.888-6.051-21.311-13.838-25.311-14-3.271-.164-12.14,2.415-15.587,3.51,15.1,12.316,36.834,27.676,36.834,27.676,17.2,3.422,15,10.882,21.952,15.1,6.29,3.774,12.3-7.271,17.612-8.24,6.944-1.258,14.832,6.064,14.48,14.945C436.076,324.127,445.549,345.865,448.216,370.761Z" transform="translate(-238.758 -166.723)" fill="#7d25f5" opacity="0.4"/>
        <path id="Path_3684" data-name="Path 3684" d="M365.834,281.524s-13.624-11.322-20.128-15.1-7.548-16.782-2.415-19.939a1.434,1.434,0,0,1,.642-.2l-.465-.214c-4.441-1.824-11.146-1.9-14.807-1.786,7.548,14.052,13.574,24.833,15.2,27.2C349.329,279.385,365.834,281.524,365.834,281.524Z" transform="translate(-243.304 -167.345)" fill="#7d25f5" opacity="0.4"/>
        <path id="Path_3685" data-name="Path 3685" d="M358.887,473.367c.579-3.007-4.378-11.813-6.554-15.385-4.944-8.152-62.347-58.874-54.031-72.411s15.914-3.522,21.172-2.642c3.774.629,14.14-5.548,14.09-6.064C332.381,366.437,342,359.656,342,359.656s-.881-41.514-3.095-40.81S310.2,256.512,310.2,256.512s-28-37.237-26.418-54.61,13.737-17.675,13.737-17.675v-.465c-1.484-.428-12.416-3.208-16.807,7.384-4.806,11.536,2.051,36.859,8.743,46.055,3.22,4.428,12.014,22.493,20.933,41.187-2.29,2.126-20.606,19.046-29.5,22.2-7.284,2.579-5.573,39.916-4.2,69.895.516,11.07.944,20.594.818,26.317-.252,11.07,19.889,26.317,39.413,41.061,17.612,13.36,35.878,27.16,38.017,37.187.591,2.818,2.277,5.107,4.29,7.686A51.008,51.008,0,0,1,358.887,473.367Zm-37.74-172.346c6.4,13.41,10.366,21.386,11.322,22.279s.893,5.145.868,9.284a74.659,74.659,0,0,0,.377,10.857c-1.56,1.371-11.41,10.341-13.4,17.612l-8.366-9.85-2.113-30.909c1.258-1.371,9.863-10.467,11.309-19.31Z" transform="translate(-257.026 -183.118)" fill="#7d25f5" opacity="0.4"/>
        <path id="Path_3686" data-name="Path 3686" d="M370.914,297.048a28.607,28.607,0,0,1-14.14-9.913c-5.749-7.7-28.33-42.772-34.582-52.66s-25.5-50.333-25.5-50.333-11.825-3.963-16.43,7.083,1.7,36,8.705,45.615,40.306,83.619,42.948,86.01-1.321,22.141,3.975,26.921" transform="translate(-256.196 -183.032)" fill="none" stroke="#263238" stroke-linecap="round" stroke-linejoin="round" stroke-width="1"/>
        <path id="Path_3687" data-name="Path 3687" d="M327.233,319.728s-12.2,10.63-13.637,18.392l-9.058-10.655L302.4,296.242s10.932-10.945,11.536-20.682" transform="translate(-250.079 -159.267)" fill="none" stroke="#263238" stroke-linecap="round" stroke-linejoin="round" stroke-width="1"/>
        <path id="Path_3688" data-name="Path 3688" d="M310.811,258.88s-20.266,19.122-29.9,22.531-2.6,75.052-3.082,95.8,72.9,56.887,77.4,78.122c1.786,8.454,9.183,10.177,13.7,26.418" transform="translate(-256.943 -163.571)" fill="none" stroke="#263238" stroke-linecap="round" stroke-linejoin="round" stroke-width="1"/>
        <path id="Path_3689" data-name="Path 3689" d="M326.56,244.768s11.033-.994,17.247,1.6,31.45,24.267,37.539,28.406,15.247,5.711,16.983,10.177" transform="translate(-243.846 -167.26)" fill="none" stroke="#263238" stroke-linecap="round" stroke-linejoin="round" stroke-width="1"/>
        <path id="Path_3690" data-name="Path 3690" d="M346.17,250.542s11.322-3.774,15.65-3.56,20.606,9.812,27.9,16.228a62.2,62.2,0,0,0,19.008,11.548" transform="translate(-238.786 -166.643)" fill="none" stroke="#263238" stroke-linecap="round" stroke-linejoin="round" stroke-width="1"/>
        <path id="Path_3691" data-name="Path 3691" d="M378.68,258.4a55.212,55.212,0,0,1,17.989-.868c9.209,1.258,32.331,14.844,39.7,17.914s10.894,3.636,14.769,13.549,5.648,47.6,6.428,62.5-6.982,57.554-3.774,69.555,8.995,21.26,12.5,27.676" transform="translate(-230.399 -164.013)" fill="none" stroke="#263238" stroke-linecap="round" stroke-linejoin="round" stroke-width="1"/>
        <path id="Path_3692" data-name="Path 3692" d="M303.277,293.7s-1.761-7.359-4.277-8.3" transform="translate(-250.956 -156.729)" fill="none" stroke="#263238" stroke-linecap="round" stroke-linejoin="round" stroke-width="1"/>
        <path id="Path_3693" data-name="Path 3693" d="M304.1,316.82a93.744,93.744,0,0,0,3.434,12.643c1.812,4.466-1.006,10.932-1.006,10.932" transform="translate(-249.641 -148.622)" fill="none" stroke="#263238" stroke-linecap="round" stroke-linejoin="round" stroke-width="1"/>
        <path id="Path_3694" data-name="Path 3694" d="M311.3,325.29c-.289,7.145,6.818,15.5,8.542,14.316" transform="translate(-247.785 -146.437)" fill="none" stroke="#263238" stroke-linecap="round" stroke-linejoin="round" stroke-width="1"/>
        <path id="Path_3695" data-name="Path 3695" d="M340.07,296.226s7.636-12.354,14.958-12.957,15.775,9.787,20.292,8.806,10.2-7.624,17.8-8.806,11.158,2.441,17.184,2.742,6.642-7.749,13.838-8.806,9.649,2.516,14.48,3.447,6.038-2.881,9.951-5.032" transform="translate(-240.36 -159.252)" fill="none" stroke="#263238" stroke-linecap="round" stroke-linejoin="round" stroke-width="1"/>
      </g>
    </g>
    <g transform="matrix(1, 0, 0, 1, 906, 290)" filter="url(#Ellipse_230)">
      <g id="Ellipse_230-2" data-name="Ellipse 230" transform="translate(42 40)" fill="none" stroke="#7d25f5" stroke-width="1">
        <circle cx="351.5" cy="351.5" r="351.5" stroke="none"/>
        <circle cx="351.5" cy="351.5" r="351" fill="none"/>
      </g>
    </g>
    <g transform="matrix(1, 0, 0, 1, 906, 290)" filter="url(#Ellipse_231)">
      <g id="Ellipse_231-2" data-name="Ellipse 231" transform="translate(24 21)" fill="none" stroke="#7d25f5" stroke-width="1">
        <circle cx="370" cy="370" r="370" stroke="none"/>
        <circle cx="370" cy="370" r="369.5" fill="none"/>
      </g>
    </g>
    <g transform="matrix(1, 0, 0, 1, 906, 290)" filter="url(#Ellipse_232)">
      <g id="Ellipse_232-2" data-name="Ellipse 232" transform="translate(9 6)" fill="none" stroke="#7d25f5" stroke-width="1">
        <circle cx="385.5" cy="385.5" r="385.5" stroke="none"/>
        <circle cx="385.5" cy="385.5" r="385" fill="none"/>
      </g>
    </g>
  </g>
</svg>
