<svg xmlns="http://www.w3.org/2000/svg" width="866.764" height="875.779" viewBox="0 0 866.764 875.779">
  <g id="Login-amico" transform="translate(-13.44 -29.071)">
    <g id="freepik--Floor--inject-25" transform="translate(13.44 383.46)">
      <ellipse id="freepik--floor--inject-25-2" data-name="freepik--floor--inject-25" cx="433.382" cy="260.695" rx="433.382" ry="260.695" fill="#f0f0f0"/>
    </g>
    <g id="freepik--Shadow--inject-25" transform="translate(39.785 419.393)">
      <path id="freepik--shadow--inject-25-2" data-name="freepik--shadow--inject-25" d="M394.087,432.952c-28.419-17.095-28.419-44.807,0-61.9s74.5-17.095,102.915,0,28.419,44.807,0,61.9S422.505,450.047,394.087,432.952Z" transform="translate(261.84 -117.734)" fill="#e0e0e0"/>
      <path id="freepik--shadow--inject-25-3" data-name="freepik--shadow--inject-25" d="M105.675,550.335l-74.753-44.96c-4.212-2.53-4.212-6.65,0-9.18L465.738,234.638a16.264,16.264,0,0,1,15.249,0l74.772,44.96c4.212,2.53,4.212,6.65,0,9.18L120.942,550.335a16.3,16.3,0,0,1-15.267,0Z" transform="translate(-27.762 -232.74)" fill="#e0e0e0"/>
    </g>
    <g id="freepik--Device--inject-25" transform="translate(95.404 29.071)">
      <g id="freepik--device--inject-25-2" data-name="freepik--device--inject-25">
        <path id="Path_2721" data-name="Path 2721" d="M266.883,450.228l64.269-38.712c6.622-3.986,9.933-9.2,9.933-14.431v-9.314L274.425,348.6a14.769,14.769,0,0,1-6.4-11.5V254.52l-112.2,67.574v82.542a14.886,14.886,0,0,0,6.4,11.5l56.727,34.036C232.155,458.2,253.639,458.2,266.883,450.228Z" transform="translate(24.111 177.543)" fill="#7d25f5"/>
        <g id="Group_936" data-name="Group 936" transform="translate(179.931 432.063)" opacity="0.6">
          <path id="Path_2722" data-name="Path 2722" d="M266.883,450.228l64.269-38.712c6.622-3.986,9.933-9.2,9.933-14.431v-9.314L274.425,348.6a14.769,14.769,0,0,1-6.4-11.5V254.52l-112.2,67.574v82.542a14.886,14.886,0,0,0,6.4,11.5l56.727,34.036C232.155,458.2,253.639,458.2,266.883,450.228Z" transform="translate(-155.82 -254.52)"/>
        </g>
        <path id="Path_2723" data-name="Path 2723" d="M182.747,393.094v9.276l-20.565-12.361a14.829,14.829,0,0,1-6.383-11.5v-82.58l21.374-12.859c.441,5.654.92,11.5,1.38,17.248l-15.028,9.007v64.489a14.75,14.75,0,0,0,6.4,11.5Z" transform="translate(24.094 203.708)" opacity="0.3"/>
        <path id="Path_2724" data-name="Path 2724" d="M160,393.592a14.847,14.847,0,0,0,6.4,11.5l48.965,29.4c13.244,7.953,34.728,7.972,47.99,0l64.379-38.712c13.262-7.972,13.262-20.889,0-28.862l-49-29.4a14.869,14.869,0,0,1-6.383-11.5V261.51l-112.2,67.574Z" transform="translate(27.619 183.949)" fill="#7d25f5"/>
        <path id="Path_2725" data-name="Path 2725" d="M160,393.592a14.847,14.847,0,0,0,6.4,11.5l48.965,29.4c13.244,7.953,34.728,7.972,47.99,0l64.379-38.712c13.262-7.972,13.262-20.889,0-28.862l-49-29.4a14.869,14.869,0,0,1-6.383-11.5V261.51l-112.2,67.574Z" transform="translate(27.619 183.949)" opacity="0.3"/>
        <path id="Path_2726" data-name="Path 2726" d="M291.668,345.393h0l-13.041-7.838a14.868,14.868,0,0,1-6.383-11.5V261.51l-112.2,67.574v64.508a14.847,14.847,0,0,0,6.4,11.5l12.876,7.666Z" transform="translate(27.653 183.949)" opacity="0.5"/>
        <path id="Path_2727" data-name="Path 2727" d="M300.912,324.06v9.314c0,5.232-3.329,10.426-9.933,14.431L226.6,386.5a46.706,46.706,0,0,1-22.9,5.922v-9.276a46.706,46.706,0,0,0,22.9-5.922l64.379-38.732C297.583,334.524,300.912,329.292,300.912,324.06Z" transform="translate(64.301 241.273)" fill="#7d25f5"/>
        <path id="Path_2728" data-name="Path 2728" d="M300.912,324.06v9.314c0,5.232-3.329,10.426-9.933,14.431L226.6,386.5a46.706,46.706,0,0,1-22.9,5.922v-9.276a46.706,46.706,0,0,0,22.9-5.922l64.379-38.732C297.583,334.524,300.912,329.292,300.912,324.06Z" transform="translate(64.301 241.273)" opacity="0.5"/>
        <path id="Path_2729" data-name="Path 2729" d="M65.358,686.777a16.583,16.583,0,0,0,15.506-.287l434.1-261.117a18.6,18.6,0,0,0,8-14.431V45.053a18.06,18.06,0,0,0-7.468-14.2,16.5,16.5,0,0,0-15.488.307L65.909,292.352A18.534,18.534,0,0,0,58,306.821V672.653a18.067,18.067,0,0,0,7.358,14.124Z" transform="translate(-58 -29.071)" fill="#7d25f5"/>
        <path id="Path_2730" data-name="Path 2730" d="M74.111,681.673l434.1-261.117a18.542,18.542,0,0,0,8-14.431V40.256c0-5.309-3.587-7.474-8-4.81L74.111,296.562a18.581,18.581,0,0,0-8,14.431v365.87C66.11,682.171,69.7,684.337,74.111,681.673Z" transform="translate(-51.192 -24.274)" fill="#7d25f5"/>
        <path id="Path_2731" data-name="Path 2731" d="M74.111,681.673l434.1-261.117a18.542,18.542,0,0,0,8-14.431V40.256c0-5.309-3.587-7.474-8-4.81L74.111,296.562a18.581,18.581,0,0,0-8,14.431v365.87C66.11,682.171,69.7,684.337,74.111,681.673Z" transform="translate(-51.192 -24.274)" opacity="0.5"/>
        <path id="Path_2732" data-name="Path 2732" d="M79.742,399.907a16.555,16.555,0,0,1-14.384-.307A18.069,18.069,0,0,1,58,385.438V352.13l14.991,9.046v33.308C72.9,399.332,75.861,401.536,79.742,399.907Z" transform="translate(-58 266.998)" fill="#7d25f5"/>
        <path id="Path_2733" data-name="Path 2733" d="M79.742,399.907a16.555,16.555,0,0,1-14.384-.307A18.069,18.069,0,0,1,58,385.438V352.13l14.991,9.046v33.308C72.9,399.332,75.861,401.536,79.742,399.907Z" transform="translate(-58 266.998)" opacity="0.5"/>
        <path id="Path_2734" data-name="Path 2734" d="M66.1,486.354v33.308c0,5.309,3.679,7.455,8,4.81L508.2,263.355a18.6,18.6,0,0,0,8-14.354V215.54Z" transform="translate(-51.201 141.82)" fill="#7d25f5"/>
        <path id="Path_2735" data-name="Path 2735" d="M66.11,486.277v33.385c0,5.309,3.679,7.455,8,4.81l434.1-261.117A18.6,18.6,0,0,0,516.194,249V215.54Z" transform="translate(-51.192 141.82)" opacity="0.3"/>
        <path id="Path_2736" data-name="Path 2736" d="M74.26,598.348V303.962a11.12,11.12,0,0,1,4.782-8.662L489.487,48.326c2.649-1.591,4.8-.307,4.8,2.875v294.54a11.137,11.137,0,0,1-4.8,8.662L79.061,601.319C76.412,602.909,74.26,601.606,74.26,598.348Z" transform="translate(-44.351 -12.049)" fill="#7d25f5"/>
        <path id="Path_2737" data-name="Path 2737" d="M74.26,598.348V303.962a11.12,11.12,0,0,1,4.782-8.662L489.487,48.326c2.649-1.591,4.8-.307,4.8,2.875v294.54a11.137,11.137,0,0,1-4.8,8.662L79.061,601.319C76.412,602.909,74.26,601.606,74.26,598.348Z" transform="translate(-44.351 -12.049)" fill="#263238"/>
        <path id="Path_2738" data-name="Path 2738" d="M191.875,292.241a17.4,17.4,0,0,0-7.5,13.53c0,4.983,3.366,7.014,7.5,4.523a17.4,17.4,0,0,0,7.5-13.549C199.38,291.762,196.013,289.75,191.875,292.241Z" transform="translate(48.076 211.133)" fill="#7d25f5"/>
        <path id="Path_2739" data-name="Path 2739" d="M75.272,178.669a18.271,18.271,0,0,0-2.373,8.222V528.364L58,519.318V177.941a17.581,17.581,0,0,1,2.354-8.241Z" transform="translate(-58 99.81)" opacity="0.7"/>
        <path id="Path_2740" data-name="Path 2740" d="M521.9,43.636c-.57-4.293-3.9-5.749-7.928-3.43L79.877,301.322a16.856,16.856,0,0,0-5.647,6.19l-15.01-9.026a16.966,16.966,0,0,1,5.665-6.19l434.1-261.1a16.531,16.531,0,0,1,15.506-.307A18.086,18.086,0,0,1,521.9,43.636Z" transform="translate(-56.976 -29.034)" opacity="0.3"/>
      </g>
    </g>
    <g id="freepik--Window--inject-25" transform="translate(164.444 88.259)">
      <g id="freepik--window--inject-25-2" data-name="freepik--window--inject-25">
        <g id="freepik--window--inject-25-3" data-name="freepik--window--inject-25">
          <g id="freepik--window--inject-25-4" data-name="freepik--window--inject-25">
            <path id="Path_2741" data-name="Path 2741" d="M514.795,60.4a3.839,3.839,0,0,0-4.083.326l-409.6,246.532a12.982,12.982,0,0,0-5.518,10.1V609.943a5.836,5.836,0,0,0,2.373,5.079c.9.517,5.721,3.431,7.155,4.235a3.109,3.109,0,0,0,3.237-.192L517.867,372.533a12.982,12.982,0,0,0,5.518-10.1V68.334a4.088,4.088,0,0,0-1.729-3.833C520.736,63.869,515.825,61.033,514.795,60.4Z" transform="translate(-95.492 -59.949)" fill="#7d25f5"/>
            <path id="Path_2742" data-name="Path 2742" d="M105,309.4,514.615,62.962c3.09-1.916,5.518-.345,5.518,3.373v294.1a12.982,12.982,0,0,1-5.518,10.1L105,617.066c-3.09,1.916-5.518-1.169-5.518-4.887V319.5A13.021,13.021,0,0,1,105,309.4Z" transform="translate(-92.222 -57.95)" fill="#fafafa"/>
            <path id="Path_2743" data-name="Path 2743" d="M517.117,64.066h0c1.085,0,1.251,1.418,1.251,2.261v294.1a10.982,10.982,0,0,1-4.69,8.432L104.115,615.392a1.789,1.789,0,0,1-.92.307c-1.03,0-1.839-1.648-1.839-3.526V319.491a11.11,11.11,0,0,1,4.6-8.49L515.535,64.6a3.167,3.167,0,0,1,1.582-.537m0-1.916a5,5,0,0,0-2.5.8L105,309.392a13.021,13.021,0,0,0-5.518,10.1V612.172c0,2.951,1.582,5.443,3.679,5.443a3.57,3.57,0,0,0,1.839-.556L514.6,370.526a12.982,12.982,0,0,0,5.518-10.1V66.328c0-2.645-1.251-4.178-3.09-4.178Z" transform="translate(-92.222 -57.943)" fill="#e0e0e0"/>
            <path id="Path_2744" data-name="Path 2744" d="M97.9,482.906c.607.326,4.966,2.913,6.879,4.063a6.074,6.074,0,0,1-2.06-4.906V208.489l-7.174-4.369V477.828a5.837,5.837,0,0,0,2.354,5.079Z" transform="translate(-95.534 72.166)" fill="#f0f0f0"/>
            <path id="Path_2745" data-name="Path 2745" d="M520.207,66.268c0-3.68-2.52-5.174-5.518-3.315L105,309.389a13.021,13.021,0,0,0-5.518,10.1v19.165L520.207,85.432Z" transform="translate(-92.222 -57.94)" fill="#7d25f5"/>
            <g id="Group_937" data-name="Group 937" transform="translate(1.722)" opacity="0.4">
              <path id="Path_2746" data-name="Path 2746" d="M517.142,64.967,107.525,311.384a11.791,11.791,0,0,0-3.936,4.35l-7.118-4.312a11.3,11.3,0,0,1,3.9-4.159l409.6-246.532a3.84,3.84,0,0,1,4.084-.345c.993.652,5.647,3.392,6.843,4.063a3.911,3.911,0,0,0-3.752.517Z" transform="translate(-96.47 -59.955)" fill="#fff"/>
            </g>
            <path id="Path_2747" data-name="Path 2747" d="M95.54,216.007V197.015a12.341,12.341,0,0,1,1.711-5.845l7.137,4.293a12.006,12.006,0,0,0-1.674,5.749v19.165Z" transform="translate(-95.529 60.298)" opacity="0.15"/>
          </g>
        </g>
        <path id="Path_2748" data-name="Path 2748" d="M395.073,179.913,149.752,327.48a9.493,9.493,0,0,0-4.1,7.378v73.285a9.492,9.492,0,0,0,4.1,7.378l7.155,4.293a8.762,8.762,0,0,0,8.2,0L410.4,272.248a9.532,9.532,0,0,0,4.1-7.4v-73.3a9.492,9.492,0,0,0-4.1-7.378l-7.174-4.293a8.708,8.708,0,0,0-8.149.038Z" transform="translate(-53.467 49.036)" fill="#7d25f5"/>
        <path id="Path_2749" data-name="Path 2749" d="M413.943,190.881c-.294-2.2-2-3.009-4.065-1.763L164.557,336.684a8.468,8.468,0,0,0-2.888,3.181l-15.359-9.237a8.617,8.617,0,0,1,2.869-3.143l245.34-147.567a8.709,8.709,0,0,1,8.185,0l7.174,4.293A9.631,9.631,0,0,1,413.943,190.881Z" transform="translate(-52.913 49.05)" fill="#fff" opacity="0.5"/>
        <path id="Path_2750" data-name="Path 2750" d="M164.412,347.607a8.862,8.862,0,0,1-7.486-.345l-7.174-4.293a9.531,9.531,0,0,1-4.1-7.378V262.305a9.146,9.146,0,0,1,1.214-4.235l15.359,9.237a8.848,8.848,0,0,0-1.214,4.2v73.3C161.009,347.243,162.481,348.373,164.412,347.607Z" transform="translate(-53.467 121.609)" fill="#263238"/>
        <path id="Path_2751" data-name="Path 2751" d="M158.085,332.077,403.406,184.51c2.262-1.361,4.1-.268,4.1,2.453v73.3a9.532,9.532,0,0,1-4.1,7.4L158.122,415.231c-2.262,1.361-4.1.249-4.1-2.472V339.474A9.536,9.536,0,0,1,158.085,332.077Z" transform="translate(-46.441 53.658)" fill="#7d25f5"/>
        <path id="Path_2752" data-name="Path 2752" d="M329.461,199.84,149.2,308.292a8.616,8.616,0,0,0-2.87,3.143l15.359,9.237a8.469,8.469,0,0,1,2.888-3.181L344.839,209.058Z" transform="translate(-52.896 68.244)" fill="#455a64"/>
        <path id="Path_2753" data-name="Path 2753" d="M338.363,204.65,158.1,313.083a9.532,9.532,0,0,0-4.1,7.4v73.266c0,2.721,1.839,3.833,4.1,2.472L338.363,287.786Z" transform="translate(-46.458 72.652)" fill="#37474f"/>
        <path id="Path_2754" data-name="Path 2754" d="M182.02,283.824l93.019-55.941c3.844-2.319,6.971-.671,6.971,3.68a15.691,15.691,0,0,1-6.99,12.074l-93,55.96c-3.844,2.319-6.99.671-6.99-3.68A15.749,15.749,0,0,1,182.02,283.824Z" transform="translate(-28.805 92.98)" fill="#7d25f5"/>
        <path id="Path_2764" data-name="Path 2764" d="M286.356,245.419,268.5,256.151l2.778-26.1c-2.152-1.188-3.513-4.082-3.513-8.241,0-7.417,4.341-16.022,9.675-19.165s9.657.192,9.657,7.666a26.2,26.2,0,0,1-3.495,12.457Z" transform="translate(49.033 69.732)" fill="#455a64"/>
        <path id="Path_2765" data-name="Path 2765" d="M286.039,228.918l-15.727-9.448-2.152,20.2Z" transform="translate(49.369 86.234)" fill="#37474f"/>
        <path id="Path_2766" data-name="Path 2766" d="M276.76,202.626a21.877,21.877,0,0,0-8.24,11.4l14.4,8.662h0a26.2,26.2,0,0,0,3.495-12.457C286.454,202.818,282.132,199.426,276.76,202.626Z" transform="translate(49.671 69.693)" fill="#37474f"/>
        <path id="Path_2767" data-name="Path 2767" d="M252.124,157.823c-6.125-3.68-14.568-3.162-23.912,2.453-18.652,11.23-33.771,38.5-33.771,60.943,0,11.269,3.826,19.165,9.97,22.806l11.9,7.206c6.107,3.68,14.55,3.143,23.912-2.472,18.652-11.211,33.771-38.5,33.771-60.943,0-11.211-3.789-19.165-9.9-22.748" transform="translate(-12.512 27.585)" fill="#7d25f5"/>
        <path id="Path_2768" data-name="Path 2768" d="M234.731,164.047c-18.652,11.23-33.771,38.521-33.771,60.943s15.12,31.545,33.771,20.314,33.79-38.5,33.771-60.943S253.365,152.835,234.731,164.047Z" transform="translate(-7.039 31.039)" fill="#7d25f5"/>
        <path id="Path_2769" data-name="Path 2769" d="M246.465,193.913v2.568a55.669,55.669,0,0,1-18.633,20.353c-7.266,4.35-13.832,4.83-18.652,2.051v-5.289a34.8,34.8,0,0,1,15.193-27.424l4.911-2.951c4.341-2.606,8.572-2.951,11.883-.939S246.465,188.527,246.465,193.913Z" transform="translate(-0.139 50.963)" fill="#7d25f5"/>
        <path id="Path_2770" data-name="Path 2770" d="M249.883,157.82l11.956,7.244c-6.107-3.7-14.55-3.181-23.912,2.434-12.214,7.359-22.919,21.6-28.842,36.853l-11.975-7.225c5.941-15.332,16.555-29.494,28.842-36.853C235.333,154.677,243.776,154.141,249.883,157.82Z" transform="translate(-10.271 27.588)" fill="#fff" opacity="0.4"/>
        <path id="Path_2771" data-name="Path 2771" d="M215.879,219.5l-11.459-6.918c-6.144-3.641-9.97-11.5-9.97-22.806l11.975,7.244C206.5,207.948,210.03,215.729,215.879,219.5Z" transform="translate(-12.504 59.024)" opacity="0.2"/>
        <path id="Path_2772" data-name="Path 2772" d="M199.346,177.21l11.975,7.225a67.724,67.724,0,0,0-4.856,24.09h0l-11.974-7.244a67.962,67.962,0,0,1,4.856-24.071Z" transform="translate(-12.47 47.504)" opacity="0.1"/>
        <path id="Path_2773" data-name="Path 2773" d="M220.1,194.714a6.22,6.22,0,0,1-3.256-.882,8.426,8.426,0,0,1-3.513-7.666,22.08,22.08,0,0,1,9.639-17.4h0a6.977,6.977,0,0,1,8.112-.63,7.621,7.621,0,0,1,3.513,7.644,22.119,22.119,0,0,1-9.639,17.4,9.451,9.451,0,0,1-4.856,1.533Z" transform="translate(3.32 38.26)" fill="#fff"/>
        <path id="Path_2774" data-name="Path 2774" d="M241.167,182.27c-3.311-2.012-7.542-1.667-11.883.939l-4.911,2.951A34.8,34.8,0,0,0,209.18,213.6v5.309c4.819,2.779,11.386,2.3,18.652-2.051a55.668,55.668,0,0,0,18.633-20.353v-2.568C246.465,188.536,244.552,184.3,241.167,182.27Z" transform="translate(-0.139 50.954)" fill="#fff"/>
        <text id="Sign_up" data-name="Sign up" transform="matrix(0.883, -0.469, 0.469, 0.883, 182.871, 404.817)" fill="#fff" font-size="25" font-family="MongolianBaiti, Mongolian Baiti"><tspan x="0" y="0">Sign up</tspan></text>
      </g>
    </g>
    <g id="freepik--Plants--inject-25" transform="translate(783.617 583.852)">
      <g id="freepik--plants--inject-25-2" data-name="freepik--plants--inject-25">
        <path id="Path_2775" data-name="Path 2775" d="M432.15,387.73s2.446-22.384,13.133-39.766,25.365-28.21,39.069-29.341,24.777,12.016,10.117,21.081-40.706,18.225-52.7,51.955Z" transform="translate(-432.15 -318.554)" fill="#7d25f5"/>
        <path id="Path_2776" data-name="Path 2776" d="M432.15,387.73s2.446-22.384,13.133-39.766,25.365-28.21,39.069-29.341,24.777,12.016,10.117,21.081-40.706,18.225-52.7,51.955Z" transform="translate(-432.15 -318.554)" opacity="0.1"/>
        <path id="Path_2777" data-name="Path 2777" d="M434.616,378.673h-.147a.778.778,0,0,1-.4-1c14.458-37.083,41.975-52.588,54.52-55.577a.736.736,0,0,1,.883.575.769.769,0,0,1-.552.92c-12.287,2.951-39.271,18.168-53.49,54.676a.709.709,0,0,1-.809.4Z" transform="translate(-430.588 -315.324)" fill="#fff"/>
        <path id="Path_2778" data-name="Path 2778" d="M506.951,361.041c-1.232,2.913-4.286,4.446-7.118,5.634s-5.923,2.472-7.468,5.232c-3.09,5.558,1.987,13.415-1.324,18.8a9.565,9.565,0,0,1-6.548,3.948c-2.115.4-4.268.4-6.4.594a22.664,22.664,0,0,1-3.053-.249,13.413,13.413,0,0,0-8.848.977c-4.249,2.491-5.518,8.068-8.13,12.38a20.159,20.159,0,0,1-14.292,9.352c-1.839.249-5.518.613-7.358-.517a2.158,2.158,0,0,1-.4-.268h0c-.276-.307-.607-.709-.754-.92a.321.321,0,0,1,0-.134c-.754-2.894.478-5.884.533-8.873v-.537c-.129-3.469-.221-6.918-.294-10.368q-.239-9.582-.184-19.165c0-4.14-.441-8.662,1.251-12.553,1.839-4.293,6.475-4.389,8.222-8.586.7-1.686,1.067-3.469,1.747-5.174a14.251,14.251,0,0,1,12.1-8.8c8.075-.422,15.3,6.382,23.379,5.749a62.928,62.928,0,0,0,6.18-1.227c6.53-1.284,14.09.652,17.769,6.42A9.147,9.147,0,0,1,506.951,361.041Z" transform="translate(-429.751 -297.251)" fill="#7d25f5"/>
        <path id="Path_2779" data-name="Path 2779" d="M434.929,397.447h0a.733.733,0,0,1-.478-.882c11.147-43.58,55.182-49.828,65.538-49.1a.67.67,0,0,1,.478.241.728.728,0,0,1,.166.525.708.708,0,0,1-.736.652c-10.1-.747-53.214,5.4-64.122,48.065a.7.7,0,0,1-.846.5Z" transform="translate(-430.238 -292.107)" fill="#fff"/>
        <path id="Path_2780" data-name="Path 2780" d="M475.545,367.243a.635.635,0,0,1-.368-.192,35.585,35.585,0,0,0-30-8.8.727.727,0,0,1-.2-1.437,37.037,37.037,0,0,1,31.27,9.218.73.73,0,0,1,0,1.016A.609.609,0,0,1,475.545,367.243Z" transform="translate(-421.871 -283.982)" fill="#fff"/>
      </g>
    </g>
    <g id="freepik--Clouds--inject-25" transform="translate(674.816 105.027)">
      <g id="freepik--clouds--inject-25-2" data-name="freepik--clouds--inject-25">
        <path id="Path_2781" data-name="Path 2781" d="M380.578,90.352l5.849,2.338V79.275c0-10.655,8.149-13.2,17-7.877h0c8.866,5.328,16.04,18.264,16.04,28.919v1.916a8.267,8.267,0,0,1,7.358,1.188h0a26.8,26.8,0,0,1,11.533,20.832v.882l8.167,4.906a17.672,17.672,0,0,1,7.6,13.7c0,5.059-3.4,7.11-7.6,4.58l-65.943-39.69A17.577,17.577,0,0,1,373,94.932C373,89.892,376.366,87.841,380.578,90.352Z" transform="translate(-373 -68.704)" fill="#e6e6e6"/>
        <path id="Path_2782" data-name="Path 2782" d="M421.884,77.344,432.5,83.726a12.933,12.933,0,0,1-.092-1.457v-3.2c0-5.749,3.826-8.011,8.572-5.155a16.878,16.878,0,0,1,5.114,5.117c.773-7.168,6.18-9.831,12.729-5.9A29.87,29.87,0,0,1,471.7,96.3v4.791a13.082,13.082,0,0,1-1.085,5.558l8.829,5.289a11.1,11.1,0,0,1,4.709,8.6c0,3.162-2.134,4.446-4.764,2.875l-57.5-34.5A11.061,11.061,0,0,1,417.12,80.3C417.12,77.057,419.254,75.773,421.884,77.344Z" transform="translate(-335.965 -66.314)" fill="#e6e6e6"/>
      </g>
    </g>
    <g id="freepik--Character--inject-25" transform="translate(544.605 308.807)">
      <g id="freepik--character--inject-25-2" data-name="freepik--character--inject-25">
        <path id="Path_2783" data-name="Path 2783" d="M442.211,237.242c-7.726,13.607-15.157,25.431-20.381,31.1-9.914,4.791-33.2,12.189-42.306,13.415a6.5,6.5,0,0,1-4.562-1.112c-3.587-2.453-6.364-2.855-10.135-4.216-2.961-1.054-4.212-2.53-4.764-1.916a3.612,3.612,0,0,0,.313,4.887,24.979,24.979,0,0,0,4.672,3.641,26.511,26.511,0,0,1-12.324.23c-7.891-2.166-11.607,1.782-6.272,10.713,1.839,3.181,9.418,8.3,24.648,6.918A132.628,132.628,0,0,0,387.3,298.99c14.6-3.258,30.847-6.4,40.835-9.582a25.761,25.761,0,0,0,9.712-7.014c16.794-19.95,22.367-34.17,29.725-47.087l-.625-21.081C455.031,213.8,448.667,225.858,442.211,237.242Z" transform="translate(-267.173 -139.132)" fill="#ffa8a7"/>
        <path id="Path_2784" data-name="Path 2784" d="M430.565,214.093a18.82,18.82,0,0,0-18.21,8.107c-8.167,10.9-22.625,37.083-22.625,37.083s4.727,13.128,17.493,15.332l20.509-28.862S437.444,225.707,430.565,214.093Z" transform="translate(-228.745 -139.421)" fill="#455a64"/>
        <rect id="Rectangle_16944" data-name="Rectangle 16944" width="13.372" height="24.837" transform="translate(232.795 368.924)" fill="#ffa8a7"/>
        <path id="Path_2785" data-name="Path 2785" d="M417.245,379.424l-13.354.5-.681-26.294,14.035-.5Z" transform="translate(-217.43 -11.822)" fill="#ffa8a7"/>
        <path id="Path_2786" data-name="Path 2786" d="M469.279,255.4c0,13.837-1.95,125.317-1.95,125.317.294,3.986,3.679,11.345,3,26.658-1.012,20.794-2.354,75.451-2.354,75.451a16.384,16.384,0,0,1-14.881.307s-10.852-76.658-13.244-97.183c-2.1-18-7.468-77.559-7.468-77.559l-7.229,70.41a90.226,90.226,0,0,1,1.655,23c-.625,9.582-4.93,59.18-4.93,59.18a17.052,17.052,0,0,1-15.433,1.284s-7.615-74.742-7.762-83.519c-.184-9.966,4.451-123.458,4.451-123.458Z" transform="translate(-221.235 -101.488)" fill="#37474f"/>
        <path id="Path_2787" data-name="Path 2787" d="M438.418,377.8v-2.07c-1.288.594-4.249,12.9-9.565,18.149-4.212,4.178-9.951,8.988-11.423,13.645s8,7.513,11.956,6.765c4.562-.882,12.508-4.389,14.495-7.666s2.925-8.03,4.543-10.406,5.353-5.021,6.217-7.781a19.169,19.169,0,0,0-.754-7.666c-.625-2.568-1.288-5.385-2.1-5.136v1.572a10.118,10.118,0,0,1-6.7,2.453C443.145,379.834,438.4,379.413,438.418,377.8Z" transform="translate(-205.623 8.791)" fill="#263238"/>
        <path id="Path_2788" data-name="Path 2788" d="M418.009,365.251c-.7,0-1.269,1.092-2.8,2.894a29.564,29.564,0,0,1-7.854,6.133c-5,2.721-14.715,6.9-19.148,9.065-2.759,1.342-2.63,4.944.221,7s9.712,3.526,17.953,1.533c4.488-1.092,10.337-5.6,14.053-5.347s10.613.172,13.354-1.916,1.637-6.42.865-10.157c-.846-4.1-1.839-10.483-3.145-10.2v1.437c-1.6,2.645-9.9,3.718-13.428,1.782Z" transform="translate(-231.696 -1.636)" fill="#263238"/>
        <path id="Path_2789" data-name="Path 2789" d="M425.495,288.545A48.8,48.8,0,0,1,406.88,276.95s3.679,7.3,14.274,14.105l-2.281,62.879Z" transform="translate(-214.35 -81.638)" fill="#263238"/>
        <path id="Path_2790" data-name="Path 2790" d="M460.558,216.05s11.036,2.645,10.245,23.419l-2.3,33.059v49.636c-9.822,11.614-53.343,10.77-68.334-.92,0,0,1.692-58.739,2.7-81.353.717-16.06,4.267-24.147,19.424-25.91l18.633.843Z" transform="translate(-219.982 -139.347)" fill="#7d25f5"/>
        <path id="Path_2791" data-name="Path 2791" d="M443.921,202.868a21.574,21.574,0,0,1-5.638,15.108,19.861,19.861,0,0,1-14.264,6.472c-11.036,0-17.511-9.927-19.9-21.579-4.415-21.33,8.9-21.6,19.9-21.6,11.219.241,20.128,9.909,19.9,21.6Z" transform="translate(-217.398 -169.324)" fill="#263238"/>
        <path id="Path_2792" data-name="Path 2792" d="M434.515,197.09s-3.053,15.562-4.286,18.13a6.575,6.575,0,0,1-3.679,3.277l.221-10.943Z" transform="translate(-197.838 -154.825)" fill="#263238"/>
        <path id="Path_2793" data-name="Path 2793" d="M429.663,185.475s2.189-.575,4.525,3.22c1.987,3.239,2.446,10.521-.681,19.165l-5.757.728Z" transform="translate(-196.831 -165.499)" fill="#263238"/>
        <path id="Path_2794" data-name="Path 2794" d="M429.94,188.879l7.063.134a3.565,3.565,0,0,0-.805-2.65,3.277,3.277,0,0,0-2.414-1.183,3.986,3.986,0,0,0-3.844,3.7Z" transform="translate(-194.993 -165.74)" fill="#263238"/>
        <path id="Path_2795" data-name="Path 2795" d="M430.814,189.294l5.224-5.232a3.276,3.276,0,0,0-4.948-.211A4.148,4.148,0,0,0,430.814,189.294Z" transform="translate(-195.003 -167.9)" fill="#263238"/>
        <path id="Path_2796" data-name="Path 2796" d="M445.523,213.058c1.159.747,2.8-1.648,4.231-3.277s5.886-3.124,8.2,2.166-1.637,10.521-4.948,12.246c-5.941,3.066-7.817-1.4-7.817-1.4l-.5,24.646c-8.351,13.415-27.3,12.994-20.473-.652v-7.493a36.286,36.286,0,0,1-8.5.46c-4.635-.767-7.542-4.734-8.958-10.176-2.244-8.739-3.109-15.792-1.2-32.982,2.1-18.82,22.294-19.03,33.109-11.5S445.523,213.058,445.523,213.058Z" transform="translate(-216.333 -170.065)" fill="#ffa8a7"/>
        <path id="Path_2797" data-name="Path 2797" d="M423.051,198.635c4.819-.5,9.583-1.533,14.421-1.916a9.012,9.012,0,0,1,3.127.153c3.679,1.054,3.237,5.539,3.826,8.662,1.012,5.4,1.839,14.546,3.789,14.584.589,0,2.8-3.967,4.231-5.385a8.144,8.144,0,0,0,1.288-4.12c.368-2.223.552-4.5.717-6.765.147-1.916.331-3.833.331-5.749a28.082,28.082,0,0,0-.5-6.458,11.426,11.426,0,0,0-2.575-4.83l-.368-.422a24.38,24.38,0,0,0-8.627-6.056,50.325,50.325,0,0,0-14.6-3.316,137.974,137.974,0,0,1-14.881-1.916,1.486,1.486,0,0,0-.865,0,1.425,1.425,0,0,0-.7,1.15,6.527,6.527,0,0,0,2.483,6.324c-3.329.268-7.155-1.533-10.356-2.453a2.019,2.019,0,0,0-1.637,0,1.689,1.689,0,0,0-.644.977,6.343,6.343,0,0,0-.092,2.76,16.259,16.259,0,0,0,2.869,7.666,17.912,17.912,0,0,0,9.933,6.765A27.843,27.843,0,0,0,423.051,198.635Z" transform="translate(-219.025 -175.036)" fill="#263238"/>
        <path id="Path_2798" data-name="Path 2798" d="M415.24,215.806s10.337-2.261,13.943-4.35a12.465,12.465,0,0,0,5-5.366,18.263,18.263,0,0,1-2.851,6.324c-2.63,3.68-16.095,6.363-16.095,6.363Z" transform="translate(-207.332 -146.577)" fill="#f28f8f"/>
        <path id="Path_2799" data-name="Path 2799" d="M416.591,197.124a2.207,2.207,0,0,0,2.06,2.319,2.23,2.23,0,0,0,2.2-1.307,2.414,2.414,0,0,0-.371-2.612,2.182,2.182,0,0,0-2.471-.587,2.339,2.339,0,0,0-1.42,2.186Z" transform="translate(-206.2 -156.948)" fill="#263238"/>
        <path id="Path_2800" data-name="Path 2800" d="M418.39,191.864l4.433,2.664a3,3,0,0,0-1.03-3.833,2.341,2.341,0,0,0-1.949-.2,2.466,2.466,0,0,0-1.454,1.365Z" transform="translate(-204.688 -160.983)" fill="#263238"/>
        <path id="Path_2801" data-name="Path 2801" d="M417.9,204.11l-4.727,1.916a2.545,2.545,0,0,0,1.258,1.572,2.375,2.375,0,0,0,1.961.115,2.917,2.917,0,0,0,1.508-3.6Z" transform="translate(-209.07 -148.392)" fill="#f28f8f"/>
        <path id="Path_2802" data-name="Path 2802" d="M406.472,194.341l4.047-3.373a2.387,2.387,0,0,0-1.629-1.114,2.322,2.322,0,0,0-1.884.52,3.1,3.1,0,0,0-.533,3.967Z" transform="translate(-215.101 -161.486)" fill="#263238"/>
        <path id="Path_2803" data-name="Path 2803" d="M407.221,196.788a2.11,2.11,0,0,0,2.18,1.99,2.165,2.165,0,1,0-1.609-3.611A2.3,2.3,0,0,0,407.221,196.788Z" transform="translate(-214.065 -157.245)" fill="#263238"/>
        <path id="Path_2804" data-name="Path 2804" d="M416.75,194.73l-.239,13.626-7.431-1.763Z" transform="translate(-212.503 -156.988)" fill="#f28f8f"/>
        <path id="Path_2805" data-name="Path 2805" d="M317.31,260.356l11.533-6.938,4.562-5.769-11.515,6.938-4.58,5.768" transform="translate(-289.535 -108.49)" fill="#7d25f5"/>
        <path id="Path_2806" data-name="Path 2806" d="M317.31,260.356l11.533-6.938,4.562-5.769-11.515,6.938-4.58,5.768" transform="translate(-289.535 -108.49)" opacity="0.4"/>
        <path id="Path_2807" data-name="Path 2807" d="M334.36,271.681l11.533-6.938,9.62-8.873L344,262.788l-9.638,8.892" transform="translate(-275.223 -100.956)" fill="#7d25f5"/>
        <path id="Path_2808" data-name="Path 2808" d="M334.36,271.681l11.533-6.938,9.62-8.873L344,262.788l-9.638,8.892" transform="translate(-275.223 -100.956)" opacity="0.4"/>
        <path id="Path_2809" data-name="Path 2809" d="M459.272,326.657a26.111,26.111,0,0,1,4.764,13.07A26.388,26.388,0,0,1,459.272,326.657Zm26.8.364c-3.881-27.5-18.063-54.7-34.949-64.872-8.112-4.887-15.617-5.059-21.631-1.4l-10.852,6.516-.607.383a13.7,13.7,0,0,0-1.4.92,19.017,19.017,0,0,0-2.5,2.146l-.368.364c-.331.345-.681.747-.993,1.131s-.791.977-1.159,1.495a28.572,28.572,0,0,0-2.115,3.373,20.2,20.2,0,0,0-.938,1.916l-94.784-57-11.515,6.918v7.666l.975.575.92.556v1.533l-1.839,1.131v4.446l13.924,30.663,13.759,8.3,4.58-5.749,12.14,7.57,6.971,12.438,7.689,4.619,9.62-8.892,11.809,7.11,3.973,17.076,19.847,11.959a116.059,116.059,0,0,0,3.679,12.821c.129.422.294.862.46,1.342,6.585,18.015,17.051,33.442,28.86,40.552a29.1,29.1,0,0,0,4.433,2.242,22.462,22.462,0,0,0,2.483.862q1.1.307,2.207.518a18.817,18.817,0,0,0,7.027,0l.956-.249a8.351,8.351,0,0,0,1.343-.4l1.03-.422a5.94,5.94,0,0,0,1.049-.517,9.844,9.844,0,0,0,.993-.517l.478-.307a.764.764,0,0,0,.239-.134c2.63-1.571,9.105-5.481,10.871-6.516,8.756-5.289,14.421-18.666,14.421-37.582a102.684,102.684,0,0,0-1.085-14.584Z" transform="translate(-302.168 -131.997)" fill="#7d25f5"/>
        <path id="Path_2810" data-name="Path 2810" d="M455.914,346.557c-4.562-2.74-8.241-10.866-8.241-18.149s3.679-10.981,8.241-8.26,8.222,10.866,8.222,18.168S460.457,349.3,455.914,346.557Zm18.633-15.926c-3.863-27.482-18.045-54.7-34.949-64.853-7.836-4.714-15.083-5.059-20.969-1.821l-.607.383a13.7,13.7,0,0,0-1.4.92,19.016,19.016,0,0,0-2.5,2.146l-.368.364c-.331.345-.681.747-.993,1.131s-.791.977-1.159,1.495a28.57,28.57,0,0,0-2.115,3.373,20.188,20.188,0,0,0-.938,1.917,48.01,48.01,0,0,0-3.679,11.671L302.25,225.61v7.666l.975.575.92.556v1.533l-1.839,1.131v4.446l13.924,30.663,13.759,8.3,4.58-5.749,12.14,7.57,6.971,12.438,7.689,4.619,9.62-8.892,11.809,7.11,3.973,17.076,19.865,11.959a116.062,116.062,0,0,0,3.679,12.821c.129.422.294.862.46,1.341,6.585,18.015,17.051,33.442,28.86,40.552a29.1,29.1,0,0,0,4.433,2.242,22.456,22.456,0,0,0,2.483.862q1.1.307,2.207.518a18.815,18.815,0,0,0,7.027,0l.956-.249a8.351,8.351,0,0,0,1.343-.4l1.03-.422a5.937,5.937,0,0,0,1.049-.517,9.838,9.838,0,0,0,.993-.518l.478-.307a.765.765,0,0,0,.239-.134c8.388-5.519,13.777-18.7,13.777-37.16A106.007,106.007,0,0,0,474.547,330.632Z" transform="translate(-302.176 -128.688)" fill="#7d25f5"/>
        <path id="Path_2811" data-name="Path 2811" d="M397.773,293.521c0,7.3-3.679,11-8.222,8.26s-8.241-10.847-8.241-18.149,3.679-11,8.241-8.26a11.932,11.932,0,0,1,3.366,3.22,26.289,26.289,0,0,0,4.764,13.07,15.757,15.757,0,0,1,.092,1.859Z" transform="translate(-235.813 -83.912)" opacity="0.4"/>
        <path id="Path_2812" data-name="Path 2812" d="M434.019,324.267c0,18.915-5.665,32.292-14.421,37.582-1.839,1.035-8.241,4.944-10.871,6.516,8.388-5.519,13.777-18.7,13.777-37.16a106,106,0,0,0-1.067-14.584c-3.863-27.482-18.045-54.7-34.949-64.853-7.836-4.714-15.083-5.059-20.969-1.821l10.852-6.516c6.015-3.66,13.52-3.488,21.631,1.4,16.9,10.176,31.086,37.371,34.949,64.872a102.7,102.7,0,0,1,1.067,14.565Z" transform="translate(-249.067 -114.677)" fill="#fff" opacity="0.4"/>
        <path id="Path_2813" data-name="Path 2813" d="M402.787,292.326c0,18.455-5.389,31.641-13.777,37.16,2.63-1.571,9.105-5.481,10.871-6.516,8.756-5.289,14.421-18.666,14.421-37.582V283.28l-11.515,6.938C402.769,290.965,402.787,291.655,402.787,292.326Z" transform="translate(-229.35 -75.836)" fill="#7d25f5"/>
        <path id="Path_2814" data-name="Path 2814" d="M402.787,292.326c0,18.455-5.389,31.641-13.777,37.16,2.63-1.571,9.105-5.481,10.871-6.516,8.756-5.289,14.421-18.666,14.421-37.582V283.28l-11.515,6.938C402.769,290.965,402.787,291.655,402.787,292.326Z" transform="translate(-229.35 -75.836)" opacity="0.1"/>
        <path id="Path_2815" data-name="Path 2815" d="M405.3,291.017v3.89L302.26,232.93l1.895-1.15v-1.61Z" transform="translate(-302.168 -124.509)" opacity="0.15"/>
        <path id="Path_2816" data-name="Path 2816" d="M405.3,291.867v2.281L302.26,232.169l1.895-1.15V231Z" transform="translate(-302.168 -123.749)" opacity="0.15"/>
        <path id="Path_2817" data-name="Path 2817" d="M401.577,354.094a21.433,21.433,0,0,1-11.036-3.43c-16.794-10.1-30.461-40.15-30.461-66.98,0-15.657,4.543-27.348,12.471-32.12,5.518-3.335,12.048-2.913,18.909,1.207,16.775,10.1,30.442,40.246,30.442,67.076,0,15.638-4.543,27.348-12.471,32.1a15.167,15.167,0,0,1-7.854,2.146ZM380.516,251.277a13.476,13.476,0,0,0-6.99,1.916c-7.229,4.35-11.552,15.753-11.552,30.472,0,26.217,13.244,55.577,29.541,65.313,6.236,3.833,12.14,4.178,17.051,1.227,7.229-4.35,11.551-15.734,11.551-30.453,0-26.236-13.244-55.577-29.522-65.332a19.64,19.64,0,0,0-10.08-3.066Z" transform="translate(-253.634 -106.942)" opacity="0.15"/>
        <path id="Path_2818" data-name="Path 2818" d="M408.509,278.975a48.011,48.011,0,0,0-3.679,11.671L302.21,228.9l11.515-6.918Z" transform="translate(-302.21 -132.015)" fill="#fff" opacity="0.4"/>
        <path id="Path_2819" data-name="Path 2819" d="M470.371,290.546c5.371-10.6,11.515-34.4,14.568-46.416,4.341-17.056-2.685-27.789-10.669-28.229-4.985.8-21.411,63.032-21.411,63.032-1.839,1.514-26.8,14.718-34.82,18.034a6.055,6.055,0,0,1-4.451,0c-3.844-1.457-6.475-1.188-10.246-1.572-2.961-.307-4.451-1.4-4.838-.747a3.6,3.6,0,0,0,1.453,4.542,23.681,23.681,0,0,0,5.15,2.338,30.255,30.255,0,0,1-9.951,1.4c-7.726-.172-10.5,3.316-4.507,11.5,3.679,5.1,9.767,6.708,23.36,1.821,3.9-1.418,9.2-4.159,14.145-6.018,10.19-3.833,12.876-4.293,20.638-7.033C460.107,299.208,467.98,295.26,470.371,290.546Z" transform="translate(-230.697 -137.587)" fill="#ffa8a7"/>
        <path id="Path_2820" data-name="Path 2820" d="M440.588,215.06c4.69.671,9.2,1.763,11.975,5.749s5,9.582,2.281,24.818a246.094,246.094,0,0,1-8.351,31.583s-10.926,4.868-22.533-7.474l7.983-32.158S433.231,216.67,440.588,215.06Z" transform="translate(-200.013 -138.357)" fill="#455a64"/>
      </g>
    </g>
  </g>
</svg>
