<?xml version="1.0" encoding="UTF-8"?>
<svg xmlns="http://www.w3.org/2000/svg" xmlns:xlink="http://www.w3.org/1999/xlink" width="932px" height="924px" viewBox="0 0 1211 924" version="1.1">
<defs>
<filter id="alpha" filterUnits="objectBoundingBox" x="0%" y="0%" width="100%" height="100%">
  <feColorMatrix type="matrix" in="SourceGraphic" values="0 0 0 0 1 0 0 0 0 1 0 0 0 0 1 0 0 0 1 0"/>
</filter>
<mask id="mask0">
  <g filter="url(#alpha)">
<rect x="0" y="0" width="1211" height="924" style="fill:rgb(0%,0%,0%);fill-opacity:0.501961;stroke:none;"/>
  </g>
</mask>
<clipPath id="clip1">
  <rect x="0" y="0" width="1211" height="924"/>
</clipPath>
<g id="surface5" clip-path="url(#clip1)">
<path style=" stroke:none;fill-rule:nonzero;fill:rgb(100%,100%,100%);fill-opacity:1;" d="M 782.816406 259.273438 L 971.492188 259.273438 C 972.855469 259.273438 973.964844 260.382812 973.964844 261.746094 L 973.964844 269.121094 C 973.964844 270.484375 972.855469 271.59375 971.492188 271.59375 L 782.816406 271.59375 C 781.453125 271.59375 780.347656 270.484375 780.347656 269.121094 L 780.347656 261.746094 C 780.347656 260.382812 781.453125 259.273438 782.816406 259.273438 Z M 782.816406 259.273438 "/>
<path style=" stroke:none;fill-rule:nonzero;fill:rgb(100%,100%,100%);fill-opacity:1;" d="M 782.816406 288.953125 L 912.6875 288.953125 C 914.054688 288.953125 915.160156 290.058594 915.160156 291.425781 L 915.160156 298.796875 C 915.160156 300.164062 914.054688 301.269531 912.6875 301.269531 L 782.816406 301.269531 C 781.453125 301.269531 780.347656 300.164062 780.347656 298.796875 L 780.347656 291.425781 C 780.347656 290.058594 781.453125 288.953125 782.816406 288.953125 Z M 782.816406 288.953125 "/>
<path style=" stroke:none;fill-rule:nonzero;fill:rgb(100%,100%,100%);fill-opacity:1;" d="M 782.816406 318.632812 L 878.671875 318.632812 C 880.035156 318.632812 881.140625 319.738281 881.140625 321.105469 L 881.140625 328.476562 C 881.140625 329.84375 880.035156 330.949219 878.671875 330.949219 L 782.816406 330.949219 C 781.453125 330.949219 780.347656 329.84375 780.347656 328.476562 L 780.347656 321.105469 C 780.347656 319.738281 781.453125 318.632812 782.816406 318.632812 Z M 782.816406 318.632812 "/>
<path style=" stroke:none;fill-rule:nonzero;fill:rgb(100%,100%,100%);fill-opacity:1;" d="M 897.882812 318.632812 L 993.734375 318.632812 C 995.101562 318.632812 996.207031 319.738281 996.207031 321.105469 L 996.207031 328.476562 C 996.207031 329.84375 995.101562 330.949219 993.734375 330.949219 L 897.882812 330.949219 C 896.519531 330.949219 895.414062 329.84375 895.414062 328.476562 L 895.414062 321.105469 C 895.414062 319.738281 896.519531 318.632812 897.882812 318.632812 Z M 897.882812 318.632812 "/>
</g>
<mask id="mask1">
  <g filter="url(#alpha)">
<rect x="0" y="0" width="1211" height="924" style="fill:rgb(0%,0%,0%);fill-opacity:0.501961;stroke:none;"/>
  </g>
</mask>
<clipPath id="clip2">
  <rect x="0" y="0" width="1211" height="924"/>
</clipPath>
<g id="surface8" clip-path="url(#clip2)">
<path style=" stroke:none;fill-rule:nonzero;fill:rgb(100%,100%,100%);fill-opacity:1;" d="M 561.894531 242.253906 L 838.5 242.253906 C 840.507812 242.253906 842.132812 243.878906 842.132812 245.886719 L 842.132812 256.683594 C 842.132812 258.691406 840.507812 260.316406 838.5 260.316406 L 561.894531 260.316406 C 559.886719 260.316406 558.261719 258.691406 558.261719 256.683594 L 558.261719 245.886719 C 558.261719 243.878906 559.886719 242.253906 561.894531 242.253906 Z M 561.894531 242.253906 "/>
<path style=" stroke:none;fill-rule:nonzero;fill:rgb(100%,100%,100%);fill-opacity:1;" d="M 561.894531 285.777344 L 752.269531 285.777344 C 754.273438 285.777344 755.902344 287.402344 755.902344 289.410156 L 755.902344 300.207031 C 755.902344 302.214844 754.273438 303.839844 752.269531 303.839844 L 561.894531 303.839844 C 559.886719 303.839844 558.261719 302.214844 558.261719 300.207031 L 558.261719 289.410156 C 558.261719 287.402344 559.886719 285.777344 561.894531 285.777344 Z M 561.894531 285.777344 "/>
<path style=" stroke:none;fill-rule:nonzero;fill:rgb(100%,100%,100%);fill-opacity:1;" d="M 561.894531 329.300781 L 702.40625 329.300781 C 704.410156 329.300781 706.035156 330.925781 706.035156 332.933594 L 706.035156 343.734375 C 706.035156 345.738281 704.410156 347.363281 702.40625 347.363281 L 561.894531 347.363281 C 559.886719 347.363281 558.261719 345.738281 558.261719 343.734375 L 558.261719 332.933594 C 558.261719 330.925781 559.886719 329.300781 561.894531 329.300781 Z M 561.894531 329.300781 "/>
<path style=" stroke:none;fill-rule:nonzero;fill:rgb(100%,100%,100%);fill-opacity:1;" d="M 730.601562 329.300781 L 848.410156 329.300781 C 850.414062 329.300781 852.039062 330.925781 852.039062 332.933594 L 852.039062 343.734375 C 852.039062 345.738281 850.414062 347.363281 848.410156 347.363281 L 730.601562 347.363281 C 728.597656 347.363281 726.96875 345.738281 726.96875 343.734375 L 726.96875 332.933594 C 726.96875 330.925781 728.597656 329.300781 730.601562 329.300781 Z M 730.601562 329.300781 "/>
</g>
<mask id="mask2">
  <g filter="url(#alpha)">
<rect x="0" y="0" width="1211" height="924" style="fill:rgb(0%,0%,0%);fill-opacity:0.4;stroke:none;"/>
  </g>
</mask>
<clipPath id="clip3">
  <rect x="0" y="0" width="1211" height="924"/>
</clipPath>
<g id="surface11" clip-path="url(#clip3)">
<path style=" stroke:none;fill-rule:nonzero;fill:rgb(0%,0%,0%);fill-opacity:1;" d="M 523.183594 405.777344 L 664.894531 405.777344 C 670.234375 405.777344 674.5625 410.109375 674.5625 415.453125 L 674.5625 622.035156 C 674.5625 627.378906 670.234375 631.710938 664.894531 631.710938 L 523.183594 631.710938 C 517.839844 631.710938 513.511719 627.378906 513.511719 622.035156 L 513.511719 415.453125 C 513.511719 410.109375 517.839844 405.777344 523.183594 405.777344 Z M 523.183594 405.777344 "/>
</g>
<mask id="mask3">
  <g filter="url(#alpha)">
<rect x="0" y="0" width="1211" height="924" style="fill:rgb(0%,0%,0%);fill-opacity:0.4;stroke:none;"/>
  </g>
</mask>
<clipPath id="clip4">
  <rect x="0" y="0" width="1211" height="924"/>
</clipPath>
<g id="surface14" clip-path="url(#clip4)">
<path style=" stroke:none;fill-rule:nonzero;fill:rgb(0%,0%,0%);fill-opacity:1;" d="M 694.164062 404.394531 L 513.921875 404.394531 L 593.613281 467.851562 L 715.800781 513.921875 L 715.800781 426 C 715.773438 414.058594 706.09375 404.394531 694.164062 404.394531 Z M 694.164062 404.394531 "/>
</g>
<mask id="mask4">
  <g filter="url(#alpha)">
<rect x="0" y="0" width="1211" height="924" style="fill:rgb(0%,0%,0%);fill-opacity:0.501961;stroke:none;"/>
  </g>
</mask>
<clipPath id="clip5">
  <rect x="0" y="0" width="1211" height="924"/>
</clipPath>
<g id="surface17" clip-path="url(#clip5)">
<path style=" stroke:none;fill-rule:nonzero;fill:rgb(100%,100%,100%);fill-opacity:1;" d="M 1046.070312 402.4375 L 1046.070312 542.621094 C 1046.070312 548.664062 1041.171875 553.5625 1035.132812 553.5625 L 801.703125 553.5625 C 795.664062 553.5625 790.765625 548.664062 790.765625 542.621094 L 790.765625 402.4375 C 790.765625 396.394531 795.664062 391.496094 801.703125 391.496094 L 1035.132812 391.496094 C 1041.171875 391.496094 1046.070312 396.394531 1046.070312 402.4375 Z M 1046.070312 402.4375 "/>
</g>
<mask id="mask5">
  <g filter="url(#alpha)">
<rect x="0" y="0" width="1211" height="924" style="fill:rgb(0%,0%,0%);fill-opacity:0.701961;stroke:none;"/>
  </g>
</mask>
<clipPath id="clip6">
  <rect x="0" y="0" width="1211" height="924"/>
</clipPath>
<g id="surface20" clip-path="url(#clip6)">
<path style=" stroke:none;fill-rule:nonzero;fill:rgb(100%,100%,100%);fill-opacity:1;" d="M 1023.730469 411.421875 L 1023.730469 495.449219 C 1023.730469 498.136719 1021.550781 500.316406 1018.863281 500.316406 L 941.003906 500.316406 C 938.320312 500.316406 936.140625 498.136719 936.140625 495.449219 L 936.140625 411.421875 C 936.140625 408.730469 938.320312 406.550781 941.003906 406.550781 L 1018.863281 406.550781 C 1021.550781 406.550781 1023.730469 408.730469 1023.730469 411.421875 Z M 1023.730469 411.421875 "/>
</g>
<mask id="mask6">
  <g filter="url(#alpha)">
<rect x="0" y="0" width="1211" height="924" style="fill:rgb(0%,0%,0%);fill-opacity:0.301961;stroke:none;"/>
  </g>
</mask>
<clipPath id="clip7">
  <rect x="0" y="0" width="1211" height="924"/>
</clipPath>
<g id="surface23" clip-path="url(#clip7)">
<path style=" stroke:none;fill-rule:nonzero;fill:rgb(100%,100%,100%);fill-opacity:1;" d="M 922.429688 468.144531 L 922.429688 532.535156 C 922.429688 534.601562 920.753906 536.273438 918.691406 536.273438 L 859.023438 536.273438 C 856.960938 536.273438 855.289062 534.601562 855.289062 532.535156 L 855.289062 468.144531 C 855.289062 466.078125 856.960938 464.40625 859.023438 464.40625 L 918.691406 464.40625 C 920.753906 464.40625 922.429688 466.078125 922.429688 468.144531 Z M 922.429688 468.144531 "/>
</g>
<mask id="mask7">
  <g filter="url(#alpha)">
<rect x="0" y="0" width="1211" height="924" style="fill:rgb(0%,0%,0%);fill-opacity:0.501961;stroke:none;"/>
  </g>
</mask>
<clipPath id="clip8">
  <rect x="0" y="0" width="1211" height="924"/>
</clipPath>
<g id="surface26" clip-path="url(#clip8)">
<path style=" stroke:none;fill-rule:nonzero;fill:rgb(100%,100%,100%);fill-opacity:1;" d="M 888.84375 111.75 L 888.84375 157.613281 C 888.84375 163.753906 883.867188 168.734375 877.730469 168.734375 L 272.695312 168.734375 C 266.554688 168.734375 261.578125 163.753906 261.578125 157.613281 L 261.578125 111.75 C 261.578125 105.605469 266.554688 100.625 272.695312 100.625 L 877.730469 100.625 C 883.867188 100.625 888.84375 105.605469 888.84375 111.75 Z M 888.84375 111.75 "/>
</g>
<mask id="mask8">
  <g filter="url(#alpha)">
<rect x="0" y="0" width="1211" height="924" style="fill:rgb(0%,0%,0%);fill-opacity:0.501961;stroke:none;"/>
  </g>
</mask>
<clipPath id="clip9">
  <rect x="0" y="0" width="1211" height="924"/>
</clipPath>
<g id="surface29" clip-path="url(#clip9)">
<path style=" stroke:none;fill-rule:nonzero;fill:rgb(100%,100%,100%);fill-opacity:1;" d="M 776.933594 156.683594 L 776.933594 180.132812 L 606.722656 180.132812 L 606.722656 156.683594 Z M 776.933594 156.683594 "/>
</g>
<mask id="mask9">
  <g filter="url(#alpha)">
<rect x="0" y="0" width="1211" height="924" style="fill:rgb(0%,0%,0%);fill-opacity:0.4;stroke:none;"/>
  </g>
</mask>
<clipPath id="clip10">
  <rect x="0" y="0" width="1211" height="924"/>
</clipPath>
<g id="surface32" clip-path="url(#clip10)">
<path style=" stroke:none;fill-rule:nonzero;fill:rgb(98.039216%,98.039216%,98.039216%);fill-opacity:1;" d="M 672.140625 493.480469 C 576.410156 482.722656 507.515625 396.355469 518.238281 300.554688 C 528.960938 204.75 615.25 135.78125 710.980469 146.488281 C 806.714844 157.199219 875.65625 243.53125 864.980469 339.339844 C 854.296875 435.214844 767.933594 504.242188 672.140625 493.480469 Z M 672.140625 493.480469 "/>
</g>
<mask id="mask10">
  <g filter="url(#alpha)">
<rect x="0" y="0" width="1211" height="924" style="fill:rgb(0%,0%,0%);fill-opacity:0.4;stroke:none;"/>
  </g>
</mask>
<clipPath id="clip11">
  <rect x="0" y="0" width="1211" height="924"/>
</clipPath>
<g id="surface35" clip-path="url(#clip11)">
<path style=" stroke:none;fill-rule:nonzero;fill:rgb(98.039216%,98.039216%,98.039216%);fill-opacity:1;" d="M 799.050781 182.4375 L 533.742188 394.574219 C 532.628906 392.148438 531.539062 389.726562 530.519531 387.300781 C 523.871094 371.46875 519.613281 354.730469 517.898438 337.644531 L 747.054688 154.40625 C 765.871094 160.6875 783.460938 170.171875 799.050781 182.441406 Z M 799.050781 182.4375 "/>
</g>
<mask id="mask11">
  <g filter="url(#alpha)">
<rect x="0" y="0" width="1211" height="924" style="fill:rgb(0%,0%,0%);fill-opacity:0.4;stroke:none;"/>
  </g>
</mask>
<clipPath id="clip12">
  <rect x="0" y="0" width="1211" height="924"/>
</clipPath>
<g id="surface38" clip-path="url(#clip12)">
<path style=" stroke:none;fill-rule:nonzero;fill:rgb(98.039216%,98.039216%,98.039216%);fill-opacity:1;" d="M 860.277344 275.375 L 610.839844 474.808594 C 587.144531 462.445312 566.609375 444.789062 550.824219 423.210938 L 823.183594 205.421875 C 840.742188 225.589844 853.433594 249.519531 860.28125 275.375 Z M 860.277344 275.375 "/>
</g>
<mask id="mask12">
  <g filter="url(#alpha)">
<rect x="0" y="0" width="1211" height="924" style="fill:rgb(0%,0%,0%);fill-opacity:0.301961;stroke:none;"/>
  </g>
</mask>
<clipPath id="clip13">
  <rect x="0" y="0" width="1211" height="924"/>
</clipPath>
<g id="surface41" clip-path="url(#clip13)">
<path style=" stroke:none;fill-rule:nonzero;fill:rgb(0%,0%,0%);fill-opacity:1;" d="M 495.21875 253.261719 L 492.917969 252.488281 C 496.902344 240.714844 501.914062 229.316406 507.890625 218.421875 L 510 219.585938 C 504.101562 230.359375 499.15625 241.628906 495.21875 253.265625 Z M 524.636719 196.671875 L 522.679688 195.238281 C 542.59375 168.296875 568.652344 146.507812 598.6875 131.6875 L 599.777344 133.871094 C 570.082031 148.535156 544.320312 170.089844 524.636719 196.738281 Z M 790.160156 137.199219 C 782.242188 132.945312 774.046875 129.226562 765.632812 126.0625 L 766.503906 123.78125 C 775 127.019531 783.269531 130.808594 791.269531 135.128906 Z M 790.160156 137.199219 "/>
</g>
<mask id="mask13">
  <g filter="url(#alpha)">
<rect x="0" y="0" width="1211" height="924" style="fill:rgb(0%,0%,0%);fill-opacity:0.301961;stroke:none;"/>
  </g>
</mask>
<clipPath id="clip14">
  <rect x="0" y="0" width="1211" height="924"/>
</clipPath>
<g id="surface44" clip-path="url(#clip14)">
<path style=" stroke:none;fill-rule:nonzero;fill:rgb(0%,0%,0%);fill-opacity:1;" d="M 871.933594 230.808594 C 825.335938 134.082031 711.0625 91 612.273438 132.921875 C 513.488281 174.84375 464.988281 286.996094 502.074219 387.761719 C 485.890625 393.4375 469.898438 399.519531 454.003906 405.800781 C 431.082031 414.902344 408.375 424.40625 385.871094 434.316406 C 363.386719 444.28125 341 454.441406 318.832031 465.066406 C 307.710938 470.277344 296.734375 475.78125 285.660156 481.117188 C 279.898438 483.59375 274.679688 487.179688 270.296875 491.667969 C 267.925781 494.152344 265.835938 496.894531 264.070312 499.839844 C 261.914062 503.324219 260.28125 507.105469 259.226562 511.066406 C 255.457031 525.808594 263 541.101562 276.984375 547.074219 C 280.742188 548.652344 284.710938 549.679688 288.761719 550.128906 C 292.183594 550.519531 295.636719 550.519531 299.058594 550.128906 C 305.277344 549.375 311.285156 547.40625 316.746094 544.332031 C 327.722656 538.78125 338.769531 533.421875 349.671875 527.722656 C 371.480469 516.597656 393.285156 504.980469 414.824219 493.195312 C 436.363281 481.410156 457.929688 469.070312 478.960938 456.417969 C 493.496094 447.617188 508.179688 438.621094 522.570312 429.210938 C 579.957031 519.941406 698.414062 549.605469 791.738281 496.613281 C 885.058594 443.625 920.375 326.648438 871.980469 230.808594 Z M 761.789062 462.449219 C 683.160156 501.289062 587.957031 468.992188 549.140625 390.308594 C 510.324219 311.625 542.59375 216.351562 621.214844 177.5 C 699.835938 138.648438 795.042969 170.933594 833.871094 249.613281 C 872.703125 328.304688 840.429688 423.601562 761.789062 462.449219 Z M 761.789062 462.449219 "/>
</g>
<mask id="mask14">
  <g filter="url(#alpha)">
<rect x="0" y="0" width="1211" height="924" style="fill:rgb(0%,0%,0%);fill-opacity:0.101961;stroke:none;"/>
  </g>
</mask>
<clipPath id="clip15">
  <rect x="0" y="0" width="1211" height="924"/>
</clipPath>
<g id="surface47" clip-path="url(#clip15)">
<path style=" stroke:none;fill-rule:nonzero;fill:rgb(0%,0%,0%);fill-opacity:1;" d="M 318.976562 334.832031 C 321.859375 330.34375 317.019531 319.457031 317.019531 319.457031 C 317.019531 319.457031 359.855469 308.664062 377.371094 325.226562 C 381.007812 328.644531 376.984375 333.6875 376.984375 333.6875 Z M 318.976562 334.832031 "/>
</g>
<mask id="mask15">
  <g filter="url(#alpha)">
<rect x="0" y="0" width="1211" height="924" style="fill:rgb(0%,0%,0%);fill-opacity:0.101961;stroke:none;"/>
  </g>
</mask>
<clipPath id="clip16">
  <rect x="0" y="0" width="1211" height="924"/>
</clipPath>
<g id="surface50" clip-path="url(#clip16)">
<path style=" stroke:none;fill-rule:nonzero;fill:rgb(0%,0%,0%);fill-opacity:1;" d="M 364.988281 486.910156 C 364.988281 486.910156 382.335938 612.628906 368.667969 663.015625 C 347.007812 742.789062 264.195312 810.125 264.195312 810.125 L 236.113281 791.695312 C 236.113281 791.695312 306.644531 734.835938 315.261719 668.035156 C 323.019531 608.070312 303.558594 535.550781 303.558594 486.882812 Z M 364.988281 486.910156 "/>
</g>
<mask id="mask16">
  <g filter="url(#alpha)">
<rect x="0" y="0" width="1211" height="924" style="fill:rgb(0%,0%,0%);fill-opacity:0.301961;stroke:none;"/>
  </g>
</mask>
<clipPath id="clip17">
  <rect x="0" y="0" width="1211" height="924"/>
</clipPath>
<g id="surface53" clip-path="url(#clip17)">
<path style=" stroke:none;fill-rule:nonzero;fill:rgb(0%,0%,0%);fill-opacity:1;" d="M 372.160156 558.777344 C 367.542969 553.480469 362.457031 548.613281 356.96875 544.226562 C 359.921875 585.035156 362.347656 645.484375 359.65625 688.425781 C 363.273438 680.195312 366.285156 671.710938 368.671875 663.039062 C 375.332031 638.429688 374.632812 595.929688 372.160156 558.777344 Z M 372.160156 558.777344 "/>
</g>
<mask id="mask17">
  <g filter="url(#alpha)">
<rect x="0" y="0" width="1211" height="924" style="fill:rgb(0%,0%,0%);fill-opacity:0.301961;stroke:none;"/>
  </g>
</mask>
<clipPath id="clip18">
  <rect x="0" y="0" width="1211" height="924"/>
</clipPath>
<g id="surface56" clip-path="url(#clip18)">
<path style=" stroke:none;fill-rule:nonzero;fill:rgb(0%,0%,0%);fill-opacity:1;" d="M 275.511719 803.84375 C 275.628906 803.84375 264.628906 811.117188 264.628906 811.117188 L 233.957031 790.992188 L 243.648438 782.96875 Z M 275.511719 803.84375 "/>
</g>
<mask id="mask18">
  <g filter="url(#alpha)">
<rect x="0" y="0" width="1211" height="924" style="fill:rgb(0%,0%,0%);fill-opacity:0.101961;stroke:none;"/>
  </g>
</mask>
<clipPath id="clip19">
  <rect x="0" y="0" width="1211" height="924"/>
</clipPath>
<g id="surface59" clip-path="url(#clip19)">
<path style=" stroke:none;fill-rule:nonzero;fill:rgb(0%,0%,0%);fill-opacity:1;" d="M 398.761719 486.910156 C 398.761719 486.910156 425.558594 600.628906 427.449219 654.964844 C 429.582031 715.875 408.332031 859.5625 408.332031 859.5625 L 378.167969 859.5625 C 378.167969 859.5625 374.460938 714.757812 373.128906 659.28125 C 371.652344 598.785156 336.179688 486.910156 336.179688 486.910156 Z M 398.761719 486.910156 "/>
</g>
<mask id="mask19">
  <g filter="url(#alpha)">
<rect x="0" y="0" width="1211" height="924" style="fill:rgb(0%,0%,0%);fill-opacity:0.301961;stroke:none;"/>
  </g>
</mask>
<clipPath id="clip20">
  <rect x="0" y="0" width="1211" height="924"/>
</clipPath>
<g id="surface62" clip-path="url(#clip20)">
<path style=" stroke:none;fill-rule:nonzero;fill:rgb(0%,0%,0%);fill-opacity:1;" d="M 414.125 847.5625 C 414.273438 847.5625 412.429688 860.070312 412.429688 860.070312 L 375.746094 860.070312 L 374.75 848.894531 Z M 414.125 847.5625 "/>
</g>
<mask id="mask20">
  <g filter="url(#alpha)">
<rect x="0" y="0" width="1211" height="924" style="fill:rgb(0%,0%,0%);fill-opacity:0.2;stroke:none;"/>
  </g>
</mask>
<clipPath id="clip21">
  <rect x="0" y="0" width="1211" height="924"/>
</clipPath>
<g id="surface65" clip-path="url(#clip21)">
<path style=" stroke:none;fill-rule:nonzero;fill:rgb(0%,0%,0%);fill-opacity:1;" d="M 893.5 859.878906 L 860.570312 859.878906 L 858.003906 848.820312 L 893.253906 849.0625 Z M 893.5 859.878906 "/>
</g>
<mask id="mask21">
  <g filter="url(#alpha)">
<rect x="0" y="0" width="1211" height="924" style="fill:rgb(0%,0%,0%);fill-opacity:0.101961;stroke:none;"/>
  </g>
</mask>
<clipPath id="clip22">
  <rect x="0" y="0" width="1211" height="924"/>
</clipPath>
<g id="surface68" clip-path="url(#clip22)">
<path style=" stroke:none;fill-rule:nonzero;fill:rgb(0%,0%,0%);fill-opacity:1;" d="M 854.078125 361.28125 C 863.550781 362.203125 877.945312 389.144531 877.945312 389.144531 L 854.027344 407.496094 C 854.027344 407.496094 834.234375 390.113281 836.585938 380.339844 C 839.03125 370.183594 844.992188 360.433594 854.078125 361.28125 Z M 854.078125 361.28125 "/>
</g>
<mask id="mask22">
  <g filter="url(#alpha)">
<rect x="0" y="0" width="1211" height="924" style="fill:rgb(0%,0%,0%);fill-opacity:0.301961;stroke:none;"/>
  </g>
</mask>
<clipPath id="clip23">
  <rect x="0" y="0" width="1211" height="924"/>
</clipPath>
<g id="surface71" clip-path="url(#clip23)">
<path style=" stroke:none;fill-rule:nonzero;fill:rgb(0%,0%,0%);fill-opacity:1;" d="M 846.929688 372.871094 C 844.515625 372.222656 842.015625 371.941406 839.515625 372.046875 C 838.242188 374.699219 837.261719 377.476562 836.585938 380.339844 C 834.160156 390.035156 854.027344 407.496094 854.027344 407.496094 L 855.796875 406.136719 Z M 846.929688 372.871094 "/>
</g>
<mask id="mask23">
  <g filter="url(#alpha)">
<rect x="0" y="0" width="1211" height="924" style="fill:rgb(0%,0%,0%);fill-opacity:0.101961;stroke:none;"/>
  </g>
</mask>
<clipPath id="clip24">
  <rect x="0" y="0" width="1211" height="924"/>
</clipPath>
<g id="surface74" clip-path="url(#clip24)">
<path style=" stroke:none;fill-rule:nonzero;fill:rgb(0%,0%,0%);fill-opacity:1;" d="M 759.46875 374.207031 C 759.46875 374.207031 751.28125 378.351562 782.292969 481.816406 L 855.417969 472.261719 C 850.28125 442.632812 847.855469 424.277344 854.082031 361.28125 C 843.597656 360.53125 833.070312 360.53125 822.585938 361.28125 C 811.421875 361.933594 800.320312 363.394531 789.367188 365.652344 C 775.332031 368.777344 759.46875 374.207031 759.46875 374.207031 Z M 759.46875 374.207031 "/>
</g>
<mask id="mask24">
  <g filter="url(#alpha)">
<rect x="0" y="0" width="1211" height="924" style="fill:rgb(0%,0%,0%);fill-opacity:0.2;stroke:none;"/>
  </g>
</mask>
<clipPath id="clip25">
  <rect x="0" y="0" width="1211" height="924"/>
</clipPath>
<g id="surface77" clip-path="url(#clip25)">
<path style=" stroke:none;fill-rule:nonzero;fill:rgb(0%,0%,0%);fill-opacity:1;" d="M 855.945312 467.816406 L 860.136719 473.90625 C 860.449219 474.390625 859.917969 474.972656 859.09375 475.09375 L 782.410156 485.132812 C 781.753906 485.132812 781.148438 484.960938 781.054688 484.550781 L 779.546875 478.074219 C 779.425781 477.636719 779.957031 477.171875 780.683594 477.082031 L 854.730469 467.382812 C 855.179688 467.3125 855.632812 467.476562 855.933594 467.820312 Z M 855.945312 467.816406 "/>
</g>
<mask id="mask25">
  <g filter="url(#alpha)">
<rect x="0" y="0" width="1211" height="924" style="fill:rgb(0%,0%,0%);fill-opacity:0.301961;stroke:none;"/>
  </g>
</mask>
<clipPath id="clip26">
  <rect x="0" y="0" width="1211" height="924"/>
</clipPath>
<g id="surface80" clip-path="url(#clip26)">
<path style=" stroke:none;fill-rule:nonzero;fill:rgb(0%,0%,0%);fill-opacity:1;" d="M 762.878906 409.316406 C 764.890625 418.675781 767.722656 430.53125 771.867188 445.542969 L 772.773438 407.496094 Z M 762.878906 409.316406 "/>
</g>
<mask id="mask26">
  <g filter="url(#alpha)">
<rect x="0" y="0" width="1211" height="924" style="fill:rgb(0%,0%,0%);fill-opacity:0.101961;stroke:none;"/>
  </g>
</mask>
<clipPath id="clip27">
  <rect x="0" y="0" width="1211" height="924"/>
</clipPath>
<g id="surface83" clip-path="url(#clip27)">
<path style=" stroke:none;fill-rule:nonzero;fill:rgb(0%,0%,0%);fill-opacity:1;" d="M 759.460938 374.207031 C 750.378906 377.867188 742.503906 408.976562 742.503906 408.976562 L 773.757812 424.199219 C 773.757812 424.199219 788.855469 386.15625 782.09375 378.738281 C 775.332031 371.320312 769.929688 370.011719 759.460938 374.207031 Z M 759.460938 374.207031 "/>
</g>
<mask id="mask27">
  <g filter="url(#alpha)">
<rect x="0" y="0" width="1211" height="924" style="fill:rgb(0%,0%,0%);fill-opacity:0.2;stroke:none;"/>
  </g>
</mask>
<clipPath id="clip28">
  <rect x="0" y="0" width="1211" height="924"/>
</clipPath>
<g id="surface86" clip-path="url(#clip28)">
<path style=" stroke:none;fill-rule:nonzero;fill:rgb(0%,0%,0%);fill-opacity:1;" d="M 814.148438 859.878906 L 781.21875 859.878906 L 778.652344 848.820312 L 815.308594 849.0625 Z M 814.148438 859.878906 "/>
</g>
</defs>
<g id="surface1">
<path style=" stroke:none;fill-rule:nonzero;fill:rgb(87.843137%,87.843137%,87.843137%);fill-opacity:1;" d="M 0 814.34375 L 1211.457031 814.34375 L 1211.457031 814.949219 L 0 814.949219 Z M 0 814.34375 "/>
<path style=" stroke:none;fill-rule:nonzero;fill:rgb(87.843137%,87.843137%,87.843137%);fill-opacity:1;" d="M 835.734375 836.699219 L 919.085938 836.699219 L 919.085938 837.304688 L 835.734375 837.304688 Z M 835.734375 836.699219 "/>
<path style=" stroke:none;fill-rule:nonzero;fill:rgb(87.843137%,87.843137%,87.843137%);fill-opacity:1;" d="M 970.230469 834.976562 L 1017.140625 834.976562 L 1017.140625 835.582031 L 970.230469 835.582031 Z M 970.230469 834.976562 "/>
<path style=" stroke:none;fill-rule:nonzero;fill:rgb(87.843137%,87.843137%,87.843137%);fill-opacity:1;" d="M 537.0625 836.40625 L 599.285156 836.40625 L 599.285156 837.011719 L 537.0625 837.011719 Z M 537.0625 836.40625 "/>
<path style=" stroke:none;fill-rule:nonzero;fill:rgb(87.843137%,87.843137%,87.843137%);fill-opacity:1;" d="M 601.730469 845.015625 L 644.226562 845.015625 L 644.226562 845.621094 L 601.730469 845.621094 Z M 601.730469 845.015625 "/>
<path style=" stroke:none;fill-rule:nonzero;fill:rgb(87.843137%,87.843137%,87.843137%);fill-opacity:1;" d="M 222.132812 830.273438 L 350.523438 830.273438 L 350.523438 830.878906 L 222.132812 830.878906 Z M 222.132812 830.273438 "/>
<path style=" stroke:none;fill-rule:nonzero;fill:rgb(87.843137%,87.843137%,87.843137%);fill-opacity:1;" d="M 574.230469 706.199219 L 106.390625 706.199219 C 98.757812 706.1875 92.578125 699.992188 92.578125 692.355469 L 92.578125 34.207031 C 92.648438 26.621094 98.808594 20.503906 106.390625 20.488281 L 574.230469 20.488281 C 581.871094 20.488281 588.066406 26.6875 588.066406 34.335938 L 588.066406 692.355469 C 588.066406 700 581.871094 706.199219 574.230469 706.199219 Z M 106.390625 20.976562 C 99.097656 20.988281 93.1875 26.90625 93.183594 34.207031 L 93.183594 692.355469 C 93.183594 699.65625 99.09375 705.582031 106.390625 705.59375 L 574.230469 705.59375 C 581.53125 705.578125 587.445312 699.660156 587.460938 692.355469 L 587.460938 34.207031 C 587.445312 26.898438 581.53125 20.980469 574.230469 20.96875 Z M 106.390625 20.976562 "/>
<path style=" stroke:none;fill-rule:nonzero;fill:rgb(87.843137%,87.843137%,87.843137%);fill-opacity:1;" d="M 1098.332031 706.199219 L 630.464844 706.199219 C 622.832031 706.1875 616.644531 699.996094 616.632812 692.355469 L 616.632812 34.207031 C 616.714844 26.613281 622.878906 20.5 630.464844 20.488281 L 1098.332031 20.488281 C 1105.902344 20.515625 1112.046875 26.628906 1112.117188 34.207031 L 1112.117188 692.355469 C 1112.117188 699.980469 1105.953125 706.171875 1098.332031 706.199219 Z M 630.464844 20.976562 C 623.167969 20.988281 617.25 26.902344 617.234375 34.207031 L 617.234375 692.355469 C 617.246094 699.660156 623.164062 705.578125 630.460938 705.59375 L 1098.332031 705.59375 C 1105.628906 705.578125 1111.546875 699.660156 1111.558594 692.355469 L 1111.558594 34.207031 C 1111.546875 26.898438 1105.628906 20.980469 1098.332031 20.96875 Z M 630.464844 20.976562 "/>
<path style=" stroke:none;fill-rule:nonzero;fill:rgb(87.843137%,87.843137%,87.843137%);fill-opacity:1;" d="M 686.484375 79.335938 L 1051.617188 79.335938 L 1051.617188 393.484375 L 686.484375 393.484375 Z M 686.484375 79.335938 "/>
<path style=" stroke:none;fill-rule:nonzero;fill:rgb(94.117647%,94.117647%,94.117647%);fill-opacity:1;" d="M 694.601562 79.335938 L 1059.734375 79.335938 L 1059.734375 393.484375 L 694.601562 393.484375 Z M 694.601562 79.335938 "/>
<path style=" stroke:none;fill-rule:nonzero;fill:rgb(98.039216%,98.039216%,98.039216%);fill-opacity:1;" d="M 1045.171875 94.078125 L 1045.171875 378.742188 L 709.164062 378.742188 L 709.164062 94.078125 Z M 1045.171875 94.078125 "/>
<path style=" stroke:none;fill-rule:nonzero;fill:rgb(87.843137%,87.843137%,87.843137%);fill-opacity:1;" d="M 937.789062 94.078125 L 937.789062 378.742188 L 915.835938 378.742188 L 915.835938 94.078125 Z M 937.789062 94.078125 "/>
<path style=" stroke:none;fill-rule:nonzero;fill:rgb(87.843137%,87.843137%,87.843137%);fill-opacity:1;" d="M 822.3125 94.078125 L 822.3125 378.742188 L 800.359375 378.742188 L 800.359375 94.078125 Z M 822.3125 94.078125 "/>
<path style=" stroke:none;fill-rule:nonzero;fill:rgb(94.117647%,94.117647%,94.117647%);fill-opacity:1;" d="M 945.519531 83.09375 L 945.519531 388.078125 L 923.566406 388.078125 L 923.566406 83.09375 Z M 945.519531 83.09375 "/>
<path style=" stroke:none;fill-rule:nonzero;fill:rgb(94.117647%,94.117647%,94.117647%);fill-opacity:1;" d="M 830.015625 83.121094 L 830.015625 388.101562 L 808.066406 388.101562 L 808.066406 83.121094 Z M 830.015625 83.121094 "/>
<path style=" stroke:none;fill-rule:nonzero;fill:rgb(87.843137%,87.843137%,87.843137%);fill-opacity:1;" d="M 1045.171875 94.054688 L 1045.171875 378.714844 L 1039.042969 378.714844 L 1039.042969 94.054688 Z M 1045.171875 94.054688 "/>
<path style=" stroke:none;fill-rule:nonzero;fill:rgb(87.843137%,87.843137%,87.843137%);fill-opacity:1;" d="M 429.679688 327.433594 C 429.679688 327.433594 385.246094 250.839844 446.90625 189.757812 C 446.90625 189.757812 462.992188 200.257812 462.75 214.371094 C 462.507812 228.480469 445.5 232.046875 449.160156 243.832031 C 452.816406 255.613281 468.832031 267.132812 458.316406 276.878906 C 447.804688 286.625 460.015625 295.257812 459.3125 307.1875 C 458.609375 319.121094 429.679688 327.433594 429.679688 327.433594 Z M 429.679688 327.433594 "/>
<path style=" stroke:none;fill-rule:nonzero;fill:rgb(90.196078%,90.196078%,90.196078%);fill-opacity:1;" d="M 436.65625 339.96875 C 436.65625 339.96875 454.683594 253.214844 376.957031 214.757812 C 376.957031 214.757812 364.988281 229.792969 369.6875 243.097656 C 374.390625 256.402344 391.617188 254.417969 391.859375 266.761719 C 392.101562 279.105469 380.542969 295.101562 393.578125 301.023438 C 406.613281 306.949219 397.769531 319.015625 402.203125 330.113281 C 406.636719 341.214844 436.65625 339.96875 436.65625 339.96875 Z M 436.65625 339.96875 "/>
<path style=" stroke:none;fill-rule:nonzero;fill:rgb(94.117647%,94.117647%,94.117647%);fill-opacity:1;" d="M 397.09375 317.929688 C 397.09375 317.929688 397.867188 392.828125 427.789062 392.828125 C 457.710938 392.828125 458.464844 317.929688 458.464844 317.929688 Z M 397.09375 317.929688 "/>
<path style=" stroke:none;fill-rule:nonzero;fill:rgb(90.196078%,90.196078%,90.196078%);fill-opacity:1;" d="M 217.3125 364.65625 C 217.3125 364.65625 218.984375 392.828125 282.875 392.828125 C 346.769531 392.828125 348.464844 364.65625 348.464844 364.65625 Z M 217.3125 364.65625 "/>
<path style=" stroke:none;fill-rule:nonzero;fill:rgb(94.117647%,94.117647%,94.117647%);fill-opacity:1;" d="M 854.300781 534.53125 L 893.785156 534.53125 C 896.394531 534.53125 898.515625 536.648438 898.515625 539.261719 L 898.515625 600.839844 C 898.515625 603.457031 896.394531 605.574219 893.785156 605.574219 L 854.300781 605.574219 C 851.6875 605.574219 849.570312 603.457031 849.570312 600.839844 L 849.570312 539.261719 C 849.570312 536.648438 851.6875 534.53125 854.300781 534.53125 Z M 854.300781 534.53125 "/>
<path style=" stroke:none;fill-rule:nonzero;fill:rgb(90.196078%,90.196078%,90.196078%);fill-opacity:1;" d="M 955.722656 557.757812 L 982.292969 557.757812 C 984.050781 557.757812 985.472656 559.183594 985.472656 560.9375 L 985.472656 602.394531 C 985.472656 604.148438 984.050781 605.574219 982.292969 605.574219 L 955.722656 605.574219 C 953.96875 605.574219 952.542969 604.148438 952.542969 602.394531 L 952.542969 560.9375 C 952.542969 559.183594 953.96875 557.757812 955.722656 557.757812 Z M 955.722656 557.757812 "/>
<path style=" stroke:none;fill-rule:nonzero;fill:rgb(94.117647%,94.117647%,94.117647%);fill-opacity:1;" d="M 953.613281 553.128906 L 984.402344 553.128906 C 984.992188 553.128906 985.472656 553.605469 985.472656 554.199219 L 985.472656 557.441406 C 985.472656 558.03125 984.992188 558.511719 984.402344 558.511719 L 953.613281 558.511719 C 953.023438 558.511719 952.542969 558.03125 952.542969 557.441406 L 952.542969 554.199219 C 952.542969 553.605469 953.023438 553.128906 953.613281 553.128906 Z M 953.613281 553.128906 "/>
<path style=" stroke:none;fill-rule:nonzero;fill:rgb(90.196078%,90.196078%,90.196078%);fill-opacity:1;" d="M 771.503906 566.050781 C 771.503906 566.050781 772.710938 605.574219 818.96875 605.574219 C 865.230469 605.574219 866.457031 566.050781 866.457031 566.050781 Z M 771.503906 566.050781 "/>
<path style=" stroke:none;fill-rule:nonzero;fill:rgb(87.843137%,87.843137%,87.843137%);fill-opacity:1;" d="M 726.464844 513.847656 L 656.464844 513.847656 L 656.464844 500.027344 L 726.464844 500.027344 Z M 726.464844 513.847656 "/>
<path style=" stroke:none;fill-rule:nonzero;fill:rgb(94.117647%,94.117647%,94.117647%);fill-opacity:1;" d="M 726.464844 500.050781 L 1074.464844 500.050781 L 1074.464844 513.871094 L 726.464844 513.871094 Z M 726.464844 500.050781 "/>
<path style=" stroke:none;fill-rule:nonzero;fill:rgb(87.843137%,87.843137%,87.843137%);fill-opacity:1;" d="M 726.464844 619.394531 L 656.464844 619.394531 L 656.464844 605.574219 L 726.464844 605.574219 Z M 726.464844 619.394531 "/>
<path style=" stroke:none;fill-rule:nonzero;fill:rgb(94.117647%,94.117647%,94.117647%);fill-opacity:1;" d="M 726.464844 605.574219 L 1074.464844 605.574219 L 1074.464844 619.394531 L 726.464844 619.394531 Z M 726.464844 605.574219 "/>
<path style=" stroke:none;fill-rule:nonzero;fill:rgb(87.843137%,87.843137%,87.843137%);fill-opacity:1;" d="M 668.773438 513.847656 L 681.6875 513.847656 L 681.6875 814.316406 L 668.773438 814.316406 Z M 668.773438 513.847656 "/>
<path style=" stroke:none;fill-rule:nonzero;fill:rgb(94.117647%,94.117647%,94.117647%);fill-opacity:1;" d="M 726.464844 513.847656 L 739.378906 513.847656 L 739.378906 814.316406 L 726.464844 814.316406 Z M 726.464844 513.847656 "/>
<path style=" stroke:none;fill-rule:nonzero;fill:rgb(87.843137%,87.843137%,87.843137%);fill-opacity:1;" d="M 1016.777344 513.847656 L 1029.691406 513.847656 L 1029.691406 814.316406 L 1016.777344 814.316406 Z M 1016.777344 513.847656 "/>
<path style=" stroke:none;fill-rule:nonzero;fill:rgb(94.117647%,94.117647%,94.117647%);fill-opacity:1;" d="M 1061.550781 513.847656 L 1074.464844 513.847656 L 1074.464844 814.316406 L 1061.550781 814.316406 Z M 1061.550781 513.847656 "/>
<path style=" stroke:none;fill-rule:nonzero;fill:rgb(90.196078%,90.196078%,90.196078%);fill-opacity:1;" d="M 151.117188 410.410156 L 217.3125 410.410156 L 217.3125 796.15625 L 151.117188 796.15625 Z M 151.117188 410.410156 "/>
<path style=" stroke:none;fill-rule:nonzero;fill:rgb(90.196078%,90.196078%,90.196078%);fill-opacity:1;" d="M 163.835938 796.132812 L 490.253906 796.132812 L 490.253906 814.34375 L 163.835938 814.34375 Z M 163.835938 796.132812 "/>
<path style=" stroke:none;fill-rule:nonzero;fill:rgb(94.117647%,94.117647%,94.117647%);fill-opacity:1;" d="M 502.949219 796.132812 L 217.3125 796.132812 L 217.3125 410.382812 L 502.949219 410.382812 Z M 502.949219 796.132812 "/>
<path style=" stroke:none;fill-rule:nonzero;fill:rgb(90.196078%,90.196078%,90.196078%);fill-opacity:1;" d="M 476.925781 650.382812 L 243.332031 650.382812 L 243.332031 556.160156 L 476.925781 556.160156 Z M 476.925781 650.382812 "/>
<path style=" stroke:none;fill-rule:nonzero;fill:rgb(90.196078%,90.196078%,90.196078%);fill-opacity:1;" d="M 476.925781 761.773438 L 243.332031 761.773438 L 243.332031 667.550781 L 476.925781 667.550781 Z M 476.925781 761.773438 "/>
<path style=" stroke:none;fill-rule:nonzero;fill:rgb(94.117647%,94.117647%,94.117647%);fill-opacity:1;" d="M 386.355469 566.488281 L 333.902344 566.488281 C 330.347656 566.46875 327.472656 563.59375 327.457031 560.039062 C 327.457031 556.46875 330.335938 553.574219 333.902344 553.554688 L 386.355469 553.554688 C 389.921875 553.574219 392.800781 556.46875 392.800781 560.039062 C 392.785156 563.59375 389.910156 566.46875 386.355469 566.488281 Z M 386.355469 566.488281 "/>
<path style=" stroke:none;fill-rule:nonzero;fill:rgb(90.196078%,90.196078%,90.196078%);fill-opacity:1;" d="M 476.925781 538.964844 L 243.332031 538.964844 L 243.332031 444.742188 L 476.925781 444.742188 Z M 476.925781 538.964844 "/>
<path style=" stroke:none;fill-rule:nonzero;fill:rgb(94.117647%,94.117647%,94.117647%);fill-opacity:1;" d="M 386.355469 455.097656 L 333.902344 455.097656 C 330.339844 455.078125 327.460938 452.1875 327.457031 448.621094 C 327.472656 445.066406 330.347656 442.191406 333.902344 442.171875 L 386.355469 442.171875 C 389.910156 442.191406 392.785156 445.066406 392.800781 448.621094 C 392.796875 452.1875 389.917969 455.078125 386.355469 455.097656 Z M 386.355469 455.097656 "/>
<path style=" stroke:none;fill-rule:nonzero;fill:rgb(94.117647%,94.117647%,94.117647%);fill-opacity:1;" d="M 386.355469 677.878906 L 333.902344 677.878906 C 330.347656 677.863281 327.472656 674.984375 327.457031 671.429688 C 327.460938 667.867188 330.339844 664.972656 333.902344 664.957031 L 386.355469 664.957031 C 389.917969 664.972656 392.796875 667.867188 392.800781 671.429688 C 392.785156 674.984375 389.910156 677.863281 386.355469 677.878906 Z M 386.355469 677.878906 "/>
<path style=" stroke:none;fill-rule:nonzero;fill:rgb(90.196078%,90.196078%,90.196078%);fill-opacity:1;" d="M 217.3125 392.828125 L 511.769531 392.828125 L 511.769531 410.410156 L 217.3125 410.410156 Z M 217.3125 392.828125 "/>
<path style=" stroke:none;fill-rule:nonzero;fill:rgb(87.843137%,87.843137%,87.843137%);fill-opacity:1;" d="M 217.3125 410.382812 L 141.863281 410.382812 L 141.863281 392.804688 L 217.3125 392.804688 Z M 217.3125 410.382812 "/>
<path style=" stroke:none;fill-rule:nonzero;fill:rgb(90.196078%,90.196078%,90.196078%);fill-opacity:1;" d="M 183.996094 94.078125 L 291.089844 94.078125 L 291.089844 211.773438 L 183.996094 211.773438 Z M 183.996094 94.078125 "/>
<path style=" stroke:none;fill-rule:nonzero;fill:rgb(94.117647%,94.117647%,94.117647%);fill-opacity:1;" d="M 192.0625 94.078125 L 302.695312 94.078125 L 302.695312 211.773438 L 192.0625 211.773438 Z M 192.0625 94.078125 "/>
<path style=" stroke:none;fill-rule:nonzero;fill:rgb(98.039216%,98.039216%,98.039216%);fill-opacity:1;" d="M 293.414062 103.339844 L 293.414062 202.488281 L 201.320312 202.488281 L 201.320312 103.339844 Z M 293.414062 103.339844 "/>
<path style=" stroke:none;fill-rule:nonzero;fill:rgb(94.117647%,94.117647%,94.117647%);fill-opacity:1;" d="M 271.101562 127.371094 L 271.101562 178.457031 L 223.660156 178.457031 L 223.660156 127.371094 Z M 271.101562 127.371094 "/>
<path style=" stroke:none;fill-rule:nonzero;fill:rgb(90.196078%,90.196078%,90.196078%);fill-opacity:1;" d="M 322.78125 59.332031 L 403.996094 59.332031 L 403.996094 146.648438 L 322.78125 146.648438 Z M 322.78125 59.332031 "/>
<path style=" stroke:none;fill-rule:nonzero;fill:rgb(94.117647%,94.117647%,94.117647%);fill-opacity:1;" d="M 330.558594 59.332031 L 412.621094 59.332031 L 412.621094 146.648438 L 330.558594 146.648438 Z M 330.558594 59.332031 "/>
<path style=" stroke:none;fill-rule:nonzero;fill:rgb(98.039216%,98.039216%,98.039216%);fill-opacity:1;" d="M 405.742188 66.21875 L 405.742188 139.761719 L 337.4375 139.761719 L 337.4375 66.21875 Z M 405.742188 66.21875 "/>
<path style=" stroke:none;fill-rule:nonzero;fill:rgb(94.117647%,94.117647%,94.117647%);fill-opacity:1;" d="M 371.578125 84.382812 L 352.902344 116.773438 L 390.253906 116.773438 Z M 371.578125 84.382812 "/>
<path style=" stroke:none;fill-rule:nonzero;fill:rgb(96.078431%,96.078431%,96.078431%);fill-opacity:1;" d="M 1075.507812 896.394531 C 1075.507812 881.234375 865.179688 868.945312 605.730469 868.945312 C 346.277344 868.945312 135.949219 881.234375 135.949219 896.394531 C 135.949219 911.550781 346.277344 923.839844 605.730469 923.839844 C 865.179688 923.839844 1075.507812 911.550781 1075.507812 896.394531 Z M 1075.507812 896.394531 "/>
<path style=" stroke:none;fill-rule:nonzero;fill:rgb(49.019608%,14.509804%,96.078431%);fill-opacity:1;" d="M 770.863281 240.703125 L 1025.730469 240.703125 C 1033.523438 240.703125 1039.84375 247.023438 1039.84375 254.824219 L 1039.84375 336.707031 C 1039.84375 344.507812 1033.523438 350.832031 1025.730469 350.832031 L 770.863281 350.832031 C 763.066406 350.832031 756.75 344.507812 756.75 336.707031 L 756.75 254.824219 C 756.75 247.023438 763.066406 240.703125 770.863281 240.703125 Z M 770.863281 240.703125 "/>
<path style=" stroke:none;fill-rule:nonzero;fill:rgb(49.019608%,14.509804%,96.078431%);fill-opacity:1;" d="M 782.816406 259.273438 L 971.492188 259.273438 C 972.855469 259.273438 973.964844 260.382812 973.964844 261.746094 L 973.964844 269.121094 C 973.964844 270.484375 972.855469 271.59375 971.492188 271.59375 L 782.816406 271.59375 C 781.453125 271.59375 780.347656 270.484375 780.347656 269.121094 L 780.347656 261.746094 C 780.347656 260.382812 781.453125 259.273438 782.816406 259.273438 Z M 782.816406 259.273438 "/>
<path style=" stroke:none;fill-rule:nonzero;fill:rgb(49.019608%,14.509804%,96.078431%);fill-opacity:1;" d="M 782.816406 288.953125 L 912.6875 288.953125 C 914.054688 288.953125 915.160156 290.0625 915.160156 291.425781 L 915.160156 298.800781 C 915.160156 300.164062 914.054688 301.273438 912.6875 301.273438 L 782.816406 301.273438 C 781.453125 301.273438 780.347656 300.164062 780.347656 298.800781 L 780.347656 291.425781 C 780.347656 290.0625 781.453125 288.953125 782.816406 288.953125 Z M 782.816406 288.953125 "/>
<path style=" stroke:none;fill-rule:nonzero;fill:rgb(49.019608%,14.509804%,96.078431%);fill-opacity:1;" d="M 782.816406 318.632812 L 878.671875 318.632812 C 880.035156 318.632812 881.140625 319.738281 881.140625 321.105469 L 881.140625 328.476562 C 881.140625 329.84375 880.035156 330.949219 878.671875 330.949219 L 782.816406 330.949219 C 781.453125 330.949219 780.347656 329.84375 780.347656 328.476562 L 780.347656 321.105469 C 780.347656 319.738281 781.453125 318.632812 782.816406 318.632812 Z M 782.816406 318.632812 "/>
<path style=" stroke:none;fill-rule:nonzero;fill:rgb(49.019608%,14.509804%,96.078431%);fill-opacity:1;" d="M 897.882812 318.632812 L 993.734375 318.632812 C 995.101562 318.632812 996.207031 319.738281 996.207031 321.105469 L 996.207031 328.476562 C 996.207031 329.84375 995.101562 330.949219 993.734375 330.949219 L 897.882812 330.949219 C 896.519531 330.949219 895.414062 329.84375 895.414062 328.476562 L 895.414062 321.105469 C 895.414062 319.738281 896.519531 318.632812 897.882812 318.632812 Z M 897.882812 318.632812 "/>
<use xlink:href="#surface5" mask="url(#mask0)"/>
<path style=" stroke:none;fill-rule:nonzero;fill:rgb(49.019608%,14.509804%,96.078431%);fill-opacity:1;" d="M 544.359375 215.023438 L 839.34375 215.023438 C 850.773438 215.023438 860.039062 224.296875 860.039062 235.734375 L 860.039062 355.796875 C 860.039062 367.238281 850.773438 376.507812 839.34375 376.507812 L 544.359375 376.507812 C 532.929688 376.507812 523.664062 367.238281 523.664062 355.796875 L 523.664062 235.734375 C 523.664062 224.296875 532.929688 215.023438 544.359375 215.023438 Z M 544.359375 215.023438 "/>
<path style=" stroke:none;fill-rule:nonzero;fill:rgb(49.019608%,14.509804%,96.078431%);fill-opacity:1;" d="M 561.894531 242.253906 L 838.5 242.253906 C 840.507812 242.253906 842.132812 243.878906 842.132812 245.886719 L 842.132812 256.683594 C 842.132812 258.691406 840.507812 260.316406 838.5 260.316406 L 561.894531 260.316406 C 559.886719 260.316406 558.261719 258.691406 558.261719 256.683594 L 558.261719 245.886719 C 558.261719 243.878906 559.886719 242.253906 561.894531 242.253906 Z M 561.894531 242.253906 "/>
<path style=" stroke:none;fill-rule:nonzero;fill:rgb(49.019608%,14.509804%,96.078431%);fill-opacity:1;" d="M 561.894531 285.777344 L 752.269531 285.777344 C 754.273438 285.777344 755.902344 287.402344 755.902344 289.410156 L 755.902344 300.207031 C 755.902344 302.214844 754.273438 303.839844 752.269531 303.839844 L 561.894531 303.839844 C 559.886719 303.839844 558.261719 302.214844 558.261719 300.207031 L 558.261719 289.410156 C 558.261719 287.402344 559.886719 285.777344 561.894531 285.777344 Z M 561.894531 285.777344 "/>
<path style=" stroke:none;fill-rule:nonzero;fill:rgb(49.019608%,14.509804%,96.078431%);fill-opacity:1;" d="M 561.894531 329.300781 L 702.40625 329.300781 C 704.410156 329.300781 706.035156 330.925781 706.035156 332.933594 L 706.035156 343.734375 C 706.035156 345.738281 704.410156 347.363281 702.40625 347.363281 L 561.894531 347.363281 C 559.886719 347.363281 558.261719 345.738281 558.261719 343.734375 L 558.261719 332.933594 C 558.261719 330.925781 559.886719 329.300781 561.894531 329.300781 Z M 561.894531 329.300781 "/>
<path style=" stroke:none;fill-rule:nonzero;fill:rgb(49.019608%,14.509804%,96.078431%);fill-opacity:1;" d="M 730.601562 329.300781 L 848.410156 329.300781 C 850.414062 329.300781 852.039062 330.925781 852.039062 332.933594 L 852.039062 343.734375 C 852.039062 345.738281 850.414062 347.363281 848.410156 347.363281 L 730.601562 347.363281 C 728.597656 347.363281 726.96875 345.738281 726.96875 343.734375 L 726.96875 332.933594 C 726.96875 330.925781 728.597656 329.300781 730.601562 329.300781 Z M 730.601562 329.300781 "/>
<use xlink:href="#surface8" mask="url(#mask1)"/>
<path style=" stroke:none;fill-rule:nonzero;fill:rgb(49.019608%,14.509804%,96.078431%);fill-opacity:1;" d="M 523.183594 405.777344 L 664.894531 405.777344 C 670.234375 405.777344 674.5625 410.109375 674.5625 415.453125 L 674.5625 622.035156 C 674.5625 627.378906 670.234375 631.710938 664.894531 631.710938 L 523.183594 631.710938 C 517.839844 631.710938 513.511719 627.378906 513.511719 622.035156 L 513.511719 415.453125 C 513.511719 410.109375 517.839844 405.777344 523.183594 405.777344 Z M 523.183594 405.777344 "/>
<use xlink:href="#surface11" mask="url(#mask2)"/>
<path style=" stroke:none;fill-rule:nonzero;fill:rgb(98.039216%,98.039216%,98.039216%);fill-opacity:1;" d="M 533.921875 429.34375 L 654.128906 429.34375 C 655.113281 429.34375 655.90625 430.140625 655.90625 431.125 L 655.90625 437.582031 C 655.90625 438.5625 655.113281 439.359375 654.128906 439.359375 L 533.921875 439.359375 C 532.941406 439.359375 532.144531 438.5625 532.144531 437.582031 L 532.144531 431.125 C 532.144531 430.140625 532.941406 429.34375 533.921875 429.34375 Z M 533.921875 429.34375 "/>
<path style=" stroke:none;fill-rule:nonzero;fill:rgb(98.039216%,98.039216%,98.039216%);fill-opacity:1;" d="M 533.921875 453.449219 L 616.550781 453.449219 C 617.53125 453.449219 618.328125 454.242188 618.328125 455.226562 L 618.328125 461.683594 C 618.328125 462.664062 617.53125 463.460938 616.550781 463.460938 L 533.921875 463.460938 C 532.941406 463.460938 532.144531 462.664062 532.144531 461.683594 L 532.144531 455.226562 C 532.144531 454.242188 532.941406 453.449219 533.921875 453.449219 Z M 533.921875 453.449219 "/>
<path style=" stroke:none;fill-rule:nonzero;fill:rgb(98.039216%,98.039216%,98.039216%);fill-opacity:1;" d="M 533.921875 477.574219 L 654.128906 477.574219 C 655.113281 477.574219 655.90625 478.367188 655.90625 479.351562 L 655.90625 485.808594 C 655.90625 486.789062 655.113281 487.585938 654.128906 487.585938 L 533.921875 487.585938 C 532.941406 487.585938 532.144531 486.789062 532.144531 485.808594 L 532.144531 479.351562 C 532.144531 478.367188 532.941406 477.574219 533.921875 477.574219 Z M 533.921875 477.574219 "/>
<path style=" stroke:none;fill-rule:nonzero;fill:rgb(98.039216%,98.039216%,98.039216%);fill-opacity:1;" d="M 533.921875 501.675781 L 579.964844 501.675781 C 580.945312 501.675781 581.742188 502.472656 581.742188 503.453125 L 581.742188 509.910156 C 581.742188 510.894531 580.945312 511.691406 579.964844 511.691406 L 533.921875 511.691406 C 532.941406 511.691406 532.144531 510.894531 532.144531 509.910156 L 532.144531 503.453125 C 532.144531 502.472656 532.941406 501.675781 533.921875 501.675781 Z M 533.921875 501.675781 "/>
<path style=" stroke:none;fill-rule:nonzero;fill:rgb(98.039216%,98.039216%,98.039216%);fill-opacity:1;" d="M 595.316406 501.675781 L 641.359375 501.675781 C 642.339844 501.675781 643.136719 502.472656 643.136719 503.453125 L 643.136719 509.910156 C 643.136719 510.894531 642.339844 511.691406 641.359375 511.691406 L 595.316406 511.691406 C 594.335938 511.691406 593.539062 510.894531 593.539062 509.910156 L 593.539062 503.453125 C 593.539062 502.472656 594.335938 501.675781 595.316406 501.675781 Z M 595.316406 501.675781 "/>
<path style=" stroke:none;fill-rule:nonzero;fill:rgb(98.039216%,98.039216%,98.039216%);fill-opacity:1;" d="M 533.921875 525.800781 L 654.128906 525.800781 C 655.113281 525.800781 655.90625 526.597656 655.90625 527.578125 L 655.90625 534.035156 C 655.90625 535.019531 655.113281 535.816406 654.128906 535.816406 L 533.921875 535.816406 C 532.941406 535.816406 532.144531 535.019531 532.144531 534.035156 L 532.144531 527.578125 C 532.144531 526.597656 532.941406 525.800781 533.921875 525.800781 Z M 533.921875 525.800781 "/>
<path style=" stroke:none;fill-rule:nonzero;fill:rgb(98.039216%,98.039216%,98.039216%);fill-opacity:1;" d="M 533.921875 549.902344 L 654.128906 549.902344 C 655.113281 549.902344 655.90625 550.699219 655.90625 551.679688 L 655.90625 558.136719 C 655.90625 559.121094 655.113281 559.917969 654.128906 559.917969 L 533.921875 559.917969 C 532.941406 559.917969 532.144531 559.121094 532.144531 558.136719 L 532.144531 551.679688 C 532.144531 550.699219 532.941406 549.902344 533.921875 549.902344 Z M 533.921875 549.902344 "/>
<path style=" stroke:none;fill-rule:nonzero;fill:rgb(98.039216%,98.039216%,98.039216%);fill-opacity:1;" d="M 533.921875 574.027344 L 633.195312 574.027344 C 634.175781 574.027344 634.972656 574.824219 634.972656 575.808594 L 634.972656 582.265625 C 634.972656 583.246094 634.175781 584.042969 633.195312 584.042969 L 533.921875 584.042969 C 532.941406 584.042969 532.144531 583.246094 532.144531 582.265625 L 532.144531 575.808594 C 532.144531 574.824219 532.941406 574.027344 533.921875 574.027344 Z M 533.921875 574.027344 "/>
<path style=" stroke:none;fill-rule:nonzero;fill:rgb(98.039216%,98.039216%,98.039216%);fill-opacity:1;" d="M 533.921875 598.128906 L 581.394531 598.128906 C 582.375 598.128906 583.171875 598.925781 583.171875 599.90625 L 583.171875 606.367188 C 583.171875 607.347656 582.375 608.144531 581.394531 608.144531 L 533.921875 608.144531 C 532.941406 608.144531 532.144531 607.347656 532.144531 606.367188 L 532.144531 599.90625 C 532.144531 598.925781 532.941406 598.128906 533.921875 598.128906 Z M 533.921875 598.128906 "/>
<path style=" stroke:none;fill-rule:nonzero;fill:rgb(49.019608%,14.509804%,96.078431%);fill-opacity:1;" d="M 694.164062 404.394531 L 513.921875 404.394531 L 593.613281 467.851562 L 715.800781 513.921875 L 715.800781 426 C 715.773438 414.058594 706.09375 404.394531 694.164062 404.394531 Z M 694.164062 404.394531 "/>
<use xlink:href="#surface14" mask="url(#mask3)"/>
<path style=" stroke:none;fill-rule:nonzero;fill:rgb(98.039216%,98.039216%,98.039216%);fill-opacity:1;" d="M 553.054688 437.078125 L 687.644531 437.078125 C 688.878906 437.078125 689.875 438.078125 689.875 439.308594 L 689.875 448.71875 C 689.875 449.949219 688.878906 450.949219 687.644531 450.949219 L 553.054688 450.949219 C 551.824219 450.949219 550.824219 449.949219 550.824219 448.71875 L 550.824219 439.308594 C 550.824219 438.078125 551.824219 437.078125 553.054688 437.078125 Z M 553.054688 437.078125 "/>
<path style=" stroke:none;fill-rule:nonzero;fill:rgb(49.019608%,14.509804%,96.078431%);fill-opacity:1;" d="M 1005.871094 442.640625 L 1005.871094 582.820312 C 1005.871094 588.863281 1000.976562 593.765625 994.9375 593.765625 L 761.503906 593.765625 C 755.464844 593.765625 750.570312 588.863281 750.570312 582.820312 L 750.570312 442.640625 C 750.570312 436.597656 755.464844 431.695312 761.503906 431.695312 L 994.9375 431.695312 C 1000.976562 431.695312 1005.871094 436.597656 1005.871094 442.640625 Z M 1005.871094 442.640625 "/>
<path style=" stroke:none;fill-rule:nonzero;fill:rgb(49.019608%,14.509804%,96.078431%);fill-opacity:1;" d="M 1046.070312 402.4375 L 1046.070312 542.621094 C 1046.070312 548.664062 1041.171875 553.5625 1035.132812 553.5625 L 801.703125 553.5625 C 795.664062 553.5625 790.765625 548.664062 790.765625 542.621094 L 790.765625 402.4375 C 790.765625 396.394531 795.664062 391.496094 801.703125 391.496094 L 1035.132812 391.496094 C 1041.171875 391.496094 1046.070312 396.394531 1046.070312 402.4375 Z M 1046.070312 402.4375 "/>
<use xlink:href="#surface17" mask="url(#mask4)"/>
<path style=" stroke:none;fill-rule:nonzero;fill:rgb(49.019608%,14.509804%,96.078431%);fill-opacity:1;" d="M 1023.730469 411.421875 L 1023.730469 495.449219 C 1023.730469 498.136719 1021.550781 500.316406 1018.863281 500.316406 L 941.003906 500.316406 C 938.320312 500.316406 936.140625 498.136719 936.140625 495.449219 L 936.140625 411.421875 C 936.140625 408.730469 938.320312 406.550781 941.003906 406.550781 L 1018.863281 406.550781 C 1021.550781 406.550781 1023.730469 408.730469 1023.730469 411.421875 Z M 1023.730469 411.421875 "/>
<use xlink:href="#surface20" mask="url(#mask5)"/>
<path style=" stroke:none;fill-rule:nonzero;fill:rgb(49.019608%,14.509804%,96.078431%);fill-opacity:1;" d="M 922.429688 468.144531 L 922.429688 532.535156 C 922.429688 534.601562 920.753906 536.273438 918.691406 536.273438 L 859.023438 536.273438 C 856.960938 536.273438 855.289062 534.601562 855.289062 532.535156 L 855.289062 468.144531 C 855.289062 466.078125 856.960938 464.40625 859.023438 464.40625 L 918.691406 464.40625 C 920.753906 464.40625 922.429688 466.078125 922.429688 468.144531 Z M 922.429688 468.144531 "/>
<use xlink:href="#surface23" mask="url(#mask6)"/>
<path style=" stroke:none;fill-rule:nonzero;fill:rgb(49.019608%,14.509804%,96.078431%);fill-opacity:1;" d="M 888.84375 111.75 L 888.84375 157.613281 C 888.84375 163.753906 883.867188 168.734375 877.730469 168.734375 L 272.695312 168.734375 C 266.554688 168.734375 261.578125 163.753906 261.578125 157.613281 L 261.578125 111.75 C 261.578125 105.605469 266.554688 100.625 272.695312 100.625 L 877.730469 100.625 C 883.867188 100.625 888.84375 105.605469 888.84375 111.75 Z M 888.84375 111.75 "/>
<use xlink:href="#surface26" mask="url(#mask7)"/>
<path style=" stroke:none;fill-rule:nonzero;fill:rgb(49.019608%,14.509804%,96.078431%);fill-opacity:1;" d="M 776.933594 156.683594 L 776.933594 180.132812 L 606.722656 180.132812 L 606.722656 156.683594 Z M 776.933594 156.683594 "/>
<use xlink:href="#surface29" mask="url(#mask8)"/>
<path style=" stroke:none;fill-rule:nonzero;fill:rgb(49.019608%,14.509804%,96.078431%);fill-opacity:1;" d="M 949.878906 11.125 L 949.878906 56.988281 C 949.878906 63.128906 944.902344 68.109375 938.761719 68.109375 L 333.726562 68.109375 C 327.585938 68.109375 322.609375 63.128906 322.609375 56.988281 L 322.609375 11.125 C 322.609375 4.980469 327.585938 0 333.726562 0 L 938.761719 0 C 944.902344 0 949.878906 4.980469 949.878906 11.125 Z M 949.878906 11.125 "/>
<path style=" stroke:none;fill-rule:nonzero;fill:rgb(89.411765%,53.72549%,48.235294%);fill-opacity:1;" d="M 315.851562 358.15625 C 313.71875 363.003906 311.367188 368.242188 309.308594 373.359375 C 307.25 378.476562 305.117188 383.738281 303.25 388.972656 C 299.421875 399.183594 296.351562 409.664062 294.0625 420.328125 L 293.359375 424.207031 L 293.117188 425.660156 C 293.136719 426.144531 293.085938 426.625 292.96875 427.089844 C 292.875 429.453125 292.925781 431.820312 293.117188 434.175781 C 293.621094 439.578125 294.429688 444.945312 295.542969 450.25 C 297.574219 461.234375 300.167969 472.558594 302.808594 483.714844 L 290.382812 488.5625 C 284.585938 477.992188 279.648438 466.972656 275.621094 455.613281 C 273.5 449.699219 271.78125 443.648438 270.484375 437.5 C 269.757812 434.097656 269.304688 430.644531 269.128906 427.167969 C 269.128906 426.199219 269.128906 425.277344 269.128906 424.238281 C 269.089844 423.273438 269.144531 422.304688 269.296875 421.351562 L 269.785156 416.503906 C 270.503906 410.257812 271.613281 404.0625 273.097656 397.953125 C 274.453125 391.890625 276.199219 386 277.941406 380.179688 C 279.6875 374.359375 281.867188 368.636719 284.167969 363.011719 C 285.308594 360.199219 286.59375 357.410156 287.707031 354.625 C 288.890625 351.746094 290.214844 348.925781 291.679688 346.183594 Z M 315.851562 358.15625 "/>
<path style=" stroke:none;fill-rule:nonzero;fill:rgb(89.411765%,53.72549%,48.235294%);fill-opacity:1;" d="M 302.160156 480.433594 L 311.609375 489.671875 L 290.992188 499.371094 C 290.992188 499.371094 286 490.617188 289.464844 482.714844 Z M 302.160156 480.433594 "/>
<path style=" stroke:none;fill-rule:nonzero;fill:rgb(89.411765%,53.72549%,48.235294%);fill-opacity:1;" d="M 319.242188 503.421875 L 301.820312 510.546875 L 291.015625 499.273438 L 311.609375 489.671875 Z M 319.242188 503.421875 "/>
<use xlink:href="#surface32" mask="url(#mask9)"/>
<use xlink:href="#surface35" mask="url(#mask10)"/>
<use xlink:href="#surface38" mask="url(#mask11)"/>
<path style=" stroke:none;fill-rule:nonzero;fill:rgb(49.019608%,14.509804%,96.078431%);fill-opacity:1;" d="M 495.21875 253.261719 L 492.917969 252.488281 C 496.902344 240.714844 501.914062 229.316406 507.890625 218.421875 L 510 219.585938 C 504.101562 230.359375 499.15625 241.628906 495.21875 253.265625 Z M 524.636719 196.671875 L 522.679688 195.238281 C 542.59375 168.296875 568.652344 146.507812 598.6875 131.6875 L 599.777344 133.871094 C 570.082031 148.535156 544.320312 170.089844 524.636719 196.738281 Z M 790.160156 137.199219 C 782.242188 132.945312 774.046875 129.226562 765.632812 126.0625 L 766.503906 123.78125 C 775 127.019531 783.269531 130.808594 791.269531 135.128906 Z M 790.160156 137.199219 "/>
<use xlink:href="#surface41" mask="url(#mask12)"/>
<path style=" stroke:none;fill-rule:nonzero;fill:rgb(49.019608%,14.509804%,96.078431%);fill-opacity:1;" d="M 871.933594 230.808594 C 825.335938 134.082031 711.0625 91 612.273438 132.921875 C 513.488281 174.84375 464.988281 286.996094 502.074219 387.761719 C 485.890625 393.4375 469.898438 399.519531 454.003906 405.800781 C 431.082031 414.902344 408.375 424.40625 385.871094 434.316406 C 363.386719 444.28125 341 454.441406 318.832031 465.066406 C 307.710938 470.277344 296.734375 475.78125 285.660156 481.117188 C 279.898438 483.59375 274.679688 487.179688 270.296875 491.667969 C 267.925781 494.152344 265.835938 496.894531 264.070312 499.839844 C 261.914062 503.324219 260.28125 507.105469 259.226562 511.066406 C 255.457031 525.808594 263 541.101562 276.984375 547.074219 C 280.742188 548.652344 284.710938 549.679688 288.761719 550.128906 C 292.183594 550.519531 295.636719 550.519531 299.058594 550.128906 C 305.277344 549.375 311.285156 547.40625 316.746094 544.332031 C 327.722656 538.78125 338.769531 533.421875 349.671875 527.722656 C 371.480469 516.597656 393.285156 504.980469 414.824219 493.195312 C 436.363281 481.410156 457.929688 469.070312 478.960938 456.417969 C 493.496094 447.617188 508.179688 438.621094 522.570312 429.210938 C 579.957031 519.941406 698.414062 549.605469 791.738281 496.613281 C 885.058594 443.625 920.375 326.648438 871.980469 230.808594 Z M 761.789062 462.449219 C 683.160156 501.289062 587.957031 468.992188 549.140625 390.308594 C 510.324219 311.625 542.59375 216.351562 621.214844 177.5 C 699.835938 138.648438 795.042969 170.933594 833.871094 249.613281 C 872.703125 328.304688 840.429688 423.601562 761.789062 462.449219 Z M 761.789062 462.449219 "/>
<use xlink:href="#surface44" mask="url(#mask13)"/>
<path style=" stroke:none;fill-rule:nonzero;fill:rgb(14.901961%,19.607843%,21.960784%);fill-opacity:1;" d="M 382.820312 271.566406 C 382.820312 272.996094 383.570312 274.160156 384.515625 274.160156 C 385.457031 274.160156 386.210938 272.996094 386.210938 271.566406 C 386.210938 270.136719 385.457031 268.972656 384.515625 268.972656 C 383.570312 268.972656 382.820312 270.234375 382.820312 271.566406 Z M 382.820312 271.566406 "/>
<path style=" stroke:none;fill-rule:nonzero;fill:rgb(87.058824%,34.117647%,32.54902%);fill-opacity:1;" d="M 383.5 274.164062 C 385.214844 278.554688 387.519531 282.691406 390.355469 286.457031 C 388.371094 287.878906 385.863281 288.347656 383.5 287.742188 Z M 383.5 274.164062 "/>
<path style=" stroke:none;fill-rule:nonzero;fill:rgb(14.901961%,19.607843%,21.960784%);fill-opacity:1;" d="M 377.804688 263.589844 C 377.53125 263.589844 377.273438 263.464844 377.101562 263.253906 C 376.839844 262.867188 376.925781 262.34375 377.296875 262.066406 C 379.464844 260.421875 382.296875 259.941406 384.882812 260.777344 C 385.195312 260.863281 385.433594 261.117188 385.496094 261.4375 C 385.558594 261.753906 385.433594 262.082031 385.171875 262.277344 C 384.914062 262.472656 384.566406 262.503906 384.277344 262.355469 C 382.226562 261.726562 379.992188 262.132812 378.292969 263.445312 C 378.148438 263.542969 377.980469 263.59375 377.804688 263.589844 Z M 377.804688 263.589844 "/>
<path style=" stroke:none;fill-rule:nonzero;fill:rgb(89.411765%,53.72549%,48.235294%);fill-opacity:1;" d="M 333.875 282.359375 C 336.300781 295.378906 338.964844 319.265625 329.855469 327.96875 C 329.855469 327.96875 333.417969 341.183594 357.621094 341.183594 C 384.273438 341.183594 370.316406 327.96875 370.316406 327.96875 C 355.78125 324.476562 356.191406 313.710938 358.710938 303.574219 Z M 333.875 282.359375 "/>
<path style=" stroke:none;fill-rule:nonzero;fill:rgb(49.019608%,14.509804%,96.078431%);fill-opacity:1;" d="M 318.976562 334.832031 C 321.859375 330.34375 317.019531 319.457031 317.019531 319.457031 C 317.019531 319.457031 359.855469 308.664062 377.371094 325.226562 C 381.007812 328.644531 376.984375 333.6875 376.984375 333.6875 Z M 318.976562 334.832031 "/>
<use xlink:href="#surface47" mask="url(#mask14)"/>
<path style=" stroke:none;fill-rule:nonzero;fill:rgb(49.019608%,14.509804%,96.078431%);fill-opacity:1;" d="M 248.105469 829.546875 C 245.847656 829.546875 242.242188 825.789062 241.175781 824.382812 C 241.082031 824.242188 241.082031 824.058594 241.175781 823.921875 C 241.257812 823.78125 241.40625 823.699219 241.5625 823.703125 C 241.832031 823.703125 247.765625 824.234375 249.398438 826.34375 C 249.753906 826.792969 249.894531 827.378906 249.785156 827.945312 C 249.742188 828.683594 249.234375 829.316406 248.523438 829.519531 Z M 242.484375 824.695312 C 244.253906 826.734375 247.085938 829.035156 248.300781 828.746094 C 248.300781 828.746094 248.785156 828.625 248.929688 827.839844 C 248.996094 827.511719 248.90625 827.171875 248.6875 826.917969 C 246.890625 825.558594 244.734375 824.765625 242.484375 824.640625 Z M 242.484375 824.695312 "/>
<path style=" stroke:none;fill-rule:nonzero;fill:rgb(49.019608%,14.509804%,96.078431%);fill-opacity:1;" d="M 242.75 824.648438 C 242.316406 824.691406 241.878906 824.691406 241.441406 824.648438 C 241.285156 824.632812 241.152344 824.53125 241.101562 824.378906 C 241.035156 824.242188 241.035156 824.082031 241.101562 823.945312 C 241.273438 823.792969 244.835938 820.089844 247.523438 820.089844 C 248.175781 820.074219 248.800781 820.339844 249.246094 820.816406 C 249.742188 821.230469 249.882812 821.9375 249.582031 822.511719 C 248.882812 823.871094 245.171875 824.648438 242.75 824.648438 Z M 242.4375 823.796875 C 244.859375 823.796875 248.371094 823.042969 248.953125 821.980469 C 248.953125 821.980469 249.125 821.664062 248.734375 821.277344 C 248.449219 820.964844 248.042969 820.796875 247.621094 820.816406 C 245.632812 821.269531 243.828125 822.308594 242.4375 823.796875 Z M 242.4375 823.796875 "/>
<path style=" stroke:none;fill-rule:nonzero;fill:rgb(49.019608%,14.509804%,96.078431%);fill-opacity:1;" d="M 407.992188 884.585938 C 406.15625 884.574219 404.324219 884.402344 402.519531 884.078125 C 402.332031 884.042969 402.199219 883.878906 402.203125 883.6875 C 402.175781 883.519531 402.253906 883.347656 402.398438 883.253906 C 402.664062 883.101562 408.867188 879.542969 411.847656 880.367188 C 412.40625 880.492188 412.890625 880.84375 413.179688 881.335938 C 413.570312 881.890625 413.570312 882.625 413.179688 883.179688 C 412.476562 884.269531 410.269531 884.585938 407.992188 884.585938 Z M 403.898438 883.445312 C 407.195312 883.933594 411.699219 883.90625 412.523438 882.742188 C 412.644531 882.59375 412.742188 882.332031 412.523438 881.824219 C 412.339844 881.523438 412.042969 881.304688 411.699219 881.21875 C 409.808594 880.726562 406.054688 882.332031 403.898438 883.441406 Z M 403.898438 883.445312 "/>
<path style=" stroke:none;fill-rule:nonzero;fill:rgb(49.019608%,14.509804%,96.078431%);fill-opacity:1;" d="M 402.617188 884.101562 C 402.535156 884.125 402.453125 884.125 402.371094 884.101562 C 402.234375 884.015625 402.167969 883.851562 402.203125 883.691406 C 402.367188 881.167969 403.335938 878.761719 404.964844 876.828125 C 405.632812 876.253906 406.515625 875.996094 407.386719 876.125 C 408.144531 876.019531 408.84375 876.539062 408.964844 877.289062 C 409.277344 879.304688 405.039062 883.160156 402.882812 884.128906 Z M 406.953125 876.828125 C 406.417969 876.824219 405.902344 877.011719 405.5 877.363281 C 404.128906 878.890625 403.28125 880.820312 403.074219 882.863281 C 405.253906 881.53125 408.164062 878.523438 407.921875 877.3125 C 407.921875 877.3125 407.921875 876.898438 407.097656 876.828125 Z M 406.953125 876.828125 "/>
<path style=" stroke:none;fill-rule:nonzero;fill:rgb(89.411765%,53.72549%,48.235294%);fill-opacity:1;" d="M 383.039062 883.664062 L 400.84375 883.664062 L 402.613281 842.421875 L 384.804688 842.421875 Z M 383.039062 883.664062 "/>
<path style=" stroke:none;fill-rule:nonzero;fill:rgb(89.411765%,53.72549%,48.235294%);fill-opacity:1;" d="M 224.457031 812.863281 L 239.335938 822.613281 L 272.191406 794.847656 L 257.289062 785.074219 Z M 224.457031 812.863281 "/>
<path style=" stroke:none;fill-rule:nonzero;fill:rgb(14.901961%,19.607843%,21.960784%);fill-opacity:1;" d="M 241.78125 821.6875 L 226.324219 809.007812 C 225.761719 808.542969 224.949219 808.542969 224.382812 809.007812 L 211.644531 819.023438 C 211.019531 819.519531 210.65625 820.273438 210.65625 821.070312 C 210.65625 821.871094 211.019531 822.625 211.644531 823.121094 C 217.117188 827.460938 220.003906 829.300781 226.8125 834.878906 C 231.003906 838.296875 241.347656 848.773438 247.1875 853.5 C 253.023438 858.230469 258.382812 853.136719 256.441406 850.6875 C 247.746094 839.65625 244.328125 830.222656 243.339844 824.378906 C 243.167969 823.324219 242.613281 822.367188 241.789062 821.6875 Z M 241.78125 821.6875 "/>
<path style=" stroke:none;fill-rule:nonzero;fill:rgb(14.901961%,19.607843%,21.960784%);fill-opacity:1;" d="M 400.726562 881.605469 L 381.34375 881.605469 C 380.617188 881.605469 379.988281 882.105469 379.816406 882.808594 L 376.304688 898.636719 C 376.125 899.414062 376.3125 900.230469 376.816406 900.851562 C 377.316406 901.472656 378.074219 901.828125 378.871094 901.8125 C 385.875 901.691406 396.003906 901.28125 404.820312 901.28125 C 415.121094 901.28125 424.035156 901.835938 436.101562 901.835938 C 443.371094 901.835938 445.453125 894.441406 442.375 893.785156 C 428.46875 890.738281 417.082031 890.4375 405.0625 882.988281 C 403.773438 882.132812 402.269531 881.652344 400.726562 881.605469 Z M 400.726562 881.605469 "/>
<path style=" stroke:none;fill-rule:nonzero;fill:rgb(14.901961%,19.607843%,21.960784%);fill-opacity:1;" d="M 294.773438 333.277344 C 279.339844 340.550781 270.542969 389.289062 270.542969 389.289062 L 308.265625 404.347656 C 313.789062 390.851562 318.253906 376.949219 321.617188 362.761719 C 326.804688 340.308594 310.570312 325.761719 294.773438 333.277344 Z M 294.773438 333.277344 "/>
<path style=" stroke:none;fill-rule:nonzero;fill:rgb(12.54902%,18.823529%,28.235294%);fill-opacity:1;" d="M 314.78125 360.75 C 305.453125 370.207031 301.1875 388.730469 299.320312 400.78125 L 308.359375 404.398438 C 313.722656 391.289062 318.097656 377.792969 321.441406 364.027344 C 320.65625 358.882812 318.660156 356.820312 314.78125 360.75 Z M 314.78125 360.75 "/>
<path style=" stroke:none;fill-rule:nonzero;fill:rgb(14.901961%,19.607843%,21.960784%);fill-opacity:1;" d="M 397.695312 332.9375 C 397.695312 332.9375 416.644531 354.371094 398.761719 486.910156 L 303.570312 486.910156 C 302.914062 472.359375 312.097656 400.953125 297.996094 332.042969 C 308.515625 330 319.160156 328.65625 329.855469 328.015625 C 343.332031 327.214844 356.84375 327.214844 370.320312 328.015625 C 379.558594 328.949219 388.714844 330.59375 397.699219 332.9375 Z M 397.695312 332.9375 "/>
<path style=" stroke:none;fill-rule:nonzero;fill:rgb(12.54902%,18.823529%,28.235294%);fill-opacity:1;" d="M 406.394531 384.390625 L 390.355469 356.726562 C 387.257812 369.632812 385.996094 382.914062 386.601562 396.175781 C 387.035156 405.679688 395.734375 440.886719 403.558594 446.027344 C 405.636719 425.550781 406.582031 404.972656 406.394531 384.390625 Z M 406.394531 384.390625 "/>
<path style=" stroke:none;fill-rule:nonzero;fill:rgb(89.411765%,53.72549%,48.235294%);fill-opacity:1;" d="M 408.628906 351.875 C 411.054688 363.660156 413.476562 375.734375 416.066406 387.566406 C 418.660156 399.398438 421.351562 411.28125 424.476562 422.75 C 425.273438 425.585938 426.027344 428.496094 426.898438 431.210938 L 427.550781 433.296875 L 427.867188 434.339844 L 427.867188 434.21875 C 427.695312 434 427.503906 433.976562 427.648438 434.21875 C 428.644531 435.308594 429.917969 436.105469 431.332031 436.523438 C 433.621094 437.375 435.980469 438.03125 438.382812 438.484375 C 449.835938 440.300781 461.433594 441.058594 473.023438 440.742188 L 475.328125 453.933594 C 472.078125 454.976562 469.050781 455.726562 465.851562 456.480469 C 462.652344 457.230469 459.503906 457.863281 456.28125 458.347656 C 449.613281 459.457031 442.855469 459.914062 436.097656 459.703125 C 432.34375 459.601562 428.609375 459.117188 424.953125 458.25 C 420.304688 457.230469 415.9375 455.203125 412.160156 452.308594 C 409.691406 450.316406 407.65625 447.839844 406.175781 445.035156 C 405.789062 444.308594 405.449219 443.480469 405.132812 442.773438 L 404.695312 441.632812 L 403.792969 439.210938 C 402.558594 436.128906 401.535156 433.097656 400.425781 430.070312 C 396.328125 417.945312 392.914062 405.699219 389.910156 393.480469 C 386.90625 381.257812 384.3125 369.058594 382.15625 356.527344 Z M 408.628906 351.875 "/>
<path style=" stroke:none;fill-rule:nonzero;fill:rgb(14.901961%,19.607843%,21.960784%);fill-opacity:1;" d="M 373.929688 345.933594 C 368.914062 362.203125 389.238281 410.722656 389.238281 410.722656 L 429.726562 400.539062 C 429.726562 400.539062 428.175781 375.324219 418.945312 355.320312 C 405.039062 325.15625 379.9375 326.414062 373.929688 345.933594 Z M 373.929688 345.933594 "/>
<path style=" stroke:none;fill-rule:nonzero;fill:rgb(89.411765%,53.72549%,48.235294%);fill-opacity:1;" d="M 472.6875 440.742188 L 492.847656 440.234375 L 483.15625 461.230469 C 483.15625 461.230469 474.941406 462.324219 468.207031 451.242188 L 461.109375 442.753906 L 469.273438 441.132812 C 470.398438 440.894531 471.539062 440.765625 472.6875 440.742188 Z M 472.6875 440.742188 "/>
<path style=" stroke:none;fill-rule:nonzero;fill:rgb(89.411765%,53.72549%,48.235294%);fill-opacity:1;" d="M 505.566406 444.136719 L 494.03125 461.546875 L 483.152344 461.230469 L 492.84375 440.234375 Z M 505.566406 444.136719 "/>
<path style=" stroke:none;fill-rule:nonzero;fill:rgb(80.784314%,43.529412%,39.215686%);fill-opacity:1;" d="M 402.617188 842.421875 L 401.695312 863.683594 L 383.886719 863.683594 L 384.804688 842.421875 Z M 402.617188 842.421875 "/>
<path style=" stroke:none;fill-rule:nonzero;fill:rgb(80.784314%,43.529412%,39.215686%);fill-opacity:1;" d="M 257.289062 785.074219 L 272.1875 794.847656 L 255.230469 809.152344 L 240.351562 799.40625 Z M 257.289062 785.074219 "/>
<path style=" stroke:none;fill-rule:nonzero;fill:rgb(89.411765%,53.72549%,48.235294%);fill-opacity:1;" d="M 334.992188 268.488281 C 336.058594 286.117188 335.792969 296.527344 344.683594 305.570312 C 358.058594 319.21875 379.839844 311.148438 384.054688 293.445312 C 387.859375 277.589844 385.484375 251.402344 368.242188 244.371094 C 360.503906 241.246094 351.703125 242.324219 344.945312 247.226562 C 338.191406 252.128906 334.433594 260.164062 335 268.496094 Z M 334.992188 268.488281 "/>
<path style=" stroke:none;fill-rule:nonzero;fill:rgb(14.901961%,19.607843%,21.960784%);fill-opacity:1;" d="M 314.25 265.386719 C 318.636719 281.460938 328.957031 299.988281 342.308594 301.175781 C 358.878906 302.628906 366.367188 285.488281 368.550781 267.785156 C 378.488281 260.972656 373.273438 253.480469 383.230469 252.535156 C 396.023438 251.328125 391.929688 227.902344 375.097656 224.140625 C 375.097656 224.140625 380.742188 234.691406 368.894531 229.355469 C 357.628906 223.996094 345.109375 221.824219 332.695312 223.074219 C 332.695312 223.074219 347.816406 230.640625 333.035156 234.011719 C 318.253906 237.378906 313.847656 246.496094 320.65625 252 C 320.648438 252.027344 311.367188 254.816406 314.25 265.386719 Z M 314.25 265.386719 "/>
<path style=" stroke:none;fill-rule:nonzero;fill:rgb(89.411765%,53.72549%,48.235294%);fill-opacity:1;" d="M 358.445312 271.425781 C 358.769531 275.804688 360.535156 279.957031 363.460938 283.230469 C 367.339844 287.523438 371.382812 284.855469 372.0625 279.644531 C 372.691406 274.96875 371.410156 267.082031 366.660156 264.707031 C 361.910156 262.332031 358.128906 266.136719 358.445312 271.425781 Z M 358.445312 271.425781 "/>
<path style=" stroke:none;fill-rule:nonzero;fill:rgb(49.019608%,14.509804%,96.078431%);fill-opacity:1;" d="M 364.988281 486.910156 C 364.988281 486.910156 382.335938 612.628906 368.667969 663.015625 C 347.007812 742.789062 264.195312 810.125 264.195312 810.125 L 236.113281 791.695312 C 236.113281 791.695312 306.644531 734.835938 315.261719 668.035156 C 323.019531 608.070312 303.558594 535.550781 303.558594 486.882812 Z M 364.988281 486.910156 "/>
<use xlink:href="#surface50" mask="url(#mask15)"/>
<path style=" stroke:none;fill-rule:nonzero;fill:rgb(49.019608%,14.509804%,96.078431%);fill-opacity:1;" d="M 372.160156 558.777344 C 367.542969 553.480469 362.457031 548.613281 356.96875 544.226562 C 359.921875 585.035156 362.347656 645.484375 359.65625 688.425781 C 363.273438 680.195312 366.285156 671.710938 368.671875 663.039062 C 375.332031 638.429688 374.632812 595.929688 372.160156 558.777344 Z M 372.160156 558.777344 "/>
<use xlink:href="#surface53" mask="url(#mask16)"/>
<path style=" stroke:none;fill-rule:nonzero;fill:rgb(49.019608%,14.509804%,96.078431%);fill-opacity:1;" d="M 275.511719 803.84375 C 275.628906 803.84375 264.628906 811.117188 264.628906 811.117188 L 233.957031 790.992188 L 243.648438 782.96875 Z M 275.511719 803.84375 "/>
<use xlink:href="#surface56" mask="url(#mask17)"/>
<path style=" stroke:none;fill-rule:nonzero;fill:rgb(49.019608%,14.509804%,96.078431%);fill-opacity:1;" d="M 398.761719 486.910156 C 398.761719 486.910156 425.558594 600.628906 427.449219 654.964844 C 429.582031 715.875 408.332031 859.5625 408.332031 859.5625 L 378.167969 859.5625 C 378.167969 859.5625 374.460938 714.757812 373.128906 659.28125 C 371.652344 598.785156 336.179688 486.910156 336.179688 486.910156 Z M 398.761719 486.910156 "/>
<use xlink:href="#surface59" mask="url(#mask18)"/>
<path style=" stroke:none;fill-rule:nonzero;fill:rgb(49.019608%,14.509804%,96.078431%);fill-opacity:1;" d="M 414.125 847.5625 C 414.273438 847.5625 412.429688 860.070312 412.429688 860.070312 L 375.746094 860.070312 L 374.75 848.894531 Z M 414.125 847.5625 "/>
<use xlink:href="#surface62" mask="url(#mask19)"/>
<path style=" stroke:none;fill-rule:nonzero;fill:rgb(89.411765%,53.72549%,48.235294%);fill-opacity:1;" d="M 862.558594 377.625 C 864.617188 379.566406 866.238281 381.214844 867.9375 383.050781 C 869.632812 384.890625 871.230469 386.6875 872.78125 388.554688 C 875.929688 392.265625 878.886719 396.167969 881.746094 400.097656 C 887.457031 407.976562 892.535156 416.292969 896.9375 424.96875 L 897.84375 426.738281 C 898.28125 427.59375 898.644531 428.488281 898.933594 429.40625 C 899.519531 431.179688 899.875 433.019531 900 434.882812 C 900.15625 438.171875 899.703125 441.460938 898.664062 444.582031 C 896.894531 449.769531 894.265625 454.621094 890.886719 458.9375 C 884.800781 466.761719 877.617188 473.671875 869.566406 479.449219 L 863.535156 472.515625 C 866.367188 469.199219 869.324219 465.632812 871.96875 462.066406 C 874.65625 458.613281 877.085938 454.964844 879.238281 451.15625 C 881.246094 447.828125 882.734375 444.214844 883.648438 440.4375 C 883.960938 439.085938 884.019531 437.6875 883.816406 436.316406 C 883.730469 435.851562 883.585938 435.40625 883.378906 434.980469 C 883.285156 434.800781 883.179688 434.628906 883.058594 434.46875 L 882.28125 433.15625 C 877.609375 425.53125 872.539062 418.15625 867.09375 411.0625 C 864.402344 407.496094 861.519531 404.078125 858.613281 400.707031 C 857.183594 399.011719 855.707031 397.363281 854.226562 395.714844 C 852.746094 394.0625 851.148438 392.414062 849.859375 391.128906 Z M 862.558594 377.625 "/>
<path style=" stroke:none;fill-rule:nonzero;fill:rgb(89.411765%,53.72549%,48.235294%);fill-opacity:1;" d="M 865.851562 470.492188 L 847.753906 467.535156 L 857.226562 483.390625 C 857.226562 483.390625 868.878906 482.980469 872.199219 476.117188 Z M 865.851562 470.492188 "/>
<path style=" stroke:none;fill-rule:nonzero;fill:rgb(89.411765%,53.72549%,48.235294%);fill-opacity:1;" d="M 834.378906 474.855469 L 843.003906 487.730469 L 857.226562 483.390625 L 847.753906 467.535156 Z M 834.378906 474.855469 "/>
<path style=" stroke:none;fill-rule:nonzero;fill:rgb(49.019608%,14.509804%,96.078431%);fill-opacity:1;" d="M 864.980469 884.367188 C 863.75 884.472656 862.523438 884.136719 861.515625 883.421875 C 860.898438 882.839844 860.632812 881.972656 860.8125 881.144531 C 860.851562 880.617188 861.175781 880.152344 861.660156 879.9375 C 863.769531 878.992188 869.292969 882.53125 869.921875 882.945312 C 870.058594 883.046875 870.125 883.214844 870.089844 883.378906 C 870.058594 883.546875 869.933594 883.679688 869.773438 883.722656 C 868.203125 884.121094 866.59375 884.339844 864.976562 884.375 Z M 862.558594 880.609375 C 862.378906 880.582031 862.199219 880.582031 862.023438 880.609375 C 861.808594 880.710938 861.667969 880.925781 861.660156 881.167969 C 861.53125 881.71875 861.695312 882.296875 862.097656 882.695312 C 863.019531 883.519531 865.394531 883.640625 868.566406 883.007812 C 866.75 881.808594 864.703125 880.988281 862.558594 880.609375 Z M 862.558594 880.609375 "/>
<path style=" stroke:none;fill-rule:nonzero;fill:rgb(49.019608%,14.509804%,96.078431%);fill-opacity:1;" d="M 869.828125 883.6875 L 869.609375 883.6875 C 867.886719 882.695312 864.566406 878.839844 864.980469 876.730469 C 865.144531 876.050781 865.734375 875.558594 866.433594 875.523438 C 867.097656 875.429688 867.765625 875.644531 868.25 876.105469 C 870.238281 877.851562 870.261719 883.089844 870.261719 883.378906 C 870.253906 883.53125 870.171875 883.664062 870.042969 883.742188 Z M 866.726562 876.414062 L 866.53125 876.414062 C 865.996094 876.414062 865.878906 876.707031 865.828125 876.925781 C 865.585938 878.160156 867.644531 881.121094 869.367188 882.5 C 869.410156 880.464844 868.824219 878.464844 867.695312 876.773438 C 867.398438 876.5 867.003906 876.367188 866.601562 876.410156 Z M 866.726562 876.414062 "/>
<path style=" stroke:none;fill-rule:nonzero;fill:rgb(49.019608%,14.509804%,96.078431%);fill-opacity:1;" d="M 782.40625 884.367188 C 780.859375 884.515625 779.308594 884.121094 778.019531 883.253906 C 777.429688 882.730469 777.132812 881.949219 777.222656 881.167969 C 777.253906 880.6875 777.527344 880.257812 777.949219 880.027344 C 780.207031 878.765625 787.421875 882.453125 788.246094 882.914062 C 788.402344 883.011719 788.484375 883.191406 788.464844 883.375 C 788.4375 883.546875 788.300781 883.683594 788.125 883.714844 C 786.246094 884.113281 784.328125 884.332031 782.40625 884.367188 Z M 779.183594 880.609375 C 778.90625 880.589844 778.632812 880.652344 778.386719 880.78125 C 778.207031 880.863281 778.09375 881.042969 778.09375 881.242188 C 778.019531 881.753906 778.199219 882.269531 778.578125 882.625 C 779.695312 883.617188 782.675781 883.789062 786.695312 883.109375 C 784.351562 881.859375 781.8125 881.015625 779.183594 880.609375 Z M 779.183594 880.609375 "/>
<path style=" stroke:none;fill-rule:nonzero;fill:rgb(49.019608%,14.509804%,96.078431%);fill-opacity:1;" d="M 788.050781 883.6875 L 787.859375 883.6875 C 785.699219 882.71875 781.414062 878.839844 781.75 876.730469 C 781.75 876.246094 782.1875 875.636719 783.375 875.523438 C 784.253906 875.429688 785.128906 875.703125 785.800781 876.277344 C 788.078125 878.167969 788.511719 883.0625 788.511719 883.285156 C 788.527344 883.4375 788.464844 883.585938 788.339844 883.671875 C 788.25 883.710938 788.144531 883.722656 788.050781 883.695312 Z M 783.714844 876.414062 L 783.449219 876.414062 C 782.671875 876.414062 782.625 876.800781 782.601562 876.898438 C 782.40625 878.136719 785.3125 881.214844 787.445312 882.550781 C 787.234375 880.476562 786.390625 878.519531 785.023438 876.949219 C 784.65625 876.636719 784.199219 876.449219 783.714844 876.414062 Z M 783.714844 876.414062 "/>
<path style=" stroke:none;fill-rule:nonzero;fill:rgb(89.411765%,53.72549%,48.235294%);fill-opacity:1;" d="M 816.691406 321.878906 C 815.988281 332.839844 814.097656 355.097656 822.507812 361.257812 C 822.507812 361.257812 820.980469 372.484375 801.136719 375.101562 C 779.332031 377.941406 789.289062 365.621094 789.289062 365.621094 C 800.847656 361.207031 799.367188 352.40625 796.21875 344.359375 Z M 816.691406 321.878906 "/>
<path style=" stroke:none;fill-rule:nonzero;fill:rgb(14.901961%,19.607843%,21.960784%);fill-opacity:1;" d="M 771.554688 302.507812 C 771.3125 302.507812 771.082031 302.402344 770.921875 302.214844 C 769.519531 300.546875 767.40625 299.648438 765.230469 299.789062 C 765 299.832031 764.765625 299.777344 764.578125 299.640625 C 764.386719 299.503906 764.265625 299.292969 764.234375 299.0625 C 764.179688 298.585938 764.515625 298.15625 764.988281 298.09375 C 767.765625 297.859375 770.480469 299 772.257812 301.148438 C 772.472656 301.40625 772.519531 301.765625 772.378906 302.070312 C 772.242188 302.375 771.9375 302.574219 771.605469 302.578125 Z M 771.554688 302.507812 "/>
<path style=" stroke:none;fill-rule:nonzero;fill:rgb(87.058824%,34.117647%,32.54902%);fill-opacity:1;" d="M 767.773438 313.25 C 766.914062 316.730469 765.585938 320.078125 763.824219 323.199219 C 765.460938 324.082031 767.40625 324.1875 769.128906 323.488281 Z M 767.773438 313.25 "/>
<path style=" stroke:none;fill-rule:nonzero;fill:rgb(14.901961%,19.607843%,21.960784%);fill-opacity:1;" d="M 768.742188 310.582031 C 768.933594 312.035156 768.328125 313.292969 767.386719 313.445312 C 766.441406 313.597656 765.496094 312.476562 765.328125 311.019531 C 765.15625 309.5625 765.738281 308.308594 766.683594 308.183594 C 767.625 308.058594 768.574219 309.03125 768.742188 310.582031 Z M 768.742188 310.582031 "/>
<path style=" stroke:none;fill-rule:nonzero;fill:rgb(14.901961%,19.607843%,21.960784%);fill-opacity:1;" d="M 767.117188 308.207031 L 763.503906 307.648438 C 763.503906 307.648438 765.640625 310.144531 767.117188 308.207031 Z M 767.117188 308.207031 "/>
<path style=" stroke:none;fill-rule:nonzero;fill:rgb(89.411765%,53.72549%,48.235294%);fill-opacity:1;" d="M 808.015625 883.300781 L 789.84375 883.300781 L 788.640625 841.234375 L 806.8125 841.234375 Z M 808.015625 883.300781 "/>
<path style=" stroke:none;fill-rule:nonzero;fill:rgb(89.411765%,53.72549%,48.235294%);fill-opacity:1;" d="M 890.515625 883.300781 L 872.347656 883.300781 L 866.507812 841.230469 L 884.679688 841.230469 Z M 890.515625 883.300781 "/>
<path style=" stroke:none;fill-rule:nonzero;fill:rgb(14.901961%,19.607843%,21.960784%);fill-opacity:1;" d="M 871.230469 881.265625 L 891.632812 881.265625 C 892.351562 881.257812 892.964844 881.785156 893.0625 882.5 L 895.484375 898.671875 C 895.574219 899.496094 895.308594 900.320312 894.753906 900.9375 C 894.199219 901.550781 893.40625 901.902344 892.578125 901.894531 C 885.480469 901.777344 882.035156 901.363281 873.074219 901.363281 C 867.550781 901.363281 859.480469 901.921875 851.875 901.921875 C 844.265625 901.921875 843.855469 894.382812 847.027344 893.699219 C 861.25 890.644531 863.503906 886.425781 868.277344 882.378906 C 869.109375 881.6875 870.148438 881.292969 871.230469 881.265625 Z M 871.230469 881.265625 "/>
<path style=" stroke:none;fill-rule:nonzero;fill:rgb(14.901961%,19.607843%,21.960784%);fill-opacity:1;" d="M 789.238281 881.265625 L 809.617188 881.265625 C 810.339844 881.253906 810.960938 881.78125 811.070312 882.5 L 813.492188 898.671875 C 813.582031 899.496094 813.316406 900.320312 812.761719 900.9375 C 812.207031 901.550781 811.414062 901.902344 810.585938 901.894531 C 803.488281 901.777344 800.042969 901.363281 791.082031 901.363281 C 785.554688 901.363281 774.121094 901.921875 766.511719 901.921875 C 758.90625 901.921875 758.496094 894.382812 761.667969 893.699219 C 775.890625 890.644531 781.488281 886.425781 786.285156 882.378906 C 787.117188 881.6875 788.15625 881.292969 789.238281 881.265625 Z M 789.238281 881.265625 "/>
<path style=" stroke:none;fill-rule:nonzero;fill:rgb(80.784314%,43.529412%,39.215686%);fill-opacity:1;" d="M 788.632812 841.230469 L 789.261719 862.9375 L 807.4375 862.9375 L 806.804688 841.230469 Z M 788.632812 841.230469 "/>
<path style=" stroke:none;fill-rule:nonzero;fill:rgb(80.784314%,43.529412%,39.215686%);fill-opacity:1;" d="M 884.679688 841.230469 L 866.507812 841.230469 L 869.535156 862.9375 L 887.683594 862.9375 Z M 884.679688 841.230469 "/>
<path style=" stroke:none;fill-rule:nonzero;fill:rgb(89.411765%,53.72549%,48.235294%);fill-opacity:1;" d="M 816.933594 299.1875 C 818.167969 317.175781 819.066406 324.765625 811.265625 335.121094 C 799.515625 350.664062 777.175781 348.261719 770.582031 331 C 764.648438 315.457031 763.628906 288.664062 780.152344 279.253906 C 787.542969 275.015625 796.601562 274.90625 804.09375 278.964844 C 811.585938 283.023438 816.441406 290.675781 816.933594 299.1875 Z M 816.933594 299.1875 "/>
<path style=" stroke:none;fill-rule:nonzero;fill:rgb(14.901961%,19.607843%,21.960784%);fill-opacity:1;" d="M 827.402344 315.890625 C 837.480469 321.515625 844.964844 307.648438 844.964844 307.648438 C 844.964844 307.648438 826.890625 309.609375 828.515625 298.847656 C 830.648438 284.566406 820.421875 267.203125 794.789062 269.4375 C 793.359375 269.554688 792 269.726562 790.667969 269.945312 C 785.144531 267.324219 778.542969 268.851562 774.726562 273.628906 C 767.457031 274.234375 757.644531 282.917969 764.308594 294.386719 C 764.773438 293.070312 765.5 291.855469 766.441406 290.820312 C 766.996094 297.539062 772.859375 308.207031 780.175781 308.910156 C 781.753906 318.105469 775.648438 328.742188 777.753906 338.347656 C 780.878906 352.191406 804.210938 355.320312 804.210938 355.320312 C 802.570312 351.792969 803.097656 347.632812 805.566406 344.625 C 821.414062 351.902344 831.855469 344.796875 831.855469 344.796875 C 821.050781 340.773438 824.324219 333.59375 824.324219 333.59375 C 832.078125 337.039062 841.167969 333.730469 844.894531 326.101562 C 837.5625 326.449219 830.710938 322.453125 827.402344 315.894531 Z M 827.402344 315.890625 "/>
<path style=" stroke:none;fill-rule:nonzero;fill:rgb(89.411765%,53.72549%,48.235294%);fill-opacity:1;" d="M 786.5 311.671875 C 786.585938 315.160156 785.277344 318.539062 782.867188 321.054688 C 779.667969 324.371094 775.742188 322.050781 774.675781 317.804688 C 773.734375 313.972656 774.265625 307.648438 778.433594 305.898438 C 780.296875 305.164062 782.402344 305.425781 784.03125 306.589844 C 785.660156 307.757812 786.589844 309.667969 786.5 311.667969 Z M 786.5 311.671875 "/>
<path style=" stroke:none;fill-rule:nonzero;fill:rgb(14.901961%,19.607843%,21.960784%);fill-opacity:1;" d="M 801.597656 479.292969 C 801.597656 479.292969 806.207031 598.976562 817.152344 669.25 C 825.96875 726.039062 865.148438 858.722656 865.148438 858.722656 L 889.910156 858.722656 C 889.910156 858.722656 869.484375 730.578125 865.003906 674.445312 C 853.664062 532.378906 883.101562 501.875 855.3125 472.296875 Z M 801.597656 479.292969 "/>
<path style=" stroke:none;fill-rule:nonzero;fill:rgb(8.627451%,12.156863%,20%);fill-opacity:1;" d="M 822.289062 517.144531 C 822.289062 517.144531 811.09375 515.203125 804.554688 536.542969 C 806.976562 576.964844 811.117188 630.601562 817.152344 669.246094 C 818.484375 677.855469 820.519531 688.238281 823.015625 699.605469 C 818.292969 631.324219 822.289062 517.144531 822.289062 517.144531 Z M 822.289062 517.144531 "/>
<path style=" stroke:none;fill-rule:nonzero;fill:rgb(14.901961%,19.607843%,21.960784%);fill-opacity:1;" d="M 782.285156 481.816406 C 782.285156 481.816406 761.882812 614.230469 763.074219 669.628906 C 764.308594 727.265625 785.410156 858.757812 785.410156 858.757812 L 809.964844 858.757812 C 809.964844 858.757812 806.085938 730.683594 808.242188 674.089844 C 810.667969 612.382812 835.839844 474.851562 835.839844 474.851562 Z M 782.285156 481.816406 "/>
<path style=" stroke:none;fill-rule:nonzero;fill:rgb(49.019608%,14.509804%,96.078431%);fill-opacity:1;" d="M 893.5 859.878906 L 860.570312 859.878906 L 858.003906 848.820312 L 893.253906 849.0625 Z M 893.5 859.878906 "/>
<use xlink:href="#surface65" mask="url(#mask20)"/>
<path style=" stroke:none;fill-rule:nonzero;fill:rgb(49.019608%,14.509804%,96.078431%);fill-opacity:1;" d="M 854.078125 361.28125 C 863.550781 362.203125 877.945312 389.144531 877.945312 389.144531 L 854.027344 407.496094 C 854.027344 407.496094 834.234375 390.113281 836.585938 380.339844 C 839.03125 370.183594 844.992188 360.433594 854.078125 361.28125 Z M 854.078125 361.28125 "/>
<use xlink:href="#surface68" mask="url(#mask21)"/>
<path style=" stroke:none;fill-rule:nonzero;fill:rgb(49.019608%,14.509804%,96.078431%);fill-opacity:1;" d="M 846.929688 372.871094 C 844.515625 372.222656 842.015625 371.941406 839.515625 372.046875 C 838.242188 374.699219 837.261719 377.476562 836.585938 380.339844 C 834.160156 390.035156 854.027344 407.496094 854.027344 407.496094 L 855.796875 406.136719 Z M 846.929688 372.871094 "/>
<use xlink:href="#surface71" mask="url(#mask22)"/>
<path style=" stroke:none;fill-rule:nonzero;fill:rgb(89.411765%,53.72549%,48.235294%);fill-opacity:1;" d="M 774.167969 398.746094 C 767.261719 416.230469 759.996094 434 754.203125 451.53125 C 753.816406 452.644531 753.503906 453.710938 753.164062 454.804688 L 752.339844 457.496094 C 752.113281 458.289062 752.113281 459.128906 752.339844 459.921875 C 753.707031 462.953125 755.875 465.550781 758.613281 467.4375 C 765.855469 472.640625 773.75 476.871094 782.089844 480.023438 L 779.914062 488.945312 C 769.65625 487.589844 759.730469 484.351562 750.648438 479.390625 C 745.054688 476.402344 740.503906 471.785156 737.585938 466.152344 C 735.914062 462.550781 735.332031 458.539062 735.914062 454.609375 C 735.972656 454.128906 736.050781 453.652344 736.160156 453.179688 L 736.402344 452.160156 L 736.8125 450.316406 C 737.101562 449.082031 737.394531 447.890625 737.714844 446.679688 C 740.140625 436.980469 743.242188 427.765625 746.511719 418.625 C 749.78125 409.484375 753.199219 400.464844 757.054688 391.46875 Z M 774.167969 398.746094 "/>
<path style=" stroke:none;fill-rule:nonzero;fill:rgb(49.019608%,14.509804%,96.078431%);fill-opacity:1;" d="M 759.46875 374.207031 C 759.46875 374.207031 751.28125 378.351562 782.292969 481.816406 L 855.417969 472.261719 C 850.28125 442.632812 847.855469 424.277344 854.082031 361.28125 C 843.597656 360.53125 833.070312 360.53125 822.585938 361.28125 C 811.421875 361.933594 800.320312 363.394531 789.367188 365.652344 C 775.332031 368.777344 759.46875 374.207031 759.46875 374.207031 Z M 759.46875 374.207031 "/>
<use xlink:href="#surface74" mask="url(#mask23)"/>
<path style=" stroke:none;fill-rule:nonzero;fill:rgb(49.019608%,14.509804%,96.078431%);fill-opacity:1;" d="M 855.945312 467.816406 L 860.136719 473.90625 C 860.449219 474.390625 859.917969 474.972656 859.09375 475.09375 L 782.410156 485.132812 C 781.753906 485.132812 781.148438 484.960938 781.054688 484.550781 L 779.546875 478.074219 C 779.425781 477.636719 779.957031 477.171875 780.683594 477.082031 L 854.730469 467.382812 C 855.179688 467.3125 855.632812 467.476562 855.933594 467.820312 Z M 855.945312 467.816406 "/>
<use xlink:href="#surface77" mask="url(#mask24)"/>
<path style=" stroke:none;fill-rule:nonzero;fill:rgb(14.901961%,19.607843%,21.960784%);fill-opacity:1;" d="M 847.074219 477.402344 L 849.0625 477.136719 C 849.449219 477.136719 849.714844 476.847656 849.664062 476.601562 L 847.628906 468.214844 C 847.46875 467.917969 847.125 467.777344 846.804688 467.875 L 844.820312 468.117188 C 844.40625 468.117188 844.140625 468.40625 844.214844 468.675781 L 846.25 477.039062 C 846.300781 477.304688 846.6875 477.453125 847.074219 477.402344 Z M 847.074219 477.402344 "/>
<path style=" stroke:none;fill-rule:nonzero;fill:rgb(14.901961%,19.607843%,21.960784%);fill-opacity:1;" d="M 799.003906 483.605469 L 800.992188 483.339844 C 801.378906 483.339844 801.667969 483.046875 801.59375 482.804688 L 799.558594 474.414062 C 799.394531 474.125 799.058594 473.976562 798.734375 474.050781 L 796.746094 474.316406 C 796.359375 474.316406 796.070312 474.609375 796.144531 474.851562 L 798.179688 483.242188 C 798.226562 483.605469 798.617188 483.753906 799.003906 483.605469 Z M 799.003906 483.605469 "/>
<path style=" stroke:none;fill-rule:nonzero;fill:rgb(49.019608%,14.509804%,96.078431%);fill-opacity:1;" d="M 762.878906 409.316406 C 764.890625 418.675781 767.722656 430.53125 771.867188 445.542969 L 772.773438 407.496094 Z M 762.878906 409.316406 "/>
<use xlink:href="#surface80" mask="url(#mask25)"/>
<path style=" stroke:none;fill-rule:nonzero;fill:rgb(49.019608%,14.509804%,96.078431%);fill-opacity:1;" d="M 759.460938 374.207031 C 750.378906 377.867188 742.503906 408.976562 742.503906 408.976562 L 773.757812 424.199219 C 773.757812 424.199219 788.855469 386.15625 782.09375 378.738281 C 775.332031 371.320312 769.929688 370.011719 759.460938 374.207031 Z M 759.460938 374.207031 "/>
<use xlink:href="#surface83" mask="url(#mask26)"/>
<path style=" stroke:none;fill-rule:nonzero;fill:rgb(49.019608%,14.509804%,96.078431%);fill-opacity:1;" d="M 814.148438 859.878906 L 781.21875 859.878906 L 778.652344 848.820312 L 815.308594 849.0625 Z M 814.148438 859.878906 "/>
<use xlink:href="#surface86" mask="url(#mask27)"/>
<path style=" stroke:none;fill-rule:nonzero;fill:rgb(89.411765%,53.72549%,48.235294%);fill-opacity:1;" d="M 782.601562 477.011719 L 779.960938 475.921875 C 778.640625 475.386719 777.132812 475.601562 776.011719 476.480469 C 774.890625 477.363281 774.328125 478.777344 774.539062 480.1875 L 776.453125 492.820312 C 776.636719 494.105469 777.390625 495.234375 778.5 495.902344 C 779.609375 496.570312 780.957031 496.703125 782.175781 496.265625 C 783.136719 495.914062 784.039062 495.417969 784.84375 494.785156 C 786.617188 493.3125 787.589844 491.078125 787.457031 488.773438 L 787.191406 483.535156 C 787.097656 480.644531 785.300781 478.082031 782.613281 477.011719 Z M 782.601562 477.011719 "/>
</g>
</svg>
