<svg xmlns="http://www.w3.org/2000/svg" width="804.303" height="612.895" viewBox="0 0 804.303 612.895">
  <g id="Search-rafiki_1_" data-name="Search-rafiki (1)" transform="translate(0 -46.55)">
    <g id="freepik--background-complete--inject-21" transform="translate(0 60.143)">
      <rect id="Rectangle_17243" data-name="Rectangle 17243" width="804.303" height="0.402" transform="translate(0 526.658)" fill="#e0e0e0"/>
      <rect id="Rectangle_17244" data-name="Rectangle 17244" width="55.336" height="0.402" transform="translate(554.857 541.489)" fill="#e0e0e0"/>
      <rect id="Rectangle_17245" data-name="Rectangle 17245" width="31.143" height="0.402" transform="translate(644.151 540.347)" fill="#e0e0e0"/>
      <rect id="Rectangle_17246" data-name="Rectangle 17246" width="41.309" height="0.402" transform="translate(356.564 541.296)" fill="#e0e0e0"/>
      <rect id="Rectangle_17247" data-name="Rectangle 17247" width="28.215" height="0.402" transform="translate(399.497 547.007)" fill="#e0e0e0"/>
      <rect id="Rectangle_17248" data-name="Rectangle 17248" width="85.24" height="0.402" transform="translate(147.477 537.226)" fill="#e0e0e0"/>
      <path id="Path_4985" data-name="Path 4985" d="M357.985,509.914H47.379a9.185,9.185,0,0,1-9.169-9.185V64.1A9.185,9.185,0,0,1,47.379,55H357.985a9.185,9.185,0,0,1,9.185,9.185V500.729A9.185,9.185,0,0,1,357.985,509.914ZM47.379,55.322A8.783,8.783,0,0,0,38.612,64.1V500.729a8.783,8.783,0,0,0,8.767,8.783H357.985a8.8,8.8,0,0,0,8.783-8.783V64.1a8.8,8.8,0,0,0-8.783-8.783Z" transform="translate(23.255 -55)" fill="#e0e0e0"/>
      <path id="Path_4986" data-name="Path 4986" d="M574.307,509.914H263.685a9.2,9.2,0,0,1-9.185-9.185V64.1a9.2,9.2,0,0,1,9.185-9.1H574.307a9.185,9.185,0,0,1,9.153,9.1V500.729A9.185,9.185,0,0,1,574.307,509.914ZM263.685,55.322A8.8,8.8,0,0,0,254.9,64.1V500.729a8.8,8.8,0,0,0,8.783,8.783H574.307a8.8,8.8,0,0,0,8.783-8.783V64.1a8.8,8.8,0,0,0-8.783-8.783Z" transform="translate(154.89 -55)" fill="#e0e0e0"/>
      <rect id="Rectangle_17249" data-name="Rectangle 17249" width="242.417" height="208.411" transform="translate(455.767 39.041)" fill="#e0e0e0"/>
      <rect id="Rectangle_17250" data-name="Rectangle 17250" width="242.417" height="208.411" transform="translate(461.155 39.041)" fill="#f0f0f0"/>
      <rect id="Rectangle_17251" data-name="Rectangle 17251" width="188.85" height="223.082" transform="translate(693.905 48.821) rotate(90)" fill="#fafafa"/>
      <rect id="Rectangle_17252" data-name="Rectangle 17252" width="188.85" height="14.574" transform="translate(622.611 48.821) rotate(90)" fill="#e0e0e0"/>
      <rect id="Rectangle_17253" data-name="Rectangle 17253" width="188.85" height="14.574" transform="translate(545.945 48.821) rotate(90)" fill="#e0e0e0"/>
      <rect id="Rectangle_17254" data-name="Rectangle 17254" width="202.331" height="14.574" transform="translate(627.743 41.534) rotate(90)" fill="#f0f0f0"/>
      <rect id="Rectangle_17255" data-name="Rectangle 17255" width="202.331" height="14.574" transform="translate(551.06 41.55) rotate(90)" fill="#f0f0f0"/>
      <rect id="Rectangle_17256" data-name="Rectangle 17256" width="188.85" height="4.07" transform="translate(693.905 48.805) rotate(90)" fill="#e0e0e0"/>
      <path id="Path_4987" data-name="Path 4987" d="M181.23,216.147s-29.5-50.816,11.437-91.337c0,0,10.681,6.965,10.52,16.327s-11.453,11.727-9.024,19.545,13.062,15.459,6.081,21.925,1.126,12.193.66,20.108S181.23,216.147,181.23,216.147Z" transform="translate(104.04 -12.513)" fill="#e0e0e0"/>
      <path id="Path_4988" data-name="Path 4988" d="M197.317,218.188s11.968-57.556-39.636-83.068c0,0-7.947,9.973-4.826,18.8s14.558,7.512,14.719,15.7-7.512,18.8,1.142,22.73,2.783,11.936,5.727,19.3S197.317,218.188,197.317,218.188Z" transform="translate(92.586 -6.238)" fill="#e6e6e6"/>
      <path id="Path_4989" data-name="Path 4989" d="M163.89,177.67s.515,49.69,20.381,49.69,20.365-49.69,20.365-49.69Z" transform="translate(99.745 19.658)" fill="#f0f0f0"/>
      <path id="Path_4990" data-name="Path 4990" d="M89.69,196.94s1.11,18.692,43.529,18.692,43.545-18.692,43.545-18.692Z" transform="translate(54.586 31.386)" fill="#e6e6e6"/>
      <rect id="Rectangle_17257" data-name="Rectangle 17257" width="32.494" height="47.132" rx="3.14" transform="translate(564.042 341.025)" fill="#f0f0f0"/>
      <rect id="Rectangle_17258" data-name="Rectangle 17258" width="21.861" height="31.722" rx="2.11" transform="translate(632.408 356.435)" fill="#e6e6e6"/>
      <rect id="Rectangle_17259" data-name="Rectangle 17259" width="21.861" height="3.571" rx="0.71" transform="translate(632.408 353.363)" fill="#f0f0f0"/>
      <path id="Path_4991" data-name="Path 4991" d="M318.42,280s.8,26.22,31.513,26.22S381.461,280,381.461,280Z" transform="translate(193.793 81.937)" fill="#e6e6e6"/>
      <rect id="Rectangle_17260" data-name="Rectangle 17260" width="46.473" height="9.169" transform="translate(482.309 327.303) rotate(180)" fill="#e0e0e0"/>
      <rect id="Rectangle_17261" data-name="Rectangle 17261" width="231.044" height="9.169" transform="translate(482.309 318.15)" fill="#f0f0f0"/>
      <rect id="Rectangle_17262" data-name="Rectangle 17262" width="46.473" height="9.169" transform="translate(482.309 397.326) rotate(180)" fill="#e0e0e0"/>
      <rect id="Rectangle_17263" data-name="Rectangle 17263" width="231.044" height="9.169" transform="translate(482.309 388.157)" fill="#f0f0f0"/>
      <rect id="Rectangle_17264" data-name="Rectangle 17264" width="8.574" height="199.339" transform="translate(444.008 327.303)" fill="#e0e0e0"/>
      <rect id="Rectangle_17265" data-name="Rectangle 17265" width="8.574" height="199.339" transform="translate(482.309 327.303)" fill="#f0f0f0"/>
      <rect id="Rectangle_17266" data-name="Rectangle 17266" width="8.574" height="199.339" transform="translate(675.052 327.303)" fill="#e0e0e0"/>
      <rect id="Rectangle_17267" data-name="Rectangle 17267" width="8.574" height="199.339" transform="translate(704.779 327.303)" fill="#f0f0f0"/>
      <rect id="Rectangle_17268" data-name="Rectangle 17268" width="43.947" height="255.913" transform="translate(100.329 258.68)" fill="#e6e6e6"/>
      <rect id="Rectangle_17269" data-name="Rectangle 17269" width="216.712" height="12.081" transform="translate(108.774 514.577)" fill="#e6e6e6"/>
      <rect id="Rectangle_17270" data-name="Rectangle 17270" width="189.639" height="255.913" transform="translate(333.915 514.577) rotate(180)" fill="#f0f0f0"/>
      <rect id="Rectangle_17271" data-name="Rectangle 17271" width="155.086" height="62.51" transform="translate(316.638 417.884) rotate(180)" fill="#e6e6e6"/>
      <rect id="Rectangle_17272" data-name="Rectangle 17272" width="155.086" height="62.51" transform="translate(316.638 491.783) rotate(180)" fill="#e6e6e6"/>
      <path id="Path_4992" data-name="Path 4992" d="M174.255,283.424H139.429a4.3,4.3,0,0,1-4.279-4.279h0a4.3,4.3,0,0,1,4.279-4.3h34.826a4.3,4.3,0,0,1,4.279,4.3h0a4.3,4.3,0,0,1-4.279,4.279Z" transform="translate(82.253 78.802)" fill="#f0f0f0"/>
      <rect id="Rectangle_17273" data-name="Rectangle 17273" width="155.086" height="62.51" transform="translate(316.638 343.968) rotate(180)" fill="#e6e6e6"/>
      <path id="Path_4993" data-name="Path 4993" d="M174.255,237.484H139.429a4.3,4.3,0,0,1-4.279-4.295h0a4.3,4.3,0,0,1,4.279-4.279h34.826a4.3,4.3,0,0,1,4.279,4.279h0a4.3,4.3,0,0,1-4.279,4.295Z" transform="translate(82.253 50.843)" fill="#f0f0f0"/>
      <path id="Path_4994" data-name="Path 4994" d="M174.255,329.364H139.429a4.3,4.3,0,0,1-4.279-4.279h0a4.3,4.3,0,0,1,4.279-4.295h34.826a4.3,4.3,0,0,1,4.279,4.295h0a4.3,4.3,0,0,1-4.279,4.279Z" transform="translate(82.253 106.762)" fill="#f0f0f0"/>
      <rect id="Rectangle_17274" data-name="Rectangle 17274" width="195.494" height="11.662" transform="translate(144.276 247.018)" fill="#e6e6e6"/>
      <rect id="Rectangle_17275" data-name="Rectangle 17275" width="50.092" height="11.662" transform="translate(144.276 258.664) rotate(180)" fill="#e0e0e0"/>
      <rect id="Rectangle_17276" data-name="Rectangle 17276" width="71.1" height="78.082" transform="translate(122.158 48.821)" fill="#e6e6e6"/>
      <rect id="Rectangle_17277" data-name="Rectangle 17277" width="73.449" height="78.082" transform="translate(127.514 48.821)" fill="#f0f0f0"/>
      <rect id="Rectangle_17278" data-name="Rectangle 17278" width="65.776" height="61.143" transform="translate(194.802 54.966) rotate(90)" fill="#fafafa"/>
      <rect id="Rectangle_17279" data-name="Rectangle 17279" width="33.893" height="31.497" transform="translate(179.987 70.907) rotate(90)" fill="#f0f0f0"/>
      <rect id="Rectangle_17280" data-name="Rectangle 17280" width="53.92" height="57.926" transform="translate(214.299 25.77)" fill="#e6e6e6"/>
      <rect id="Rectangle_17281" data-name="Rectangle 17281" width="54.484" height="57.926" transform="translate(219.462 25.77)" fill="#f0f0f0"/>
      <rect id="Rectangle_17282" data-name="Rectangle 17282" width="48.789" height="45.347" transform="translate(269.377 30.338) rotate(90)" fill="#fafafa"/>
      <path id="Path_4995" data-name="Path 4995" d="M158.052,81.35l-12.4,21.491h24.8Z" transform="translate(88.644 -38.963)" fill="#f0f0f0"/>
    </g>
    <g id="freepik--Shadow--inject-21" transform="translate(90.259 623.026)">
      <ellipse id="Ellipse_300" data-name="Ellipse 300" cx="311.893" cy="18.209" rx="311.893" ry="18.209" fill="#f5f5f5"/>
    </g>
    <g id="freepik--speech-bubbles--inject-21" transform="translate(173.665 46.55)">
      <rect id="Rectangle_17283" data-name="Rectangle 17283" width="187.95" height="73.063" rx="9.37" transform="translate(328.751 159.686)" fill="#7d25f5"/>
      <rect id="Rectangle_17284" data-name="Rectangle 17284" width="128.544" height="8.172" rx="1.64" transform="translate(344.419 172.008)" fill="#7d25f5"/>
      <rect id="Rectangle_17285" data-name="Rectangle 17285" width="89.503" height="8.172" rx="1.64" transform="translate(344.419 191.698)" fill="#7d25f5"/>
      <rect id="Rectangle_17286" data-name="Rectangle 17286" width="66.918" height="8.172" rx="1.64" transform="translate(344.419 211.387)" fill="#7d25f5"/>
      <rect id="Rectangle_17287" data-name="Rectangle 17287" width="66.918" height="8.172" rx="1.64" transform="translate(420.812 211.387)" fill="#7d25f5"/>
      <g id="Group_2305" data-name="Group 2305" transform="translate(344.419 172.008)" opacity="0.5">
        <rect id="Rectangle_17288" data-name="Rectangle 17288" width="128.544" height="8.172" rx="1.64" fill="#fff"/>
        <rect id="Rectangle_17289" data-name="Rectangle 17289" width="89.503" height="8.172" rx="1.64" transform="translate(0 19.689)" fill="#fff"/>
        <rect id="Rectangle_17290" data-name="Rectangle 17290" width="66.918" height="8.172" rx="1.64" transform="translate(0 39.379)" fill="#fff"/>
        <rect id="Rectangle_17291" data-name="Rectangle 17291" width="66.918" height="8.172" rx="1.64" transform="translate(76.393 39.379)" fill="#fff"/>
      </g>
      <rect id="Rectangle_17292" data-name="Rectangle 17292" width="223.323" height="107.133" rx="13.74" transform="translate(174.003 142.651)" fill="#7d25f5"/>
      <rect id="Rectangle_17293" data-name="Rectangle 17293" width="188.464" height="11.984" rx="2.41" transform="translate(196.974 160.716)" fill="#7d25f5"/>
      <rect id="Rectangle_17294" data-name="Rectangle 17294" width="131.214" height="11.984" rx="2.41" transform="translate(196.974 189.59)" fill="#7d25f5"/>
      <rect id="Rectangle_17295" data-name="Rectangle 17295" width="98.109" height="11.984" rx="2.41" transform="translate(196.974 218.465)" fill="#7d25f5"/>
      <rect id="Rectangle_17296" data-name="Rectangle 17296" width="83.036" height="11.984" rx="2.41" transform="translate(308.981 218.465)" fill="#7d25f5"/>
      <g id="Group_2306" data-name="Group 2306" transform="translate(196.974 160.716)" opacity="0.5">
        <rect id="Rectangle_17297" data-name="Rectangle 17297" width="188.464" height="11.984" rx="2.41" fill="#fff"/>
        <rect id="Rectangle_17298" data-name="Rectangle 17298" width="131.214" height="11.984" rx="2.41" transform="translate(0 28.874)" fill="#fff"/>
        <rect id="Rectangle_17299" data-name="Rectangle 17299" width="98.109" height="11.984" rx="2.41" transform="translate(0 57.749)" fill="#fff"/>
        <rect id="Rectangle_17300" data-name="Rectangle 17300" width="83.036" height="11.984" rx="2.41" transform="translate(112.007 57.749)" fill="#fff"/>
      </g>
      <rect id="Rectangle_17301" data-name="Rectangle 17301" width="106.924" height="149.89" rx="6.42" transform="translate(167.263 269.2)" fill="#7d25f5"/>
      <rect id="Rectangle_17302" data-name="Rectangle 17302" width="106.924" height="149.89" rx="6.42" transform="translate(167.263 269.2)" opacity="0.4"/>
      <rect id="Rectangle_17303" data-name="Rectangle 17303" width="82.168" height="6.644" rx="1.18" transform="translate(179.633 284.836)" fill="#fafafa"/>
      <rect id="Rectangle_17304" data-name="Rectangle 17304" width="57.218" height="6.644" rx="1.18" transform="translate(179.633 300.826)" fill="#fafafa"/>
      <rect id="Rectangle_17305" data-name="Rectangle 17305" width="82.168" height="6.644" rx="1.18" transform="translate(179.633 316.831)" fill="#fafafa"/>
      <rect id="Rectangle_17306" data-name="Rectangle 17306" width="32.928" height="6.644" rx="1.18" transform="translate(179.633 332.821)" fill="#fafafa"/>
      <rect id="Rectangle_17307" data-name="Rectangle 17307" width="32.928" height="6.644" rx="1.18" transform="translate(220.395 332.821)" fill="#fafafa"/>
      <rect id="Rectangle_17308" data-name="Rectangle 17308" width="82.168" height="6.644" rx="1.18" transform="translate(179.633 348.826)" fill="#fafafa"/>
      <rect id="Rectangle_17309" data-name="Rectangle 17309" width="82.168" height="6.644" rx="1.18" transform="translate(179.633 364.816)" fill="#fafafa"/>
      <rect id="Rectangle_17310" data-name="Rectangle 17310" width="68.269" height="6.644" rx="1.18" transform="translate(179.633 380.822)" fill="#fafafa"/>
      <rect id="Rectangle_17311" data-name="Rectangle 17311" width="33.877" height="6.644" rx="1.18" transform="translate(179.633 396.811)" fill="#fafafa"/>
      <path id="Path_4996" data-name="Path 4996" d="M331.774,213.33H212.11l52.907,42.1,81.122,30.564V227.663a14.365,14.365,0,0,0-14.365-14.333Z" transform="translate(-44.574 54.953)" fill="#7d25f5"/>
      <path id="Path_4997" data-name="Path 4997" d="M331.774,213.33H212.11l52.907,42.1,81.122,30.564V227.663a14.365,14.365,0,0,0-14.365-14.333Z" transform="translate(-44.574 54.953)" opacity="0.4"/>
      <rect id="Rectangle_17312" data-name="Rectangle 17312" width="92.318" height="9.201" rx="1.48" transform="translate(192.035 289.967)" fill="#fafafa"/>
      <rect id="Rectangle_17313" data-name="Rectangle 17313" width="107.519" height="169.499" rx="7.26" transform="translate(494.148 286.396) rotate(90)" fill="#7d25f5"/>
      <rect id="Rectangle_17314" data-name="Rectangle 17314" width="107.519" height="169.499" rx="7.26" transform="translate(520.835 259.726) rotate(90)" fill="#7d25f5"/>
      <rect id="Rectangle_17315" data-name="Rectangle 17315" width="107.519" height="169.499" rx="7.26" transform="translate(520.835 259.726) rotate(90)" fill="#fff" opacity="0.5"/>
      <rect id="Rectangle_17316" data-name="Rectangle 17316" width="62.205" height="58.151" rx="3.23" transform="translate(506.003 269.715) rotate(90)" fill="#7d25f5"/>
      <rect id="Rectangle_17317" data-name="Rectangle 17317" width="62.205" height="58.151" rx="3.23" transform="translate(506.003 269.715) rotate(90)" fill="#fff" opacity="0.7"/>
      <rect id="Rectangle_17318" data-name="Rectangle 17318" width="47.679" height="44.574" rx="2.48" transform="translate(438.748 308.096) rotate(90)" fill="#7d25f5"/>
      <rect id="Rectangle_17319" data-name="Rectangle 17319" width="47.679" height="44.574" rx="2.48" transform="translate(438.748 308.096) rotate(90)" fill="#fff" opacity="0.3"/>
      <rect id="Rectangle_17320" data-name="Rectangle 17320" width="45.186" height="416.452" rx="7.38" transform="translate(416.452 66.757) rotate(90)" fill="#7d25f5"/>
      <rect id="Rectangle_17321" data-name="Rectangle 17321" width="45.186" height="416.452" rx="7.38" transform="translate(416.452 66.757) rotate(90)" fill="#fff" opacity="0.5"/>
      <rect id="Rectangle_17322" data-name="Rectangle 17322" width="15.555" height="113.005" transform="translate(342.151 103.948) rotate(90)" fill="#7d25f5"/>
      <rect id="Rectangle_17323" data-name="Rectangle 17323" width="15.555" height="113.005" transform="translate(342.151 103.948) rotate(90)" fill="#fff" opacity="0.5"/>
      <rect id="Rectangle_17324" data-name="Rectangle 17324" width="45.186" height="416.452" rx="7.38" transform="translate(456.973) rotate(90)" fill="#7d25f5"/>
    </g>
    <g id="freepik--Character--inject-21" transform="translate(139.856 124.118)">
      <path id="Path_4998" data-name="Path 4998" d="M142.094,197.267c-1.416,3.217-2.976,6.692-4.343,10.086s-2.783,6.885-4.022,10.359a146.95,146.95,0,0,0-6.1,20.8l-.467,2.574-.161.965a3.338,3.338,0,0,1-.1.949,39.459,39.459,0,0,0,.1,4.7,94.749,94.749,0,0,0,1.609,10.665c1.351,7.287,3.072,14.8,4.826,22.2l-8.252,3.217a149.036,149.036,0,0,1-9.8-21.861,91.691,91.691,0,0,1-3.41-12.016,43.131,43.131,0,0,1-.9-6.853c0-.643,0-1.255,0-1.946a9.626,9.626,0,0,1,.113-1.914l.322-3.217a101.342,101.342,0,0,1,2.2-12.306c.9-4.022,2.059-7.93,3.217-11.791s2.606-7.657,4.134-11.389c.756-1.866,1.609-3.716,2.349-5.566a61.634,61.634,0,0,1,2.638-5.6Z" transform="translate(-72.252 -37.227)" fill="#e4897b"/>
      <path id="Path_4999" data-name="Path 4999" d="M128.207,244.69l6.274,6.129-13.689,6.434s-3.314-5.807-1.013-11.051Z" transform="translate(-67.454 -3.528)" fill="#e4897b"/>
      <path id="Path_5000" data-name="Path 5000" d="M138.85,257.621l-11.566,4.729-7.174-7.48,13.673-6.37Z" transform="translate(-66.757 -1.21)" fill="#e4897b"/>
      <path id="Path_5001" data-name="Path 5001" d="M316.344,337.44A115.82,115.82,0,1,1,444.373,235.18,115.82,115.82,0,0,1,316.344,337.44Z" transform="translate(-9.957 -87.624)" fill="#fafafa" opacity="0.4"/>
      <path id="Path_5002" data-name="Path 5002" d="M400.413,128.826,224.27,269.563c-.74-1.609-1.464-3.217-2.139-4.826a114.6,114.6,0,0,1-8.381-32.944h0L365.892,110.23a114.453,114.453,0,0,1,34.521,18.6Z" transform="translate(-9.767 -85.362)" fill="#fafafa" opacity="0.4"/>
      <path id="Path_5003" data-name="Path 5003" d="M432.791,177.678,267.185,309.986a115.594,115.594,0,0,1-39.845-34.231L408.164,131.27a115.819,115.819,0,0,1,24.628,46.408Z" transform="translate(-1.496 -72.557)" fill="#fafafa" opacity="0.4"/>
      <path id="Path_5004" data-name="Path 5004" d="M204.968,183.5l-1.528-.515a141.046,141.046,0,0,1,9.941-22.6l1.4.772a139.836,139.836,0,0,0-9.812,22.344ZM224.5,145.955l-1.3-.949a139.467,139.467,0,0,1,50.462-42.162l.724,1.448A137.922,137.922,0,0,0,224.5,146ZM400.784,106.5A134.488,134.488,0,0,0,384.5,99.112l.579-1.512a137.735,137.735,0,0,1,16.44,7.528Z" transform="translate(-16.041 -93.048)" fill="#7d25f5"/>
      <path id="Path_5005" data-name="Path 5005" d="M204.968,183.5l-1.528-.515a141.046,141.046,0,0,1,9.941-22.6l1.4.772a139.836,139.836,0,0,0-9.812,22.344ZM224.5,145.955l-1.3-.949a139.467,139.467,0,0,1,50.462-42.162l.724,1.448A137.922,137.922,0,0,0,224.5,146ZM400.784,106.5A134.488,134.488,0,0,0,384.5,99.112l.579-1.512a137.735,137.735,0,0,1,16.44,7.528Z" transform="translate(-16.041 -93.048)" opacity="0.3"/>
      <path id="Path_5006" data-name="Path 5006" d="M514.017,170.326A133.514,133.514,0,0,0,268.463,274.451c-10.746,3.764-21.362,7.8-31.915,11.968q-22.826,9.056-45.234,18.917c-14.928,6.611-29.791,13.351-44.51,20.4-7.383,3.458-14.671,7.11-22.022,10.649a31.834,31.834,0,0,0-10.2,7,30.805,30.805,0,0,0-4.134,5.421,27.749,27.749,0,0,0-3.217,7.448,20.462,20.462,0,0,0,11.791,23.888,28.248,28.248,0,0,0,7.818,2.027,30.369,30.369,0,0,0,6.837,0,31.786,31.786,0,0,0,11.743-3.845c7.287-3.684,14.622-7.239,21.861-11.019,14.477-7.383,28.955-15.089,43.255-22.907s28.617-16.006,42.58-24.4c9.652-5.839,19.4-11.807,28.955-18.049A133.514,133.514,0,0,0,514.049,170.326ZM440.89,324a105.412,105.412,0,1,1,47.856-141.2A105.412,105.412,0,0,1,440.89,324Z" transform="translate(-74.984 -94.77)" fill="#7d25f5"/>
      <path id="Path_5007" data-name="Path 5007" d="M514.017,170.326A133.514,133.514,0,0,0,268.463,274.451c-10.746,3.764-21.362,7.8-31.915,11.968q-22.826,9.056-45.234,18.917c-14.928,6.611-29.791,13.351-44.51,20.4-7.383,3.458-14.671,7.11-22.022,10.649a31.834,31.834,0,0,0-10.2,7,30.805,30.805,0,0,0-4.134,5.421,27.749,27.749,0,0,0-3.217,7.448,20.462,20.462,0,0,0,11.791,23.888,28.248,28.248,0,0,0,7.818,2.027,30.369,30.369,0,0,0,6.837,0,31.786,31.786,0,0,0,11.743-3.845c7.287-3.684,14.622-7.239,21.861-11.019,14.477-7.383,28.955-15.089,43.255-22.907s28.617-16.006,42.58-24.4c9.652-5.839,19.4-11.807,28.955-18.049A133.514,133.514,0,0,0,514.049,170.326ZM440.89,324a105.412,105.412,0,1,1,47.856-141.2A105.412,105.412,0,0,1,440.89,324Z" transform="translate(-74.984 -94.77)" opacity="0.3"/>
      <path id="Path_5008" data-name="Path 5008" d="M158,159.2c0,.949.5,1.721,1.126,1.721s1.126-.772,1.126-1.721-.5-1.721-1.126-1.721S158,158.316,158,159.2Z" transform="translate(-43.697 -56.605)" fill="#263238"/>
      <path id="Path_5009" data-name="Path 5009" d="M158.28,159.62a34.31,34.31,0,0,0,4.552,8.156,5.485,5.485,0,0,1-4.552.853Z" transform="translate(-43.526 -55.302)" fill="#de5753"/>
      <path id="Path_5010" data-name="Path 5010" d="M156.145,156.068a.6.6,0,0,1-.466-.225.579.579,0,0,1,.129-.788,5.518,5.518,0,0,1,5.035-.853.563.563,0,1,1-.4,1.046,4.392,4.392,0,0,0-3.973.724A.579.579,0,0,1,156.145,156.068Z" transform="translate(-45.171 -58.764)" fill="#263238"/>
      <path id="Path_5011" data-name="Path 5011" d="M138.81,163c1.609,8.638,3.378,24.483-2.67,30.258,0,0,2.365,8.767,18.435,8.767,17.695,0,8.429-8.767,8.429-8.767-9.652-2.316-9.378-9.459-7.705-16.183Z" transform="translate(-57.001 -53.245)" fill="#e4897b"/>
      <path id="Path_5012" data-name="Path 5012" d="M132.143,189.366c1.914-2.976-1.3-10.2-1.3-10.2s28.44-7.158,40.07,3.828c2.413,2.268-.257,5.614-.257,5.614Z" transform="translate(-60.226 -44.801)" fill="#7d25f5"/>
      <path id="Path_5013" data-name="Path 5013" d="M132.143,189.366c1.914-2.976-1.3-10.2-1.3-10.2s28.44-7.158,40.07,3.828c2.413,2.268-.257,5.614-.257,5.614Z" transform="translate(-60.226 -44.801)" opacity="0.1"/>
      <path id="Path_5014" data-name="Path 5014" d="M104.158,390.137c-1.5,0-3.893-2.493-4.6-3.426a.274.274,0,0,1,0-.306.289.289,0,0,1,.257-.145c.177,0,4.118.354,5.2,1.753a1.3,1.3,0,0,1,.257,1.062,1.158,1.158,0,0,1-.836,1.046Zm-3.732-3.217c1.174,1.351,3.056,2.879,3.861,2.686,0,0,.322-.08.418-.6a.724.724,0,0,0-.161-.611,7.512,7.512,0,0,0-4.118-1.512Z" transform="translate(-79.293 82.632)" fill="#7d25f5"/>
      <path id="Path_5015" data-name="Path 5015" d="M100.617,387.794a4.312,4.312,0,0,1-.869,0,.257.257,0,0,1-.225-.177.322.322,0,0,1,0-.289c.113-.1,2.477-2.558,4.263-2.558h0a1.512,1.512,0,0,1,1.142.482.917.917,0,0,1,.225,1.126C104.687,387.28,102.225,387.794,100.617,387.794Zm-.209-.563c1.609,0,3.941-.5,4.327-1.206,0,0,.113-.209-.145-.467a.949.949,0,0,0-.74-.306h0A6.8,6.8,0,0,0,100.408,387.231Z" transform="translate(-79.307 81.725)" fill="#7d25f5"/>
      <path id="Path_5016" data-name="Path 5016" d="M169.846,412.46a21.325,21.325,0,0,1-3.635-.338.257.257,0,0,1-.209-.257.29.29,0,0,1,.129-.29c.177-.1,4.295-2.461,6.274-1.914a1.383,1.383,0,0,1,.885.643,1.062,1.062,0,0,1,0,1.223C172.822,412.251,171.358,412.46,169.846,412.46Zm-2.719-.756c2.188.322,5.18.306,5.727-.466.08-.1.145-.273,0-.611a.9.9,0,0,0-.547-.4C171.052,409.9,168.559,410.964,167.127,411.7Z" transform="translate(-38.829 96.824)" fill="#7d25f5"/>
      <path id="Path_5017" data-name="Path 5017" d="M166.276,413.181a.29.29,0,0,1-.161,0,.257.257,0,0,1-.113-.273,7.85,7.85,0,0,1,1.834-4.552,2.011,2.011,0,0,1,1.609-.466.928.928,0,0,1,1.046.772c.209,1.335-2.606,3.893-4.038,4.536Zm2.879-4.826a1.464,1.464,0,0,0-.965.354,6.435,6.435,0,0,0-1.609,3.651c1.448-.885,3.378-2.879,3.217-3.684,0,0,0-.273-.547-.322Z" transform="translate(-38.83 95.782)" fill="#7d25f5"/>
      <path id="Path_5018" data-name="Path 5018" d="M158.09,421.342h11.823l1.174-27.362H159.264Z" transform="translate(-43.642 87.331)" fill="#e4897b"/>
      <path id="Path_5019" data-name="Path 5019" d="M92.64,388.765l9.877,6.467,21.813-18.419-9.893-6.483Z" transform="translate(-83.475 72.937)" fill="#e4897b"/>
      <path id="Path_5020" data-name="Path 5020" d="M107.609,388.7l-10.263-8.413a1.013,1.013,0,0,0-1.287,0L87.6,386.931a1.737,1.737,0,0,0,0,2.719c3.635,2.879,5.55,4.1,10.07,7.8,2.783,2.268,9.652,9.217,13.528,12.354s7.432-.241,6.145-1.866c-5.775-7.319-8.043-13.577-8.7-17.453a2.912,2.912,0,0,0-1.03-1.786Z" transform="translate(-86.943 78.857)" fill="#263238"/>
      <path id="Path_5021" data-name="Path 5021" d="M171.541,410.14H158.673a1.045,1.045,0,0,0-1.013.8l-2.332,10.5a1.721,1.721,0,0,0,1.705,2.107c4.649-.08,11.373-.354,17.228-.354,6.837,0,12.756.37,20.767.37,4.826,0,6.209-4.906,4.166-5.341C189.96,416.2,182.4,416,174.421,411.057A5.534,5.534,0,0,0,171.541,410.14Z" transform="translate(-45.35 97.166)" fill="#263238"/>
      <path id="Path_5022" data-name="Path 5022" d="M127.746,184.5C117.5,189.327,111.66,221.66,111.66,221.66l25.046,9.989a186.325,186.325,0,0,0,8.863-27.588C149.012,189.166,138.234,179.515,127.746,184.5Z" transform="translate(-71.899 -40.966)" fill="#263238"/>
      <path id="Path_5023" data-name="Path 5023" d="M133.8,195.844c-6.193,6.274-9.024,18.563-10.263,26.558l6,2.4a187.725,187.725,0,0,0,8.686-26.783C137.7,194.606,136.377,193.238,133.8,195.844Z" transform="translate(-64.669 -34.084)" fill="#203048"/>
      <path id="Path_5024" data-name="Path 5024" d="M189.184,185.246s12.579,14.22.708,102.147h-63.2c-.434-9.652,5.662-57.025-3.7-102.742a161.761,161.761,0,0,1,21.153-2.67,226.593,226.593,0,0,1,26.864,0,119.344,119.344,0,0,1,18.177,3.265Z" transform="translate(-65.004 -41.936)" fill="#263238"/>
      <path id="Path_5025" data-name="Path 5025" d="M172.739,212.024,162.09,193.67a93.8,93.8,0,0,0-2.493,26.172c.29,6.306,6.064,29.663,11.26,33.073A371.341,371.341,0,0,0,172.739,212.024Z" transform="translate(-42.784 -34.579)" fill="#203048"/>
      <path id="Path_5026" data-name="Path 5026" d="M175.3,191.67c1.609,7.818,3.217,15.829,4.938,23.679s3.507,15.732,5.582,23.341c.531,1.882,1.03,3.812,1.609,5.614l.434,1.383.209.692v-.08c-.113-.145-.241-.161-.145,0a5.389,5.389,0,0,0,2.445,1.528,28.7,28.7,0,0,0,4.681,1.3,125.128,125.128,0,0,0,23,1.5l1.528,8.751c-2.156.692-4.166,1.19-6.29,1.689s-4.215.917-6.354,1.239a68.734,68.734,0,0,1-13.4.9,36.372,36.372,0,0,1-7.4-.965,21.54,21.54,0,0,1-8.493-3.941,15.523,15.523,0,0,1-3.973-4.826c-.257-.483-.483-1.03-.692-1.5l-.29-.756-.6-1.609c-.82-2.043-1.5-4.054-2.236-6.064-2.719-8.043-4.987-16.167-6.981-24.274s-3.716-16.2-5.148-24.515Z" transform="translate(-43.861 -35.797)" fill="#e4897b"/>
      <path id="Path_5027" data-name="Path 5027" d="M154.53,192.75c-3.33,10.794,10.166,42.982,10.166,42.982l26.88-6.756s-1.03-16.729-7.158-30C175.184,178.964,158.519,179.8,154.53,192.75Z" transform="translate(-46.13 -40.818)" fill="#263238"/>
      <path id="Path_5028" data-name="Path 5028" d="M198,228.448l13.384-.338-6.434,13.931s-5.453.724-9.925-6.627l-4.713-5.63,5.421-1.078a12.1,12.1,0,0,1,2.268-.257Z" transform="translate(-24.032 -13.619)" fill="#e4897b"/>
      <path id="Path_5029" data-name="Path 5029" d="M214.29,230.7l-7.657,11.55-7.223-.209,6.434-13.931Z" transform="translate(-18.494 -13.619)" fill="#e4897b"/>
      <path id="Path_5030" data-name="Path 5030" d="M170.875,393.98l-.611,14.107H158.44l.611-14.107Z" transform="translate(-43.429 87.331)" fill="#ce6f64"/>
      <path id="Path_5031" data-name="Path 5031" d="M110.444,370.33l9.893,6.483-11.26,9.491L99.2,379.837Z" transform="translate(-79.483 72.937)" fill="#ce6f64"/>
      <path id="Path_5032" data-name="Path 5032" d="M138.274,163.778c.708,11.695.531,18.6,6.434,24.6,8.88,9.056,23.341,3.7,26.14-8.043,2.526-10.52.949-27.893-10.5-32.558a16.086,16.086,0,0,0-22.07,16.006Z" transform="translate(-55.724 -63.225)" fill="#e4897b"/>
      <path id="Path_5033" data-name="Path 5033" d="M129.84,166.707c2.912,10.665,9.764,22.955,18.628,23.743,11,.965,15.973-10.408,17.421-22.151,6.6-4.52,3.137-9.491,9.748-10.118,8.493-.8,5.775-16.343-5.4-18.837,0,0,3.748,7-4.118,3.458a45.4,45.4,0,0,0-24.033-4.166s10.038,5.019.225,7.255-12.74,8.284-8.22,11.936C134.086,157.843,127.925,159.693,129.84,166.707Z" transform="translate(-61.06 -68.212)" fill="#263238"/>
      <path id="Path_5034" data-name="Path 5034" d="M147.945,160.357a13.223,13.223,0,0,0,3.33,7.834c2.574,2.847,5.26,1.078,5.711-2.381.418-3.1-.434-8.333-3.587-9.909S147.735,156.85,147.945,160.357Z" transform="translate(-49.824 -57.857)" fill="#e4897b"/>
      <path id="Path_5035" data-name="Path 5035" d="M183.012,247.366s11.518,83.406,2.445,116.833c-14.381,52.923-69.363,97.594-69.363,97.594L97.45,449.568S144.277,411.846,150,367.529c5.148-39.781-7.77-87.894-7.77-120.179Z" transform="translate(-80.548 -1.909)" fill="#7d25f5"/>
      <path id="Path_5036" data-name="Path 5036" d="M183.012,247.366s11.518,83.406,2.445,116.833c-14.381,52.923-69.363,97.594-69.363,97.594L97.45,449.568S144.277,411.846,150,367.529c5.148-39.781-7.77-87.894-7.77-120.179Z" transform="translate(-80.548 -1.909)" opacity="0.1"/>
      <path id="Path_5037" data-name="Path 5037" d="M157.416,280.652A77.86,77.86,0,0,0,147.33,271c1.962,27.073,3.571,67.175,1.786,95.664a122.923,122.923,0,0,0,5.984-16.842C159.523,333.494,159.057,305.3,157.416,280.652Z" transform="translate(-50.19 12.484)" fill="#7d25f5"/>
      <path id="Path_5038" data-name="Path 5038" d="M157.416,280.652A77.86,77.86,0,0,0,147.33,271c1.962,27.073,3.571,67.175,1.786,95.664a122.923,122.923,0,0,0,5.984-16.842C159.523,333.494,159.057,305.3,157.416,280.652Z" transform="translate(-50.19 12.484)" opacity="0.3"/>
      <path id="Path_5039" data-name="Path 5039" d="M124.148,383.31c.08,0-7.223,4.826-7.223,4.826L96.56,374.785l6.434-5.325Z" transform="translate(-81.089 72.408)" fill="#7d25f5"/>
      <path id="Path_5040" data-name="Path 5040" d="M124.148,383.31c.08,0-7.223,4.826-7.223,4.826L96.56,374.785l6.434-5.325Z" transform="translate(-81.089 72.408)" opacity="0.3"/>
      <path id="Path_5041" data-name="Path 5041" d="M180.3,247.36s17.791,75.444,19.046,111.492c1.416,40.408-12.692,135.734-12.692,135.734H166.627s-2.461-96.066-3.346-132.871C162.3,321.581,138.75,247.36,138.75,247.36Z" transform="translate(-55.412 -1.903)" fill="#7d25f5"/>
      <path id="Path_5042" data-name="Path 5042" d="M180.3,247.36s17.791,75.444,19.046,111.492c1.416,40.408-12.692,135.734-12.692,135.734H166.627s-2.461-96.066-3.346-132.871C162.3,321.581,138.75,247.36,138.75,247.36Z" transform="translate(-55.412 -1.903)" opacity="0.1"/>
      <path id="Path_5043" data-name="Path 5043" d="M180.81,396.1c.1,0-1.126,8.3-1.126,8.3H155.33l-.66-7.416Z" transform="translate(-45.723 88.621)" fill="#7d25f5"/>
      <path id="Path_5044" data-name="Path 5044" d="M180.81,396.1c.1,0-1.126,8.3-1.126,8.3H155.33l-.66-7.416Z" transform="translate(-45.723 88.621)" opacity="0.3"/>
    </g>
    <g id="freepik--character--inject-21-2" data-name="freepik--character--inject-21" transform="translate(488.436 224.792)">
      <path id="Path_5045" data-name="Path 5045" d="M359.189,202.29c1.367,1.287,2.445,2.381,3.571,3.6s2.188,2.413,3.217,3.652c2.091,2.461,4.054,5.051,5.952,7.657a122.686,122.686,0,0,1,10.086,16.5l.6,1.174a11.331,11.331,0,0,1,.724,1.769,14.671,14.671,0,0,1,.708,3.635,17.694,17.694,0,0,1-.885,6.434,32.432,32.432,0,0,1-5.164,9.523,68.658,68.658,0,0,1-14.156,13.609l-4.005-4.6c1.882-2.2,3.845-4.568,5.6-6.933a59.127,59.127,0,0,0,4.826-7.239,25.138,25.138,0,0,0,2.928-7.11,7.368,7.368,0,0,0,.113-2.735,3.566,3.566,0,0,0-.29-.885A2.553,2.553,0,0,0,372.8,240l-.515-.869A169,169,0,0,0,362.2,224.473c-1.786-2.365-3.7-4.633-5.63-6.869-.949-1.126-1.93-2.22-2.912-3.314s-2.043-2.188-2.9-3.04Z" transform="translate(-274.961 -130.008)" fill="#e4897b"/>
      <path id="Path_5046" data-name="Path 5046" d="M361.906,241.333,349.89,239.37l6.29,10.52s7.737-.273,9.941-4.826Z" transform="translate(-275.491 -107.441)" fill="#e4897b"/>
      <path id="Path_5047" data-name="Path 5047" d="M344.37,244.228l5.727,8.542,9.443-2.879-6.29-10.52Z" transform="translate(-278.85 -107.441)" fill="#e4897b"/>
      <path id="Path_5048" data-name="Path 5048" d="M358.061,412.434a3.458,3.458,0,0,1-2.3-.627,1.609,1.609,0,0,1-.467-1.512.949.949,0,0,1,.563-.8c1.4-.627,5.067,1.721,5.485,1.995a.291.291,0,0,1-.1.515,14.241,14.241,0,0,1-3.185.434Zm-1.609-2.493a1.16,1.16,0,0,0-.354,0,.418.418,0,0,0-.241.37,1.078,1.078,0,0,0,.29,1.013c.611.547,2.188.627,4.295.209a10.6,10.6,0,0,0-3.989-1.593Z" transform="translate(-272.224 -3.969)" fill="#7d25f5"/>
      <path id="Path_5049" data-name="Path 5049" d="M360.226,413.057h-.145c-1.142-.66-3.346-3.217-3.072-4.617a1.046,1.046,0,0,1,.965-.8,1.448,1.448,0,0,1,1.206.386c1.319,1.158,1.335,4.633,1.335,4.826a.306.306,0,0,1-.145.241Zm-2.059-4.826h-.129c-.354,0-.434.193-.467.338-.161.82,1.206,2.783,2.349,3.7a6.579,6.579,0,0,0-1.11-3.8.916.916,0,0,0-.724-.241Z" transform="translate(-271.172 -5.042)" fill="#7d25f5"/>
      <path id="Path_5050" data-name="Path 5050" d="M324.226,412.435a4.457,4.457,0,0,1-2.912-.74,1.609,1.609,0,0,1-.531-1.383.933.933,0,0,1,.483-.756c1.5-.837,6.29,1.609,6.837,1.914a.322.322,0,0,1,.145.306.274.274,0,0,1-.225.225A20.048,20.048,0,0,1,324.226,412.435Zm-2.139-2.493a1,1,0,0,0-.531.113.338.338,0,0,0-.193.306,1.045,1.045,0,0,0,.322.917c.74.66,2.719.772,5.389.322a15.651,15.651,0,0,0-4.987-1.657Z" transform="translate(-293.211 -3.97)" fill="#7d25f5"/>
      <path id="Path_5051" data-name="Path 5051" d="M326.837,413.056h-.129c-1.432-.643-4.279-3.217-4.054-4.617,0-.322.29-.724,1.078-.8a2.123,2.123,0,0,1,1.609.5c1.512,1.255,1.8,4.5,1.8,4.649a.273.273,0,0,1-.113.257.3.3,0,0,1-.193.016Zm-2.879-4.826h-.177c-.515,0-.547.257-.563.322-.129.82,1.8,2.863,3.217,3.748a6.692,6.692,0,0,0-1.609-3.716A1.5,1.5,0,0,0,323.958,408.23Z" transform="translate(-292.074 -5.041)" fill="#7d25f5"/>
      <path id="Path_5052" data-name="Path 5052" d="M344.523,179.3c-.466,7.271-1.721,22.038,3.861,26.124,0,0-1.013,7.448-14.188,9.185-14.477,1.882-7.866-6.29-7.866-6.29,7.673-2.928,6.692-8.767,4.6-14.107Z" transform="translate(-290.746 -144)" fill="#e4897b"/>
      <path id="Path_5053" data-name="Path 5053" d="M320.28,172.425a.547.547,0,0,1-.418-.193,4.552,4.552,0,0,0-3.78-1.609.563.563,0,0,1-.66-.483.579.579,0,0,1,.5-.643,5.646,5.646,0,0,1,4.826,2.027.579.579,0,0,1-.434.949Z" transform="translate(-296.471 -149.978)" fill="#263238"/>
      <path id="Path_5054" data-name="Path 5054" d="M317.872,175.74a26.189,26.189,0,0,1-2.622,6.6,4.15,4.15,0,0,0,3.523.193Z" transform="translate(-296.573 -146.166)" fill="#de5753"/>
      <path id="Path_5055" data-name="Path 5055" d="M318.145,175.245c.129.965-.273,1.8-.9,1.9s-1.255-.643-1.367-1.609.273-1.8.9-1.882S318.033,174.216,318.145,175.245Z" transform="translate(-296.203 -147.441)" fill="#263238"/>
      <path id="Path_5056" data-name="Path 5056" d="M317.517,173.8l-2.4-.37S316.536,175.087,317.517,173.8Z" transform="translate(-296.652 -147.572)" fill="#263238"/>
      <path id="Path_5057" data-name="Path 5057" d="M338.359,421.4H326.294l-.8-27.909h12.065Z" transform="translate(-290.341 -13.642)" fill="#e4897b"/>
      <path id="Path_5058" data-name="Path 5058" d="M373.571,421.4H361.507L357.63,393.49h12.065Z" transform="translate(-270.78 -13.642)" fill="#e4897b"/>
      <path id="Path_5059" data-name="Path 5059" d="M366.129,410h13.544a.949.949,0,0,1,.949.82l1.609,10.729a1.93,1.93,0,0,1-1.93,2.139c-4.713-.08-7-.354-12.949-.354-3.668,0-9.024.37-14.075.37s-5.324-5-3.217-5.453c9.443-2.027,10.939-4.826,14.107-7.512A3.217,3.217,0,0,1,366.129,410Z" transform="translate(-276.142 -3.594)" fill="#263238"/>
      <path id="Path_5060" data-name="Path 5060" d="M333.135,410h13.528a.965.965,0,0,1,.965.82l1.609,10.729a1.93,1.93,0,0,1-1.93,2.139c-4.713-.08-7-.354-12.949-.354-3.668,0-11.26.37-16.311.37s-5.324-5-3.217-5.453c9.442-2.027,13.158-4.826,16.343-7.512A3.217,3.217,0,0,1,333.135,410Z" transform="translate(-297.584 -3.594)" fill="#263238"/>
      <path id="Path_5061" data-name="Path 5061" d="M325.49,393.49l.418,14.4h12.065l-.418-14.4Z" transform="translate(-290.341 -13.642)" fill="#ce6f64"/>
      <path id="Path_5062" data-name="Path 5062" d="M369.695,393.49H357.63l2.011,14.4h12.048Z" transform="translate(-270.78 -13.642)" fill="#ce6f64"/>
      <path id="Path_5063" data-name="Path 5063" d="M349.806,175.761c.82,11.936,1.416,16.971-3.764,23.84-7.8,10.311-22.633,8.719-27.009-2.735-3.941-10.311-4.617-28.086,6.354-34.328a16.327,16.327,0,0,1,24.419,13.223Z" transform="translate(-295.868 -155.517)" fill="#e4897b"/>
      <path id="Path_5064" data-name="Path 5064" d="M357.894,188.682c6.692,3.732,11.662-5.469,11.662-5.469s-12,1.3-10.922-5.839c1.416-9.475-5.373-20.992-22.392-19.512-.949.08-1.85.193-2.735.338a8.751,8.751,0,0,0-10.585,2.445c-4.826.4-11.341,6.161-6.917,13.77a7,7,0,0,1,1.416-2.365c.37,4.456,4.263,11.534,9.121,12,1.046,6.1-3.008,13.158-1.609,19.529,2.075,9.185,17.566,11.26,17.566,11.26a6.708,6.708,0,0,1,.9-7.094c10.52,4.826,17.453.113,17.453.113-7.174-2.67-5-7.432-5-7.432a10.472,10.472,0,0,0,13.657-4.971,12.354,12.354,0,0,1-11.614-6.772Z" transform="translate(-297.007 -157.355)" fill="#263238"/>
      <path id="Path_5065" data-name="Path 5065" d="M327.68,176.641a8.687,8.687,0,0,1-2.413,6.225c-2.123,2.2-4.729.66-5.437-2.156-.627-2.542-.273-6.74,2.493-7.9a3.925,3.925,0,0,1,5.357,3.829Z" transform="translate(-293.947 -148.113)" fill="#e4897b"/>
      <path id="Path_5066" data-name="Path 5066" d="M330.84,245.979S333.9,325.38,341.167,372c5.855,37.674,31.867,125.7,31.867,125.7h16.44s-13.561-85.015-16.537-122.254c-7.528-94.248,12.016-114.485-6.434-134.11Z" transform="translate(-287.085 -106.248)" fill="#263238"/>
      <path id="Path_5067" data-name="Path 5067" d="M343.835,259.842s-7.432-1.287-11.775,12.869c1.609,26.816,4.359,62.4,8.365,88.039.885,5.711,2.236,12.6,3.893,20.14C341.181,335.591,343.835,259.842,343.835,259.842Z" transform="translate(-286.342 -95)" fill="#161f33"/>
      <path id="Path_5068" data-name="Path 5068" d="M327.709,247.007s-13.545,87.846-12.756,124.6c.82,38.237,14.831,125.471,14.831,125.471h16.3s-2.574-84.967-1.142-122.512c1.609-40.939,18.322-132.179,18.322-132.179Z" transform="translate(-296.774 -105.603)" fill="#263238"/>
      <path id="Path_5069" data-name="Path 5069" d="M377.686,403.955H355.825l-1.705-7.335,23.405.161Z" transform="translate(-272.916 -11.737)" fill="#7d25f5"/>
      <path id="Path_5070" data-name="Path 5070" d="M377.686,403.955H355.825l-1.705-7.335,23.405.161Z" transform="translate(-272.916 -11.737)" opacity="0.2"/>
      <path id="Path_5071" data-name="Path 5071" d="M356.943,195.563c6.29.611,15.845,18.483,15.845,18.483l-15.877,12.177s-13.142-11.534-11.582-18.016C346.953,201.467,350.911,195,356.943,195.563Z" transform="translate(-278.345 -134.123)" fill="#7d25f5"/>
      <path id="Path_5072" data-name="Path 5072" d="M356.943,195.563c6.29.611,15.845,18.483,15.845,18.483l-15.877,12.177s-13.142-11.534-11.582-18.016C346.953,201.467,350.911,195,356.943,195.563Z" transform="translate(-278.345 -134.123)" opacity="0.1"/>
      <path id="Path_5073" data-name="Path 5073" d="M352.2,200.542a16.3,16.3,0,0,0-4.922-.547,27.2,27.2,0,0,0-1.946,5.5c-1.609,6.434,11.582,18.016,11.582,18.016l1.174-.9Z" transform="translate(-278.348 -131.413)" fill="#7d25f5"/>
      <path id="Path_5074" data-name="Path 5074" d="M352.2,200.542a16.3,16.3,0,0,0-4.922-.547,27.2,27.2,0,0,0-1.946,5.5c-1.609,6.434,11.582,18.016,11.582,18.016l1.174-.9Z" transform="translate(-278.348 -131.413)" opacity="0.3"/>
      <path id="Path_5075" data-name="Path 5075" d="M329.185,212.826c-4.585,11.6-9.41,23.389-13.255,35.019-.257.74-.466,1.448-.692,2.172l-.547,1.786a2.944,2.944,0,0,0,0,1.609,12.1,12.1,0,0,0,4.166,4.987,67.867,67.867,0,0,0,15.587,8.349L333,272.666a55.8,55.8,0,0,1-19.432-6.338,20.8,20.8,0,0,1-8.67-8.783,13.464,13.464,0,0,1-1.11-7.657,8.958,8.958,0,0,1,.161-.949l.161-.676.273-1.223c.193-.82.386-1.609.6-2.413,1.609-6.434,3.668-12.547,5.839-18.612s4.44-12.048,7-18.016Z" transform="translate(-303.639 -126.533)" fill="#e4897b"/>
      <path id="Path_5076" data-name="Path 5076" d="M313.7,204.265s-5.437,2.751,15.153,71.39l48.548-6.338c-3.41-19.657-5.019-31.834-.885-73.626a146.383,146.383,0,0,0-20.912,0,153.626,153.626,0,0,0-22.054,2.9C324.232,200.662,313.7,204.265,313.7,204.265Z" transform="translate(-297.914 -134.251)" fill="#7d25f5"/>
      <path id="Path_5077" data-name="Path 5077" d="M313.7,204.265s-5.437,2.751,15.153,71.39l48.548-6.338c-3.41-19.657-5.019-31.834-.885-73.626a146.383,146.383,0,0,0-20.912,0,153.626,153.626,0,0,0-22.054,2.9C324.232,200.662,313.7,204.265,313.7,204.265Z" transform="translate(-297.914 -134.251)" opacity="0.1"/>
      <path id="Path_5078" data-name="Path 5078" d="M372.464,239.6l2.783,4.038c.209.322-.145.708-.692.788l-50.912,6.66c-.434,0-.836-.113-.9-.386l-1-4.295c-.08-.29.273-.6.756-.66l49.159-6.434a.885.885,0,0,1,.8.29Z" transform="translate(-292.627 -107.482)" fill="#7d25f5"/>
      <path id="Path_5079" data-name="Path 5079" d="M372.464,239.6l2.783,4.038c.209.322-.145.708-.692.788l-50.912,6.66c-.434,0-.836-.113-.9-.386l-1-4.295c-.08-.29.273-.6.756-.66l49.159-6.434a.885.885,0,0,1,.8.29Z" transform="translate(-292.627 -107.482)" opacity="0.2"/>
      <path id="Path_5080" data-name="Path 5080" d="M350.331,245.84l1.319-.177c.257,0,.434-.193.4-.354l-1.351-5.566a.466.466,0,0,0-.547-.225l-1.319.161c-.273,0-.45.193-.4.37l1.351,5.55C349.816,245.775,350.074,245.872,350.331,245.84Z" transform="translate(-276.382 -107.363)" fill="#263238"/>
      <path id="Path_5081" data-name="Path 5081" d="M330.491,248.4l1.319-.177c.257,0,.45-.193.4-.354l-1.351-5.566a.5.5,0,0,0-.547-.241l-1.319.177c-.257,0-.45.193-.4.354l1.351,5.566C329.976,248.4,330.234,248.5,330.491,248.4Z" transform="translate(-288.457 -105.809)" fill="#263238"/>
      <path id="Path_5082" data-name="Path 5082" d="M314.86,215.816c1.335,6.209,3.217,14.075,5.968,24.033l.6-25.239Z" transform="translate(-296.81 -122.51)" fill="#7d25f5"/>
      <path id="Path_5083" data-name="Path 5083" d="M314.86,215.816c1.335,6.209,3.217,14.075,5.968,24.033l.6-25.239Z" transform="translate(-296.81 -122.51)" opacity="0.3"/>
      <path id="Path_5084" data-name="Path 5084" d="M317.71,201.474c-6.032,2.429-11.26,23.067-11.26,23.067l20.751,10.1s10.022-25.239,5.534-30.161S324.659,198.691,317.71,201.474Z" transform="translate(-301.928 -131.46)" fill="#7d25f5"/>
      <path id="Path_5085" data-name="Path 5085" d="M317.71,201.474c-6.032,2.429-11.26,23.067-11.26,23.067l20.751,10.1s10.022-25.239,5.534-30.161S324.659,198.691,317.71,201.474Z" transform="translate(-301.928 -131.46)" opacity="0.1"/>
      <path id="Path_5086" data-name="Path 5086" d="M344.936,403.955H323.075l-1.705-7.335,24.338.161Z" transform="translate(-292.848 -11.737)" fill="#7d25f5"/>
      <path id="Path_5087" data-name="Path 5087" d="M344.936,403.955H323.075l-1.705-7.335,24.338.161Z" transform="translate(-292.848 -11.737)" opacity="0.2"/>
      <path id="Path_5088" data-name="Path 5088" d="M325.037,243.627l-1.753-.724a2.638,2.638,0,0,0-3.6,2.831l1.271,8.381a2.863,2.863,0,0,0,3.8,2.284,6.436,6.436,0,0,0,1.77-.981,4.826,4.826,0,0,0,1.737-3.989l-.177-3.475a4.826,4.826,0,0,0-3.04-4.327Z" transform="translate(-293.893 -105.409)" fill="#e4897b"/>
    </g>
  </g>
</svg>
