<svg id="freepik--Characters--inject-4" xmlns="http://www.w3.org/2000/svg" width="598.795" height="636.521" viewBox="0 0 598.795 636.521">
  <path id="Path_6043" data-name="Path 6043" d="M64.274,413.6,90.28,448.912,46.488,481.5c-2.894-4.342,13.56-29.639,13.56-29.639l-17.6-21.94Z" transform="translate(508.457 142.877)" fill="#455a64"/>
  <path id="Path_6044" data-name="Path 6044" d="M54.312,431.821a2.214,2.214,0,0,1,2.75,1.114,2.156,2.156,0,0,1-1.085,2.75,2.345,2.345,0,0,1-2.894-1.2,2.229,2.229,0,0,1,1.447-2.735" transform="translate(526.263 150.966)" fill="#fff"/>
  <path id="Path_6045" data-name="Path 6045" d="M86.665,439.232,83.9,435.44,42.989,468.378s-1.3,2.316,0,3.517Z" transform="translate(512.13 152.644)" fill="#263238"/>
  <path id="Path_6046" data-name="Path 6046" d="M60,440.729c.159.217,1.3-.478,2.894-.579s2.793.391,2.894.159-1.114-1.23-3-1.085S59.889,440.57,60,440.729Z" transform="translate(507.545 154.33)" fill="#263238"/>
  <path id="Path_6047" data-name="Path 6047" d="M62.516,444.172c.116.246,1.3-.087,2.706.275s2.316,1.172,2.533,1-.564-1.447-2.316-1.9S62.372,443.969,62.516,444.172Z" transform="translate(501.922 156.213)" fill="#263238"/>
  <path id="Path_6048" data-name="Path 6048" d="M69.5,449.893c.232-.1-.275-1.447-1.693-2.156s-2.764-.478-2.721-.232,1.129.405,2.272,1.056S69.266,450.023,69.5,449.893Z" transform="translate(496.431 157.931)" fill="#263238"/>
  <path id="Path_6049" data-name="Path 6049" d="M63.116,437.536c.246.13,1-.9,2.272-1.708s2.489-1.143,2.475-1.447-1.447-.362-2.981.622S62.885,437.449,63.116,437.536Z" transform="translate(501.047 152.082)" fill="#263238"/>
  <path id="Path_6050" data-name="Path 6050" d="M55.851,322.872c-.781,4.428-2.026,42.1-2.822,61.969s1.187,29.639,3.459,34.1,87.961,67.6,94.487,82.722l21.708-17.5s-31.838-57.15-45.413-67.541-39.7-19.928-39.7-19.928L95,287.879,59.411,285.94Z" transform="translate(411.003 85.788)" fill="#263238"/>
  <path id="Path_6051" data-name="Path 6051" d="M132.487,437.73l.376,43.807-54.574.753c.246-5.21,28.336-16.078,28.336-16.078l-1.447-28.09Z" transform="translate(414.006 153.668)" fill="#455a64"/>
  <path id="Path_6052" data-name="Path 6052" d="M86.266,455.671a2.229,2.229,0,0,1,1.577,2.518,2.156,2.156,0,0,1-2.489,1.592A2.359,2.359,0,0,1,83.7,457.1a2.214,2.214,0,0,1,2.764-1.36" transform="translate(451.211 161.675)" fill="#fff"/>
  <path id="Path_6053" data-name="Path 6053" d="M132.866,469.563v-4.7L80.4,467.581s-2.4,1.114-2.1,2.822Z" transform="translate(414.018 165.8)" fill="#263238"/>
  <path id="Path_6054" data-name="Path 6054" d="M93.541,457.348c0,.275,1.346.376,2.663,1.216s2.041,1.939,2.287,1.838-.174-1.65-1.795-2.634S93.425,457.1,93.541,457.348Z" transform="translate(426.252 162.328)" fill="#263238"/>
  <path id="Path_6055" data-name="Path 6055" d="M98.476,459.042c0,.26,1.114.695,2.026,1.809s1.2,2.316,1.447,2.287.42-1.52-.753-2.894S98.476,458.738,98.476,459.042Z" transform="translate(415.528 163.138)" fill="#263238"/>
  <path id="Path_6056" data-name="Path 6056" d="M105.117,465.144c.246,0,.593-1.288-.1-2.735s-1.968-2.012-2.069-1.795.666,1,1.23,2.2S104.857,465.115,105.117,465.144Z" transform="translate(405.775 163.881)" fill="#263238"/>
  <path id="Path_6057" data-name="Path 6057" d="M92.753,453.108c.116.246,1.331-.145,2.894,0s2.692.535,2.894.3-1-1.158-2.779-1.23S92.623,452.905,92.753,453.108Z" transform="translate(427.387 160.128)" fill="#263238"/>
  <path id="Path_6058" data-name="Path 6058" d="M75.514,293.232c0,2.562-4.153,67.411,17.048,114.329,0,0,7.337,14.675,8.683,21.086S130.015,541.4,130.015,541.4l31.694-1.158s5.065-53.271,0-84.111-14.472-27.222-14.472-47.135,4.732-61.2,4.732-61.2,6.918-11.274,9.277-33.141c1.925-17.757-6.44-36.788-6.44-36.788l-8.263-14.631L76.628,259.57Z" transform="translate(387.404 73.995)" fill="#263238"/>
  <path id="Path_6059" data-name="Path 6059" d="M75.336,293.3v-2.214c0-1.462.087-3.633.145-6.484.13-5.716.347-14.139.608-25.022v-.159h.174l69.914,3.56h.145l.087.13c2.562,4.544,5.384,9.508,8.278,14.631h0a93.646,93.646,0,0,1,5.022,16.064,71.534,71.534,0,0,1,1.751,17.641,109.105,109.105,0,0,1-2.894,18.365,74.632,74.632,0,0,1-6.7,18.191v-.145c-1.2,10.8-2.315,21.983-3.256,33.5-.463,5.789-.868,11.578-1.158,17.526-.145,2.894-.26,5.934-.275,8.929,0,1.447,0,3,.087,4.486a41.647,41.647,0,0,0,.55,4.457,29.291,29.291,0,0,0,3.111,8.48c1.447,2.706,2.894,5.384,4.342,8.206a77.179,77.179,0,0,1,5.688,17.945c2.518,12.446,3.025,25.384,3.169,38.423,0,17.207-.81,34.111-2.229,50.449v.347h-.333l-31.694,1.158h-.3l-.072-.3c-9.19-35.616-17.757-68.9-25.311-98.829l-2.735-11.071c-.478-1.838-.781-3.661-1.346-5.4s-1.2-3.459-1.867-5.137c-1.36-3.358-2.894-6.614-4.342-9.783l-1.129-2.359a23.308,23.308,0,0,1-1.071-2.373c-.651-1.606-1.3-3.184-1.954-4.761a192.019,192.019,0,0,1-10-36.079A313.78,313.78,0,0,1,74.96,312.5c-.087-12.475.42-19.248.42-19.248V294.5c0,.825,0,2.084-.087,3.7-.087,3.256-.145,8.061,0,14.3a321.94,321.94,0,0,0,4.819,53.127,191.9,191.9,0,0,0,10.13,35.948l1.939,4.732c.318.81.68,1.577,1.071,2.359s.767,1.577,1.143,2.373c1.447,3.169,2.981,6.426,4.342,9.8.68,1.693,1.331,3.415,1.9,5.181s.9,3.633,1.36,5.427c.912,3.647,1.823,7.323,2.764,11.071,7.685,29.9,16.238,63.185,25.4,98.8l-.376-.275,31.694-1.172-.376.347c1.447-16.31,2.287-33.2,2.229-50.377-.145-13.025-.651-25.9-3.155-38.264a77.441,77.441,0,0,0-5.63-17.786c-1.3-2.793-2.894-5.441-4.342-8.191a30.263,30.263,0,0,1-3.068-8.683,40.42,40.42,0,0,1-.564-4.559c0-1.447-.145-3.039-.087-4.53,0-3.01.13-6.006.275-8.973.289-5.934.709-11.78,1.187-17.54q1.447-17.366,3.285-33.532h0V347.7a73.806,73.806,0,0,0,6.729-17.974,109.336,109.336,0,0,0,2.894-18.235,71.073,71.073,0,0,0-1.708-17.482,95.01,95.01,0,0,0-4.906-15.919h0l-8.249-14.646.232.145-69.914-3.777.188-.159c-.347,10.868-.608,19.291-.781,25.008-.1,2.894-.174,5.007-.232,6.483S75.336,293.3,75.336,293.3Z" transform="translate(387.581 73.928)" fill="#455a64"/>
  <path id="Path_6060" data-name="Path 6060" d="M177.578,191.118s18.814-3.329,17.062,20.883c-1.1,14.472-5.355,39.306-7.714,55.153-.81,5.485-2.6,15.3-9.855,21.057l-51.954,35.948-16.4-19.61,46.4-44.183,7.236-43.705Z" transform="translate(308.075 43.314)" fill="#455a64"/>
  <path id="Path_6061" data-name="Path 6061" d="M127.162,130.77a23.821,23.821,0,0,0-8.828,20.145c.289,3.7,1.317,7.916-1.1,10.738s-7.048,2.721-9.334,5.586c-2.677,3.386-.434,8.423-1.447,12.634a8.567,8.567,0,0,1-9.1,6.353,33.416,33.416,0,0,0,16.556,7.236l4.747-5.919c-1.766,2.084-1.288,5.4.405,7.525a14.038,14.038,0,0,0,6.831,4.052,42.388,42.388,0,0,0,37.121-6.035" transform="translate(356.277 16.396)" fill="#263238"/>
  <path id="Path_6062" data-name="Path 6062" d="M150.083,169.775c-.926-2.894-2.489-5.456-3.111-8.365-1.331-6.266,1.722-13.329-1.317-18.973-2.171-4.009-6.773-5.977-11.143-7.323s-9.03-2.475-12.287-5.673c-2.373-2.344-3.734-5.586-6.107-7.931-3.386-3.357-8.394-4.5-13.141-4.79a28.539,28.539,0,0,0-14.342,2.33,15.659,15.659,0,0,0-8.828,11.042c-.376,2.344-.087,4.819-.839,7.091-.81,2.489-2.764,4.428-3.98,6.758a12.562,12.562,0,0,0,3.14,15.051l33.546,43.329c7.048,2.663,24.125-.55,29.566-5.789S152.413,176.939,150.083,169.775Z" transform="translate(402.865 10.054)" fill="#263238"/>
  <path id="Path_6063" data-name="Path 6063" d="M90.9,148.225c1.447-9.841,8.871-21.462,18.64-19.667l30.16,10.13c2.894.55.839,5.4.55,8.394L133.692,215.1s4.081,2.894,5.528,2.344a.42.42,0,0,1,.492.622c-3.661,5.282-20.724,28.249-38.394,21.2-3.936-1.577.42-13.98,0-18.568l.521-11.737c.391-5.991.579-8.452.579-8.394S89.943,197.5,88.6,180.815C87.917,172.552,89.364,159.151,90.9,148.225Z" transform="translate(390.978 15.324)" fill="#ffbf9d"/>
  <path id="Path_6064" data-name="Path 6064" d="M118.842,153.095a2.127,2.127,0,0,0,1.881,2.287,2.026,2.026,0,0,0,2.33-1.737,2.127,2.127,0,0,0-1.881-2.287,2.026,2.026,0,0,0-2.33,1.737Z" transform="translate(365.132 25.591)" fill="#263238"/>
  <path id="Path_6065" data-name="Path 6065" d="M104.654,153.985a2.113,2.113,0,0,0,1.867,2.287,2.041,2.041,0,0,0,2.33-1.737,2.127,2.127,0,0,0-1.881-2.287,2.012,2.012,0,0,0-2.316,1.737Z" transform="translate(399.871 25.989)" fill="#263238"/>
  <path id="Path_6066" data-name="Path 6066" d="M115.99,148.415c.232.391,2.2-.854,4.66-.492s4.038,2.041,4.342,1.737,0-.81-.709-1.577a5.63,5.63,0,0,0-7.236-1C116.236,147.648,115.874,148.242,115.99,148.415Z" transform="translate(367.232 23.295)" fill="#263238"/>
  <path id="Path_6067" data-name="Path 6067" d="M100.262,149.789c.289.362,2.214-1.042,4.863-.926s4.53,1.606,4.834,1.274-.13-.781-.955-1.447a6.382,6.382,0,0,0-7.742-.275C100.436,149.007,100.132,149.615,100.262,149.789Z" transform="translate(405.059 23.76)" fill="#263238"/>
  <path id="Path_6068" data-name="Path 6068" d="M116.622,165.62a14.385,14.385,0,0,0-3.647-.955c-.564-.1-1.114-.26-1.172-.666a2.9,2.9,0,0,1,.521-1.693c.651-1.36,1.331-2.793,2.055-4.342,2.894-6.122,4.993-11.158,4.747-11.274s-2.779,4.747-5.644,10.854c-.695,1.52-1.36,2.894-1.983,4.342a3.329,3.329,0,0,0-.478,2.258,1.447,1.447,0,0,0,.883.926,4.009,4.009,0,0,0,.97.2,15.919,15.919,0,0,0,3.748.347Z" transform="translate(380.406 23.515)" fill="#263238"/>
  <path id="Path_6069" data-name="Path 6069" d="M99.969,179.577a42.055,42.055,0,0,0,22.518-4.2s-6.44,11.143-22.808,8.336Z" transform="translate(393.426 36.345)" fill="#ff9a6c"/>
  <path id="Path_6070" data-name="Path 6070" d="M113.973,164.884a3.734,3.734,0,0,0-1.158-1.447,2.894,2.894,0,0,0-1.968-.188,4.544,4.544,0,0,0-2.576,1.3,2.764,2.764,0,0,0-.651,2.721h0c.26.955,1.679,1.447,2.648,1.65a4.342,4.342,0,0,0,2.894-.593,2.533,2.533,0,0,0,1.447-1.881,3.112,3.112,0,0,0-.637-1.563Z" transform="translate(389.987 30.879)" fill="#ff9a6c"/>
  <path id="Path_6071" data-name="Path 6071" d="M115.767,162.14c-.362,0-.564,2.417-2.808,4.009s-4.848,1.114-4.892,1.447.535.521,1.65.637a6.136,6.136,0,0,0,4.081-1.085,5.311,5.311,0,0,0,2.2-3.372C116.144,162.777,115.941,162.14,115.767,162.14Z" transform="translate(387.73 30.424)" fill="#263238"/>
  <path id="Path_6072" data-name="Path 6072" d="M99.745,143.276c.188.622,2.475.507,5.123,1.042s4.747,1.447,5.138.883c.174-.246-.145-.854-.97-1.52a9,9,0,0,0-7.815-1.447C100.208,142.523,99.672,142.972,99.745,143.276Z" transform="translate(405.778 21.372)" fill="#263238"/>
  <path id="Path_6073" data-name="Path 6073" d="M115.255,142.627c.42.55,2.243.159,4.342.3s3.951.651,4.414.145c.2-.246,0-.8-.8-1.346a6.773,6.773,0,0,0-3.517-1.114,6.584,6.584,0,0,0-3.589.767C115.356,141.816,115.067,142.337,115.255,142.627Z" transform="translate(369.371 20.791)" fill="#263238"/>
  <path id="Path_6074" data-name="Path 6074" d="M126.309,141.294c-1.447-2.344-4.255-3.546-6.86-4.544a151.8,151.8,0,0,0-34.935-8.9c-1.447,2.446-.116,5.789,2.127,7.569s5.138,2.489,7.815,3.488,5.441,2.562,6.556,5.21.174,6.136,1.216,9c1.78,4.949,8.683,6.541,10.405,11.476,1.331,3.748-.839,7.728-1.447,11.664A14.183,14.183,0,0,0,125.108,192.4q1.216-21.259,2.446-42.49C127.8,146.953,127.915,143.769,126.309,141.294Z" transform="translate(411.038 15.09)" fill="#263238"/>
  <path id="Path_6075" data-name="Path 6075" d="M107.224,173.7c-2.243-2.012-5.051-3.748-5.934-6.614-1.3-4.182,2.055-9.088-.116-12.895-1.968-3.473-7.771-3.285-9.609-6.831-1.447-2.779.217-5.224-.318-7.656s-4.009-4.559-6.469-4.269L65.472,163.47c-1.795,9.407-3.6,14.472-1.592,19.913a43.936,43.936,0,0,1,3,9.146c.434,3.184-.391,6.787-2.981,8.683,11.578.912,22.4-5.138,32.417-11l10.55-6.194a7.569,7.569,0,0,0,2.894-2.431C111.334,179.013,109.452,175.7,107.224,173.7Z" transform="translate(458.662 18.472)" fill="#263238"/>
  <path id="Path_6076" data-name="Path 6076" d="M133.621,193.853a5.486,5.486,0,0,1-1.245.246,10.84,10.84,0,0,1-3.6-.26,11.129,11.129,0,0,1-5.022-2.706,10.955,10.955,0,0,1-3.3-6.758,11.187,11.187,0,0,1,.376-4.443,18.335,18.335,0,0,1,2.142-4.342,16.657,16.657,0,0,0,2.214-4.457,5.7,5.7,0,0,0-.622-4.906c-1.042-1.447-3-1.751-4.819-2.475a5.253,5.253,0,0,1-2.46-1.838,5.2,5.2,0,0,1-.8-3.025,33.011,33.011,0,0,1,1.317-6.02,6.368,6.368,0,0,0,0-2.894,4.153,4.153,0,0,0-1.664-2.359,11.694,11.694,0,0,0-5.789-1.563,12.432,12.432,0,0,1-5.962-1.751,11.158,11.158,0,0,1-4.125-4.443,18.307,18.307,0,0,1-1.447-5.543,26.585,26.585,0,0,0-1.129-5.21,11.809,11.809,0,0,0-2.721-4.1,13.372,13.372,0,0,0-8-3.618,13.227,13.227,0,0,0-7.236,1.447,15.918,15.918,0,0,0-4.457,3.386,21.025,21.025,0,0,0-2.75,3.951.784.784,0,0,1,.1-.3,8.059,8.059,0,0,1,.405-.839,15.008,15.008,0,0,1,2.012-2.923,16.18,16.18,0,0,1,4.486-3.546,13.459,13.459,0,0,1,7.366-1.635,13.748,13.748,0,0,1,8.408,3.69,12.243,12.243,0,0,1,2.894,4.342,26.946,26.946,0,0,1,1.187,5.311,17.873,17.873,0,0,0,1.447,5.355,10.594,10.594,0,0,0,3.85,4.153,11.939,11.939,0,0,0,5.673,1.635,12.171,12.171,0,0,1,6.194,1.679,4.732,4.732,0,0,1,1.91,2.692,7.062,7.062,0,0,1,0,3.256,33.2,33.2,0,0,0-1.3,5.9,4.472,4.472,0,0,0,.666,2.648A4.8,4.8,0,0,0,120,163.2c.854.362,1.78.608,2.677.984a5.644,5.644,0,0,1,2.388,1.722,6.411,6.411,0,0,1,.695,5.441,17.6,17.6,0,0,1-2.315,4.6,17.365,17.365,0,0,0-2.1,4.139,10.926,10.926,0,0,0-.405,4.226,10.651,10.651,0,0,0,3.1,6.541,10.926,10.926,0,0,0,4.834,2.721A12.112,12.112,0,0,0,133.621,193.853Z" transform="translate(421.599 11.982)" fill="#455a64"/>
  <path id="Path_6077" data-name="Path 6077" d="M111.562,173.9a2.46,2.46,0,0,1,.376.941,4.168,4.168,0,0,1-.492,2.894A4.53,4.53,0,0,1,110,179.287a4.616,4.616,0,0,1-2.475.666,5.789,5.789,0,0,1-5.065-3.227,7.685,7.685,0,0,1-.825-3.517,10.768,10.768,0,0,1,.81-3.821c.912-2.5,2.59-4.949,2.619-7.873a5.369,5.369,0,0,0-1.346-3.98,5.789,5.789,0,0,0-4.2-1.3,14.326,14.326,0,0,1-5.007-.521,4.341,4.341,0,0,1-2.055-1.737,6.252,6.252,0,0,1-.854-2.547,20.015,20.015,0,0,1,.42-5.152,10.955,10.955,0,0,0-.275-4.761,11.983,11.983,0,0,0-5.369-7.062A17.033,17.033,0,0,0,78.32,132.6,23.4,23.4,0,0,1,71,131.442a15.354,15.354,0,0,1-5.181-3.184,15.166,15.166,0,0,1-2.894-3.647,10.723,10.723,0,0,1-1.375-3.661,22.082,22.082,0,0,0,1.606,3.531,15.557,15.557,0,0,0,7.96,6.6,23.85,23.85,0,0,0,7.236,1.042,17.366,17.366,0,0,1,8.307,1.852,12.562,12.562,0,0,1,5.7,7.308,11.737,11.737,0,0,1,.3,5.022,20.869,20.869,0,0,0-.42,4.978,4.342,4.342,0,0,0,2.5,3.748,13.619,13.619,0,0,0,4.761.478,6.411,6.411,0,0,1,4.645,1.447A5.919,5.919,0,0,1,105.6,161.4a11.462,11.462,0,0,1-1.056,4.342c-.564,1.3-1.187,2.518-1.664,3.734a10.434,10.434,0,0,0-.81,3.632,7.308,7.308,0,0,0,.724,3.3,5.369,5.369,0,0,0,4.645,3.068,4.341,4.341,0,0,0,2.3-.564,4.023,4.023,0,0,0,1.447-1.447,4.081,4.081,0,0,0,.593-2.706C111.707,174.236,111.519,173.917,111.562,173.9Z" transform="translate(459.085 12.004)" fill="#263238"/>
  <path id="Path_6078" data-name="Path 6078" d="M122.768,176.6a4.559,4.559,0,0,0,0,3.025,3.951,3.951,0,0,0,2.4,2.446,4.182,4.182,0,0,0,4.24-1.158,3.849,3.849,0,0,0,1-2.431,8.09,8.09,0,0,0-.449-2.894c-.608-1.954-1.867-4.081-1.679-6.643a9.364,9.364,0,0,1,3.531-6.686,10.739,10.739,0,0,1,3.6-1.9,16.4,16.4,0,0,1,4.11-.593,21.011,21.011,0,0,0,4.009-.42,5.325,5.325,0,0,0,3.111-1.925,6.483,6.483,0,0,0,1.114-3.43,13.271,13.271,0,0,0-.289-3.56,26.845,26.845,0,0,1-1.042-6.773,10.26,10.26,0,0,1,2.07-5.615,13.141,13.141,0,0,1,3.763-3.184,26.672,26.672,0,0,0,3.025-2.084,7.583,7.583,0,0,0,1.881-2.431v.2a2.894,2.894,0,0,1-.232.564,6.252,6.252,0,0,1-1.447,1.852,23.369,23.369,0,0,1-3,2.214,13.025,13.025,0,0,0-3.589,3.155,9.7,9.7,0,0,0-1.881,5.355,27.02,27.02,0,0,0,1.085,6.614,13.819,13.819,0,0,1,.333,3.734,7.236,7.236,0,0,1-1.245,3.777A5.963,5.963,0,0,1,143.724,160a22.072,22.072,0,0,1-4.124.449,16.093,16.093,0,0,0-3.965.55,10.537,10.537,0,0,0-3.386,1.78,8.77,8.77,0,0,0-3.314,6.208c-.2,2.33.955,4.342,1.592,6.44a8.682,8.682,0,0,1,.434,3.126,4.341,4.341,0,0,1-1.172,2.706,4.588,4.588,0,0,1-4.718,1.2,4.226,4.226,0,0,1-2.518-2.721,4.168,4.168,0,0,1-.116-2.344A2.446,2.446,0,0,1,122.768,176.6Z" transform="translate(325.981 16.208)" fill="#263238"/>
  <path id="Path_6079" data-name="Path 6079" d="M78.607,266.077V250.071c-1.795-8.987-.941-19.638,3.242-27.844a149.871,149.871,0,0,1,10.044-15.268l15.919-20.68c8.77,6.382,22.5,1.766,34.284-2.518,0,0,11.578,6.44,17.048,12.489,5.687,6.368-13.763,86.036-13.763,86.036,8.813,17.627,20.188,33.286,21.911,49.349L75.25,335.18l3.907-42.2Z" transform="translate(383.977 40.093)" fill="#455a64"/>
  <path id="Path_6080" data-name="Path 6080" d="M136.831,273.68a8.122,8.122,0,0,0,.072-1.809c0-1.317,0-2.894,0-4.906-.072-4.342-.159-9.942-.26-16.18s-.289-12.041-.492-16.18c-.1-2.069-.2-3.748-.289-4.906a7.987,7.987,0,0,0-.232-1.78,9.2,9.2,0,0,0,0,1.795v4.906c.072,4.342.174,9.942.275,16.18s.275,12.041.478,16.18c.1,2.07.2,3.748.3,4.906A7.642,7.642,0,0,0,136.831,273.68Z" transform="translate(327.028 59.841)" fill="#263238"/>
  <path id="Path_6081" data-name="Path 6081" d="M190.517,269.6s-8.973.492-14.472,3.965-14.472,8.886-18.162,15.586c-1.693,3.082,3.126,3.734,5.514,1.954s6.02-5.167,7.829-5.572l1.809-.42a120.681,120.681,0,0,1-5.514,10.941c-1.867,2.894-3.488,7.7,2.127,7.916,0,0,3.777,4.92,7.6,1.273,0,0,2.981,4.472,7.786-1.722,0,0,2.808,3.546,3.965,2.185s4.993-3.5,6.107-7.931a160.477,160.477,0,0,1,5.789-15.181Z" transform="translate(231.3 78.48)" fill="#ffbf9d"/>
  <path id="Path_6082" data-name="Path 6082" d="M365.835,203.958c-1,0-42.084-4.342-42.084-4.342s-3.488-16.7-3.3-21.042,3.111-33.069,3.111-33.069l-15.384-7.236s-20.565,69.35-16.078,75.11,12.923,10.926,13.647,10.955,39.812,17.366,67.005,8.35S365.835,203.958,365.835,203.958Z" transform="translate(-144.903 19.75)" fill="#ffbf9d"/>
  <path id="Path_6083" data-name="Path 6083" d="M391.02,227.972c-6.049,6.006-16.469,11-33.864,6.657-34.385-8.6-60.16-15.919-70.406-21.419s-6.252-30.073-7.12-31.187c-2.59-3.357.261-10.565,3.951-11.693,10.521-3.184,28.828-1.925,29.754-.97,5.4,5.673.478,12.562.478,12.562l45.341,5.948a75.89,75.89,0,0,1,16.657,1.056" transform="translate(-134.081 33.175)" fill="#455a64"/>
  <path id="Path_6084" data-name="Path 6084" d="M376.2,189.038l-1.085-.232c-.724-.13-1.794-.318-3.213-.492a74.545,74.545,0,0,0-12.373-.521h0L314.2,181.716l.217.507a12.142,12.142,0,0,0,2.084-7.453,8.683,8.683,0,0,0-1.3-3.85,12.315,12.315,0,0,0-1.245-1.65,2.344,2.344,0,0,0-.593-.318l-.521-.13c-.347-.087-.68-.116-1.013-.188a89.886,89.886,0,0,0-16.918-.347,58.17,58.17,0,0,0-8.8,1.216c-.724.159-1.447.376-2.2.564a5.441,5.441,0,0,0-2.069,1.216,10.131,10.131,0,0,0-2.562,3.936,9.943,9.943,0,0,0-.593,4.7,5.79,5.79,0,0,0,.912,2.316c.13.145.116.535.13.912v1.158c-.1,3.111-.246,6.281-.159,9.465a40.234,40.234,0,0,0,2.185,13.285,13.156,13.156,0,0,0,3.763,5.543,12.924,12.924,0,0,0,2.894,1.708c.955.506,1.968.9,2.894,1.36,3.965,1.693,7.945,3.083,11.867,4.342s7.771,2.475,11.578,3.589c15.138,4.342,28.944,7.858,40.435,10.738a77.81,77.81,0,0,0,8.336,1.722,44.716,44.716,0,0,0,7.6.405,31.68,31.68,0,0,0,11.853-2.576,27.278,27.278,0,0,0,6.512-4.052A16.959,16.959,0,0,0,391.423,228s-.666.637-2.041,1.722a28.348,28.348,0,0,1-6.541,3.907,32,32,0,0,1-11.737,2.417,44.021,44.021,0,0,1-7.511-.463,78.931,78.931,0,0,1-8.278-1.766c-11.578-2.894-25.268-6.455-40.362-10.883-3.777-1.114-7.627-2.3-11.578-3.6s-7.873-2.677-11.795-4.342c-.955-.449-1.954-.839-2.894-1.346a12.665,12.665,0,0,1-2.706-1.621,12.316,12.316,0,0,1-3.546-5.224,39.871,39.871,0,0,1-2.1-13.1c-.087-3.169,0-6.31.159-9.436v-1.809a1.741,1.741,0,0,0,0-.347,2.051,2.051,0,0,0-.116-.26l-.072-.116a4.762,4.762,0,0,1-.781-1.983,9.059,9.059,0,0,1,.564-4.342,9.377,9.377,0,0,1,2.344-3.647,4.745,4.745,0,0,1,1.794-1.056c.724-.188,1.447-.391,2.156-.564a57.718,57.718,0,0,1,8.683-1.2,87.986,87.986,0,0,1,16.744.318,3.8,3.8,0,0,1,.984.174l.463.1a1.8,1.8,0,0,1,.289.145,10.767,10.767,0,0,1,1.172,1.534,7.757,7.757,0,0,1,1.216,3.546A11.578,11.578,0,0,1,314,181.773l-.289.449h.507l45.355,5.789h0a78.148,78.148,0,0,1,12.316.347c1.447.145,2.5.3,3.227.405A4.034,4.034,0,0,1,376.2,189.038Z" transform="translate(-134.47 33.063)" fill="#263238"/>
  <path id="Path_6085" data-name="Path 6085" d="M.014,417.14H37.989V17.366A17.366,17.366,0,0,0,20.623,0H17.367A17.366,17.366,0,0,0,0,17.366V417.14Z" transform="translate(0 66.376) rotate(-60.9)" fill="#7d25f5"/>
  <path id="Path_6086" data-name="Path 6086" d="M0,28.944H87.946A3.242,3.242,0,0,0,91.188,25.7V3.242A3.242,3.242,0,0,0,87.946,0H0V28.944Z" transform="translate(46.288 79.677) rotate(-60.9)" fill="#7d25f5"/>
  <rect id="Rectangle_17411" data-name="Rectangle 17411" width="73.474" height="28.944" rx="3.24" transform="translate(96.977 103.997) rotate(-60.9)" fill="#7d25f5"/>
  <rect id="Rectangle_17412" data-name="Rectangle 17412" width="39.682" height="44.95" transform="translate(69.623 67.512) rotate(-60.9)" fill="#7d25f5"/>
  <path id="Path_6087" data-name="Path 6087" d="M217.61,59.86c-.1.174,68.452,38.524,153.084,85.645S524.1,230.688,524.1,230.5,455.659,191.975,371,144.84,217.711,59.672,217.61,59.86Z" transform="translate(-178.851 -15.315)" fill="#263238"/>
  <path id="Path_6088" data-name="Path 6088" d="M260.088,301.158c-25.76,46.31-80.073,65.124-121.318,42.186S84.933,264.254,110.694,218s80.059-65.124,121.318-42.186S285.833,254.905,260.088,301.158Zm-127.049-70.71c-18.047,32.417-9.233,71.738,19.682,87.816s66.962,2.894,85.008-29.552,9.233-71.738-19.667-87.83S151.085,198.03,133.038,230.448Z" transform="translate(245.87 32.176)" fill="#7d25f5"/>
  <rect id="Rectangle_17413" data-name="Rectangle 17413" width="58.062" height="20.637" rx="6.52" transform="translate(282.479 235.376) rotate(-60.9)" fill="#7d25f5"/>
  <rect id="Rectangle_17414" data-name="Rectangle 17414" width="58.062" height="20.637" rx="6.52" transform="translate(245.875 215.001) rotate(-60.9)" fill="#7d25f5"/>
  <path id="Path_6089" data-name="Path 6089" d="M263.465,162c-.188-.1-4.6,7.67-9.884,17.366s-9.407,17.6-9.219,17.7,4.6-7.656,9.884-17.366S263.653,162,263.465,162Z" transform="translate(43.069 30.362)" fill="#263238"/>
  <path id="Path_6090" data-name="Path 6090" d="M251.392,170.25c-.188-.1-4.5,7.323-9.653,16.556s-9.161,16.831-8.987,16.932,4.5-7.323,9.595-16.484S251.565,170.352,251.392,170.25Z" transform="translate(71.944 34.051)" fill="#263238"/>
  <path id="Path_6091" data-name="Path 6091" d="M289.248,148.07c-.188-.1-4.689,7.627-10.058,17.265s-9.566,17.555-9.378,17.656,4.674-7.641,10.044-17.28S289.422,148.172,289.248,148.07Z" transform="translate(-19.546 24.132)" fill="#263238"/>
  <path id="Path_6092" data-name="Path 6092" d="M276.6,155.44c-.174-.1-4.588,7.583-9.827,17.164s-9.363,17.366-9.175,17.526,4.573-7.583,9.827-17.164S276.792,155.542,276.6,155.44Z" transform="translate(10.769 27.428)" fill="#263238"/>
  <path id="Path_6093" data-name="Path 6093" d="M312.887,130.02a6.831,6.831,0,0,1-2.894-13.285,7.12,7.12,0,0,1,6.18-12.012,8.524,8.524,0,0,1,12.822-7,9.58,9.58,0,0,1,11.795-.26,6.816,6.816,0,0,1,6.035,11.578" transform="translate(-130.48 0.648)" fill="#263238"/>
  <path id="Path_6094" data-name="Path 6094" d="M326.088,101.53h-1.447a29.031,29.031,0,0,0-28.915,26.73c-1.085,14.023-2.1,29.523-1.983,37.048.275,15.63,15.818,17.945,15.818,17.945L308.3,201.98l37.815-1.23,3.14-67.874C350.589,116.682,342.3,102.427,326.088,101.53Z" transform="translate(-114.317 3.32)" fill="#ffbf9d"/>
  <path id="Path_6095" data-name="Path 6095" d="M307.419,159.865a37.815,37.815,0,0,0,20.391-6.035s-5.007,11.795-20.55,10.434Z" transform="translate(-112.305 26.708)" fill="#ff9a6c"/>
  <path id="Path_6096" data-name="Path 6096" d="M321.84,130.778A2.214,2.214,0,0,0,324,133.006a2.142,2.142,0,0,0,2.287-2.012,2.243,2.243,0,0,0-2.156-2.243,2.142,2.142,0,0,0-2.287,2.026Z" transform="translate(-131.878 15.491)" fill="#263238"/>
  <path id="Path_6097" data-name="Path 6097" d="M322.42,126.015c.275.289,1.968-.955,4.342-.955s4.153,1.187,4.414.9-.159-.651-.926-1.216a6.093,6.093,0,0,0-3.531-1.071,5.788,5.788,0,0,0-3.459,1.129C322.536,125.363,322.29,125.9,322.42,126.015Z" transform="translate(-137.639 13.221)" fill="#263238"/>
  <path id="Path_6098" data-name="Path 6098" d="M306.92,130.045a2.229,2.229,0,0,0,2.171,2.272,2.142,2.142,0,0,0,2.287-2.012,2.229,2.229,0,0,0-2.156-2.243,2.142,2.142,0,0,0-2.3,1.983Z" transform="translate(-95.381 15.182)" fill="#263238"/>
  <path id="Path_6099" data-name="Path 6099" d="M306.16,126.275c.275.289,1.968-.955,4.342-.955s4.153,1.187,4.414.9-.159-.651-.926-1.216a6.093,6.093,0,0,0-3.531-1.071A5.789,5.789,0,0,0,307,125.059C306.276,125.623,306.03,126.144,306.16,126.275Z" transform="translate(-97.847 13.337)" fill="#263238"/>
  <path id="Path_6100" data-name="Path 6100" d="M323.531,144a15.485,15.485,0,0,0-3.893-.695c-.608,0-1.187-.174-1.3-.593a3.126,3.126,0,0,1,.405-1.809l1.795-4.66c2.489-6.643,4.342-12.1,4.023-12.185s-2.5,5.2-4.993,11.824c-.593,1.635-1.172,3.2-1.722,4.689a3.6,3.6,0,0,0-.3,2.4,1.534,1.534,0,0,0,1.013.883,3.5,3.5,0,0,0,1.027.145,15.918,15.918,0,0,0,3.951,0Z" transform="translate(-123.844 13.395)" fill="#263238"/>
  <path id="Path_6101" data-name="Path 6101" d="M306.951,119.985c.318.608,2.359,0,4.892-.145s4.645.333,4.877-.3c.1-.3-.347-.839-1.259-1.331a7.655,7.655,0,0,0-3.792-.781,7.352,7.352,0,0,0-3.661,1.129C307.182,119.116,306.806,119.71,306.951,119.985Z" transform="translate(-100.736 10.422)" fill="#263238"/>
  <path id="Path_6102" data-name="Path 6102" d="M321.911,119.234c.507.535,2.489,0,4.863,0s4.342.362,4.848-.217c.2-.275-.116-.825-1-1.331a7.786,7.786,0,0,0-3.951-.883,7.612,7.612,0,0,0-3.864,1.114C321.968,118.409,321.693,118.959,321.911,119.234Z" transform="translate(-137.274 10.146)" fill="#263238"/>
  <path id="Path_6103" data-name="Path 6103" d="M291.2,121.733s4.081-9.769,8.784-12.055c5.688-2.779,8.148,3.459,13.575,1.925s10.854-4.182,16.411,0c6.078,4.573,3.242,7.8,3.647,14.718,1.592,28.018,6.744,35.919,8.148,22.721.159-1.447,4.168-2.6,4.747-8.683.753-7.916,1.028-17.54-.767-23.155-1.447-4.732-4.211-8-9.059-11.578-7.67-5.673-18.177-5.789-25.311-5.022S290.523,109.519,291.2,121.733Z" transform="translate(-108.318 2.755)" fill="#263238"/>
  <path id="Path_6104" data-name="Path 6104" d="M288.7,134.939a4.226,4.226,0,0,1,4.544-4.1c2.894.275,6.151,1.91,5.977,7.916-.3,10.651-10.941,8.148-10.955,7.829S288.527,139.4,288.7,134.939Z" transform="translate(-56.234 16.423)" fill="#ffbf9d"/>
  <path id="Path_6105" data-name="Path 6105" d="M290.8,141.581a2.351,2.351,0,0,0,.492.289,1.867,1.867,0,0,0,1.375.072,4.573,4.573,0,0,0,2.243-4.067,6.107,6.107,0,0,0-.434-2.663,2.128,2.128,0,0,0-1.36-1.447.941.941,0,0,0-1.114.478c-.145.289-.087.506-.145.521s-.217-.188-.116-.622a1.071,1.071,0,0,1,.434-.651,1.36,1.36,0,0,1,1.028-.246,2.6,2.6,0,0,1,1.9,1.708,6.251,6.251,0,0,1,.565,2.981c-.13,2.142-1.288,4.125-2.894,4.53a1.954,1.954,0,0,1-1.679-.333C290.8,141.842,290.754,141.581,290.8,141.581Z" transform="translate(-56.319 17.495)" fill="#ff9a6c"/>
  <path id="Path_6106" data-name="Path 6106" d="M330.77,129.118a10.13,10.13,0,0,1-4.5,2.1,3.473,3.473,0,0,1-3.864-2.431c-.13-.738,0-1.606-.434-2.171s-1.664-.463-2.547-.362c-3.1.333-6.729-3.083-7.525-6.093a2.764,2.764,0,0,1-3.7.782,9.9,9.9,0,0,1-2.576-2.272,4.414,4.414,0,0,0-3.661-1.809,10.131,10.131,0,0,1-2.316.507c-1.447-.116-2.084-1.751-2.3-3.14s-.391-3-1.577-3.748a5.6,5.6,0,0,0-3.806-.1c-1.288.2-2.894-.1-3.285-1.36a2.547,2.547,0,0,1,.478-1.925,6.889,6.889,0,0,1,8.133-2.634,9.334,9.334,0,0,1,17.178-1.867,9.479,9.479,0,0,1,15.181,3.415,6.874,6.874,0,0,1,7.786,9.971,6.527,6.527,0,0,1,3.6,5.2c0,2.2-2.1,4.342-4.226,3.821a3.806,3.806,0,0,1-6.57,3.821" transform="translate(-98.579 1.608)" fill="#263238"/>
  <path id="Path_6107" data-name="Path 6107" d="M289.31,104.53v.2a1.633,1.633,0,0,0,.072.564,6.933,6.933,0,0,0,.781,2.055,7.714,7.714,0,0,0,2.359,2.5,7.12,7.12,0,0,0,4.342,1.23l-.174-.232a3.806,3.806,0,0,0,.217,2.894,10.985,10.985,0,0,0,1.824,2.6,7.991,7.991,0,0,0,1.2,1.23,3.98,3.98,0,0,0,5.109-.622l-.391-.116a7.974,7.974,0,0,0,3.4,5.514,5.789,5.789,0,0,0,3.5,1.143,10.767,10.767,0,0,0,3.444-.767l-.289-.13a8.437,8.437,0,0,0,2.533,3.285,4.457,4.457,0,0,0,3.7,1,5.876,5.876,0,0,0,4.515-4.6l-.246.116a5.6,5.6,0,0,0,3.661.521,6.035,6.035,0,0,0,2.547-1.143,5.311,5.311,0,0,0,1.187-1.3,1.911,1.911,0,0,0,.26-.564,6.253,6.253,0,0,1-1.549,1.722,5.789,5.789,0,0,1-2.489,1.028,5.181,5.181,0,0,1-3.459-.55l-.2-.116v.232a5.5,5.5,0,0,1-4.255,4.255,4.067,4.067,0,0,1-3.372-.941,7.989,7.989,0,0,1-2.373-3.112l-.087-.188h-.2a10.2,10.2,0,0,1-3.285.724,5.369,5.369,0,0,1-3.242-1.056,7.569,7.569,0,0,1-3.213-5.2v-.507l-.333.391a3.444,3.444,0,0,1-3.025,1.1,3.387,3.387,0,0,1-1.447-.55,7.048,7.048,0,0,1-1.129-1.143,10.609,10.609,0,0,1-1.794-2.489,3.459,3.459,0,0,1-.232-2.663l.087-.26h-.275a6.831,6.831,0,0,1-4.182-1.114,7.584,7.584,0,0,1-2.344-2.388A7.989,7.989,0,0,1,289.31,104.53Z" transform="translate(-91.388 4.661)" fill="#455a64"/>
  <path id="Path_6108" data-name="Path 6108" d="M312.287,145.2c.087-.391,2.677.246,5.08-1.52s2.793-4.6,3.155-4.53.362.753.1,1.925a6.642,6.642,0,0,1-2.5,3.821,5.789,5.789,0,0,1-4.2,1.1C312.808,145.822,312.229,145.373,312.287,145.2Z" transform="translate(-112.57 20.143)" fill="#263238"/>
  <path id="Path_6109" data-name="Path 6109" d="M402.233,423.12l-10.275,35.008s-39.074,1.3-41.578,7.6l67.237,22.345,18.264-53.908Z" transform="translate(-282.778 147.134)" fill="#455a64"/>
  <path id="Path_6110" data-name="Path 6110" d="M369.016,450.209a2.894,2.894,0,0,1,.854,3.763,2.779,2.779,0,0,1-3.719.883,3.054,3.054,0,0,1-.883-3.994,2.9,2.9,0,0,1,3.98-.492" transform="translate(-238.099 159.062)" fill="#e0e0e0"/>
  <path id="Path_6111" data-name="Path 6111" d="M365.672,450.819s-3.43.3-3.792,2.533L429.117,475.7l1.621-5.514L365.73,450.79" transform="translate(-294.278 159.508)" fill="#263238"/>
  <path id="Path_6112" data-name="Path 6112" d="M377.961,446.854c-.1.333,1.447,1.027,2.75,2.619s1.664,3.256,2.012,3.227.478-2.084-1.085-3.98S377.99,446.536,377.961,446.854Z" transform="translate(-269.752 157.699)" fill="#fff"/>
  <path id="Path_6113" data-name="Path 6113" d="M384.75,447.229c-.188.3,1.042,1.331,1.708,3.083s.478,3.343.81,3.43,1.158-1.693.3-3.864S384.851,446.926,384.75,447.229Z" transform="translate(-284.558 157.888)" fill="#fff"/>
  <path id="Path_6114" data-name="Path 6114" d="M391.7,454.127c.275.174,1.274-1.317,1.027-3.386s-1.534-3.314-1.766-3.082.405,1.447.579,3.213S391.383,453.954,391.7,454.127Z" transform="translate(-298.325 158.096)" fill="#fff"/>
  <path id="Path_6115" data-name="Path 6115" d="M374.425,441.629c0,.347,1.693.391,3.5,1.129s3.068,1.809,3.329,1.592-.738-1.853-2.894-2.706S374.338,441.311,374.425,441.629Z" transform="translate(-262.988 155.21)" fill="#fff"/>
  <path id="Path_6116" data-name="Path 6116" d="M240.773,427.382l14.631,33.43s-29.074,26.05-26.976,32.533l65.847-26.05L273.624,414.27Z" transform="translate(35.471 143.177)" fill="#455a64"/>
  <path id="Path_6117" data-name="Path 6117" d="M242.218,438.9a2.894,2.894,0,0,1,3.068,2.33A2.793,2.793,0,0,1,243,444.3a3.068,3.068,0,0,1-3.242-2.489c0-1.447,1.317-3.1,2.735-2.894" transform="translate(67.891 154.188)" fill="#e0e0e0"/>
  <path id="Path_6118" data-name="Path 6118" d="M229.914,474.221s-2.431,2.446-1.288,4.342l65.847-26.05-2.3-5.253-62.229,26.918" transform="translate(35.274 157.93)" fill="#263238"/>
  <path id="Path_6119" data-name="Path 6119" d="M250.874,446.813c.13.318,1.795-.174,3.792.232s3.372,1.447,3.618,1.187-.97-1.91-3.386-2.359S250.671,446.538,250.874,446.813Z" transform="translate(38.814 157.262)" fill="#fff"/>
  <path id="Path_6120" data-name="Path 6120" d="M255.657,450.484c0,.333,1.65.333,3.285,1.259s2.5,2.243,2.894,2.113-.2-2.041-2.243-3.155S255.541,450.18,255.657,450.484Z" transform="translate(28.243 159.178)" fill="#fff"/>
  <path id="Path_6121" data-name="Path 6121" d="M265.146,458.561c.318,0,.13-1.823-1.447-3.256s-3.3-1.549-3.328-1.23,1.273.9,2.5,2.1S264.813,458.663,265.146,458.561Z" transform="translate(18.088 160.912)" fill="#fff"/>
  <path id="Path_6122" data-name="Path 6122" d="M252.946,441.9c.246.231,1.548-.781,3.415-1.447s3.5-.579,3.56-.912-1.751-.955-3.936-.232S252.686,441.673,252.946,441.9Z" transform="translate(34.238 154.226)" fill="#fff"/>
  <path id="Path_6123" data-name="Path 6123" d="M271.226,296.43l23.068,93.576S335.9,460.05,342.95,495.1l-38.061,14.964s-27.685-67.512-35.8-79.9a99.754,99.754,0,0,0-12.533-15.442,24.1,24.1,0,0,1-6.324-10.941L232.76,337.024Z" transform="translate(-19.628 90.479)" fill="#263238"/>
  <path id="Path_6124" data-name="Path 6124" d="M430.033,295.477s-3.213,25.065-27.337,36.18l-50.826,82.78s-3.98,26.918-11.578,49.6-22.952,66.383-22.952,66.383l-41.809-15.63L302.173,423.7l4.342-31.592,41.477-105.646,35.63-21.361Z" transform="translate(-168.608 76.468)" fill="#263238"/>
  <path id="Path_6125" data-name="Path 6125" d="M430.423,295.544l-.767-.521-2.3-1.534-9.031-5.962-34.241-22.5-.116-.072-.116.072L348.194,286.34h0v.087L306.63,391.971v.072c-1.375,9.986-2.894,20.68-4.342,31.592h0c-7.236,24.6-14.906,50.927-22.837,78.047q-1.925,6.556-3.821,13.025l-.1.333.333.116,41.809,15.63.362.13.116-.362c7.236-21,14.24-41.216,20.854-60.392,1.664-4.79,3.3-9.537,4.66-14.284s2.59-9.465,3.7-14.125c2.2-9.32,3.965-18.423,5.355-27.251v.116l50.536-82.809-.087.072a47.192,47.192,0,0,0,15.919-12.128,50.142,50.142,0,0,0,7.815-12.533,51.565,51.565,0,0,0,2.895-8.683c.246-.984.391-1.751.477-2.272s.1-.781.1-.781a2.893,2.893,0,0,1-.159.767c-.159.507-.246,1.274-.521,2.272a52.971,52.971,0,0,1-2.981,8.567,50.5,50.5,0,0,1-7.844,12.4,47.25,47.25,0,0,1-15.919,11.983h0L352.029,414.2h0v.072c-1.447,8.8-3.184,17.887-5.384,27.193-1.114,4.646-2.33,9.349-3.7,14.081s-3,9.45-4.66,14.24c-6.643,19.175-13.633,39.393-20.9,60.377l.478-.217-41.81-15.63.232.449q1.881-6.469,3.821-13.025l22.808-78.062h0c1.447-10.912,2.981-21.607,4.342-31.592v.087l41.4-105.646-.116.13,35.6-21.4h-.217l34.241,22.4,9.117,5.876,2.345,1.52Z" transform="translate(-168.999 76.401)" fill="#455a64"/>
  <path id="Path_6126" data-name="Path 6126" d="M344.8,165.476s12.185,9.378,18.1,19.856c7.091,12.547,7.858,31.144,8.075,60.03.217,26.715-3.777,34.139-2.243,44.212,3.025,19.667,5.268,85.674,5.268,85.674s-39.074-15.007-46.658-21.708l-7.627-6.628-48.9,16.165,9.87-60.088,6.773-74.893,8.683-39.726,1.447-15.586,42-16.874Z" transform="translate(-105.764 27.638)" fill="#455a64"/>
  <path id="Path_6127" data-name="Path 6127" d="M291.278,169.2c-.507.1,1.2,3.531,4.211,8.567l.13.2.232-.087c4.24-1.65,9.855-3.719,15.991-5.962,6.918-2.518,13.169-4.863,17.641-6.686,2.243-.912,4.038-1.679,5.268-2.243a11.878,11.878,0,0,0,1.881-.926,10.3,10.3,0,0,0-2,.666l-5.34,2.012-17.714,6.469c-6.136,2.243-11.737,4.342-15.919,6.136l.347.116C292.856,172.533,290.989,169.277,291.278,169.2Z" transform="translate(-97.872 30.393)" fill="#263238"/>
  <path id="Path_6128" data-name="Path 6128" d="M362.012,161.3s3.1-4.819,6.02-9.262,7.352-6.628,8.061-8.944,4.6-12.634,5.224-15.2a32.979,32.979,0,0,0,.753-7.554s-3.2-1.36-4.732,3.213c-.926,2.75-3.879,12.084-4.515,12.547s-1.447-.217-1.447-.217a109.685,109.685,0,0,0,3.4-10.666c.145-1.693-.449-12.924-.449-12.924a3.386,3.386,0,0,0-3.849,2.156c-1.52,2.894-1.578,10.13-1.578,10.13l-2.3,8.075.81-7.989-1.158-14.689a5.528,5.528,0,0,0-4.631,4.342c-.97,3.965.318,9.494-.333,10.666s-1.36,8.264-1.36,8.264-.8-17.222-2.634-17.714-3.343,1.331-3.083,4.8.333,10.825-.622,14.067-10.753,15.919-9.957,21.476a93.252,93.252,0,0,1,.912,10.13h16.787Z" transform="translate(-219.142 7.099)" fill="#ffbf9d"/>
  <path id="Path_6129" data-name="Path 6129" d="M377.3,188.428c-.941.362-41.042,10.29-41.042,10.29s-8.958-14.472-10.275-18.669-8.365-32.157-8.365-32.157L300.675,146.3s4.342,72.2,10.478,76.094,15.919,5.861,16.556,5.644,43.344,2.75,65.847-14.979S377.3,188.428,377.3,188.428Z" transform="translate(-175.548 23.341)" fill="#ffbf9d"/>
  <g id="Group_2337" data-name="Group 2337" transform="translate(180.816 249.743)" opacity="0.3">
    <path id="Path_6130" data-name="Path 6130" d="M346.152,201.9a30.623,30.623,0,0,1-16.4,9.638c-10.637,2.344-33.286,6.5-33.286,6.5l1.1-11.114,49.2-5.268" transform="translate(-296.47 -201.65)"/>
  </g>
  <path id="Path_6131" data-name="Path 6131" d="M407.633,201c-3.647,7.7-11.751,15.919-29.566,17.786-35.268,3.647-61.969,5.586-73.5,3.85s-16.122-26.151-17.366-26.9c-3.589-2.258-3.357-10.015-.26-12.33,8.8-6.585,26.44-11.578,27.627-11.042,7.019,3.488,4.732,11.65,4.732,11.65l44.718-9.87a75.254,75.254,0,0,1,16.02-4.66" transform="translate(-159.277 33.707)" fill="#455a64"/>
  <path id="Path_6132" data-name="Path 6132" d="M380.466,169.48a6.3,6.3,0,0,0-1.1.145c-.724.145-1.809.318-3.2.622a74.539,74.539,0,0,0-11.809,3.734h0l-44.689,9.725.376.405a12.026,12.026,0,0,0-.579-7.714,8.553,8.553,0,0,0-2.518-3.184,11.665,11.665,0,0,0-1.751-1.129,2.444,2.444,0,0,0-.651-.1h-.535a6.1,6.1,0,0,0-1.027.174,89.729,89.729,0,0,0-16.02,5.427,60.107,60.107,0,0,0-7.858,4.139c-.622.405-1.245.854-1.867,1.288a5.355,5.355,0,0,0-1.534,1.838,10.261,10.261,0,0,0-1.071,4.573,9.812,9.812,0,0,0,1.042,4.631,5.5,5.5,0,0,0,1.65,1.867c.174.087.289.463.434.81l.376,1.085c.955,2.894,1.91,5.991,3.068,8.973a40.678,40.678,0,0,0,6.57,11.809,11.578,11.578,0,0,0,8.683,4.544c1.085.159,2.171.188,3.242.275,4.342.26,8.509.2,12.634.087s8.162-.333,12.084-.579c15.731-1.013,29.841-2.446,41.679-3.676a76.024,76.024,0,0,0,8.423-1.216,44.864,44.864,0,0,0,7.236-2.2,31.926,31.926,0,0,0,10.261-6.455,27.35,27.35,0,0,0,4.747-6.035,17.081,17.081,0,0,0,1.2-2.388s-.405.825-1.331,2.316a28.64,28.64,0,0,1-4.819,5.89,31.606,31.606,0,0,1-10.217,6.281,45.907,45.907,0,0,1-7.236,2.127,78.426,78.426,0,0,1-8.394,1.143c-11.838,1.172-25.948,2.547-41.65,3.531-3.936.232-7.96.434-12.07.535s-8.321.159-12.576-.087c-1.056-.1-2.142-.13-3.2-.289a11.578,11.578,0,0,1-3.1-.593,12.388,12.388,0,0,1-5.123-3.7,39.872,39.872,0,0,1-6.425-11.578c-1.158-2.894-2.1-5.948-3.054-8.929l-.405-1.129a1.791,1.791,0,0,0-.232-.564,2,2,0,0,0-.188-.318,1.16,1.16,0,0,0-.188-.188l-.1-.087a4.7,4.7,0,0,1-1.447-1.606,9,9,0,0,1-.955-4.342,9.58,9.58,0,0,1,.97-4.226,4.717,4.717,0,0,1,1.317-1.592c.622-.42,1.216-.868,1.838-1.259a57.654,57.654,0,0,1,7.757-4.1,88.831,88.831,0,0,1,15.847-5.412c.333,0,.666-.145.984-.174h.8a11.13,11.13,0,0,1,1.621,1.056,7.829,7.829,0,0,1,2.359,2.894,11.577,11.577,0,0,1,.564,7.236l-.13.507.507-.116L364.3,174.2h0a79.09,79.09,0,0,1,11.693-3.879c1.447-.333,2.446-.564,3.169-.709A6.543,6.543,0,0,1,380.466,169.48Z" transform="translate(-159.707 33.707)" fill="#263238"/>
  <path id="Path_6133" data-name="Path 6133" d="M345.35,193.691a9.48,9.48,0,0,0,2.894-1.259,28.6,28.6,0,0,0,6.078-4.544,30.394,30.394,0,0,0,4.747-5.934,10.478,10.478,0,0,0,1.375-2.894,64.109,64.109,0,0,1-6.643,8.235A59.245,59.245,0,0,1,345.35,193.691Z" transform="translate(-200.063 37.991)" fill="#263238"/>
  <path id="Path_6134" data-name="Path 6134" d="M164.037,271.53s-8.973.478-14.472,3.965-14.472,8.871-18.162,15.586c-1.693,3.083,3.126,3.734,5.5,1.939s6.035-5.152,7.844-5.572l1.809-.405a119.05,119.05,0,0,1-5.514,10.926c-1.867,2.894-3.488,7.7,2.113,7.931,0,0,3.792,4.92,7.612,1.274,0,0,2.981,4.457,7.786-1.722,0,0,2.793,3.531,3.965,2.185s4.993-3.5,6.107-7.931a154.947,154.947,0,0,1,5.789-15.181Z" transform="translate(296.102 79.343)" fill="#ffbf9d"/>
  <path id="Path_6135" data-name="Path 6135" d="M153.681,190a21.592,21.592,0,0,1,11.274,8.466c3.444,5.3,4.5,14.472,3.517,21.3-2.084,14.4-8.683,38.7-12.4,54.3-1.274,5.384-3.893,15.022-11.578,20.131l-54.834,32.88L75,305.371l49.986-40.739,9.884-55.833Z" transform="translate(382.812 42.883)" fill="#455a64"/>
  <path id="Path_6136" data-name="Path 6136" d="M167.58,235.742a3.2,3.2,0,0,0-.174.564L166.943,238c-.391,1.534-.941,3.734-1.664,6.556-1.447,5.789-3.5,14.009-6.064,24.241a28.379,28.379,0,0,1-9.031,14.3,54.309,54.309,0,0,1-8.017,5.326l-8.813,5.326L93.86,317.6l.507.116-5.282-7.829-9.378-13.937-.072.507,49.537-40.8h.087v-.1c3.271-13.763,5.644-25.037,7.149-32.88.738-3.922,1.259-6.976,1.592-9.059.145-1.013.261-1.809.347-2.373s.1-.81.1-.81a6.812,6.812,0,0,0-.188.8c-.1.564-.246,1.346-.42,2.359-.391,2.069-.955,5.123-1.766,9.03-1.577,7.815-4.038,19.06-7.381,32.808l.1-.159L79.171,295.873l-.26.217.188.275L88.476,310.3l5.282,7.829.188.289.318-.174L133.7,294.324l8.8-5.34a55.4,55.4,0,0,0,8.075-5.369,28.756,28.756,0,0,0,9.132-14.631c2.475-10.261,4.457-18.553,5.789-24.3.651-2.894,1.172-5.051,1.534-6.585l.42-1.78a4.222,4.222,0,0,0,.13-.579Z" transform="translate(378.393 52.02)" fill="#263238"/>
  <path id="Path_6137" data-name="Path 6137" d="M104.248,195.77a3.459,3.459,0,0,0-1.114-.478,21.114,21.114,0,0,0-3.213-.724,19.031,19.031,0,0,0-10.695,1.447,21.331,21.331,0,0,0-7.989,7.236,13.026,13.026,0,0,0-1.447,2.967,3.415,3.415,0,0,0-.26,1.172,30.482,30.482,0,0,1,2.156-3.835,22.678,22.678,0,0,1,7.873-6.816,19.986,19.986,0,0,1,10.3-1.592C102.569,195.365,104.2,195.9,104.248,195.77Z" transform="translate(440.827 44.827)" fill="#263238"/>
</svg>
