<svg xmlns="http://www.w3.org/2000/svg" width="815.514" height="516.833" viewBox="0 0 815.514 516.833">
  <g id="freepik--Character--inject-32" transform="matrix(-0.999, -0.035, 0.035, -0.999, 811.903, 516.866)">
    <path id="Path_3103" data-name="Path 3103" d="M2.9,4.029c7.137-2.6,214.322-6.512,222.449-1.875.886.521.625,9.664,3.673,33.315.156,1.146,4.9,5.522,12.268,11.722,27.715,23.209,92.835,72.179,92.835,72.179L230.694,209.078,130.488,110.591,104.44,84.986S19.784,39.272,11.4,33.229-4.232,6.764,2.9,4.029Z" transform="translate(14.735 1.757)" fill="#dd6a57"/>
    <path id="Path_3104" data-name="Path 3104" d="M2.86,4.065C10,1.3,217.208-2.447,225.309,2.189c.86.521.625,9.664,3.7,33.315.13,1.12,4.871,5.522,12.243,11.722,9.638,8.075,14.222,11.748,28.653,22.922L138.439,118.493l-7.814-7.814L104.577,85.074S19.921,39.386,11.56,33.316-4.277,6.8,2.86,4.065Z" transform="translate(14.78 1.721)" fill="#ebebeb"/>
    <path id="Path_3105" data-name="Path 3105" d="M3.365,2.887c7.189-2.6,227.972-4.923,235.916,0,1.849,1.146,3.568,13.988,4.949,31.544.156,2.214,22.531,20.083,25.579,23.443L134.543,103.432,117.455,87.36S17.9,41.047,9.747,34.744-3.85,5.388,3.365,2.887Z" transform="translate(0 0.033)" fill="#7d25f5"/>
    <path id="Path_3106" data-name="Path 3106" d="M.469,3.745C35.165,4.187,189,2.7,223.335.515c.286,0,.286-.208,0-.208C188.952-.892,35.113,1.713.469,3.172-.156,3.2-.156,3.718.469,3.745Z" transform="translate(5.944 7.433)" fill="#263238"/>
    <path id="Path_3107" data-name="Path 3107" d="M.847,10.569c13.675,2.4,30.346,0,40.661-9.742.391-.391-.156-.938-.6-.807A192.518,192.518,0,0,1,.873,8.85a.86.86,0,0,0-.026,1.719Z" transform="translate(105.564 75.236)" fill="#263238"/>
    <path id="Path_3108" data-name="Path 3108" d="M.711,10.576c13.675,2.37,30.346,0,40.661-9.768.391-.365-.156-.938-.6-.781a190.958,190.958,0,0,1-40.01,8.8.886.886,0,0,0-.052,1.745Z" transform="translate(95.776 69.473)" fill="#263238"/>
    <path id="Path_3109" data-name="Path 3109" d="M.859,10.569c13.649,2.4,30.32,0,40.635-9.742.417-.391-.156-.938-.573-.807A192.889,192.889,0,0,1,.859,8.85a.86.86,0,0,0,0,1.719Z" transform="translate(85.677 63.645)" fill="#263238"/>
    <path id="Path_3110" data-name="Path 3110" d="M.722,10.576c13.675,2.37,30.32,0,40.635-9.768.417-.365-.13-.938-.573-.781A191.2,191.2,0,0,1,.748,8.831a.886.886,0,0,0-.026,1.745Z" transform="translate(75.942 57.829)" fill="#263238"/>
    <path id="Path_3111" data-name="Path 3111" d="M8.058,15.2C17.617,7.568,30.146,4.364,41.347.066a1.693,1.693,0,0,1,2.162,1.667.363.363,0,0,1,.339.495A72.934,72.934,0,0,1,23.191,33.746c-5.626,4.845-15.629,8.283-21.021.964S2.457,19.654,8.058,15.2ZM4.7,26.245c-2.214,15,13.753,6.955,17.765,3.2a79.258,79.258,0,0,0,7.163-7.814C34.262,15.9,38.039,9.626,42.076,3.4c-5.392,2.448-10.914,4.428-16.384,6.668C19.18,12.752,5.948,17.961,4.7,26.245Z" transform="translate(79.416 83.004)" fill="#263238"/>
    <path id="Path_3112" data-name="Path 3112" d="M49.209,22.4c-3.2,8.544-13.7,8-20.474,4.9A72.517,72.517,0,0,1,.082,2.787a.365.365,0,0,1,.156-.573A1.719,1.719,0,0,1,1.854,0c11.982,1.016,24.9.625,36.207,5.21C44.833,7.919,52.23,14.326,49.209,22.4ZM19.775,5.314c-5.887-.651-11.748-.99-17.608-1.849,5.6,4.767,10.94,9.742,17.009,13.962a77.106,77.106,0,0,0,9.065,5.6c4.9,2.6,22.479,5.783,16.176-8.023C40.926,7.346,26.782,6.043,19.775,5.314Z" transform="translate(119.847 83.096)" fill="#263238"/>
    <path id="Path_3113" data-name="Path 3113" d="M0,66.24,127.817,0S260.974,120.524,273.165,121.435,464.487.755,554.821.391C648.229,0,652.944,97.862,652.944,97.862L516.687,129.12c-98.227,48.423-200.569,135.449-267.46,127.244C176.423,247.664,0,66.24,0,66.24Z" transform="translate(143.842 51.734)" fill="#455a64"/>
    <path id="Path_3114" data-name="Path 3114" d="M.515,57.264C22.083,46.611,16.144,49.945,37.5,39.031c10.419-5.21,63.349-31.987,72.309-38.6.208-.13,0-.495-.208-.417C99.055,3.553,46.776,31.268,36.383,36.869,15.128,48.174,21.327,45.152.2,56.665a.339.339,0,1,0,.313.6Z" transform="translate(174.584 77.563)" fill="#263238"/>
    <path id="Path_3115" data-name="Path 3115" d="M.081,14.093c24.98,22.037,106.8,93.773,110.183,96.377a45.19,45.19,0,0,0,8.543,6.408,9.013,9.013,0,0,0,7.815-.651c3.8-1.771,7.5-3.7,11.253-5.522l22.167-10.836c28.653-13.962,57.1-28.314,85.958-41.833,27.741-13.024,47.563-25.214,76.555-35.217a434.541,434.541,0,0,1,88.9-21.2c3.725-.443,7.476-.834,11.227-1.2.261,0,.261-.443,0-.417a356.528,356.528,0,0,0-87.495,16.28C306.535,25.085,287,36.546,259.648,49.1c-28.262,13.024-56.133,26.934-83.979,40.765-14.717,7.319-29.382,14.691-44.125,21.906-3.36,1.641-8.127,5.21-11.93,3.438a20.825,20.825,0,0,1-4.428-3.256l-4.9-4.063C103.96,102.682,3.493,16.177.315,13.676.185,13.546-.154,13.885.081,14.093Z" transform="translate(294.188 68.17)" fill="#263238"/>
    <path id="Path_3116" data-name="Path 3116" d="M482.973,149.6s15.29-88.355-28.887-123.077S86.159-4.034,37.033,11.855-13.6,106.982,40.08,125.346c51.08,17.478,268.294,26.048,273.712,28.106,1.355.547-19.275,12.894-19.171,13.649l49.491,15.108Z" transform="translate(313.942 0)" fill="#455a64"/>
    <path id="Path_3117" data-name="Path 3117" d="M.491,48.459c0,.365.651.234.651,0A43.711,43.711,0,0,1,11.354,20.378C18.881,11.705,29.977,6.834,40.005,1.755c.964-.495.235-2.006-.781-1.719A89.867,89.867,0,0,0,21.485,7.694,42.875,42.875,0,0,0,8.149,18.79,38.161,38.161,0,0,0,.491,48.459Z" transform="translate(729.43 103.378)" fill="#263238"/>
    <path id="Path_3118" data-name="Path 3118" d="M2.153,11.725c2.24,2.865,4.689,5.6,7.033,8.361,5.522,6.59,11.07,13.206,16.879,19.562.547.6,1.615-.26,1.12-.912-3.907-5.21-8.049-10.054-12.112-15.03-2.084-2.6-4.168-5.21-6.278-7.632A48.332,48.332,0,0,1,2.935,8.651C1.424,5.812,3.4,3.442,6.347,3.077a10.159,10.159,0,0,1,7.059,2.6A91.648,91.648,0,0,1,25.388,18.5c2.344,2.6,4.662,5.21,7.033,7.814s5.21,5.366,7.815,8.127a.2.2,0,0,0,.312-.26c-2.188-3.022-4.194-6.173-6.408-9.169s-4.428-5.991-6.694-8.961S23.1,10.527,20.8,7.818A27.035,27.035,0,0,0,14.057,1.8C9.863-.674,2.57-1.221.33,4.223a7.58,7.58,0,0,0,1.823,7.5Z" transform="translate(629.15 151.052)" fill="#263238"/>
    <path id="Path_3119" data-name="Path 3119" d="M.189,3.059c16.931-.339,33.862-1.3,50.741-1.667s33.55-.469,50.325-.286q50.559.469,101.014,3.907c33.862,2.344,70.616,5.731,104.374,10.419,16.15,2.24,32.508,4.09,48.475,7.528A76.582,76.582,0,0,1,393.357,42.5c21.854,21.2,30.346,52.356,33.862,82.155.469,3.985.86,8,1.2,12.008a.208.208,0,1,0,.391,0c-1.954-30.528-6.72-62.359-25.918-86.922A76.476,76.476,0,0,0,371.633,25.46c-15.108-6.069-31.883-7.476-47.85-9.638-33.862-4.61-70.668-8.153-104.739-10.784S150.356.715,115.972.194,47.154.194,12.8,1.861C8.6,2.069,4.435,2.33.242,2.694-.071,2.694-.071,3.059.189,3.059Z" transform="translate(357.506 8.509)" fill="#263238"/>
    <path id="Path_3120" data-name="Path 3120" d="M.511,1.592C11.165,3.155,21.767,4.665,32.472,5.786S54.118,7.869,64.954,8.807c21.411,1.8,42.875,3.438,64.338,4.428,12.217.573,24.407.651,36.623.495.391,0,.339-.573,0-.6-21.463-1.954-42.953-3.308-64.442-4.741s-42.9-3.308-64.312-5.34C25.022,1.878,12.858.993.694,0-.114-.075-.27,1.462.511,1.592Z" transform="translate(463.72 139.878)" fill="#263238"/>
    <path id="Path_3121" data-name="Path 3121" d="M.858,29.484A164.6,164.6,0,0,0,25.5,16.3,197.965,197.965,0,0,0,48.317.336c.208-.156,0-.417-.26-.312-8.387,3.855-16.41,8.7-24.381,13.337a230.773,230.773,0,0,0-23.443,15C-.288,28.755.128,29.8.858,29.484Z" transform="translate(605.178 138.685)" fill="#263238"/>
    <path id="Path_3122" data-name="Path 3122" d="M215.449,118.626C199.325,90.364,135.065,3.572,114.9.707,93.857-2.314,16.287,4.328,2.143,21c-6.929,8.153,4.246,78.144,15,74.185s77.128-19.953,85.62-18.7,77.31,67.725,102.655,82.207C249.077,183.46,224.149,133.786,215.449,118.626Z" transform="translate(453.519 198.615)" fill="#dd6a57"/>
    <path id="Path_3123" data-name="Path 3123" d="M16.358,97.5,0,10.865S77.675-5.051,100.6,1.644s86.948,97.732,105.6,133.73,2.37,45.48-31.257,23.052S87.677,85.7,82.468,85.492,16.358,97.5,16.358,97.5Z" transform="translate(471.316 194.084)" fill="#7d25f5"/>
    <path id="Path_3124" data-name="Path 3124" d="M175.433,142.821a21.406,21.406,0,0,1-4.611-6.59,23.1,23.1,0,0,1,11.2,11.2A21.413,21.413,0,0,1,175.433,142.821ZM7.814,10.784A21.618,21.618,0,0,1,0,9.4a23,23,0,0,1,15.837,0,21.8,21.8,0,0,1-8.023,1.381ZM134.772,36.676a21.832,21.832,0,0,1-7.944-1.381,21.332,21.332,0,0,1,7.945-1.407h1.042l2.032,2.6A24.045,24.045,0,0,0,134.772,36.676Zm-55.3-20.838A23.443,23.443,0,0,1,79.472,0a21.749,21.749,0,0,1,1.406,7.814,21.2,21.2,0,0,1-1.406,8.1Zm65.12,84.682a20.579,20.579,0,0,1-1.381-7.814,21.174,21.174,0,0,1,1.38-7.814,21.181,21.181,0,0,1,1.381,7.814,20.582,20.582,0,0,1-1.407,7.892Zm30.867,42.224a21.407,21.407,0,0,1-4.611-6.59,23.1,23.1,0,0,1,11.2,11.2,21.413,21.413,0,0,1-6.616-4.532ZM91.949,71.423a21.1,21.1,0,0,1-4.611-6.59,21.487,21.487,0,0,1,6.59,4.637,21.1,21.1,0,0,1,4.61,6.59A21.931,21.931,0,0,1,91.949,71.423Zm-78.43,16.2h0l-.7-.651a21.1,21.1,0,0,1-4.611-6.59,21.356,21.356,0,0,1,6.59,4.637c.625.651,1.224,1.3,1.8,2.006Zm31.257-42.9a21.1,21.1,0,0,1-6.59,4.61,21.047,21.047,0,0,1,4.637-6.59,21.311,21.311,0,0,1,6.564-4.61,21.414,21.414,0,0,1-4.689,6.59Zm90.074-8.049a21.832,21.832,0,0,1-7.945-1.381,21.332,21.332,0,0,1,7.945-1.407h1.042l2.032,2.6a24.432,24.432,0,0,0-3.152.182Zm9.794,63.922a20.577,20.577,0,0,1-1.381-7.814,21.18,21.18,0,0,1,1.381-7.814,21.177,21.177,0,0,1,1.381,7.814,20.577,20.577,0,0,1-1.459,7.814Z" transform="translate(479.079 202.969)" fill="#fff"/>
    <path id="Path_3125" data-name="Path 3125" d="M8.961,40.6c1.328,6.877,6.408,34.331,7.163,41.26h-.208C13.91,75.4,8.1,48.442,6.772,41.565A375.524,375.524,0,0,1,0,.227c0-.234.365-.365.443,0C4.168,13.434,6.356,27.083,8.961,40.6Z" transform="translate(492.754 203.705)" fill="#263238"/>
    <path id="Path_3126" data-name="Path 3126" d="M194.37,135.406C175.667,99.382,111.668,8.37,88.745,1.65,71.371-3.43,22.662,4.463,0,8.6L193.224,170.466C204.086,169.659,205.831,157.442,194.37,135.406Z" transform="translate(483.168 194.052)" opacity="0.1"/>
    <path id="Path_3127" data-name="Path 3127" d="M.211,11.1,191.247,0c-.235,3.907-30.138,113.491-51.627,155.194-27.559,53.5-39.775,61.656-47.954,64.391-10.419,3.49-31.935,3.49-38.264-6.616C19.279,158.424-2.393,13.519.211,11.1Z" transform="translate(609.602 146.549)" fill="#7d25f5"/>
    <path id="Path_3128" data-name="Path 3128" d="M3,183.586c-1.016-2.032-2.006-4.116-3-6.3a30.608,30.608,0,0,1,3.126,2.6,21.412,21.412,0,0,1,4.61,6.59A18.621,18.621,0,0,1,3,183.586Zm57.514-177A21.1,21.1,0,0,1,55.9,0a21.408,21.408,0,0,1,6.59,4.611A21.72,21.72,0,0,1,67.1,11.2a21.408,21.408,0,0,1-6.59-4.61ZM3,183.586c-1.016-2.032-2.006-4.116-3-6.3a30.608,30.608,0,0,1,3.126,2.6,21.412,21.412,0,0,1,4.61,6.59A18.621,18.621,0,0,1,3,183.586ZM115.21,90.256h0a13.025,13.025,0,0,1-1.485.729,18.519,18.519,0,0,1,2.865-4.637ZM73.221,178.819a29.755,29.755,0,0,1-2.344,2.084h0a18.048,18.048,0,0,1-4.194,2.6,21.412,21.412,0,0,1,4.611-6.59,23.8,23.8,0,0,1,4.767-3.7,13.233,13.233,0,0,1,1.823-.912,21.489,21.489,0,0,1-4.663,6.434Zm-51.757-89.4a21.094,21.094,0,0,1-6.59,4.61,21.494,21.494,0,0,1,4.637-6.59,21.1,21.1,0,0,1,6.59-4.611,21.928,21.928,0,0,1-4.637,6.59ZM69.418,62.984A21.2,21.2,0,0,1,61.6,61.577a23.443,23.443,0,0,1,15.837,0,21.125,21.125,0,0,1-8.023,1.407Zm-46.6,83.77A21.126,21.126,0,0,1,15,145.348a21.624,21.624,0,0,1,7.814-1.38,21.254,21.254,0,0,1,7.814,1.381,21.307,21.307,0,0,1-7.814,1.407ZM2.136,32.638A21.127,21.127,0,0,1,.729,24.824a21.833,21.833,0,0,1,1.406-7.814,23.443,23.443,0,0,1,0,15.837Zm109.4,7.945a23.079,23.079,0,0,1,0-15.863A23.442,23.442,0,0,1,111.537,40.583ZM72.465,126.02a23,23,0,0,1,0-15.837A21.808,21.808,0,0,1,73.846,118a21.063,21.063,0,0,1-1.587,8.018Z" transform="translate(653.365 163.871)" fill="#fff"/>
    <path id="Path_3129" data-name="Path 3129" d="M82.115,183.255c48.267-59.363,101.014-157.929,75.174-177C133.716-11.167,52.133,10.948,1.366,34c-9.69,4.376,35.008,89.6,44.8,83.848a292.076,292.076,0,0,1,32.039-16.514C81.021,100.4,66.434,120.3,51.508,167,36.348,214.46,54.53,217.169,82.115,183.255Z" transform="translate(651.036 158.55)" fill="#dd6a57"/>
    <path id="Path_3130" data-name="Path 3130" d="M.011,106.484C-.589,96.325,24.574,97,24.574,97a18.8,18.8,0,0,1-8.179-9.794c-2.292-7.4,8.283-14.222,8.283-14.222a23,23,0,0,1-6.9-11.7C16.291,54,25.98,45.662,25.98,45.662a20.319,20.319,0,0,1,.339-14.144C31.529,19.64,51.664,18.338,63.88,15.082A265.068,265.068,0,0,0,103.733,0l27.845,90s-51.966,34.592-66.917,34.67C51.924,124.744.922,122.009.011,106.484Z" transform="translate(571.486 183.146)" fill="#dd6a57"/>
    <path id="Path_3131" data-name="Path 3131" d="M.216.651C13.682,3.8,27.879,3.725,41.58,3.517c.312,0,.312-.495,0-.469C27.957,3.412,13.891.156.294,0A.339.339,0,0,0,.216.651Z" transform="translate(596.053 279.758)" fill="#263238"/>
    <path id="Path_3132" data-name="Path 3132" d="M.534,3.908a35.71,35.71,0,0,0,9.429,0c3.334-.234,6.668-.495,10-.834C26.608,2.4,33.25,1.59,39.866.47c.313,0,.313-.495,0-.469C33.225.652,26.582,1.2,19.914,1.564l-10,.495a42.1,42.1,0,0,0-9.4.808A.521.521,0,1,0,.534,3.908Z" transform="translate(596.047 253.24)" fill="#263238"/>
    <path id="Path_3133" data-name="Path 3133" d="M.089,3.751A26.044,26.044,0,0,0,8.58,3.308l9.091-1.042C23.74,1.589,29.809.938,35.9.495A.261.261,0,0,0,35.9,0c-6.2.443-12.373.781-18.546,1.276-3.048.234-6.069.469-9.091.755A23.441,23.441,0,0,0,.089,3.438a.182.182,0,0,0,0,.313Z" transform="translate(597.586 224.979)" fill="#263238"/>
    <path id="Path_3134" data-name="Path 3134" d="M25.032,116.84,0,19.864s121.1-38.6,135.449-8.179S83.77,161.3,43.891,196.443s-27.038-17.556-26.048-21.776C22.479,155.938,46.131,106.5,46.131,106.5Z" transform="translate(680.429 157.109)" fill="#7d25f5"/>
    <path id="Path_3135" data-name="Path 3135" d="M13.805,122.451a23,23,0,0,1,0-15.837,21.8,21.8,0,0,1,1.381,7.814,21.071,21.071,0,0,1-1.381,8.023ZM52.877,37.014a23.078,23.078,0,0,1,0-15.863,23.442,23.442,0,0,1,0,15.863Zm-42.015,22.4a21.2,21.2,0,0,1-7.814-1.407,23.443,23.443,0,0,1,15.837,0,21.128,21.128,0,0,1-7.919,1.407Zm3.8,115.757a21.308,21.308,0,0,1-6.564,4.61,23.106,23.106,0,0,1,11.2-11.2,21.491,21.491,0,0,1-4.532,6.59ZM98.565,8.622A21.309,21.309,0,0,1,92,13.232a23.1,23.1,0,0,1,11.2-11.2,21.486,21.486,0,0,1-4.532,6.59ZM61.734,82.806a21.413,21.413,0,0,1-6.59,4.611,23.1,23.1,0,0,1,11.2-11.2,21.412,21.412,0,0,1-4.506,6.59ZM2.058,3.022C1.354,2.266.651,1.511,0,.7L2.891,0c.391.339.781.677,1.146,1.042a21.722,21.722,0,0,1,4.61,6.59A21.409,21.409,0,0,1,2.058,3.022Z" transform="translate(711.817 167.439)" fill="#fff"/>
    <path id="Path_3136" data-name="Path 3136" d="M2.92,34.589C16.751,28.858,52.749,8.541,60.46.466c.208-.235,0-.6-.313-.417C52.463,6.118,8.051,30.916.966,33.912a10.623,10.623,0,0,0-.547-1.068c-.26-.339-.443,0-.417.182s.573,2.24.651,2.37Z" transform="translate(704.651 239.178)" fill="#263238"/>
    <path id="Path_3137" data-name="Path 3137" d="M11.149,40.093c1.693,6.772,8.283,33.862,9.4,40.791,0,0-.156.182-.182,0C18,74.554,10.732,47.959,9.013,41.161A379.219,379.219,0,0,1,0,.265C0,.031.339-.125.417.135,4.9,13.237,7.815,26.73,11.149,40.093Z" transform="translate(704.002 178.218)" fill="#263238"/>
    <path id="Path_3138" data-name="Path 3138" d="M22.9.2c-3.412,8.57-7.814,16.775-11.461,25.162S3.623,42.054.21,50.52H0C2.112,44.763,4.2,39.007,6.436,33.328c-.7.912-1.406,1.875-2.058,2.813C3.154,37.887,2.06,39.71.966,41.533H.783A28.447,28.447,0,0,1,3.909,35.8a39.631,39.631,0,0,1,3.074-3.777c.938-2.318,1.9-4.61,2.917-6.929C13.651,16.631,16.464,8.27,21.466.43,21.648-.065,23-.117,22.9.2Z" transform="translate(704.756 262.736)" fill="#263238"/>
    <path id="Path_3139" data-name="Path 3139" d="M118.445,1.635C93.439-1.881,14.826,16.326,1.438,19.869c.234,1.433.208,1.954.573,3.959,0,.26-.365.417-.443.13-.495-1.9-1.98-5.652-1.459-5.913C6.491,15.154,94.064-4.825,118.445,1.088,118.81,1.114,118.836,1.687,118.445,1.635Z" transform="translate(679.513 156.922)" fill="#263238"/>
    <path id="Path_3140" data-name="Path 3140" d="M138,11.539,35.686,0,0,142.613l102.316,11.539Z" transform="translate(465.872 184.032)" fill="#263238"/>
    <path id="Path_3141" data-name="Path 3141" d="M138,11.539,35.686,0,0,142.613l102.316,11.539Z" transform="translate(460.845 183.459)" fill="#37474f"/>
    <path id="Path_3142" data-name="Path 3142" d="M.223,8.777A11.123,11.123,0,0,1,12.153.051a9.012,9.012,0,0,1,7.971,10.966A11.149,11.149,0,0,1,8.168,19.743,9.013,9.013,0,0,1,.223,8.777Z" transform="translate(515.479 256.577)" fill="#fff"/>
    <path id="Path_3143" data-name="Path 3143" d="M18.383,108.943C13.9,97.117,1.4,81.853,1.035,72.476A10.836,10.836,0,0,1,7.911,61.562S-1.023,56.2.1,47.6c.573-4.428,8.1-7.424,8.1-7.424S1.243,35.54,2.676,27.96c1.12-6.043,8.518-8.153,8.518-8.153S6.583,12.253,9.709,6.471C16.065-5.251,68.655-1.031,75.245,19c3.048,9.325-9.742,7.606-9.742,7.606S83.294,33.534,82.721,44.4,65.634,52,65.634,52,82.825,58.879,81.08,70.08c-1.823,11.67-17.765,5.6-17.765,5.6s11.07,8.856,7.814,17.139c-5.47,13.649-26.2-5.731-37.978-3.933l-7.814,18.572Z" transform="translate(442.853 187.85)" fill="#dd6a57"/>
    <path id="Path_3144" data-name="Path 3144" d="M10.347,1.927C13.629,13.519-1.426,26.282.111,37.822c2.11,15.629,20.552,1.954,26.178-20L27.669,0Z" transform="translate(441.694 277.466)" fill="#dd6a57"/>
    <path id="Path_3145" data-name="Path 3145" d="M.094,1.486a.156.156,0,0,1,0-.287A91.636,91.636,0,0,1,54.013,8.78c.547.26.339,1.224-.312,1.042A187.546,187.546,0,0,0,.094,1.486Z" transform="translate(455.021 205.65)" fill="#263238"/>
    <path id="Path_3146" data-name="Path 3146" d="M.156,1.346c-.208,0-.208-.339,0-.391C18.39-1.858,41.1,1.372,58.477,12.886c.6.391.755,1.354,0,.938C46.365,7.051,17.218,1.242.156,1.346Z" transform="translate(450.608 226.524)" fill="#263238"/>
    <path id="Path_3147" data-name="Path 3147" d="M55.8,16.743C38.691,6.324,19.962,2.469.166,1.271c-.234,0-.208-.391,0-.443,9.846-2.032,22.375,0,31.987,2.6A52.773,52.773,0,0,1,56.117,16.248C56.43,16.4,56.169,16.978,55.8,16.743Z" transform="translate(451.328 247.985)" fill="#263238"/>
    <path id="Path_3148" data-name="Path 3148" d="M24.485.006C35.66-.41,50.768,19.516,55.4,34.155c.286,1.016-2.97,10.419-6.408,21.75C46.912,62.886,44.8,70.675,43.37,77.942,43.083,79.427,0,57.885,0,57.885A117.918,117.918,0,0,0,9.9,30.873a15.289,15.289,0,0,0,.26-3.022c0-.156,0-.312,0-.521C10.289,21.5,13.675.423,24.485.006Z" transform="translate(649.302 327.836)" fill="#dd6a57"/>
    <path id="Path_3149" data-name="Path 3149" d="M40.583,49.882C40.869,37.171,39.1,6.017,14.9.677A27.4,27.4,0,0,0,10.185,0a1.813,1.813,0,0,0,0,.521A21.077,21.077,0,0,1,9.9,3.543,117.785,117.785,0,0,1,0,30.58S31.1,46.1,40.583,49.882Z" transform="translate(649.328 355.167)" fill="#263238"/>
    <path id="Path_3150" data-name="Path 3150" d="M68.075,97.319c9.664-14.248,15.446-62.228,7.4-75.826C63.829,1.775,37.7-7.837,19.209,7.766,1.262,22.926-5.172,85.6,4.466,98.673,18.662,117.923,53.8,118.339,68.075,97.319Z" transform="translate(615.167 366.416)" fill="#dd6a57"/>
    <path id="Path_3151" data-name="Path 3151" d="M.064,8.257c0,.13.26-.13.286-.26C.533,4.741,1.262,1.042,4.31.182V0C.664.234-.274,5.158.064,8.257Z" transform="translate(647.31 413.931)" fill="#263238"/>
    <path id="Path_3152" data-name="Path 3152" d="M2.678,10.466C7.887,11.326,9.19.88,4.371.047S-1.672,9.763,2.678,10.466Z" transform="translate(647.301 415.369)" fill="#263238"/>
    <path id="Path_3153" data-name="Path 3153" d="M2.448,8.937s-.234-.182-.234-.313C2.735,5.394,2.787,1.617,0,.185V0C3.543.966,3.438,5.967,2.448,8.937Z" transform="translate(626.875 410.881)" fill="#263238"/>
    <path id="Path_3154" data-name="Path 3154" d="M3.526,10.426C-1.684,10.166-.8-.306,4.073.007S7.928,10.66,3.526,10.426Z" transform="translate(622.463 412.387)" fill="#263238"/>
    <path id="Path_3155" data-name="Path 3155" d="M8.808.032a39.083,39.083,0,0,0-4.22.886A7.034,7.034,0,0,0,.446,2.637a2.318,2.318,0,0,0,0,2.735A5.522,5.522,0,0,0,5.89,6.648,8.1,8.1,0,0,0,11.1,3.783,2.37,2.37,0,0,0,8.808.032Z" transform="translate(644.089 432.836)" fill="#263238"/>
    <path id="Path_3156" data-name="Path 3156" d="M2.94.07A39.481,39.481,0,0,1,7.056,1.346a7.109,7.109,0,0,1,3.959,2.11,2.24,2.24,0,0,1-.26,2.6,5.5,5.5,0,0,1-5.548.755A8.049,8.049,0,0,1,.335,3.586,2.37,2.37,0,0,1,2.94.07Z" transform="translate(617.579 427.354)" fill="#263238"/>
    <path id="Path_3157" data-name="Path 3157" d="M5.053,4.5C4.688,3.488,4.48,2.185,3.49,1.56A8.857,8.857,0,0,0,0,.675V.466A4.35,4.35,0,0,1,4.48.8,3.464,3.464,0,0,1,5.444,4.53.213.213,0,0,1,5.053,4.5Z" transform="translate(652.454 389.605)" fill="#263238"/>
    <path id="Path_3158" data-name="Path 3158" d="M19.573,6.512A11.253,11.253,0,0,0,12.853.677,14.33,14.33,0,0,0,8.92,0H7.409A.808.808,0,0,0,6.68.625h0a1.482,1.482,0,0,0,0,.339h0V1.25c-.365,2.475-.6,6.278-.6,6.278C5.221,6.981.871,4.3.871,5.6a165.05,165.05,0,0,0,0,33.862.313.313,0,0,0,.6,0c1.094-10.419.365-20.838,1.3-31.257a19.906,19.906,0,0,0,5,2.24c.365,0,.313-7.4.573-8.492h0a15.343,15.343,0,0,1,10.94,4.975A.282.282,0,0,0,19.573,6.512Z" transform="translate(632.386 395.593)" fill="#263238"/>
    <path id="Path_3159" data-name="Path 3159" d="M0,2.4A12.111,12.111,0,0,1,5.756.025,5.731,5.731,0,0,1,9.039.7c2.162,1.25,1.641,3.412.7,5.21a13.458,13.458,0,0,1-1.823,2.6A15.63,15.63,0,0,0,0,2.4Z" transform="translate(643.962 393.797)" fill="#263238"/>
    <path id="Path_3160" data-name="Path 3160" d="M.022.025A5.732,5.732,0,0,1,3.3.7c2.162,1.25,1.641,3.412.7,5.21A5.627,5.627,0,0,1,.022.025Z" transform="translate(649.644 393.797)" fill="#ff9bbc"/>
    <path id="Path_3161" data-name="Path 3161" d="M87.5.967C75.78-3.592,65.1,8.781,64.319,21.154c0,0-30.554-14.118-40.036,11.018A26.308,26.308,0,0,0,7.118,14.251L6.493,3.7C2.924,3.7-3.432,11.855,2.3,21.623c0,0-3.386,13.024,3.647,23.443a18.233,18.233,0,0,0,17.921,8.439A27.611,27.611,0,0,0,41.632,64.211,23.443,23.443,0,0,0,62,57.126S78.724,59,84.9,48.634a24.381,24.381,0,0,0,2.6-19.718s5.21-3.178,6.278-13.363C94.483,9.041,91.018,2.347,87.5.967Z" transform="translate(609.233 428.177)" fill="#263238"/>
    <path id="Path_3162" data-name="Path 3162" d="M0,20.808a31.007,31.007,0,0,1,1.849-6.278A26.052,26.052,0,0,1,4.9,8.852a16.852,16.852,0,0,1,10.211-6.9,27.637,27.637,0,0,1,12.685.7c2.032.7,4.142,1.25,6.173,2.084s4.011,1.745,6.043,2.6c-1.875-1.12-3.829-2.188-5.731-3.282s-4.116-1.667-6.173-2.6A27.167,27.167,0,0,0,14.769.387,17.739,17.739,0,0,0,3.907,8.2,26.489,26.489,0,0,0,0,20.808Z" transform="translate(633.543 442.015)" fill="#263238"/>
    <path id="Path_3163" data-name="Path 3163" d="M0,0A35.35,35.35,0,0,1,8.049,8.205a20.832,20.832,0,0,1,2.6,5.053,25.041,25.041,0,0,1,1.172,5.652,13.965,13.965,0,0,0,0-5.965,15.626,15.626,0,0,0-2.4-5.6A19.043,19.043,0,0,0,5.314,2.917,18.052,18.052,0,0,0,0,0Z" transform="translate(621.691 442.949)" fill="#263238"/>
    <path id="Path_3164" data-name="Path 3164" d="M0,16.59S6.069,34.328,13.831,32.583,20,7.186,12.972,1.977A8.335,8.335,0,0,0,1.016,3.2Z" transform="translate(685.014 407.109)" fill="#dd6a57"/>
    <path id="Path_3165" data-name="Path 3165" d="M8.574,21.945v-.182c-4.871-3.829-6.3-9.794-6.8-15.629a4.558,4.558,0,0,0,6.251,3.1c.182,0,0-.312,0-.312A5.21,5.21,0,0,1,3.1,5.639,25.268,25.268,0,0,1,1.75.43C1.75-.143.682-.143.708.43V.56C-1.4,7.645,1.2,19.08,8.574,21.945Z" transform="translate(689.646 410.975)" fill="#263238"/>
  </g>
</svg>
