<svg xmlns="http://www.w3.org/2000/svg" width="815.514" height="516.832" viewBox="0 0 815.514 516.832">
  <g id="freepik--Character--inject-32" transform="matrix(0.999, -0.035, 0.035, 0.999, -291.591, -194.151)">
    <path id="Path_3103" data-name="Path 3103" d="M328.34,582.049c7.137,2.6,214.323,6.512,222.45,1.875.886-.521.625-9.664,3.673-33.315.156-1.146,4.9-5.522,12.268-11.722,27.715-23.209,92.835-72.179,92.835-72.179L556.129,377,455.923,475.487l-26.048,25.605s-84.656,45.714-93.043,51.757S321.2,579.314,328.34,582.049Z" transform="translate(-40.492 133.05)" fill="#dd6a57"/>
    <path id="Path_3104" data-name="Path 3104" d="M328.312,526.219c7.137,2.761,214.349,6.512,222.449,1.875.86-.521.625-9.664,3.7-33.315.13-1.12,4.871-5.522,12.243-11.722,9.638-8.075,14.222-11.748,28.653-22.922L463.891,411.79l-7.814,7.814-26.048,25.605s-84.656,45.688-93.017,51.757S321.175,523.484,328.312,526.219Z" transform="translate(-40.464 188.881)" fill="#ebebeb"/>
    <path id="Path_3105" data-name="Path 3105" d="M323.143,518.765c7.189,2.6,227.972,4.923,235.916,0,1.849-1.146,3.568-13.988,4.949-31.544.156-2.214,22.531-20.083,25.579-23.443L454.321,418.22l-17.087,16.072S337.678,480.6,329.525,486.909,315.928,516.264,323.143,518.765Z" transform="translate(-49.57 199.2)" fill="#7d25f5"/>
    <path id="Path_3106" data-name="Path 3106" d="M322.529,453.7c34.7-.443,188.535,1.042,222.866,3.23.286,0,.286.208,0,.208-34.383,1.2-188.223-1.406-222.866-2.865C321.9,454.245,321.9,453.724,322.529,453.7Z" transform="translate(-45.908 256.01)" fill="#263238"/>
    <path id="Path_3107" data-name="Path 3107" d="M361.152,425.531c13.675-2.4,30.346,0,40.661,9.742.391.391-.156.938-.6.807a192.518,192.518,0,0,0-40.036-8.83.86.86,0,0,1-.026-1.719Z" transform="translate(15.467 209.549)" fill="#263238"/>
    <path id="Path_3108" data-name="Path 3108" d="M357.258,427.734c13.675-2.37,30.346,0,40.661,9.768.391.365-.156.938-.6.781a190.958,190.958,0,0,0-40.01-8.8.886.886,0,0,1-.052-1.745Z" transform="translate(9.437 213.103)" fill="#263238"/>
    <path id="Path_3109" data-name="Path 3109" d="M353.529,429.981c13.649-2.4,30.32,0,40.635,9.742.417.391-.156.938-.573.807a192.889,192.889,0,0,0-40.062-8.83.86.86,0,0,1,0-1.719Z" transform="translate(3.215 216.691)" fill="#263238"/>
    <path id="Path_3110" data-name="Path 3110" d="M349.655,432.2c13.675-2.37,30.32,0,40.635,9.768.417.365-.13.938-.573.781a191.2,191.2,0,0,0-40.036-8.8.886.886,0,0,1-.026-1.745Z" transform="translate(-2.782 220.276)" fill="#263238"/>
    <path id="Path_3111" data-name="Path 3111" d="M358.324,434.862c9.56,7.632,22.089,10.836,33.289,15.134a1.693,1.693,0,0,0,2.162-1.667.363.363,0,0,0,.339-.495,72.934,72.934,0,0,0-20.656-31.518c-5.626-4.845-15.629-8.283-21.021-.964S352.724,430.407,358.324,434.862Zm-3.36-11.044c-2.214-15,13.753-6.955,17.765-3.2a79.258,79.258,0,0,1,7.163,7.814c4.637,5.731,8.414,12.008,12.451,18.234-5.392-2.448-10.914-4.428-16.384-6.668C369.447,437.31,356.214,432.1,354.964,423.817Z" transform="translate(-0.642 187.82)" fill="#263238"/>
    <path id="Path_3112" data-name="Path 3112" d="M415,421.736c-3.2-8.544-13.7-8-20.474-4.9a72.518,72.518,0,0,0-28.653,24.511.365.365,0,0,0,.156.573,1.719,1.719,0,0,0,1.615,2.214c11.982-1.016,24.9-.625,36.207-5.21C410.621,436.219,418.019,429.811,415,421.736Zm-29.434,17.087c-5.887.651-11.748.99-17.608,1.849,5.6-4.767,10.94-9.742,17.009-13.962a77.106,77.106,0,0,1,9.065-5.6c4.9-2.6,22.479-5.783,16.176,8.023C406.714,436.792,392.57,438.094,385.563,438.823Z" transform="translate(24.267 193.652)" fill="#263238"/>
    <path id="Path_3113" data-name="Path 3113" d="M375,530.118l127.817,66.24S635.974,475.834,648.165,474.922,839.487,595.6,929.821,595.967c93.408.391,98.123-97.471,98.123-97.471L891.687,467.238c-98.227-48.423-200.569-135.449-267.46-127.244C551.423,348.694,375,530.118,375,530.118Z" transform="translate(39.05 72.794)" fill="#455a64"/>
    <path id="Path_3114" data-name="Path 3114" d="M387.317,406.21c21.568,10.654,15.629,7.32,36.988,18.234,10.419,5.21,63.349,31.987,72.309,38.6.208.13,0,.495-.208.417-10.549-3.543-62.828-31.258-73.221-36.858-21.255-11.3-15.056-8.283-36.181-19.8a.339.339,0,1,1,.313-.6Z" transform="translate(57.99 179.848)" fill="#263238"/>
    <path id="Path_3115" data-name="Path 3115" d="M432.8,490.055c24.98-22.037,106.8-93.773,110.183-96.377a45.19,45.19,0,0,1,8.543-6.408,9.013,9.013,0,0,1,7.815.651c3.8,1.771,7.5,3.7,11.253,5.522l22.167,10.836c28.653,13.962,57.1,28.314,85.958,41.833,27.741,13.024,47.563,25.214,76.555,35.217a434.541,434.541,0,0,0,88.9,21.2c3.725.443,7.476.834,11.227,1.2.261,0,.261.443,0,.417a356.528,356.528,0,0,1-87.495-16.28c-28.653-8.8-48.189-20.265-75.539-32.82-28.262-13.024-56.133-26.934-83.979-40.765-14.717-7.319-29.382-14.691-44.125-21.906-3.36-1.641-8.127-5.21-11.93-3.438a20.825,20.825,0,0,0-4.428,3.256l-4.9,4.063c-6.33,5.21-106.8,91.715-109.975,94.215C432.9,490.6,432.565,490.263,432.8,490.055Z" transform="translate(131.677 148.568)" fill="#263238"/>
    <path id="Path_3116" data-name="Path 3116" d="M923.276,420.6s15.29,88.355-28.887,123.077-367.927,30.554-417.054,14.665-50.637-95.127,3.048-113.491c51.08-17.478,268.294-26.048,273.712-28.106,1.355-.547-19.275-12.894-19.171-13.649l49.491-15.108Z" transform="translate(143.848 150.687)" fill="#455a64"/>
    <path id="Path_3117" data-name="Path 3117" d="M600.3,399.79c0-.365.651-.234.651,0a43.711,43.711,0,0,0,10.212,28.081c7.526,8.672,18.623,13.543,28.651,18.622.964.495.235,2.006-.781,1.719a89.869,89.869,0,0,1-17.739-7.658,42.875,42.875,0,0,1-13.336-11.1A38.161,38.161,0,0,1,600.3,399.79Z" transform="translate(399.827 169.259)" fill="#263238"/>
    <path id="Path_3118" data-name="Path 3118" d="M563.466,412.778c2.24-2.865,4.689-5.6,7.033-8.361,5.522-6.59,11.07-13.206,16.879-19.562.547-.6,1.615.26,1.12.912-3.907,5.21-8.049,10.054-12.112,15.03-2.084,2.6-4.168,5.21-6.278,7.632a48.332,48.332,0,0,0-5.861,7.424c-1.511,2.839.469,5.21,3.412,5.574a10.159,10.159,0,0,0,7.059-2.6A91.648,91.648,0,0,0,586.7,406.006c2.344-2.6,4.662-5.21,7.033-7.814s5.21-5.366,7.815-8.127a.2.2,0,0,1,.312.26c-2.188,3.022-4.194,6.173-6.408,9.169s-4.428,5.991-6.694,8.961-4.35,5.522-6.642,8.231a27.035,27.035,0,0,1-6.747,6.017c-4.194,2.475-11.487,3.022-13.727-2.422a7.58,7.58,0,0,1,1.823-7.5Z" transform="translate(338.045 145.331)" fill="#263238"/>
    <path id="Path_3119" data-name="Path 3119" d="M457.217,535.983c16.931.339,33.862,1.3,50.741,1.667s33.55.469,50.325.286q50.559-.469,101.014-3.907c33.862-2.344,70.616-5.731,104.374-10.419,16.15-2.24,32.508-4.09,48.475-7.528a76.582,76.582,0,0,0,38.239-19.536c21.854-21.2,30.346-52.356,33.862-82.155.469-3.985.86-8,1.2-12.008a.208.208,0,1,1,.391,0c-1.954,30.528-6.72,62.359-25.918,86.922a76.477,76.477,0,0,1-31.258,24.277c-15.108,6.069-31.883,7.476-47.85,9.638-33.862,4.61-70.668,8.153-104.739,10.784S607.383,538.327,573,538.848s-68.819,0-103.176-1.667c-4.194-.208-8.362-.469-12.555-.833C456.956,536.348,456.956,535.983,457.217,535.983Z" transform="translate(170.687 173.334)" fill="#263238"/>
    <path id="Path_3120" data-name="Path 3120" d="M498.315,411.152c10.654-1.563,21.255-3.074,31.961-4.194s21.646-2.084,32.482-3.022c21.411-1.8,42.875-3.438,64.338-4.428,12.217-.573,24.407-.651,36.623-.495.391,0,.339.573,0,.6-21.463,1.954-42.953,3.308-64.442,4.741s-42.9,3.308-64.312,5.34c-12.138,1.172-24.3,2.058-36.467,3.048C497.69,412.819,497.534,411.282,498.315,411.152Z" transform="translate(236.125 168.264)" fill="#263238"/>
    <path id="Path_3121" data-name="Path 3121" d="M552.969,393.415A164.6,164.6,0,0,1,577.61,406.6a197.965,197.965,0,0,1,22.818,15.967c.208.156,0,.417-.26.313-8.387-3.855-16.41-8.7-24.381-13.337a230.773,230.773,0,0,1-23.443-15C551.822,394.145,552.239,393.1,552.969,393.415Z" transform="translate(323.276 159.302)" fill="#263238"/>
    <path id="Path_3122" data-name="Path 3122" d="M709.337,365.026c-16.124,28.262-80.384,115.054-100.545,117.919-21.047,3.022-98.617-3.621-112.762-20.291-6.929-8.153,4.246-78.144,15-74.185s77.128,19.953,85.62,18.7,77.31-67.725,102.655-82.207C742.965,300.192,718.037,349.866,709.337,365.026Z" transform="translate(229.84 38.619)" fill="#dd6a57"/>
    <path id="Path_3123" data-name="Path 3123" d="M517.078,390.971,500.72,477.606s77.675,15.915,100.6,9.221,86.948-97.732,105.6-133.73,2.37-45.48-31.257-23.052-87.261,72.726-92.47,72.934S517.078,390.971,517.078,390.971Z" transform="translate(240.805 38.331)" fill="#7d25f5"/>
    <path id="Path_3124" data-name="Path 3124" d="M679.133,328.03a21.406,21.406,0,0,0-4.611,6.59,23.1,23.1,0,0,0,11.2-11.2A21.413,21.413,0,0,0,679.133,328.03ZM511.514,460.068a21.618,21.618,0,0,0-7.814,1.38,23,23,0,0,0,15.837,0,21.8,21.8,0,0,0-8.023-1.381Zm126.958-25.892a21.832,21.832,0,0,0-7.944,1.381,21.332,21.332,0,0,0,7.945,1.407h1.042l2.032-2.6A24.045,24.045,0,0,1,638.472,434.176Zm-55.3,20.838a23.443,23.443,0,0,0,0,15.837,21.749,21.749,0,0,0,1.406-7.814,21.2,21.2,0,0,0-1.406-8.1Zm65.12-84.682a20.579,20.579,0,0,0-1.381,7.814,21.174,21.174,0,0,0,1.38,7.814,21.181,21.181,0,0,0,1.381-7.814,20.582,20.582,0,0,0-1.407-7.892Zm30.867-42.224a21.407,21.407,0,0,0-4.611,6.59,23.1,23.1,0,0,0,11.2-11.2,21.413,21.413,0,0,0-6.616,4.532Zm-83.51,71.319a21.1,21.1,0,0,0-4.611,6.59,21.487,21.487,0,0,0,6.59-4.637,21.1,21.1,0,0,0,4.61-6.59A21.931,21.931,0,0,0,595.649,399.428Zm-78.43-16.2h0l-.7.651a21.1,21.1,0,0,0-4.611,6.59,21.356,21.356,0,0,0,6.59-4.637c.625-.651,1.224-1.3,1.8-2.006Zm31.257,42.9a21.1,21.1,0,0,0-6.59-4.61,21.047,21.047,0,0,0,4.637,6.59,21.311,21.311,0,0,0,6.564,4.61,21.414,21.414,0,0,0-4.689-6.59Zm90.074,8.049a21.832,21.832,0,0,0-7.945,1.381,21.332,21.332,0,0,0,7.945,1.407h1.042l2.032-2.6a24.432,24.432,0,0,1-3.152-.182Zm9.794-63.922a20.577,20.577,0,0,0-1.381,7.814,21.18,21.18,0,0,0,1.381,7.814,21.177,21.177,0,0,0,1.381-7.814,20.577,20.577,0,0,0-1.459-7.814Z" transform="translate(245.587 47.065)" fill="#fff"/>
    <path id="Path_3125" data-name="Path 3125" d="M517.911,389.57c1.328-6.877,6.408-34.331,7.163-41.26h-.208c-2.006,6.46-7.814,33.419-9.143,40.3a375.524,375.524,0,0,0-6.772,41.338c0,.234.365.365.443,0C513.118,416.738,515.306,403.089,517.911,389.57Z" transform="translate(254.012 87.009)" fill="#263238"/>
    <path id="Path_3126" data-name="Path 3126" d="M699.64,353.061c-18.7,36.024-82.7,127.036-105.624,133.756-17.374,5.079-66.084-2.813-88.745-6.955L698.494,318C709.356,318.807,711.1,331.024,699.64,353.061Z" transform="translate(248.107 38.368)" opacity="0.1"/>
    <path id="Path_3127" data-name="Path 3127" d="M554.02,527.165l191.036,11.1c-.235-3.907-30.138-113.491-51.627-155.194-27.559-53.5-39.775-61.656-47.954-64.391-10.419-3.49-31.935-3.49-38.264,6.616C573.087,379.838,551.416,524.743,554.02,527.165Z" transform="translate(326.001 36.075)" fill="#7d25f5"/>
    <path id="Path_3128" data-name="Path 3128" d="M573.606,326.331c-1.016,2.032-2.006,4.116-3,6.3a30.608,30.608,0,0,0,3.126-2.6,21.412,21.412,0,0,0,4.61-6.59,18.621,18.621,0,0,0-4.741,2.891Zm57.514,177a21.1,21.1,0,0,0-4.611,6.59,21.408,21.408,0,0,0,6.59-4.611,21.72,21.72,0,0,0,4.61-6.59,21.408,21.408,0,0,0-6.59,4.61Zm-57.514-177c-1.016,2.032-2.006,4.116-3,6.3a30.608,30.608,0,0,0,3.126-2.6,21.412,21.412,0,0,0,4.61-6.59,18.621,18.621,0,0,0-4.741,2.891Zm112.215,93.33h0a13.025,13.025,0,0,0-1.485-.729,18.519,18.519,0,0,0,2.865,4.637ZM643.831,331.1a29.755,29.755,0,0,0-2.344-2.084h0a18.048,18.048,0,0,0-4.194-2.6A21.412,21.412,0,0,0,641.9,333a23.8,23.8,0,0,0,4.767,3.7,13.233,13.233,0,0,0,1.823.912,21.489,21.489,0,0,0-4.663-6.434Zm-51.758,89.4a21.094,21.094,0,0,0-6.59-4.61,21.494,21.494,0,0,0,4.637,6.59,21.1,21.1,0,0,0,6.59,4.611,21.928,21.928,0,0,0-4.637-6.59Zm47.954,26.439a21.2,21.2,0,0,0-7.814,1.407,23.443,23.443,0,0,0,15.837,0,21.125,21.125,0,0,0-8.023-1.407Zm-46.6-83.77a21.126,21.126,0,0,0-7.814,1.407,21.624,21.624,0,0,0,7.814,1.38,21.254,21.254,0,0,0,7.814-1.381,21.307,21.307,0,0,0-7.814-1.407ZM572.746,477.279a21.127,21.127,0,0,0-1.406,7.815,21.833,21.833,0,0,0,1.406,7.814,23.443,23.443,0,0,0,0-15.837Zm109.4-7.945a23.079,23.079,0,0,0,0,15.863A23.442,23.442,0,0,0,682.147,469.335ZM643.075,383.9a23,23,0,0,0,0,15.837,21.808,21.808,0,0,0,1.381-7.814,21.063,21.063,0,0,0-1.587-8.018Z" transform="translate(352.964 47.098)" fill="#fff"/>
    <path id="Path_3129" data-name="Path 3129" d="M651.83,340.769C700.1,400.133,752.844,498.7,727,517.765c-23.573,17.426-105.156-4.689-155.923-27.741-9.69-4.376,35.008-89.6,44.8-83.848a292.082,292.082,0,0,0,32.039,16.514c2.813.938-11.774-18.963-26.7-65.667C606.064,309.564,624.245,306.855,651.83,340.769Z" transform="translate(351.529 38.312)" fill="#dd6a57"/>
    <path id="Path_3130" data-name="Path 3130" d="M539.187,357.952c-.6,10.159,24.563,9.482,24.563,9.482a18.8,18.8,0,0,0-8.179,9.794c-2.292,7.4,8.283,14.222,8.283,14.222a23,23,0,0,0-6.9,11.7c-1.485,7.293,8.205,15.629,8.205,15.629a20.319,20.319,0,0,0,.339,14.144c5.209,11.878,25.344,13.18,37.561,16.436a265.069,265.069,0,0,1,39.853,15.082l27.845-90s-51.966-34.592-66.917-34.67C591.1,339.693,540.1,342.428,539.187,357.952Z" transform="translate(302.519 73.303)" fill="#dd6a57"/>
    <path id="Path_3131" data-name="Path 3131" d="M548.823,352.108c13.467-3.152,27.663-3.074,41.364-2.865.312,0,.312.495,0,.469-13.623-.365-27.689,2.891-41.286,3.048a.339.339,0,0,1-.078-.651Z" transform="translate(317.654 88.368)" fill="#263238"/>
    <path id="Path_3132" data-name="Path 3132" d="M549.139,359.413a35.71,35.71,0,0,1,9.429,0c3.334.234,6.668.495,10,.834,6.642.677,13.284,1.485,19.9,2.6.313,0,.313.495,0,.469-6.642-.651-13.284-1.2-19.953-1.563l-10-.495a42.1,42.1,0,0,1-9.4-.808.521.521,0,1,1,.026-1.042Z" transform="translate(317.65 104.325)" fill="#263238"/>
    <path id="Path_3133" data-name="Path 3133" d="M549.285,370.23a26.044,26.044,0,0,1,8.492.443l9.091,1.042c6.069.677,12.138,1.328,18.234,1.771a.261.261,0,0,1,0,.495c-6.2-.443-12.373-.781-18.546-1.276-3.048-.234-6.069-.469-9.091-.755a23.441,23.441,0,0,1-8.179-1.406.182.182,0,0,1,0-.313Z" transform="translate(318.599 121.925)" fill="#263238"/>
    <path id="Path_3134" data-name="Path 3134" d="M606.032,409.215,581,506.192s121.1,38.6,135.449,8.179S664.77,364.752,624.891,329.613s-27.038,17.556-26.048,21.776c4.637,18.728,28.288,68.168,28.288,68.168Z" transform="translate(369.638 37.721)" fill="#7d25f5"/>
    <path id="Path_3135" data-name="Path 3135" d="M606.855,381.972a23,23,0,0,0,0,15.837,21.8,21.8,0,0,0,1.381-7.814,21.071,21.071,0,0,0-1.381-8.023Zm39.072,85.437a23.078,23.078,0,0,0,0,15.863,23.442,23.442,0,0,0,0-15.863Zm-42.015-22.4a21.2,21.2,0,0,0-7.814,1.407,23.443,23.443,0,0,0,15.837,0,21.128,21.128,0,0,0-7.919-1.407Zm3.8-115.757a21.308,21.308,0,0,0-6.564-4.61,23.106,23.106,0,0,0,11.2,11.2,21.491,21.491,0,0,0-4.532-6.59Zm83.9,166.551a21.309,21.309,0,0,0-6.564-4.61,23.1,23.1,0,0,0,11.2,11.2,21.486,21.486,0,0,0-4.532-6.59Zm-36.832-74.185a21.413,21.413,0,0,0-6.59-4.611,23.1,23.1,0,0,0,11.2,11.2,21.412,21.412,0,0,0-4.506-6.59ZM595.108,501.4c-.7.755-1.407,1.511-2.058,2.318l2.891.7c.391-.339.781-.677,1.146-1.042a21.722,21.722,0,0,0,4.61-6.59A21.409,21.409,0,0,0,595.108,501.4Z" transform="translate(388.976 49.023)" fill="#fff"/>
    <path id="Path_3136" data-name="Path 3136" d="M593.219,353.337c13.831,5.731,49.83,26.048,57.54,34.123.208.235,0,.6-.313.417-7.684-6.069-52.1-30.867-59.181-33.862a10.623,10.623,0,0,1-.547,1.068c-.26.339-.443,0-.417-.182s.573-2.24.651-2.37Z" transform="translate(384.561 93.781)" fill="#263238"/>
    <path id="Path_3137" data-name="Path 3137" d="M601.2,399.311c1.693-6.772,8.283-33.862,9.4-40.791,0,0-.156-.182-.182,0-2.37,6.33-9.638,32.925-11.357,39.723a379.219,379.219,0,0,0-9.013,40.9c0,.235.339.391.417.13C594.947,426.167,597.865,412.674,601.2,399.311Z" transform="translate(384.161 103.264)" fill="#263238"/>
    <path id="Path_3138" data-name="Path 3138" d="M613.237,388c-3.412-8.57-7.814-16.775-11.461-25.162s-7.814-16.7-11.227-25.162h-.208c2.11,5.757,4.194,11.513,6.434,17.192-.7-.912-1.406-1.875-2.058-2.813-1.224-1.745-2.318-3.569-3.412-5.392h-.182a28.447,28.447,0,0,0,3.126,5.731,39.631,39.631,0,0,0,3.074,3.777c.938,2.318,1.9,4.61,2.917,6.929,3.751,8.466,6.564,16.827,11.565,24.667C611.987,388.265,613.342,388.317,613.237,388Z" transform="translate(384.625 69.95)" fill="#263238"/>
    <path id="Path_3139" data-name="Path 3139" d="M699.093,410.918c-25.006,3.517-103.619-14.691-117.007-18.234.234-1.433.208-1.954.573-3.959,0-.26-.365-.417-.443-.13-.495,1.9-1.98,5.652-1.459,5.913,6.382,2.891,93.955,22.87,118.336,16.957C699.458,411.438,699.484,410.865,699.093,410.918Z" transform="translate(369.073 151.411)" fill="#263238"/>
    <path id="Path_3140" data-name="Path 3140" d="M587.062,430.163,484.746,441.7,449.06,299.089,551.376,287.55Z" transform="translate(287.021 95.152)" fill="#263238"/>
    <path id="Path_3141" data-name="Path 3141" d="M585.132,430.382,482.816,441.922,447.13,299.309,549.446,287.77Z" transform="translate(283.923 95.505)" fill="#37474f"/>
    <path id="Path_3142" data-name="Path 3142" d="M517.9,362.858a11.123,11.123,0,0,0,11.93,8.726,9.012,9.012,0,0,0,7.971-10.966,11.149,11.149,0,0,0-11.956-8.726,9.013,9.013,0,0,0-7.945,10.966Z" transform="translate(268.013 92.674)" fill="#fff"/>
    <path id="Path_3143" data-name="Path 3143" d="M508.175,344c-4.48,11.826-16.983,27.09-17.348,36.467a10.836,10.836,0,0,0,6.877,10.914s-8.934,5.366-7.814,13.962c.573,4.428,8.1,7.424,8.1,7.424s-6.955,4.637-5.522,12.217c1.12,6.043,8.518,8.153,8.518,8.153s-4.61,7.554-1.485,13.337c6.356,11.722,58.946,7.5,65.537-12.529,3.048-9.325-9.742-7.606-9.742-7.606s17.791-6.929,17.218-17.791-17.087-7.606-17.087-7.606,17.192-6.877,15.446-18.077c-1.823-11.67-17.765-5.6-17.765-5.6s11.07-8.856,7.814-17.139c-5.47-13.649-26.2,5.731-37.978,3.933l-7.814-18.572Z" transform="translate(223.269 80.092)" fill="#dd6a57"/>
    <path id="Path_3144" data-name="Path 3144" d="M499.695,376.935c3.282-11.591-11.774-24.355-10.237-35.894,2.11-15.629,20.552-1.954,26.178,20l1.381,17.817Z" transform="translate(222.554 64.557)" fill="#dd6a57"/>
    <path id="Path_3145" data-name="Path 3145" d="M494.558,383.569a.156.156,0,0,0,0,.287,91.636,91.636,0,0,0,53.919-7.58c.547-.26.339-1.224-.312-1.042A187.546,187.546,0,0,1,494.558,383.569Z" transform="translate(230.765 130.18)" fill="#263238"/>
    <path id="Path_3146" data-name="Path 3146" d="M492.926,378.21c-.208,0-.208.339,0,.391,18.233,2.813,40.947-.417,58.321-11.93.6-.391.755-1.354,0-.938C539.135,372.506,509.988,378.314,492.926,378.21Z" transform="translate(228.047 114.805)" fill="#263238"/>
    <path id="Path_3147" data-name="Path 3147" d="M548.851,356.344c-17.113,10.419-35.842,14.274-55.638,15.473-.234,0-.208.391,0,.443,9.846,2.032,22.375,0,31.987-2.6a52.773,52.773,0,0,0,23.964-12.816C549.476,356.683,549.215,356.11,548.851,356.344Z" transform="translate(228.49 99.813)" fill="#263238"/>
    <path id="Path_3148" data-name="Path 3148" d="M593.535,380.141c11.175.417,26.283-19.51,30.919-34.149.286-1.016-2.97-10.419-6.408-21.75-2.084-6.981-4.194-14.769-5.626-22.037-.287-1.485-43.37,20.057-43.37,20.057a117.918,117.918,0,0,1,9.9,27.012,15.289,15.289,0,0,1,.26,3.022c0,.156,0,.313,0,.521C579.339,358.651,582.725,379.724,593.535,380.141Z" transform="translate(350.46 12.902)" fill="#dd6a57"/>
    <path id="Path_3149" data-name="Path 3149" d="M609.643,302.44c.286,12.711-1.485,43.865-25.683,49.2a27.4,27.4,0,0,1-4.715.677,1.813,1.813,0,0,1,0-.521,21.077,21.077,0,0,0-.287-3.021,117.785,117.785,0,0,0-9.9-27.038S600.161,306.217,609.643,302.44Z" transform="translate(350.477 13.397)" fill="#263238"/>
    <path id="Path_3150" data-name="Path 3150" d="M624.021,289.632c9.664,14.248,15.446,62.228,7.4,75.826-11.643,19.718-37.769,29.33-56.264,13.727-17.947-15.16-24.381-77.831-14.743-90.907C574.607,269.028,609.746,268.612,624.021,289.632Z" transform="translate(329.43 -32.481)" fill="#dd6a57"/>
    <path id="Path_3151" data-name="Path 3151" d="M568.35,295.882c0-.13.26.13.286.26.182,3.256.912,6.955,3.959,7.814v.182C568.949,303.9,568.011,298.982,568.35,295.882Z" transform="translate(349.233 2.816)" fill="#263238"/>
    <path id="Path_3152" data-name="Path 3152" d="M570.96,294.491c5.21-.86,6.512,9.586,1.693,10.419S566.61,295.194,570.96,294.491Z" transform="translate(349.228 0.56)" fill="#263238"/>
    <path id="Path_3153" data-name="Path 3153" d="M562.888,296.77s-.234.182-.234.313c.521,3.23.573,7.007-2.214,8.44v.182C563.982,304.741,563.878,299.739,562.888,296.77Z" transform="translate(336.643 4.298)" fill="#263238"/>
    <path id="Path_3154" data-name="Path 3154" d="M562.272,295.622c-5.21.26-4.324,10.732.547,10.419S566.674,295.388,562.272,295.622Z" transform="translate(333.925 2.45)" fill="#263238"/>
    <path id="Path_3155" data-name="Path 3155" d="M575.856,295.989a39.083,39.083,0,0,1-4.22-.886,7.034,7.034,0,0,1-4.142-1.719,2.318,2.318,0,0,1,0-2.735,5.522,5.522,0,0,1,5.444-1.276,8.1,8.1,0,0,1,5.21,2.865,2.37,2.37,0,0,1-2.292,3.751Z" transform="translate(347.248 -7.971)" fill="#263238"/>
    <path id="Path_3156" data-name="Path 3156" d="M559.811,298.273A39.481,39.481,0,0,0,563.927,297a7.109,7.109,0,0,0,3.959-2.11,2.24,2.24,0,0,0-.26-2.6,5.5,5.5,0,0,0-5.548-.755,8.049,8.049,0,0,0-4.871,3.23,2.37,2.37,0,0,0,2.6,3.517Z" transform="translate(330.916 -4.811)" fill="#263238"/>
    <path id="Path_3157" data-name="Path 3157" d="M575.313,306.727c-.365,1.016-.573,2.318-1.563,2.943a8.857,8.857,0,0,1-3.49.886v.208a4.35,4.35,0,0,0,4.48-.339,3.464,3.464,0,0,0,.964-3.725A.213.213,0,0,0,575.313,306.727Z" transform="translate(352.402 20.05)" fill="#263238"/>
    <path id="Path_3158" data-name="Path 3158" d="M582.129,324.008a11.253,11.253,0,0,1-6.72,5.835,14.33,14.33,0,0,1-3.933.677h-1.511a.808.808,0,0,1-.729-.625h0a1.482,1.482,0,0,1,0-.339h0v-.287c-.365-2.475-.6-6.278-.6-6.278-.859.547-5.209,3.23-5.209,1.927a165.05,165.05,0,0,1,0-33.862.313.313,0,0,1,.6,0c1.094,10.419.365,20.838,1.3,31.257a19.906,19.906,0,0,1,5-2.24c.365,0,.313,7.4.573,8.492h0a15.343,15.343,0,0,0,10.94-4.975A.282.282,0,0,1,582.129,324.008Z" transform="translate(340.038 -5.228)" fill="#263238"/>
    <path id="Path_3159" data-name="Path 3159" d="M567,309.611a12.111,12.111,0,0,0,5.756,2.37,5.731,5.731,0,0,0,3.282-.677c2.162-1.25,1.641-3.412.7-5.21a13.458,13.458,0,0,0-1.823-2.6A15.63,15.63,0,0,1,567,309.611Z" transform="translate(347.171 15.082)" fill="#263238"/>
    <path id="Path_3160" data-name="Path 3160" d="M569.2,310.377a5.732,5.732,0,0,0,3.282-.677c2.162-1.25,1.641-3.412.7-5.21A5.627,5.627,0,0,0,569.2,310.377Z" transform="translate(350.672 16.687)" fill="#ff9bbc"/>
    <path id="Path_3161" data-name="Path 3161" d="M641.169,332.3c-11.722,4.558-22.4-7.814-23.183-20.187,0,0-30.554,14.118-40.036-11.018a26.308,26.308,0,0,1-17.166,17.921l-.625,10.549c-3.569,0-9.924-8.153-4.194-17.921,0,0-3.386-13.024,3.647-23.443a18.233,18.233,0,0,1,17.921-8.439A27.611,27.611,0,0,1,595.3,269.058a23.443,23.443,0,0,1,20.369,7.085s16.723-1.875,22.9,8.492a24.381,24.381,0,0,1,2.6,19.718s5.21,3.178,6.278,13.363C648.15,324.228,644.686,330.922,641.169,332.3Z" transform="translate(325.774 -40.56)" fill="#263238"/>
    <path id="Path_3162" data-name="Path 3162" d="M563,280.26a31.007,31.007,0,0,0,1.849,6.278,26.052,26.052,0,0,0,3.048,5.678,16.852,16.852,0,0,0,10.211,6.9,27.637,27.637,0,0,0,12.685-.7c2.032-.7,4.142-1.25,6.173-2.084s4.011-1.745,6.043-2.6c-1.875,1.12-3.829,2.188-5.731,3.282s-4.116,1.667-6.173,2.6a27.167,27.167,0,0,1-13.337,1.068,17.739,17.739,0,0,1-10.862-7.814A26.489,26.489,0,0,1,563,280.26Z" transform="translate(340.751 -22.197)" fill="#263238"/>
    <path id="Path_3163" data-name="Path 3163" d="M558.45,299.541a35.35,35.35,0,0,0,8.049-8.205,20.832,20.832,0,0,0,2.6-5.053,25.041,25.041,0,0,0,1.172-5.652,13.965,13.965,0,0,1,0,5.965,15.626,15.626,0,0,1-2.4,5.6,19.043,19.043,0,0,1-4.116,4.428,18.052,18.052,0,0,1-5.314,2.917Z" transform="translate(333.45 -21.604)" fill="#263238"/>
    <path id="Path_3164" data-name="Path 3164" d="M582.76,305.208s6.069-17.739,13.831-15.993,6.173,25.4-.86,30.606a8.335,8.335,0,0,1-11.956-1.224Z" transform="translate(372.462 -8.021)" fill="#dd6a57"/>
    <path id="Path_3165" data-name="Path 3165" d="M593.112,291.74v.182c-4.871,3.829-6.3,9.794-6.8,15.629a4.558,4.558,0,0,1,6.251-3.1c.182,0,0,.312,0,.312a5.21,5.21,0,0,0-4.923,3.282,25.268,25.268,0,0,0-1.355,5.21c0,.573-1.068.573-1.042,0v-.13C583.136,306.04,585.741,294.605,593.112,291.74Z" transform="translate(375.316 -3.774)" fill="#263238"/>
  </g>
</svg>
