<?xml version="1.0" encoding="UTF-8"?>
<!DOCTYPE svg PUBLIC "-//W3C//DTD SVG 1.1//EN" "http://www.w3.org/Graphics/SVG/1.1/DTD/svg11.dtd">
<svg xmlns="http://www.w3.org/2000/svg" version="1.1" width="539px" height="391px" style="shape-rendering:geometricPrecision; text-rendering:geometricPrecision; image-rendering:optimizeQuality; fill-rule:evenodd; clip-rule:evenodd" xmlns:xlink="http://www.w3.org/1999/xlink">
<g><path style="opacity:0.246" fill="#ebebeb" d="M 276.5,-0.5 C 348.167,-0.5 419.833,-0.5 491.5,-0.5C 492.469,0.309426 493.302,1.30943 494,2.5C 494.667,102.167 494.667,201.833 494,301.5C 493.167,302.333 492.333,303.167 491.5,304C 441.834,304.5 392.168,304.667 342.5,304.5C 342.842,303.662 343.508,303.328 344.5,303.5C 393.168,303.667 441.834,303.5 490.5,303C 491.333,302.167 492.167,301.333 493,300.5C 493.667,201.5 493.667,102.5 493,3.5C 492.167,2.66667 491.333,1.83333 490.5,1C 419.5,0.333333 348.5,0.333333 277.5,1C 276.667,1.83333 275.833,2.66667 275,3.5C 274.5,41.4985 274.333,79.4985 274.5,117.5C 273.662,117.158 273.328,116.492 273.5,115.5C 273.333,77.8319 273.5,40.1652 274,2.5C 275.045,1.62656 275.878,0.626561 276.5,-0.5 Z"/></g>
<g><path style="opacity:0.269" fill="#ececec" d="M 43.5,-0.5 C 115.167,-0.5 186.833,-0.5 258.5,-0.5C 259.122,0.626561 259.955,1.62656 261,2.5C 261.5,37.4984 261.667,72.4984 261.5,107.5C 260.833,107.5 260.5,107.167 260.5,106.5C 260.667,72.4984 260.5,38.4984 260,4.5C 259.535,3.06919 258.701,1.90252 257.5,1C 186.5,0.333333 115.5,0.333333 44.5,1C 43.6667,1.83333 42.8333,2.66667 42,3.5C 41.3333,102.5 41.3333,201.5 42,300.5C 42.8333,301.333 43.6667,302.167 44.5,303C 93.8322,303.5 143.166,303.667 192.5,303.5C 192.5,303.833 192.5,304.167 192.5,304.5C 142.832,304.667 93.1655,304.5 43.5,304C 42.6667,303.167 41.8333,302.333 41,301.5C 40.3333,201.833 40.3333,102.167 41,2.5C 41.6979,1.30943 42.5313,0.309426 43.5,-0.5 Z"/></g>
<g><path style="opacity:1" fill="#cececd" d="M 330.5,58.5 C 329.386,59.8853 328.386,61.3853 327.5,63C 321.702,66.966 316.369,71.466 311.5,76.5C 310.286,74.1413 310.286,71.808 311.5,69.5C 311.013,68.5266 310.513,67.5266 310,66.5C 309.184,67.8228 308.017,68.4894 306.5,68.5C 308.12,66.0158 310.453,64.5158 313.5,64C 317.167,63.6667 320.833,63.3333 324.5,63C 326.114,60.8733 328.114,59.3733 330.5,58.5 Z"/></g>
<g><path style="opacity:1" fill="#6d6b6a" d="M 369.5,94.5 C 371.634,114.52 363.301,128.02 344.5,135C 331.559,137.11 320.392,133.61 311,124.5C 307.548,119.492 303.048,115.492 297.5,112.5C 296.756,111.009 296.09,109.509 295.5,108C 296.244,106.961 297.244,106.461 298.5,106.5C 301.149,108.187 303.482,110.354 305.5,113C 307.313,113.614 307.647,113.281 306.5,112C 307,111.5 307.5,111 308,110.5C 308.537,114.196 310.703,116.196 314.5,116.5C 315.579,118.543 317.246,119.876 319.5,120.5C 319.833,119.833 320.167,119.167 320.5,118.5C 322.531,119.539 323.864,121.205 324.5,123.5C 326.507,125.203 328.507,125.537 330.5,124.5C 331.583,124.539 332.583,124.873 333.5,125.5C 334.281,124.271 334.781,122.938 335,121.5C 335.317,123.301 335.984,123.634 337,122.5C 337.333,123.167 337.667,123.833 338,124.5C 338.85,123.576 339.85,123.576 341,124.5C 341.5,124.333 342,124.167 342.5,124C 341.934,123.005 341.267,122.172 340.5,121.5C 341.152,120.275 342.319,119.608 344,119.5C 347.096,119.794 350.263,120.127 353.5,120.5C 354.845,119.653 355.845,118.487 356.5,117C 359.099,116.231 361.599,116.398 364,117.5C 366.384,114.609 366.05,113.609 363,114.5C 360.567,113.521 358.067,112.855 355.5,112.5C 355.5,111.833 355.833,111.5 356.5,111.5C 358.823,109.314 360.657,106.647 362,103.5C 363.419,102.54 364.919,101.707 366.5,101C 364.942,100.79 363.609,100.29 362.5,99.5C 362.5,97.8333 362.5,96.1667 362.5,94.5C 361.5,94.5 360.5,94.5 359.5,94.5C 359.795,96.7354 359.461,98.7354 358.5,100.5C 358.5,97.8333 358.5,95.1667 358.5,92.5C 359.645,90.0467 359.312,87.7134 357.5,85.5C 355.695,83.8031 353.361,82.9698 350.5,83C 351.253,81.513 352.086,81.3463 353,82.5C 353.132,80.6768 352.132,79.6768 350,79.5C 349.055,79.9054 348.388,80.572 348,81.5C 347.536,80.9056 347.369,80.2389 347.5,79.5C 347.852,76.9272 347.352,74.5938 346,72.5C 345.383,73.4491 345.549,74.2825 346.5,75C 344.598,75.1992 343.098,76.0325 342,77.5C 341.667,76.1667 341.333,74.8333 341,73.5C 339.609,75.7151 337.943,75.7151 336,73.5C 333.974,73.9147 332.474,74.9147 331.5,76.5C 327.38,76.2343 324.046,77.5676 321.5,80.5C 321.938,81.5063 322.604,81.5063 323.5,80.5C 324.59,81.3914 324.59,82.3914 323.5,83.5C 324.274,84.7112 325.107,84.7112 326,83.5C 326.717,84.0442 327.217,84.7109 327.5,85.5C 328.299,88.4299 328.632,91.4299 328.5,94.5C 327.833,94.5 327.167,94.5 326.5,94.5C 326.171,92.0092 325.171,89.8425 323.5,88C 323.957,87.586 324.291,87.086 324.5,86.5C 318.496,84.7498 316.163,87.0831 317.5,93.5C 316.814,92.1516 315.814,90.985 314.5,90C 311.199,89.0033 307.866,88.6699 304.5,89C 303.874,89.7504 303.374,90.5838 303,91.5C 302.578,89.5743 301.411,88.5743 299.5,88.5C 299.539,87.4168 299.873,86.4168 300.5,85.5C 303.441,84.2273 305.774,82.2273 307.5,79.5C 304.946,78.1008 303.28,76.1008 302.5,73.5C 304.481,74.3475 306.481,74.8475 308.5,75C 309.809,73.2493 309.475,71.7493 307.5,70.5C 308.689,69.5713 310.022,69.238 311.5,69.5C 310.286,71.808 310.286,74.1413 311.5,76.5C 316.369,71.466 321.702,66.966 327.5,63C 328.386,61.3853 329.386,59.8853 330.5,58.5C 335.667,56.8084 340.667,55.9751 345.5,56C 352.667,65.1667 359.833,74.3333 367,83.5C 367.409,87.3018 368.243,90.9685 369.5,94.5 Z"/></g>
<g><path style="opacity:1" fill="#99a670" d="M 311.5,69.5 C 310.022,69.238 308.689,69.5713 307.5,70.5C 309.475,71.7493 309.809,73.2493 308.5,75C 306.481,74.8475 304.481,74.3475 302.5,73.5C 303.136,71.2054 304.469,69.5387 306.5,68.5C 308.017,68.4894 309.184,67.8228 310,66.5C 310.513,67.5266 311.013,68.5266 311.5,69.5 Z"/></g>
<g><path style="opacity:1" fill="#cac5a7" d="M 347.5,79.5 C 345.584,81.1157 344.084,80.7823 343,78.5C 341.488,79.2567 340.154,80.2567 339,81.5C 337.915,77.731 335.415,76.0643 331.5,76.5C 332.474,74.9147 333.974,73.9147 336,73.5C 337.943,75.7151 339.609,75.7151 341,73.5C 341.333,74.8333 341.667,76.1667 342,77.5C 343.098,76.0325 344.598,75.1992 346.5,75C 345.549,74.2825 345.383,73.4491 346,72.5C 347.352,74.5938 347.852,76.9272 347.5,79.5 Z"/></g>
<g><path style="opacity:1" fill="#bd9c87" d="M 331.5,76.5 C 335.415,76.0643 337.915,77.731 339,81.5C 340.154,80.2567 341.488,79.2567 343,78.5C 344.084,80.7823 345.584,81.1157 347.5,79.5C 347.369,80.2389 347.536,80.9056 348,81.5C 348.388,80.572 349.055,79.9054 350,79.5C 352.132,79.6768 353.132,80.6768 353,82.5C 352.086,81.3463 351.253,81.513 350.5,83C 353.361,82.9698 355.695,83.8031 357.5,85.5C 354.252,85.4931 350.919,85.8265 347.5,86.5C 348.246,87.7362 348.579,89.0695 348.5,90.5C 345.162,90.1091 344.162,91.2757 345.5,94C 344.833,95.3333 344.167,96.6667 343.5,98C 343.836,99.0299 344.503,99.5299 345.5,99.5C 344.791,100.404 343.791,100.737 342.5,100.5C 342.5,99.5 342.5,98.5 342.5,97.5C 342.344,94.9339 342.678,92.4339 343.5,90C 343.389,88.2785 342.889,88.1118 342,89.5C 341.333,87.5 340.667,85.5 340,83.5C 339.667,84.5 339.333,85.5 339,86.5C 338.346,85.3044 337.846,85.3044 337.5,86.5C 338.833,87.8333 338.833,89.1667 337.5,90.5C 339.915,92.0089 340.081,93.6755 338,95.5C 336.249,93.5101 335.249,91.1768 335,88.5C 334.329,87.7476 333.496,87.4142 332.5,87.5C 331.839,86.2825 331.172,84.9492 330.5,83.5C 329.735,84.6119 328.735,85.2786 327.5,85.5C 327.217,84.7109 326.717,84.0442 326,83.5C 325.107,84.7112 324.274,84.7112 323.5,83.5C 324.59,82.3914 324.59,81.3914 323.5,80.5C 322.604,81.5063 321.938,81.5063 321.5,80.5C 324.046,77.5676 327.38,76.2343 331.5,76.5 Z"/></g>
<g><path style="opacity:1" fill="#adb072" d="M 332.5,87.5 C 331.677,90.4606 331.01,93.4606 330.5,96.5C 329.167,96.5 328.5,95.8333 328.5,94.5C 328.632,91.4299 328.299,88.4299 327.5,85.5C 328.735,85.2786 329.735,84.6119 330.5,83.5C 331.172,84.9492 331.839,86.2825 332.5,87.5 Z"/></g>
<g><path style="opacity:1" fill="#927369" d="M 342.5,97.5 C 338.847,99.2282 335.68,98.5616 333,95.5C 332.081,98.4016 331.248,98.7349 330.5,96.5C 331.01,93.4606 331.677,90.4606 332.5,87.5C 333.496,87.4142 334.329,87.7476 335,88.5C 335.249,91.1768 336.249,93.5101 338,95.5C 340.081,93.6755 339.915,92.0089 337.5,90.5C 338.833,89.1667 338.833,87.8333 337.5,86.5C 337.846,85.3044 338.346,85.3044 339,86.5C 339.333,85.5 339.667,84.5 340,83.5C 340.667,85.5 341.333,87.5 342,89.5C 342.889,88.1118 343.389,88.2785 343.5,90C 342.678,92.4339 342.344,94.9339 342.5,97.5 Z"/></g>
<g><path style="opacity:1" fill="#cecdcd" d="M 388.5,79.5 C 385.041,80.9155 384.041,83.2488 385.5,86.5C 384.448,86.6495 383.448,86.4828 382.5,86C 383.696,85.3457 383.696,84.8457 382.5,84.5C 381.614,85.325 381.281,86.325 381.5,87.5C 382.873,87.3433 384.207,87.51 385.5,88C 381.331,87.7915 380.164,89.2915 382,92.5C 382.333,91.5 382.667,90.5 383,89.5C 385.458,94.1474 384.958,98.314 381.5,102C 382.167,103.333 383.167,104.333 384.5,105C 383.207,105.49 381.873,105.657 380.5,105.5C 380.657,104.127 380.49,102.793 380,101.5C 378.38,103.241 376.88,105.075 375.5,107C 374.552,107.483 373.552,107.649 372.5,107.5C 372.167,104.5 373.5,103.167 376.5,103.5C 376.543,99.1074 376.043,98.7741 375,102.5C 374.743,100.705 374.077,98.705 373,96.5C 372.667,97.1667 372.333,97.8333 372,98.5C 371.392,96.9336 370.558,95.6002 369.5,94.5C 368.243,90.9685 367.409,87.3018 367,83.5C 359.833,74.3333 352.667,65.1667 345.5,56C 340.667,55.9751 335.667,56.8084 330.5,58.5C 341.383,52.013 352.383,52.1797 363.5,59C 366.538,61.7026 369.205,64.7026 371.5,68C 378.164,68.5821 383.664,71.4154 388,76.5C 388.483,77.448 388.649,78.448 388.5,79.5 Z"/></g>
<g><path style="opacity:1" fill="#7f5a5a" d="M 390.5,87.5 C 394.887,90.271 397.221,94.271 397.5,99.5C 395.533,99.7394 393.699,99.4061 392,98.5C 391.423,95.3038 390.256,92.4704 388.5,90C 388.684,88.6244 389.351,87.7911 390.5,87.5 Z"/></g>
<g><path style="opacity:0.989" fill="#273238" d="M 260.5,106.5 C 260.5,107.167 260.833,107.5 261.5,107.5C 266.154,109.162 270.154,111.829 273.5,115.5C 273.328,116.492 273.662,117.158 274.5,117.5C 274.5,118.167 274.5,118.833 274.5,119.5C 274.167,119.5 273.833,119.5 273.5,119.5C 272.637,118.537 271.97,118.537 271.5,119.5C 272.614,124.446 272.781,129.446 272,134.5C 270.835,138.932 269.335,139.265 267.5,135.5C 265.954,136.212 264.954,137.378 264.5,139C 265.566,142.094 266.232,145.26 266.5,148.5C 265.833,147.833 265.167,147.167 264.5,146.5C 263.949,143.733 262.616,141.4 260.5,139.5C 256.053,142.103 251.387,142.77 246.5,141.5C 247.025,140.808 247.692,140.308 248.5,140C 240.509,138.555 232.509,137.555 224.5,137C 222.167,138.333 221.167,140.333 221.5,143C 223.904,151.777 224.07,160.61 222,169.5C 211.69,162.647 207.523,165.314 209.5,177.5C 197.431,171.766 189.765,162.433 186.5,149.5C 186.592,146.047 187.925,143.214 190.5,141C 186.409,131.509 189.409,125.176 199.5,122C 204.677,120.375 209.844,120.208 215,121.5C 223.698,106.567 236.531,100.4 253.5,103C 251.913,103.862 250.246,104.529 248.5,105C 252.491,105.642 256.491,106.142 260.5,106.5 Z"/></g>
<g><path style="opacity:1" fill="#7e7b79" d="M 388.5,79.5 C 389.255,82.0529 389.922,84.7196 390.5,87.5C 389.351,87.7911 388.684,88.6244 388.5,90C 390.256,92.4704 391.423,95.3038 392,98.5C 393.699,99.4061 395.533,99.7394 397.5,99.5C 398.71,102.93 398.376,106.263 396.5,109.5C 394.614,108.639 392.78,107.639 391,106.5C 388.811,99.8304 386.977,93.1637 385.5,86.5C 384.041,83.2488 385.041,80.9155 388.5,79.5 Z"/></g>
<g><path style="opacity:1" fill="#f4f2ed" d="M 388.5,119.5 C 386.167,123.494 383.833,127.494 381.5,131.5C 371.023,131.851 366.856,126.851 369,116.5C 373.409,110.367 378.909,109.2 385.5,113C 386.482,115.315 387.482,117.481 388.5,119.5 Z"/></g>
<g><path style="opacity:1" fill="#7c7775" d="M 376.5,120.5 C 378.167,120.5 379.833,120.5 381.5,120.5C 381.769,122.429 381.269,124.095 380,125.5C 378.5,124.333 377,123.167 375.5,122C 376.056,121.617 376.389,121.117 376.5,120.5 Z"/></g>
<g><path style="opacity:1" fill="#d2b5fb" d="M 302.5,133.5 C 306.824,133.536 310.658,134.869 314,137.5C 316.096,145.268 312.929,149.268 304.5,149.5C 296.346,150.043 292.846,146.376 294,138.5C 296.398,135.892 299.231,134.225 302.5,133.5 Z"/></g>
<g><path style="opacity:0.988" fill="#e28a7c" d="M 273.5,119.5 C 273.833,119.5 274.167,119.5 274.5,119.5C 274.167,142.51 274.5,165.51 275.5,188.5C 282.232,192.857 288.898,197.191 295.5,201.5C 293.649,205.029 292.315,208.862 291.5,213C 290.456,214.174 289.456,215.341 288.5,216.5C 283.833,217.833 279.167,217.833 274.5,216.5C 274.5,218.833 274.5,221.167 274.5,223.5C 273.833,223.5 273.5,223.167 273.5,222.5C 273.271,215.003 269.271,211.003 261.5,210.5C 261.5,213.5 261.5,216.5 261.5,219.5C 261.5,220.167 261.167,220.5 260.5,220.5C 260.823,216.774 260.489,213.107 259.5,209.5C 255.455,207.699 254.122,204.699 255.5,200.5C 253.013,200.218 250.347,200.218 247.5,200.5C 245.732,211.014 249.732,218.014 259.5,221.5C 257.973,227.61 256.14,233.61 254,239.5C 250.556,233.724 246.723,228.224 242.5,223C 235.756,221.149 229.422,218.649 223.5,215.5C 223.976,205.711 223.143,196.044 221,186.5C 216.74,184.077 212.907,181.077 209.5,177.5C 207.523,165.314 211.69,162.647 222,169.5C 224.07,160.61 223.904,151.777 221.5,143C 221.167,140.333 222.167,138.333 224.5,137C 232.509,137.555 240.509,138.555 248.5,140C 247.692,140.308 247.025,140.808 246.5,141.5C 251.387,142.77 256.053,142.103 260.5,139.5C 262.616,141.4 263.949,143.733 264.5,146.5C 265.167,147.167 265.833,147.833 266.5,148.5C 272.117,161.475 272.783,174.642 268.5,188C 270.134,188.494 271.801,188.66 273.5,188.5C 273.5,165.5 273.5,142.5 273.5,119.5 Z M 260.5,220.5 C 260.5,221.167 260.167,221.5 259.5,221.5C 249.732,218.014 245.732,211.014 247.5,200.5C 250.347,200.218 253.013,200.218 255.5,200.5C 254.122,204.699 255.455,207.699 259.5,209.5C 260.489,213.107 260.823,216.774 260.5,220.5 Z M 273.5,222.5 C 270.804,220.645 267.971,218.979 265,217.5C 263.697,217.978 262.531,218.645 261.5,219.5C 261.5,216.5 261.5,213.5 261.5,210.5C 269.271,211.003 273.271,215.003 273.5,222.5 Z"/></g>
<g><path style="opacity:1" fill="#bcbaba" d="M 302.5,73.5 C 303.28,76.1008 304.946,78.1008 307.5,79.5C 305.774,82.2273 303.441,84.2273 300.5,85.5C 299.873,86.4168 299.539,87.4168 299.5,88.5C 296.599,89.7915 294.266,91.7915 292.5,94.5C 293.733,97.7348 295.399,100.735 297.5,103.5C 297.291,104.086 296.957,104.586 296.5,105C 297.416,105.278 298.082,105.778 298.5,106.5C 297.244,106.461 296.244,106.961 295.5,108C 296.09,109.509 296.756,111.009 297.5,112.5C 303.048,115.492 307.548,119.492 311,124.5C 320.392,133.61 331.559,137.11 344.5,135C 363.301,128.02 371.634,114.52 369.5,94.5C 370.558,95.6002 371.392,96.9336 372,98.5C 372.333,97.8333 372.667,97.1667 373,96.5C 374.077,98.705 374.743,100.705 375,102.5C 376.043,98.7741 376.543,99.1074 376.5,103.5C 373.5,103.167 372.167,104.5 372.5,107.5C 373.552,107.649 374.552,107.483 375.5,107C 376.88,105.075 378.38,103.241 380,101.5C 380.49,102.793 380.657,104.127 380.5,105.5C 381.873,105.657 383.207,105.49 384.5,105C 383.167,104.333 382.167,103.333 381.5,102C 384.958,98.314 385.458,94.1474 383,89.5C 382.667,90.5 382.333,91.5 382,92.5C 380.164,89.2915 381.331,87.7915 385.5,88C 384.207,87.51 382.873,87.3433 381.5,87.5C 381.281,86.325 381.614,85.325 382.5,84.5C 383.696,84.8457 383.696,85.3457 382.5,86C 383.448,86.4828 384.448,86.6495 385.5,86.5C 386.977,93.1637 388.811,99.8304 391,106.5C 392.78,107.639 394.614,108.639 396.5,109.5C 395.241,114.049 392.574,117.382 388.5,119.5C 387.482,117.481 386.482,115.315 385.5,113C 378.909,109.2 373.409,110.367 369,116.5C 366.856,126.851 371.023,131.851 381.5,131.5C 378.68,134.081 375.346,135.914 371.5,137C 362.546,138.926 353.546,140.759 344.5,142.5C 334.684,142.383 326.017,139.216 318.5,133C 308.111,132.143 301.778,126.643 299.5,116.5C 290.543,110.208 288.043,101.874 292,91.5C 294.222,87.6119 297.388,84.7786 301.5,83C 300.152,79.603 300.486,76.4363 302.5,73.5 Z"/></g>
<g><path style="opacity:1" fill="#8a9456" d="M 340.5,121.5 C 341.267,122.172 341.934,123.005 342.5,124C 342,124.167 341.5,124.333 341,124.5C 339.85,123.576 338.85,123.576 338,124.5C 337.667,123.833 337.333,123.167 337,122.5C 335.984,123.634 335.317,123.301 335,121.5C 334.781,122.938 334.281,124.271 333.5,125.5C 332.583,124.873 331.583,124.539 330.5,124.5C 331.234,123.292 331.567,121.959 331.5,120.5C 333.5,120.5 335.5,120.5 337.5,120.5C 337.343,119.127 337.51,117.793 338,116.5C 338.099,118.653 338.933,120.319 340.5,121.5 Z"/></g>
<g><path style="opacity:1" fill="#a07868" d="M 356.5,111.5 C 355.833,111.5 355.5,111.833 355.5,112.5C 355.397,115.564 354.064,116.564 351.5,115.5C 353.986,113.422 354.986,110.755 354.5,107.5C 352.856,107.286 351.356,107.62 350,108.5C 349.82,110.488 349.986,112.488 350.5,114.5C 347.789,114.815 345.456,114.148 343.5,112.5C 345.278,110.171 346.278,107.504 346.5,104.5C 349.523,103.675 352.356,103.675 355,104.5C 357.761,106.33 358.261,108.663 356.5,111.5 Z"/></g>
<g><path style="opacity:1" fill="#605d5b" d="M 299.5,88.5 C 301.411,88.5743 302.578,89.5743 303,91.5C 303.374,90.5838 303.874,89.7504 304.5,89C 307.866,88.6699 311.199,89.0033 314.5,90C 315.814,90.985 316.814,92.1516 317.5,93.5C 320.038,94.189 322.538,95.189 325,96.5C 326.03,96.1639 326.53,95.4972 326.5,94.5C 327.167,94.5 327.833,94.5 328.5,94.5C 328.5,95.8333 329.167,96.5 330.5,96.5C 331.248,98.7349 332.081,98.4016 333,95.5C 335.68,98.5616 338.847,99.2282 342.5,97.5C 342.5,98.5 342.5,99.5 342.5,100.5C 343.791,100.737 344.791,100.404 345.5,99.5C 346.528,99.0742 347.861,99.0742 349.5,99.5C 351.199,99.3796 352.865,99.0463 354.5,98.5C 355.867,99.2255 357.2,99.8921 358.5,100.5C 357.323,102.103 357.489,103.436 359,104.5C 360.626,103.045 361.792,101.378 362.5,99.5C 363.609,100.29 364.942,100.79 366.5,101C 364.919,101.707 363.419,102.54 362,103.5C 360.657,106.647 358.823,109.314 356.5,111.5C 358.261,108.663 357.761,106.33 355,104.5C 352.356,103.675 349.523,103.675 346.5,104.5C 346.158,103.662 345.492,103.328 344.5,103.5C 342.412,102.844 340.078,101.844 337.5,100.5C 334.041,103.297 330.874,102.964 328,99.5C 327.098,99.7432 326.265,100.077 325.5,100.5C 324.878,99.3734 324.045,98.3734 323,97.5C 322.802,99.3817 322.302,101.048 321.5,102.5C 320.234,95.5393 316.568,94.0393 310.5,98C 310.167,98.3333 309.833,98.6667 309.5,99C 310.308,99.3076 310.975,99.8076 311.5,100.5C 310.572,101.768 310.405,103.101 311,104.5C 313.391,103.398 313.891,104.064 312.5,106.5C 314.216,106.997 315.883,107.331 317.5,107.5C 317.996,105.602 318.663,104.602 319.5,104.5C 320.062,107.773 321.729,108.773 324.5,107.5C 324.557,108.609 324.89,109.609 325.5,110.5C 327.262,110.643 328.929,110.309 330.5,109.5C 333.818,111.919 337.151,113.252 340.5,113.5C 341.779,114.715 342.779,114.382 343.5,112.5C 345.456,114.148 347.789,114.815 350.5,114.5C 349.986,112.488 349.82,110.488 350,108.5C 351.356,107.62 352.856,107.286 354.5,107.5C 354.986,110.755 353.986,113.422 351.5,115.5C 354.064,116.564 355.397,115.564 355.5,112.5C 358.067,112.855 360.567,113.521 363,114.5C 366.05,113.609 366.384,114.609 364,117.5C 361.599,116.398 359.099,116.231 356.5,117C 355.845,118.487 354.845,119.653 353.5,120.5C 350.263,120.127 347.096,119.794 344,119.5C 342.319,119.608 341.152,120.275 340.5,121.5C 338.933,120.319 338.099,118.653 338,116.5C 337.51,117.793 337.343,119.127 337.5,120.5C 335.5,120.5 333.5,120.5 331.5,120.5C 331.567,121.959 331.234,123.292 330.5,124.5C 328.507,125.537 326.507,125.203 324.5,123.5C 323.864,121.205 322.531,119.539 320.5,118.5C 320.167,119.167 319.833,119.833 319.5,120.5C 317.246,119.876 315.579,118.543 314.5,116.5C 310.703,116.196 308.537,114.196 308,110.5C 307.5,111 307,111.5 306.5,112C 307.647,113.281 307.313,113.614 305.5,113C 303.482,110.354 301.149,108.187 298.5,106.5C 298.082,105.778 297.416,105.278 296.5,105C 296.957,104.586 297.291,104.086 297.5,103.5C 295.399,100.735 293.733,97.7348 292.5,94.5C 294.266,91.7915 296.599,89.7915 299.5,88.5 Z"/></g>
<g><path style="opacity:1" fill="#b05d57" d="M 331.5,120.5 C 327.936,122.358 325.27,121.525 323.5,118C 324.833,117 326.167,116 327.5,115C 326.663,113.989 326.33,112.822 326.5,111.5C 328.792,111.244 330.959,111.577 333,112.5C 333.795,115.383 332.629,116.883 329.5,117C 330.823,117.816 331.489,118.983 331.5,120.5 Z"/></g>
<g><path style="opacity:1" fill="#bb5959" d="M 325.5,110.5 C 325.773,112.451 325.107,113.951 323.5,115C 320.697,115.755 318.03,115.422 315.5,114C 318.07,110.882 321.404,109.715 325.5,110.5 Z"/></g>
<g><path style="opacity:1" fill="#f1c056" d="M 344.5,103.5 C 345.492,103.328 346.158,103.662 346.5,104.5C 346.278,107.504 345.278,110.171 343.5,112.5C 342.779,114.382 341.779,114.715 340.5,113.5C 340.461,112.417 340.127,111.417 339.5,110.5C 341.58,108.427 343.246,106.093 344.5,103.5 Z"/></g>
<g><path style="opacity:1" fill="#aa8979" d="M 344.5,103.5 C 343.246,106.093 341.58,108.427 339.5,110.5C 340.127,111.417 340.461,112.417 340.5,113.5C 337.151,113.252 333.818,111.919 330.5,109.5C 328.929,110.309 327.262,110.643 325.5,110.5C 324.89,109.609 324.557,108.609 324.5,107.5C 325.369,105.283 325.702,102.95 325.5,100.5C 326.265,100.077 327.098,99.7432 328,99.5C 330.874,102.964 334.041,103.297 337.5,100.5C 340.078,101.844 342.412,102.844 344.5,103.5 Z"/></g>
<g><path style="opacity:1" fill="#e5b650" d="M 325.5,100.5 C 325.702,102.95 325.369,105.283 324.5,107.5C 321.729,108.773 320.062,107.773 319.5,104.5C 320.5,104.167 321.167,103.5 321.5,102.5C 322.302,101.048 322.802,99.3817 323,97.5C 324.045,98.3734 324.878,99.3734 325.5,100.5 Z"/></g>
<g><path style="opacity:1" fill="#89726b" d="M 321.5,102.5 C 321.167,103.5 320.5,104.167 319.5,104.5C 318.663,104.602 317.996,105.602 317.5,107.5C 315.883,107.331 314.216,106.997 312.5,106.5C 313.891,104.064 313.391,103.398 311,104.5C 310.405,103.101 310.572,101.768 311.5,100.5C 310.975,99.8076 310.308,99.3076 309.5,99C 309.833,98.6667 310.167,98.3333 310.5,98C 316.568,94.0393 320.234,95.5393 321.5,102.5 Z"/></g>
<g><path style="opacity:1" fill="#b55c55" d="M 362.5,99.5 C 361.792,101.378 360.626,103.045 359,104.5C 357.489,103.436 357.323,102.103 358.5,100.5C 359.461,98.7354 359.795,96.7354 359.5,94.5C 360.5,94.5 361.5,94.5 362.5,94.5C 362.5,96.1667 362.5,97.8333 362.5,99.5 Z"/></g>
<g><path style="opacity:1" fill="#b89c89" d="M 358.5,92.5 C 358.5,95.1667 358.5,97.8333 358.5,100.5C 357.2,99.8921 355.867,99.2255 354.5,98.5C 352.865,99.0463 351.199,99.3796 349.5,99.5C 349.211,95.8936 349.544,92.3936 350.5,89C 351.167,88.3333 351.833,88.3333 352.5,89C 351.289,89.8928 351.289,90.7261 352.5,91.5C 354.219,88.9516 355.552,89.285 356.5,92.5C 357.429,91.4502 358.095,91.4502 358.5,92.5 Z"/></g>
<g><path style="opacity:1" fill="#beba70" d="M 357.5,85.5 C 359.312,87.7134 359.645,90.0467 358.5,92.5C 358.095,91.4502 357.429,91.4502 356.5,92.5C 355.552,89.285 354.219,88.9516 352.5,91.5C 351.289,90.7261 351.289,89.8928 352.5,89C 351.833,88.3333 351.167,88.3333 350.5,89C 349.544,92.3936 349.211,95.8936 349.5,99.5C 347.861,99.0742 346.528,99.0742 345.5,99.5C 344.503,99.5299 343.836,99.0299 343.5,98C 344.167,96.6667 344.833,95.3333 345.5,94C 344.162,91.2757 345.162,90.1091 348.5,90.5C 348.579,89.0695 348.246,87.7362 347.5,86.5C 350.919,85.8265 354.252,85.4931 357.5,85.5 Z"/></g>
<g><path style="opacity:1" fill="#b19175" d="M 326.5,94.5 C 326.53,95.4972 326.03,96.1639 325,96.5C 322.538,95.189 320.038,94.189 317.5,93.5C 316.163,87.0831 318.496,84.7498 324.5,86.5C 324.291,87.086 323.957,87.586 323.5,88C 325.171,89.8425 326.171,92.0092 326.5,94.5 Z"/></g>
<g><path style="opacity:1" fill="#34383d" d="M 264.5,146.5 C 264.44,147.043 264.107,147.376 263.5,147.5C 261.018,146.103 258.352,145.269 255.5,145C 258.823,144.068 261.823,144.568 264.5,146.5 Z"/></g>
<g><path style="opacity:1" fill="#ccaafb" d="M 284.5,144.5 C 286.308,144.491 287.975,144.991 289.5,146C 290.711,147.113 290.711,148.28 289.5,149.5C 286.384,151.009 283.718,150.509 281.5,148C 282.365,146.641 283.365,145.474 284.5,144.5 Z"/></g>
<g><path style="opacity:1" fill="#403d41" d="M 245.5,151.5 C 249.236,151.66 249.236,152.493 245.5,154C 243.421,154.808 241.421,154.641 239.5,153.5C 241.631,152.831 243.631,152.165 245.5,151.5 Z"/></g>
<g><path style="opacity:1" fill="#2e353a" d="M 259.5,153.5 C 260.5,153.5 261.5,153.5 262.5,153.5C 262.785,155.288 262.452,156.955 261.5,158.5C 259.783,157.332 259.116,155.665 259.5,153.5 Z"/></g>
<g><path style="opacity:1" fill="#2b3439" d="M 242.5,156.5 C 245.423,157.163 246.09,158.83 244.5,161.5C 242.783,160.332 242.116,158.665 242.5,156.5 Z"/></g>
<g><path style="opacity:1" fill="#de5c56" d="M 255.5,159.5 C 258.101,162.604 260.934,165.604 264,168.5C 264.033,170.877 262.7,172.21 260,172.5C 259.228,172.355 258.561,172.022 258,171.5C 257.057,167.504 256.224,163.504 255.5,159.5 Z"/></g>
<g><path style="opacity:1" fill="#4e4446" d="M 250.5,175.5 C 254.306,175.02 257.639,176.02 260.5,178.5C 260.167,178.833 259.833,179.167 259.5,179.5C 256.442,177.859 253.108,177.026 249.5,177C 250.056,176.617 250.389,176.117 250.5,175.5 Z"/></g>
<g><path style="opacity:0.988" fill="#dd897c" d="M 295.5,201.5 C 314.325,216.821 330.492,234.488 344,254.5C 348.334,260.838 350.667,267.838 351,275.5C 353.305,280.609 355.471,285.776 357.5,291C 353.336,295.33 349.003,299.497 344.5,303.5C 343.508,303.328 342.842,303.662 342.5,304.5C 340.599,306.796 338.266,308.629 335.5,310C 330.351,311.916 325.017,312.916 319.5,313C 314.09,316.372 308.423,319.205 302.5,321.5C 301.508,321.328 300.842,321.662 300.5,322.5C 294.495,324.835 288.495,327.168 282.5,329.5C 279.514,329.903 276.848,330.903 274.5,332.5C 262.455,335.511 251.455,333.511 241.5,326.5C 239.858,325.197 238.191,323.864 236.5,322.5C 230.823,316.824 224.823,311.491 218.5,306.5C 224.273,299.274 230.273,292.274 236.5,285.5C 243.968,293.801 251.968,301.634 260.5,309C 275.064,309.137 289.064,306.637 302.5,301.5C 303.959,301.567 305.292,301.234 306.5,300.5C 309.188,300.834 311.521,300.168 313.5,298.5C 315.701,298.142 317.035,296.808 317.5,294.5C 316.643,293.575 315.643,292.908 314.5,292.5C 316.357,285.427 318.524,278.427 321,271.5C 321.995,268.874 322.328,266.207 322,263.5C 315.127,251.729 307.294,240.729 298.5,230.5C 298.5,229.833 298.167,229.5 297.5,229.5C 297.5,228.833 297.167,228.5 296.5,228.5C 294.251,224.246 291.585,220.246 288.5,216.5C 289.456,215.341 290.456,214.174 291.5,213C 292.315,208.862 293.649,205.029 295.5,201.5 Z M 314.5,292.5 C 315.643,292.908 316.643,293.575 317.5,294.5C 317.035,296.808 315.701,298.142 313.5,298.5C 313.833,296.5 314.167,294.5 314.5,292.5 Z M 302.5,298.5 C 304.153,298.66 305.486,299.326 306.5,300.5C 305.292,301.234 303.959,301.567 302.5,301.5C 302.5,300.5 302.5,299.5 302.5,298.5 Z"/></g>
<g><path style="opacity:0.991" fill="#7d27ef" d="M 223.5,215.5 C 229.422,218.649 235.756,221.149 242.5,223C 246.723,228.224 250.556,233.724 254,239.5C 256.14,233.61 257.973,227.61 259.5,221.5C 260.167,221.5 260.5,221.167 260.5,220.5C 261.167,220.5 261.5,220.167 261.5,219.5C 262.531,218.645 263.697,217.978 265,217.5C 267.971,218.979 270.804,220.645 273.5,222.5C 273.5,223.167 273.833,223.5 274.5,223.5C 274.448,227.198 274.114,230.865 273.5,234.5C 270.84,233.653 268.174,233.153 265.5,233C 262.292,237.247 259.458,241.747 257,246.5C 254.985,245.303 253.151,243.97 251.5,242.5C 248.252,237.581 244.252,233.247 239.5,229.5C 237.722,231.264 236.389,233.264 235.5,235.5C 234.521,237.145 233.188,238.479 231.5,239.5C 223.471,234.156 215.471,228.823 207.5,223.5C 210.499,219.668 213.999,216.335 218,213.5C 219.725,214.464 221.559,215.131 223.5,215.5 Z"/></g>
<g><path style="opacity:1" fill="#a4a8ac" d="M 207.5,223.5 C 215.471,228.823 223.471,234.156 231.5,239.5C 233.188,238.479 234.521,237.145 235.5,235.5C 236.117,235.389 236.617,235.056 237,234.5C 241.74,237.424 246.574,240.09 251.5,242.5C 253.151,243.97 254.985,245.303 257,246.5C 259.458,241.747 262.292,237.247 265.5,233C 268.174,233.153 270.84,233.653 273.5,234.5C 274.114,230.865 274.448,227.198 274.5,223.5C 280.611,224.455 286.611,225.788 292.5,227.5C 299.515,250.619 302.849,274.285 302.5,298.5C 302.5,299.5 302.5,300.5 302.5,301.5C 289.064,306.637 275.064,309.137 260.5,309C 251.968,301.634 243.968,293.801 236.5,285.5C 237.122,284.373 237.955,283.373 239,282.5C 239.667,281.167 239.667,279.833 239,278.5C 231.167,264.83 222.834,251.497 214,238.5C 208.374,230.937 200.874,226.937 191.5,226.5C 196.525,224.496 201.858,223.496 207.5,223.5 Z"/></g>
<g><path style="opacity:0.995" fill="#7d26f4" d="M 191.5,226.5 C 200.874,226.937 208.374,230.937 214,238.5C 222.834,251.497 231.167,264.83 239,278.5C 239.667,279.833 239.667,281.167 239,282.5C 237.955,283.373 237.122,284.373 236.5,285.5C 230.273,292.274 224.273,299.274 218.5,306.5C 216.814,308.016 214.981,309.35 213,310.5C 208.393,307.727 204.226,304.393 200.5,300.5C 197.737,297.349 194.737,294.349 191.5,291.5C 177.876,278.8 172.042,263.133 174,244.5C 176.022,234.646 181.855,228.646 191.5,226.5 Z"/></g>
<g><path style="opacity:0.995" fill="#7c25f2" d="M 292.5,227.5 C 293.833,227.833 295.167,228.167 296.5,228.5C 297.167,228.5 297.5,228.833 297.5,229.5C 298.167,229.5 298.5,229.833 298.5,230.5C 307.294,240.729 315.127,251.729 322,263.5C 322.328,266.207 321.995,268.874 321,271.5C 318.524,278.427 316.357,285.427 314.5,292.5C 314.167,294.5 313.833,296.5 313.5,298.5C 311.521,300.168 309.188,300.834 306.5,300.5C 305.486,299.326 304.153,298.66 302.5,298.5C 302.849,274.285 299.515,250.619 292.5,227.5 Z"/></g>
<g><path style="opacity:1" fill="#6623c4" d="M 251.5,242.5 C 246.574,240.09 241.74,237.424 237,234.5C 236.617,235.056 236.117,235.389 235.5,235.5C 236.389,233.264 237.722,231.264 239.5,229.5C 244.252,233.247 248.252,237.581 251.5,242.5 Z"/></g>
<g><path style="opacity:1" fill="#84868d" d="M 191.5,291.5 C 194.737,294.349 197.737,297.349 200.5,300.5C 195.083,306.363 192.75,313.363 193.5,321.5C 193.802,324.059 193.468,326.393 192.5,328.5C 192.5,320.5 192.5,312.5 192.5,304.5C 192.5,304.167 192.5,303.833 192.5,303.5C 191.979,299.519 191.646,295.519 191.5,291.5 Z"/></g>
<g><path style="opacity:1" fill="#a5a9ac" d="M 200.5,300.5 C 204.226,304.393 208.393,307.727 213,310.5C 214.981,309.35 216.814,308.016 218.5,306.5C 224.823,311.491 230.823,316.824 236.5,322.5C 234.33,323.838 232.664,325.672 231.5,328C 230.833,328.667 230.167,328.667 229.5,328C 224.667,322.5 219.833,317 215,311.5C 210,317.167 205,322.833 200,328.5C 197.6,326.271 195.433,323.937 193.5,321.5C 192.75,313.363 195.083,306.363 200.5,300.5 Z"/></g>
<g><path style="opacity:1" fill="#d6d8d9" d="M 236.5,322.5 C 238.191,323.864 239.858,325.197 241.5,326.5C 238.202,331.132 234.536,335.466 230.5,339.5C 225.177,334.009 220.011,328.342 215,322.5C 210,328.5 205,334.5 200,340.5C 198.334,337.669 196.168,335.336 193.5,333.5C 193.634,331.708 193.301,330.042 192.5,328.5C 193.468,326.393 193.802,324.059 193.5,321.5C 195.433,323.937 197.6,326.271 200,328.5C 205,322.833 210,317.167 215,311.5C 219.833,317 224.667,322.5 229.5,328C 230.167,328.667 230.833,328.667 231.5,328C 232.664,325.672 234.33,323.838 236.5,322.5 Z"/></g>
<g><path style="opacity:1" fill="#d4d5d6" d="M 300.5,322.5 C 301.622,324.288 301.789,326.288 301,328.5C 298.013,332.487 294.68,336.153 291,339.5C 287.605,336.608 284.771,333.275 282.5,329.5C 288.495,327.168 294.495,324.835 300.5,322.5 Z"/></g>
<g><path style="opacity:1" fill="#a8acae" d="M 241.5,326.5 C 251.455,333.511 262.455,335.511 274.5,332.5C 270.008,338.136 265.508,343.803 261,349.5C 255.989,343.658 250.823,337.991 245.5,332.5C 240.177,337.991 235.011,343.658 230,349.5C 225.631,343.421 220.797,337.755 215.5,332.5C 210.177,337.991 205.011,343.658 200,349.5C 197.763,347.353 195.763,345.02 194,342.5C 193.79,344.058 193.29,345.391 192.5,346.5C 192.467,342.131 192.8,337.798 193.5,333.5C 196.168,335.336 198.334,337.669 200,340.5C 205,334.5 210,328.5 215,322.5C 220.011,328.342 225.177,334.009 230.5,339.5C 234.536,335.466 238.202,331.132 241.5,326.5 Z"/></g>
<g><path style="opacity:1" fill="#a7abad" d="M 300.5,322.5 C 300.842,321.662 301.508,321.328 302.5,321.5C 302.265,328.354 301.598,335.021 300.5,341.5C 300.631,340.761 300.464,340.094 300,339.5C 296.63,342.535 293.63,345.868 291,349.5C 288,345.833 285,342.167 282,338.5C 279.894,335.882 277.394,333.882 274.5,332.5C 276.848,330.903 279.514,329.903 282.5,329.5C 284.771,333.275 287.605,336.608 291,339.5C 294.68,336.153 298.013,332.487 301,328.5C 301.789,326.288 301.622,324.288 300.5,322.5 Z"/></g>
<g><path style="opacity:1" fill="#d5d7d8" d="M 274.5,332.5 C 277.394,333.882 279.894,335.882 282,338.5C 285,342.167 288,345.833 291,349.5C 293.63,345.868 296.63,342.535 300,339.5C 300.464,340.094 300.631,340.761 300.5,341.5C 300.747,344.939 300.414,348.272 299.5,351.5C 296.683,354.426 293.849,357.426 291,360.5C 285.989,354.658 280.823,348.991 275.5,343.5C 270.843,349.489 265.843,355.156 260.5,360.5C 255.843,354.511 250.843,348.844 245.5,343.5C 240.157,348.844 235.157,354.511 230.5,360.5C 225.275,355.062 220.275,349.395 215.5,343.5C 210.177,348.991 205.011,354.658 200,360.5C 197.558,357.883 195.058,355.55 192.5,353.5C 192.5,352.833 192.5,352.167 192.5,351.5C 192.5,349.833 192.5,348.167 192.5,346.5C 193.29,345.391 193.79,344.058 194,342.5C 195.763,345.02 197.763,347.353 200,349.5C 205.011,343.658 210.177,337.991 215.5,332.5C 220.797,337.755 225.631,343.421 230,349.5C 235.011,343.658 240.177,337.991 245.5,332.5C 250.823,337.991 255.989,343.658 261,349.5C 265.508,343.803 270.008,338.136 274.5,332.5 Z"/></g>
<g><path style="opacity:0.135" fill="#e9e9e9" d="M -0.5,351.5 C 63.8333,351.5 128.167,351.5 192.5,351.5C 192.5,352.167 192.5,352.833 192.5,353.5C 128.167,353.5 63.8333,353.5 -0.5,353.5C -0.5,352.833 -0.5,352.167 -0.5,351.5 Z"/></g>
<g><path style="opacity:0.135" fill="#e9e9e9" d="M 299.5,351.5 C 379.167,351.5 458.833,351.5 538.5,351.5C 538.5,352.167 538.5,352.833 538.5,353.5C 458.833,353.5 379.167,353.5 299.5,353.5C 299.5,352.833 299.5,352.167 299.5,351.5 Z"/></g>
<g><path style="opacity:1" fill="#d6d8d9" d="M 297.5,365.5 C 297.54,368.881 297.207,372.214 296.5,375.5C 294.521,376.812 292.855,378.479 291.5,380.5C 286.177,375.009 281.011,369.342 276,363.5C 270.989,369.342 265.823,375.009 260.5,380.5C 255.275,375.062 250.275,369.395 245.5,363.5C 240.843,369.489 235.843,375.156 230.5,380.5C 225.177,375.009 220.011,369.342 215,363.5C 209.977,369.187 204.977,374.854 200,380.5C 193.819,376.438 191.819,370.772 194,363.5C 196,365.5 198,367.5 200,369.5C 205,363.833 210,358.167 215,352.5C 220.011,358.342 225.177,364.009 230.5,369.5C 235.735,364.021 240.735,358.354 245.5,352.5C 250.265,358.354 255.265,364.021 260.5,369.5C 265.823,364.009 270.989,358.342 276,352.5C 281,358.167 286,363.833 291,369.5C 293,367.5 295,365.5 297,363.5C 297.464,364.094 297.631,364.761 297.5,365.5 Z"/></g>
<g><path style="opacity:0.254" fill="#ececec" d="M 426.5,360.5 C 433.655,359.345 440.988,359.178 448.5,360C 441.174,360.5 433.841,360.666 426.5,360.5 Z"/></g>
<g><path style="opacity:0.267" fill="#ececec" d="M 55.5,362.5 C 71.328,361.339 87.328,361.172 103.5,362C 87.5035,362.5 71.5035,362.667 55.5,362.5 Z"/></g>
<g><path style="opacity:0.253" fill="#ededed" d="M 111.5,362.5 C 113.966,361.366 116.633,361.199 119.5,362C 116.854,362.497 114.187,362.664 111.5,362.5 Z"/></g>
<g><path style="opacity:1" fill="#a6abad" d="M 299.5,351.5 C 299.5,352.167 299.5,352.833 299.5,353.5C 299.283,357.705 298.617,361.705 297.5,365.5C 297.631,364.761 297.464,364.094 297,363.5C 295,365.5 293,367.5 291,369.5C 286,363.833 281,358.167 276,352.5C 270.989,358.342 265.823,364.009 260.5,369.5C 255.265,364.021 250.265,358.354 245.5,352.5C 240.735,358.354 235.735,364.021 230.5,369.5C 225.177,364.009 220.011,358.342 215,352.5C 210,358.167 205,363.833 200,369.5C 198,367.5 196,365.5 194,363.5C 191.819,370.772 193.819,376.438 200,380.5C 204.977,374.854 209.977,369.187 215,363.5C 220.011,369.342 225.177,375.009 230.5,380.5C 235.843,375.156 240.843,369.489 245.5,363.5C 250.275,369.395 255.275,375.062 260.5,380.5C 265.823,375.009 270.989,369.342 276,363.5C 281.011,369.342 286.177,375.009 291.5,380.5C 292.855,378.479 294.521,376.812 296.5,375.5C 295.627,380.531 294.627,385.531 293.5,390.5C 259.5,390.5 225.5,390.5 191.5,390.5C 192.166,382.517 192.499,374.517 192.5,366.5C 123.167,366.167 123.167,365.833 192.5,365.5C 192.5,361.5 192.5,357.5 192.5,353.5C 195.058,355.55 197.558,357.883 200,360.5C 205.011,354.658 210.177,348.991 215.5,343.5C 220.275,349.395 225.275,355.062 230.5,360.5C 235.157,354.511 240.157,348.844 245.5,343.5C 250.843,348.844 255.843,354.511 260.5,360.5C 265.843,355.156 270.843,349.489 275.5,343.5C 280.823,348.991 285.989,354.658 291,360.5C 293.849,357.426 296.683,354.426 299.5,351.5 Z"/></g>
<g><path style="opacity:0.268" fill="#ececec" d="M 448.5,370.5 C 460.326,369.34 472.326,369.174 484.5,370C 472.505,370.5 460.505,370.667 448.5,370.5 Z"/></g>
<g><path style="opacity:0.252" fill="#eeeeee" d="M 346.5,373.5 C 349.976,372.357 353.642,372.19 357.5,373C 353.848,373.499 350.182,373.665 346.5,373.5 Z"/></g>
</svg>
